<?xml version="1.0" encoding="UTF-8" standalone="no"?>
<!DOCTYPE svg PUBLIC "-//W3C//DTD SVG 20010904//EN"
              "http://www.w3.org/TR/2001/REC-SVG-20010904/DTD/svg10.dtd">

<svg xmlns="http://www.w3.org/2000/svg"
     width="105.857mm" height="105.857mm"
     viewBox="0 0 300 300">
  <path id="Sélection"
        fill="black"
        d="M 12.00,157.00
           C 12.00,157.00 11.34,143.00 11.34,143.00
             11.34,143.00 11.90,138.00 11.90,138.00
             11.90,138.00 11.90,118.00 11.90,118.00
             11.90,118.00 11.22,98.96 11.22,98.96
             11.22,98.96 12.25,71.00 12.25,71.00
             12.25,71.00 12.25,39.91 12.25,39.91
             12.51,36.40 11.05,31.34 13.60,28.51
             16.42,25.38 23.11,26.04 27.00,26.00
             27.00,26.00 42.00,25.00 42.00,25.00
             42.00,25.00 189.00,25.00 189.00,25.00
             189.00,25.00 271.00,25.00 271.00,25.00
             271.00,25.00 286.00,26.00 286.00,26.00
             286.00,26.00 290.00,26.00 290.00,26.00
             290.00,26.00 291.00,63.00 291.00,63.00
             291.00,63.00 291.00,77.00 291.00,77.00
             291.00,77.00 290.20,92.00 290.20,92.00
             290.20,92.00 291.69,103.00 291.69,103.00
             291.69,103.00 291.69,115.00 291.69,115.00
             291.69,115.00 291.69,127.00 291.69,127.00
             291.69,127.00 291.00,142.00 291.00,142.00
             291.00,142.00 291.00,140.00 291.00,140.00
             291.00,140.00 292.00,140.00 292.00,140.00
             292.00,140.00 290.30,150.00 290.30,150.00
             290.09,161.12 293.82,171.65 279.00,175.00
             278.63,180.94 272.15,183.56 268.21,187.44
             263.48,192.09 260.98,198.62 256.00,203.00
             256.00,203.00 257.83,189.00 257.83,189.00
             257.83,189.00 259.00,159.00 259.00,159.00
             259.00,159.00 258.00,145.00 258.00,145.00
             258.00,145.00 257.31,118.87 257.31,118.87
             257.31,118.87 257.87,109.00 257.87,109.00
             257.87,109.00 257.00,98.00 257.00,98.00
             257.00,98.00 257.00,61.00 257.00,61.00
             249.36,59.99 247.16,59.01 239.00,59.00
             239.00,59.00 191.00,59.00 191.00,59.00
             191.00,59.00 168.00,59.00 168.00,59.00
             168.00,59.00 150.00,58.00 150.00,58.00
             150.00,58.00 135.00,59.00 135.00,59.00
             135.00,59.00 95.00,59.00 95.00,59.00
             95.00,59.00 64.00,59.00 64.00,59.00
             60.45,59.01 50.05,59.33 47.60,61.74
             45.66,63.64 46.01,67.47 45.97,70.00
             45.97,70.00 45.97,88.00 45.97,88.00
             45.97,88.00 45.97,101.00 45.97,101.00
             45.67,104.96 44.87,106.37 44.98,111.00
             44.98,111.00 44.98,141.00 44.98,141.00
             44.98,141.00 45.56,148.42 45.56,148.42
             45.56,148.42 44.02,158.00 44.02,158.00
             44.02,158.00 44.93,171.00 44.93,171.00
             44.35,177.58 43.87,183.67 44.93,190.28
             44.93,190.28 46.23,195.00 46.23,195.00
             46.23,195.00 47.00,205.00 47.00,205.00
             47.00,205.00 37.00,195.00 37.00,195.00
             37.00,195.00 38.00,193.00 38.00,193.00
             38.00,193.00 37.00,192.00 37.00,192.00
             31.58,190.82 24.32,180.31 23.00,175.00
             23.00,175.00 18.00,177.00 18.00,177.00
             13.88,169.71 13.37,172.10 14.70,164.92
             15.20,162.19 13.79,161.32 14.00,157.00
             14.00,157.00 12.00,157.00 12.00,157.00 Z
           M 85.00,61.00
           C 85.00,61.00 86.00,61.00 86.00,61.00
             86.00,61.00 85.00,62.00 85.00,62.00
             85.00,62.00 85.00,61.00 85.00,61.00 Z
           M 117.00,67.00
           C 127.71,70.30 139.87,69.00 151.00,69.00
             151.00,69.00 211.00,69.00 211.00,69.00
             211.00,69.00 235.00,69.00 235.00,69.00
             237.13,69.04 239.65,68.95 241.26,70.60
             243.65,73.04 242.99,80.61 243.00,84.00
             243.01,91.37 243.96,92.21 243.00,100.00
             243.00,100.00 252.00,103.00 252.00,103.00
             252.00,103.00 252.00,105.00 252.00,105.00
             248.29,106.36 247.46,107.22 243.91,105.00
             243.91,105.00 243.91,129.42 243.91,129.42
             243.82,132.91 244.65,136.37 242.00,139.00
             242.00,139.00 244.87,145.70 244.87,145.70
             244.87,145.70 244.87,172.00 244.87,172.00
             244.87,172.00 243.00,180.00 243.00,180.00
             243.00,180.00 245.00,180.00 245.00,180.00
             245.00,180.00 245.00,181.00 245.00,181.00
             245.00,181.00 242.98,183.00 242.98,183.00
             245.22,186.02 246.09,191.30 242.98,194.00
             242.98,194.00 242.98,199.00 242.98,199.00
             246.17,201.97 243.57,207.07 242.98,210.83
             241.65,218.15 241.65,218.10 246.00,224.00
             236.31,219.15 241.68,222.64 234.00,221.00
             230.33,227.88 223.61,233.55 218.63,239.46
             214.56,244.31 213.00,248.91 207.00,252.00
             207.00,252.00 210.00,246.00 210.00,246.00
             210.00,246.00 207.00,245.00 207.00,245.00
             207.00,245.00 210.44,237.00 210.44,237.00
             210.44,237.00 210.44,216.00 210.44,216.00
             210.44,216.00 210.44,180.09 210.44,180.09
             210.18,175.92 208.84,178.05 209.01,168.01
             209.14,160.53 212.26,143.79 208.00,138.00
             208.00,138.00 208.87,117.00 208.87,117.00
             208.87,117.00 208.87,107.00 208.87,107.00
             208.87,107.00 185.00,105.00 185.00,105.00
             185.00,105.00 116.00,105.00 116.00,105.00
             116.00,105.00 94.04,107.00 94.04,107.00
             94.04,107.00 94.04,120.00 94.04,120.00
             94.04,120.00 94.04,130.61 94.04,130.61
             94.04,130.61 94.04,137.00 94.04,137.00
             93.82,141.18 93.02,139.70 93.00,148.00
             93.00,148.00 92.13,194.00 92.13,194.00
             92.13,194.00 92.13,213.00 92.13,213.00
             93.23,217.11 95.96,219.79 92.13,223.00
             98.84,234.19 91.26,229.92 96.00,244.00
             96.00,244.00 98.00,242.00 98.00,242.00
             97.20,244.09 94.94,248.13 95.65,250.16
             96.76,253.27 101.79,254.46 98.00,258.00
             96.03,251.11 86.30,247.16 85.00,238.00
             74.77,234.76 72.84,219.44 61.00,223.00
             61.00,223.00 62.00,216.00 62.00,216.00
             59.45,213.93 58.13,204.56 58.48,201.28
             58.48,201.28 59.02,197.83 59.02,197.83
             59.02,197.83 58.18,192.00 58.18,192.00
             57.82,188.79 57.51,186.23 60.00,184.00
             60.00,184.00 60.00,182.00 60.00,182.00
             57.09,179.64 58.00,174.45 58.11,171.00
             58.11,171.00 58.11,148.92 58.11,148.92
             58.11,148.92 59.05,134.93 59.05,134.93
             59.05,134.93 59.05,113.00 59.05,113.00
             59.05,113.00 58.43,101.58 58.43,101.58
             58.43,101.58 60.00,84.00 60.00,84.00
             60.02,73.28 58.33,69.03 71.00,69.00
             71.00,69.00 109.00,69.00 109.00,69.00
             111.79,69.02 115.84,69.90 117.00,67.00 Z
           M 14.00,163.00
           C 14.00,163.00 15.00,163.00 15.00,163.00
             15.00,163.00 14.00,164.00 14.00,164.00
             14.00,164.00 14.00,163.00 14.00,163.00 Z
           M 96.00,219.00
           C 96.00,219.00 97.00,219.00 97.00,219.00
             97.00,219.00 96.00,220.00 96.00,220.00
             96.00,220.00 96.00,219.00 96.00,219.00 Z
           M 96.00,222.00
           C 96.00,222.00 97.00,222.00 97.00,222.00
             97.00,222.00 96.00,223.00 96.00,223.00
             96.00,223.00 96.00,222.00 96.00,222.00 Z
           M 96.00,226.00
           C 96.00,226.00 97.00,226.00 97.00,226.00
             97.00,226.00 96.00,227.00 96.00,227.00
             96.00,227.00 96.00,226.00 96.00,226.00 Z
           M 96.00,239.00
           C 96.00,239.00 97.00,239.00 97.00,239.00
             97.00,239.00 96.00,240.00 96.00,240.00
             96.00,240.00 96.00,239.00 96.00,239.00 Z" />
</svg>
