<?xml version="1.0" encoding="UTF-8" standalone="no"?>
<!DOCTYPE svg PUBLIC "-//W3C//DTD SVG 20010904//EN"
              "http://www.w3.org/TR/2001/REC-SVG-20010904/DTD/svg10.dtd">

<svg xmlns="http://www.w3.org/2000/svg"
     width="2.08333in" height="2.08333in"
     viewBox="0 0 150 150">
  <path id="Sélection"
        fill="black"
        d="M 70.99,13.00
           C 72.36,16.42 72.65,23.67 70.99,27.00
             69.26,30.43 53.79,45.25 50.00,49.00
             47.99,50.98 41.04,56.48 41.04,59.04
             41.04,61.19 43.62,63.55 45.01,65.00
             45.01,65.00 56.00,75.28 56.00,75.28
             59.54,78.40 69.95,88.05 71.40,92.00
             72.30,94.43 72.00,102.02 72.00,105.00
             65.93,102.13 60.77,95.77 56.00,91.00
             56.00,91.00 35.00,71.00 35.00,71.00
             32.40,68.40 24.37,61.88 25.34,58.00
             26.19,54.57 35.11,47.61 38.00,44.91
             38.00,44.91 59.00,24.01 59.00,24.01
             59.00,24.01 70.99,13.00 70.99,13.00 Z
           M 76.00,13.00
           C 89.09,22.25 99.18,35.13 111.00,45.83
             113.86,48.42 122.80,55.16 122.80,59.00
             122.80,62.16 115.33,68.67 113.00,71.00
             113.00,71.00 92.00,91.00 92.00,91.00
             87.23,95.77 82.07,102.13 76.00,105.00
             76.00,102.02 75.70,94.43 76.60,92.00
             78.05,88.05 88.46,78.40 92.00,75.28
             92.00,75.28 102.99,65.00 102.99,65.00
             104.38,63.55 106.96,61.19 106.96,59.04
             106.96,56.45 96.30,47.30 94.00,45.00
             90.27,41.27 78.10,30.08 76.60,26.00
             75.70,23.57 76.00,15.98 76.00,13.00 Z
           M 71.00,33.00
           C 72.78,37.48 72.64,45.06 69.69,49.00
             67.81,51.50 62.04,56.01 62.04,59.00
             62.04,62.57 68.78,66.61 70.98,71.00
             72.52,74.09 72.00,82.25 72.00,86.00
             72.00,86.00 55.00,70.00 55.00,70.00
             55.00,70.00 44.00,59.00 44.00,59.00
             44.00,59.00 71.00,33.00 71.00,33.00 Z
           M 76.00,33.00
           C 76.00,33.00 89.00,44.00 89.00,44.00
             89.00,44.00 104.00,60.00 104.00,60.00
             104.00,60.00 76.00,86.00 76.00,86.00
             76.00,82.90 75.68,74.49 76.60,72.00
             78.22,67.59 85.36,62.16 89.00,59.00
             85.33,56.37 78.14,50.19 76.60,46.00
             75.70,43.57 76.00,35.98 76.00,33.00 Z
           M 24.00,65.00
           C 30.78,69.86 33.94,72.50 34.00,81.00
             34.00,81.00 34.00,121.00 34.00,121.00
             33.85,128.66 29.96,131.73 24.00,136.00
             24.00,136.00 24.00,65.00 24.00,65.00 Z
           M 123.00,65.00
           C 123.00,65.00 124.00,88.00 124.00,88.00
             124.00,88.00 124.00,136.00 124.00,136.00
             120.63,133.59 116.07,129.99 114.60,126.00
             113.68,123.51 114.00,115.10 114.00,112.00
             114.00,112.00 114.00,82.00 114.00,82.00
             114.02,72.18 116.08,71.93 123.00,65.00 Z
           M 38.00,79.00
           C 41.30,81.36 46.15,85.35 47.98,89.00
             49.19,91.43 48.99,94.35 49.00,97.00
             49.02,108.71 50.64,116.03 38.00,122.00
             38.00,122.00 38.00,79.00 38.00,79.00 Z
           M 109.00,79.00
           C 109.00,79.00 110.00,94.00 110.00,94.00
             110.00,94.00 110.00,122.00 110.00,122.00
             98.63,116.62 99.00,110.84 99.00,100.00
             99.00,96.82 98.63,91.79 100.02,89.00
             101.42,86.20 106.61,81.39 109.00,79.00 Z" />
</svg>
