<?xml version="1.0" encoding="UTF-8" standalone="no"?>
<!DOCTYPE svg PUBLIC "-//W3C//DTD SVG 20010904//EN"
              "http://www.w3.org/TR/2001/REC-SVG-20010904/DTD/svg10.dtd">

<svg xmlns="http://www.w3.org/2000/svg"
     width="4.16667in" height="4.16667in"
     viewBox="0 0 300 300">
  <path id="Sélection"
        fill="black"
        d="M 18.00,173.00
           C 18.00,173.00 17.00,161.00 17.00,161.00
             17.00,161.00 17.00,141.00 17.00,141.00
             17.01,133.71 17.98,129.06 19.40,122.00
             27.20,83.26 53.09,49.68 88.00,31.32
             102.24,23.83 124.88,17.03 141.00,17.00
             141.00,17.00 161.00,17.00 161.00,17.00
             168.41,17.09 179.78,19.54 187.00,21.58
             225.65,32.49 256.86,60.15 272.72,97.00
             277.64,108.42 282.85,126.60 283.00,139.00
             283.20,156.06 283.73,166.10 279.53,183.00
             268.66,226.64 235.71,262.41 193.00,276.65
             172.40,283.51 160.12,283.24 139.00,283.00
             108.72,282.64 75.95,264.97 55.00,244.00
             48.60,237.59 45.81,234.42 40.59,227.00
             38.99,224.72 36.04,220.76 35.71,218.00
             35.33,214.81 37.70,211.55 39.34,209.00
             39.34,209.00 50.68,191.00 50.68,191.00
             50.68,191.00 93.00,123.00 93.00,123.00
             93.00,123.00 63.00,104.00 63.00,104.00
             63.00,104.00 32.32,153.00 32.32,153.00
             29.09,158.12 22.72,170.17 18.00,173.00 Z
           M 239.00,216.00
           C 239.00,216.00 199.00,190.69 199.00,190.69
             199.00,190.69 142.00,154.31 142.00,154.31
             142.00,154.31 115.00,136.95 115.00,136.95
             115.00,136.95 99.00,128.00 99.00,128.00
             99.00,128.00 56.58,196.00 56.58,196.00
             56.58,196.00 44.00,217.00 44.00,217.00
             44.00,217.00 180.00,217.00 180.00,217.00
             180.00,217.00 220.00,217.00 220.00,217.00
             220.00,217.00 239.00,216.00 239.00,216.00 Z" />
</svg>
