<?xml version="1.0" encoding="UTF-8" standalone="no"?>
<!DOCTYPE svg PUBLIC "-//W3C//DTD SVG 20010904//EN"
              "http://www.w3.org/TR/2001/REC-SVG-20010904/DTD/svg10.dtd">

<svg xmlns="http://www.w3.org/2000/svg"
     width="105.857mm" height="105.857mm"
     viewBox="0 0 300 300">
  <path id="Sélection"
        fill="black"
        d="M 20.00,50.00
           C 20.00,50.00 102.00,50.00 102.00,50.00
             102.00,50.00 102.00,67.00 102.00,67.00
             105.71,67.00 116.96,67.84 119.40,65.40
             121.79,63.01 121.00,53.50 121.00,50.00
             121.00,50.00 180.00,50.00 180.00,50.00
             180.00,50.00 180.00,67.00 180.00,67.00
             180.00,67.00 198.00,67.00 198.00,67.00
             198.00,67.00 198.00,50.00 198.00,50.00
             198.00,50.00 280.00,50.00 280.00,50.00
             280.00,50.00 261.00,70.00 261.00,70.00
             261.00,70.00 228.00,103.00 228.00,103.00
             228.00,103.00 215.00,115.98 215.00,115.98
             215.00,115.98 209.00,119.80 209.00,119.80
             209.00,119.80 196.00,110.00 196.00,110.00
             192.70,116.97 186.05,120.32 186.04,124.00
             186.04,128.66 195.44,131.96 192.29,138.00
             191.18,140.14 184.12,146.88 182.00,149.00
             182.00,149.00 161.00,170.00 161.00,170.00
             158.79,172.21 153.07,178.80 150.00,178.80
             146.93,178.80 141.21,172.21 139.00,170.00
             139.00,170.00 118.00,149.00 118.00,149.00
             115.88,146.88 108.82,140.14 107.71,138.00
             104.56,131.96 113.96,128.66 113.96,124.00
             113.95,120.32 107.30,116.97 104.00,110.00
             104.00,110.00 91.00,119.80 91.00,119.80
             91.00,119.80 85.00,115.98 85.00,115.98
             85.00,115.98 72.00,103.00 72.00,103.00
             72.00,103.00 39.00,70.00 39.00,70.00
             39.00,70.00 20.00,50.00 20.00,50.00 Z
           M 20.00,120.00
           C 20.00,120.00 59.00,120.00 59.00,120.00
             69.97,120.02 71.45,124.45 79.00,132.00
             79.00,132.00 98.83,152.00 98.83,152.00
             98.83,152.00 136.00,190.00 136.00,190.00
             138.50,192.50 146.86,201.96 150.00,201.96
             153.18,201.96 162.40,191.60 165.00,189.00
             165.00,189.00 203.17,150.00 203.17,150.00
             203.17,150.00 222.00,131.00 222.00,131.00
             228.49,124.51 230.48,120.06 240.00,120.00
             240.00,120.00 280.00,120.00 280.00,120.00
             280.00,120.00 246.00,155.00 246.00,155.00
             246.00,155.00 211.00,189.00 211.00,189.00
             209.06,187.06 203.31,180.81 201.00,180.20
             197.53,179.28 188.04,188.65 188.04,192.00
             188.04,194.51 195.05,201.27 197.00,204.00
             197.00,204.00 163.00,238.00 163.00,238.00
             160.55,240.45 153.22,248.80 150.00,248.80
             146.78,248.80 139.45,240.45 137.00,238.00
             137.00,238.00 103.00,203.00 103.00,203.00
             104.94,201.06 111.19,195.31 111.80,193.00
             112.72,189.53 103.35,180.04 100.00,180.04
             97.49,180.04 90.73,187.05 88.00,189.00
             88.00,189.00 44.00,145.00 44.00,145.00
             44.00,145.00 20.00,120.00 20.00,120.00 Z" />
</svg>
