<?xml version="1.0" encoding="UTF-8" standalone="no"?>
<!DOCTYPE svg PUBLIC "-//W3C//DTD SVG 20010904//EN"
              "http://www.w3.org/TR/2001/REC-SVG-20010904/DTD/svg10.dtd">

<svg xmlns="http://www.w3.org/2000/svg"
     width="2.08333in" height="2.08333in"
     viewBox="0 0 150 150">
  <path id="Sélection"
        fill="black"
        d="M 68.00,102.00
           C 60.64,102.00 43.75,103.23 38.05,99.28
             33.22,95.93 32.08,90.49 32.00,85.00
             32.00,85.00 32.00,46.00 32.00,46.00
             32.00,46.00 32.00,15.00 32.00,15.00
             32.10,9.59 32.57,7.65 38.00,6.00
             40.85,12.75 40.00,17.83 40.00,25.00
             40.00,25.00 40.00,55.00 40.00,55.00
             40.00,58.20 39.90,60.87 40.79,64.00
             45.00,78.81 61.51,90.97 77.00,89.91
             86.82,89.24 95.40,84.17 101.90,77.00
             112.11,65.74 111.00,53.01 111.05,39.00
             111.05,39.00 111.05,16.00 111.05,16.00
             111.05,16.00 111.05,11.02 111.05,11.02
             111.91,6.29 115.16,6.21 116.98,9.16
             118.19,11.14 118.00,14.71 118.00,17.00
             118.00,17.00 118.00,75.00 118.00,75.00
             118.00,83.01 119.74,92.88 112.90,98.58
             105.66,104.62 92.65,100.41 82.00,103.00
             82.00,103.00 82.00,105.24 82.00,105.24
             87.25,106.28 102.79,106.67 108.00,105.24
             108.00,105.24 118.00,102.00 118.00,102.00
             118.00,102.00 118.00,121.00 118.00,121.00
             118.00,121.00 95.00,121.00 95.00,121.00
             95.00,121.00 95.00,134.00 95.00,134.00
             95.00,134.00 75.00,127.42 75.00,127.42
             75.00,127.42 55.00,134.00 55.00,134.00
             55.00,134.00 55.00,121.00 55.00,121.00
             55.00,121.00 32.00,121.00 32.00,121.00
             32.00,121.00 32.00,102.00 32.00,102.00
             32.00,102.00 43.00,105.84 43.00,105.84
             43.00,105.84 59.00,105.84 59.00,105.84
             63.67,105.97 65.54,106.36 68.00,102.00 Z
           M 71.00,6.52
           C 76.62,5.64 78.68,6.21 84.00,8.00
             90.16,10.08 95.31,12.87 99.47,18.04
             114.33,36.46 105.32,63.97 82.00,69.32
             57.96,74.84 37.14,51.36 45.10,28.00
             49.41,15.35 58.76,9.78 71.00,6.52 Z
           M 32.00,125.00
           C 32.00,125.00 51.00,125.00 51.00,125.00
             51.00,125.00 51.00,144.00 51.00,144.00
             51.00,144.00 32.00,144.00 32.00,144.00
             32.00,144.00 32.00,125.00 32.00,125.00 Z
           M 99.00,125.00
           C 99.00,125.00 118.00,125.00 118.00,125.00
             118.00,125.00 118.00,144.00 118.00,144.00
             118.00,144.00 99.00,144.00 99.00,144.00
             99.00,144.00 99.00,125.00 99.00,125.00 Z" />
</svg>
