<?xml version="1.0" encoding="UTF-8" standalone="no"?>
<!DOCTYPE svg PUBLIC "-//W3C//DTD SVG 20010904//EN"
              "http://www.w3.org/TR/2001/REC-SVG-20010904/DTD/svg10.dtd">

<svg xmlns="http://www.w3.org/2000/svg"
     width="2.5in" height="2.5in"
     viewBox="0 0 180 180">
  <path id="Sélection"
        fill="black"
        d="M 56.00,47.00
           C 53.18,49.20 47.16,56.72 44.29,56.66
             40.92,56.60 42.00,45.46 42.00,43.00
             42.03,26.95 49.62,28.94 54.84,18.00
             56.72,14.07 55.62,3.32 66.00,0.00
             66.00,0.00 66.00,48.00 66.00,48.00
             66.00,48.00 77.11,34.00 77.11,34.00
             77.11,34.00 78.00,18.00 78.00,18.00
             85.26,20.38 86.96,26.08 87.00,33.00
             87.00,33.00 87.00,113.00 87.00,113.00
             87.00,115.48 87.14,118.69 86.26,121.00
             83.93,127.18 69.01,140.17 66.70,147.00
             65.88,149.44 66.00,152.44 66.00,155.00
             65.98,164.50 67.40,176.36 56.00,180.00
             56.00,180.00 56.00,110.00 56.00,110.00
             49.85,115.37 44.17,126.65 36.00,128.00
             36.00,128.00 36.00,92.00 36.00,92.00
             36.00,92.00 36.51,85.00 36.51,85.00
             36.51,85.00 54.83,61.00 54.83,61.00
             54.83,61.00 56.00,47.00 56.00,47.00 Z
           M 114.00,0.00
           C 124.38,3.32 123.28,14.07 125.16,18.00
             130.38,28.94 137.97,26.95 138.00,43.00
             138.00,45.46 139.08,56.60 135.71,56.66
             132.84,56.72 126.82,49.20 124.00,47.00
             124.00,51.64 123.29,57.98 125.73,62.00
             132.04,72.39 143.91,77.65 144.00,91.00
             144.00,91.00 144.00,128.00 144.00,128.00
             144.00,128.00 140.17,126.98 140.17,126.98
             140.17,126.98 124.00,110.00 124.00,110.00
             124.00,110.00 124.00,180.00 124.00,180.00
             115.44,177.26 114.01,169.88 114.00,162.00
             113.99,157.00 114.71,149.37 112.43,145.00
             109.43,139.26 95.74,126.31 93.74,121.00
             92.86,118.69 93.00,115.48 93.00,113.00
             93.00,113.00 93.00,55.00 93.00,55.00
             93.00,49.89 92.45,29.41 93.74,26.00
             95.20,22.13 98.14,19.27 102.00,18.00
             102.00,18.00 102.89,34.00 102.89,34.00
             102.89,34.00 114.00,48.00 114.00,48.00
             114.00,48.00 114.00,0.00 114.00,0.00 Z
           M 56.00,26.00
           C 50.69,30.83 52.00,35.36 52.00,42.00
             57.47,38.61 56.00,31.72 56.00,26.00 Z
           M 125.00,26.00
           C 122.99,31.06 123.01,38.90 128.00,42.00
             128.00,35.10 128.98,32.03 125.00,26.00 Z
           M 78.00,44.00
           C 71.95,46.89 68.01,53.00 63.73,58.00
             59.42,63.04 47.71,75.51 45.85,81.00
             44.76,84.22 45.00,88.57 45.00,92.00
             51.12,89.10 55.11,83.06 59.42,78.00
             63.10,73.68 75.29,60.22 76.99,56.00
             78.34,52.68 78.00,47.63 78.00,44.00 Z
           M 103.00,44.00
           C 101.57,47.61 101.53,52.35 103.00,56.00
             104.73,60.26 119.22,76.45 123.13,81.00
             127.09,85.60 129.40,89.35 135.00,92.00
             135.00,88.57 135.24,84.22 134.15,81.00
             132.33,75.61 121.32,63.87 117.13,59.00
             112.66,53.81 108.55,48.06 103.00,44.00 Z
           M 78.00,64.00
           C 78.00,64.00 76.00,64.00 76.00,64.00
             76.00,64.00 55.73,88.00 55.73,88.00
             48.41,96.56 42.56,100.88 46.00,113.00
             46.00,113.00 67.58,89.00 67.58,89.00
             67.58,89.00 77.28,76.00 77.28,76.00
             77.28,76.00 78.00,64.00 78.00,64.00 Z
           M 102.86,64.00
           C 101.69,67.29 101.52,72.63 102.86,76.00
             104.42,80.75 118.59,96.17 122.73,101.00
             126.31,105.18 129.65,109.61 134.00,113.00
             138.01,98.88 126.66,90.81 118.27,81.00
             114.09,76.12 107.61,67.81 102.86,64.00 Z
           M 78.00,85.00
           C 73.67,87.09 68.46,92.43 66.74,97.00
             65.68,99.80 66.00,106.73 66.00,110.00
             66.00,110.00 66.00,137.00 66.00,137.00
             70.81,134.62 75.41,129.14 77.15,124.00
             78.34,120.47 78.00,113.91 78.00,110.00
             78.00,110.00 78.00,85.00 78.00,85.00 Z
           M 103.00,85.00
           C 101.31,89.25 102.00,96.29 102.00,101.00
             102.00,114.38 99.44,129.79 114.00,137.00
             114.00,137.00 114.00,110.00 114.00,110.00
             114.00,106.73 114.32,99.80 113.26,97.00
             111.70,92.86 106.51,87.64 103.00,85.00 Z" />
</svg>
