<?xml version="1.0" encoding="UTF-8" standalone="no"?>
<!DOCTYPE svg PUBLIC "-//W3C//DTD SVG 20010904//EN"
              "http://www.w3.org/TR/2001/REC-SVG-20010904/DTD/svg10.dtd">

<svg xmlns="http://www.w3.org/2000/svg"
     width="2.5in" height="2.5in"
     viewBox="0 0 180 180">
  <path id="Sélection"
        fill="black"
        d="M 85.00,2.00
           C 85.00,2.00 88.00,2.00 88.00,2.00
             88.00,2.00 88.00,21.00 88.00,21.00
             88.00,23.26 88.24,28.88 87.40,30.73
             85.41,35.12 75.11,36.90 75.00,47.00
             77.38,40.03 81.78,36.77 89.00,36.00
             89.00,36.00 89.00,18.00 89.00,18.00
             89.00,18.00 91.00,18.00 91.00,18.00
             91.00,18.00 92.00,32.00 92.00,32.00
             92.00,32.00 92.00,2.00 92.00,2.00
             92.00,2.00 95.00,2.00 95.00,2.00
             95.27,5.29 96.34,15.29 97.98,17.73
             99.57,20.08 103.52,21.47 106.00,23.11
             109.47,25.39 112.94,28.72 115.47,32.00
             118.19,35.52 122.40,45.49 125.33,46.85
             129.05,48.58 132.89,43.46 142.00,44.10
             153.53,44.90 162.55,55.60 161.96,67.00
             161.64,73.08 158.98,76.68 154.96,81.00
             152.86,83.26 148.85,86.67 148.94,90.00
             149.05,94.07 154.76,97.55 157.37,101.04
             163.86,109.73 163.42,119.63 156.47,127.91
             151.20,134.19 142.86,136.07 135.00,134.67
             130.87,133.94 128.51,131.89 126.09,132.51
             122.35,133.48 117.54,144.42 114.96,147.99
             112.20,151.79 108.98,154.43 105.00,156.88
             102.85,158.21 99.40,159.44 97.98,161.41
             96.28,163.79 95.27,174.64 95.00,178.00
             95.00,178.00 92.00,178.00 92.00,178.00
             92.00,178.00 92.00,159.00 92.00,159.00
             92.00,156.68 91.77,151.13 92.60,149.21
             94.91,143.87 102.49,144.91 103.00,136.00
             100.03,141.03 97.76,142.35 92.00,143.00
             92.00,143.00 91.00,162.00 91.00,162.00
             91.00,162.00 88.00,161.00 88.00,161.00
             88.00,161.00 87.00,178.00 87.00,178.00
             87.00,178.00 85.00,178.00 85.00,178.00
             85.00,178.00 83.00,160.00 83.00,160.00
             74.35,158.38 67.05,152.39 62.47,145.00
             60.60,141.99 57.43,134.41 54.67,132.81
             51.11,130.73 49.20,134.76 41.00,134.98
             30.98,135.26 22.55,130.91 18.97,121.00
             16.60,114.44 18.08,106.42 22.39,101.01
             24.84,97.94 30.60,94.02 30.60,90.00
             30.60,86.00 25.71,82.70 23.33,79.91
             19.34,75.25 17.73,70.08 18.04,64.00
             18.63,52.60 29.67,43.23 41.00,44.19
             46.01,44.61 50.46,47.05 55.00,49.00
             60.65,37.25 68.49,21.55 83.00,20.00
             83.00,20.00 85.00,2.00 85.00,2.00 Z
           M 82.00,23.00
           C 82.00,23.00 81.00,23.00 81.00,23.00
             81.00,23.00 82.00,24.00 82.00,24.00
             82.00,24.00 82.00,23.00 82.00,23.00 Z
           M 99.00,23.00
           C 98.30,26.96 100.23,29.68 102.21,33.00
             106.48,40.18 111.14,47.07 118.00,52.00
             117.99,49.48 118.11,46.42 117.35,44.01
             116.48,41.27 115.12,39.95 113.53,37.72
             107.53,29.32 107.94,29.04 99.00,23.00 Z
           M 81.00,24.00
           C 73.01,26.65 70.92,30.52 66.44,37.00
             64.63,39.61 62.62,41.90 61.65,45.00
             60.94,47.26 61.02,49.66 61.00,52.00
             68.85,48.26 79.37,32.60 81.00,24.00 Z
           M 93.00,32.00
           C 93.00,32.00 92.00,36.00 92.00,36.00
             98.40,38.04 100.27,40.59 105.00,45.00
             103.18,37.67 99.44,35.20 93.00,32.00 Z
           M 88.00,40.00
           C 77.55,44.81 75.49,54.77 85.00,62.00
             88.13,53.45 88.00,48.81 88.00,40.00 Z
           M 94.00,62.00
           C 103.69,56.48 103.02,44.25 92.00,41.00
             92.00,41.00 94.00,62.00 94.00,62.00 Z
           M 74.00,47.00
           C 72.75,50.17 72.75,51.83 74.00,55.00
             74.00,55.00 74.00,47.00 74.00,47.00 Z
           M 107.00,48.00
           C 107.00,48.00 107.00,54.00 107.00,54.00
             107.00,54.00 107.00,48.00 107.00,48.00 Z
           M 48.00,68.00
           C 50.20,66.40 52.81,64.64 53.87,62.00
             55.41,58.15 51.85,54.16 48.91,52.13
             42.71,47.86 33.84,48.22 28.21,53.39
             22.82,58.34 21.50,67.71 25.23,74.00
             26.83,76.70 29.47,79.89 33.00,79.12
             35.63,78.55 38.18,75.86 40.00,74.00
             37.52,73.47 36.17,73.27 34.11,71.57
             23.57,62.92 40.20,49.28 46.83,62.02
             47.88,64.05 47.87,65.80 48.00,68.00 Z
           M 140.00,75.00
           C 141.71,76.23 144.96,78.91 147.00,79.10
             150.64,79.44 153.90,74.94 155.15,72.00
             158.33,64.51 155.73,56.23 149.00,51.70
             144.16,48.44 137.06,48.17 132.00,51.09
             123.99,55.71 122.78,62.03 131.00,67.00
             131.56,62.19 134.31,56.45 140.00,56.45
             144.37,56.45 151.33,62.61 147.26,68.96
             145.51,71.69 142.59,73.20 140.00,75.00 Z
           M 106.00,56.00
           C 106.00,56.00 105.00,56.00 105.00,56.00
             105.00,56.00 106.00,57.00 106.00,57.00
             106.00,57.00 106.00,56.00 106.00,56.00 Z
           M 75.00,57.00
           C 75.00,57.00 74.00,57.00 74.00,57.00
             74.00,57.00 75.00,58.00 75.00,58.00
             75.00,58.00 75.00,57.00 75.00,57.00 Z
           M 70.00,58.00
           C 61.11,63.65 67.26,68.72 63.87,78.00
             61.75,83.80 57.75,85.65 58.00,92.00
             58.00,92.00 68.04,81.67 68.04,81.67
             73.23,77.39 78.67,76.44 81.00,70.00
             75.33,65.71 73.75,64.00 70.00,58.00 Z
           M 121.00,92.00
           C 121.92,85.63 117.60,82.92 115.48,77.00
             112.43,68.50 119.50,62.26 109.00,58.00
             105.94,64.24 104.03,66.47 98.00,70.00
             101.41,77.00 103.87,75.26 110.00,80.33
             114.95,84.42 116.92,87.68 121.00,92.00 Z
           M 76.00,59.00
           C 76.00,59.00 75.00,59.00 75.00,59.00
             75.00,59.00 76.00,60.00 76.00,60.00
             76.00,60.00 76.00,59.00 76.00,59.00 Z
           M 104.00,60.00
           C 104.00,60.00 103.00,60.00 103.00,60.00
             103.00,60.00 104.00,61.00 104.00,61.00
             104.00,61.00 104.00,60.00 104.00,60.00 Z
           M 77.00,61.00
           C 77.00,61.00 76.00,61.00 76.00,61.00
             76.00,61.00 77.00,62.00 77.00,62.00
             77.00,62.00 77.00,61.00 77.00,61.00 Z
           M 78.00,62.00
           C 78.00,62.00 77.00,62.00 77.00,62.00
             77.00,62.00 78.00,63.00 78.00,63.00
             78.00,63.00 78.00,62.00 78.00,62.00 Z
           M 79.00,63.00
           C 79.00,63.00 78.00,63.00 78.00,63.00
             78.00,63.00 79.00,64.00 79.00,64.00
             79.00,64.00 79.00,63.00 79.00,63.00 Z
           M 102.00,63.00
           C 102.00,63.00 101.00,63.00 101.00,63.00
             101.00,63.00 102.00,64.00 102.00,64.00
             102.00,64.00 102.00,63.00 102.00,63.00 Z
           M 80.00,64.00
           C 80.00,64.00 79.00,64.00 79.00,64.00
             79.00,64.00 80.00,65.00 80.00,65.00
             80.00,65.00 80.00,64.00 80.00,64.00 Z
           M 101.00,64.00
           C 101.00,64.00 100.00,64.00 100.00,64.00
             100.00,64.00 101.00,65.00 101.00,65.00
             101.00,65.00 101.00,64.00 101.00,64.00 Z
           M 81.00,65.00
           C 81.00,65.00 80.00,65.00 80.00,65.00
             80.00,65.00 81.00,66.00 81.00,66.00
             81.00,66.00 81.00,65.00 81.00,65.00 Z
           M 99.00,65.00
           C 99.00,65.00 98.00,65.00 98.00,65.00
             98.00,65.00 99.00,66.00 99.00,66.00
             99.00,66.00 99.00,65.00 99.00,65.00 Z
           M 83.00,66.00
           C 83.00,66.00 82.00,66.00 82.00,66.00
             82.00,66.00 83.00,67.00 83.00,67.00
             83.00,67.00 83.00,66.00 83.00,66.00 Z
           M 98.00,66.00
           C 98.00,66.00 97.00,66.00 97.00,66.00
             97.00,66.00 98.00,67.00 98.00,67.00
             98.00,67.00 98.00,66.00 98.00,66.00 Z
           M 132.00,67.00
           C 132.00,67.00 131.00,67.00 131.00,67.00
             131.00,67.00 132.00,68.00 132.00,68.00
             132.00,68.00 132.00,67.00 132.00,67.00 Z
           M 48.00,68.00
           C 48.00,68.00 47.00,68.00 47.00,68.00
             47.00,68.00 48.00,69.00 48.00,69.00
             48.00,69.00 48.00,68.00 48.00,68.00 Z
           M 56.00,68.00
           C 56.00,68.00 55.00,68.00 55.00,68.00
             55.00,68.00 56.00,69.00 56.00,69.00
             56.00,69.00 56.00,68.00 56.00,68.00 Z
           M 125.00,68.00
           C 123.38,74.54 130.26,79.78 136.00,81.00
             133.76,74.44 129.92,72.52 125.00,68.00 Z
           M 55.00,69.00
           C 49.12,72.14 45.08,75.53 43.00,82.00
             50.13,78.90 53.46,77.07 55.00,69.00 Z
           M 60.00,74.00
           C 56.20,77.32 50.81,81.21 55.00,86.00
             58.19,81.49 59.14,79.46 60.00,74.00 Z
           M 121.00,74.00
           C 119.05,79.10 121.41,81.69 124.00,86.00
             124.00,86.00 128.00,83.00 128.00,83.00
             128.00,83.00 121.00,74.00 121.00,74.00 Z
           M 82.00,79.00
           C 73.85,79.86 59.58,89.52 63.00,99.00
             66.66,86.56 73.63,85.67 82.00,79.00 Z
           M 118.00,98.00
           C 116.54,90.31 106.92,77.16 98.00,80.00
             111.87,86.20 111.85,91.86 118.00,98.00 Z
           M 137.00,81.00
           C 137.00,81.00 136.00,81.00 136.00,81.00
             136.00,81.00 137.00,82.00 137.00,82.00
             137.00,82.00 137.00,81.00 137.00,81.00 Z
           M 109.00,121.00
           C 110.61,120.32 111.92,120.01 113.01,118.44
             114.29,116.58 114.02,112.27 114.00,110.00
             113.92,103.14 112.36,96.34 107.67,91.09
             96.70,78.82 76.90,80.90 68.48,95.00
             65.61,99.80 63.10,113.89 66.02,118.67
             67.05,120.36 68.42,121.00 70.00,122.00
             72.96,115.97 75.00,113.23 81.00,110.00
             79.83,106.82 77.62,103.16 77.23,100.00
             76.82,96.77 77.74,93.66 79.65,91.04
             89.27,77.83 103.86,90.68 102.38,100.00
             101.91,102.97 99.28,106.91 98.00,110.00
             103.93,113.19 105.50,115.40 109.00,121.00 Z
           M 47.93,86.45
           C 41.57,86.85 42.27,92.12 46.05,93.12
             49.32,93.98 53.56,90.07 47.93,86.45 Z
           M 138.00,89.00
           C 138.00,89.00 135.00,86.91 135.00,86.91
             127.22,82.95 127.42,95.29 133.96,92.83
             135.83,92.13 136.85,90.48 138.00,89.00 Z
           M 88.00,90.45
           C 77.11,94.81 82.29,109.11 91.98,106.57
             100.56,104.31 100.31,89.24 88.00,90.45 Z
           M 55.00,93.00
           C 52.03,96.38 52.83,97.19 56.00,100.00
             56.00,100.00 55.00,93.00 55.00,93.00 Z
           M 126.00,93.00
           C 122.96,96.08 123.15,96.78 123.00,101.00
             123.00,101.00 128.00,96.00 128.00,96.00
             128.00,96.00 126.00,94.00 126.00,94.00
             126.00,94.00 126.00,93.00 126.00,93.00 Z
           M 141.00,97.00
           C 141.00,97.00 135.00,98.00 135.00,98.00
             137.42,101.09 139.11,99.87 141.00,97.00 Z
           M 45.00,98.00
           C 45.00,98.00 39.00,99.00 39.00,99.00
             39.00,99.00 44.00,101.00 44.00,101.00
             44.00,101.00 45.00,98.00 45.00,98.00 Z
           M 38.00,103.00
           C 36.30,102.06 34.00,100.55 32.00,100.61
             26.99,100.78 23.68,107.67 23.19,112.00
             22.45,118.50 25.37,124.72 31.00,128.15
             36.66,131.58 44.90,130.77 49.96,126.61
             53.06,124.06 56.11,120.14 53.39,116.18
             52.06,114.26 49.95,113.15 48.00,112.00
             47.39,116.33 45.73,120.29 40.99,121.45
             35.84,122.71 29.90,117.25 30.84,112.00
             31.52,108.17 35.35,105.54 38.00,103.00 Z
           M 131.00,112.00
           C 123.70,117.41 123.47,123.91 132.02,128.31
             137.48,131.13 146.17,130.65 150.90,126.61
             156.08,122.17 157.82,114.32 155.44,108.00
             152.75,100.88 147.77,97.66 142.00,104.00
             145.35,106.06 148.83,108.56 148.72,113.00
             148.59,118.51 140.25,125.82 133.65,117.79
             132.10,115.91 131.66,114.24 131.00,112.00 Z
           M 56.00,111.00
           C 54.10,105.70 53.27,103.56 48.00,101.00
             47.51,106.84 51.09,108.78 56.00,111.00 Z
           M 131.00,101.00
           C 126.37,103.45 125.39,106.13 124.00,111.00
             124.00,111.00 133.00,105.00 133.00,105.00
             133.00,105.00 131.00,101.00 131.00,101.00 Z
           M 97.00,112.00
           C 97.00,112.00 96.00,112.00 96.00,112.00
             96.00,112.00 97.00,113.00 97.00,113.00
             97.00,113.00 97.00,112.00 97.00,112.00 Z
           M 98.00,113.00
           C 98.00,113.00 97.00,113.00 97.00,113.00
             97.00,113.00 98.00,114.00 98.00,114.00
             98.00,114.00 98.00,113.00 98.00,113.00 Z
           M 81.00,114.00
           C 81.00,114.00 80.00,114.00 80.00,114.00
             80.00,114.00 81.00,115.00 81.00,115.00
             81.00,115.00 81.00,114.00 81.00,114.00 Z
           M 100.00,114.00
           C 100.00,114.00 99.00,114.00 99.00,114.00
             99.00,114.00 100.00,115.00 100.00,115.00
             100.00,115.00 100.00,114.00 100.00,114.00 Z
           M 80.00,115.00
           C 80.00,115.00 79.00,115.00 79.00,115.00
             79.00,115.00 80.00,116.00 80.00,116.00
             80.00,116.00 80.00,115.00 80.00,115.00 Z
           M 101.00,115.00
           C 101.00,115.00 100.00,115.00 100.00,115.00
             100.00,115.00 101.00,116.00 101.00,116.00
             101.00,116.00 101.00,115.00 101.00,115.00 Z
           M 79.00,116.00
           C 79.00,116.00 78.00,116.00 78.00,116.00
             78.00,116.00 79.00,117.00 79.00,117.00
             79.00,117.00 79.00,116.00 79.00,116.00 Z
           M 102.00,116.00
           C 102.00,116.00 101.00,116.00 101.00,116.00
             101.00,116.00 102.00,117.00 102.00,117.00
             102.00,117.00 102.00,116.00 102.00,116.00 Z
           M 78.00,117.00
           C 78.00,117.00 77.00,117.00 77.00,117.00
             77.00,117.00 78.00,118.00 78.00,118.00
             78.00,118.00 78.00,117.00 78.00,117.00 Z
           M 85.00,117.00
           C 76.01,123.84 76.84,135.18 88.00,139.00
             88.00,130.22 87.46,125.50 85.00,117.00 Z
           M 95.00,117.00
           C 91.62,123.61 92.00,131.77 92.00,139.00
             103.31,135.13 103.45,124.16 95.00,117.00 Z
           M 103.00,117.00
           C 103.00,117.00 102.00,117.00 102.00,117.00
             102.00,117.00 103.00,118.00 103.00,118.00
             103.00,118.00 103.00,117.00 103.00,117.00 Z
           M 77.00,118.00
           C 77.00,118.00 76.00,118.00 76.00,118.00
             76.00,118.00 77.00,119.00 77.00,119.00
             77.00,119.00 77.00,118.00 77.00,118.00 Z
           M 105.00,120.00
           C 105.00,120.00 105.00,136.00 105.00,136.00
             107.69,129.52 107.38,126.51 105.00,120.00 Z
           M 75.00,121.00
           C 71.87,125.83 72.28,132.62 76.00,137.00
             76.00,137.00 75.00,121.00 75.00,121.00 Z
           M 62.00,127.00
           C 59.70,132.86 62.48,136.30 65.72,141.00
             70.74,148.28 72.82,153.07 82.00,156.00
             79.32,146.64 69.80,132.71 62.00,127.00 Z
           M 119.00,127.00
           C 110.84,130.87 99.70,147.06 98.00,156.00
             106.79,153.20 108.44,149.28 113.00,142.17
             117.49,135.17 118.79,136.25 119.00,127.00 Z
           M 77.00,137.00
           C 76.04,142.61 82.28,146.00 87.00,147.00
             87.00,147.00 88.00,161.00 88.00,161.00
             88.00,161.00 88.00,143.00 88.00,143.00
             82.38,141.93 81.23,140.78 77.00,137.00 Z
           M 98.00,156.00
           C 98.00,156.00 97.00,156.00 97.00,156.00
             97.00,156.00 98.00,157.00 98.00,157.00
             98.00,157.00 98.00,156.00 98.00,156.00 Z" />
</svg>
