<?xml version="1.0" encoding="UTF-8" standalone="no"?>
<!DOCTYPE svg PUBLIC "-//W3C//DTD SVG 20010904//EN"
              "http://www.w3.org/TR/2001/REC-SVG-20010904/DTD/svg10.dtd">

<svg xmlns="http://www.w3.org/2000/svg"
     width="90.3317mm" height="90.3317mm"
     viewBox="0 0 256 256">
  <path id="Sélection"
        fill="black"
        d="M 127.00,5.61
           C 131.78,5.66 136.22,6.51 139.61,10.21
             148.24,19.63 141.83,35.17 129.00,35.89
             113.91,36.74 107.91,19.47 116.39,10.21
             119.40,6.92 122.80,6.17 127.00,5.61 Z
           M 53.00,119.00
           C 53.00,119.00 53.00,102.00 53.00,102.00
             53.02,98.48 52.78,94.13 56.23,92.02
             58.79,90.46 68.57,91.01 72.00,91.00
             74.43,91.00 77.75,91.13 80.00,90.26
             85.71,88.05 88.51,82.15 83.72,77.39
             83.72,77.39 56.23,62.10 56.23,62.10
             52.51,58.95 52.26,53.82 57.11,51.74
             59.14,50.86 62.75,51.00 65.00,51.00
             65.00,51.00 121.00,51.00 121.00,51.00
             121.00,51.00 121.00,84.00 121.00,84.00
             120.99,89.22 120.98,91.96 119.12,97.00
             111.46,117.84 94.88,119.00 76.00,119.00
             76.00,119.00 53.00,119.00 53.00,119.00 Z
           M 135.00,51.00
           C 135.00,51.00 191.00,51.00 191.00,51.00
             193.25,51.00 196.86,50.86 198.89,51.74
             203.74,53.82 203.49,58.95 199.77,62.10
             199.77,62.10 172.28,77.39 172.28,77.39
             167.49,82.15 170.29,88.05 176.00,90.26
             178.25,91.13 181.57,91.00 184.00,91.00
             187.43,91.01 197.21,90.46 199.77,92.02
             202.96,93.97 202.95,97.71 203.00,101.00
             203.00,101.00 203.00,119.00 203.00,119.00
             203.00,119.00 180.00,119.00 180.00,119.00
             161.12,119.00 144.54,117.84 136.88,97.00
             135.02,91.96 135.01,89.22 135.00,84.00
             135.00,84.00 135.00,51.00 135.00,51.00 Z
           M 127.00,111.00
           C 127.00,111.00 143.00,126.00 143.00,126.00
             136.87,131.32 133.23,133.76 129.00,141.00
             129.00,141.00 127.00,141.00 127.00,141.00
             127.00,141.00 113.00,125.00 113.00,125.00
             113.00,125.00 127.00,111.00 127.00,111.00 Z
           M 53.00,201.00
           C 53.00,201.00 53.00,182.00 53.00,182.00
             53.04,179.06 52.98,175.83 55.43,173.74
             59.59,170.20 74.13,173.20 80.00,171.57
             83.63,170.56 87.07,167.03 86.08,163.00
             84.62,157.14 67.58,149.58 62.00,146.75
             58.92,145.19 54.99,143.49 53.78,139.96
             51.14,132.30 61.31,132.01 66.00,132.00
             84.64,131.97 104.77,129.41 116.07,148.00
             117.72,150.71 119.25,153.94 120.07,157.00
             121.49,162.23 121.01,173.14 121.00,179.00
             120.99,183.35 121.15,187.06 118.91,191.00
             115.66,196.74 109.57,199.35 108.78,209.00
             107.58,223.79 127.91,239.12 142.79,221.98
             146.10,218.18 147.63,214.06 147.22,209.00
             146.43,199.35 140.34,196.74 137.09,191.00
             134.85,187.06 135.01,183.35 135.00,179.00
             135.00,179.00 135.00,165.00 135.00,165.00
             135.05,160.76 135.35,158.01 136.93,154.00
             146.56,129.48 168.49,131.97 190.00,132.00
             194.69,132.01 204.86,132.30 202.22,139.96
             201.01,143.49 197.08,145.19 194.00,146.75
             188.42,149.58 171.38,157.14 169.92,163.00
             168.93,167.03 172.37,170.56 176.00,171.57
             181.87,173.20 196.41,170.20 200.57,173.74
             203.23,176.00 202.98,179.84 203.00,183.00
             203.00,183.00 203.00,201.00 203.00,201.00
             196.93,201.00 192.93,200.71 187.00,202.76
             169.09,208.94 168.80,227.43 157.71,238.83
             148.63,248.16 138.60,251.14 126.00,251.00
             113.16,250.85 100.52,243.78 93.55,233.00
             87.35,223.43 87.23,215.13 76.00,206.53
             68.67,200.92 61.69,201.00 53.00,201.00 Z" />
</svg>
