<?xml version="1.0" encoding="UTF-8" standalone="no"?>
<!DOCTYPE svg PUBLIC "-//W3C//DTD SVG 20010904//EN"
              "http://www.w3.org/TR/2001/REC-SVG-20010904/DTD/svg10.dtd">

<svg xmlns="http://www.w3.org/2000/svg"
     width="1.36111in" height="1.38889in"
     viewBox="0 0 98 100">
  <path id="Sélection"
        fill="black"
        d="M 48.00,1.34
           C 48.00,1.34 50.00,1.34 50.00,1.34
             53.40,2.62 60.24,8.94 58.83,13.00
             58.27,14.62 56.19,16.77 54.98,17.98
             53.78,19.18 51.67,21.25 50.00,21.66
             45.93,22.68 37.75,14.11 39.17,10.00
             40.37,6.53 44.93,3.01 48.00,1.34 Z
           M 0.00,72.00
           C 0.00,60.08 -1.13,51.17 4.37,40.00
             5.64,37.43 8.80,31.20 12.04,31.20
             15.40,31.20 23.26,40.44 26.00,42.96
             27.02,43.90 29.77,46.65 31.37,45.80
             33.47,44.70 29.70,40.81 28.96,40.00
             26.44,37.26 17.20,29.40 17.20,26.04
             17.20,23.05 21.72,20.57 24.00,19.31
             26.07,18.17 29.61,16.29 32.00,16.52
             36.28,16.94 45.65,27.65 49.00,31.00
             51.72,27.20 61.38,16.97 66.00,16.52
             68.40,16.29 71.92,18.17 74.00,19.31
             76.28,20.57 80.80,23.05 80.80,26.04
             80.80,29.40 71.56,37.26 69.04,40.00
             68.30,40.81 64.53,44.70 66.63,45.80
             68.23,46.65 70.98,43.90 72.00,42.96
             74.70,40.48 82.63,31.20 85.91,31.20
             88.97,31.20 92.40,37.56 93.63,40.00
             99.12,50.99 98.00,60.23 98.00,72.00
             94.42,71.97 91.34,72.02 88.00,70.43
             80.13,66.68 83.03,63.14 72.00,63.00
             73.68,67.57 77.55,79.61 75.88,84.00
             74.85,86.69 66.89,97.65 64.54,98.99
             59.21,102.04 53.00,95.80 51.77,91.00
             50.65,86.64 52.46,83.27 53.00,79.00
             59.51,76.92 63.32,73.76 65.00,67.00
             65.00,67.00 32.00,67.00 32.00,67.00
             35.49,73.55 37.66,76.66 45.02,79.00
             45.75,84.93 48.05,87.83 45.02,93.90
             43.25,97.49 37.43,101.26 33.46,98.99
             31.48,97.86 28.11,92.99 26.63,91.00
             25.01,88.85 22.31,85.54 21.60,83.00
             20.45,78.87 24.42,67.24 26.00,63.00
             15.67,63.13 19.15,65.65 11.99,69.72
             8.13,71.92 4.27,71.96 0.00,72.00 Z
           M 49.01,46.86
           C 41.30,48.89 44.32,56.82 49.01,56.46
             53.55,56.11 56.57,48.86 49.01,46.86 Z" />
</svg>
