<?xml version="1.0" encoding="UTF-8" standalone="no"?>
<!DOCTYPE svg PUBLIC "-//W3C//DTD SVG 20010904//EN"
              "http://www.w3.org/TR/2001/REC-SVG-20010904/DTD/svg10.dtd">

<svg xmlns="http://www.w3.org/2000/svg"
     width="1.36111in" height="1.36111in"
     viewBox="0 0 98 98">
  <path id="Sélection"
        fill="black"
        d="M 39.00,20.00
           C 39.00,11.99 37.09,2.16 47.00,0.00
             47.00,0.00 47.00,83.00 47.00,83.00
             37.09,75.18 40.44,66.50 38.40,61.00
             37.16,57.65 32.58,53.58 30.00,51.00
             26.18,47.18 13.79,34.08 10.00,32.17
             8.14,31.24 6.97,31.23 5.00,31.00
             6.30,25.02 8.15,24.35 14.00,24.00
             14.00,24.00 14.00,14.00 14.00,14.00
             25.03,14.00 30.19,12.18 39.00,20.00 Z
           M 53.00,0.00
           C 62.45,2.81 60.00,11.96 60.00,20.00
             71.76,12.26 72.33,14.00 86.00,14.00
             86.00,14.00 86.00,24.00 86.00,24.00
             91.54,24.45 93.38,25.55 95.00,31.00
             93.07,31.16 91.83,31.11 90.00,32.02
             86.57,33.74 72.71,48.29 69.00,52.00
             66.42,54.58 61.83,58.66 60.60,62.00
             58.42,67.92 62.88,75.09 53.00,83.00
             53.00,83.00 53.00,0.00 53.00,0.00 Z
           M 39.00,48.00
           C 39.00,38.24 41.08,32.11 33.00,25.15
             30.60,23.08 25.73,20.56 22.80,22.99
             20.20,25.05 21.46,29.65 22.80,32.00
             25.30,36.12 34.93,45.09 39.00,48.00 Z
           M 60.00,49.00
           C 64.12,46.05 74.71,36.19 77.07,32.00
             78.91,28.73 79.59,23.43 74.89,22.33
             71.34,21.50 68.43,23.80 66.00,26.06
             57.89,33.61 60.00,38.69 60.00,49.00 Z
           M 13.00,71.00
           C 13.06,64.79 14.82,55.87 21.04,52.74
             25.31,50.60 31.09,57.43 32.40,61.00
             32.98,62.57 32.97,64.35 33.00,66.00
             33.00,66.00 33.00,98.00 33.00,98.00
             25.74,92.49 25.01,87.59 25.00,79.00
             25.00,79.00 25.00,60.00 25.00,60.00
             25.00,60.00 13.00,71.00 13.00,71.00 Z
           M 67.00,98.00
           C 67.00,98.00 67.00,67.00 67.00,67.00
             67.01,65.12 66.95,62.77 67.60,61.00
             68.71,57.97 74.27,51.35 77.91,52.34
             83.89,53.95 86.88,65.56 87.00,71.00
             87.00,71.00 75.00,60.00 75.00,60.00
             75.00,72.67 77.96,89.35 67.00,98.00 Z" />
</svg>
