<?xml version="1.0" encoding="UTF-8" standalone="no"?>
<!DOCTYPE svg PUBLIC "-//W3C//DTD SVG 20010904//EN"
              "http://www.w3.org/TR/2001/REC-SVG-20010904/DTD/svg10.dtd">

<svg xmlns="http://www.w3.org/2000/svg"
     width="1.33333in" height="1.33333in"
     viewBox="0 0 96 96">
  <path id="Sélection"
        fill="black"
        d="M 2.00,0.00
           C 2.00,0.00 16.88,18.00 16.88,18.00
             16.88,18.00 22.12,26.00 22.12,26.00
             22.12,26.00 20.00,33.00 20.00,33.00
             16.26,30.32 14.21,28.23 11.00,25.00
             2.61,16.57 2.11,11.67 2.00,0.00 Z
           M 93.14,0.00
           C 94.39,3.55 93.79,5.34 93.14,9.00
             92.90,11.60 92.68,14.60 91.57,17.00
             89.47,21.53 80.20,29.99 76.00,33.00
             71.15,26.00 74.37,24.18 79.12,18.00
             79.12,18.00 93.14,0.00 93.14,0.00 Z
           M 26.00,32.00
           C 26.06,25.92 27.86,16.98 31.51,12.02
             37.42,3.96 50.51,2.04 58.96,7.09
             66.38,11.52 68.10,21.29 70.25,28.91
             70.25,28.91 72.23,34.17 72.23,34.17
             73.61,37.86 73.04,43.35 72.23,47.00
             72.23,47.00 67.00,48.00 67.00,48.00
             67.56,53.82 66.16,61.96 60.00,64.00
             60.76,73.32 49.29,76.93 42.00,73.43
             34.77,69.96 30.75,60.24 28.75,53.00
             27.66,49.03 27.19,47.53 23.00,47.00
             23.00,47.00 23.00,32.00 23.00,32.00
             23.00,32.00 26.00,32.00 26.00,32.00 Z
           M 48.00,13.00
           C 48.00,13.00 37.00,24.00 37.00,24.00
             44.00,28.38 43.53,28.56 48.00,35.00
             51.84,28.85 52.85,27.84 59.00,24.00
             52.37,19.07 52.91,20.24 48.00,13.00 Z
           M 5.00,24.00
           C 8.91,26.28 17.84,32.87 19.40,37.01
             20.20,39.13 20.00,43.61 20.00,46.00
             6.10,43.39 5.56,36.28 5.00,24.00 Z
           M 90.06,24.00
           C 91.18,27.23 90.59,28.69 90.06,32.00
             88.84,41.28 85.39,44.24 76.00,46.00
             76.00,43.61 75.80,39.13 76.60,37.01
             78.06,33.15 86.56,26.82 90.06,24.00 Z
           M 8.00,45.00
           C 11.78,46.07 23.73,50.35 25.73,53.39
             26.92,55.21 27.56,58.83 28.00,61.00
             24.69,61.00 11.91,60.77 10.02,58.40
             8.67,56.71 8.05,47.48 8.00,45.00 Z
           M 68.00,61.00
           C 69.43,51.78 70.83,51.73 79.00,48.40
             79.00,48.40 88.00,45.00 88.00,45.00
             87.95,47.48 87.33,56.71 85.98,58.40
             84.09,60.77 71.31,61.00 68.00,61.00 Z
           M 11.00,63.00
           C 13.80,63.06 20.13,63.34 22.37,64.98
             24.78,66.75 25.42,70.70 29.21,74.96
             36.92,83.61 48.55,86.66 59.00,81.18
             62.14,79.53 64.48,77.58 66.90,74.98
             70.19,71.44 71.69,68.60 73.00,64.00
             73.00,64.00 86.00,63.00 86.00,63.00
             83.01,82.35 68.81,95.98 49.00,96.00
             45.01,96.00 41.92,96.13 38.00,95.07
             23.73,91.21 11.73,77.93 11.00,63.00 Z" />
</svg>
