<?xml version="1.0" encoding="UTF-8" standalone="no"?>
<!DOCTYPE svg PUBLIC "-//W3C//DTD SVG 20010904//EN"
              "http://www.w3.org/TR/2001/REC-SVG-20010904/DTD/svg10.dtd">

<svg xmlns="http://www.w3.org/2000/svg"
     width="105.834mm" height="105.834mm"
     viewBox="0 0 1250 1250">
  <path id="Sélection"
        fill="black" 
        d="M 599.00,259.21
           C 599.00,259.21 629.00,259.21 629.00,259.21
             658.74,259.00 685.81,261.76 715.00,267.60
             851.75,294.96 970.07,386.00 1055.80,493.00
             1080.05,523.27 1102.22,554.49 1123.34,587.00
             1123.34,587.00 1139.40,613.00 1139.40,613.00
             1141.13,615.88 1145.22,621.79 1145.22,625.00
             1145.22,628.10 1141.65,633.25 1140.00,636.00
             1140.00,636.00 1125.19,660.00 1125.19,660.00
             1104.44,693.44 1081.18,725.29 1056.60,756.00
             970.85,863.16 852.00,955.14 715.00,982.55
             674.69,990.62 645.70,991.47 605.00,991.00
             605.00,991.00 595.00,990.09 595.00,990.09
             556.41,987.44 518.73,979.91 482.00,967.67
             365.08,928.69 265.77,846.21 189.60,751.00
             165.86,721.32 143.67,690.26 123.58,658.00
             123.58,658.00 109.40,635.00 109.40,635.00
             107.60,632.00 104.34,627.58 104.86,624.00
             105.25,621.31 109.61,614.64 111.20,612.00
             111.20,612.00 127.33,586.00 127.33,586.00
             146.88,556.48 166.65,527.68 188.80,500.00
             267.67,401.41 369.94,316.96 492.00,279.02
             517.06,271.24 542.99,265.70 569.00,262.28
             569.00,262.28 588.00,260.17 588.00,260.17
             588.00,260.17 599.00,259.21 599.00,259.21 Z
           M 613.00,363.28
           C 613.00,363.28 600.00,364.17 600.00,364.17
             600.00,364.17 575.00,367.43 575.00,367.43
             555.64,370.68 536.48,376.11 518.00,382.69
             438.99,410.83 373.33,469.33 321.80,534.00
             305.32,554.68 290.41,576.64 276.32,599.00
             276.32,599.00 266.01,616.00 266.01,616.00
             264.69,618.24 261.99,622.44 261.99,625.00
             261.99,627.56 264.69,631.76 266.01,634.00
             266.01,634.00 276.32,651.00 276.32,651.00
             290.64,673.73 305.82,696.00 322.60,717.00
             386.80,797.37 471.12,864.98 575.00,882.41
             575.00,882.41 608.00,886.09 608.00,886.09
             608.00,886.09 618.00,887.00 618.00,887.00
             745.27,888.49 852.39,815.05 927.88,717.00
             944.32,695.64 959.64,673.85 973.95,651.00
             973.95,651.00 984.20,634.00 984.20,634.00
             985.66,631.57 988.22,627.85 988.22,625.00
             988.22,622.15 985.66,618.43 984.20,616.00
             984.20,616.00 973.95,599.00 973.95,599.00
             959.67,576.19 944.34,554.29 927.88,533.00
             869.26,457.17 787.18,391.60 692.00,370.58
             670.56,365.84 634.59,361.28 613.00,363.28 Z
           M 600.00,442.00
           C 606.43,445.40 608.05,454.42 609.85,461.00
             614.16,476.74 617.59,491.88 624.00,507.00
             624.00,507.00 626.00,507.00 626.00,507.00
             633.07,490.33 636.21,474.22 641.14,457.00
             641.92,454.28 645.07,440.77 649.53,443.17
             652.34,444.68 652.00,451.26 652.00,454.00
             652.02,468.11 651.04,498.78 655.00,511.00
             664.64,503.94 675.04,481.99 681.42,471.00
             685.23,464.44 688.91,457.36 696.00,454.00
             697.59,460.63 696.18,464.48 694.79,471.00
             694.79,471.00 686.13,504.00 686.13,504.00
             684.55,510.29 682.57,516.54 684.00,523.00
             696.13,515.53 706.83,503.16 717.00,493.00
             722.72,487.29 729.08,480.34 737.00,478.00
             738.61,484.87 734.32,491.19 731.00,497.00
             731.00,497.00 714.86,525.00 714.86,525.00
             711.88,530.37 708.46,535.72 709.00,542.00
             723.62,537.12 736.67,528.20 750.00,520.58
             756.45,516.89 764.32,511.19 772.00,513.00
             769.84,519.76 766.79,521.87 762.28,527.00
             752.80,537.82 732.50,554.79 727.00,566.00
             733.40,567.26 739.79,565.18 746.00,563.63
             746.00,563.63 776.00,555.87 776.00,555.87
             782.47,554.26 789.43,552.15 796.00,554.00
             792.87,560.56 786.04,564.15 780.00,567.80
             768.64,574.66 746.38,584.93 739.00,595.00
             753.02,599.05 777.65,596.27 794.00,597.83
             800.68,598.47 801.05,597.11 808.00,600.00
             804.54,606.54 795.66,608.05 789.00,609.85
             773.33,614.09 758.00,617.64 743.00,624.00
             743.00,624.00 743.00,626.00 743.00,626.00
             758.27,632.47 773.17,635.66 789.00,640.14
             795.78,642.06 804.45,643.28 808.00,650.00
             800.58,653.09 799.19,651.48 792.00,652.17
             776.01,653.69 752.93,650.97 739.00,655.00
             746.16,664.77 767.95,675.18 779.00,681.80
             785.40,685.63 792.67,689.02 796.00,696.00
             789.60,697.81 785.32,696.31 779.00,695.00
             779.00,695.00 745.00,686.13 745.00,686.13
             738.75,684.56 733.43,682.58 727.00,684.00
             731.99,694.17 750.31,710.11 758.99,719.00
             763.95,724.09 769.97,730.11 772.00,737.00
             765.13,738.61 758.81,734.32 753.00,731.00
             753.00,731.00 725.00,714.86 725.00,714.86
             719.63,711.88 714.28,708.46 708.00,709.00
             712.66,722.95 721.05,735.28 728.28,748.00
             732.60,755.60 737.56,763.07 738.00,772.00
             730.78,770.53 727.40,766.25 722.00,761.58
             711.06,752.09 695.55,732.95 684.00,727.00
             682.59,733.37 684.41,737.79 685.79,744.00
             685.79,744.00 694.37,777.00 694.37,777.00
             695.91,783.18 697.76,789.74 696.00,796.00
             688.66,792.52 685.57,785.70 681.60,779.00
             675.15,768.12 664.51,745.96 655.00,739.00
             651.52,751.03 653.06,770.90 653.00,784.00
             652.98,787.20 651.93,803.75 650.69,805.69
             649.58,807.42 648.73,807.41 647.00,808.00
             647.00,808.00 626.00,743.00 626.00,743.00
             626.00,743.00 624.00,743.00 624.00,743.00
             617.53,758.27 614.34,773.17 609.86,789.00
             607.94,795.78 606.72,804.45 600.00,808.00
             597.94,803.04 597.07,793.51 597.00,788.00
             597.00,788.00 597.00,753.00 597.00,753.00
             596.97,745.72 596.35,745.74 595.00,739.00
             584.93,746.38 574.66,768.64 567.80,780.00
             564.15,786.04 560.56,792.87 554.00,796.00
             552.09,789.24 553.98,783.62 555.63,777.00
             555.63,777.00 563.87,746.00 563.87,746.00
             565.45,739.73 567.42,733.44 566.00,727.00
             556.03,732.14 540.67,749.43 532.00,758.00
             526.73,763.20 520.12,769.73 513.00,772.00
             511.52,765.70 514.42,761.50 517.26,756.00
             517.26,756.00 534.42,726.00 534.42,726.00
             535.90,723.42 542.69,712.30 540.19,709.81
             537.70,707.31 526.58,714.10 524.00,715.58
             524.00,715.58 494.00,732.74 494.00,732.74
             488.50,735.58 484.30,738.48 478.00,737.00
             480.27,729.88 486.80,723.27 492.00,718.00
             500.57,709.33 517.86,693.97 523.00,684.00
             516.20,682.49 507.65,685.10 501.00,687.00
             501.00,687.00 473.00,694.37 473.00,694.37
             466.38,696.02 460.76,697.91 454.00,696.00
             457.13,689.44 463.96,685.85 470.00,682.20
             481.36,675.34 503.62,665.07 511.00,655.00
             511.00,655.00 502.00,653.09 502.00,653.09
             502.00,653.09 466.00,653.09 466.00,653.09
             466.00,653.09 444.31,650.69 444.31,650.69
             444.31,650.69 442.00,647.00 442.00,647.00
             442.00,647.00 507.00,626.00 507.00,626.00
             507.00,626.00 507.00,624.00 507.00,624.00
             507.00,624.00 442.00,603.00 442.00,603.00
             443.90,597.44 447.85,598.03 453.00,598.00
             468.48,597.93 497.08,599.02 511.00,595.00
             503.95,585.61 481.88,574.89 471.00,568.58
             464.76,564.95 456.56,561.15 454.00,554.00
             460.19,552.26 465.84,554.06 472.00,555.42
             472.00,555.42 504.00,563.87 504.00,563.87
             510.29,565.45 516.54,567.43 523.00,566.00
             515.48,553.78 503.19,543.24 493.00,533.00
             487.52,527.49 480.39,520.49 478.00,513.00
             484.77,511.41 491.22,515.66 497.00,518.86
             497.00,518.86 524.00,534.42 524.00,534.42
             529.54,537.59 535.43,541.41 542.00,541.00
             537.10,526.32 528.23,513.37 520.58,500.00
             516.89,493.55 511.19,485.68 513.00,478.00
             520.12,480.27 526.73,486.80 532.00,492.00
             541.50,501.39 554.86,516.81 566.00,523.00
             567.47,516.35 565.12,508.48 563.29,502.00
             563.29,502.00 555.00,471.00 555.00,471.00
             553.69,464.68 552.19,460.40 554.00,454.00
             560.98,457.33 564.37,464.60 568.20,471.00
             575.09,482.50 584.66,503.53 595.00,511.00
             596.16,505.21 596.92,504.20 597.00,498.00
             597.00,498.00 597.00,462.00 597.00,462.00
             597.07,456.56 597.79,446.78 600.00,442.00 Z
           M 618.00,552.29
           C 589.85,556.58 566.66,571.08 556.70,599.00
             542.42,639.00 562.23,681.04 603.00,694.33
             609.64,696.49 622.13,698.53 629.00,697.72
             644.87,695.84 658.37,691.89 671.00,681.54
             678.24,675.60 684.44,668.33 688.74,660.00
             694.46,648.94 698.49,635.57 697.96,623.00
             696.18,580.60 660.46,548.32 618.00,552.29 Z" />
</svg>
