<?xml version="1.0" encoding="UTF-8" standalone="no"?>
<!DOCTYPE svg PUBLIC "-//W3C//DTD SVG 20010904//EN"
              "http://www.w3.org/TR/2001/REC-SVG-20010904/DTD/svg10.dtd">

<svg xmlns="http://www.w3.org/2000/svg"
     width="2.77778in" height="2.77778in"
     viewBox="0 0 200 200">
  <path id="Sélection"
        fill="black"
        d="M 90.00,28.00
           C 91.64,32.12 91.01,38.47 91.00,43.00
             90.98,54.51 88.80,57.15 79.00,62.86
             72.37,66.72 72.64,67.34 65.00,66.00
             67.08,74.68 63.76,75.42 60.31,83.00
             55.23,94.16 60.24,91.10 51.00,101.00
             57.69,103.09 56.63,107.16 58.70,113.00
             62.47,123.64 66.94,122.95 65.00,134.00
             71.88,132.35 73.08,133.53 79.00,136.99
             82.59,139.09 85.67,140.52 88.15,144.04
             91.68,149.08 92.25,165.34 90.00,171.00
             87.18,164.48 81.06,154.44 76.54,149.00
             74.36,146.39 71.57,143.19 68.00,142.73
             64.42,142.27 55.56,146.17 51.00,147.00
             52.55,142.52 56.22,133.47 56.33,129.00
             56.41,125.60 54.30,122.06 52.83,119.04
             52.83,119.04 48.42,110.17 48.42,110.17
             45.34,106.22 36.81,102.37 32.00,101.00
             36.71,93.74 49.01,96.12 50.00,84.00
             52.49,82.99 53.15,80.40 54.23,78.00
             58.83,67.80 53.65,61.84 51.00,52.00
             54.68,53.46 64.80,57.57 68.42,57.02
             72.08,56.46 75.16,52.74 77.33,50.00
             81.83,44.31 87.11,34.71 90.00,28.00 Z
           M 108.00,28.00
           C 108.00,28.00 121.67,50.00 121.67,50.00
             123.76,52.65 126.88,56.50 130.42,57.02
             134.19,57.56 144.21,53.51 148.00,52.00
             148.00,52.00 142.82,72.00 142.82,72.00
             142.82,72.00 146.55,82.00 146.55,82.00
             146.55,82.00 151.22,90.32 151.22,90.32
             151.22,90.32 167.00,101.00 167.00,101.00
             160.11,102.96 154.04,105.96 150.00,112.00
             150.00,112.00 149.00,110.00 149.00,110.00
             149.00,110.00 142.69,128.00 142.69,128.00
             142.69,128.00 148.00,147.00 148.00,147.00
             143.44,146.17 134.58,142.27 131.00,142.73
             127.14,143.23 123.93,147.11 121.68,150.00
             121.68,150.00 108.00,171.00 108.00,171.00
             108.00,165.93 107.48,152.04 108.85,148.00
             110.92,141.89 121.75,134.24 128.00,133.31
             130.24,132.98 132.78,133.60 135.00,134.00
             131.17,125.54 136.32,122.92 139.55,115.00
             142.89,106.78 140.61,103.49 149.00,100.00
             140.01,95.42 143.34,93.82 139.13,84.00
             135.91,76.49 132.02,74.50 134.00,66.00
             132.17,66.32 129.83,66.87 128.00,66.63
             125.37,66.30 123.22,64.75 121.00,63.44
             115.19,60.04 110.68,58.05 108.64,51.00
             107.57,47.33 108.00,32.76 108.00,28.00 Z
           M 87.00,63.00
           C 90.41,65.89 96.34,73.30 96.20,78.00
             96.07,82.30 90.17,89.31 87.00,92.00
             84.77,89.11 79.02,81.53 78.91,78.00
             78.80,74.40 84.87,66.19 87.00,63.00 Z
           M 110.00,63.00
           C 110.00,63.00 112.00,63.00 112.00,63.00
             114.17,66.26 120.15,74.26 119.94,78.00
             119.75,81.26 114.00,88.99 112.00,92.00
             112.00,92.00 110.00,92.00 110.00,92.00
             110.00,92.00 102.66,78.00 102.66,78.00
             102.66,78.00 110.00,63.00 110.00,63.00 Z
           M 76.00,85.00
           C 79.30,87.88 85.97,96.42 84.95,101.00
             84.40,103.47 78.72,111.42 77.00,114.00
             73.68,111.19 67.27,103.61 67.87,99.00
             68.31,95.60 73.81,87.86 76.00,85.00 Z
           M 99.00,85.00
           C 102.41,87.89 108.34,95.30 108.20,100.00
             108.07,104.30 102.17,111.31 99.00,114.00
             96.74,111.07 90.89,103.56 90.81,100.00
             90.73,96.39 96.76,88.06 99.00,85.00 Z
           M 122.00,85.00
           C 122.00,85.00 124.00,85.00 124.00,85.00
             124.00,85.00 131.31,100.00 131.31,100.00
             131.31,100.00 124.00,114.00 124.00,114.00
             124.00,114.00 122.00,114.00 122.00,114.00
             122.00,114.00 113.92,100.00 113.92,100.00
             113.92,100.00 122.00,85.00 122.00,85.00 Z
           M 87.00,107.00
           C 90.41,109.89 96.34,117.30 96.20,122.00
             96.07,126.30 90.17,133.31 87.00,136.00
             85.05,133.33 79.05,124.97 78.92,122.00
             78.77,118.46 84.90,110.15 87.00,107.00 Z
           M 110.00,107.00
           C 110.00,107.00 112.00,107.00 112.00,107.00
             114.08,110.13 120.06,118.47 120.00,122.00
             119.95,125.15 113.96,133.06 112.00,136.00
             112.00,136.00 110.00,136.00 110.00,136.00
             110.00,136.00 102.69,122.00 102.69,122.00
             102.69,122.00 110.00,107.00 110.00,107.00 Z" />
</svg>
