<?xml version="1.0" encoding="UTF-8" standalone="no"?>
<!DOCTYPE svg PUBLIC "-//W3C//DTD SVG 20010904//EN"
              "http://www.w3.org/TR/2001/REC-SVG-20010904/DTD/svg10.dtd">

<svg xmlns="http://www.w3.org/2000/svg"
     width="63.8056in" height="43.3889in"
     viewBox="0 0 4594 3124">
  <path id="Sélection"
        fill="black" 
        d="M 1.00,0.00
           C 1.00,0.00 2179.00,0.00 2179.00,0.00
             2175.75,6.88 2158.32,22.68 2152.00,29.00
             2152.00,29.00 2094.00,87.00 2094.00,87.00
             2094.00,87.00 1896.00,285.00 1896.00,285.00
             1896.00,285.00 1832.00,349.00 1832.00,349.00
             1827.90,353.10 1814.29,367.82 1810.00,369.40
             1808.06,370.12 1805.09,370.00 1803.00,370.00
             1803.00,370.00 1090.00,370.00 1090.00,370.00
             1090.00,370.00 377.00,370.00 377.00,370.00
             374.91,370.00 371.94,370.12 370.00,369.40
             365.71,367.82 352.10,353.10 348.00,349.00
             348.00,349.00 284.00,285.00 284.00,285.00
             284.00,285.00 86.00,87.00 86.00,87.00
             86.00,87.00 28.00,29.00 28.00,29.00
             21.68,22.68 4.25,6.88 1.00,0.00 Z
           M 2415.00,0.00
           C 2415.00,0.00 4593.00,0.00 4593.00,0.00
             4589.75,6.88 4572.32,22.68 4566.00,29.00
             4566.00,29.00 4508.00,87.00 4508.00,87.00
             4508.00,87.00 4310.00,285.00 4310.00,285.00
             4310.00,285.00 4246.00,349.00 4246.00,349.00
             4241.90,353.10 4228.29,367.82 4224.00,369.40
             4222.06,370.12 4219.09,370.00 4217.00,370.00
             4217.00,370.00 3504.00,370.00 3504.00,370.00
             3504.00,370.00 2791.00,370.00 2791.00,370.00
             2788.91,370.00 2785.94,370.12 2784.00,369.40
             2779.71,367.82 2766.10,353.10 2762.00,349.00
             2762.00,349.00 2698.00,285.00 2698.00,285.00
             2698.00,285.00 2500.00,87.00 2500.00,87.00
             2500.00,87.00 2442.00,29.00 2442.00,29.00
             2435.68,22.68 2418.25,6.88 2415.00,0.00 Z
           M 2239.00,29.00
           C 2239.00,29.00 2240.00,45.00 2240.00,45.00
             2240.00,45.00 2240.00,76.00 2240.00,76.00
             2240.00,76.00 2240.00,185.00 2240.00,185.00
             2240.00,185.00 2240.00,557.00 2240.00,557.00
             2240.00,557.00 2239.40,564.00 2239.40,564.00
             2239.40,564.00 2224.00,581.00 2224.00,581.00
             2224.00,581.00 2178.00,627.00 2178.00,627.00
             2178.00,627.00 1988.00,817.00 1988.00,817.00
             1988.00,817.00 1228.00,1577.00 1228.00,1577.00
             1228.00,1577.00 1257.00,1605.00 1257.00,1605.00
             1257.00,1605.00 1311.00,1659.00 1311.00,1659.00
             1311.00,1659.00 1478.00,1826.00 1478.00,1826.00
             1478.00,1826.00 1995.00,2343.00 1995.00,2343.00
             1995.00,2343.00 2179.00,2527.00 2179.00,2527.00
             2179.00,2527.00 2224.00,2572.00 2224.00,2572.00
             2224.00,2572.00 2239.40,2589.00 2239.40,2589.00
             2239.40,2589.00 2240.00,2596.00 2240.00,2596.00
             2240.00,2596.00 2240.00,3124.00 2240.00,3124.00
             2240.00,3124.00 2210.00,3095.00 2210.00,3095.00
             2210.00,3095.00 2156.00,3041.00 2156.00,3041.00
             2156.00,3041.00 1988.00,2873.00 1988.00,2873.00
             1988.00,2873.00 1466.00,2351.00 1466.00,2351.00
             1466.00,2351.00 944.00,1829.00 944.00,1829.00
             944.00,1829.00 775.00,1660.00 775.00,1660.00
             775.00,1660.00 721.00,1606.00 721.00,1606.00
             721.00,1606.00 692.00,1576.00 692.00,1576.00
             692.00,1576.00 2239.00,29.00 2239.00,29.00 Z
           M 2354.00,29.00
           C 2354.00,29.00 2384.00,58.00 2384.00,58.00
             2384.00,58.00 2438.00,112.00 2438.00,112.00
             2438.00,112.00 2606.00,280.00 2606.00,280.00
             2606.00,280.00 3128.00,802.00 3128.00,802.00
             3128.00,802.00 3650.00,1324.00 3650.00,1324.00
             3650.00,1324.00 3819.00,1493.00 3819.00,1493.00
             3819.00,1493.00 3873.00,1547.00 3873.00,1547.00
             3873.00,1547.00 3902.00,1577.00 3902.00,1577.00
             3902.00,1577.00 2856.00,2623.00 2856.00,2623.00
             2856.00,2623.00 2519.00,2960.00 2519.00,2960.00
             2519.00,2960.00 2410.00,3069.00 2410.00,3069.00
             2410.00,3069.00 2375.00,3104.00 2375.00,3104.00
             2375.00,3104.00 2354.00,3124.00 2354.00,3124.00
             2354.00,3124.00 2354.00,2596.00 2354.00,2596.00
             2354.00,2596.00 2354.60,2589.00 2354.60,2589.00
             2354.60,2589.00 2370.00,2572.00 2370.00,2572.00
             2370.00,2572.00 2416.00,2526.00 2416.00,2526.00
             2416.00,2526.00 2606.00,2336.00 2606.00,2336.00
             2606.00,2336.00 3366.00,1576.00 3366.00,1576.00
             3366.00,1576.00 3337.00,1548.00 3337.00,1548.00
             3337.00,1548.00 3283.00,1494.00 3283.00,1494.00
             3283.00,1494.00 3116.00,1327.00 3116.00,1327.00
             3116.00,1327.00 2599.00,810.00 2599.00,810.00
             2599.00,810.00 2415.00,626.00 2415.00,626.00
             2415.00,626.00 2370.00,581.00 2370.00,581.00
             2370.00,581.00 2354.60,564.00 2354.60,564.00
             2354.60,564.00 2354.00,557.00 2354.00,557.00
             2354.00,557.00 2354.00,29.00 2354.00,29.00 Z
           M 434.00,442.00
           C 434.00,442.00 1738.00,442.00 1738.00,442.00
             1738.00,442.00 1706.00,475.00 1706.00,475.00
             1706.00,475.00 1646.00,535.00 1646.00,535.00
             1646.00,535.00 1458.00,723.00 1458.00,723.00
             1458.00,723.00 1391.00,790.00 1391.00,790.00
             1391.00,790.00 1377.00,804.00 1377.00,804.00
             1377.00,804.00 1368.00,811.40 1368.00,811.40
             1368.00,811.40 1361.00,812.00 1361.00,812.00
             1361.00,812.00 811.00,812.00 811.00,812.00
             811.00,812.00 804.00,811.40 804.00,811.40
             804.00,811.40 795.00,804.00 795.00,804.00
             795.00,804.00 781.00,790.00 781.00,790.00
             781.00,790.00 714.00,723.00 714.00,723.00
             714.00,723.00 526.00,535.00 526.00,535.00
             526.00,535.00 466.00,475.00 466.00,475.00
             466.00,475.00 434.00,442.00 434.00,442.00 Z
           M 2848.00,442.00
           C 2848.00,442.00 4152.00,442.00 4152.00,442.00
             4152.00,442.00 4120.00,475.00 4120.00,475.00
             4120.00,475.00 4060.00,535.00 4060.00,535.00
             4060.00,535.00 3872.00,723.00 3872.00,723.00
             3872.00,723.00 3805.00,790.00 3805.00,790.00
             3805.00,790.00 3791.00,804.00 3791.00,804.00
             3791.00,804.00 3782.00,811.40 3782.00,811.40
             3782.00,811.40 3775.00,812.00 3775.00,812.00
             3775.00,812.00 3225.00,812.00 3225.00,812.00
             3225.00,812.00 3218.00,811.40 3218.00,811.40
             3218.00,811.40 3209.00,804.00 3209.00,804.00
             3209.00,804.00 3195.00,790.00 3195.00,790.00
             3195.00,790.00 3128.00,723.00 3128.00,723.00
             3128.00,723.00 2940.00,535.00 2940.00,535.00
             2940.00,535.00 2880.00,475.00 2880.00,475.00
             2880.00,475.00 2848.00,442.00 2848.00,442.00 Z
           M 2239.00,671.00
           C 2239.00,671.00 2240.00,687.00 2240.00,687.00
             2240.00,687.00 2240.00,718.00 2240.00,718.00
             2240.00,718.00 2240.00,827.00 2240.00,827.00
             2240.00,827.00 2240.00,1199.00 2240.00,1199.00
             2240.00,1199.00 2239.40,1206.00 2239.40,1206.00
             2239.40,1206.00 2232.00,1215.00 2232.00,1215.00
             2232.00,1215.00 2217.00,1230.00 2217.00,1230.00
             2217.00,1230.00 2148.00,1299.00 2148.00,1299.00
             2148.00,1299.00 1870.00,1577.00 1870.00,1577.00
             1870.00,1577.00 1903.00,1609.00 1903.00,1609.00
             1903.00,1609.00 1963.00,1669.00 1963.00,1669.00
             1963.00,1669.00 2151.00,1857.00 2151.00,1857.00
             2151.00,1857.00 2218.00,1924.00 2218.00,1924.00
             2218.00,1924.00 2232.00,1938.00 2232.00,1938.00
             2232.00,1938.00 2239.40,1947.00 2239.40,1947.00
             2239.40,1947.00 2240.00,1954.00 2240.00,1954.00
             2240.00,1954.00 2240.00,2482.00 2240.00,2482.00
             2240.00,2482.00 2221.00,2464.00 2221.00,2464.00
             2221.00,2464.00 2189.00,2432.00 2189.00,2432.00
             2189.00,2432.00 2091.00,2334.00 2091.00,2334.00
             2091.00,2334.00 1787.00,2030.00 1787.00,2030.00
             1787.00,2030.00 1482.00,1725.00 1482.00,1725.00
             1482.00,1725.00 1384.00,1627.00 1384.00,1627.00
             1384.00,1627.00 1352.00,1595.00 1352.00,1595.00
             1352.00,1595.00 1334.00,1576.00 1334.00,1576.00
             1334.00,1576.00 2239.00,671.00 2239.00,671.00 Z
           M 2354.00,671.00
           C 2354.00,671.00 2373.00,689.00 2373.00,689.00
             2373.00,689.00 2405.00,721.00 2405.00,721.00
             2405.00,721.00 2503.00,819.00 2503.00,819.00
             2503.00,819.00 2807.00,1123.00 2807.00,1123.00
             2807.00,1123.00 3112.00,1428.00 3112.00,1428.00
             3112.00,1428.00 3210.00,1526.00 3210.00,1526.00
             3210.00,1526.00 3242.00,1558.00 3242.00,1558.00
             3242.00,1558.00 3260.00,1577.00 3260.00,1577.00
             3260.00,1577.00 2649.00,2188.00 2649.00,2188.00
             2649.00,2188.00 2452.00,2385.00 2452.00,2385.00
             2452.00,2385.00 2388.00,2449.00 2388.00,2449.00
             2388.00,2449.00 2354.00,2482.00 2354.00,2482.00
             2354.00,2482.00 2354.00,1954.00 2354.00,1954.00
             2354.00,1954.00 2354.60,1947.00 2354.60,1947.00
             2354.60,1947.00 2362.00,1938.00 2362.00,1938.00
             2362.00,1938.00 2377.00,1923.00 2377.00,1923.00
             2377.00,1923.00 2446.00,1854.00 2446.00,1854.00
             2446.00,1854.00 2724.00,1576.00 2724.00,1576.00
             2724.00,1576.00 2691.00,1544.00 2691.00,1544.00
             2691.00,1544.00 2631.00,1484.00 2631.00,1484.00
             2631.00,1484.00 2443.00,1296.00 2443.00,1296.00
             2443.00,1296.00 2376.00,1229.00 2376.00,1229.00
             2376.00,1229.00 2362.00,1215.00 2362.00,1215.00
             2362.00,1215.00 2354.60,1206.00 2354.60,1206.00
             2354.60,1206.00 2354.00,1199.00 2354.00,1199.00
             2354.00,1199.00 2354.00,671.00 2354.00,671.00 Z" />
</svg>
