<?xml version="1.0" encoding="UTF-8" standalone="no"?>
<!DOCTYPE svg PUBLIC "-//W3C//DTD SVG 20010904//EN"
              "http://www.w3.org/TR/2001/REC-SVG-20010904/DTD/svg10.dtd">

<svg xmlns="http://www.w3.org/2000/svg"
     width="105.857mm" height="105.857mm"
     viewBox="0 0 300 300">
  <path id="Sélection"
        fill="black"
        d="M 20.00,17.00
           C 20.00,17.00 98.00,17.00 98.00,17.00
             98.00,17.00 115.00,17.00 115.00,17.00
             116.95,17.04 119.64,16.90 120.98,18.60
             122.18,20.12 121.96,23.15 121.96,25.00
             121.96,25.00 121.96,35.00 121.96,35.00
             121.96,35.00 121.96,183.00 121.96,183.00
             121.97,204.82 117.46,221.82 101.83,237.91
             93.70,246.29 85.07,252.51 74.00,245.00
             89.16,233.51 96.97,213.74 97.00,195.00
             97.00,195.00 97.00,168.00 97.00,168.00
             96.96,158.98 98.63,150.43 87.00,148.16
             84.91,147.95 82.16,148.00 80.00,148.16
             76.33,147.99 59.58,148.42 57.37,147.43
             55.16,146.43 53.16,143.01 51.86,141.00
             51.86,141.00 42.00,125.00 42.00,125.00
             42.00,125.00 83.00,125.00 83.00,125.00
             87.16,124.94 90.56,124.64 93.77,121.61
             98.71,116.96 98.21,105.97 92.81,101.85
             86.01,96.66 62.56,101.07 56.18,98.40
             53.56,97.30 51.88,94.31 50.42,92.00
             47.38,87.18 42.95,81.09 41.00,76.00
             41.00,76.00 83.00,76.00 83.00,76.00
             86.76,75.95 89.76,75.77 92.89,73.35
             98.23,69.23 98.71,58.12 93.66,53.57
             90.76,50.96 85.77,50.27 82.00,50.55
             82.00,50.55 58.00,50.55 58.00,50.55
             54.61,50.72 43.90,51.28 41.21,49.89
             38.87,48.68 35.89,43.35 34.33,41.00
             30.88,35.78 21.98,22.18 20.00,17.00 Z
           M 140.00,265.00
           C 140.00,265.00 138.99,250.00 138.99,250.00
             138.99,250.00 138.99,241.00 138.99,241.00
             138.99,241.00 137.20,231.28 137.20,231.28
             137.20,231.28 138.91,215.00 138.91,215.00
             138.91,215.00 138.91,197.00 138.91,197.00
             138.91,197.00 138.12,187.00 138.12,187.00
             138.12,187.00 138.12,176.00 138.12,176.00
             138.12,176.00 139.00,161.00 139.00,161.00
             139.00,161.00 139.00,79.00 139.00,79.00
             139.00,79.00 139.00,33.00 139.00,33.00
             139.00,18.14 137.80,17.06 147.00,17.00
             147.00,17.00 163.00,17.00 163.00,17.00
             163.00,17.00 163.00,197.00 163.00,197.00
             163.00,197.00 162.17,248.00 162.17,248.00
             161.66,253.09 162.02,260.90 159.00,265.00
             159.00,265.00 158.00,251.00 158.00,251.00
             158.00,251.00 155.00,267.00 155.00,267.00
             155.00,267.00 154.00,263.00 154.00,263.00
             154.00,263.00 153.00,277.00 153.00,277.00
             153.00,277.00 152.00,275.00 152.00,275.00
             152.00,275.00 149.00,286.00 149.00,286.00
             149.00,286.00 151.00,286.00 151.00,286.00
             151.00,286.00 151.00,287.00 151.00,287.00
             151.00,287.00 150.00,288.00 150.00,288.00
             146.71,282.92 149.00,273.51 149.00,267.00
             149.00,267.00 146.00,266.00 146.00,266.00
             149.54,264.44 147.90,258.93 147.00,256.00
             147.00,256.00 147.00,262.00 147.00,262.00
             147.00,262.00 146.00,262.00 146.00,262.00
             146.00,262.00 144.00,260.00 144.00,260.00
             144.00,260.00 142.00,272.00 142.00,272.00
             142.00,272.00 141.00,263.00 141.00,263.00
             141.00,263.00 141.00,265.00 141.00,265.00
             141.00,265.00 140.00,265.00 140.00,265.00 Z
           M 226.00,245.00
           C 215.41,252.19 209.34,247.66 201.01,240.15
             190.20,230.41 182.71,218.32 179.67,204.00
             179.67,204.00 178.06,178.00 178.06,178.00
             178.06,178.00 178.66,171.00 178.66,171.00
             178.66,171.00 178.02,156.00 178.02,156.00
             178.02,156.00 178.82,145.00 178.82,145.00
             178.82,145.00 178.03,137.00 178.03,137.00
             178.03,137.00 178.66,129.00 178.66,129.00
             178.66,129.00 178.13,121.01 178.13,121.01
             178.13,121.01 178.13,62.00 178.13,62.00
             178.13,62.00 178.13,52.83 178.13,52.83
             178.13,52.83 178.82,43.00 178.82,43.00
             178.82,43.00 178.19,24.58 178.19,24.58
             178.15,22.48 177.75,19.49 179.60,18.02
             181.18,16.77 185.01,17.00 187.00,17.00
             187.00,17.00 280.00,17.00 280.00,17.00
             278.25,22.29 268.60,36.35 265.05,42.00
             263.31,44.77 261.12,49.23 257.91,50.40
             255.64,51.17 251.68,50.08 249.00,50.40
             249.00,50.40 239.00,50.40 239.00,50.40
             231.53,50.53 225.74,49.52 218.00,50.40
             214.30,50.82 210.36,50.76 207.19,53.00
             200.69,57.58 201.19,71.31 210.01,74.85
             214.05,76.48 222.40,76.00 227.00,76.00
             227.00,76.00 259.00,76.00 259.00,76.00
             259.00,76.00 245.00,100.00 245.00,100.00
             245.00,100.00 224.00,99.41 224.00,99.41
             218.49,99.21 212.88,97.90 208.04,101.51
             201.78,106.19 200.82,117.28 207.19,122.35
             210.54,125.02 213.96,124.98 218.00,125.00
             218.00,125.00 258.00,125.00 258.00,125.00
             258.00,125.00 248.69,140.00 248.69,140.00
             247.43,141.96 245.35,145.79 243.47,147.01
             241.69,148.16 239.05,147.99 237.00,148.00
             228.18,148.05 208.98,145.27 204.17,154.09
             202.79,156.64 203.00,160.16 203.00,163.00
             202.95,192.71 199.04,224.58 226.00,245.00 Z
           M 142.00,261.00
           C 142.00,261.00 141.00,261.00 141.00,261.00
             141.00,261.00 142.00,262.00 142.00,262.00
             142.00,262.00 142.00,261.00 142.00,261.00 Z" />
</svg>
