<?xml version="1.0" encoding="UTF-8" standalone="no"?>
<!DOCTYPE svg PUBLIC "-//W3C//DTD SVG 20010904//EN"
              "http://www.w3.org/TR/2001/REC-SVG-20010904/DTD/svg10.dtd">

<svg xmlns="http://www.w3.org/2000/svg"
     width="4.16667in" height="4.16667in"
     viewBox="0 0 300 300">
  <path id="Sélection"
        fill="black"
        d="M 102.00,89.00
           C 102.00,89.00 92.34,63.02 92.34,63.02
             91.52,57.09 95.36,57.07 100.00,57.00
             100.00,57.00 144.00,57.00 144.00,57.00
             144.00,57.00 144.00,243.00 144.00,243.00
             144.00,243.00 113.63,205.00 113.63,205.00
             113.63,205.00 63.58,140.00 63.58,140.00
             63.58,140.00 34.21,102.00 34.21,102.00
             34.21,102.00 17.00,78.00 17.00,78.00
             17.00,78.00 70.00,112.67 70.00,112.67
             70.00,112.67 87.00,124.00 87.00,124.00
             88.85,125.22 94.25,128.43 95.43,129.78
             97.77,132.46 96.66,135.85 96.28,139.00
             95.74,143.64 95.89,148.42 96.81,153.00
             100.37,170.80 113.99,178.32 130.00,183.00
             130.00,183.00 128.17,156.00 128.17,156.00
             128.17,156.00 126.83,133.00 126.83,133.00
             126.83,133.00 123.99,96.00 123.99,96.00
             123.99,96.00 122.18,75.00 122.18,75.00
             121.48,72.02 120.42,69.12 116.96,68.62
             107.94,67.32 107.01,82.08 102.00,89.00 Z
           M 157.00,57.00
           C 157.00,57.00 201.00,57.00 201.00,57.00
             205.64,57.07 209.48,57.09 208.66,63.02
             208.05,67.37 200.68,85.54 198.00,89.00
             196.68,85.20 192.82,73.80 190.50,71.28
             188.23,68.80 184.31,67.42 181.43,69.75
             179.27,71.50 178.63,75.38 178.10,78.00
             178.10,78.00 178.10,87.00 178.10,87.00
             178.10,87.00 176.96,99.00 176.96,99.00
             176.96,99.00 175.09,121.00 175.09,121.00
             175.09,121.00 172.91,155.00 172.91,155.00
             172.91,155.00 171.00,183.00 171.00,183.00
             191.70,176.95 205.51,166.25 204.99,143.00
             204.91,139.55 203.27,133.23 204.99,130.53
             206.19,128.66 210.05,126.56 212.00,125.31
             212.00,125.31 228.00,114.67 228.00,114.67
             228.00,114.67 284.00,78.00 284.00,78.00
             284.00,78.00 266.79,102.00 266.79,102.00
             266.79,102.00 237.42,140.00 237.42,140.00
             237.42,140.00 187.37,205.00 187.37,205.00
             187.37,205.00 157.00,243.00 157.00,243.00
             157.00,243.00 157.00,57.00 157.00,57.00 Z" />
</svg>
