<?xml version="1.0" encoding="UTF-8" standalone="no"?>
<!DOCTYPE svg PUBLIC "-//W3C//DTD SVG 20010904//EN"
              "http://www.w3.org/TR/2001/REC-SVG-20010904/DTD/svg10.dtd">

<svg xmlns="http://www.w3.org/2000/svg"
     width="9.73611in" height="9.75in"
     viewBox="0 0 701 702">
  <path id="Sélection"
        fill="black" 
        d="M 346.00,154.00
           C 295.17,153.85 247.46,105.90 266.09,54.00
             268.35,47.70 274.26,37.18 278.47,32.00
             286.64,21.94 296.51,14.99 308.00,9.25
             318.80,3.85 333.91,0.26 346.00,0.00
             346.00,0.00 346.00,29.00 346.00,29.00
             346.00,30.95 346.26,34.71 345.01,36.26
             343.76,37.82 334.19,39.51 331.00,40.88
             325.28,43.33 318.32,48.40 314.18,53.01
             290.49,79.41 314.92,114.39 346.00,117.00
             346.00,117.00 346.00,154.00 346.00,154.00 Z
           M 354.00,37.00
           C 354.00,37.00 354.00,9.00 354.00,9.00
             354.00,6.73 353.63,2.55 355.60,1.08
             357.64,-0.55 363.47,0.77 366.00,1.08
             376.43,2.63 385.62,5.44 395.00,10.26
             420.20,23.21 438.66,47.98 438.66,77.00
             438.66,105.95 420.32,131.01 395.00,143.75
             386.79,147.88 367.06,155.12 358.06,153.84
             353.23,153.15 354.01,148.80 354.00,145.00
             354.00,145.00 354.00,124.00 354.00,124.00
             354.18,114.76 357.09,118.40 369.00,113.55
             374.88,111.15 381.52,106.52 385.86,101.96
             399.26,88.08 399.28,66.00 385.86,52.17
             375.55,41.61 367.81,39.52 354.00,37.00 Z
           M 131.00,126.00
           C 131.00,126.00 123.17,118.91 123.17,118.91
             123.17,118.91 113.00,108.42 113.00,108.42
             110.79,106.47 106.71,103.33 107.03,100.00
             107.44,95.77 117.43,89.82 121.00,87.73
             140.39,76.38 152.10,74.75 174.00,75.00
             181.84,75.10 189.76,77.06 197.00,80.01
             224.18,91.09 238.85,116.43 239.96,145.00
             240.65,162.75 233.32,183.42 223.48,198.00
             223.48,198.00 215.00,209.00 215.00,209.00
             215.00,209.00 201.00,196.00 201.00,196.00
             201.00,196.00 188.00,182.00 188.00,182.00
             193.85,174.42 198.79,165.70 199.83,156.00
             202.05,135.30 186.73,116.36 166.00,114.17
             152.01,112.69 142.33,119.66 131.00,126.00 Z
           M 596.00,101.00
           C 596.00,101.00 578.00,119.00 578.00,119.00
             575.81,121.17 572.32,125.31 569.00,125.18
             566.47,125.08 560.76,120.76 558.00,119.37
             552.45,116.60 546.18,115.07 540.00,115.00
             534.00,114.94 529.67,115.16 524.00,117.47
             508.66,123.74 498.57,141.65 501.46,158.00
             502.53,164.03 504.38,168.65 507.31,174.00
             508.52,176.20 511.78,180.70 511.70,183.00
             511.61,185.67 508.74,188.21 506.99,190.00
             506.99,190.00 495.00,202.00 495.00,202.00
             493.41,203.58 490.13,207.13 488.00,207.66
             483.48,208.81 477.48,198.37 475.45,195.00
             466.73,180.58 463.50,170.64 461.83,154.00
             461.53,150.95 460.96,149.28 461.10,146.00
             462.02,125.29 469.73,104.88 486.00,91.32
             511.05,70.44 548.25,70.41 576.00,85.86
             583.21,89.88 590.87,94.43 596.00,101.00 Z
           M 99.01,107.54
           C 100.29,107.39 99.87,106.73 102.00,107.54
             104.29,108.84 116.36,121.31 119.00,124.00
             121.01,126.05 124.26,128.90 124.27,132.00
             124.28,134.56 121.18,138.68 119.87,141.00
             117.47,145.29 115.34,151.16 114.46,156.00
             110.96,175.46 123.35,195.29 143.00,199.48
             146.04,200.13 149.86,200.03 153.00,200.00
             160.62,199.91 165.29,198.19 172.00,194.74
             174.65,193.38 180.21,189.44 182.91,189.86
             185.11,190.19 188.40,193.63 190.04,195.17
             190.04,195.17 201.28,206.58 201.28,206.58
             202.93,208.21 206.05,210.82 206.83,212.97
             208.49,217.51 198.30,223.37 195.00,225.39
             181.12,233.84 165.41,239.80 149.00,240.00
             137.23,240.13 128.03,239.02 117.00,234.55
             80.17,219.62 66.97,179.20 77.72,143.00
             80.70,132.95 89.95,112.50 99.01,107.54 Z
           M 601.00,106.00
           C 607.68,111.22 612.35,119.59 616.29,127.00
             632.02,156.51 631.07,196.54 605.96,220.91
             595.08,231.48 577.32,239.82 562.00,240.00
             562.00,240.00 548.00,240.00 548.00,240.00
             533.63,239.83 516.96,232.99 505.00,225.30
             501.91,223.32 493.26,218.27 494.34,214.00
             494.87,211.87 498.42,208.59 500.00,207.00
             500.00,207.00 512.00,195.00 512.00,195.00
             513.74,193.30 516.43,190.28 519.00,190.16
             521.27,190.05 525.79,193.48 528.00,194.69
             532.91,197.38 537.51,199.10 543.00,200.19
             566.91,204.95 587.27,185.77 587.00,162.00
             586.92,155.32 585.38,149.97 582.39,144.00
             581.11,141.44 576.90,135.29 576.82,133.00
             576.70,129.67 580.82,126.19 583.00,124.00
             583.00,124.00 601.00,106.00 601.00,106.00 Z
           M 340.00,210.21
           C 340.00,210.21 354.00,210.21 354.00,210.21
             368.51,210.07 384.29,213.75 398.00,218.33
             410.78,222.61 424.17,230.16 435.00,238.16
             510.27,293.68 509.32,410.78 433.00,464.96
             412.65,479.41 383.19,490.96 358.00,491.00
             358.00,491.00 341.00,491.00 341.00,491.00
             330.90,490.88 318.72,487.91 309.00,485.14
             289.48,479.59 273.33,470.21 258.00,457.00
             211.23,416.70 197.33,350.36 221.43,294.00
             235.33,261.49 264.16,233.48 297.00,220.45
             312.78,214.19 323.60,212.76 340.00,210.21 Z
           M 0.00,347.00
           C 0.11,335.37 3.46,320.57 8.31,310.00
             12.71,300.40 20.18,289.24 28.00,282.17
             34.76,276.06 42.55,271.02 51.00,267.60
             62.95,262.77 69.49,262.86 82.00,263.00
             93.07,263.13 103.66,267.09 113.00,272.81
             138.47,288.41 153.91,317.20 154.00,347.00
             154.00,347.00 117.00,347.00 117.00,347.00
             114.85,320.74 89.91,296.14 63.00,308.31
             59.10,310.08 55.25,312.40 52.09,315.30
             42.76,323.85 38.65,334.76 37.00,347.00
             37.00,347.00 0.00,347.00 0.00,347.00 Z
           M 547.00,347.00
           C 547.10,312.47 568.67,277.50 602.00,266.08
             611.95,262.67 618.76,262.88 629.00,263.00
             635.00,263.07 641.36,264.39 647.00,266.44
             656.02,269.71 663.66,274.25 671.00,280.44
             680.33,288.30 687.46,299.07 692.74,310.00
             697.67,320.20 700.97,335.67 701.00,347.00
             701.00,347.00 664.00,347.00 664.00,347.00
             662.35,334.76 658.24,323.85 648.91,315.30
             645.75,312.40 641.90,310.08 638.00,308.31
             611.09,296.14 586.15,320.74 584.00,347.00
             584.00,347.00 547.00,347.00 547.00,347.00 Z
           M 0.00,355.00
           C 0.00,355.00 37.00,355.00 37.00,355.00
             39.61,369.33 43.03,379.07 55.00,388.62
             57.94,390.97 61.50,392.80 65.00,394.17
             83.12,401.27 101.53,391.03 110.66,375.00
             114.37,368.50 116.01,362.35 117.00,355.00
             117.00,355.00 154.00,355.00 154.00,355.00
             153.89,367.06 150.56,381.18 145.24,392.00
             139.23,404.24 131.85,414.95 121.00,423.48
             114.86,428.31 107.33,432.28 100.00,434.95
             47.78,453.93 0.46,406.04 0.00,355.00 Z
           M 547.00,355.00
           C 547.00,355.00 584.00,355.00 584.00,355.00
             584.99,362.35 586.63,368.50 590.34,375.00
             599.47,391.03 617.88,401.27 636.00,394.17
             639.50,392.80 643.06,390.97 646.00,388.62
             657.97,379.07 661.39,369.33 664.00,355.00
             664.00,355.00 701.00,355.00 701.00,355.00
             700.54,406.04 653.22,453.93 601.00,434.95
             593.67,432.28 586.14,428.31 580.00,423.48
             568.81,414.68 561.94,404.58 555.76,392.00
             550.44,381.18 547.11,367.06 547.00,355.00 Z
           M 137.00,462.42
           C 157.45,459.93 174.23,465.27 192.00,474.78
             195.71,476.77 208.61,484.16 206.83,489.03
             206.01,491.30 202.21,494.47 200.42,496.28
             197.51,499.25 187.67,509.79 184.72,511.44
             183.34,512.20 182.54,512.37 180.99,512.02
             180.99,512.02 164.00,503.75 164.00,503.75
             150.17,499.22 134.45,502.58 124.30,513.17
             113.05,524.91 111.43,540.21 117.06,555.00
             118.51,558.79 124.28,567.67 124.27,570.00
             124.26,572.82 121.79,575.11 119.98,577.00
             119.98,577.00 108.00,589.00 108.00,589.00
             106.41,590.58 103.13,594.13 101.00,594.66
             96.46,595.81 90.87,586.32 88.81,583.00
             78.12,565.76 76.98,558.37 74.42,539.00
             73.51,532.06 74.34,531.37 74.93,525.00
             77.42,498.09 94.29,475.32 120.00,466.09
             125.63,464.07 131.14,463.31 137.00,462.42 Z
           M 546.00,462.42
           C 590.83,456.95 627.45,489.91 627.00,535.00
             626.83,551.72 621.41,567.81 612.80,582.00
             610.81,585.27 605.07,594.80 601.00,594.80
             598.51,594.80 595.67,591.63 594.00,590.00
             594.00,590.00 581.02,577.00 581.02,577.00
             579.21,575.11 576.74,572.82 576.73,570.00
             576.72,567.67 582.49,558.79 583.94,555.00
             589.65,539.98 587.82,523.80 575.83,512.30
             565.29,502.20 549.71,499.17 536.00,504.09
             531.77,505.61 520.61,513.13 517.17,511.89
             515.01,511.10 507.90,503.92 506.01,502.00
             503.25,499.19 492.65,490.11 494.17,486.29
             495.25,483.56 503.30,478.26 506.00,476.61
             520.71,467.65 529.29,464.95 546.00,462.42 Z
           M 214.00,493.00
           C 224.06,502.63 232.89,518.50 236.37,532.00
             240.57,548.31 241.03,565.96 235.30,582.00
             225.82,608.57 200.16,626.96 172.00,627.00
             151.07,627.03 140.59,625.61 122.00,614.85
             118.37,612.74 108.50,606.82 107.25,602.99
             106.09,599.46 109.71,596.49 112.02,594.42
             119.05,588.12 124.06,581.32 132.00,576.00
             140.66,582.63 150.90,587.60 162.00,587.96
             181.16,588.57 197.82,572.72 199.83,554.00
             201.44,538.96 194.76,531.05 188.00,519.00
             188.00,519.00 214.00,493.00 214.00,493.00 Z
           M 486.00,493.00
           C 491.97,497.28 508.73,513.85 513.00,520.00
             507.15,527.58 502.21,536.30 501.17,546.00
             498.95,566.70 514.27,585.64 535.00,587.83
             541.75,588.54 550.94,586.36 557.00,583.40
             559.52,582.16 566.93,577.29 569.00,577.32
             571.65,577.36 574.23,580.28 576.00,582.01
             576.00,582.01 590.94,597.00 590.94,597.00
             593.27,599.60 595.07,601.55 592.63,604.83
             588.83,609.94 572.32,618.74 566.00,621.19
             532.13,634.33 491.07,626.89 471.45,594.00
             458.81,572.80 458.28,545.64 467.45,523.00
             472.90,509.54 477.64,504.18 486.00,493.00 Z
           M 346.00,702.00
           C 333.91,701.74 318.80,698.15 308.00,692.75
             296.51,687.01 286.64,680.06 278.47,670.00
             274.26,664.82 268.35,654.30 266.09,648.00
             262.52,638.05 261.60,627.40 262.85,617.00
             267.69,576.60 306.52,548.12 346.00,548.00
             346.00,548.00 346.00,585.00 346.00,585.00
             314.92,587.61 290.49,622.59 314.18,648.99
             318.32,653.60 325.28,658.67 331.00,661.12
             334.19,662.49 343.76,664.18 345.01,665.74
             346.26,667.29 346.00,671.05 346.00,673.00
             346.00,673.00 346.00,702.00 346.00,702.00 Z
           M 355.60,549.08
           C 359.62,547.33 363.77,548.50 368.00,549.08
             379.31,550.84 392.31,556.05 402.00,562.06
             444.25,588.28 451.79,645.04 414.00,678.83
             401.91,689.64 386.83,696.78 371.00,700.20
             367.75,700.66 357.21,703.15 355.02,700.20
             353.97,699.08 354.03,696.62 354.00,695.00
             354.00,695.00 354.00,674.00 354.00,674.00
             354.00,671.84 353.78,668.24 355.02,666.43
             356.66,664.04 360.39,663.95 363.00,663.32
             366.74,662.43 371.71,660.50 375.00,658.52
             388.69,650.31 398.62,635.44 395.53,619.00
             393.13,606.18 384.26,596.35 373.00,590.32
             358.96,582.81 354.20,588.56 354.00,578.00
             354.00,578.00 354.00,557.00 354.00,557.00
             354.01,553.50 353.51,551.93 355.60,549.08 Z" />
</svg>
