<?xml version="1.0" encoding="UTF-8" standalone="no"?>
<!DOCTYPE svg PUBLIC "-//W3C//DTD SVG 20010904//EN"
              "http://www.w3.org/TR/2001/REC-SVG-20010904/DTD/svg10.dtd">

<svg xmlns="http://www.w3.org/2000/svg"
     width="162.315mm" height="162.315mm"
     viewBox="0 0 460 460">
  <path id="Sélection"
        fill="black"
        d="M 35.15,62.02
           C 39.53,60.46 44.38,61.00 49.00,61.00
             49.00,61.00 72.00,61.00 72.00,61.00
             72.00,61.00 151.00,61.00 151.00,61.00
             151.00,61.00 418.00,61.00 418.00,61.00
             420.77,61.01 424.44,60.71 426.69,62.60
             429.60,65.05 430.15,75.57 427.40,78.26
             425.29,80.32 420.77,80.00 418.00,80.00
             418.00,80.00 121.00,80.00 121.00,80.00
             121.00,80.00 43.00,80.00 43.00,80.00
             40.23,80.00 35.71,80.32 33.60,78.26
             31.48,76.19 31.54,67.69 32.60,65.06
             33.40,63.07 33.76,63.25 35.15,62.02 Z
           M 45.00,97.00
           C 45.00,97.00 416.00,97.00 416.00,97.00
             415.82,105.33 412.56,116.33 409.28,124.00
             396.95,152.80 375.51,170.26 347.00,181.99
             306.91,198.48 274.92,195.00 233.00,195.00
             233.00,195.00 173.00,195.00 173.00,195.00
             154.36,194.97 128.12,188.09 111.00,180.72
             83.82,169.02 63.51,151.53 51.72,124.00
             48.44,116.33 45.18,105.33 45.00,97.00 Z
           M 183.00,289.00
           C 185.54,288.99 189.34,289.35 191.26,287.40
             192.94,285.70 193.35,281.36 193.80,279.00
             194.55,275.14 198.48,256.45 197.96,254.00
             197.25,250.64 193.36,247.44 191.04,245.00
             191.04,245.00 177.92,230.00 177.92,230.00
             175.17,226.64 171.71,222.73 173.24,218.04
             173.90,216.03 175.15,214.57 177.11,213.74
             177.11,213.74 198.00,212.00 198.00,212.00
             198.00,212.00 263.00,212.00 263.00,212.00
             263.00,212.00 274.00,212.83 274.00,212.83
             280.01,213.40 289.81,212.19 288.02,222.00
             286.83,228.47 274.76,240.29 270.00,245.00
             268.40,246.58 264.00,250.49 263.19,252.28
             262.16,254.57 263.32,258.58 263.80,261.00
             263.80,261.00 267.20,279.00 267.20,279.00
             267.65,281.36 268.06,285.70 269.74,287.40
             271.66,289.35 275.46,288.99 278.00,289.00
             278.00,289.00 278.00,321.00 278.00,321.00
             278.00,321.00 276.00,340.00 276.00,340.00
             285.25,340.43 297.15,344.59 305.00,349.47
             312.56,354.16 312.68,358.68 322.00,359.00
             322.73,362.63 323.99,366.26 323.67,370.00
             323.00,377.84 315.96,394.31 308.96,397.98
             306.64,399.19 303.56,398.99 301.00,399.00
             301.00,399.00 160.00,399.00 160.00,399.00
             157.20,399.00 153.67,399.22 151.17,397.83
             144.09,393.86 138.20,377.89 138.01,370.00
             137.95,367.22 137.72,362.72 139.74,360.59
             141.54,358.70 143.52,359.55 148.00,355.87
             148.00,355.87 155.00,350.10 155.00,350.10
             162.83,344.89 175.59,340.44 185.00,340.00
             185.00,340.00 183.00,321.00 183.00,321.00
             183.00,321.00 183.00,289.00 183.00,289.00 Z
           M 228.00,294.43
           C 222.29,296.54 215.99,302.13 211.00,305.87
             208.60,307.67 204.21,310.72 202.60,313.09
             200.11,316.74 200.72,322.38 205.11,324.26
             206.80,324.99 209.18,324.97 211.00,325.00
             211.00,325.00 248.00,325.00 248.00,325.00
             253.01,324.99 258.83,325.44 259.76,318.98
             260.06,316.84 259.62,314.88 258.40,313.09
             256.79,310.72 252.40,307.67 250.00,305.87
             243.55,301.03 236.64,293.35 228.00,294.43 Z
           M 196.00,378.16
           C 196.00,378.16 196.00,367.00 196.00,367.00
             195.93,357.00 193.41,358.83 182.00,362.67
             177.63,364.14 170.65,366.40 167.34,369.53
             163.87,372.80 160.81,382.25 162.74,386.82
             163.68,389.03 165.13,389.76 167.00,391.00
             167.00,391.00 168.60,381.15 168.60,381.15
             168.60,381.15 173.00,378.16 173.00,378.16
             173.00,378.16 196.00,378.16 196.00,378.16 Z
           M 294.00,391.00
           C 295.87,389.76 297.32,389.03 298.26,386.82
             300.19,382.25 297.13,372.80 293.66,369.53
             290.19,366.25 282.60,363.87 278.00,362.33
             268.84,359.27 265.17,356.89 265.00,366.00
             265.00,366.00 265.00,378.16 265.00,378.16
             265.00,378.16 288.00,378.16 288.00,378.16
             288.00,378.16 292.40,381.15 292.40,381.15
             292.40,381.15 294.00,391.00 294.00,391.00 Z
           M 72.00,383.00
           C 72.00,383.00 113.00,379.99 113.00,379.99
             116.57,379.79 124.58,377.92 127.44,379.99
             129.18,381.30 133.95,395.98 135.00,399.00
             135.00,399.00 62.00,399.00 62.00,399.00
             65.21,394.58 66.49,392.89 72.00,392.00
             72.00,392.00 72.00,383.00 72.00,383.00 Z
           M 326.00,399.00
           C 326.00,399.00 330.92,387.00 330.92,387.00
             331.72,384.72 332.32,381.44 334.43,379.99
             337.40,378.01 344.40,379.79 348.00,379.99
             348.00,379.99 389.00,383.00 389.00,383.00
             389.00,383.00 389.00,392.00 389.00,392.00
             394.51,392.89 395.79,394.58 399.00,399.00
             399.00,399.00 326.00,399.00 326.00,399.00 Z" />
</svg>
