<?xml version="1.0" encoding="UTF-8" standalone="no"?>
<!DOCTYPE svg PUBLIC "-//W3C//DTD SVG 20010904//EN"
              "http://www.w3.org/TR/2001/REC-SVG-20010904/DTD/svg10.dtd">

<svg xmlns="http://www.w3.org/2000/svg"
     width="162.315mm" height="162.315mm"
     viewBox="0 0 460 460">
  <path id="Sélection"
        fill="black"
        d="M 151.00,268.00
           C 151.00,268.00 130.00,255.70 130.00,255.70
             130.00,255.70 110.00,253.11 110.00,253.11
             110.00,253.11 47.00,236.88 47.00,236.88
             47.00,236.88 18.00,229.42 18.00,229.42
             15.34,228.68 9.59,227.75 8.03,225.49
             6.11,222.71 8.03,218.55 9.47,216.00
             9.47,216.00 23.67,194.00 23.67,194.00
             46.57,159.48 62.12,138.05 98.00,115.32
             119.07,101.97 140.91,93.65 165.00,87.63
             192.81,80.67 210.50,78.87 239.00,79.00
             249.73,79.05 270.15,82.23 281.00,84.40
             322.16,92.63 360.96,109.17 392.00,138.09
             392.00,138.09 405.07,152.00 405.07,152.00
             420.85,169.38 429.16,182.41 441.42,202.00
             446.91,210.77 452.89,216.26 453.00,227.00
             453.00,227.00 430.00,232.63 430.00,232.63
             430.00,232.63 379.00,245.63 379.00,245.63
             379.00,245.63 345.00,254.20 345.00,254.20
             345.00,254.20 330.00,255.70 330.00,255.70
             330.00,255.70 308.00,269.00 308.00,269.00
             312.82,271.20 318.68,275.24 319.48,281.00
             320.14,285.79 309.97,297.65 305.91,299.83
             302.79,301.50 295.70,301.00 292.00,301.00
             290.91,309.09 288.77,315.24 279.00,314.00
             279.00,314.00 267.30,347.00 267.30,347.00
             263.77,352.23 255.59,356.85 249.81,364.00
             242.95,372.48 240.70,382.88 227.00,380.79
             217.89,379.40 215.98,371.06 210.79,365.00
             210.79,365.00 192.70,347.00 192.70,347.00
             192.70,347.00 181.00,314.00 181.00,314.00
             171.60,315.19 168.69,309.15 168.00,301.00
             154.44,301.00 154.43,302.15 145.29,291.00
             143.04,288.25 140.23,284.80 140.75,281.00
             141.46,275.90 147.28,271.08 151.00,268.00 Z
           M 229.00,271.38
           C 221.57,272.37 216.10,275.03 212.44,282.00
             205.55,295.11 216.54,310.52 231.00,309.62
             249.81,308.46 256.31,285.00 241.00,274.70
             237.50,272.35 233.14,271.44 229.00,271.38 Z" />
</svg>
