<?xml version="1.0" encoding="UTF-8" standalone="no"?>
<!DOCTYPE svg PUBLIC "-//W3C//DTD SVG 20010904//EN"
              "http://www.w3.org/TR/2001/REC-SVG-20010904/DTD/svg10.dtd">

<svg xmlns="http://www.w3.org/2000/svg"
     width="162.315mm" height="162.315mm"
     viewBox="0 0 460 460">
  <path id="Sélection"
        fill="black"
        d="M 295.00,68.00
           C 302.19,70.64 310.58,76.34 317.00,80.67
             331.81,90.65 350.43,105.93 360.00,121.00
             358.49,122.15 356.79,123.62 355.00,124.31
             349.29,126.51 344.56,119.15 340.42,118.50
             336.68,117.92 331.35,124.60 327.00,124.80
             323.35,124.96 319.28,120.51 316.00,119.41
             310.68,117.62 303.16,124.66 301.00,129.00
             304.24,126.84 311.10,121.40 315.00,122.11
             318.42,122.73 323.07,127.61 327.00,127.49
             330.88,127.37 335.33,122.49 339.00,122.09
             343.05,121.65 347.50,126.24 351.00,127.20
             355.86,128.52 360.64,122.24 362.83,126.32
             364.79,129.95 355.21,135.45 352.00,135.03
             348.32,134.54 343.68,129.37 340.00,129.20
             335.25,128.99 330.94,135.76 326.00,134.89
             323.18,134.39 319.03,130.52 316.00,129.55
             310.53,127.78 303.23,134.52 301.00,139.00
             304.56,136.86 310.94,131.95 315.00,132.52
             319.17,133.11 322.95,137.76 327.00,137.66
             330.74,137.57 335.09,133.01 339.00,132.55
             343.80,131.98 348.24,137.26 352.00,137.75
             355.22,138.16 362.77,132.73 366.00,131.00
             366.00,131.00 372.00,141.00 372.00,141.00
             368.78,139.88 366.43,138.32 363.00,139.66
             359.12,141.19 355.52,145.83 351.00,144.70
             347.19,143.74 343.15,138.71 339.00,139.26
             335.31,139.74 330.82,144.99 327.00,144.99
             323.52,144.99 319.19,140.48 316.00,139.41
             310.68,137.62 303.16,144.66 301.00,149.00
             304.44,146.75 310.83,141.93 315.00,142.52
             319.17,143.11 322.95,147.76 327.00,147.66
             331.28,147.55 335.91,142.04 340.00,142.20
             344.48,142.38 348.83,148.46 354.00,147.39
             358.94,146.36 362.45,140.72 368.00,142.66
             378.25,146.25 385.10,164.03 390.68,173.00
             390.68,173.00 423.42,226.00 423.42,226.00
             423.42,226.00 444.00,260.00 444.00,260.00
             435.01,260.41 421.06,261.76 416.02,251.98
             413.82,247.72 416.62,243.99 411.72,238.02
             407.47,232.82 404.13,232.79 400.30,228.87
             397.09,225.58 389.35,213.52 386.33,209.00
             386.33,209.00 371.96,188.00 371.96,188.00
             370.16,185.53 367.57,181.88 364.02,183.17
             360.80,184.33 359.17,188.11 358.00,191.00
             362.65,189.58 363.93,187.10 366.83,188.74
             368.97,189.95 378.32,204.02 380.33,207.00
             380.33,207.00 403.19,242.00 403.19,242.00
             406.46,247.35 411.30,254.19 413.00,260.00
             410.01,260.24 407.00,260.92 404.00,260.68
             398.52,260.24 388.94,257.91 386.02,252.82
             383.93,249.16 386.46,244.30 381.58,238.02
             376.24,231.12 373.68,234.19 367.72,225.98
             367.72,225.98 348.66,198.00 348.66,198.00
             346.99,195.55 340.38,185.88 338.68,184.43
             332.88,179.51 329.45,186.10 328.00,191.00
             328.00,191.00 331.00,192.00 331.00,192.00
             331.00,192.00 333.00,187.00 333.00,187.00
             339.77,189.43 345.35,200.03 349.33,206.00
             349.33,206.00 383.00,260.00 383.00,260.00
             374.01,260.41 360.06,261.76 355.02,251.98
             352.89,247.86 355.58,244.27 350.61,238.02
             346.34,232.64 343.08,232.82 339.32,228.87
             339.32,228.87 325.58,209.00 325.58,209.00
             325.58,209.00 311.24,188.00 311.24,188.00
             309.40,185.58 306.55,181.88 303.04,183.17
             300.03,184.28 298.23,188.30 297.00,191.00
             297.00,191.00 301.00,192.00 301.00,192.00
             304.66,180.69 314.11,199.27 316.72,203.00
             316.72,203.00 338.68,237.00 338.68,237.00
             342.64,243.28 349.57,253.41 352.00,260.00
             343.47,260.69 330.00,261.53 324.69,252.91
             322.42,249.22 325.55,244.00 319.61,237.10
             316.00,232.91 312.69,232.99 309.32,229.73
             309.32,229.73 294.67,209.00 294.67,209.00
             294.67,209.00 280.25,188.00 280.25,188.00
             278.42,185.65 275.55,181.86 272.09,183.17
             267.71,184.83 267.27,188.74 270.00,192.00
             270.00,192.00 272.00,187.00 272.00,187.00
             279.46,190.61 284.71,201.20 289.34,208.00
             298.91,222.05 315.99,245.44 323.00,260.00
             314.00,260.41 301.50,261.76 295.60,252.96
             293.49,249.82 294.33,247.35 293.66,244.00
             293.02,240.83 291.20,237.99 290.00,235.00
             290.00,235.00 288.00,235.00 288.00,235.00
             288.00,235.00 281.31,249.00 281.31,249.00
             281.31,249.00 269.47,273.98 269.47,273.98
             266.01,280.27 261.88,281.38 257.00,276.00
             258.78,286.70 266.16,281.56 272.00,278.00
             272.00,278.00 273.00,288.00 273.00,288.00
             273.00,288.00 291.00,284.23 291.00,284.23
             291.00,284.23 303.00,279.57 303.00,279.57
             306.10,279.05 308.53,279.94 310.70,282.23
             315.43,287.21 312.65,293.74 316.28,299.96
             318.96,304.58 324.06,306.42 324.73,312.00
             325.27,316.46 322.33,319.05 321.42,323.00
             320.37,327.57 322.35,331.85 324.00,336.00
             317.57,333.39 314.30,330.25 316.00,323.00
             308.08,327.27 307.51,329.64 308.00,338.00
             306.37,337.05 305.05,336.53 304.03,334.78
             301.99,331.29 305.53,322.15 307.99,319.57
             309.13,318.38 309.63,318.48 311.00,318.00
             310.17,307.74 305.12,311.98 300.00,304.00
             300.00,304.00 298.00,304.00 298.00,304.00
             294.53,313.48 300.16,319.33 290.00,323.00
             290.00,323.00 290.00,305.00 290.00,305.00
             290.00,305.00 291.02,298.39 291.02,298.39
             291.02,298.39 299.00,294.00 299.00,294.00
             295.88,288.62 290.99,291.04 286.00,292.67
             281.56,294.12 268.24,299.46 266.02,303.21
             264.80,305.29 265.00,308.62 265.00,311.00
             264.99,315.55 265.67,328.53 263.98,332.00
             262.15,335.75 254.07,342.73 253.40,349.00
             252.80,354.56 258.10,357.72 263.00,355.51
             267.94,353.27 269.47,348.69 274.00,346.00
             275.01,351.62 276.07,356.94 272.35,361.91
             266.07,370.30 244.93,376.35 238.01,365.90
             234.06,359.94 235.21,349.99 238.53,344.00
             241.81,338.07 245.94,335.43 245.00,328.00
             242.30,342.39 232.62,340.78 232.04,355.00
             231.71,363.14 234.05,365.77 233.87,371.00
             233.42,383.83 222.65,391.20 211.00,393.00
             217.18,378.64 218.07,376.88 218.00,361.00
             218.00,361.00 214.04,335.00 214.04,335.00
             213.68,325.68 219.57,307.11 231.00,319.00
             230.69,317.59 230.63,316.52 229.83,315.22
             224.67,306.88 217.22,316.02 212.83,319.19
             210.54,320.84 207.40,321.75 205.78,324.21
             202.35,329.42 209.50,332.84 210.10,337.00
             210.49,339.70 208.18,341.78 207.44,345.00
             206.83,347.66 207.53,350.38 208.00,353.00
             203.66,352.50 199.71,351.29 199.99,346.01
             199.99,343.63 201.65,341.30 199.99,339.26
             198.17,336.79 193.79,337.03 191.24,337.00
             191.24,337.00 191.24,354.17 191.24,354.17
             191.24,354.17 194.00,357.00 194.00,357.00
             193.16,362.33 191.88,366.11 188.00,370.00
             188.00,370.00 186.00,357.00 186.00,357.00
             186.00,357.00 179.00,364.00 179.00,364.00
             181.13,347.83 174.90,350.90 178.47,340.00
             183.18,325.59 205.10,312.50 218.00,305.31
             218.00,305.31 231.99,297.37 231.99,297.37
             238.47,292.57 239.32,288.18 231.99,284.00
             236.14,291.52 234.69,293.51 227.00,297.21
             224.82,298.26 220.03,300.71 218.02,298.36
             216.57,296.66 217.00,289.43 217.00,287.00
             224.41,287.74 225.62,283.65 224.70,277.00
             223.34,267.15 219.24,257.86 215.00,249.00
             209.84,253.03 206.28,258.80 202.37,264.00
             202.37,264.00 180.63,292.96 180.63,292.96
             175.08,299.86 172.64,297.41 167.39,304.02
             162.18,310.57 165.27,314.55 162.83,318.82
             157.93,327.38 143.26,327.09 135.00,326.00
             135.00,326.00 176.67,263.00 176.67,263.00
             180.89,256.67 188.14,242.57 195.00,240.00
             197.53,242.64 197.33,242.81 201.00,243.00
             199.53,240.66 196.65,235.57 193.59,235.34
             190.73,235.12 188.06,239.02 186.58,241.02
             186.58,241.02 173.66,260.00 173.66,260.00
             173.66,260.00 149.49,294.87 149.49,294.87
             145.81,298.92 142.03,299.07 138.39,303.18
             133.15,309.11 135.36,314.77 133.89,317.98
             129.63,327.32 114.39,327.11 106.00,326.00
             106.00,326.00 120.66,303.00 120.66,303.00
             120.66,303.00 147.67,262.00 147.67,262.00
             147.67,262.00 162.18,241.59 162.18,241.59
             162.18,241.59 166.00,240.00 166.00,240.00
             166.00,240.00 167.00,244.00 167.00,244.00
             167.00,244.00 171.00,243.00 171.00,243.00
             169.72,240.60 167.43,235.70 164.38,235.29
             161.77,234.94 158.98,238.21 157.52,240.02
             157.52,240.02 144.66,259.00 144.66,259.00
             144.66,259.00 120.49,293.95 120.49,293.95
             116.21,298.93 112.85,298.43 108.28,304.02
             103.38,309.99 106.18,313.72 103.98,317.98
             100.71,324.33 89.66,327.29 83.00,326.82
             83.00,326.82 76.00,326.00 76.00,326.00
             76.00,326.00 92.00,301.00 92.00,301.00
             92.00,301.00 120.00,259.00 120.00,259.00
             120.00,259.00 130.04,244.02 130.04,244.02
             132.77,240.58 135.22,238.98 137.00,244.02
             137.00,244.02 141.00,244.02 141.00,244.02
             140.57,242.54 140.30,241.40 139.57,240.01
             136.30,233.82 132.87,233.93 128.52,239.05
             128.52,239.05 116.33,257.00 116.33,257.00
             116.33,257.00 90.10,294.78 90.10,294.78
             86.49,298.72 83.65,298.10 79.21,303.04
             72.90,310.08 76.37,314.37 73.83,318.82
             70.67,324.34 58.99,327.24 53.00,326.82
             53.00,326.82 46.00,326.00 46.00,326.00
             52.91,311.66 77.28,276.31 87.28,262.00
             92.01,255.23 98.02,242.37 106.00,240.00
             106.00,240.00 111.00,244.00 111.00,244.00
             110.52,242.49 110.25,241.45 109.45,240.02
             105.47,232.95 102.09,234.57 97.67,240.02
             97.67,240.02 86.00,257.00 86.00,257.00
             86.00,257.00 59.99,294.78 59.99,294.78
             56.45,298.77 53.61,298.14 49.21,303.04
             42.90,310.08 46.37,314.37 43.83,318.82
             40.67,324.34 28.99,327.24 23.00,326.82
             23.00,326.82 16.00,326.00 16.00,326.00
             16.00,326.00 36.58,292.00 36.58,292.00
             36.58,292.00 76.80,227.00 76.80,227.00
             80.59,220.75 87.53,207.91 93.04,203.90
             95.71,201.96 99.59,199.45 103.00,200.20
             106.49,200.97 111.65,205.70 114.42,205.66
             118.06,205.60 123.22,199.34 128.00,199.97
             131.33,200.41 136.91,205.28 139.58,205.60
             142.99,206.01 148.23,200.75 152.00,200.04
             156.12,199.26 162.83,204.57 166.00,207.00
             164.49,202.32 156.19,195.33 151.00,197.07
             147.91,198.11 143.76,202.45 140.00,202.45
             135.23,202.45 130.54,195.98 126.72,196.56
             122.91,197.15 118.33,203.40 113.00,202.20
             109.33,201.36 104.48,196.33 101.58,196.35
             99.76,196.36 95.75,199.03 94.00,200.00
             95.44,197.00 98.27,190.51 102.04,190.24
             105.87,189.97 110.90,195.83 114.42,195.71
             117.40,195.60 122.90,190.70 126.00,190.06
             130.73,189.08 135.93,195.11 139.58,195.65
             143.13,196.18 148.07,190.77 152.00,190.04
             155.95,189.30 162.84,194.69 166.00,197.00
             164.69,192.94 156.41,185.29 151.83,186.81
             149.18,187.69 144.61,192.03 141.00,192.45
             135.89,193.06 131.03,186.69 127.58,186.51
             125.19,186.38 116.76,192.45 114.00,194.00
             106.58,188.28 102.55,188.12 105.00,181.00
             107.07,182.11 112.44,185.65 114.42,185.57
             117.79,185.43 122.85,179.90 127.00,179.81
             131.13,179.71 136.79,185.11 139.58,185.51
             142.87,185.97 148.12,180.57 152.00,179.91
             155.87,179.25 162.23,184.16 166.00,186.00
             163.75,181.97 155.92,175.42 151.00,177.07
             148.20,178.01 144.22,181.89 141.00,182.27
             136.38,182.82 131.98,177.11 128.00,176.59
             123.55,176.00 119.35,181.76 115.00,182.27
             112.07,182.62 109.33,180.49 107.00,179.00
             107.00,179.00 137.00,129.00 137.00,129.00
             141.31,130.94 153.92,140.01 155.93,144.04
             157.91,148.02 155.12,151.98 161.11,157.81
             170.89,167.35 179.83,161.57 187.00,163.80
             194.47,166.13 199.50,175.48 206.00,177.44
             209.94,178.63 212.45,175.52 215.00,172.99
             222.17,165.90 224.16,162.50 227.00,153.00
             220.83,152.84 218.42,152.52 217.00,146.00
             227.49,147.72 227.91,136.15 219.91,129.39
             210.80,121.70 201.49,126.20 192.00,130.00
             193.94,120.89 202.19,119.09 210.00,116.00
             202.20,116.24 198.93,118.88 195.00,119.12
             191.67,119.33 189.07,117.13 185.22,120.43
             182.04,123.17 181.67,127.42 180.00,131.00
             176.14,124.19 172.89,116.73 176.57,109.00
             178.28,105.40 181.19,103.17 182.10,101.00
             183.91,97.02 180.27,94.89 182.10,90.01
             183.77,85.28 188.33,83.61 191.91,80.64
             191.91,80.64 197.00,76.00 197.00,76.00
             197.00,76.00 195.00,82.00 195.00,82.00
             201.16,78.14 201.85,77.80 206.00,72.00
             207.39,75.31 208.48,77.47 206.82,81.00
             205.31,84.23 200.93,87.62 202.25,90.68
             203.64,93.91 208.92,91.87 213.00,92.18
             221.04,92.79 227.60,98.55 232.00,90.00
             232.00,90.00 229.00,89.00 229.00,89.00
             235.55,85.77 238.16,93.53 233.00,103.00
             239.50,103.64 242.98,101.29 239.00,94.98
             239.67,94.95 240.45,94.56 241.89,94.98
             250.56,97.30 241.93,109.96 242.64,112.13
             243.47,114.66 246.83,114.68 248.14,112.67
             249.63,110.76 248.65,108.89 248.14,107.00
             252.29,107.26 254.32,109.49 253.57,114.00
             252.86,118.19 249.53,120.38 249.51,123.28
             249.51,123.28 252.86,135.00 252.86,135.00
             254.40,144.36 254.00,152.60 254.00,162.00
             263.82,149.67 258.85,136.89 262.48,128.00
             266.84,117.34 277.78,116.51 282.72,107.00
             286.22,99.66 281.96,89.73 282.72,86.00
             283.67,82.89 292.50,71.96 295.00,68.00 Z
           M 201.00,101.00
           C 198.09,104.98 198.96,107.17 204.00,107.00
             204.00,107.00 201.00,101.00 201.00,101.00 Z
           M 246.00,206.00
           C 246.00,206.00 237.00,207.00 237.00,207.00
             238.18,208.19 238.72,208.38 239.41,210.11
             241.12,214.45 240.26,225.95 238.00,230.00
             238.00,230.00 246.00,229.00 246.00,229.00
             240.91,223.00 242.45,212.40 246.00,206.00 Z
           M 219.77,207.00
           C 219.77,207.00 211.00,208.00 211.00,208.00
             215.26,211.20 219.62,215.44 220.00,221.00
             223.83,222.13 224.97,224.76 227.00,228.00
             227.00,228.00 224.00,230.00 224.00,230.00
             224.00,230.00 235.00,229.00 235.00,229.00
             231.40,226.42 220.58,214.64 219.77,210.42
             219.17,208.95 219.64,208.29 219.77,207.00 Z
           M 233.00,207.00
           C 233.00,207.00 225.00,208.00 225.00,208.00
             225.00,208.00 229.00,210.00 229.00,210.00
             229.00,210.00 233.00,207.00 233.00,207.00 Z
           M 259.00,207.00
           C 259.00,207.00 250.00,207.00 250.00,207.00
             250.00,207.00 261.00,230.00 261.00,230.00
             262.84,226.61 264.23,224.86 263.00,221.00
             263.00,221.00 262.00,225.00 262.00,225.00
             259.31,219.20 255.68,213.08 259.00,207.00 Z
           M 272.00,207.00
           C 272.00,207.00 264.00,208.00 264.00,208.00
             269.20,211.74 263.29,214.69 265.00,221.00
             267.28,214.15 267.18,212.66 272.00,207.00 Z
           M 228.00,211.00
           C 228.00,211.00 226.00,211.00 226.00,211.00
             226.00,211.00 225.00,214.00 225.00,214.00
             225.00,214.00 228.00,211.00 228.00,211.00 Z
           M 220.00,221.00
           C 220.00,221.00 211.00,230.00 211.00,230.00
             211.00,230.00 220.00,229.00 220.00,229.00
             216.84,226.49 218.84,224.36 220.00,221.00 Z" />
</svg>
