<svg id="Layer_0_Image" data-name="Layer 0 Image" xmlns="http://www.w3.org/2000/svg" viewBox="0 0 42 30"><defs><style>.cls-1{fill:#fff;}</style></defs><title>icon_primary</title><rect class="cls-1" x="18.81" y="13.44" width="4.46" height="9.13"/><path class="cls-1" d="M42,5.25,36.75,0l-.07.07V0H5.31V.06l0,0L.09,5.25H0v19.5H.05L5.3,30l0,0v0H36.69v-.07l.07.07L42,24.75h0V5.25ZM34.17,26H7.88l-3.8-3.8V7.89L7.93,4h26.2l3.79,3.79V22.21Z"/><path class="cls-1" d="M21,6.83c-1.19,0-2.15,1.27-2.23,2.87h0V13h4.46V9.65C23.17,8.07,22.22,6.83,21,6.83Z"/></svg>