<svg xmlns="http://www.w3.org/2000/svg" width="56" height="40" viewBox="0 0 56 40">
<title>ammo_special</title>
<path fill="#7af48b" d="M23,9.5c1.5,0,3.5,5,3.5,7l-7,0c0,-2,2,-7,3.5,-7z"/>
<rect fill="#7af48b" width="7" height="11.5" x="19.5" y="18.5"/>
<path fill="#7af48b" d="M33,9.5c1.5,0,3.5,5,3.5,7l-7,0c0,-2,2,-7,3.5,-7z"/>
<rect fill="#7af48b" width="7" height="11.5" x="29.5" y="18.5"/>
<path d="M7,40L0,33L0,7L7,0L49,0L56,7L56,33L49,40ZM9,35L47,35L51,31L51,9L47,5L9,5L5,9L5,31Z" fill="#7af48b"/>
</svg>
