<?xml version="1.0" encoding="utf-8"?>
<!-- Generator: Adobe Illustrator 22.0.1, SVG Export Plug-In . SVG Version: 6.00 Build 0)  -->
<svg version="1.1" id="Layer_0_Image" xmlns="http://www.w3.org/2000/svg" xmlns:xlink="http://www.w3.org/1999/xlink" x="0px"
	 y="0px" viewBox="0 0 42 30" style="enable-background:new 0 0 42 30;" xml:space="preserve">
<style type="text/css">
	.st0{fill:#A981FC;}
</style>
<title>icon_heavy</title>
<path class="st0" d="M42,5.2L36.8,0l-0.1,0.1V0H5.3v0.1l0,0L0.1,5.2H0v19.5h0.1L5.3,30l0,0l0,0h31.4v-0.1l0.1,0.1l5.2-5.3l0,0V5.2z
	 M34.2,26H7.9l-3.8-3.8V7.9L7.9,4h26.2l3.8,3.8v14.4L34.2,26z"/>
<path class="st0" d="M21,6.8c-0.4,0-2.1,1.3-2.2,2.9V13h4.5V9.7l0,0C23.1,8.1,21.4,6.8,21,6.8z"/>
<path class="st0" d="M28.4,6.8c-0.4,0-2.1,1.3-2.2,2.9V13h4.5V9.7l0,0C30.6,8.1,28.9,6.8,28.4,6.8z"/>
<path class="st0" d="M13.5,6.8c-0.4,0-2.1,1.3-2.2,2.9V13h4.5V9.7l0,0C15.7,8.1,13.9,6.8,13.5,6.8z"/>
<rect x="11.3" y="13.6" class="st0" width="4.5" height="8.9"/>
<rect x="18.8" y="13.6" class="st0" width="4.5" height="8.9"/>
<rect x="26.2" y="13.6" class="st0" width="4.5" height="8.9"/>
</svg>
