<svg version="1.1" xmlns="http://www.w3.org/2000/svg" viewBox="0 0 1434 1024">
<path fill="#7af48b" d="M588.8 243.2c38.4 0 89.6 128 89.6 179.2h-179.2c0-51.2 51.2-179.2 89.6-179.2z"></path>
<path fill="#7af48b" d="M499.2 473.6h179.2v294.4h-179.2v-294.4z"></path>
<path fill="#7af48b" d="M844.8 243.2c38.4 0 89.6 128 89.6 179.2h-179.2c0-51.2 51.2-179.2 89.6-179.2z"></path>
<path fill="#7af48b" d="M755.2 473.6h179.2v294.4h-179.2v-294.4z"></path>
<path fill="#7af48b" d="M179.2 1024l-179.2-179.2v-665.6l179.2-179.2h1075.2l179.2 179.2v665.6l-179.2 179.2zM230.4 896h972.8l102.4-102.4v-563.2l-102.4-102.4h-972.8l-102.4 102.4v563.2z"></path>
</svg>
