<svg version="1.1" viewBox="0 0 24.787 24.787" xmlns="http://www.w3.org/2000/svg">
  <path d="m23.049 12.393a10.656 10.656 0 0 1-10.656 10.656 10.656 10.656 0 0 1-10.656-10.656 10.656 10.656 0 0 1 10.656-10.656 10.656 10.656 0 0 1 10.656 10.656z" fill="#fff" fill-opacity=".34"/>
  <path d="m12.394 8.697a3.6962 3.6962 0 0 1 3.6962 3.6962 3.6962 3.6962 0 0 1-3.6962 3.6962m0-11.15a7.4536 7.4536 0 0 0-6.4549 3.7264 7.4536 7.4536 0 0 0 0 7.4538 7.4536 7.4536 0 0 0 6.4549 3.7269v-3.7574a3.6962 3.6962 0 0 1-3.6964-3.6964 3.6962 3.6962 0 0 1 3.6964-3.6959zm0-4.9397c-6.8416 0-12.395 5.551-12.395 12.393 0 6.8416 5.553 12.395 12.395 12.395 6.8416 0 12.393-5.553 12.393-12.395 0-6.8415-5.551-12.393-12.393-12.393zm0 0.5293c6.5556 0 11.863 5.3077 11.863 11.863 0 6.5556-5.3077 11.865-11.863 11.865-6.5556 0-11.865-5.3097-11.865-11.865 0-6.5556 5.3097-11.863 11.865-11.863zm0 0.94334c-6.0281 0-10.922 4.8918-10.922 10.92-3e-6 6.0281 4.8937 10.922 10.922 10.922 6.0281-1e-5 10.92-4.8938 10.92-10.922 0-6.0281-4.8918-10.92-10.92-10.92zm0 0.5293c5.7421 0 10.391 4.6485 10.391 10.391 0 5.7421-4.6485 10.393-10.391 10.393-5.7421 0-10.393-4.6504-10.393-10.393 2e-6 -5.7421 4.6504-10.391 10.393-10.391zm0 1.9374v1.0004a7.4536 7.4536 0 0 1 6.4549 3.7264 7.4536 7.4536 0 0 1 0 7.4538 7.4536 7.4536 0 0 1-6.4549 3.7269v0.99994a8.4536 8.4536 0 0 0 8.4538-8.4538 8.4536 8.4536 0 0 0-8.4538-8.4537z"/>
</svg>