<svg xmlns="http://www.w3.org/2000/svg" viewBox="0 0 341.92 431.25">
  <path d="M93.46,138.56c6.28-6.63,13.94-3.81,22.13-4.73-3.93,6.56-7.34,12.27-10.93,18.28l7.77,9.46c1.06-1.66,15.49-26.63,22.17-37.72,8.26-13.7,12.63-27.6,12.59-47.3l7.61-4.72v5.72c0,16-.06,31.93,0,47.9a33.83,33.83,0,0,1-4.79,18c-7.32,12.25-14.42,24.63-21.79,37.28,4.27,5.26,8.43,10.62,12.85,15.75a19.45,19.45,0,0,1,4.75,12.29c.79,20.6,2.09,64.41,2.16,66.31,0,2.15-2.44,3-4,1.05-7.56-9-15.07-18-23.26-27.77-.13,2.73-.27,4.33-.27,5.93q0,54.63,0,109.26c0,7.31.11,14.63.41,21.94.69,17.27,8,31.23,21.35,42.16a47,47,0,0,0,4.23,3.59c-2.55,0-3.8-.06-5.38-.85-17.64-8.83-29.72-22.56-36-41.28a59.62,59.62,0,0,1-3.21-19.06c0-12.48-.07-40.7-.07-42.81-1.7.57-20.65,8.26-28.9,11.73a30.72,30.72,0,0,0-15.66,14A18.77,18.77,0,0,1,48,361.83a70.45,70.45,0,0,1,5.87-15A37.68,37.68,0,0,1,70,330.35c5.53-3,11-6.14,16.66-9,8.06-4,11.91-11.24,14.9-19.15.28-.75.28-50.34-.39-74.64-2.53,4.13-5.06,8.26-7.83,12.8L76,224.71l12-20.86-8.66-10.26c-1.2,1.74-14.61,23-20.17,32.45-4.87,8.27-12,12-21.45,12-5,0-10,0-15.19,0a5.19,5.19,0,0,1,4.94-4.81c6.64-.86,11.08-4.63,14.46-10.22,8.58-14.21,17.34-28.31,26.26-42.84-3.51-4.27-14.52-17.48-16.37-19.83A26.65,26.65,0,0,1,46,142.71a4.79,4.79,0,0,1,.23-1.46c.09-.23.32-.68.76-.67a1.23,1.23,0,0,1,1,.89c1.39,6.84,6,11.73,10.24,16.82S67,168.73,71.7,174.38l18-29.22L47.72,94.1,47,89.71,5.86,39.62C2.45,35.45-.14,30.92,0,25Zm34.18,100.61c2.58-.79,2.36-3.73,2.28-5.68-.27-6.79-.4-13.58-.95-20.35-.56-7-3.9-12.61-9.4-17.45-4.25,7.27-8.23,14.11-12.39,21.22,5.84,7,11.62,14,17.53,20.93C125.42,238.68,126.7,239.46,127.64,239.17ZM91.43,198.05c5.92-10.18,11.48-19.77,17.26-29.73-2.66-3.18-5.22-6.26-8.12-9.74-6.19,10.08-12,19.52-17.82,29Z"/>
  <path d="M162.94.35,169.68,0V340.37s-2.21-4.36-3.08-6.58c-3-7.53-3.71-15.3-3.7-23.38C163,209.61,162.94,3.4,162.94.35Z"/>
  <path d="M91.21,244.35c-5.48,9.37-10.61,18.28-15.89,27.1-3.68,6.14-9.14,9.54-16.39,9.61-10.11.09-20.23,0-31.16,0l3.28-5.52,6.05-1.13a24.27,24.27,0,0,0,17.43-12.76c5.33-9.56,18.18-31.21,19.28-33Z"/>
  <path d="M31.08,51.46C27.51,47.35,7.06,23.05.36,15V6.41C1.73,8,18.09,27.27,25.51,36.2c4.69,5.65,5,8.3,5.46,15.36Z"/>
  <polygon points="30.97 51.56 31.26 51.53 31.08 51.46 30.97 51.56"/>
  <polygon points="310.8 51.43 310.63 51.51 310.9 51.53 310.8 51.43"/>
  <path d="M341.91,25c.15,6-2.44,10.48-5.85,14.65L294.92,89.71l-.72,4.39-41.94,51.06,18,29.22c4.74-5.65,9.1-10.88,13.47-16.09s8.84-10,10.24-16.82a1.23,1.23,0,0,1,1-.89c.44,0,.67.44.76.67a5.12,5.12,0,0,1,.23,1.46,26.65,26.65,0,0,1-5.79,17.59c-1.85,2.35-12.86,15.56-16.37,19.83C282.65,194.66,291.4,208.76,300,223c3.38,5.59,7.82,9.36,14.46,10.22a5.2,5.2,0,0,1,4.94,4.81c-5.23,0-10.21,0-15.19,0-9.41.06-16.58-3.69-21.45-12-5.56-9.44-19-30.71-20.17-32.45-3,3.59-5.79,6.85-8.66,10.26,4,7,7.93,13.83,12,20.86L248.59,240.4c-2.77-4.54-5.3-8.67-7.83-12.8-.67,24.3-.67,73.89-.39,74.64,3,7.91,6.84,15.11,14.9,19.15,5.64,2.82,11.13,5.93,16.66,9a37.73,37.73,0,0,1,16.14,16.48,70.45,70.45,0,0,1,5.87,15,18.77,18.77,0,0,1-9.29-8.85A30.72,30.72,0,0,0,269,339c-8.25-3.47-27.2-11.16-28.9-11.73,0,2.11-.08,30.33-.08,42.81a59.33,59.33,0,0,1-3.2,19.06c-6.27,18.72-18.35,32.45-36,41.28-1.58.79-2.83.84-5.38.85a47,47,0,0,0,4.23-3.59C213,416.73,220.33,402.77,221,385.5c.3-7.31.4-14.63.4-21.94q.06-54.63,0-109.26c0-1.6-.14-3.2-.27-5.93-8.19,9.79-15.7,18.75-23.26,27.77-1.55,2-4,1.1-4-1.05.07-1.9,1.37-45.71,2.16-66.31a19.39,19.39,0,0,1,4.75-12.29c4.42-5.13,8.58-10.49,12.85-15.75-7.38-12.65-14.48-25-21.79-37.28a33.83,33.83,0,0,1-4.79-18c.09-16,0-31.93,0-47.9V71.83l7.61,4.72c0,19.7,4.32,33.6,12.59,47.3,6.68,11.09,21.11,36.06,22.17,37.72l7.77-9.46c-3.59-6-7-11.72-10.93-18.28,8.19.92,15.85-1.9,22.13,4.73ZM217.21,237.84c5.91-6.9,11.69-13.92,17.52-20.93-4.15-7.11-8.13-13.95-12.38-21.22-5.5,4.84-8.84,10.47-9.41,17.45-.54,6.77-.67,13.56-.94,20.35-.08,1.95-.3,4.89,2.28,5.68C215.21,239.46,216.49,238.68,217.21,237.84Zm42-50.21c-5.85-9.53-11.63-19-17.82-29l-8.12,9.74,17.25,29.73Z"/>
  <path d="M179,.35,172.24,0V340.37s2.21-4.36,3.08-6.58c3-7.53,3.71-15.3,3.7-23.38C178.91,209.61,179,3.4,179,.35Z"/>
  <path d="M250.71,244.35c5.48,9.37,10.61,18.28,15.89,27.1,3.67,6.14,9.14,9.54,16.38,9.61,10.12.09,20.24,0,31.17,0l-3.28-5.52-6.05-1.13a24.27,24.27,0,0,1-17.43-12.76c-5.33-9.56-18.18-31.21-19.28-33Z"/>
  <path d="M310.84,51.46c3.57-4.11,24-28.41,30.72-36.5V6.41C340.19,8,323.83,27.27,316.41,36.2c-4.69,5.65-5.05,8.3-5.46,15.36Z"/>
  <polygon points="310.95 51.56 310.66 51.53 310.84 51.46 310.95 51.56"/>
</svg>