<svg width="60" height="62" viewBox="0 0 60 62" fill="none" xmlns="http://www.w3.org/2000/svg">
<path d="M25.961 44.2313H34.0184C34.5215 44.2363 35.0195 44.1312 35.4776 43.9233C35.9357 43.7154 36.3428 43.4097 36.6702 43.0278L41.6067 36.7586C41.9521 36.3714 42.1986 35.9063 42.3253 35.4031C42.452 34.8999 42.4551 34.3735 42.3342 33.8688L40.1856 24.4787V16.8701C40.164 16.3646 40.2617 15.8612 40.4707 15.4005C40.6798 14.9398 40.9944 14.5348 41.3891 14.2183L47.2911 9.64218C48.1002 8.92144 48.8617 8.99623 49.5825 9.88017L56.4568 18.5631C57.1866 19.3655 57.1073 20.127 56.2188 20.8478L47.4134 27.8377C47.2759 27.9122 47.1664 28.0295 47.1014 28.1718C47.0364 28.3141 47.0194 28.4736 47.0531 28.6264C47.1074 28.7767 47.2047 28.9077 47.3328 29.0032C47.4609 29.0987 47.6143 29.1545 47.7738 29.1636L58.653 31.6998C58.8765 31.729 59.0902 31.8091 59.2776 31.9341C59.4651 32.0591 59.6213 32.2255 59.7342 32.4205C59.9643 32.7766 60.0495 33.2072 59.9721 33.6241C58.2859 40.9358 57.4042 44.7526 57.3271 45.0744C57.1639 45.7136 56.5588 45.9176 55.5185 45.6796L44.5237 43.2658C44.1225 43.1026 43.8437 43.1434 43.6805 43.3882C43.599 43.536 43.5562 43.7021 43.5562 43.8709C43.5562 44.0397 43.599 44.2058 43.6805 44.3537L48.5014 54.4713C48.6278 54.654 48.7099 54.8636 48.7411 55.0835C48.7723 55.3034 48.7518 55.5276 48.6811 55.7382C48.6105 55.9488 48.4917 56.14 48.3342 56.2966C48.1767 56.4532 47.9848 56.5709 47.7738 56.6404C41.0287 59.8588 37.4952 61.5474 37.1734 61.706C36.609 62.0256 36.0855 61.6652 35.6027 60.6181L30.6595 50.616C30.5031 50.2149 30.2787 50.0177 29.9795 50.0177C29.6803 50.0177 29.4355 50.2149 29.1976 50.616L24.3971 60.6181C23.9143 61.6652 23.3908 62.0256 22.8264 61.706L12.26 56.6404C12.0489 56.5705 11.8559 56.4548 11.6948 56.3016C11.5336 56.1485 11.4083 55.9616 11.3277 55.7544C11.2472 55.5472 11.2134 55.3247 11.2288 55.1029C11.2442 54.8811 11.3084 54.6654 11.4168 54.4713L16.3397 44.3537C16.4212 44.2058 16.464 44.0397 16.464 43.8709C16.464 43.7021 16.4212 43.536 16.3397 43.3882C16.1833 43.1434 15.8569 43.1026 15.3742 43.2658L4.50854 45.6796C3.46822 45.9176 2.86306 45.6796 2.69987 45.0744L0.020867 33.6241C-0.0465677 33.2028 0.0508352 32.7718 0.292847 32.4205C0.390784 32.2367 0.528113 32.0768 0.695021 31.9522C0.861929 31.8276 1.0543 31.7414 1.25838 31.6998L12.26 29.1636C12.4123 29.1469 12.5569 29.0877 12.6772 28.9927C12.7974 28.8977 12.8885 28.7708 12.9399 28.6264C13.0215 28.3408 12.8583 28.0825 12.4572 27.8377L3.7878 20.8478C2.90386 20.127 2.82227 19.3655 3.54301 18.5631L10.4173 9.88017C11.1381 8.99623 11.8996 8.92144 12.702 9.64218L18.4883 14.2183C18.9128 14.5148 19.2564 14.9127 19.4879 15.3758C19.7195 15.8389 19.8317 16.3526 19.8142 16.8701V24.4787L17.6452 33.8688C17.5252 34.374 17.5294 34.9007 17.6573 35.404C17.7851 35.9072 18.033 36.372 18.3795 36.7586L23.316 43.0278C23.6318 43.4215 24.0357 43.7355 24.4952 43.9445C24.9546 44.1536 25.4567 44.2518 25.961 44.2313ZM22.8264 1.68676C22.8204 1.46381 22.8601 1.24199 22.9431 1.03499C23.0262 0.827993 23.1507 0.640213 23.3092 0.483244C23.4488 0.333865 23.6171 0.214134 23.804 0.131193C23.9909 0.048251 24.1926 0.00379621 24.3971 0.000478957H35.4803C35.7042 -0.00490152 35.9268 0.0350978 36.1348 0.118067C36.3429 0.201035 36.5319 0.325256 36.6906 0.483244C36.8491 0.640213 36.9736 0.827993 37.0567 1.03499C37.1397 1.24199 37.1794 1.46381 37.1734 1.68676V36.1535C37.1709 36.3581 37.1267 36.56 37.0438 36.747C36.9608 36.934 36.8406 37.1022 36.6906 37.2414C36.5319 37.3994 36.3429 37.5236 36.1348 37.6066C35.9268 37.6895 35.7042 37.7295 35.4803 37.7242H24.3971C23.9869 37.7044 23.5988 37.5325 23.3084 37.2421C23.0181 36.9518 22.8462 36.5637 22.8264 36.1535V1.68676Z" fill="#58CCFF"/>
</svg>
