<svg clip-rule="evenodd" fill-rule="evenodd" stroke-linecap="round" stroke-miterlimit="1.5" viewBox="0 0 32 32" xmlns="http://www.w3.org/2000/svg"><path d="m7.479 11.46 8.532-4.98 8.532 4.98v9.055l-8.532 5.005-8.532-5.005z" stroke="#000" stroke-width="1.58"/><path d="m15.32 15.988-7.841-4.528v9.055zm1.382 0 7.841 4.527v-9.055zm7.125-4.946-7.782-4.562-7.816 4.542 7.816 4.513zm-.021 9.905-7.761-4.481-7.796 4.501 7.796 4.553z" fill="#fff" fill-rule="nonzero"/><path d="m38.723 23.017 6.375-10.236-2.381-3.798-8.775 14.034zm5.26 0 3.76-6.018-2.387-3.807-6.143 9.825zm6.879-10.202 6.429 10.202h4.767l-8.8-14.034zm-6.378 10.202h7.032l-3.521-5.616zm6.143-9.825-2.376 3.799 3.78 6.026h4.756zm-5.015-.403 2.381-3.806 2.381 3.806-2.375 3.8z" fill="none" stroke="#000" stroke-miterlimit="8" stroke-width="1.58"/><path d="m38.723 23.017 6.375-10.236-2.381-3.798-8.775 14.034zm5.26 0 3.76-6.018-2.387-3.807-6.143 9.825zm6.879-10.202 6.429 10.202h4.767l-8.8-14.034zm-6.378 10.202h7.032l-3.521-5.616zm6.143-9.825-2.376 3.799 3.78 6.026h4.756zm-5.015-.403 2.381-3.806 2.381 3.806-2.375 3.8z" fill="#fff"/></svg>