<svg clip-rule="evenodd" fill-rule="evenodd" stroke-linecap="round" stroke-miterlimit="8" viewBox="0 0 32 32" xmlns="http://www.w3.org/2000/svg"><path d="m-25.277 23.017 6.375-10.236-2.381-3.798-8.775 14.034zm5.26 0 3.76-6.018-2.387-3.807-6.143 9.825zm6.879-10.202 6.429 10.202h4.767l-8.8-14.034zm-6.378 10.202h7.032l-3.521-5.616zm6.143-9.825-2.376 3.799 3.78 6.026h4.756zm-5.015-.403 2.381-3.806 2.381 3.806-2.375 3.8z" fill="none" stroke="#000" stroke-width="1.58"/><path d="m-25.277 23.017 6.375-10.236-2.381-3.798-8.775 14.034zm5.26 0 3.76-6.018-2.387-3.807-6.143 9.825zm6.879-10.202 6.429 10.202h4.767l-8.8-14.034zm-6.378 10.202h7.032l-3.521-5.616zm6.143-9.825-2.376 3.799 3.78 6.026h4.756zm-5.015-.403 2.381-3.806 2.381 3.806-2.375 3.8z" fill="#fff"/><path d="m11.857 12.696 4.132-.015-4.134 6.219 4.134-.014-4.41 6.634h-4.192l4.186-6.204h-4.186l4.184-6.202h-4.184l4.467-6.62 4.135-.014zm8.264 0-4.132-6.216 4.136.014 4.466 6.62h-4.184l4.184 6.202h-4.186l4.186 6.204h-4.192l-4.41-6.634 4.134.014-4.134-6.219z" fill="none" stroke="#000" stroke-miterlimit="6" stroke-width="1.58"/><path d="m11.857 12.696 4.132-.015-4.134 6.219 4.134-.014-4.41 6.634h-4.192l4.186-6.204h-4.186l4.184-6.202h-4.184l4.467-6.62 4.135-.014zm8.264 0-4.132-6.216 4.136.014 4.466 6.62h-4.184l4.184 6.202h-4.186l4.186 6.204h-4.192l-4.41-6.634 4.134.014-4.134-6.219z" fill="#fff"/></svg>