<svg clip-rule="evenodd" fill-rule="evenodd" stroke-linecap="round" stroke-miterlimit="8" viewBox="0 0 32 32" xmlns="http://www.w3.org/2000/svg"><path d="m6.723 23.017 6.375-10.236-2.381-3.798-8.775 14.034zm5.26 0 3.76-6.018-2.387-3.807-6.143 9.825zm6.879-10.202 6.429 10.202h4.767l-8.8-14.034zm-6.378 10.202h7.032l-3.521-5.616zm6.143-9.825-2.376 3.799 3.78 6.026h4.756zm-5.015-.403 2.381-3.806 2.381 3.806-2.375 3.8z" fill="none" stroke="#000" stroke-width="1.58"/><path d="m6.723 23.017 6.375-10.236-2.381-3.798-8.775 14.034zm5.26 0 3.76-6.018-2.387-3.807-6.143 9.825zm6.879-10.202 6.429 10.202h4.767l-8.8-14.034zm-6.378 10.202h7.032l-3.521-5.616zm6.143-9.825-2.376 3.799 3.78 6.026h4.756zm-5.015-.403 2.381-3.806 2.381 3.806-2.375 3.8z" fill="#fff"/></svg>