<svg version="1.1" xmlns="http://www.w3.org/2000/svg" width="78" height="118" viewBox="0 0 78 118">
<g>
	<rect x="4" y="8" class="st0" width="70" height="2"/>
	<rect x="4" y="4" class="st0" width="70" height="2"/>
	<polygon class="st0" points="36.23,44.82 23.78,35.15 11.32,44.83 23.78,54.39 	"/>
	<polygon class="st0" points="36.23,68.27 31.37,64.49 23.78,70.31 16.19,64.49 11.32,68.28 23.78,77.83 	"/>
	<polygon class="st0" points="51.46,27.87 39,18.19 26.54,27.88 39,37.44 	"/>
	<path class="st0" d="M4,92l35,21l35-21V13H4V92z M9.69,68.28l5.68-4.42l-5.68-4.36V44.84l14.09-10.95l14.07,10.93h0.01V43.5
		L24.91,33.44v-5.55L39,16.94l14.09,10.94v5.56L40.13,43.51v1.33l14.09-10.95l14.09,10.94V59.5l-5.68,4.36l5.68,4.41v14.67
		L54.22,93.76L40.13,82.95V68.28l5.68-4.42l-5.68-4.36v-7.02L39,53.36l-1.13-0.87v-0.03h0v7.03l-5.68,4.36l5.68,4.41v14.67
		L23.78,93.76L9.69,82.95V68.28z"/>
	<polygon class="st0" points="54.22,70.31 46.63,64.49 41.77,68.28 54.22,77.83 66.68,68.27 61.81,64.49 	"/>
	<polygon class="st0" points="66.68,44.82 54.22,35.15 41.77,44.83 54.22,54.39 	"/>
</g>
</svg>
