<svg id="Rectangle_1_copy_Image" data-name="Rectangle 1 copy Image" xmlns="http://www.w3.org/2000/svg" viewBox="0 0 78 118"><defs><style>.cls-1{fill:#fff;}</style></defs><title>icon_collection_white</title><path class="cls-1" d="M415.06,215.2h0L401.18,226l13.87,10.65L428.92,226Zm15.19,40.69v0Zm8.41,7.25-8.4,6.45v-13h0v13l-8.41-6.45-5.38,4.18,13.79,10.58h0L444,267.31Zm-30.5,0-8.4,6.45v-13h0v13l-8.4-6.45L386,267.32l13.79,10.58h0l13.79-10.59Zm22-30.53h0l-13.73,10.54,13.79,10.58h0L444,243.19,430.19,232.6Zm-30.44-.18h0L386,243.15l13.79,10.58v2.16h0v-2.16l13.79-10.59-13.79-10.71ZM376,314h0q0-59,0-118Zm72.8-107.48v-1H381.2v1ZM454,196q0,59,0,118V196Zm-4.64,19.21c0-1.45-.19-2.91-.31-4.64H381.33a6.75,6.75,0,0,0-.53,1.48c0,24.49-.1,49,0,73.46a6,6,0,0,0,2.53,4.18c9.41,6,19,11.66,28.43,17.62,2.49,1.58,4.35,1.43,6.77-.1q13.5-8.53,27.24-16.67c2.6-1.54,3.56-3.28,3.54-6.35C449.25,261.19,449.35,238.2,449.36,215.21ZM444.49,267v.72h0v15.14l-14.25,10.94v0L416,282.82V267h0l5.38-4.18L416,258.65v-6.23l-1,.78h0l-1-.77v6.22l-5.38,4.13L414,267v.72h0v15.14l-14.25,10.94v0L385.5,282.82V267h0l5.38-4.18-5.38-4.13V242.79h0l14.25-11.07h0L414,242.77V242l-13.2-10.14,0-6.13h0v-.13l14.25-11.07h0l14.25,11.07v.72h0l0,5.55L416,242v.75l14.15-10.87h0l14.2,10.89v.08l.11-.08v15.86l-5.38,4.13Zm4.31-65.47H381.19v1.07H448.8Z" transform="translate(-376 -196)"/></svg>