<!-- Generated by IcoMoon.io -->
<svg version="1.1" xmlns="http://www.w3.org/2000/svg" width="32" height="32" viewBox="0 0 32 32">
<title>damage_arc</title>
<path fill="#79bbe7" d="M15.012 31.479c0-1.915 0-3.715 0-5.516 0-1.334-0.138-1.427-1.283-0.797q-3.851 2.118-7.691 4.248c-0.73 0.403-1.537 0.546-2.349 0.656-1.202 0.164-2.404 0.321-3.689 0.281 0.156-0.314 0.437-0.437 0.63-0.63 1.144-1.093 2.311-2.166 3.451-3.265 1.796-1.731 3.573-3.48 5.367-5.213 0.252-0.244 0.201-0.35-0.085-0.499-2-1.041-3.934-2.215-5.99-3.14-1.187-0.533-2.025-1.422-2.75-2.477 0.219-0.129 0.401-0.078 0.575-0.079 1.73 0 3.459 0.008 5.189 0 0.941 0 1.072-0.209 0.632-1.016-1.42-2.602-2.841-5.207-4.299-7.787-0.453-0.803-0.622-1.663-0.744-2.543-0.166-1.195-0.335-2.394-0.261-3.691 0.565 0.592 1.080 1.121 1.583 1.661q3.704 3.975 7.521 7.839c0.313 0.317 0.414 0.232 0.589-0.109 1.058-2.052 2.257-4.030 3.224-6.132 0.502-1.093 1.42-1.802 2.362-2.504 0.141 0.21 0.085 0.394 0.085 0.567 0 1.748 0 3.497 0 5.245 0 0.958 0.165 1.068 0.998 0.612q3.927-2.145 7.839-4.319c0.734-0.411 1.53-0.583 2.334-0.692 1.007-0.134 2.021-0.219 3.034-0.313 0.209-0.020 0.422 0 0.716 0-0.276 0.463-0.629 0.72-0.938 1.007q-4.216 3.927-8.312 7.976c-0.355 0.353-0.32 0.493 0.109 0.718 2.032 1.058 3.995 2.247 6.083 3.199 0.99 0.45 1.679 1.26 2.323 2.104 0.061 0.080 0.167 0.174 0.096 0.287s-0.233 0.072-0.352 0.072q-2.596 0-5.19 0c-0.2 0-0.4 0.008-0.601 0.010-0.445 0-0.557 0.229-0.364 0.599q0.682 1.311 1.393 2.596c1.061 1.929 2.136 3.848 3.192 5.78 0.546 0.999 0.606 2.123 0.752 3.217 0.092 0.593 0.145 1.278 0.145 1.974 0 0.196-0.004 0.391-0.012 0.585l0.001-0.028c-0.437-0.375-0.957-0.776-1.42-1.241-0.817-0.828-1.583-1.708-2.392-2.545-1.748-1.807-3.51-3.596-5.252-5.405-0.295-0.305-0.437-0.328-0.656 0.081-1.021 1.967-2.178 3.867-3.087 5.9-0.505 1.145-1.394 1.953-2.505 2.726zM16.020 13.082c-0.096 0.082-0.182 0.144-0.257 0.219-0.838 0.836-1.667 1.681-2.513 2.505-0.252 0.244-0.203 0.4 0.023 0.621q1.23 1.202 2.432 2.434c0.219 0.226 0.363 0.276 0.61 0.021 0.822-0.852 1.663-1.684 2.513-2.513 0.192-0.189 0.231-0.307 0.014-0.517-0.862-0.837-1.705-1.695-2.555-2.544-0.082-0.070-0.166-0.134-0.268-0.223z"></path>
</svg>
