<svg version="1.1" xmlns="http://www.w3.org/2000/svg" width="32" height="32" viewBox="0 0 32 32">
<title>damage_void</title>
<g>
	<path class="st0" fill="#A371C2" d="M16,0C7.16,0,0,7.16,0,16s7.16,16,16,16c8.84,0,16-7.16,16-16S24.84,0,16,0z M10.74,3.18
		c0.88-0.4,1.81-0.68,2.78-0.84c0.96-0.18,1.89-0.23,2.87-0.23c0.97,0.02,1.96,0.16,2.93,0.43c0.96,0.27,1.93,0.74,2.73,1.28
		c1.64,1.08,3.05,2.54,4,4.28c0.96,1.75,1.4,3.71,1.42,5.61c0.02,1.9-0.32,3.8-1.12,5.53c-0.42,0.85-0.95,1.65-1.61,2.31
		c-0.67,0.66-1.48,1.16-2.34,1.43c0.73-0.52,1.34-1.16,1.8-1.87c0.45-0.72,0.79-1.49,0.99-2.31c0.45-1.61,0.48-3.32,0.29-4.96
		c-0.2-1.64-0.69-3.2-1.52-4.53c-0.82-1.34-1.97-2.49-3.3-3.35c-0.68-0.45-1.32-0.77-2.07-1c-0.73-0.24-1.51-0.37-2.31-0.43
		c-0.79-0.06-1.65-0.05-2.45,0.04c-0.8,0.08-1.59,0.23-2.37,0.49c-3.13,0.99-5.88,3.29-7.9,6.24C4.62,7.86,7.21,4.75,10.74,3.18z
		 M21.88,16c0,3.25-2.63,5.88-5.88,5.88c-3.25,0-5.88-2.63-5.88-5.88s2.63-5.88,5.88-5.88C19.25,10.12,21.88,12.75,21.88,16z
		 M20.77,28.38c-0.88,0.4-1.81,0.68-2.78,0.84c-0.96,0.18-1.89,0.23-2.87,0.23c-0.97-0.02-1.96-0.16-2.93-0.43
		c-0.96-0.27-1.93-0.74-2.73-1.28c-1.64-1.08-3.05-2.54-4-4.28c-0.96-1.75-1.4-3.71-1.42-5.61c-0.02-1.9,0.32-3.8,1.12-5.53
		c0.42-0.85,0.95-1.65,1.61-2.31c0.67-0.66,1.48-1.16,2.34-1.43c-0.73,0.52-1.34,1.16-1.8,1.87c-0.45,0.72-0.79,1.49-0.99,2.31
		c-0.45,1.61-0.48,3.32-0.29,4.96c0.2,1.64,0.69,3.2,1.52,4.53c0.82,1.34,1.97,2.49,3.3,3.35c0.68,0.45,1.32,0.77,2.07,1
		c0.73,0.24,1.51,0.37,2.31,0.43c0.79,0.06,1.65,0.05,2.45-0.04c0.8-0.08,1.59-0.23,2.37-0.49c3.13-0.99,5.88-3.29,7.9-6.24
		C26.9,23.69,24.31,26.8,20.77,28.38z"/>
</g>
</svg>
