<!-- Generated by IcoMoon.io -->
<svg version="1.1" xmlns="http://www.w3.org/2000/svg" width="32" height="32" viewBox="0 0 32 32">
<title>damage_solar</title>
<path fill="#ef641f" d="M16 0c0.048 0.075 0.251 0.372 0.352 0.538 2.684 4.423 5.587 8.705 8.413 13.036 1.151 1.761 2.203 3.58 2.756 5.642 0.979 3.648 0.121 6.809-2.485 9.516-1.323 1.373-2.845 2.447-4.649 3.099-0.145 0.057-0.314 0.099-0.49 0.119l-0.009 0.001c0.68-0.417 1.267-0.842 1.819-1.307l-0.022 0.018c3.055-2.659 3.664-6.317 1.632-9.829-1.873-3.241-4.007-6.317-6.035-9.46-0.414-0.637-0.816-1.277-1.23-1.925-0.056 0.032-0.115 0.046-0.137 0.082-2.382 3.8-4.994 7.447-7.231 11.336-1.45 2.519-1.648 5.084-0.157 7.663 0.777 1.341 1.892 2.361 3.21 3.161 0.13 0.078 0.294 0.113 0.398 0.311-1.355-0.415-2.533-1.040-3.561-1.845l0.024 0.018c-1.91-1.474-3.438-3.238-4.137-5.604-0.747-2.528-0.303-4.948 0.725-7.301 0.984-2.258 2.415-4.254 3.77-6.29 2.311-3.476 4.58-6.977 6.766-10.532 0.082-0.136 0.204-0.314 0.281-0.446z"></path>
<path fill="#ef641f" d="M16 16.597c0.807 1.366 1.562 2.633 2.306 3.906 0.644 1.1 1.312 2.187 1.854 3.342 0.943 2.013 0.371 4.083-1.49 5.489-1.707 1.29-3.881 1.228-5.522-0.158-1.808-1.524-2.237-3.572-1.133-5.66 1.209-2.286 2.569-4.483 3.881-6.709 0.027-0.044 0.046-0.092 0.104-0.21z"></path>
</svg>
