<!-- Generated by IcoMoon.io -->
<svg version="1.1" xmlns="http://www.w3.org/2000/svg" width="32" height="32" viewBox="0 0 32 32">
<title>damage_void</title>
<path fill="#a371c2" d="M16 32c-8.837 0-16-7.163-16-16v0 0 0c0-8.837 7.163-16 16-16s16 7.163 16 16c0 8.837-7.163 16-16 16v0zM21.74 23.37c3.501-1.634 5.884-5.124 5.884-9.172 0-0.458-0.030-0.909-0.090-1.35l0.006 0.052c-0.512-3.477-2.44-6.424-5.168-8.283l-0.042-0.027c-1.896-1.469-4.309-2.355-6.928-2.355-0.569 0-1.127 0.042-1.673 0.122l0.062-0.007c-4.514 0.629-8.248 3.468-10.116 7.371l-0.034 0.079c-0.581 1.092-1 2.364-1.183 3.711l-0.007 0.059v0.060c0.633-2.269 1.773-4.222 3.294-5.804l-0.004 0.004c5.060-5.22 13-5 17.53 0.42 1.555 1.806 2.502 4.173 2.502 6.762 0 1.789-0.452 3.473-1.249 4.943l0.027-0.055c-0.75 1.343-1.728 2.468-2.894 3.361l-0.026 0.019s-0.29 0.18-0.29 0.18l0.37-0.090zM16.24 22c3.314-0 6-2.686 6-6s-2.686-6-6-6-6 2.686-6 6c0 0.018 0 0.035 0 0.053l-0-0.003c0.028 3.292 2.704 5.95 6 5.95 0 0 0 0 0 0v0zM29.51 18.55c-0.060 0.16-0.11 0.33-0.17 0.5-0.849 2.729-2.513 4.998-4.703 6.585l-0.037 0.025c-1.896 1.454-4.303 2.331-6.914 2.331-4.066 0-7.635-2.124-9.659-5.324l-0.028-0.047c-2.34-3.78-2.53-7.68-0.11-11.54 0.715-1.111 1.615-2.037 2.667-2.759l0.033-0.021c-0.030-0.005-0.064-0.008-0.099-0.008-0.133 0-0.255 0.045-0.353 0.119l0.001-0.001c-3.453 1.554-5.813 4.965-5.813 8.926 0 0.082 0.001 0.164 0.003 0.246l-0-0.012c-0 0.012-0 0.027-0 0.042 0 3.659 1.706 6.92 4.366 9.030l0.024 0.018c2.115 1.942 4.947 3.132 8.058 3.132 0.811 0 1.603-0.081 2.369-0.235l-0.076 0.013c3.9-0.742 7.115-3.18 8.897-6.502l0.033-0.068c0.756-1.268 1.29-2.758 1.503-4.35l0.007-0.060v-0.060z"></path>
</svg>
