<svg xmlns="http://www.w3.org/2000/svg" viewBox="0 0 427.33 328.21"><g id="Layer_2" data-name="Layer 2"><g id="Layer_1-2" data-name="Layer 1"><path d="M407.18,159.89c-9.33-15.24-18.82-30.38-28.2-45.59-2.52-4.08-4.94-8.23-7.3-12.42-3.5-6.21-13.94-23.77-13.94-23.77l-8-3.6-12.85,7.73L324,74.45l-13,8c-4.2-2.66-8.38-5.29-12.81-8.08-4.25,2.6-8.83,5.25-13.26,8l-.12-4.49s9.34-5.9,13.38-8.57L311,77.65c4.62-2.91,8.81-5.46,13.08-8.15,4.44,3.12,8.73,5.21,12.73,8,4.31-3,8.49-5.16,12.52-8,1.83,1,4.76,2.72,6.2,3.48l-5.17-9c-4.26,2.63-9.33,5.64-13.4,8.15l-13.11-7.71L311,72.21l-12.71-7.82-13.5,7.88c0-2.25-.05-4.39-.05-4.39s9.51-6,13.54-8.67c4.35,2.9,8.57,5.54,12.55,8.2l13.36-8.2L337,67.62c3.69-2.51,7.82-5.06,11.37-7.48L346,56.34c-3.11,1.74-5.74,3.84-8.91,5.6-4.32-2.55-8.82-5.3-13.19-7.87-4.38,2.57-8.62,5.08-12.93,7.62l-12.89-7.55c-4.49,2.58-8.86,5.44-13.48,8.08-.15-1.7,0-3.25-.09-4.3L298,49c4.65,2.93,8.83,5.48,13.07,8.15,2.4-1.77,10.87-6.89,13-8.14L337,57.21l6.61-4.43C326.13,30.44,304.53,13.84,280,0L266.48,18.22c2.48,5.53,1.95,11.55,1.89,17.49a8.87,8.87,0,0,1-.86,3.31c-2.35,5.49-6.85,8.84-11.84,11.64a19,19,0,0,0-10.13,16.56A104.91,104.91,0,0,1,244.31,82c-.92,4.9-2.16,9.85-5.44,13.91-1.71-.94-1.45-2.37-1.45-3.67,0-4.83-.07-9.66,0-14.5a62.5,62.5,0,0,0-1.72-13.19c-.62-3-3.13-6.53-3.85-10,2.88-3.95,6.72-8.94,4.62-13.27a6.89,6.89,0,0,0-2.22-2.74c.75,5.35-.93,7.38-2.94,8.33a4.19,4.19,0,0,1-3.92-.25,7.85,7.85,0,0,1-2.67-2.85c1.61-2.89,3.58-5.77,4.25-8.32s.78-4,0-5.62-1.94-3.28-4.7-3.37c1.4,2.22,2.88,4.74,1.8,6.4-2,3.09-5.57,4.32-9.43,1.28,4.05-9,3.7-12.1-2.27-14.8,1.58,2,2.41,4.22,1.27,5.84-1.81,2.58-4.84,2.57-7.92,1.71-1.75-.48-3.46-1.14-5.23-1.48-4-.76-8-2.05-12.18-.35A5.23,5.23,0,0,1,185,24.4c-1.41-2.93-.35-5.42,1.56-7.7,1.07-1.27,2.46-2.3,3.39-3.65a9.46,9.46,0,0,0,1.38-3.67A4.27,4.27,0,0,0,190.08,6c-2.27,2-4.21,3.69-6.19,5.35-1.77,1.5-3.86,2.71-5.31,4.45-2,2.42-3.69,5.18-3,8.63.15.79.37,1.57.66,2.78-3.16-2-3.48-4.39-2.23-6.82,1.51-2.92,3.52-5.58,5.25-8.39a22.69,22.69,0,0,0,1.27-2.85,42.87,42.87,0,0,1-8.87,7.12c-3.11,2.05-6.47,4.42-5.76,8.68.43,2.59,1.7,4.93,2.77,7.32-3.57,4.63-8.89,7.5-9.23,13.72-.3,5.51.64,10.6,4.57,15.2,1.3-5.9,3.51-12.25,9.88-11.74,1.8.15,3.09,1.11,4.77,1.79a11,11,0,0,1,2.58-1.8c1.34-.45,2.91-.13,4.4-.19a22.48,22.48,0,0,1,2.19-1.82c4.74-1.45,5.46,0,8.35,2.82-2.31.4-4.14-1-6.39-.48-2.55.59-6.19,3.19-8.46,4.85-1.7,1.25-5.24,2.5-4.41,6.69,2.74-1.11,5.12-2.25,7.62-3,2.65-.85,5.34-2,7.91-2,1.56,0,2.78.4,4.07.49,3.21.24,8.23,3.89,11.11,7.36a12.26,12.26,0,0,1,1.49,14.27c-1.25,1.66-2.06,2-3.32,2.13-1.45.2-2.82-.41-4.15-.48.94,5.79,7.94,5.93,9.54,5.8C209.54,98.21,201,105.44,193.05,113a37.65,37.65,0,0,1-14.43-10c-2.57-2.87-5.37-5.48-9.43-6.61-1.79-.25-4-.56-5.71.11-3.73,1.45-7.26.78-10.68-.36-3.9-1.3-8-2.71-10.23-6.61s-4.31-8.27-2.58-13C133.92,71.72,128,67,121.65,62c-10.39,16.7-20.35,33-30.28,49.53l6.53,4.38,13-8.53,13,8.53,13-8.54c4.08,2.69,13.06,8.82,13.06,8.82l.06,4.22c-4.18-2.57-9.11-5.39-13.24-7.93l-12.9,7.95-13.07-8c-4.41,2.73-8.47,5.74-12.7,8.34-2.58-1.5-8.4-5.44-9-5.58-.5,1.07-1.47,2.34-2.13,3.79,3.62,2.46,7.37,4.84,10.84,7.19l13.07-8.34,13,8.27,13-8.32,13.45,8.79v4.2c-4.66-2.68-9.4-5.37-13.61-7.79l-12.89,7.61-6.5-3.82L110.9,123l-6.55,3.85-6.16,3.6L85,122.31s-5.32,8.8-5.35,8.82,3.76-2.09,5.71-2.95l13,8.22c4.21-3.1,8-6.32,12.93-8.3l12.59,8.05,13.21-8.34c4.6,3.19,8.92,5.93,13.28,9-.08,1.09.09,3,0,4.23l-13.49-8c-4.22,2.49-8.71,5.23-13,7.77l-13-7.69-12.76,7.62L85,133.14c-2.27,1.29-8.16,3.63-8.16,3.63S60.67,161.84,55.3,170.58,44.54,188,39.21,196.81C33,207,27,217.25,20.74,227.42,15.05,236.73,9.2,246,3.47,255.24c-1.08,1.75-2.21,3.62-3.47,6,6,.06,11.8.87,17-1,4.64-1.67,9.3-3.64,11.34-9-1.53-2.05-1.06-4.05-.93-6.15.39-6.23,5.32-9.55,10-12a19,19,0,0,0,7.33-6.29q16.62-25,33.43-49.89c2-3,3.79-6.74,7.31-7.86a5.2,5.2,0,0,1,3.84,0c3.74,1.21,5.28,4.71,5.59,8.48l-3.78,2c-.9-2-1.43-5.42-4.16-4.67-1.32.37-1.93,1.8-2.82,3.09-8.37,12.3-16.82,24.56-25,37-8.71,13.28-17.13,26.75-25.64,40.16-1.12,1.78-2.26,3.7-3.44,5.9,6.11.67,12.21,1.05,17.7-1,4.27-1.58,8.7-3.53,10.37-8.25C56.56,244,59.56,238.34,66,233.63c2.85-.39,5.47-2.38,7.58-5,1.43-1.81,2.71-3.74,4-5.66q16.86-25.14,33.73-50.29a8.9,8.9,0,0,1,3.48-3.43,5.07,5.07,0,0,1,4.4-.25c4.92,1.85,5.24,4.3,6,8.88L121.49,179c-1-1.66-.44-3.81-2.87-4s-3.25,2-4.31,3.61c-5.31,8-10.52,16.05-15.8,24.06q-17.17,26.12-34.38,52.22c-1.24,1.89-2.34,3.87-3.85,6.39,6-.15,11.29.72,16.43-1,4.73-1.62,9.51-3.31,11.49-8.64-1.91-4.48,0-8.59,1.5-11.63s5.14-4.43,6.93-6.34c4.1-.8,5.72-3.33,8-6.65q18.24-27.21,36.67-54.28c1.09-1.61,2.19-3.46,3.85-4.21a5.9,5.9,0,0,1,4.73.22c3.67,1.3,4.55,4.93,5.55,8.37l-4.12,2.28c-1.24-1.71-2-4.73-3.94-4.21s-2.91,2.82-4.16,4.73c-7.52,11.49-14.92,23.06-22.44,34.54C111,229.25,90.62,260.07,90.18,261c9.39.82,18.31.77,25.94-6.12,1.18-1.47,1.22-3.75,1.34-6.12.38-7.7,3.48-13.73,11.23-16.37,2.26-.77,3.52-2.32,4.74-4.12q10-14.79,20-29.55c5.55-8.23,11-16.51,16.61-24.71,1.38-2,2.72-4.37,4.71-5.32a5.35,5.35,0,0,1,4.54-.25c3.6,1.13,4.18,5.6,6,8.66l-3.87,2.13c-1-1.09-1.51-5.62-4.24-4.59a3.93,3.93,0,0,0-1.74,1.56c-8.37,12.71-16.69,25.45-25.09,38.14-7,10.62-14.19,21.16-21.22,31.78-3.21,4.85-6.24,9.81-9.63,15.17,3.68,0,6.67.11,9.66,0,7.22-.33,13.6-2.53,18.09-8.66.53-4.4-.73-9,2-13.12s6.59-6.39,11.09-7.64c12.2-16.73,24.52-33.19,36.82-49.67,3.9,3,4.79,4.22,6.24,8.62a163.38,163.38,0,0,1,5.39,19c.92,4.56,3.07,10.9-1.49,13.39-1.6.88-5.72-.51-5.72-.51l0,11.35c6.18-.16,16.61-3.13,16.74-9.67,0-2.19-2.17-3.65-3.46-5.73,2.41-1,4,0,5.33,1.48,3.88,4.3,2.32,8.56-2.06,11.74a31.07,31.07,0,0,1-4.22,2.6c-12,6.12-23.07,13.65-34.29,21a59.44,59.44,0,0,0-11.83,10.9,27.52,27.52,0,0,0-5.9,11.75c-.57,2.36-.78,4.5.28,6.75,2.17,4.58,3.56,9.26.41,14.83,4-2.05,4.59-5.82,7.32-8.17,2.22,3.89,2.42,8.13,2.71,13.24,2-3.95,5.13-9,4.93-9.88s-3-3.59-4.35-5.25c2.1-3.63,1.17-7,.14-10.1.56-2.51,1-4.73,1.55-6.95,0,0,8.09-.41,9.29.67,3.08,2.78-.67,6.15-.65,9.49a6.48,6.48,0,0,0,2,4.13c1.69,1.29,2.89,2.06,5.15,1.15-.08-3.13-.72-6.05-.07-8.65s4-5.58,3.89-7c-.16-1.64-7.65-7.67-5.84-12.62.92-2.55,2.59-3.84,5.33-4.47a5.67,5.67,0,0,0,3.88-2.81,13.39,13.39,0,0,1,2.38-2.55c4.45-4.43,9.4-4.71,13.34-1.27,2.35,2.06,2.16,3.62.63,6.39-1.44-1.55-2.25-3.08-3.9-4-2.95-1.61-5.9.15-7.48,2.46a24.66,24.66,0,0,0-4.55,13.38c-.19,5.88,1.07,11.48,2.42,17.1,1,4,1.88,8,1.67,12.21-.27,5.12,0,10.21-.83,15.36a54.64,54.64,0,0,1-3.7,12.77c-.47,1.14-.9,2.79-1.32,3.87a7.69,7.69,0,0,0,.78-.06,23.52,23.52,0,0,0,19.88-19,12.16,12.16,0,0,0-.27-6.39c-1.72-4.18-1.72-8.44-1.54-12.73.23-5.44,1.68-10.48,6-14.23,3.64-3.17,5.72-7.22,7.16-11.73.57-1.83,1.4-3.57,2.11-5.35,1,7.29-1.8,13.39-6.1,18.72a21.86,21.86,0,0,0-4.1,8.36,21.23,21.23,0,0,0-.76,5.55,28.09,28.09,0,0,0,.7,5.09c1.22,6.85,8.47,12.17,15,10.66,4-.91,8-1.73,11.8-3.58,5.77-2.82,10.72-6.14,11.59-13.05.24-2-1-5.7-1.66-7.9-3.08,3.3-5.48,6.87-8.87,9a8.48,8.48,0,0,1-5.42,1.72,7,7,0,0,1-5.28-2.54c-.9-1.18-1-3-1.17-4.63-.35-4.11,2-7.32,4.16-10.39,2.3-3.22,5.06-6.12,8-9.57V236.44c5.37-2.58,10.63-5,15.78-7.62,4.63-2.36,9.67-3.27,14.64-4.43a4.24,4.24,0,0,1,5.1,2.48c-1.6,4.2-6.7,3.78-9.41,6.91v24.29c6.33-5.25,6.39-5.42,4.73-14.72l3.27-6.36,3.33,4.08c3.29,3.17,7.71,2.46,9.22,5.92v5.81c-4.41.91-4.05,5.06-5.26,7.85s-4.07,6.42-1.19,9.86a8.39,8.39,0,0,0,2.24,2c.87-3.55-.51-7,1.67-9.67,1.92-2.35,3.74-5,7.28-5.25,1.4,10.82,1.56,11.09,7,12.18-.6-1.67-1.17-3.41-1.85-5.09a11,11,0,0,1,1.18-10.45c1.92-2.88,3-5.9,1.78-9.1a11.2,11.2,0,0,0-4.83-5.72,9.4,9.4,0,0,1-4.65-6.25c-.61-3.57-.46-7.35-1.71-11.45a16.31,16.31,0,0,0-1.25-3c-2.25-4.07-5.05-5.22-9.53-3.71a46.28,46.28,0,0,0-5.35,2.48c-1,.51-2,1.4-3.07,1.61-7,1.39-13.93,3.14-21.34,3.51v-9c-3.53,2-6.57,6-11.07,4.7-1.46-.43-2.53-2-4.37-3.19.15-1.73-.22-3.12-.07-4.83,1.86,1.49,3.05,3,4.59,3.42,3.95,1.12,6.31-2.48,7.74-5.72.54-1.22,1.19-2.39,1.76-3.59q8-16.89,15.91-33.78a18.2,18.2,0,0,1,1.56-2.33c3.45,2,4.7,5.08,6.18,8.57v8.7c4.78,7.47,18.09,10.64,27.11,7.81a30.24,30.24,0,0,0-1.79-4c-6.59-10.31-13.18-20.62-19.88-30.85-6.53-10-13.2-19.83-19.82-29.73-2-3-3.76-7.57-7.69-6.78-1.92.39-2.22,2.08-3,3.53-1.39-.6-3.29-1.6-4.31-2,1.25-4,3.21-7.55,6.92-8.75a5.3,5.3,0,0,1,4.06.25,7,7,0,0,1,2.8,2.44c2.64,3.8,5.21,7.64,7.8,11.48L292.31,161c.92,1.37,2,2.62,2.82,3.67,4.65,1.58,8.65,3.21,10.93,7.71,2.2,4.33,2.47,8.86,2.46,13.12,5.19,8.67,19.49,10.11,26.9,7.92-.53-1.06-1-2.12-1.55-3.08q-6.71-11-13.46-22c-4.26-6.9-8.45-13.84-12.87-20.63-5-7.62-10.1-15.12-15.26-22.6-1.19-1.71-2.38-3.78-4-3.71-1.84.08-2.63,2.28-3.74,4.14l-4.41-1.86c1.62-2.88,2.43-5.69,4.37-7.52,3.91-3.67,7.1-2,9.9,2.16,8.26,12.38,16.45,24.81,24.75,37.16,2.21,3.28,4.72,6.36,7,9.46,5.23.61,7.74,4.6,10.37,7.11,2.72,4.83,1.42,9.47,2,13.64,6.45,7.73,17.24,10.39,26.72,7.7.12-2.37-1.61-3.86-2.68-5.68-9.05-15.41-18.28-30.71-28.26-45.54-4-5.9-8-11.8-11.88-17.73-1.11-1.69-2.66-4.59-5-3.12-1.31.83-1.71,2.71-2.86,4.15-1.24-.79-2.53-1.45-3.67-2.18,1.33-3.6,2.72-7.5,6.36-8.57a4.72,4.72,0,0,1,3.89.25c3.09,1.48,4.88,4.86,6.9,7.85,8.16,12.06,16.16,24.22,24.23,36.33,1.84,2.75,3.72,5.44,7,6.68,5,1.85,8.17,5.53,10.1,11.08v8.57c4.7,7.42,17.68,10.64,26.73,8a8.92,8.92,0,0,0-1.66-4.51c-1-1.52-2.16-2.94-3.06-4.52-6.41-11.2-13.18-22.17-20.43-32.85-5.86-8.62-11.63-17.3-17.52-25.91-1.28-1.88-1.91-4.29-4.61-4.13-2.41.14-2.35,2.13-3.57,4l-4.07-2.09c1.36-2.72,2.33-5.13,3.89-7,2.27-2.74,5.8-2.73,8.48-.34a14.36,14.36,0,0,1,2.05,2.78c8.49,12.63,16.93,25.3,25.49,37.88,2.66,3.9,5,7.86,10.14,9.65,6.64,2.31,10.07,11,8.25,18.13,2.08,7.14,17.53,12,27.72,8.83C420.6,182.23,414,171,407.18,159.89ZM185.51,40.34a3.55,3.55,0,0,1-2.95-1.58c-1.1-1.79-.74-4.1,1-6.08,3.28.61,3.5,3.41,4.9,5.82C187.5,39.1,186.78,40.3,185.51,40.34Zm33.37,124c-.2,0-.7,0-1.51-.08-1.15-.07-2.23-.11-3.24-.11-1.72,0-3.36,0-4.91.11-.2,0-.4,0-.59,0-.59,0-.89-.1-.89-.31s.16-.37.48-.37c1.56,0,2.34-.48,2.34-1.45s-1.8-3.89-5.41-8.59a38.49,38.49,0,0,0-3,4q-2.35,3.44-2.36,4.32c0,.42.3.79.89,1.1a5.62,5.62,0,0,0,2.27.59q.69.06.69.36c0,.23-.22.34-.65.34l-.68,0-3.75-.09c-2.21,0-3.73,0-4.55.13-.52,0-.77-.12-.77-.36s.19-.34.57-.34a5.49,5.49,0,0,0,2.29-.46,5.09,5.09,0,0,0,1.75-1.26c.47-.53,1.52-2,3.14-4.24s2.74-3.93,3.36-4.92q-6.33-9.25-7.79-10.44a5.72,5.72,0,0,0-3.32-1.3c-.34,0-.5-.14-.5-.36s.31-.32.92-.32h9.68a3,3,0,0,1,.84.06.31.31,0,0,1,.14.29.29.29,0,0,1-.17.27A5.55,5.55,0,0,1,203,141a2,2,0,0,0-1.07.39,1,1,0,0,0-.44.78,11.51,11.51,0,0,0,1.76,3.25,46.93,46.93,0,0,0,3.3,4.51c.6-.73,1.42-1.82,2.45-3.29a28,28,0,0,0,1.84-2.83,2.55,2.55,0,0,0,.29-1.12,1.37,1.37,0,0,0-.71-1.24,3.21,3.21,0,0,0-1.53-.49c-.53,0-.8-.17-.8-.41s.38-.31,1.15-.31h7.71a4.38,4.38,0,0,1,.95.06.24.24,0,0,1,.17.27c0,.21-.23.33-.7.35a5.6,5.6,0,0,0-3.14,1.14,24.13,24.13,0,0,0-4,4.58q-2.59,3.51-2.89,4.1a101.35,101.35,0,0,0,7.57,10.39q2.21,2.37,4.07,2.45c.44,0,.66.16.66.4S219.34,164.34,218.88,164.34Zm8.42-6.87a30.46,30.46,0,0,0,.33,4.27,2.16,2.16,0,0,0,.7,1.14,3.84,3.84,0,0,0,1.92.63c.3,0,.46.15.46.35s-.15.33-.43.33l-4.57,0-3.89.06c-.43,0-.65-.12-.65-.37s.17-.39.52-.39c1.14,0,1.81-.4,2-1.14a43.69,43.69,0,0,0,.3-7.05c0-3.83,0-6.92-.1-9.29s-.27-3.82-.6-4.35a2.54,2.54,0,0,0-1.88-1c-.34-.06-.52-.2-.52-.42s.13-.33.39-.33l3.36.07,5.14-.07c.62,0,.92.12.93.36s-.17.3-.5.35c-1.36.18-2.21.67-2.55,1.48s-.51,3.8-.51,9q0,2.85.15,6.42Zm28.54-17.19a5.59,5.59,0,0,1,1,.05.24.24,0,0,1,.18.26q0,.33-.72.45a3.21,3.21,0,0,0-2.07,1A12.07,12.07,0,0,0,252.9,144q-.63,1.11-3.39,8.87-1,2.72-4.42,11.74H244c-.57-1.86-1.48-4.38-2.72-7.59l-3.48-9a44.19,44.19,0,0,0-2.25-5.19,4.3,4.3,0,0,0-1.25-1.4,3.93,3.93,0,0,0-1.71-.46c-.31,0-.46-.13-.46-.33s.15-.35.46-.35h9.65c.6,0,.9.1.9.31s-.2.41-.59.41c-1.62,0-2.43.69-2.43,2.08a9.39,9.39,0,0,0,.22,1.58,22,22,0,0,0,.76,2.67c.37,1.06,1.14,3.22,2.34,6.49s2,5.28,2.29,6l3.94-10.92a25.3,25.3,0,0,0,1.7-5.83c0-1.29-.8-2-2.4-2.14-.32,0-.48-.14-.48-.35a.27.27,0,0,1,.18-.27,4.37,4.37,0,0,1,1-.06Z"/></g></g></svg>