<svg version="1.1" id="discipline" xmlns="http://www.w3.org/2000/svg" x="0px" y="0px" viewBox="0 0 51 51">
	<path d="M11.59,34.69c1.12,5.86,5.52,9.31,5.52,9.31h17.25c0,0,4.4-3.45,5.52-9.31H11.59z"/>
	<path d="M11.13,21.92v-9.01c0-0.61,0.25-1.19,0.69-1.62l3.78-3.62C16.05,7.24,16.65,7,17.27,7h17.05
		c0,0,1.9,0.43,1.9,3.06s-1.77,2.93-1.77,2.93H16.39c0,0-2.41,0.47-2.41,2.67S13.97,19.46,11.13,21.92z"/>
	<path d="M35.31,20.73h0.02c0-5.66-3.74-5.66-3.74-5.66H19.9c0,0-3.74,0-3.74,5.66h-0.01c0,0-4.56,3.23-4.56,10.35
		h28.29C39.87,23.49,35.31,20.73,35.31,20.73z M21.85,28.37h-2.59v-2.59h2.59V28.37z M21.85,23.2h-2.59v-2.59h2.59V23.2z
		M27.02,28.37h-2.59v-2.59h2.59V28.37z M27.02,23.2h-2.59v-2.59h2.59V23.2z M32.2,28.37h-2.59v-2.59h2.59V28.37z M32.2,23.2h-2.59
		v-2.59h2.59V23.2z"/>
</svg>
