<svg clip-rule="evenodd" fill-rule="evenodd" stroke-linejoin="round" stroke-miterlimit="2" viewBox="0 0 16 16" xmlns="http://www.w3.org/2000/svg"><path d="m359.395 227.625h8.964v17.085h-8.964z" transform="matrix(.45333330764 0 0 .4577197537 -160.12302974487 -99.07879570934)"/><path d="m359.395 245.984h8.965l-.037 2.441c0 .481-.406.814-.888.814h-7.208c-.482 0-.879-.333-.879-.814l.001-2.395c0-.012.005-.024.013-.033.009-.008.021-.013.033-.013z" transform="matrix(.45281304459 0 0 .41786812747 -159.91527369286 -89.178957954)"/><path d="m363.979 218.311c3.069-.006 4.402 4.285 4.381 7.556h-9.011c-.056-3.304 1.56-7.55 4.63-7.556z" transform="matrix(.45098339465 0 0 .45098339465 -159.25796147791 -97.4324599359)"/><path d="m359.395 227.625h8.964v17.085h-8.964z" transform="matrix(.45333330764 0 0 .4577197537 -153.81058399487 -99.07207795934)"/><path d="m359.395 245.984h8.965l-.037 2.441c0 .481-.406.814-.888.814h-7.208c-.482 0-.879-.333-.879-.814l.001-2.395c0-.012.005-.024.013-.033.009-.008.021-.013.033-.013z" transform="matrix(.45281304459 0 0 .41786812747 -153.60282794286 -89.172240204)"/><path d="m363.979 218.311c3.069-.006 4.402 4.285 4.381 7.556h-9.011c-.056-3.304 1.56-7.55 4.63-7.556z" transform="matrix(.45098339465 0 0 .45098339465 -152.94551572791 -97.4257421859)"/></svg>