<svg version="1.1" id="intellect" xmlns="http://www.w3.org/2000/svg" x="0px" y="0px" viewBox="0 0 51 51">
	<polygon points="25.48,11.14 31.6,17.26 33.67,15.19 25.48,7 17.3,15.19 19.36,17.26"/>
	<polygon points="25.48,39.86 19.36,33.74 17.3,35.81 25.48,44 33.67,35.81 31.6,33.74"/>
	<path d="M34.64,18.1c-1.37,0.54-5.14,2.87-7.75,4.6c-0.04-0.02-0.07-0.04-0.11-0.06c-0.27-3.55-0.85-8.87-1.3-10.52
		c-0.46,1.65-1.04,6.94-1.32,10.5c-0.01,0-0.02,0.01-0.02,0.01c-2.53-1.84-6.19-4.31-7.53-4.91c0.76,1.25,3.69,4.55,5.84,6.82
		c-0.1,0.3-0.16,0.61-0.16,0.95c0,0.29,0.05,0.56,0.12,0.82c-2.25,2.18-5.31,5.36-6.12,6.57c1.36-0.54,5.12-2.86,7.73-4.6
		c0.04,0.02,0.09,0.05,0.13,0.07c0.27,3.55,0.85,8.85,1.29,10.5c0.45-1.65,1.04-6.96,1.32-10.51c0,0,0.01,0,0.01,0
		c2.53,1.84,6.2,4.32,7.54,4.92c-0.77-1.25-3.71-4.58-5.87-6.85c0.09-0.29,0.15-0.6,0.15-0.92c0-0.28-0.05-0.54-0.11-0.8
		C30.75,22.52,33.82,19.33,34.64,18.1z"/>
	<polygon points="13.87,18.61 7.02,25.47 13.77,32.23 15.84,30.16 11.15,25.47 15.94,20.68"/>
	<polygon points="37.23,18.74 35.16,20.81 39.85,25.5 35.06,30.29 37.13,32.35 43.98,25.5"/>
</svg>
