<svg version="1.1" id="Layer_1" xmlns="http://www.w3.org/2000/svg" x="0px" y="0px" viewBox="0 0 51 51">
	<path fill="#FFFFFF" d="M0.5,0.5v50h50v-50H0.5z M49.01,49.01H1.99V1.99h47.03V49.01z"/>
	<path fill="#FFFFFF" style="opacity: .5" d="M1.93,1.93v47.14h47.14V1.93H1.93z M46.69,16.74c-0.12-0.02-0.23-0.04-0.37-0.04c-1.57,0-2.84,1.27-2.84,2.84
		c0,1.57,1.27,2.84,2.84,2.84c0.13,0,0.25-0.02,0.37-0.04v22.71c0,1.31-1.07,2.38-2.38,2.38h-4.34v-0.86h-0.01
		c-0.04-0.88-0.76-1.59-1.65-1.59c-0.89,0-1.61,0.71-1.65,1.59h-0.01v0.86h-1.94v-0.86h-0.01c-0.04-0.88-0.76-1.59-1.65-1.59
		c-0.89,0-1.61,0.71-1.65,1.59h-0.01v0.86h-1.9v-0.86h-0.01c-0.04-0.88-0.76-1.59-1.65-1.59s-1.61,0.71-1.65,1.59h-0.01v0.86h-1.9
		v-0.86h-0.01c-0.04-0.88-0.76-1.59-1.65-1.59c-0.89,0-1.61,0.71-1.65,1.59h-0.01v0.86h-1.81v-0.86H19.2
		c-0.04-0.88-0.76-1.59-1.65-1.59c-0.89,0-1.61,0.71-1.65,1.59H15.9v0.86h-1.81v-0.86h-0.01c-0.04-0.88-0.76-1.59-1.65-1.59
		c-0.89,0-1.61,0.71-1.65,1.59h-0.01v0.86h-4.1c-1.31,0-2.38-1.07-2.38-2.38v-22.7c0.07,0.01,0.13,0.02,0.21,0.02
		c1.57,0,2.84-1.27,2.84-2.84c0-1.57-1.27-2.84-2.84-2.84c-0.08,0-0.14,0.02-0.21,0.02V6.98c0-1.31,1.07-2.38,2.38-2.38h37.62
		c1.31,0,2.38,1.07,2.38,2.38V16.74z"/>
	<path fill="#FFFFFF" d="M25.5,41.12c-0.17,0-0.34,0-0.51-0.01c-0.2-0.01-0.35-0.17-0.35-0.37c0.01-0.2,0.15-0.34,0.37-0.35
		c0.78,0.02,1.57-0.01,2.33-0.11c0.2-0.02,0.37,0.11,0.4,0.31s-0.11,0.37-0.31,0.4C26.8,41.08,26.15,41.12,25.5,41.12z
			M23.22,40.95c-0.02,0-0.04,0-0.05,0c-0.81-0.12-1.61-0.3-2.38-0.55c-0.19-0.06-0.29-0.26-0.23-0.45
		c0.06-0.19,0.26-0.29,0.45-0.23c0.74,0.23,1.51,0.41,2.28,0.52c0.19,0.03,0.33,0.21,0.3,0.41C23.54,40.82,23.39,40.95,23.22,40.95
		z M29.16,40.68c-0.16,0-0.31-0.11-0.35-0.27c-0.05-0.19,0.07-0.38,0.26-0.43c0.75-0.19,1.5-0.43,2.21-0.73
		c0.18-0.08,0.39,0.01,0.47,0.19c0.08,0.18-0.01,0.39-0.19,0.47c-0.75,0.32-1.53,0.57-2.32,0.77
		C29.21,40.67,29.18,40.68,29.16,40.68z M19.21,39.78c-0.05,0-0.1-0.01-0.15-0.03c-0.74-0.33-1.47-0.73-2.15-1.17
		c-0.17-0.11-0.21-0.33-0.1-0.49c0.11-0.17,0.33-0.21,0.49-0.1c0.65,0.43,1.34,0.8,2.05,1.12c0.18,0.08,0.26,0.29,0.18,0.47
		C19.48,39.7,19.35,39.78,19.21,39.78z M33.03,39.13c-0.12,0-0.25-0.07-0.31-0.18c-0.1-0.17-0.04-0.39,0.13-0.49
		c0.68-0.38,1.33-0.82,1.94-1.3c0.15-0.12,0.38-0.1,0.5,0.06c0.12,0.15,0.1,0.38-0.06,0.5c-0.64,0.51-1.32,0.97-2.03,1.37
		C33.15,39.12,33.09,39.13,33.03,39.13z M15.67,37.57c-0.08,0-0.16-0.03-0.23-0.08c-0.62-0.52-1.21-1.1-1.75-1.71
		c-0.13-0.15-0.12-0.37,0.03-0.5c0.15-0.13,0.37-0.12,0.5,0.03c0.51,0.59,1.08,1.13,1.67,1.63c0.15,0.13,0.17,0.35,0.05,0.5
		C15.87,37.52,15.77,37.57,15.67,37.57z M36.35,36.6c-0.09,0-0.18-0.03-0.25-0.1c-0.14-0.14-0.14-0.37,0-0.5
		c0.55-0.55,1.06-1.15,1.52-1.78c0.12-0.16,0.34-0.2,0.5-0.08c0.16,0.12,0.19,0.34,0.08,0.5c-0.48,0.66-1.01,1.29-1.59,1.86
		C36.54,36.57,36.45,36.6,36.35,36.6z M12.86,34.48c-0.11,0-0.22-0.05-0.29-0.15c-0.46-0.67-0.88-1.38-1.23-2.12
		c-0.09-0.18-0.01-0.39,0.17-0.48c0.18-0.08,0.39-0.01,0.48,0.17c0.34,0.7,0.73,1.38,1.17,2.02c0.11,0.16,0.07,0.38-0.09,0.5
		C13,34.46,12.93,34.48,12.86,34.48z M38.87,33.27c-0.06,0-0.12-0.02-0.17-0.05c-0.17-0.1-0.23-0.31-0.14-0.49
		c0.38-0.68,0.71-1.39,0.98-2.12c0.07-0.18,0.27-0.28,0.46-0.21c0.18,0.07,0.28,0.27,0.21,0.46c-0.28,0.76-0.63,1.51-1.03,2.22
		C39.12,33.21,39,33.27,38.87,33.27z M10.97,30.76c-0.15,0-0.29-0.09-0.34-0.24c-0.26-0.77-0.47-1.57-0.61-2.37
		c-0.03-0.19,0.1-0.38,0.29-0.41c0.2-0.03,0.38,0.1,0.41,0.29c0.13,0.77,0.33,1.53,0.58,2.26c0.06,0.19-0.04,0.39-0.22,0.45
		C11.05,30.75,11.01,30.76,10.97,30.76z M40.4,29.38c-0.03,0-0.06,0-0.08-0.01c-0.19-0.05-0.31-0.24-0.26-0.43
		c0.18-0.75,0.31-1.53,0.37-2.31c0.02-0.2,0.19-0.37,0.39-0.36c0.2,0.02,0.34,0.16,0.33,0.35l-0.36-0.03l0.35,0.08
		c-0.07,0.82-0.2,1.63-0.39,2.42C40.7,29.27,40.56,29.38,40.4,29.38z M10.17,26.66c-0.19,0-0.35-0.15-0.36-0.34
		c-0.02-0.29-0.02-0.59-0.02-0.88c0-0.43,0.02-0.86,0.05-1.29l0.02-0.27c0.02-0.2,0.19-0.34,0.39-0.32
		c0.2,0.02,0.34,0.19,0.32,0.39l-0.02,0.26c-0.03,0.41-0.05,0.82-0.05,1.23c0,0.28,0.01,0.56,0.02,0.84
		c0.01,0.2-0.14,0.36-0.34,0.38C10.18,26.66,10.18,26.66,10.17,26.66z M40.81,25.17c-0.19,0-0.35-0.15-0.36-0.34
		c-0.03-0.78-0.12-1.56-0.27-2.32c-0.04-0.19,0.09-0.38,0.28-0.42c0.19-0.04,0.38,0.09,0.42,0.28c0.16,0.8,0.25,1.61,0.28,2.43
		c0.01,0.2-0.15,0.36-0.34,0.37C40.82,25.17,40.82,25.17,40.81,25.17z M10.5,22.5c-0.02,0-0.05,0-0.08-0.01
		c-0.19-0.04-0.31-0.23-0.27-0.42c0.17-0.8,0.41-1.59,0.71-2.34c0.07-0.18,0.28-0.28,0.46-0.2c0.18,0.07,0.27,0.28,0.2,0.46
		c-0.28,0.72-0.51,1.47-0.67,2.24C10.81,22.38,10.67,22.5,10.5,22.5z M40.08,21.06c-0.15,0-0.29-0.1-0.34-0.25
		c-0.24-0.74-0.54-1.46-0.89-2.16c-0.09-0.18-0.02-0.39,0.16-0.48c0.18-0.09,0.39-0.02,0.48,0.16c0.37,0.73,0.68,1.49,0.93,2.26
		c0.06,0.19-0.04,0.39-0.23,0.45C40.16,21.06,40.12,21.06,40.08,21.06z M11.94,18.58c-0.06,0-0.11-0.01-0.17-0.04
		c-0.17-0.09-0.24-0.31-0.15-0.48c0.38-0.72,0.83-1.41,1.32-2.06c0.12-0.16,0.34-0.19,0.5-0.07c0.16,0.12,0.19,0.34,0.07,0.5
		c-0.47,0.62-0.89,1.28-1.26,1.97C12.19,18.51,12.07,18.58,11.94,18.58z M38.27,17.3c-0.12,0-0.23-0.06-0.3-0.16
		c-0.43-0.65-0.91-1.27-1.44-1.84c-0.13-0.15-0.12-0.37,0.02-0.5c0.15-0.13,0.37-0.12,0.5,0.02c0.55,0.6,1.06,1.25,1.51,1.93
		c0.11,0.16,0.06,0.39-0.1,0.5C38.41,17.28,38.34,17.3,38.27,17.3z M14.39,15.19c-0.09,0-0.18-0.03-0.25-0.1
		c-0.14-0.14-0.15-0.36-0.01-0.5c0.56-0.59,1.17-1.14,1.82-1.63c0.16-0.12,0.38-0.09,0.5,0.07c0.12,0.16,0.09,0.38-0.07,0.5
		c-0.62,0.47-1.2,1-1.74,1.56C14.58,15.16,14.48,15.19,14.39,15.19z M35.51,14.17c-0.08,0-0.17-0.03-0.23-0.09
		c-0.59-0.51-1.22-0.98-1.88-1.39c-0.17-0.1-0.22-0.32-0.11-0.49c0.1-0.17,0.32-0.22,0.49-0.11c0.69,0.43,1.35,0.92,1.97,1.45
		c0.15,0.13,0.17,0.35,0.04,0.5C35.71,14.13,35.61,14.17,35.51,14.17z M17.65,12.59c-0.12,0-0.24-0.06-0.31-0.17
		c-0.1-0.17-0.05-0.39,0.12-0.49c0.7-0.42,1.44-0.78,2.19-1.08c0.18-0.07,0.39,0.02,0.46,0.2c0.07,0.18-0.02,0.39-0.2,0.46
		c-0.72,0.29-1.42,0.64-2.09,1.03C17.78,12.58,17.72,12.59,17.65,12.59z M32.01,11.89c-0.05,0-0.1-0.01-0.15-0.03
		c-0.7-0.33-1.44-0.61-2.19-0.82c-0.19-0.05-0.3-0.25-0.24-0.44c0.05-0.19,0.25-0.3,0.44-0.24c0.78,0.23,1.55,0.52,2.29,0.86
		c0.18,0.08,0.26,0.3,0.17,0.48C32.27,11.82,32.14,11.89,32.01,11.89z M21.5,10.97c-0.16,0-0.3-0.11-0.34-0.26
		c-0.05-0.19,0.06-0.39,0.25-0.44c0.79-0.21,1.6-0.36,2.41-0.45c0.2-0.02,0.37,0.12,0.39,0.32c0.02,0.2-0.12,0.37-0.32,0.39
		c-0.77,0.08-1.54,0.23-2.29,0.43C21.56,10.96,21.53,10.97,21.5,10.97z M28.02,10.65c-0.02,0-0.04,0-0.06,0
		c-0.41-0.07-0.84-0.12-1.26-0.16c-0.36-0.03-0.71-0.04-1.07-0.05c-0.2,0-0.36-0.16-0.35-0.36c0-0.2,0.16-0.35,0.36-0.35
		c0,0,0,0,0,0c0.37,0,0.74,0.02,1.11,0.05c0.44,0.04,0.89,0.09,1.32,0.16c0.19,0.03,0.33,0.22,0.29,0.41
		C28.34,10.53,28.19,10.65,28.02,10.65z"/>
	<path fill="#FFFFFF" d="M25.28,43.12c-9.72,0-17.62-7.9-17.62-17.62s7.9-17.62,17.62-17.62c9.72,0,17.62,7.9,17.62,17.62
		S35,43.12,25.28,43.12z M25.28,8.18c-9.55,0-17.32,7.77-17.32,17.32c0,9.55,7.77,17.32,17.32,17.32S42.6,35.05,42.6,25.5
		C42.6,15.95,34.83,8.18,25.28,8.18z"/>
</svg>
