<svg version="1.1" xmlns="http://www.w3.org/2000/svg" width="51" height="51" viewBox="0 0 51 51">
<g>
	<ellipse transform="matrix(0.9732 -0.2298 0.2298 0.9732 -5.1999 6.5997)" cx="25.74" cy="25.63" rx="5.21" ry="5.21"/>
	<path d="M13.71,8.53L8.65,13.6v7.09h1.62v9.56H8.65v7.41l5.07,5.07h24.06l5.07-5.07v-7.42h-1.71v-9.56h1.71V13.6l-5.07-5.07H13.71z
		 M12.92,11.06c0.57,0,1.03,0.46,1.03,1.03s-0.46,1.03-1.03,1.03s-1.03-0.46-1.03-1.03S12.35,11.06,12.92,11.06z M12.92,40.05
		c-0.57,0-1.03-0.46-1.03-1.03c0-0.57,0.46-1.03,1.03-1.03s1.03,0.46,1.03,1.03C13.95,39.59,13.49,40.05,12.92,40.05z M35.83,31.75
		l-1.26-0.46c-0.6,0.94-1.35,1.78-2.21,2.48c0.01,0.01,0.01,0.02,0.02,0.03l0.58,1.24c0.12,0.27,0.01,0.58-0.26,0.71l-3.44,1.61
		c-0.27,0.12-0.58,0.01-0.71-0.26l-0.57-1.21c-0.72,0.16-1.47,0.25-2.24,0.25c-0.36,0-0.72-0.02-1.08-0.05c0,0.01,0,0.02,0,0.03
		l-0.47,1.29c-0.1,0.28-0.41,0.42-0.68,0.32l-3.57-1.3c-0.28-0.1-0.42-0.41-0.32-0.68l0.46-1.26c-0.94-0.6-1.78-1.35-2.48-2.21
		c-0.01,0.01-0.02,0.01-0.03,0.02l-1.24,0.58c-0.27,0.12-0.58,0.01-0.71-0.26l-1.61-3.44c-0.12-0.27-0.01-0.58,0.26-0.71l1.21-0.57
		c-0.16-0.72-0.25-1.47-0.25-2.24c0-0.36,0.02-0.72,0.05-1.08c-0.01,0-0.02,0-0.03,0l-1.29-0.47c-0.28-0.1-0.42-0.41-0.32-0.68
		l1.3-3.57c0.1-0.28,0.41-0.42,0.68-0.32l1.26,0.46c0.6-0.94,1.35-1.78,2.21-2.48c-0.01-0.01-0.01-0.02-0.02-0.03l-0.58-1.24
		c-0.12-0.27-0.01-0.58,0.26-0.71l3.44-1.61c0.27-0.12,0.58-0.01,0.71,0.26l0.57,1.21c0.72-0.16,1.47-0.25,2.24-0.25
		c0.36,0,0.72,0.02,1.08,0.05c0-0.01,0-0.02,0-0.03l0.47-1.29c0.1-0.28,0.41-0.42,0.68-0.32l3.57,1.3c0.28,0.1,0.42,0.41,0.32,0.68
		l-0.46,1.26c0.94,0.6,1.78,1.35,2.48,2.21c0.01-0.01,0.02-0.01,0.03-0.02l1.24-0.58c0.27-0.12,0.58-0.01,0.71,0.26l1.61,3.44
		c0.12,0.27,0.01,0.58-0.26,0.71l-1.21,0.57c0.16,0.72,0.25,1.47,0.25,2.24c0,0.36-0.02,0.72-0.05,1.08c0.01,0,0.02,0,0.03,0
		l1.29,0.47c0.28,0.1,0.42,0.41,0.32,0.68l-1.3,3.57C36.41,31.7,36.1,31.85,35.83,31.75z M38.63,40.05c-0.57,0-1.03-0.46-1.03-1.03
		c0-0.57,0.46-1.03,1.03-1.03s1.03,0.46,1.03,1.03C39.66,39.59,39.2,40.05,38.63,40.05z M38.63,11.06c0.57,0,1.03,0.46,1.03,1.03
		s-0.46,1.03-1.03,1.03s-1.03-0.46-1.03-1.03S38.06,11.06,38.63,11.06z"/>
	<path d="M40,5.37H11.48l-6,6v28.51l6,6H40l6-6V11.37L40,5.37z M44.91,39.43l-5.36,5.36H11.94l-5.36-5.36V11.83l5.36-5.36h27.61
		l5.36,5.36V39.43z"/>
</g>
</svg>
