<svg xmlns="http://www.w3.org/2000/svg" viewBox="0 0 217.87 220.08"><path d="M217.87,62.38h0Z" style="isolation:isolate"/><circle cx="108.94" cy="110.04" r="30.44" transform="translate(-22.37 27.97) rotate(-13.28)" style="isolation:isolate"/><path d="M216,91.36a14.59,14.59,0,0,1,0-29.18,9.94,9.94,0,0,1,1.8.19V12.23A12.26,12.26,0,0,0,205.54,0H12.23A12.26,12.26,0,0,0,0,12.23v50c.36,0,.67-.11,1.08-.11a14.6,14.6,0,0,1,0,29.19A7.21,7.21,0,0,1,0,91.21V207.85a12.26,12.26,0,0,0,12.23,12.23H33.3v-4.42h.05a8.49,8.49,0,0,1,17,0h0v4.42h9.3v-4.42a8.48,8.48,0,0,1,17,0h-.3v4.42h9.3v-4.42h0a8.49,8.49,0,0,1,17,0h0v4.42h9.76v-4.42h0a8.49,8.49,0,0,1,17,0h.05v4.42h9.76v-4.42h.05a8.49,8.49,0,0,1,17,0h.05v4.42h10v-4.42h.05a8.49,8.49,0,0,1,17,0h.05v4.42h22.3a12.26,12.26,0,0,0,12.23-12.23V91.16A11.52,11.52,0,0,1,216,91.36ZM26,39.7A13.66,13.66,0,1,1,39.7,26,13.65,13.65,0,0,1,26,39.7Zm142,74.19c-.14,2-.39,4-.69,6.06h.17l7.09,3.13a3,3,0,0,1,1.55,4l-8.66,19.63a3,3,0,0,1-4,1.54l-6.93-3.06a59,59,0,0,1-13.38,13.14c.06.06.05.12.11.18l2.8,7.2a3,3,0,0,1-1.73,3.9l-20,7.78a3,3,0,0,1-3.9-1.73l-2.76-7a58.25,58.25,0,0,1-12.71.57c-2-.13-4-.38-6.07-.69a.91.91,0,0,1,0,.17l-3.13,7.09a3,3,0,0,1-3.95,1.55l-19.62-8.66a3,3,0,0,1-1.55-4l3.07-6.92a59.15,59.15,0,0,1-13.14-13.38c-.06,0-.12,0-.18.1l-7.2,2.8a3,3,0,0,1-3.9-1.73l-7.78-20a3,3,0,0,1,1.73-3.9l7-2.76a58.23,58.23,0,0,1-.56-12.71c.13-2,.38-4,.68-6.06h-.17L43.24,97A3,3,0,0,1,41.7,93l8.66-19.62a3,3,0,0,1,4-1.55l6.92,3.06A59,59,0,0,1,74.61,61.79c-.06-.06,0-.12-.1-.18l-2.81-7.2a3,3,0,0,1,1.73-3.9l20-7.78a3,3,0,0,1,3.9,1.73l2.76,7a58.28,58.28,0,0,1,12.71-.57c2,.14,4,.38,6.07.69a.91.91,0,0,1,0-.17L122,44.35a3,3,0,0,1,4-1.55l19.62,8.66a3,3,0,0,1,1.55,3.95l-3.06,6.93a59.11,59.11,0,0,1,13.14,13.37c.06,0,.11,0,.17-.1l7.2-2.8a3,3,0,0,1,3.91,1.73l7.78,20a3,3,0,0,1-1.73,3.9l-7,2.76A58.85,58.85,0,0,1,168.06,113.89Zm10-87.85A13.66,13.66,0,1,1,191.73,39.7,13.65,13.65,0,0,1,178.07,26Z" style="isolation:isolate"/></svg>