<svg version="1.1" xmlns="http://www.w3.org/2000/svg" width="51" height="51" viewBox="0 0 51 51">
<g>
	<rect x="21.88" y="21.58" transform="matrix(0.7071 -0.7071 0.7071 0.7071 -10.3502 25.4121)" width="7.23" height="7.23"/>
	<path d="M41.41,32.09L48,25.5l-6.59-6.59V9.59h-9.32L25.5,3l-6.59,6.59H9.59v9.32L3,25.5l6.59,6.59v9.32h9.32L25.5,48l6.59-6.59
		h9.32V32.09z M47.15,25.5l-5.74,5.74v-4.23l1.51-1.51l-1.51-1.51v-4.23L47.15,25.5z M27.61,10.19h4.23l8.97,8.97v4.23L27.61,10.19z
		 M34.22,25.2l-8.72,8.72l-8.72-8.72l8.72-8.72L34.22,25.2z M10.19,23.39v-4.23l8.97-8.97h4.23L10.19,23.39z M23.39,40.81h-4.23
		l-8.97-8.97v-4.23L23.39,40.81z M40.81,27.61v4.23l-8.97,8.97h-4.23L40.81,27.61z M40.81,10.19v8.12l-8.12-8.12H40.81z M25.5,3.85
		l5.74,5.74h-4.23L25.5,8.08l-1.51,1.51h-4.23L25.5,3.85z M10.19,10.19h8.12l-8.12,8.12V10.19z M3.85,25.5l5.74-5.74v4.23L8.08,25.5
		l1.51,1.51v4.23L3.85,25.5z M10.19,40.81v-8.12l8.12,8.12H10.19z M25.5,47.15l-5.74-5.74h4.23l1.51,1.51l1.51-1.51h4.23L25.5,47.15
		z M32.69,40.81l8.12-8.12v8.12H32.69z"/>
</g>
</svg>
