<svg version="1.1" xmlns="http://www.w3.org/2000/svg" width="51" height="51" viewBox="0 0 51 51" >
<g>
	<polygon points="9.81,29 12.63,25.06 16.24,20.02 12.63,20.02 12.63,18.23 25.54,10.78 38.45,18.23 38.45,22.96 41.19,19.14 
		43.95,23.01 43.95,15.06 25.54,4.43 7.13,15.06 7.13,20.02 3.39,20.02 7.13,25.25 	"/>
	<polygon points="43.95,25.92 41.19,22.06 38.45,25.88 34.76,31.04 38.45,31.04 38.45,33.14 25.54,40.59 12.63,33.14 12.63,28.02 
		9.81,31.96 7.13,28.22 7.13,36.32 25.54,46.94 43.95,36.32 43.95,31.04 47.61,31.04 	"/>
	<path d="M16.96,25.5c0,4.74,3.84,8.58,8.58,8.58c4.74,0,8.58-3.84,8.58-8.58c0-4.74-3.84-8.58-8.58-8.58
		C20.8,16.92,16.96,20.76,16.96,25.5z M29.96,24.5v2h-3.42v3.42h-2V26.5h-3.42v-2h3.42v-3.42h2v3.42H29.96z"/>
</g>
</svg>
