<svg width="60" height="65" viewBox="0 0 60 65" fill="none" xmlns="http://www.w3.org/2000/svg">
<path opacity="0.5" d="M30.0219 9.29871C25.5298 9.2987 21.1385 10.6308 17.4034 13.1265C13.6682 15.6222 10.7571 19.1695 9.03801 23.3197C7.31892 27.4699 6.86913 32.0367 7.74551 36.4425C8.62189 40.8484 10.7851 44.8954 13.9615 48.0719C17.138 51.2483 21.185 53.4115 25.5909 54.2879C29.9967 55.1643 34.5635 54.7145 38.7137 52.9954C42.8639 51.2763 46.4112 48.3652 48.9069 44.63C51.4026 40.8949 52.7347 36.5037 52.7347 32.0115C52.7277 25.9898 50.3325 20.2168 46.0746 15.9588C41.8166 11.7009 36.0436 9.30568 30.0219 9.29871ZM49.0789 32.0115C49.0789 35.7806 47.9612 39.4651 45.8672 42.599C43.7732 45.7329 40.7969 48.1754 37.3147 49.6178C33.8325 51.0602 30.0008 51.4376 26.3041 50.7023C22.6074 49.967 19.2118 48.152 16.5466 45.4868C13.8815 42.8216 12.0665 39.426 11.3312 35.7293C10.5958 32.0327 10.9732 28.2009 12.4156 24.7187C13.858 21.2365 16.3006 18.2603 19.4345 16.1662C22.5684 14.0722 26.2528 12.9546 30.0219 12.9546C35.0744 12.9601 39.9185 14.9696 43.4911 18.5423C47.0638 22.1149 49.0734 26.959 49.0789 32.0115Z" fill="#BF63E3"/>
<path d="M30.0219 35.9298C32.1846 35.9298 33.9378 34.1766 33.9378 32.0139C33.9378 29.8512 32.1846 28.098 30.0219 28.098C27.8592 28.098 26.106 29.8512 26.106 32.0139C26.106 34.1766 27.8592 35.9298 30.0219 35.9298Z" fill="#BF63E3"/>
<path d="M30.0219 25.4873C32.1846 25.4873 33.9378 23.7341 33.9378 21.5714C33.9378 19.4087 32.1846 17.6555 30.0219 17.6555C27.8592 17.6555 26.106 19.4087 26.106 21.5714C26.106 23.7341 27.8592 25.4873 30.0219 25.4873Z" fill="#BF63E3"/>
<path d="M30.0219 46.3722C32.1846 46.3722 33.9378 44.619 33.9378 42.4563C33.9378 40.2936 32.1846 38.5404 30.0219 38.5404C27.8592 38.5404 26.106 40.2936 26.106 42.4563C26.106 44.619 27.8592 46.3722 30.0219 46.3722Z" fill="#BF63E3"/>
<path d="M19.5795 30.7086C21.7422 30.7086 23.4954 28.9554 23.4954 26.7927C23.4954 24.63 21.7422 22.8768 19.5795 22.8768C17.4168 22.8768 15.6636 24.63 15.6636 26.7927C15.6636 28.9554 17.4168 30.7086 19.5795 30.7086Z" fill="#BF63E3"/>
<path d="M19.5795 41.151C21.7422 41.151 23.4954 39.3978 23.4954 37.2351C23.4954 35.0724 21.7422 33.3192 19.5795 33.3192C17.4168 33.3192 15.6636 35.0724 15.6636 37.2351C15.6636 39.3978 17.4168 41.151 19.5795 41.151Z" fill="#BF63E3"/>
<path d="M40.4643 30.7086C42.6269 30.7086 44.3802 28.9554 44.3802 26.7927C44.3802 24.63 42.6269 22.8768 40.4643 22.8768C38.3016 22.8768 36.5483 24.63 36.5483 26.7927C36.5483 28.9554 38.3016 30.7086 40.4643 30.7086Z" fill="#BF63E3"/>
<path d="M40.4643 41.151C42.6269 41.151 44.3802 39.3978 44.3802 37.2351C44.3802 35.0724 42.6269 33.3192 40.4643 33.3192C38.3016 33.3192 36.5483 35.0724 36.5483 37.2351C36.5483 39.3978 38.3016 41.151 40.4643 41.151Z" fill="#BF63E3"/>
<path opacity="0.5" d="M6.51067 43.513C6.33315 43.1327 5.97991 42.4106 5.74443 41.748C4.43742 38.38 3.81991 34.7837 3.92851 31.1726C4.03711 27.5614 4.86962 24.0088 6.37667 20.7253C14.8425 5.9838 23.8329 0 23.8329 0C15.2531 1.05594 9.45257 9.4598 9.45257 9.4598C9.38223 6.65177 9.09666 3.85327 8.59835 1.08891C7.40163 7.33991 5.46968 13.4274 2.84277 19.2245C0.955958 23.2228 -0.0150785 27.5917 0.000420357 32.0128C-0.0199965 35.8288 0.703515 39.6123 2.13049 43.1516C2.13049 43.1516 2.58996 44.2455 2.84277 44.7791C5.47042 50.5802 7.40237 56.6719 8.59835 62.927C9.09666 60.1628 9.38224 57.3644 9.45257 54.5565C9.45257 54.5565 15.2531 62.9603 23.8329 64.0163C23.8329 64.0163 14.9509 58.0866 6.51067 43.513Z" fill="#BF63E3"/>
<path opacity="0.5" d="M53.4897 43.513C53.6673 43.1327 54.0205 42.4106 54.256 41.748C55.563 38.3799 56.1805 34.7837 56.0719 31.1726C55.9633 27.5614 55.1308 24.0088 53.6237 20.7253C45.1579 5.9838 36.1675 0 36.1675 0C44.7473 1.05594 50.5479 9.45979 50.5479 9.45979C50.6182 6.65177 50.9038 3.85327 51.4021 1.08891C52.5988 7.33991 54.5307 13.4274 57.1576 19.2245C59.0444 23.2228 60.0155 27.5917 59.9999 32.0127C60.0204 35.8288 59.2969 39.6123 57.8699 43.1516C57.8699 43.1516 57.4104 44.2455 57.1576 44.7791C54.5299 50.5802 52.598 56.6719 51.402 62.927C50.9037 60.1627 50.6181 57.3643 50.5478 54.5563C50.5478 54.5563 44.7472 62.9602 36.1675 64.0161C36.1675 64.0161 45.0496 58.0866 53.4897 43.513Z" fill="#BF63E3"/>
</svg>
