<svg width="62" height="57" viewBox="0 0 62 57" fill="none" xmlns="http://www.w3.org/2000/svg">
<path d="M20.6959 50.8701L13.6932 45.6916L13.6413 28.813L13.5894 11.9343H14.0794C14.3489 11.9343 17.5059 13.2672 21.0949 14.8962L27.6204 17.858H30.8891H34.1577L40.6995 14.8962C44.2975 13.2672 47.4345 11.9343 47.6707 11.9343H48.1002L48.0483 28.8362L47.9963 45.7381L41.0139 50.8969C37.1736 53.7343 33.9082 56.0558 33.7575 56.0558C33.5303 56.0558 33.4835 53.8542 33.4835 43.187V30.3183H30.9463H28.409V43.187C28.409 55.3081 28.3884 56.0555 28.0538 56.0522C27.8585 56.0502 24.5474 53.7183 20.6959 50.8701Z" fill="#00D4D4" stroke="#00D4D4" stroke-width="1.84163"/>
<path d="M13.5894 5.05792V2H30.8448H48.1002V5.05792V8.11584H30.8448H13.5894V5.05792Z" fill="#00D4D4" stroke="#00D4D4" stroke-width="1.84163"/>
<path d="M55.3232 7.44889V2.1087H56.0204C56.4079 2.1087 57.2928 2.40561 58.0123 2.77701C60.6057 4.11568 61.722 7.12566 60.5121 9.518C59.5738 11.3734 58.15 12.4543 56.3657 12.6656L55.3232 12.7891V7.44889Z" fill="#00D4D4" stroke="#00D4D4" stroke-width="1.84163"/>
<path d="M4.52631 12.5113C3.10716 11.9655 1.72948 10.4838 1.3016 9.04295C0.903206 7.7014 0.901282 7.35024 1.28525 6.05727C1.85635 4.13418 3.67711 2.62566 5.93396 2.20577L6.70008 2.06323V7.49985V12.9365L6.13826 12.9258C5.82926 12.92 5.10388 12.7334 4.52631 12.5113Z" fill="#00D4D4" stroke="#00D4D4" stroke-width="1.84163"/>
</svg>
