<svg xmlns="http://www.w3.org/2000/svg" viewBox="0 0 369.5 351"><g data-name="Layer 2"><g data-name="Layer 1"><path d="M226.3 175.2A41.2 41.2 0 11185 134a41.2 41.2 0 0141.3 41.2zM366.3 38.5a96.2 96.2 0 012.7 22.8 98.6 98.6 0 01-4.3 28.8l.2-.7a47.2 47.2 0 01-19 26.8l-.1.1q-42.3 27.9-84.6 55.5a37.6 37.6 0 01-4.1 2h-.3c0-17-.5-33.2.2-49.4.4-8.8 5.1-16.2 11.8-22a163.2 163.2 0 0116.5-12.6l.5-.4C311 73.1 336.3 57.1 361.5 41l4.8-2.4zM256.8 175.5c4 2.5 6.6 4 9 5.7 25.5 16.3 50.8 33 76.5 48.9 18.4 11.3 26 28 27 48.5.5 10.4 0 20.9 0 32.7-3.4-1.7-5.2-2.5-6.9-3.5l-74.3-46.5c-3.2-2-6.1-4.3-9.3-6.3a45 45 0 01-22.1-43c.6-11.5 0-23 0-36.5zM48.3 3.2A96.2 96.2 0 0171 .6 98.6 98.6 0 01100 4.8l-.7-.1a47.2 47.2 0 0126.8 19v.1q28 42.2 55.6 84.6a37.6 37.6 0 012 4v.3c-17 0-33.2.5-49.4-.1a30.8 30.8 0 01-22-11.9 163.1 163.1 0 01-12.6-16.4l-.4-.6C82.9 58.6 66.8 33.3 50.7 8c-.9-1.3-1.5-2.9-2.4-4.8zM185 112.8c2.5-4 4-6.6 5.7-9.1 16.3-25.5 33-50.7 48.9-76.5C250.9 9 267.6 1.3 288 .2c10.4-.5 20.9 0 32.7 0-1.7 3.4-2.4 5.3-3.5 7l-46.5 74.2c-2 3.2-4.2 6.2-6.3 9.3a45 45 0 01-43 22.2c-11.4-.6-23-.1-36.5-.1zM321 347.7a96.2 96.2 0 01-22.7 2.7 98.6 98.6 0 01-28.8-4.3l.7.2a47.2 47.2 0 01-26.9-19v-.2q-27.9-42.2-55.5-84.5a37.6 37.6 0 01-2-4.1l-.1-.3c17 0 33.3-.5 49.5.2 8.7.4 16.2 5.1 22 11.8a163.2 163.2 0 0112.6 16.4l.3.6c16.4 25.2 32.4 50.5 48.5 75.7 1 1.4 1.5 3 2.5 4.8zM184.5 238.3l-5.6 9c-16.4 25.5-33 50.7-49 76.5-11.3 18.3-28 26-48.5 27-10.4.5-20.8 0-32.7 0 1.7-3.4 2.5-5.3 3.5-6.9l46.5-74.3c2-3.2 4.3-6.2 6.3-9.3a45 45 0 0143-22.2c11.5.6 23 .2 36.5.2zM3.3 311.6A96.2 96.2 0 01.6 289 98.6 98.6 0 015 260l-.2.7a47.2 47.2 0 0119-26.9h.1q42.3-27.9 84.6-55.5a37.6 37.6 0 014.1-2l.3-.1c0 17 .5 33.2-.2 49.5a30.8 30.8 0 01-11.8 22 163.1 163.1 0 01-16.5 12.6l-.5.3C58.6 277 33.3 293.1 8 309.2c-1.4 1-3 1.5-4.8 2.4zM112.8 174.9c-4-2.5-6.6-4-9.1-5.7-25.5-16.3-50.7-33-76.5-49C9 109 1.3 92.3.2 71.9-.2 61.4.3 50.9.3 39c3.4 1.7 5.3 2.4 7 3.4L81.3 89c3.2 2 6.2 4.3 9.3 6.3a45 45 0 0122.2 43c-.6 11.5-.1 23-.1 36.6z"/></g></g></svg>