<svg version="1.1" xmlns="http://www.w3.org/2000/svg" width="51" height="51" viewBox="0 0 51 51">
  <g>
    <path d="m 8.375,7.9999998 0.09766,0.0977 0.09766,-0.0977 z m 3.117188,0 -1.558594,1.55859 1.460937,1.4609402 3.017578,-3.0195302 z m 5.841796,0 -4.478515,4.4804702 1.458984,1.45898 5.941406,-5.9394502 z m 5.84375,0 -7.402343,7.4003902 1.460937,1.46094 8.863281,-8.8613302 z m 5.839844,0 L 18.697266,18.32227 20.158203,19.7832 31.939453,7.9999998 Z m 5.84375,0 L 21.619141,21.24414 23.078125,22.70313 37.783203,7.9999998 Z m 5.84375,0 L 24.539062,24.16406 26,25.625 43,8.6249998 v -0.625 z M 27.460938,27.08594 11.546875,43 H 14.46875 L 28.921875,28.54687 Z M 30.380859,30.00586 17.386719,43 h 2.921875 L 31.841797,31.4668 Z M 33.302734,32.92773 23.230469,43 h 2.921875 l 8.611328,-8.61133 z M 36.224609,35.84961 29.074219,43 h 2.921875 l 5.689453,-5.68945 z M 39.144531,38.76953 34.914062,43 h 2.921876 l 2.769531,-2.76953 z M 42.066406,41.69141 40.757812,43 H 43 v -0.375 z" />
    <path d="M 8,7.6249998 26,25.625 l -18,18 z" />
    <path d="M 4,4 V 6 47 H 47 V 4 Z M 8,8 H 43 V 43 H 8 Z" />
  </g>
</svg>
