<svg version="1.1" xmlns="http://www.w3.org/2000/svg" width="51" height="51" viewBox="0 0 51 51">
<g>
	<path d="M6.31,6.11v38.69H45V6.11H6.31z M42.15,41.96h-33v-33h33V41.96z"/>
	<rect x="13.83" y="11.55" width="3.07" height="3.07"/>
	<rect x="17.94" y="11.55" width="3.07" height="3.07"/>
	<rect x="22.05" y="11.55" width="3.07" height="3.07"/>
	<rect x="13.83" y="15.66" width="3.07" height="3.07"/>
	<rect x="17.94" y="15.66" width="3.07" height="3.07"/>
	<rect x="22.05" y="15.66" width="3.07" height="3.07"/>
	<rect x="13.83" y="19.77" width="3.07" height="3.07"/>
	<rect x="17.94" y="19.77" width="3.07" height="3.07"/>
	<rect x="22.05" y="19.77" width="3.07" height="3.07"/>
	<rect x="13.83" y="23.88" width="3.07" height="3.07"/>
	<rect x="17.94" y="23.88" width="3.07" height="3.07"/>
	<rect x="22.05" y="23.88" width="3.07" height="3.07"/>
	<rect x="26.17" y="23.88" width="3.07" height="3.07"/>
	<rect x="30.28" y="23.88" width="3.07" height="3.07"/>
	<rect x="34.39" y="23.88" width="3.07" height="3.07"/>
	<rect x="13.83" y="27.99" width="3.07" height="3.07"/>
	<rect x="17.94" y="27.99" width="3.07" height="3.07"/>
	<rect x="22.05" y="27.99" width="3.07" height="3.07"/>
	<rect x="26.17" y="27.99" width="3.07" height="3.07"/>
	<rect x="30.28" y="27.99" width="3.07" height="3.07"/>
	<rect x="34.39" y="27.99" width="3.07" height="3.07"/>
	<rect x="13.83" y="32.1" width="3.07" height="3.07"/>
	<rect x="17.94" y="32.1" width="3.07" height="3.07"/>
	<rect x="22.05" y="32.1" width="3.07" height="3.07"/>
	<rect x="26.17" y="32.1" width="3.07" height="3.07"/>
	<rect x="30.28" y="32.1" width="3.07" height="3.07"/>
	<rect x="34.39" y="32.1" width="3.07" height="3.07"/>
	<rect x="13.83" y="36.21" width="3.07" height="3.07"/>
	<rect x="17.94" y="36.21" width="3.07" height="3.07"/>
	<rect x="22.05" y="36.21" width="3.07" height="3.07"/>
	<rect x="26.17" y="36.21" width="3.07" height="3.07"/>
	<rect x="30.28" y="36.21" width="3.07" height="3.07"/>
	<rect x="34.39" y="36.21" width="3.07" height="3.07"/>
	<polygon points="26.17,11.55 26.17,22.83 37.46,22.83 	"/>
</g>
</svg>
