<svg clip-rule="evenodd" fill-rule="evenodd" viewBox="0 0 1024 1024" xmlns="http://www.w3.org/2000/svg"><path d="m311.581 245.061 28.222-8.568 3.996-3.332.378 2.253 19.814-6.863s8.811-8.78 8.931-8.78c-.12 0 1.453.229 1.453.229l-6.348 6.858s28.153-10.939 31.433-7.459-7.902 31.839-7.902 31.839l8.099-7.226.358 1.192-9.579 8.972-6.956 20.059 2.408 1.429-3.189 2.107-8.861 28.997c-5.898-.627-13.219-2.732-15.699-6.768 1.074-5.19 2.96-10.848 6.354-13.153l-15.778.37-2.766 2.646-.827-4.096-12.518-12.139-3.968-.69 2.45-3.449.161-14.556c-3.884 4.282-8.546 4.795-13.689 5.411-3.239-3.07-5.093-9.494-5.977-15.283zm35.796 10.765s14.546-6.406 10.775-12.143c-3.772-5.737-10.775 12.143-10.775 12.143zm15.15 15.549s6.866-14.335 12.48-10.382-12.48 10.382-12.48 10.382zm9.24-24.417c6.255 5.752 27.048-22.091 24.674-24.81-2.374-2.72-30.928 19.058-24.674 24.81zm-45.956.591c.358-.335 1.17-.051 1.814.634.643.686.876 1.515.518 1.85-.357.336-1.17.052-1.813-.634-.644-.685-.876-1.514-.519-1.85zm43.043 43.085c.357-.336 1.17-.052 1.813.634.644.685.876 1.514.519 1.849-.358.336-1.17.052-1.814-.634-.643-.685-.876-1.514-.518-1.849z" transform="matrix(11.5731 0 0 11.5731 -3605.95 -2528.73)"/></svg>