<svg clip-rule="evenodd" fill-rule="evenodd" viewBox="0 0 1024 1024" xmlns="http://www.w3.org/2000/svg"><path d="m323.583 191.663-2.51.102 1.399-3.173-1.391.418-2.289 2.296-.355-.282 2.138-2.66-.046-6.075-1.212-.209-.174-4.244s-3.889-2.85 1.938-6.389c5.804-3.525 6.638.954 7.225.482.844-.678 3.344-3.463 4.09-3.573.734-.107-.838 2.026-.152 2.222.685.195 3.05-.231 4.266-1.047 1.974-1.326 4.65-3.931 7.581-6.91 1.714-1.654.152-3.356-2.397-3.236-1.507.07-2.824-16.259-2.549-18.999.276-2.74 2.296-4.386 4.776-4.966s17.15-.216 20.6-1.988c3.451-1.773 23.211-17.12 23.997-18.876.787-1.757.76-6.168 1.363-7.106 1.212-1.883 3.175-2.627 3.175-2.627l5.646 4.822c-13.955 13.552-29.442 28.746-40.647 40.639 4.836-2.493 14.156-12.088 16.307-12.637l.14 2.985 2.834.233c-.549 2.15-10.144 11.471-12.637 16.306 11.893-11.205 27.088-26.691 40.639-40.647l4.822 5.646s-.744 1.963-2.627 3.175c-.938.603-5.349.576-7.106 1.363-1.756.787-17.103 20.547-18.875 23.997-1.773 3.451-1.408 18.121-1.988 20.6-.58 2.48-2.227 4.501-4.967 4.776-2.74.276-19.069-1.042-18.998-2.549.119-2.548-1.583-4.111-3.237-2.397-2.978 2.932-5.584 5.607-6.91 7.582-.816 1.215-1.242 3.58-1.046 4.266.195.685 2.329-.887 2.221-.153-.11.746-2.895 3.246-3.573 4.091-.472.587 4.007 1.421.482 7.225-3.539 5.827-6.389 1.938-6.389 1.938l-4.244-.175-.209-1.211-6.075-.046-2.66 2.138-.282-.356 2.296-2.288.418-1.392-3.173 1.399zm14.484 3.773c-.671-1.555 1.852-1.505 1.413-3.839-.459-2.439-.736-3.887 1.899-3.652 1.797.161 1.923 1.077 1.61 3.464-.305 2.32-4.252 5.582-4.922 4.027zm9.117-20.71c-3.189 3.329-4.71 5.697-3.793 6.661-1.21 2.852-3.347 4.857-6.076 6.323-.895.754-2.873-.357-.884-2.546 3.635-4.199 7.215-7.619 10.753-10.438zm-6.684-6.927c-3.329 3.189-5.697 4.71-6.661 3.794-2.852 1.209-4.857 3.347-6.322 6.075-.755.896.356 2.873 2.545.884 4.199-3.635 7.619-7.215 10.438-10.753zm-20.71 9.118c1.556.67 1.505-1.853 3.84-1.414 2.439.459 3.886.737 3.651-1.899-.16-1.796-1.077-1.923-3.464-1.61-2.32.305-5.582 4.252-4.027 4.923zm46.899-11.551c-1.068 1.751-2.575 2.802-4.522 3.154l.183-2.921zm-9.003-2.635c.447.456-.124 1.301-.902 1.938-.777.638-1.761 1.069-2.14.697-.758-.742 2.147-3.549 3.042-2.635zm-1.35-6.74 2.811 2.911-2.235 2.576-3.225-3.31zm-3.84 1.307c-.457-.447-1.302.124-1.939.901-.638.778-1.068 1.762-.697 2.141.742.758 3.55-2.148 2.636-3.042zm-2.636-9.004c-1.75 1.068-2.802 2.576-3.154 4.522l2.921-.183z" transform="matrix(11.0664 0 0 11.0664 -3517.7 -1160.01)"/></svg>