<svg xmlns="http://www.w3.org/2000/svg" viewBox="0 0 420 545.11"><path d="M279.23,409.43V538.06c0,1.33.08,2.66.11,4s0,2.4-1.47,2.83a3.08,3.08,0,0,1-3.62-.88c-1.05-1.29-2.12-2.56-3.2-3.83-1.93-2.28-3.91-4.53-5.81-6.85A21.92,21.92,0,0,1,259.87,519q.12-70.32.09-140.62c0-3.29-.12-6.52-1.85-9.41a45.68,45.68,0,0,0-3.71-5.57c-6.7-8.16-13.48-16.26-20.26-24.36-5-5.93-9.91-11.87-15-17.72a42.36,42.36,0,0,1-4.74-7.58,5.87,5.87,0,0,1-.55-2.41c-.15-2.16-.3-4.32-.3-6.48q0-102.91,0-205.81,0-16,0-32c0-1,.12-2,.09-3-.12-4.8,2.19-8.6,5-12.13,3-3.76,6.16-7.42,9.25-11.12a7.47,7.47,0,0,1,.82-.94,2.1,2.1,0,0,1,3.62,1.21,8.39,8.39,0,0,1,.1,1.74c0,9.32,0,18.65-.08,28a20.93,20.93,0,0,0,4.72,13.6c5.68,7.05,11.54,14,17.38,20.9.93,1.11,1.92,2.52,3.74,1.82s1.73-2.24,1.73-3.78q0-34.84-.07-69.69l0-29.72a12.6,12.6,0,0,1,.1-1.74A2.18,2.18,0,0,1,261.51.09a2.12,2.12,0,0,1,2.39.9q1.56,2,3.15,3.87c2.56,3.07,5.14,6.11,7.68,9.18a20.07,20.07,0,0,1,4.5,12.66c0,1.83,0,3.66,0,5.49a22.56,22.56,0,0,0,5.85,15.45c5.7,6.61,11.2,13.39,16.75,20.13,1.63,2,3.2,4,4.68,6.11a18.16,18.16,0,0,1,2.93,10.64c0,10.57,0,21.15,0,31.72a24.75,24.75,0,0,0,.12,3c.27,2.12-.31,3.89-2.3,4.81s-3.85.12-5.24-1.27c-2.16-2.18-4.12-4.56-6.11-6.91-3.76-4.44-7.48-8.92-11.22-13.38a10.23,10.23,0,0,0-1.18-1.28c-1.23-1-2.56-1-3.39.39a6.29,6.29,0,0,0-.9,3c-.06,7.66-.07,15.32,0,23a21.1,21.1,0,0,0,5.28,13.65q11.25,13.33,22.4,26.78c3.94,4.73,7.83,9.49,11.77,14.22a20.47,20.47,0,0,1,4.63,13.6q0,15,0,30c0,1.74,0,3.49.12,5.24a4.15,4.15,0,0,1-2.11,4,3.53,3.53,0,0,1-4.2-.5,34.93,34.93,0,0,1-4.41-4.36c-6-7.09-12-14.24-18-21.38-3-3.56-6-7.15-8.94-10.73-.64-.76-1.26-1.55-2-2.25-1.54-1.52-3.32-1.2-4.21.76a4.26,4.26,0,0,0-.48,1.92c.17,3.56.33,7.13.68,10.68.37,3.78,2.35,6.86,4.7,9.7q8.44,10.19,16.93,20.31c5.18,6.18,10.43,12.3,15.54,18.54a29.58,29.58,0,0,1,4.73,7,22.33,22.33,0,0,1,1.66,8.76c-.1,10.08-.06,20.15,0,30.23,0,1.74.09,3.49.09,5.24,0,3.4-2.94,5.19-5.84,3.47a12.73,12.73,0,0,1-3.23-2.7c-6.4-7.55-12.73-15.15-19.08-22.74q-5-5.94-9.92-11.87a17.8,17.8,0,0,0-1.87-2c-1.22-1.06-2.6-.95-3.37.44a7.08,7.08,0,0,0-.89,3.29q-.07,66.32,0,132.63ZM260,301h-.05c0-16.07-.1-32.13.06-48.2a20.58,20.58,0,0,0-4.88-13.73c-5.7-6.94-11.49-13.8-17.24-20.69-.84-1-1.78-1.8-3.21-1.39a3.44,3.44,0,0,0-2.29,3.25c0,1.24.06,2.49.06,3.74v84.16c0,5.39-.23,10.77,1.42,16.08a31.6,31.6,0,0,0,3.29,7.71,73.28,73.28,0,0,0,5,6.82c4.08,5,8.24,10,12.39,15,1.29,1.56,2.56,2,3.89,1.52,1.71-.66,1.59-2.15,1.59-3.57Zm44-32.55h-.05c0-3.16-.06-6.33,0-9.49.12-5-1.92-9.26-5-13-7.66-9.3-15.49-18.46-23.22-27.71-5.48-6.57-10.88-13.21-16.36-19.78-5.32-6.39-10.71-12.71-16.06-19.08-1.87-2.22-3.71-4.48-5.55-6.73a2.79,2.79,0,0,0-3.07-1.14,3.18,3.18,0,0,0-2.23,2.47,6.09,6.09,0,0,0-.13,1.48c0,5.16.1,10.32.08,15.48,0,3.5,0,6.92,1.31,10.3a21,21,0,0,0,3.28,6.08c7,8.52,14.14,17,21.22,25.47q8.7,10.44,17.37,20.9Q284.15,264,292.7,274.2c2.24,2.67,4.58,5.26,6.89,7.88a2.21,2.21,0,0,0,2.63.88,2.72,2.72,0,0,0,1.68-2.31,9.18,9.18,0,0,0,.09-1.49Zm0-77.67h-.05c0-2.74-.12-5.49,0-8.23.3-5.66-1.83-10.39-5.33-14.6-4.89-5.88-9.86-11.69-14.76-17.56q-12.61-15.12-25.19-30.28c-5.8-7-11.64-13.88-17.45-20.83-1.23-1.47-2.38-3-3.65-4.42-1.47-1.67-3.39-1.55-4.53.34a5.25,5.25,0,0,0-.67,2.58q-.06,9.36,0,18.72A21.26,21.26,0,0,0,237.31,130c3,3.68,6,7.3,9,10.95,5.46,6.6,10.89,13.21,16.38,19.78,7.83,9.37,15.72,18.7,23.57,28.05,4.12,4.9,8.19,9.83,12.33,14.71,1,1.14,2,2.38,3.81,1.62,1.62-.7,1.54-2.22,1.55-3.63C304,197.92,304,194.34,304,190.76Zm-44-13.95c.66-6.37-1.57-11.68-5.7-16.43-3.87-4.45-7.56-9.06-11.33-13.6-1.75-2.11-3.49-4.23-5.25-6.33a2.72,2.72,0,0,0-3.09-1.07,3.16,3.16,0,0,0-2.2,2.77,6.71,6.71,0,0,0-.06,1,44.91,44.91,0,0,0,.16,7,33.88,33.88,0,0,0,2.32,8.33,29.39,29.39,0,0,0,4.29,6.08c3.76,4.66,7.59,9.26,11.44,13.83a78.78,78.78,0,0,0,5.38,5.87c1.35,1.3,3.08.78,3.75-1a7,7,0,0,0,.28-2.2C260,179.64,260,178.22,260,176.81Zm30-97.23h0c0-2,0-4,0-6,0-4,.38-8-2-11.58A73.65,73.65,0,0,0,283,55.22c-1.06-1.24-2.55-.88-3.24.62a7.84,7.84,0,0,0-.59,3.12c0,7,.08,14,0,21a15.36,15.36,0,0,0,3.71,10.54,23.67,23.67,0,0,0,3.05,3.27c1.71,1.37,3.71.49,4.05-1.68a11.21,11.21,0,0,0,0-1.74Z"/><path d="M140.86,409.43q0-66.31,0-132.63a7.08,7.08,0,0,0-.89-3.29c-.77-1.39-2.15-1.5-3.37-.44a17.8,17.8,0,0,0-1.87,2q-5,5.93-9.92,11.87c-6.35,7.59-12.68,15.19-19.08,22.74a12.73,12.73,0,0,1-3.23,2.7c-2.9,1.72-5.84-.07-5.84-3.47,0-1.75.09-3.5.09-5.24,0-10.08.05-20.15,0-30.23a22.33,22.33,0,0,1,1.66-8.76,29.58,29.58,0,0,1,4.73-7c5.11-6.24,10.36-12.36,15.54-18.54q8.47-10.14,16.93-20.31c2.35-2.84,4.33-5.92,4.7-9.7.35-3.55.51-7.12.68-10.68a4.26,4.26,0,0,0-.48-1.92c-.89-2-2.67-2.28-4.21-.76-.71.7-1.33,1.49-2,2.25-3,3.58-6,7.17-8.94,10.73-6,7.14-12,14.29-18,21.38a34.93,34.93,0,0,1-4.41,4.36,3.53,3.53,0,0,1-4.2.5,4.15,4.15,0,0,1-2.11-4c.11-1.75.12-3.5.12-5.24q0-15,0-30a20.47,20.47,0,0,1,4.63-13.6c3.94-4.73,7.83-9.49,11.77-14.22q11.18-13.41,22.4-26.78a21.1,21.1,0,0,0,5.28-13.65c.1-7.65.09-15.31,0-23a6.29,6.29,0,0,0-.9-3c-.83-1.37-2.16-1.44-3.39-.39a10.23,10.23,0,0,0-1.18,1.28c-3.74,4.46-7.46,8.94-11.22,13.38-2,2.35-4,4.73-6.11,6.91-1.39,1.39-3.27,2.18-5.24,1.27s-2.57-2.69-2.3-4.81a24.75,24.75,0,0,0,.12-3c0-10.57,0-21.15,0-31.72a18.16,18.16,0,0,1,2.93-10.64c1.48-2.1,3-4.13,4.68-6.11,5.55-6.74,11-13.52,16.75-20.13a22.56,22.56,0,0,0,5.85-15.45c0-1.83-.08-3.66,0-5.49A20.07,20.07,0,0,1,145.27,14c2.54-3.07,5.12-6.11,7.68-9.18Q154.54,2.94,156.1,1a2.12,2.12,0,0,1,2.39-.9A2.18,2.18,0,0,1,160,2.17a12.6,12.6,0,0,1,.1,1.74l0,29.72q0,34.84-.07,69.69c0,1.54,0,3.11,1.73,3.78s2.81-.71,3.74-1.82c5.84-6.93,11.7-13.85,17.38-20.9a20.93,20.93,0,0,0,4.72-13.6c-.05-9.32-.06-18.65-.08-28a8.39,8.39,0,0,1,.1-1.74,2.1,2.1,0,0,1,3.62-1.21,7.47,7.47,0,0,1,.82.94c3.09,3.7,6.23,7.36,9.25,11.12,2.85,3.53,5.16,7.33,5,12.13,0,1,.09,2,.09,3q0,16,0,32,0,102.9,0,205.81c0,2.16-.15,4.32-.3,6.48a5.87,5.87,0,0,1-.55,2.41,42.36,42.36,0,0,1-4.74,7.58c-5,5.85-10,11.79-15,17.72-6.78,8.1-13.56,16.2-20.26,24.36a45.68,45.68,0,0,0-3.71,5.57c-1.73,2.89-1.85,6.12-1.85,9.41q.06,70.31.09,140.62a21.92,21.92,0,0,1-5.37,14.34c-1.9,2.32-3.88,4.57-5.81,6.85-1.08,1.27-2.15,2.54-3.2,3.83a3.08,3.08,0,0,1-3.62.88c-1.43-.43-1.5-1.62-1.47-2.83s.11-2.66.11-4V409.43ZM160,351.67c0,1.42-.12,2.91,1.59,3.57,1.33.5,2.6,0,3.89-1.52,4.15-5,8.31-10,12.39-15a73.28,73.28,0,0,0,5-6.82,31.6,31.6,0,0,0,3.29-7.71c1.65-5.31,1.42-10.69,1.42-16.08V224c0-1.25.1-2.5.06-3.74a3.44,3.44,0,0,0-2.29-3.25c-1.43-.41-2.37.38-3.21,1.39-5.75,6.89-11.54,13.75-17.24,20.69A20.58,20.58,0,0,0,160,252.78c.16,16.07.06,32.13.06,48.2H160Zm-44-72.51a9.18,9.18,0,0,0,.09,1.49,2.72,2.72,0,0,0,1.68,2.31,2.21,2.21,0,0,0,2.63-.88c2.31-2.62,4.65-5.21,6.89-7.88q8.58-10.21,17.09-20.49,8.69-10.44,17.37-20.9c7.08-8.49,14.19-16.95,21.22-25.47a21,21,0,0,0,3.28-6.08c1.28-3.38,1.33-6.8,1.31-10.3,0-5.16.06-10.32.08-15.48a6.09,6.09,0,0,0-.13-1.48,3.18,3.18,0,0,0-2.23-2.47,2.79,2.79,0,0,0-3.07,1.14c-1.84,2.25-3.68,4.51-5.55,6.73-5.35,6.37-10.74,12.69-16.06,19.08-5.48,6.57-10.88,13.21-16.36,19.78-7.73,9.25-15.56,18.41-23.22,27.71-3.06,3.71-5.1,7.95-5,13,.07,3.16,0,6.33,0,9.49h0Zm0-77.66c0,1.41-.07,2.93,1.55,3.63,1.79.76,2.85-.48,3.81-1.62,4.14-4.88,8.21-9.81,12.33-14.71,7.85-9.35,15.74-18.68,23.57-28.05,5.49-6.57,10.92-13.18,16.38-19.78,3-3.65,6.07-7.27,9-10.95a21.26,21.26,0,0,0,4.88-13.54q.09-9.36,0-18.72a5.25,5.25,0,0,0-.67-2.58c-1.14-1.89-3.06-2-4.53-.34-1.27,1.43-2.42,3-3.65,4.42-5.81,6.95-11.65,13.87-17.45,20.83q-12.62,15.14-25.19,30.28c-4.9,5.87-9.87,11.68-14.76,17.56-3.5,4.21-5.63,8.94-5.33,14.6.15,2.74,0,5.49,0,8.23h0C116,194.34,116,197.92,116,201.5Zm44-20.45a7,7,0,0,0,.28,2.2c.67,1.76,2.4,2.28,3.75,1a78.78,78.78,0,0,0,5.38-5.87c3.85-4.57,7.68-9.17,11.44-13.83a29.39,29.39,0,0,0,4.29-6.08,33.88,33.88,0,0,0,2.32-8.33,44.91,44.91,0,0,0,.16-7,6.71,6.71,0,0,0-.06-1,3.16,3.16,0,0,0-2.2-2.77,2.72,2.72,0,0,0-3.09,1.07c-1.76,2.1-3.5,4.22-5.25,6.33-3.77,4.54-7.46,9.15-11.33,13.6-4.13,4.75-6.36,10.06-5.7,16.43C160,178.22,160,179.64,160,181.05ZM130,90.32a11.21,11.21,0,0,0,0,1.74c.34,2.17,2.34,3,4,1.68a23.67,23.67,0,0,0,3.05-3.27,15.36,15.36,0,0,0,3.71-10.54c-.09-7,0-14,0-21a7.84,7.84,0,0,0-.59-3.12c-.69-1.5-2.18-1.86-3.24-.62A73.65,73.65,0,0,0,132,62c-2.39,3.54-2,7.6-2,11.58,0,2,0,4,0,6H130Z"/></svg>