<svg xmlns="http://www.w3.org/2000/svg" viewBox="0 0 347.75 268.41">
  <polygon points="173.87 206.41 62 94.53 0 94.53 90.76 185.29 107.1 168.96 127 188.86 110.66 205.19 173.87 268.4 237.09 205.19 220.75 188.86 240.65 168.96 256.99 185.29 347.75 94.53 285.75 94.53 173.87 206.41"/>
  <polygon points="238.4 0 238.4 23.69 212.96 23.69 212.96 0 134.79 0 134.79 23.69 109.35 23.69 109.35 0 0 0 94.73 94.73 109.98 79.47 129.88 99.38 114.63 114.63 173.87 173.87 233.12 114.63 217.86 99.38 237.76 79.47 253.02 94.73 347.75 0 238.4 0"/>
</svg>