<svg xmlns="http://www.w3.org/2000/svg" viewBox="0 0 441 488.6"><path d="M253.1,338.8h68.3c22,0,50.2-8.7,50.2-51.7V12.1a11.6,11.6,0,0,0-23.2,0v167c0,60-58,120-127.9,120-70.1,0-127.9-60-127.9-120V12.1a11.6,11.6,0,1,0-23.2,0v275c0,43,28.2,51.7,50.2,51.7h68.3a8.7,8.7,0,0,1,0,17.4H113.6c-25,0-44.2-17.3-44.2-17.3v68.5h80.2v48.8l70.9-29,70.9,29V407.4h80.2V338.9s-19.2,17.3-44.2,17.3H253.1a8.7,8.7,0,0,1,0-17.4Z"/><rect x="307.4" y="424.1" width="64" height="64"/><rect x="69.6" y="424.1" width="64" height="64"/><circle cx="220.5" cy="113.1" r="112.1"/></svg>