<svg xmlns="http://www.w3.org/2000/svg" viewBox="0 0 277.87934 333.79411">
  <polygon points="143.389 218.825 143.249 264.291 277.717 131.804 143.249 0 143.249 43.692 231.593 131.804 143.389 218.825"/>
  <polygon points="143.249 55.717 143.249 96.368 176.508 130.878 143.249 165.388 143.249 206.039 216.615 131.804 143.249 55.717"/>
  <polygon points="247.066 302.985 277.879 333.794 277.879 146.314 247.066 177.09 247.066 302.985"/>
  <polygon points="205.632 218.694 205.632 267.567 236.434 299.374 236.434 187.656 205.632 218.694"/>
  <line x1="143.24862" y1="264.29101" x2="143.10819" y2="218.82528"/>
  <line x1="143.24862" y1="43.69189" x2="143.24862"/>
  <polygon points="46.286 131.804 134.631 43.692 134.631 0 0.163 131.804 134.631 264.291 134.49 218.825 46.286 131.804"/>
  <polygon points="61.265 131.804 134.631 206.039 134.631 165.388 101.371 130.878 134.631 96.368 134.631 55.717 61.265 131.804"/>
  <polygon points="30.813 177.09 0 146.314 0 333.794 30.813 302.985 30.813 177.09"/>
  <polygon points="41.445 187.656 41.445 299.374 72.247 267.567 72.247 218.694 41.445 187.656"/>
  <line x1="134.77115" y1="218.82528" x2="134.63073" y2="264.29101"/>
  <line x1="134.63073" x2="134.63073" y2="43.69189"/>
</svg>
