<svg id="Traveller" xmlns="http://www.w3.org/2000/svg" viewBox="0 0 100.33 98.35"><defs><style>.cls-1{fill:#fff;}</style></defs><title>traveller_no_outline</title><path class="cls-1" d="M405.5,352.37a49.16,49.16,0,0,0-10.14-30l-.1-.13A50.61,50.61,0,0,0,385,312.38a54.08,54.08,0,0,0-10.68-5.92,50.74,50.74,0,0,0-16.41-3.63,51.29,51.29,0,0,0-22.84,4.07,49.47,49.47,0,0,0-8.88,85.95l.3.17.15-.16a58.86,58.86,0,0,0-8.36-10.28l1,.06c-.21-.37-.38-.66-.54-1a5.12,5.12,0,0,1-.78-1.58,6,6,0,0,0-2.25-4.42,3.34,3.34,0,0,0-.46-.25l.17-.19,1.12.62.19-.15c-.14-.4-.27-.8-.42-1.19a4,4,0,0,1-.35-.91c-.13-1.34-.22-2.68-.31-4,0-.35.05-.76-.42-.49l.2-2.23a6.81,6.81,0,0,1,.6.94c.75,1.7,1.36,3.47,2.22,5.12,1.24,2.38,2.59,4.71,4,7a11.28,11.28,0,0,0,2,2.27c1.36,1.25,2.81,2.4,4.16,3.66a4.47,4.47,0,0,1,.71,1.34,10,10,0,0,0,.47,1,6.22,6.22,0,0,0,.66.77c1.57,1.75,2.76,3.84,4.78,5.21a3.76,3.76,0,0,0,2.67.56,1.54,1.54,0,0,1,1.56.54,4.54,4.54,0,0,0,1,.64l1.5.93v.27c-1.36.62-2.88.06-4.28.38.11.65,1.33.68.91,1.65a33.64,33.64,0,0,0,8.45,2,8.09,8.09,0,0,1-4.18-3.72c.47-.12.83-.23,1.2-.3s.55-.13.7,0a6.18,6.18,0,0,0,2.12,1.06c.24.05.61.18.71.07a1,1,0,0,0,.16-.76,3.72,3.72,0,0,1,1.17-2.65c.43-.27.85-.58,1.36-.93.84.3.76.25,1.32-.7a2.42,2.42,0,0,1,1.33-.75,4.21,4.21,0,0,1,1.11,0c1.12,0,2.25-.14,3.36-.05a2.43,2.43,0,0,0,2.39-1c1.08.34,1.82-.32,2.55-.86.23-.17.21-.66.32-1a5.55,5.55,0,0,1,.27-.71c.17-.36.38-.71.56-1.08s.25-.54.45-1l.33,1.23.28.07a4.85,4.85,0,0,1,1.56-3.65c.58,0,1.29,0,2,0a.93.93,0,0,0,.7-.43q.94-2.86,1.76-5.76a2.27,2.27,0,0,0,0-1.2c-.38-1.3.08-2.49.32-3.71a6.76,6.76,0,0,1,.06.94,10.83,10.83,0,0,0,.12,1.78c0,.21.61.53.65.5.33-.32.78-.68.85-1.09.21-1.12.25-2.26.36-3.4a9.81,9.81,0,0,1,.22,1.51c0,.36,0,.73,0,1.09a2.84,2.84,0,0,0,.28.68c.2-.09.41-.17.6-.28a2.29,2.29,0,0,0,1.14-2.37,2.15,2.15,0,0,1,.06-.43,42.8,42.8,0,0,1,.12,13.94,7.91,7.91,0,0,0,3.83-1.6,17.89,17.89,0,0,0,1.46-1.64,1.71,1.71,0,0,0,.18-.5,2.51,2.51,0,0,1,.15-.35c.13-.24.29-.47.4-.71a1.32,1.32,0,0,0,0-.42l.55.26.91-4V381l.28,0,1-1.56v1.29l.21.12c.32-.47.63-.94,1-1.39.16-.21.4-.49.61-.49a.85.85,0,0,0,1-.89,1.44,1.44,0,0,1,1.14-1.4,4.05,4.05,0,0,0,2.18-2c1.32-2.38,2.53-4.83,3.72-7.28a10.87,10.87,0,0,0,.43-1.87c.37-1.34.75-2.67,1.17-4,.08-.25.42-.42.48-.67.23-1,.63-2-.25-2.83-.05-.05,0-.2,0-.29a2.22,2.22,0,0,0,1.4-2c0-.6,0-1.2,0-1.81l.15,0c.2,1.62.34,3.25.6,4.86.29,1.83.51,3.62-.77,5.21a1.38,1.38,0,0,0-.22.66,5.94,5.94,0,0,1-.26,1.89c-.56,1-.58,2.48-1.94,3a.31.31,0,0,0-.14.26c.26.73-.26,1.42-.18,2.06.2,1.54-1,2.49-1.38,3.75-.21.63-.55,1.21-.81,1.82a6.42,6.42,0,0,1-.37,1q-2.22,3.36-4.48,6.68a19.47,19.47,0,0,1-1.57,1.93c-.51.57-1.07,1.11-1.63,1.63-.87.81-1.32,2-2.57,2.48a4.26,4.26,0,0,0-1.32.83c-1.46,1.28-2.89,2.59-4.35,3.88a12.94,12.94,0,0,1-1.1.79l.13.23a26.13,26.13,0,0,0,2.55-1.3c.8-.52,1.45-1.27,2.25-1.79,1.49-1,3-1.82,4.56-2.7.52-.3,1.08-.55,1.62-.82l.06.12-1.85,2.5a14.62,14.62,0,0,0,1.8-1.06A49.44,49.44,0,0,0,405.5,352.37Z" transform="translate(-305.17 -302.76)"/></svg>