<svg version="1.1" xmlns="http://www.w3.org/2000/svg" width="1024" height="1024" viewBox="0 0 1024 1024">
<g>
	<path fill="none" d="M567,474.9c14.7,23.4,14.8,47.7,0.2,71.1c-12.5,20-31.4,29.6-55.2,30.6h0c-23.7-1-42.7-10.5-55.2-30.6
		c-14.5-23.4-14.5-47.8,0.2-71.1c12.5-19.9,31.4-29.4,55-30.3h0v0C535.6,445.6,554.5,455.1,567,474.9z"/>
	<polygon fill="none" points="512,713.3 512,713.3 512,712.5 	"/>
	<polygon fill="none" points="512.3,320 512.3,320.6 512.3,320.6 	"/>
	<polygon fill="#FFFFFF" points="512,712.3 512,712.3 512,712.3 	"/>
	<path fill="#FFFFFF" d="M741.8,753.4C741.8,753.4,741.8,753.4,741.8,753.4C741.8,753.4,741.8,753.4,741.8,753.4L741.8,753.4z"/>
	<g>
		<rect x="774.5" y="535" transform="matrix(0.4472 -0.8944 0.8944 0.4472 -50.366 988.4411)" fill="none" width="0" height="0"/>
		<path d="M3.5,263l230.3,230.2c5.3-72.1,33.5-133.4,83.9-182.4c52.6-51.2,118-77.7,194.2-78.9c76.4,1.2,141.7,27.7,194.4,78.9
			c50.4,48.9,78.6,110.3,83.9,182.4c10.7-10.7,21.6-21.6,32.3-32.3l198-197.9c0.8-0.7,1.5-1.4,2.3-2c0.1-0.1,0.7-0.7,1.2-1.2v-70.8
			L820.6,392.2l-2.7-6.6c-17.1-41-41.3-77.2-71.9-107.7c-30.3-30.4-65.7-54.1-105-70.5l-2-0.7c-40.2-16.5-82.8-24.8-127-24.8
			c-44.2,0-86.8,8.3-126.8,24.8c-40.8,16.9-76.9,40.9-107.2,71.3c-30.6,30.5-54.8,66.8-71.9,107.8l-2.7,6.6l-5.1-5.1L0,189v70.8
			c0.7,0.7,1.5,1.5,1.6,1.6C1.9,261.6,2.7,262.3,3.5,263z"/>
		<path d="M767.7,544.4l0.7-11.2c2.5-43.6-3.5-83.9-17.9-119.7c-14.6-36.4-38.4-69.3-70.6-97.7c-44.8-39.6-105.2-62.3-165.5-62.3
			l-2.3,0l-2.6,0c-60.3,0-120.6,22.7-165.4,62.3c-32.2,28.5-56,61.3-70.6,97.7c-14.4,35.8-20.5,76.1-17.9,119.7l0.7,11.5l-9.3-8.2
			c-0.5-0.4-0.9-0.7-1.4-1.2l-6.3-6.2c-5.1-5-10.3-10.2-15.5-15.3c-13.6-13.6-27.4-27.3-40.9-40.9L49.7,339.6
			C33.1,323,16.1,306,0,289.9v71.9l10.1,10c6.1,6,12.2,12.1,18.3,18.1c20.9,20.8,42.1,41.9,62.9,62.8c24.4,24.4,49.2,49.2,73.6,73.7
			c39.2,39.2,79,79,118.3,118.2l20,20.1c9.5,9.5,19.3,19.4,29,28.9c24.9,24.5,54.6,43.5,88.2,56.5c27.8,10.6,57.6,16.3,88.8,16.9
			c0.5,0,1,0,1.6-0.1l1-0.1l1.2,0.1c0.9,0.1,1.3,0.1,1.7,0.1c31.3-0.6,61.2-6.2,88.9-16.9c33.6-12.9,63.3-31.9,88.1-56.5
			c10.8-10.6,21.6-21.5,32.1-32l135.3-135.2c24.4-24.4,49.1-49.2,73.5-73.6c20.9-20.8,42-41.9,63-62.8c6.7-6.7,13.5-13.4,20-19.9
			l8.3-8.3v-71.9L800.2,513.7c-4.3,4.3-8.7,8.7-13.1,12.9l-8.8,8.7c-0.5,0.5-0.9,0.8-1.4,1.3l-2.4-1.6v0l0,0l1.8,2.1L767.7,544.4z
			 M514.7,717.1L514.7,717.1l-2.8,0l-2.8,0v-0.1c-113.9-2.5-203.4-91.9-204.3-204.8c-0.4-50.3,15.4-95.1,46.9-133.2
			c40.4-48.8,94.3-74.4,160.1-76.1c66.1,1.7,119.9,27.3,160.3,76.1c31.5,38.1,47.2,82.9,46.9,133.2
			C718.2,625.1,628.6,714.6,514.7,717.1z"/>
		<path d="M721,694.8c-8.5,8.5-15.6,15.5-23.2,22.4c-18.1,16.6-39.3,30.9-63.1,42.5c-28.1,14.2-60.2,23.4-92.8,26.6l-1.2,0.1
			c-5.8,0.6-11.7,0.8-17.4,1.1l-11.1,0.6l-11.6-0.6c-5.7-0.3-11.6-0.5-17.5-1.1c-33.8-3.4-65.9-12.6-95.5-27.5l-2.5-1.2l0,0
			c-22.1-11.3-42-24.9-59.1-40.5c-7.9-7.2-15.5-14.7-23.2-22.4c-38.8-38.8-78.3-78.2-117.1-117.1L41.5,433.4
			C27.7,419.6,13.4,405.3,0,392v72.1l4.5,4.6c4,4.1,8.5,8.6,11.9,12L285.6,750c9.6,9.6,20.1,18.5,31.1,26.4l0.7,0.5
			c27,19.8,56.8,35.1,88.6,45.7c33,11,67.6,16.6,102.7,16.8c0.7,0,1.3,0,1.9-0.1l1-0.1l1.6,0.1c0.7,0,1.3,0.1,1.8,0.1
			c68.3-0.2,133.5-21.2,188.9-60.6l2.3-1.7c11.7-8.4,22.2-17.2,32-27c89.2-89.4,179.7-180,269-269.3c4.8-4.8,9.7-9.7,14.5-14.5
			c0.2-0.2,1.3-1.3,2.1-2.1V392l-58.3,58.2c-42.4,42.4-85.3,85.3-127.5,127.5L721,694.8z"/>
		<path d="M605.9,350c-28.4-16.8-60.6-25.6-93-25.6h-1.8c-32.4,0-64.6,8.9-93,25.6c-29.5,17.4-53.7,42.7-69.8,73.1
			c-16.2,30.5-23.4,64.8-21,99.2c2.4,34.4,14.5,67.6,34.8,95.9c17.8,24.8,41.9,44.9,69.6,58.3c25.5,12.3,54.3,18.9,80.1,18
			c1.6,0,3,0.1,4.3,0.1c24.9,0,51.9-6.4,76-18.1c27.8-13.4,51.9-33.5,69.7-58.3c20.4-28.3,32.4-61.5,34.8-95.9
			c2.5-34.4-4.8-68.7-21-99.2C659.6,392.7,635.4,367.4,605.9,350z M609.3,608.1c-26.1,25.9-58.8,39.4-97.2,40.3
			c-38.7-0.9-71.4-14.5-97.4-40.3c-26.8-26.5-40.7-59.3-41.2-97.3c-0.4-31.4,9-59.9,27.9-84.6c26.7-34.8,63-53.4,108-55.4v-0.2
			l2.5,0.1l2.6-0.1l0,0.2c45,2,81.3,20.6,108,55.4c19,24.7,28.3,53.2,27.9,84.6C650,548.8,636.1,581.6,609.3,608.1z"/>
	</g>
	<path d="M512,444.7L512,444.7c-23.6,0.9-42.6,10.4-55,30.3c-14.7,23.3-14.8,47.7-0.2,71.1c12.5,20,31.4,29.6,55.2,30.6h0
		c23.7-1,42.7-10.5,55.2-30.6c14.6-23.4,14.5-47.8-0.2-71.1C554.5,455.1,535.6,445.6,512,444.7L512,444.7z"/>
</g>
</svg>
