<!-- Generated by IcoMoon.io -->
<svg version="1.1" xmlns="http://www.w3.org/2000/svg" width="32" height="32" viewBox="0 0 32 32">
<title>vault</title>
<path d="M0 11.678v-2.836c0.903 0.899 1.727 1.748 2.534 2.618 0.838 0.907 1.735 1.757 2.61 2.629 0.85 0.847 1.691 1.704 2.663 2.657 0.013-0.683-0.013-1.195 0.042-1.7 0.059-0.555 0.164-1.059 0.313-1.544l-0.015 0.057c0.167-0.539 0.366-1.003 0.606-1.441l-0.020 0.040c0.272-0.484 0.553-0.899 0.865-1.289l-0.014 0.019c0.305-0.403 0.627-0.759 0.978-1.085l0.005-0.005c0.734-0.658 1.599-1.189 2.548-1.549l0.056-0.019c0.414-0.154 0.906-0.287 1.414-0.375l0.051-0.007c0.502-0.087 1.019-0.161 1.525-0.138 1.5 0.069 2.913 0.455 4.184 1.288s2.296 1.893 2.971 3.267c0.666 1.355 0.937 2.795 0.823 4.455 1.501-1.292 2.629-2.723 3.931-3.979s2.573-2.561 3.911-3.901v2.823c-1.548 1.537-3.146 3.115-4.737 4.701q-2.675 2.668-5.341 5.345c-1.034 1.036-2.231 1.796-3.648 2.194-0.443 0.125-0.882 0.255-1.353 0.256-0.285 0-0.576 0.125-0.86 0.109-1.8-0.101-3.497-0.534-4.941-1.679-0.461-0.368-0.872-0.736-1.262-1.125l0 0q-4.773-4.762-9.532-9.536c-0.092-0.085-0.192-0.168-0.296-0.244l-0.010-0.007zM16.326 9.615c-3.958 0.032-6.665 2.81-6.669 6.374-0.004 3.642 2.812 6.288 6.254 6.362 1.757 0.038 3.275-0.62 4.528-1.848s1.889-2.8 1.884-4.517-0.616-3.277-1.881-4.52c-1.218-1.195-2.689-1.785-4.115-1.851z"></path>
<path d="M7.348 15.666l-7.34-7.303v-2.654l6.203 6.209c0.268-0.464 0.503-0.873 0.74-1.282 0.897-1.544 2.142-2.795 3.633-3.673l0.047-0.026c0.991-0.595 2.144-1.046 3.373-1.287l0.068-0.011c0.56-0.114 1.203-0.18 1.862-0.18 0.525 0 1.040 0.041 1.542 0.121l-0.055-0.007c1.646 0.256 3.125 0.854 4.505 1.738 1.436 0.916 2.493 2.178 3.276 3.68 0.166 0.319 0.335 0.637 0.506 0.963l6.182-6.175c0.044 0.015 0.066 0.016 0.077 0.028 0.018 0.016 0.030 0.037 0.035 0.061l0 0.001c0 0.816 0 1.63 0 2.432l-7.389 7.357c-0.103-0.566-0.186-1.151-0.319-1.725-0.345-1.465-1.047-2.733-2.010-3.752l0.004 0.004c-0.74-0.797-1.556-1.485-2.549-1.954-0.727-0.341-1.489-0.545-2.272-0.714-0.586-0.126-1.166-0.14-1.751-0.123-1.537 0.038-2.952 0.455-4.253 1.301-1.324 0.862-2.4 1.958-3.107 3.358-0.432 0.854-0.761 1.777-0.827 2.764-0.019 0.281-0.116 0.559-0.179 0.847z"></path>
<path d="M31.989 12.002v2.795c-0.271 0.261-0.598 0.561-0.911 0.877-2.583 2.618-5.151 5.248-7.749 7.853-1.369 1.372-3.023 2.246-4.914 2.711-0.732 0.191-1.571 0.301-2.437 0.301-0.347 0-0.69-0.018-1.028-0.052l0.042 0.003c-1.961-0.2-3.775-0.854-5.34-2.093-0.479-0.385-0.908-0.772-1.314-1.18l-0.001-0.001q-3.021-3.006-6.023-6.032c-0.78-0.784-1.541-1.589-2.313-2.39v-2.695c0.198 0.194 0.341 0.334 0.487 0.477q4.792 4.797 9.583 9.598c0.949 0.954 2.070 1.597 3.342 2.013 1.084 0.355 2.197 0.503 3.319 0.38 1.984-0.218 3.745-0.964 5.179-2.401q4.736-4.751 9.479-9.494c0.174-0.174 0.329-0.368 0.598-0.67z"></path>
<path d="M15.983 21.929c-3.016 0.171-5.962-2.597-5.943-5.941 0.010-1.665 0.606-3.058 1.699-4.224 1.032-1.114 2.503-1.808 4.136-1.808 0.036 0 0.072 0 0.107 0.001l-0.005-0c1.532 0.014 2.932 0.547 4.078 1.677 1.233 1.216 1.848 2.647 1.878 4.368 0.047 3.085-2.701 6.094-5.95 5.927zM15.906 20.15c2.412 0.152 4.249-2.082 4.254-4.091 0.006-2.226-1.633-4.132-4.139-4.347-2.225 0.197-4.057 1.559-4.197 4.181-0.126 2.36 2.13 4.416 4.082 4.257z"></path>
<path d="M15.991 18.068c-1.127 0-2.109-0.977-2.065-2.102 0.046-1.176 0.921-2.003 2.121-2.057 0.938-0.042 2.036 1.051 2.044 2.085 0.010 1.020-1.076 2.197-2.101 2.074z"></path>
</svg>
