<?xml version="1.0" encoding="UTF-8" standalone="no"?>
<!DOCTYPE svg PUBLIC "-//W3C//DTD SVG 20010904//EN"
              "http://www.w3.org/TR/2001/REC-SVG-20010904/DTD/svg10.dtd">

<svg xmlns="http://www.w3.org/2000/svg"
     width="3.05556in" height="3.05556in"
     viewBox="0 0 220 220">
  <path id="Sélection"
        fill="black"
        d="M 30.00,18.00
           C 30.00,18.00 96.00,25.16 96.00,25.16
             96.00,25.16 110.00,26.82 110.00,26.82
             110.00,26.82 124.00,25.16 124.00,25.16
             124.00,25.16 190.00,18.00 190.00,18.00
             190.00,18.00 190.00,114.00 190.00,114.00
             189.95,146.49 170.49,174.90 143.00,190.99
             134.75,195.81 119.57,201.97 110.00,201.97
             91.09,201.97 65.40,185.59 53.17,172.00
             39.15,156.42 30.03,135.10 30.00,114.00
             30.00,114.00 30.00,85.00 30.00,85.00
             30.00,85.00 30.00,18.00 30.00,18.00 Z
           M 187.00,22.00
           C 187.00,22.00 109.00,30.00 109.00,30.00
             109.00,30.00 91.00,28.15 91.00,28.15
             91.00,28.15 33.00,22.00 33.00,22.00
             33.00,22.00 33.00,107.00 33.00,107.00
             33.06,142.91 50.35,173.92 83.00,190.24
             89.02,193.25 103.48,198.66 110.00,198.66
             112.50,198.66 116.47,197.51 119.00,196.87
             136.77,192.41 152.62,182.67 164.83,169.00
             187.98,143.07 187.00,117.19 187.00,85.00
             187.00,85.00 187.00,22.00 187.00,22.00 Z
           M 44.00,33.00
           C 44.00,33.00 110.00,40.43 110.00,40.43
             110.00,40.43 176.00,33.00 176.00,33.00
             176.00,33.00 176.00,114.00 176.00,114.00
             175.96,141.66 158.28,166.93 134.00,179.24
             127.63,182.48 117.17,186.82 110.00,186.82
             94.96,186.82 72.89,172.87 63.17,162.00
             52.18,149.71 44.08,131.64 44.00,115.00
             44.00,115.00 44.00,90.00 44.00,90.00
             44.00,90.00 44.00,33.00 44.00,33.00 Z
           M 96.00,81.00
           C 104.22,74.91 104.02,67.06 96.98,60.02
             95.57,58.61 93.79,56.92 92.00,56.02
             88.80,54.42 76.20,54.93 72.00,55.00
             70.32,55.03 68.11,54.93 66.70,55.99
             64.06,57.98 62.46,66.72 62.00,70.00
             67.82,68.27 74.84,65.70 80.98,67.43
             83.78,68.22 86.91,70.65 85.18,73.86
             82.71,78.40 76.17,75.99 73.60,78.02
             71.44,79.73 72.00,85.41 72.00,88.00
             75.82,88.00 80.54,87.64 83.77,90.01
             88.16,93.22 86.59,98.38 81.96,100.26
             75.40,102.93 66.46,99.00 60.00,98.00
             60.69,101.04 63.43,111.31 65.70,113.01
             67.11,114.07 69.32,113.97 71.00,114.00
             74.94,114.06 88.01,114.40 91.00,113.26
             100.09,109.79 105.79,98.24 102.26,89.00
             101.08,85.91 98.27,83.33 96.00,81.00 Z
           M 126.00,55.34
           C 122.23,57.57 117.97,61.10 116.02,65.00
             114.45,68.14 115.00,77.14 115.00,81.00
             115.00,85.00 114.58,100.25 115.60,103.00
             116.55,105.57 119.00,108.07 121.00,109.89
             125.03,113.54 126.75,113.92 132.00,114.00
             132.00,114.00 141.00,114.00 141.00,114.00
             143.09,114.00 146.06,114.12 148.00,113.40
             151.51,112.11 158.11,105.51 159.40,102.00
             160.47,99.10 160.02,77.68 160.00,73.00
             159.99,70.76 160.07,68.11 159.26,66.00
             157.73,61.98 152.18,56.57 148.00,55.34
             146.14,54.92 142.99,55.00 141.00,55.34
             136.03,54.99 130.86,54.56 126.00,55.34 Z
           M 135.05,67.75
           C 143.26,66.18 143.97,71.39 144.00,78.00
             144.00,78.00 144.00,92.00 144.00,92.00
             143.93,95.68 143.72,98.84 139.94,100.65
             135.19,102.92 131.31,99.67 130.34,95.00
             129.53,91.09 129.55,74.34 131.31,71.11
             132.49,68.96 133.13,68.89 135.05,67.75 Z
           M 114.00,122.00
           C 114.00,122.00 106.00,122.00 106.00,122.00
             106.00,122.00 106.00,139.00 106.00,139.00
             106.02,141.76 105.59,145.91 109.13,146.63
             113.70,147.56 113.94,143.19 114.00,140.00
             114.00,140.00 114.00,122.00 114.00,122.00 Z
           M 121.00,141.00
           C 122.85,139.37 126.70,136.63 126.66,133.97
             126.63,131.47 122.96,127.14 119.31,130.37
             113.37,135.65 122.26,142.90 114.67,149.57
             113.33,150.75 111.82,151.55 110.00,151.55
             108.17,151.55 106.68,150.74 105.33,149.58
             97.64,143.00 106.70,135.71 100.69,130.37
             97.04,127.14 93.37,131.47 93.34,133.97
             93.30,136.63 97.15,139.37 99.00,141.00
             99.00,141.00 90.00,143.00 90.00,143.00
             90.00,143.00 92.00,152.00 92.00,152.00
             92.00,152.00 101.00,150.00 101.00,150.00
             101.00,150.00 98.00,160.00 98.00,160.00
             98.00,160.00 106.00,163.00 106.00,163.00
             106.00,163.00 109.00,155.00 109.00,155.00
             109.00,155.00 111.00,155.00 111.00,155.00
             111.00,155.00 114.00,163.00 114.00,163.00
             114.00,163.00 122.00,160.00 122.00,160.00
             122.00,160.00 119.00,150.00 119.00,150.00
             119.00,150.00 128.00,152.00 128.00,152.00
             128.00,152.00 130.00,143.00 130.00,143.00
             130.00,143.00 121.00,141.00 121.00,141.00 Z
           M 83.00,140.00
           C 83.00,140.00 66.00,140.00 66.00,140.00
             66.00,140.00 66.00,144.00 66.00,144.00
             66.00,144.00 83.00,144.00 83.00,144.00
             83.00,144.00 83.00,140.00 83.00,140.00 Z
           M 154.00,140.00
           C 154.00,140.00 137.00,140.00 137.00,140.00
             137.00,140.00 137.00,144.00 137.00,144.00
             137.00,144.00 154.00,144.00 154.00,144.00
             154.00,144.00 154.00,140.00 154.00,140.00 Z" />
</svg>
