<?xml version="1.0" encoding="UTF-8" standalone="no"?>
<!DOCTYPE svg PUBLIC "-//W3C//DTD SVG 20010904//EN"
              "http://www.w3.org/TR/2001/REC-SVG-20010904/DTD/svg10.dtd">

<svg xmlns="http://www.w3.org/2000/svg"
     width="105.857mm" height="105.857mm"
     viewBox="0 0 300 300">
  <path id="Sélection"
        fill="black"
        d="M 145.00,15.00
           C 145.00,15.00 149.00,15.00 149.00,15.00
             149.00,15.00 149.00,164.00 149.00,164.00
             149.00,164.00 149.00,207.00 149.00,207.00
             149.00,207.00 148.00,228.00 148.00,228.00
             143.80,215.16 145.00,209.17 145.00,196.00
             145.00,196.00 145.00,156.00 145.00,156.00
             145.00,156.00 145.00,15.00 145.00,15.00 Z
           M 151.00,15.00
           C 151.00,15.00 155.00,15.00 155.00,15.00
             155.00,15.00 155.00,168.00 155.00,168.00
             155.00,168.00 155.00,206.00 155.00,206.00
             155.00,213.99 155.93,221.11 151.00,228.00
             151.00,228.00 151.00,15.00 151.00,15.00 Z
           M 43.00,19.00
           C 48.76,21.85 60.04,35.93 62.64,42.00
             63.63,44.32 63.74,45.56 64.00,48.00
             59.79,45.70 57.77,42.63 54.75,39.00
             49.57,32.77 43.49,27.40 43.00,19.00 Z
           M 236.00,48.00
           C 236.26,45.56 236.37,44.32 237.36,42.00
             239.96,35.93 251.24,21.85 257.00,19.00
             256.51,27.40 250.43,32.77 245.25,39.00
             242.23,42.63 240.21,45.70 236.00,48.00 Z
           M 43.00,31.00
           C 43.00,31.00 45.00,31.00 45.00,31.00
             45.00,31.00 83.42,78.00 83.42,78.00
             83.42,78.00 101.00,101.00 101.00,101.00
             108.03,97.46 108.34,98.00 116.00,98.00
             112.90,107.82 107.89,107.42 114.00,115.00
             119.63,102.38 129.29,91.46 132.84,78.00
             135.96,66.18 132.86,63.03 140.00,60.00
             140.00,60.00 140.00,95.00 140.00,95.00
             139.89,102.88 135.38,109.43 131.32,116.00
             129.86,118.35 125.96,124.43 125.81,127.00
             125.53,131.62 132.05,135.12 134.20,142.00
             135.29,145.52 134.99,151.19 135.00,155.00
             135.02,164.97 137.72,178.42 135.00,188.00
             128.75,184.98 123.88,177.12 119.00,172.00
             119.00,172.00 119.00,230.00 119.00,230.00
             119.00,240.02 118.24,254.63 121.04,264.00
             124.67,276.15 131.49,278.18 135.00,285.00
             129.56,283.96 127.35,282.28 123.04,278.87
             103.53,263.43 106.00,242.11 106.00,220.00
             106.00,220.00 87.00,228.65 87.00,228.65
             80.10,233.50 80.48,238.39 73.00,241.00
             75.00,233.60 77.81,227.36 84.00,222.53
             90.12,217.75 97.41,216.38 102.61,209.96
             105.62,206.25 105.94,203.57 106.00,199.00
             106.10,190.90 106.82,166.39 105.00,160.00
             105.00,160.00 103.00,165.00 103.00,165.00
             98.88,163.79 91.64,158.92 91.82,154.00
             91.93,150.89 96.39,146.34 96.56,143.42
             96.67,141.65 94.82,138.66 94.00,137.00
             88.25,143.82 81.26,159.08 74.98,162.31
             70.40,164.68 62.26,164.00 57.00,164.00
             60.67,158.21 62.44,160.57 66.79,156.61
             69.11,154.50 78.02,139.64 80.20,136.00
             81.42,133.95 83.88,130.39 83.77,128.00
             83.63,124.71 78.53,119.71 76.51,117.00
             72.49,111.60 72.06,109.51 72.00,103.00
             72.00,103.00 89.00,123.00 89.00,123.00
             91.50,116.22 97.43,109.83 97.05,106.00
             96.67,102.23 85.91,90.60 83.00,87.00
             83.00,87.00 74.99,77.00 74.99,77.00
             74.99,77.00 69.32,68.00 69.32,68.00
             69.32,68.00 56.20,52.00 56.20,52.00
             50.78,45.30 44.44,39.77 43.00,31.00 Z
           M 255.00,31.00
           C 255.00,31.00 257.00,31.00 257.00,31.00
             255.56,39.77 249.22,45.30 243.80,52.00
             243.80,52.00 230.68,68.00 230.68,68.00
             230.68,68.00 225.01,77.00 225.01,77.00
             225.01,77.00 217.00,87.00 217.00,87.00
             214.09,90.60 203.33,102.23 202.95,106.00
             202.57,109.83 208.50,116.22 211.00,123.00
             211.00,123.00 228.00,103.00 228.00,103.00
             227.94,109.51 227.51,111.60 223.49,117.00
             221.47,119.71 216.37,124.71 216.23,128.00
             216.12,130.39 218.58,133.95 219.80,136.00
             221.98,139.64 230.89,154.50 233.21,156.61
             237.56,160.57 239.33,158.21 243.00,164.00
             237.74,164.00 229.60,164.68 225.02,162.31
             218.74,159.08 211.75,143.82 206.00,137.00
             204.90,139.20 203.07,141.64 203.64,144.17
             204.32,147.21 207.87,150.56 207.18,154.00
             206.57,157.03 200.56,163.59 197.18,162.67
             195.75,162.27 194.94,161.00 194.00,160.00
             194.00,160.00 194.00,192.00 194.00,192.00
             194.00,197.16 193.29,203.48 196.01,208.00
             200.54,215.52 208.48,217.09 215.00,221.79
             221.85,226.72 224.86,233.07 227.00,241.00
             219.52,238.39 219.90,233.50 213.00,228.65
             213.00,228.65 194.00,220.00 194.00,220.00
             194.00,242.11 196.47,263.43 176.96,278.87
             172.65,282.28 170.44,283.96 165.00,285.00
             168.51,278.18 175.33,276.15 178.96,264.00
             181.76,254.63 181.00,240.02 181.00,230.00
             181.00,230.00 181.00,172.00 181.00,172.00
             176.12,177.12 171.25,184.98 165.00,188.00
             162.23,178.26 164.95,165.99 165.00,156.00
             165.02,152.01 164.67,145.64 165.80,142.00
             167.95,135.12 174.47,131.62 174.19,127.00
             173.94,122.81 162.52,107.23 160.65,101.00
             159.70,97.86 160.00,90.59 160.00,87.00
             160.00,87.00 160.00,60.00 160.00,60.00
             167.14,63.03 164.04,66.18 167.16,78.00
             170.71,91.46 180.37,102.38 186.00,115.00
             192.11,107.42 187.10,107.82 184.00,98.00
             191.66,98.00 191.97,97.46 199.00,101.00
             199.00,101.00 216.58,78.00 216.58,78.00
             216.58,78.00 255.00,31.00 255.00,31.00 Z
           M 107.00,115.00
           C 104.43,117.76 96.72,128.51 96.97,132.00
             97.13,134.09 98.87,136.30 100.00,138.00
             102.36,135.40 109.70,124.15 109.80,121.00
             109.87,118.55 108.33,116.86 107.00,115.00 Z
           M 194.00,115.00
           C 192.35,116.44 190.66,117.66 190.27,120.02
             189.69,123.51 197.45,135.19 200.00,138.00
             205.82,129.27 202.75,130.65 194.00,115.00 Z
           M 119.00,138.00
           C 116.47,140.48 112.06,146.31 112.19,150.00
             112.37,154.67 120.02,162.08 124.00,164.00
             124.00,153.16 125.16,147.61 119.00,138.00 Z
           M 182.00,138.00
           C 174.62,144.94 176.00,154.70 176.00,164.00
             180.26,161.94 188.41,154.21 187.73,149.00
             187.41,146.54 183.44,140.40 182.00,138.00 Z
           M 239.00,191.00
           C 232.52,191.00 218.24,192.04 213.04,188.91
             208.71,186.31 204.40,177.58 201.81,173.00
             200.63,170.90 199.12,168.53 199.73,166.00
             200.73,161.88 206.38,157.71 210.00,156.00
             210.00,156.00 225.33,180.89 225.33,180.89
             231.95,188.06 236.03,182.97 239.00,191.00 Z
           M 89.00,158.00
           C 92.20,159.48 98.59,163.55 99.71,167.04
             100.50,169.51 98.77,171.96 97.60,174.00
             95.02,178.50 91.32,186.29 86.96,188.91
             81.76,192.04 67.48,191.00 61.00,191.00
             63.85,183.31 67.59,187.69 73.82,181.78
             77.52,178.26 85.24,163.65 89.00,158.00 Z" />
</svg>
