<?xml version="1.0" encoding="UTF-8" standalone="no"?>
<!DOCTYPE svg PUBLIC "-//W3C//DTD SVG 20010904//EN"
              "http://www.w3.org/TR/2001/REC-SVG-20010904/DTD/svg10.dtd">

<svg xmlns="http://www.w3.org/2000/svg"
     width="1.33333in" height="1.33333in"
     viewBox="0 0 96 96">
  <path id="Sélection"
        fill="black" 
        d="M 47.00,14.00
           C 47.00,14.00 49.00,14.00 49.00,14.00
             49.00,14.00 60.00,32.00 60.00,32.00
             60.00,32.00 36.00,32.00 36.00,32.00
             36.00,32.00 47.00,14.00 47.00,14.00 Z
           M 46.22,37.76
           C 54.40,36.26 54.03,44.62 49.86,46.22
             45.09,48.05 40.17,42.08 46.22,37.76 Z
           M 29.00,41.00
           C 29.00,41.00 36.00,46.00 36.00,46.00
             36.00,46.00 39.96,49.20 39.96,49.20
             45.99,54.39 44.51,56.86 37.00,57.00
             37.00,57.00 19.00,57.00 19.00,57.00
             19.00,57.00 29.00,41.00 29.00,41.00 Z
           M 66.00,41.00
           C 69.81,44.53 74.97,52.22 77.00,57.00
             77.00,57.00 60.00,57.00 60.00,57.00
             57.50,56.98 51.44,57.34 53.17,52.98
             54.19,50.41 63.32,43.46 66.00,41.00 Z
           M 2.00,83.00
           C 4.08,76.46 11.52,65.63 18.00,63.01
             20.67,61.92 23.19,62.03 26.00,62.00
             26.00,62.00 26.00,75.00 26.00,75.00
             26.00,75.00 32.00,75.00 32.00,75.00
             32.00,72.73 31.74,66.06 32.60,64.31
             34.07,61.31 42.01,61.12 43.98,63.60
             45.68,65.75 45.00,79.54 45.00,83.00
             45.00,83.00 2.00,83.00 2.00,83.00 Z
           M 72.00,69.93
           C 72.00,69.93 55.06,69.93 55.06,69.93
             52.19,69.37 50.31,67.26 51.62,64.31
             52.80,61.65 56.58,62.02 59.00,62.00
             63.07,61.97 73.63,61.66 77.00,62.64
             84.00,64.67 92.10,76.54 95.00,83.00
             95.00,83.00 51.00,83.00 51.00,83.00
             51.00,83.00 51.00,75.00 51.00,75.00
             51.00,75.00 72.00,75.00 72.00,75.00
             72.00,75.00 72.00,69.93 72.00,69.93 Z" />
</svg>
