<?xml version="1.0" encoding="UTF-8" standalone="no"?>
<!DOCTYPE svg PUBLIC "-//W3C//DTD SVG 20010904//EN"
              "http://www.w3.org/TR/2001/REC-SVG-20010904/DTD/svg10.dtd">

<svg xmlns="http://www.w3.org/2000/svg"
     width="105.857mm" height="105.857mm"
     viewBox="0 0 300 300">
  <path id="Sélection"
        fill="black"
        d="M 52.00,29.00
           C 66.80,27.05 87.33,26.56 100.00,35.63
             109.01,42.08 121.93,63.90 128.67,74.00
             133.67,81.51 145.14,96.51 148.00,104.00
             148.00,104.00 150.00,104.00 150.00,104.00
             152.86,96.51 164.33,81.51 169.33,74.00
             175.88,64.19 189.37,41.82 198.00,35.63
             210.65,26.56 231.21,27.05 246.00,29.00
             244.03,34.15 233.64,49.54 230.00,55.00
             230.00,55.00 211.33,83.00 211.33,83.00
             206.79,89.73 201.22,97.67 194.00,101.65
             188.36,104.76 184.22,104.99 178.00,105.00
             178.00,105.00 120.00,105.00 120.00,105.00
             113.78,104.99 109.64,104.76 104.00,101.65
             96.78,97.67 91.21,89.73 86.67,83.00
             86.67,83.00 68.00,55.00 68.00,55.00
             64.36,49.54 53.97,34.15 52.00,29.00 Z
           M 24.00,52.00
           C 24.00,52.00 49.00,67.66 49.00,67.66
             49.00,67.66 76.00,85.33 76.00,85.33
             90.07,94.73 99.97,100.70 100.00,119.00
             100.00,119.00 100.00,179.00 100.00,179.00
             99.97,197.30 90.07,203.27 76.00,212.67
             76.00,212.67 49.00,230.34 49.00,230.34
             49.00,230.34 24.00,246.00 24.00,246.00
             21.83,229.55 21.48,208.57 32.68,195.09
             37.47,189.33 61.28,174.48 69.00,169.33
             75.58,164.95 93.15,152.24 99.00,150.00
             99.00,150.00 99.00,148.00 99.00,148.00
             93.15,145.76 75.58,133.05 69.00,128.67
             61.28,123.52 37.47,108.67 32.68,102.91
             21.57,89.55 21.85,68.32 24.00,52.00 Z
           M 273.00,52.00
           C 275.89,57.67 275.07,67.53 275.00,74.00
             274.88,83.95 271.31,96.37 264.53,103.83
             260.05,108.76 233.42,125.72 226.00,130.67
             219.65,134.90 204.88,145.75 199.00,148.00
             199.00,148.00 199.00,150.00 199.00,150.00
             204.85,152.24 222.42,164.95 229.00,169.33
             236.72,174.48 260.53,189.33 265.32,195.09
             276.52,208.57 276.17,229.55 274.00,246.00
             274.00,246.00 249.00,230.34 249.00,230.34
             249.00,230.34 222.00,212.67 222.00,212.67
             207.93,203.27 198.03,197.30 198.00,179.00
             198.00,179.00 198.00,119.00 198.00,119.00
             198.03,100.22 208.65,94.24 223.00,84.67
             223.00,84.67 273.00,52.00 273.00,52.00 Z
           M 142.00,121.52
           C 153.26,119.73 163.96,121.72 171.47,131.04
             184.20,146.84 176.24,172.16 156.00,176.48
             148.18,178.16 138.54,176.83 132.01,172.06
             117.38,161.37 116.43,139.37 130.09,127.47
             134.01,124.05 137.09,122.84 142.00,121.52 Z
           M 52.00,269.00
           C 53.97,263.85 64.36,248.46 68.00,243.00
             68.00,243.00 86.67,215.00 86.67,215.00
             91.21,208.27 96.78,200.33 104.00,196.35
             109.64,193.24 113.78,193.01 120.00,193.00
             120.00,193.00 178.00,193.00 178.00,193.00
             184.22,193.01 188.36,193.24 194.00,196.35
             201.22,200.33 206.79,208.27 211.33,215.00
             211.33,215.00 230.00,243.00 230.00,243.00
             233.64,248.46 244.03,263.85 246.00,269.00
             231.21,270.95 210.65,271.44 198.00,262.37
             189.37,256.18 175.88,233.81 169.33,224.00
             164.33,216.49 152.86,201.49 150.00,194.00
             150.00,194.00 148.00,194.00 148.00,194.00
             145.14,201.49 133.67,216.49 128.67,224.00
             121.93,234.10 109.01,255.92 100.00,262.37
             87.33,271.44 66.80,270.95 52.00,269.00 Z" />
</svg>
