<?xml version="1.0" encoding="UTF-8" standalone="no"?>
<!DOCTYPE svg PUBLIC "-//W3C//DTD SVG 20010904//EN"
              "http://www.w3.org/TR/2001/REC-SVG-20010904/DTD/svg10.dtd">

<svg xmlns="http://www.w3.org/2000/svg"
     width="105.857mm" height="105.857mm"
     viewBox="0 0 300 300">
  <path id="Sélection"
        fill="black"
        d="M 62.00,16.00
           C 67.28,18.50 69.14,21.05 72.00,26.00
             74.20,19.82 78.65,24.30 81.96,27.29
             90.37,34.88 94.84,46.72 100.00,51.00
             100.00,51.00 98.00,47.00 98.00,47.00
             98.00,47.00 100.00,46.00 100.00,46.00
             100.00,46.00 100.00,45.00 100.00,45.00
             96.02,42.65 93.98,39.48 93.00,35.00
             93.00,35.00 96.00,37.00 96.00,37.00
             96.00,37.00 99.00,35.00 99.00,35.00
             99.00,35.00 112.49,59.00 112.49,59.00
             112.49,59.00 132.00,93.00 132.00,93.00
             133.20,86.39 136.23,82.24 138.26,76.00
             143.43,60.09 148.99,38.70 149.00,22.00
             149.00,22.00 151.00,22.00 151.00,22.00
             151.04,37.00 156.39,62.85 161.54,77.00
             161.54,77.00 166.00,87.00 166.00,87.00
             166.00,87.00 176.66,65.00 176.66,65.00
             176.66,65.00 180.01,59.00 180.01,59.00
             180.01,59.00 183.68,50.00 183.68,50.00
             185.86,46.35 193.14,37.25 196.28,34.45
             196.28,34.45 202.87,29.37 202.87,29.37
             202.87,29.37 210.05,21.33 210.05,21.33
             213.50,18.65 214.91,20.11 217.42,19.58
             221.85,18.64 219.88,16.75 228.00,18.00
             225.86,22.24 224.73,23.49 220.00,22.00
             220.00,22.00 218.00,26.00 218.00,26.00
             221.22,27.43 220.33,28.77 220.00,32.00
             220.00,32.00 235.00,24.00 235.00,24.00
             235.00,24.00 217.83,47.72 217.83,47.72
             216.10,51.14 218.32,52.50 216.90,56.00
             216.90,56.00 209.78,66.04 209.78,66.04
             209.78,66.04 192.78,99.00 192.78,99.00
             190.21,103.88 181.37,120.23 181.97,125.00
             182.31,127.67 184.54,130.76 186.00,133.00
             187.63,123.99 190.58,121.40 194.62,114.00
             194.62,114.00 208.99,89.00 208.99,89.00
             208.99,89.00 224.23,63.00 224.23,63.00
             224.23,63.00 235.53,43.09 235.53,43.09
             241.96,35.19 256.20,24.18 266.00,21.09
             266.00,21.09 276.00,19.56 276.00,19.56
             281.10,18.41 285.77,16.30 291.00,16.00
             291.00,16.00 280.01,23.70 280.01,23.70
             280.01,23.70 269.00,31.00 269.00,31.00
             269.00,31.00 269.00,33.00 269.00,33.00
             269.00,33.00 273.00,34.00 273.00,34.00
             274.29,29.71 275.37,28.22 280.00,29.00
             280.00,29.00 282.00,27.00 282.00,27.00
             282.79,33.33 277.80,34.43 273.42,38.16
             261.20,48.55 263.28,49.40 255.14,61.00
             255.14,61.00 243.94,80.00 243.94,80.00
             243.94,80.00 227.31,108.00 227.31,108.00
             227.31,108.00 215.25,139.00 215.25,139.00
             212.81,144.82 203.92,157.08 203.38,162.00
             202.92,166.10 208.40,173.38 210.60,177.00
             210.60,177.00 219.02,191.00 219.02,191.00
             223.72,200.63 223.27,203.16 230.67,212.83
             236.40,220.31 245.12,225.70 241.00,236.00
             241.00,236.00 235.00,231.73 235.00,231.73
             235.00,231.73 223.46,225.49 223.46,225.49
             223.46,225.49 210.00,208.00 210.00,208.00
             210.00,208.00 210.00,213.00 210.00,213.00
             213.50,215.18 214.83,217.05 216.00,221.00
             208.82,221.13 207.80,216.57 204.69,211.00
             204.69,211.00 191.00,189.00 191.00,189.00
             191.00,189.00 182.06,211.00 182.06,211.00
             182.06,211.00 169.28,254.00 169.28,254.00
             169.28,254.00 164.61,271.00 164.61,271.00
             163.75,275.45 163.81,280.08 160.00,283.00
             160.00,283.00 159.09,273.00 159.09,273.00
             159.09,273.00 159.09,258.00 159.09,258.00
             159.09,258.00 159.74,246.00 159.74,246.00
             159.74,246.00 159.74,234.00 159.74,234.00
             159.32,225.71 162.49,201.49 165.26,193.91
             165.26,193.91 170.15,176.00 170.15,176.00
             172.75,166.13 177.35,159.74 169.00,151.00
             168.48,160.45 164.61,164.77 161.70,173.00
             161.70,173.00 159.23,182.00 159.23,182.00
             156.25,191.90 152.88,201.58 152.00,212.00
             152.00,212.00 150.00,212.00 150.00,212.00
             150.00,212.00 142.00,186.00 142.00,186.00
             142.00,186.00 129.00,151.00 129.00,151.00
             129.00,151.00 124.22,163.42 124.22,163.42
             124.22,163.42 127.58,177.00 127.58,177.00
             127.58,177.00 130.40,189.00 130.40,189.00
             130.40,189.00 132.95,196.00 132.95,196.00
             132.95,196.00 136.63,214.00 136.63,214.00
             136.63,214.00 138.24,238.00 138.24,238.00
             138.24,238.00 138.24,247.00 138.24,247.00
             138.24,247.00 138.97,255.99 138.97,255.99
             138.97,255.99 138.97,282.00 138.97,282.00
             134.29,278.60 134.51,273.21 133.34,268.00
             133.34,268.00 129.12,254.00 129.12,254.00
             129.12,254.00 115.94,211.00 115.94,211.00
             115.94,211.00 107.00,191.00 107.00,191.00
             107.00,191.00 90.00,219.00 90.00,219.00
             90.00,219.00 84.00,217.00 84.00,217.00
             82.43,220.74 82.28,221.96 78.00,222.00
             76.54,225.90 76.09,227.58 72.00,229.00
             72.00,229.00 71.00,223.00 71.00,223.00
             71.00,223.00 68.00,235.00 68.00,235.00
             68.00,235.00 60.00,239.00 60.00,239.00
             61.16,231.99 65.66,226.45 70.00,221.00
             70.00,221.00 65.00,221.00 65.00,221.00
             66.05,214.67 70.84,211.19 73.94,205.96
             73.94,205.96 80.69,191.00 80.69,191.00
             80.69,191.00 87.19,180.00 87.19,180.00
             89.88,175.60 95.94,168.17 94.65,163.00
             94.65,163.00 81.35,138.00 81.35,138.00
             81.35,138.00 69.02,107.00 69.02,107.00
             69.02,107.00 51.64,79.00 51.64,79.00
             51.64,79.00 40.86,61.00 40.86,61.00
             32.37,49.07 33.54,47.01 21.00,37.35
             16.47,33.87 12.73,33.07 14.00,27.00
             19.76,28.82 20.52,28.95 24.00,34.00
             24.00,34.00 21.00,23.00 21.00,23.00
             21.00,23.00 18.00,19.00 18.00,19.00
             26.08,20.97 29.23,19.50 37.91,24.40
             43.37,27.48 56.74,38.29 60.39,43.04
             60.39,43.04 73.06,65.00 73.06,65.00
             73.06,65.00 106.13,120.00 106.13,120.00
             106.13,120.00 113.00,135.00 113.00,135.00
             113.96,133.01 116.75,128.44 116.77,126.58
             116.80,124.15 111.16,113.81 109.75,111.00
             109.75,111.00 87.90,72.00 87.90,72.00
             84.33,65.01 83.11,56.67 78.63,50.00
             78.63,50.00 72.68,41.42 72.68,41.42
             66.43,33.69 57.55,26.78 62.00,16.00 Z
           M 272.00,22.00
           C 272.00,22.00 271.00,22.00 271.00,22.00
             271.00,22.00 272.00,23.00 272.00,23.00
             272.00,23.00 272.00,22.00 272.00,22.00 Z
           M 271.00,23.00
           C 271.00,23.00 270.00,23.00 270.00,23.00
             270.00,23.00 271.00,24.00 271.00,24.00
             271.00,24.00 271.00,23.00 271.00,23.00 Z
           M 260.00,26.00
           C 260.00,26.00 259.00,26.00 259.00,26.00
             259.00,26.00 260.00,27.00 260.00,27.00
             260.00,27.00 260.00,26.00 260.00,26.00 Z
           M 267.00,26.00
           C 267.00,26.00 266.00,26.00 266.00,26.00
             266.00,26.00 267.00,27.00 267.00,27.00
             267.00,27.00 267.00,26.00 267.00,26.00 Z
           M 259.00,27.00
           C 259.00,27.00 258.00,27.00 258.00,27.00
             258.00,27.00 259.00,28.00 259.00,28.00
             259.00,28.00 259.00,27.00 259.00,27.00 Z
           M 270.00,27.00
           C 270.00,27.00 269.00,27.00 269.00,27.00
             269.00,27.00 270.00,28.00 270.00,28.00
             270.00,28.00 270.00,27.00 270.00,27.00 Z
           M 39.00,28.00
           C 39.00,28.00 38.00,28.00 38.00,28.00
             38.00,28.00 39.00,29.00 39.00,29.00
             39.00,29.00 39.00,28.00 39.00,28.00 Z
           M 258.00,28.00
           C 258.00,28.00 257.00,28.00 257.00,28.00
             257.00,28.00 258.00,29.00 258.00,29.00
             258.00,29.00 258.00,28.00 258.00,28.00 Z
           M 268.00,28.00
           C 268.00,28.00 267.00,28.00 267.00,28.00
             267.00,28.00 268.00,29.00 268.00,29.00
             268.00,29.00 268.00,28.00 268.00,28.00 Z
           M 40.00,29.00
           C 40.00,29.00 39.00,29.00 39.00,29.00
             39.00,29.00 40.00,30.00 40.00,30.00
             40.00,30.00 40.00,29.00 40.00,29.00 Z
           M 257.00,29.00
           C 257.00,29.00 256.00,29.00 256.00,29.00
             256.00,29.00 257.00,30.00 257.00,30.00
             257.00,30.00 257.00,29.00 257.00,29.00 Z
           M 265.00,29.00
           C 265.00,29.00 264.00,29.00 264.00,29.00
             264.00,29.00 265.00,30.00 265.00,30.00
             265.00,30.00 265.00,29.00 265.00,29.00 Z
           M 260.00,33.00
           C 260.00,33.00 259.00,33.00 259.00,33.00
             259.00,33.00 260.00,34.00 260.00,34.00
             260.00,34.00 260.00,33.00 260.00,33.00 Z
           M 257.00,36.00
           C 257.00,36.00 256.00,36.00 256.00,36.00
             256.00,36.00 257.00,37.00 257.00,37.00
             257.00,37.00 257.00,36.00 257.00,36.00 Z
           M 255.00,38.00
           C 255.00,38.00 254.00,38.00 254.00,38.00
             254.00,38.00 255.00,39.00 255.00,39.00
             255.00,39.00 255.00,38.00 255.00,38.00 Z
           M 254.00,39.00
           C 254.00,39.00 253.00,39.00 253.00,39.00
             253.00,39.00 254.00,40.00 254.00,40.00
             254.00,40.00 254.00,39.00 254.00,39.00 Z
           M 253.00,40.00
           C 253.00,40.00 252.00,40.00 252.00,40.00
             252.00,40.00 253.00,41.00 253.00,41.00
             253.00,41.00 253.00,40.00 253.00,40.00 Z
           M 252.00,41.00
           C 252.00,41.00 251.00,41.00 251.00,41.00
             251.00,41.00 252.00,42.00 252.00,42.00
             252.00,42.00 252.00,41.00 252.00,41.00 Z
           M 251.00,42.00
           C 251.00,42.00 250.00,42.00 250.00,42.00
             250.00,42.00 251.00,43.00 251.00,43.00
             251.00,43.00 251.00,42.00 251.00,42.00 Z
           M 248.00,46.00
           C 248.00,46.00 247.00,46.00 247.00,46.00
             247.00,46.00 248.00,47.00 248.00,47.00
             248.00,47.00 248.00,46.00 248.00,46.00 Z
           M 247.00,47.00
           C 247.00,47.00 246.00,47.00 246.00,47.00
             246.00,47.00 247.00,48.00 247.00,48.00
             247.00,48.00 247.00,47.00 247.00,47.00 Z
           M 246.00,48.00
           C 246.00,48.00 245.00,48.00 245.00,48.00
             245.00,48.00 246.00,49.00 246.00,49.00
             246.00,49.00 246.00,48.00 246.00,48.00 Z
           M 150.00,79.00
           C 150.00,79.00 147.79,93.00 147.79,93.00
             147.79,93.00 142.62,113.00 142.62,113.00
             142.62,113.00 147.92,130.00 147.92,130.00
             147.92,130.00 151.00,142.00 151.00,142.00
             151.00,142.00 157.49,115.00 157.49,115.00
             157.49,115.00 152.51,96.00 152.51,96.00
             152.51,96.00 150.00,79.00 150.00,79.00 Z
           M 219.00,117.00
           C 219.00,117.00 216.00,121.00 216.00,121.00
             216.00,121.00 219.00,117.00 219.00,117.00 Z
           M 158.00,164.00
           C 158.00,164.00 155.00,169.00 155.00,169.00
             155.00,169.00 158.00,170.00 158.00,170.00
             158.00,170.00 158.00,164.00 158.00,164.00 Z
           M 74.00,212.00
           C 71.77,214.68 70.11,216.40 71.00,220.00
             71.00,220.00 74.00,212.00 74.00,212.00 Z
           M 88.00,214.00
           C 88.00,214.00 86.00,214.00 86.00,214.00
             86.00,214.00 85.00,217.00 85.00,217.00
             85.00,217.00 88.00,214.00 88.00,214.00 Z
           M 167.00,216.00
           C 165.06,218.87 164.31,220.54 165.00,224.00
             165.00,224.00 167.00,216.00 167.00,216.00 Z
           M 234.00,228.00
           C 234.00,228.00 233.00,228.00 233.00,228.00
             233.00,228.00 234.00,229.00 234.00,229.00
             234.00,229.00 234.00,228.00 234.00,228.00 Z" />
</svg>
