<svg version="1.1" xmlns="http://www.w3.org/2000/svg" width="200" height="200" viewBox="0 0 200 200">
<g>
	<path d="M98.54,39.08c0,0.71-0.58,1.29-1.29,1.29c-0.71,0-1.29-0.58-1.29-1.29c0-0.08,0.01-0.16,0.02-0.23
		c-0.06,0.06-0.1,0.11-0.13,0.14c0.01,0.18,0.08,0.76,0.54,1.13c0.44,0.36,1.11,0.44,2.01,0.25c2.24-0.48,2.57-2.2,2.61-2.76
		c-1.4-0.08-2.46,0.07-3.23,0.29C98.23,38.1,98.54,38.56,98.54,39.08z"/>
	<path d="M100,6C48.09,6,6,48.09,6,100s42.09,94,94,94s94-42.09,94-94S151.91,6,100,6z M100,192.25
		c-50.87,0-92.25-41.38-92.25-92.25S49.13,7.75,100,7.75s92.25,41.38,92.25,92.25S150.87,192.25,100,192.25z"/>
	<path d="M188.28,98.57c-0.44-18.95-7.24-37.41-18.68-52.11C153.71,25.31,128.43,11.6,100,11.6c-28.2,0-53.3,13.5-69.2,34.37
		C19.12,60.74,12.15,79.4,11.7,98.57c-0.27,11.55,1.69,23.24,5.92,34.12c4.25,10.87,10.63,20.98,18.83,29.42
		c8.21,8.41,18.08,15.3,28.99,19.88c10.9,4.58,22.73,6.98,34.56,7.04c11.83-0.07,23.66-2.46,34.56-7.04
		c10.9-4.61,20.77-11.48,28.98-19.89c8.19-8.45,14.58-18.55,18.82-29.42C186.58,121.8,188.55,110.12,188.28,98.57z M80.97,96.5
		c2.33,20.89,4.89,26,4.89,26s-7.67-13.56-6.44-38.33c0,0,0.33-11.72,4.44-17.97c0,0,1.46-2.18,2.62-2.43c1.17-0.25,0,1.22,0,1.22
		S78.63,75.62,80.97,96.5z M86.45,89.44c0.26-1.12,0.94-1.98,1.8-2.64c0.86-0.64,1.96-1.06,3.12-1.1c0.58-0.04,1.16,0.06,1.72,0.2
		c0.55,0.19,1.08,0.4,1.53,0.75c0.47,0.3,0.83,0.74,1.16,1.16c0.17,0.21,0.27,0.47,0.38,0.72c0.11,0.25,0.2,0.51,0.26,0.78
		l0.01,0.05c0.01,0.05-0.02,0.09-0.07,0.1c-0.03,0.01-0.05,0-0.07-0.02l-0.54-0.41l-0.27-0.21l-0.13-0.1l-0.15-0.08
		c-0.39-0.22-0.75-0.48-1.18-0.62l-0.31-0.13l-0.15-0.06l-0.16-0.04l-0.64-0.16c-0.44-0.05-0.88-0.11-1.32-0.07
		c-0.88,0.02-1.76,0.24-2.58,0.6c-0.41,0.18-0.81,0.39-1.19,0.63c-0.39,0.23-0.76,0.49-1.1,0.77c-0.04,0.03-0.09,0.03-0.12-0.01
		c-0.02-0.02-0.02-0.05-0.02-0.08L86.45,89.44z M118.63,66.2c0,0-1-0.81,0-1.03c1-0.22,3.64,3.31,4.56,10.14
		c0.92,6.83,2.42,21.83-1.25,34.83C121.94,110.14,125.63,75.56,118.63,66.2z M119.34,46.34c-0.19,0.18-0.48-0.08-0.58-0.32
		c-0.17-0.39-0.27-0.82-0.38-1.23c-0.75-2.89-2.33-5.67-4.84-7.3c-3.87-2.51-9.02-1.98-13.39-1.76c-1.63,0.08-3.33,0.23-4.8,0.99
		c-0.67,0.35-1.27,0.82-1.84,1.32c-0.33,0.3-0.65,0.61-0.96,0.93c-0.2,0.2-1.07,0.88-1.09,1.14c0,0,0.21-4.5,6.17-5.5
		c3.67-0.62,7.43-0.73,11.1,0c2.7,0.53,5.91,1.51,7.73,3.67c1.77,2.11,2.67,4.98,2.95,7.69C119.44,46.09,119.44,46.25,119.34,46.34z
		 M106.94,83.43c0.17,0.21,0.27,0.47,0.38,0.72c0.11,0.25,0.2,0.51,0.26,0.78l0.01,0.05c0.01,0.05-0.02,0.09-0.07,0.1
		c-0.03,0.01-0.05,0-0.07-0.02l-0.54-0.41l-0.27-0.21l-0.13-0.1l-0.15-0.08c-0.39-0.22-0.75-0.48-1.18-0.62l-0.31-0.13l-0.15-0.06
		l-0.16-0.04l-0.64-0.16c-0.44-0.05-0.88-0.11-1.32-0.07c-0.88,0.02-1.76,0.24-2.58,0.6c-0.41,0.18-0.81,0.39-1.19,0.63
		c-0.39,0.23-0.76,0.49-1.1,0.77c-0.04,0.03-0.09,0.03-0.12-0.01c-0.02-0.02-0.02-0.05-0.02-0.08l0.01-0.05
		c0.26-1.12,0.94-1.98,1.8-2.64c0.86-0.64,1.96-1.06,3.12-1.1c0.58-0.04,1.16,0.06,1.72,0.2c0.55,0.19,1.09,0.4,1.53,0.75
		C106.25,82.57,106.61,83.01,106.94,83.43z M105.93,76.76l0.01-0.05c0.26-1.12,0.94-1.98,1.8-2.64c0.86-0.64,1.96-1.06,3.12-1.1
		c0.58-0.04,1.16,0.06,1.72,0.2c0.55,0.19,1.08,0.4,1.53,0.75c0.47,0.3,0.83,0.74,1.16,1.16c0.17,0.21,0.27,0.47,0.38,0.72
		c0.11,0.25,0.2,0.51,0.26,0.78l0.01,0.05c0.01,0.05-0.02,0.09-0.07,0.1c-0.03,0.01-0.05,0-0.07-0.02l-0.54-0.41l-0.27-0.21
		l-0.13-0.1l-0.15-0.08c-0.39-0.22-0.75-0.48-1.18-0.62l-0.31-0.13l-0.15-0.06l-0.16-0.04l-0.64-0.16
		c-0.44-0.05-0.88-0.11-1.32-0.07c-0.88,0.02-1.76,0.24-2.58,0.6c-0.41,0.18-0.81,0.39-1.19,0.63c-0.39,0.23-0.76,0.49-1.1,0.77
		c-0.04,0.03-0.09,0.03-0.12-0.01C105.93,76.82,105.92,76.79,105.93,76.76z M100.36,76.76c-0.03,0.01-0.05,0-0.07-0.02l-0.54-0.41
		l-0.27-0.21l-0.13-0.1l-0.15-0.08c-0.39-0.22-0.75-0.48-1.18-0.62l-0.31-0.13l-0.15-0.06l-0.16-0.04l-0.64-0.16
		c-0.44-0.05-0.88-0.11-1.32-0.07c-0.88,0.02-1.76,0.24-2.58,0.6c-0.41,0.18-0.81,0.39-1.19,0.63c-0.39,0.23-0.76,0.49-1.1,0.77
		c-0.04,0.03-0.09,0.03-0.12-0.01c-0.02-0.02-0.02-0.05-0.02-0.08l0.01-0.05c0.26-1.12,0.94-1.98,1.8-2.64
		c0.86-0.64,1.96-1.06,3.12-1.1c0.58-0.04,1.16,0.06,1.72,0.2c0.55,0.19,1.09,0.4,1.53,0.75c0.47,0.3,0.83,0.74,1.16,1.16
		c0.17,0.21,0.27,0.47,0.38,0.72c0.11,0.25,0.2,0.51,0.26,0.78l0.01,0.05C100.44,76.7,100.41,76.75,100.36,76.76z M97.17,100.52
		c0.18,0.12,0.35,0.26,0.49,0.43c0.14,0.16,0.27,0.33,0.39,0.51c0.12,0.18,0.2,0.38,0.27,0.59c0.07,0.21,0.13,0.42,0.16,0.65
		l0.01,0.07c0,0.05-0.03,0.09-0.07,0.09c-0.02,0-0.04,0-0.05-0.01c-0.28-0.17-0.54-0.37-0.83-0.52l-0.43-0.22
		c-0.07-0.03-0.14-0.08-0.22-0.11l-0.23-0.08c-0.6-0.24-1.25-0.28-1.87-0.2c-0.63,0.07-1.24,0.3-1.79,0.64
		c-0.27,0.17-0.54,0.36-0.78,0.57c-0.25,0.2-0.49,0.43-0.7,0.67c-0.03,0.03-0.08,0.04-0.12,0.01c-0.02-0.01-0.03-0.03-0.03-0.05
		l-0.01-0.06c-0.09-0.96,0.27-1.76,0.83-2.41c0.57-0.64,1.41-1.11,2.35-1.22C95.46,99.75,96.47,99.98,97.17,100.52z M97.74,96.58
		c-0.04,0.03-0.09,0.03-0.12-0.01c-0.02-0.02-0.02-0.05-0.02-0.08l0.01-0.05c0.26-1.12,0.94-1.98,1.8-2.64
		c0.86-0.64,1.96-1.06,3.12-1.1c0.58-0.04,1.16,0.06,1.72,0.2c0.55,0.19,1.09,0.4,1.53,0.75c0.47,0.3,0.83,0.74,1.16,1.16
		c0.17,0.21,0.27,0.47,0.38,0.72c0.11,0.25,0.2,0.51,0.26,0.78l0.01,0.05c0.01,0.05-0.02,0.09-0.07,0.1c-0.03,0.01-0.05,0-0.07-0.02
		l-0.54-0.41l-0.27-0.21l-0.13-0.1l-0.15-0.08c-0.39-0.22-0.75-0.48-1.18-0.62l-0.31-0.13l-0.15-0.06l-0.16-0.04l-0.64-0.16
		c-0.44-0.05-0.88-0.11-1.32-0.07c-0.88,0.02-1.76,0.24-2.58,0.6c-0.41,0.18-0.81,0.39-1.19,0.63
		C98.46,96.03,98.08,96.29,97.74,96.58z M111.55,148.71c-0.26-0.05-0.35-0.29-0.38-0.52c-0.03-0.24-0.01-0.49,0.05-0.73
		c0.05-0.19,0.13-0.38,0.17-0.58c0.04-0.2,0.05-0.41-0.04-0.59c-0.09-0.18-0.31-0.3-0.5-0.24c-0.09,0.03-0.16,0.09-0.22,0.15
		c-0.38,0.44-0.34,1.24-0.36,1.79c-0.01,0.18-0.01,0.37-0.08,0.54c-0.09,0.22-0.27,0.38-0.46,0.53c-0.19,0.14-0.42,0.28-0.65,0.21
		c-0.13-0.04-0.23-0.14-0.31-0.25c-0.47-0.65-0.36-1.66-0.11-2.38c0.02-0.05,0.04-0.1,0.07-0.15c0.03-0.04,0.08-0.08,0.11-0.12
		c0.12-0.13,0.12-0.34,0.03-0.49c-0.14-0.25-0.56-0.47-0.75-0.15c-0.04,0.07-0.05,0.14-0.06,0.22c-0.06,0.45-0.12,0.92-0.37,1.3
		c-0.05,0.08-0.12,0.16-0.21,0.19c-0.14,0.05-0.29-0.04-0.37-0.16c-0.09-0.13-0.11-0.3-0.16-0.44c-0.06-0.17-0.11-0.34-0.15-0.52
		c-0.18-0.75-0.51-1.53-0.38-2.32c0.08-0.47,0.33-0.9,0.6-1.29c0.32-0.45,0.66-0.88,0.92-1.37c0.2-0.38,0.38-0.78,0.54-1.18
		c0.43-1.05,0.78-2.13,1.08-3.22c0,0,0.78-3.03,2.78-2.14c2,0.89,1.61,4.28,1.61,4.28s-0.16,4.12-0.16,6.72
		C113.8,148.41,112.23,148.83,111.55,148.71z M113.39,102.94c-0.24-0.21-0.51-0.4-0.78-0.57c-0.55-0.34-1.16-0.57-1.79-0.64
		c-0.62-0.09-1.28-0.04-1.87,0.2l-0.23,0.08c-0.07,0.03-0.14,0.07-0.22,0.11l-0.43,0.22c-0.28,0.16-0.55,0.35-0.83,0.52
		c-0.02,0.01-0.03,0.01-0.05,0.01c-0.05,0-0.08-0.05-0.07-0.09l0.01-0.07c0.02-0.23,0.08-0.44,0.16-0.65
		c0.07-0.21,0.15-0.42,0.27-0.59c0.12-0.17,0.25-0.35,0.39-0.51c0.14-0.17,0.31-0.31,0.49-0.43c0.7-0.54,1.7-0.77,2.63-0.65
		c0.94,0.11,1.79,0.59,2.35,1.22c0.56,0.65,0.92,1.45,0.83,2.41l-0.01,0.06c0,0.02-0.01,0.04-0.03,0.05
		c-0.03,0.03-0.09,0.03-0.12-0.01C113.88,103.37,113.64,103.14,113.39,102.94z M113.21,88.61c-0.88,0.02-1.76,0.24-2.58,0.6
		c-0.41,0.18-0.81,0.39-1.19,0.63c-0.39,0.23-0.76,0.49-1.1,0.77c-0.04,0.03-0.09,0.03-0.12-0.01c-0.02-0.02-0.02-0.05-0.02-0.08
		l0.01-0.05c0.26-1.12,0.94-1.98,1.8-2.64c0.86-0.64,1.96-1.06,3.12-1.1c0.58-0.04,1.16,0.06,1.72,0.2c0.55,0.19,1.08,0.4,1.53,0.75
		c0.47,0.3,0.83,0.74,1.16,1.16c0.17,0.21,0.27,0.47,0.38,0.72c0.11,0.25,0.2,0.51,0.26,0.78l0.01,0.05
		c0.01,0.05-0.02,0.09-0.07,0.1c-0.03,0.01-0.05,0-0.07-0.02l-0.54-0.41l-0.27-0.21l-0.13-0.1l-0.15-0.08
		c-0.39-0.22-0.75-0.48-1.18-0.62l-0.31-0.13l-0.15-0.06l-0.16-0.04l-0.64-0.16C114.09,88.63,113.65,88.56,113.21,88.61z
		 M102.19,38.1c0,0-0.83,3.67-4.46,3.67c-3.62,0-3.21-2.79-3.21-2.79c3.1-4.33,10.93-1.25,10.93-1.25
		C105.89,38.48,102.19,38.1,102.19,38.1z M93.86,44.88c1.6,0.77,3.17,0.92,4.92,0.96c3.13,0.08,6.31,0.08,9.41-0.36
		c4.53-0.64,6.72,1.56,7.42,5.11c0.69,3.56,0.47,8.78-3.42,11.89c-3.89,3.11-7.03,3.72-10.14,3.72c-2.57,0-5.07-0.56-7.19-2.09
		c-1.28-0.93-2.42-2.15-3.24-3.49c-0.44-0.72-0.95-1.39-1.32-2.17c-0.37-0.79-0.63-1.63-0.78-2.48c-0.21-1.17-0.21-2.37-0.23-3.55
		c-0.01-0.65-0.02-1.32,0.19-1.93c0.25-0.71,0.76-1.07,1.45-1.29c0.65-0.21,1.44-0.37,1.84-1c0.18-0.29,0.2-0.66,0.13-1
		c-0.1-0.5-0.38-0.94-0.73-1.31c-0.46-0.48-1.03-0.79-1.56-1.16c-0.52-0.36-0.96-0.82-1.36-1.3c-0.93-1.09-1.72-2.29-2.48-3.5
		c-0.54-0.85-1.05-1.71-1.54-2.59c-0.19-0.34-0.36-0.81-0.61-1.11c0,0-0.58-0.67,0-0.92c0.58-0.25,0.78,0.22,0.78,0.22
		c0.28,0.69,0.76,1.36,1.15,1.98c0.93,1.47,1.98,2.88,3.16,4.16C90.89,42.96,92.27,44.11,93.86,44.88z M92.25,131.73
		c2-0.89,2.78,2.14,2.78,2.14c0.29,1.09,0.65,2.17,1.08,3.22c0.16,0.4,0.34,0.8,0.54,1.18c0.26,0.49,0.6,0.91,0.92,1.37
		c0.28,0.39,0.52,0.82,0.6,1.29c0.13,0.78-0.2,1.57-0.38,2.32c-0.04,0.18-0.09,0.35-0.15,0.52c-0.05,0.14-0.07,0.31-0.16,0.44
		c-0.08,0.12-0.23,0.2-0.37,0.16c-0.09-0.03-0.16-0.11-0.21-0.19c-0.25-0.38-0.3-0.85-0.37-1.3c-0.01-0.08-0.02-0.15-0.06-0.22
		c-0.19-0.33-0.62-0.1-0.75,0.15c-0.08,0.15-0.08,0.36,0.03,0.49c0.04,0.04,0.08,0.07,0.11,0.12c0.03,0.04,0.05,0.1,0.07,0.15
		c0.24,0.72,0.35,1.73-0.11,2.38c-0.08,0.11-0.18,0.21-0.31,0.25c-0.23,0.07-0.46-0.07-0.65-0.21c-0.19-0.14-0.38-0.31-0.46-0.53
		c-0.07-0.17-0.07-0.35-0.08-0.54c-0.02-0.55,0.02-1.35-0.36-1.79c-0.06-0.07-0.13-0.13-0.22-0.15c-0.19-0.06-0.41,0.07-0.5,0.24
		c-0.09,0.18-0.09,0.39-0.04,0.59c0.04,0.2,0.12,0.38,0.17,0.58c0.06,0.24,0.08,0.49,0.05,0.73c-0.03,0.23-0.13,0.48-0.38,0.52
		c-0.69,0.13-2.25-0.29-2.25-2.9c0-2.6-0.16-6.72-0.16-6.72S90.25,132.62,92.25,131.73z M112.36,179.42
		c0.9-3.87,3.43-15.41,4.92-29.53c0,0,20.5,4.67,27.67,16.17l0.65,0.79C135.54,173.34,124.14,177.66,112.36,179.42z M183.93,98.57
		c-0.55,22.03-10.09,43.3-25.7,58.23c-0.65,0.63-1.31,1.24-1.98,1.85c-4.35-2.87-15.86-9.73-35.81-16.59c0,0,6.58-4.17,9.08-15.5
		c2.5-11.33,14.67-59,1.67-66.17c-13-7.17-9.67-8.67-10.83-18c-1.17-9.33-2.33-13-17-13.83c-14.67-0.83-17.83,4.83-17.83,4.83
		s-0.61,1-2.61,1.67c-2,0.67-6.39,3.56-6.39,8.44s3.83,4.11,3.83,4.11s-1.14-0.44-1.14-1.92s1.14-1.44,1.14-1.44s5.5-0.64,6.81,3.03
		c1.11,3.13-1.32,7.99-3.99,9.7c-1.44,0.92-3.18,1.21-4.84,1.62c-2.37,0.58-4.73,1.46-6.56,3.08c-1.94,1.71-3.13,4.13-3.78,6.63
		c-1.03,4.03-0.97,8.43-0.83,12.56c0.15,4.33,0.62,8.64,1.25,12.92c1.48,9.96,3.96,19.77,6.95,29.38c0.96,3.09,1.98,6.17,3.05,9.22
		l0.07,0.33c0,0,5.96,0.33,8.46,1.58c0,0,0.29,0,0.17,0.5c-0.12,0.5,0,0.83-0.75,0.71c-0.75-0.13-3.17-2.29-43.92-4.04v2.33
		l11.5,0.58c0,0,3.17,0.42,1.33,2.17c-1.83,1.75-8.58,2.92-8.58,2.92l1.5,2.33c0,0,6.83-0.75,10.75-4.75c0,0,8.33-0.42,22.67,2.58
		c0,0,4.58,3.25,4.75,9.58c0,0,0.83,5.67,1.67,9.5c0.83,3.83,3,16.75,3.08,19.67v1.46c-18.34-1.94-35.97-10.12-49.32-23.07
		C26.19,141.86,16.65,120.6,16.1,98.57c-0.27-10.99,1.58-22.09,5.58-32.44c2.29-5.88,5.26-11.52,8.82-16.79
		c15.46-21.76,40.84-36,69.51-36c28.82,0,54.33,14.39,69.76,36.35c3.45,5.16,6.34,10.68,8.58,16.43
		C182.35,76.48,184.19,87.58,183.93,98.57z M83.96,38.19c0,0-2.77,0.4-3.81,2.56l-0.33,0.65c0,0-0.65,0.38-0.71-0.31
		c-0.06-0.69,0.9-2.5,3.17-3.35S83.96,38.19,83.96,38.19z"/>
</g>
</svg>
