<!-- Generated by IcoMoon.io -->
<svg version="1.1" xmlns="http://www.w3.org/2000/svg" width="32" height="32" viewBox="0 0 32 32">
<title>arc_drone</title>
<path d="M24.386 21.325l0.509-3.816 7.105 6.8-5.935-3.459-0.509 3.375-4.341-3.426q-1.001 1.068-2.349 1.67t-2.857 0.602q-1.526 0-2.874-0.602t-2.349-1.67l-4.341 3.426-0.509-3.375-5.935 3.459 7.105-6.8 0.526 3.816 2.798-0.95q-1.509-1.916-1.509-4.375t1.509-4.375l-2.798-0.95-0.526 3.799-7.105-6.783 5.935 3.459 0.509-3.392 4.341 3.442q1.001-1.085 2.349-1.687t2.874-0.602q1.509 0 2.857 0.602t2.349 1.687l4.341-3.442 0.509 3.392 5.935-3.459-7.105 6.783-0.509-3.799-2.815 0.95q1.509 1.916 1.509 4.375t-1.509 4.375zM16.008 22.173q2.595 0 4.435-1.831t1.84-4.443q0-0.594-0.136-1.238 0 0.034 0.008 0.102t0.008 0.119q0 1.713-0.873 3.154t-2.315 2.221q1.017-0.712 1.619-1.831t0.602-2.425q0-2.154-1.518-3.68t-3.671-1.526-3.68 1.526-1.526 3.68q0 1.306 0.602 2.425t1.62 1.831q-1.441-0.78-2.315-2.221t-0.873-3.154q0-0.051 0.008-0.119t0.008-0.102q-0.136 0.644-0.136 1.238 0 2.612 1.84 4.443t4.452 1.831zM20.214 16q0 1.747-1.238 2.976t-2.968 1.229q-1.747 0-2.985-1.229t-1.238-2.976 1.238-2.985 2.985-1.238q1.73 0 2.968 1.238t1.238 2.985zM14.414 15.542q0.136 0.237 0.11 0.28t-0.297 0.025h-0.848q0.339 0.458 0.746 0.526l0.407 0.102q0.034 0.017 0.204 0.059t0.271 0.059q-0.204-0.441-0.102-0.865 0.051-0.288 0.153-0.577 0.085-0.254-0.102-0.441-0.373-0.356-1.085-1.068-0.051-0.068-0.144-0.187t-0.144-0.17q-0.017 0.017 0 0.22t0.051 0.458 0.085 0.339q0.119 0.204 0.348 0.619t0.348 0.619zM16.297 18.154q0.051-0.153 0.102-0.339t0.11-0.424 0.093-0.356q-0.475 0.119-0.636 0.119t-0.534-0.102q-0.068-0.017-0.187-0.051t-0.187-0.068q-0.153-0.051-0.305 0.085-0.441 0.458-1.357 1.374-0.085 0.085-0.068 0.136l0.356-0.059t0.432-0.093 0.331-0.153q0.39-0.237 1.238-0.678 0.102-0.068 0.136-0.042t0.034 0.144q0 0.136-0.008 0.382t-0.008 0.365q0 0.153 0.051 0.237 0.034-0.051 0.136-0.136t0.17-0.17 0.102-0.17zM15.992 16.814q0.356 0 0.611-0.237t0.254-0.594q0-0.339-0.246-0.585t-0.585-0.246-0.594 0.246-0.254 0.585 0.237 0.585 0.577 0.246zM17.552 16.339q-0.068-0.102-0.051-0.127t0.136-0.025h0.814q0.136 0 0.203-0.051-0.373-0.407-0.661-0.475-0.136-0.017-0.729-0.187-0.136-0.017-0.161 0.008t0.008 0.161q0.051 0.17 0.051 0.373-0.017 0.407-0.187 0.848-0.102 0.254 0.102 0.458 0.424 0.407 1.238 1.221 0.102 0.102 0.17 0.153v-0.39q0.017-0.203-0.119-0.458t-0.407-0.755-0.407-0.755zM18.603 13.66q0.068-0.085 0.068-0.102-0.085 0.017-0.246 0.034t-0.246 0.017q-0.237 0-0.458 0.119-0.254 0.153-0.738 0.407t-0.619 0.339q-0.119 0.068-0.153 0.042t-0.034-0.161v-0.661q0-0.254-0.017-0.305-0.034 0.034-0.144 0.119t-0.17 0.144-0.093 0.144q-0.034 0.068-0.339 1.238 0.492-0.237 0.882-0.136 0.373 0.085 0.644 0.17 0.187 0.068 0.339-0.085z"></path>
</svg>
