<!-- Generated by IcoMoon.io -->
<svg version="1.1" xmlns="http://www.w3.org/2000/svg" width="89" height="32" viewBox="0 0 89 32">
<title>auto_rifle</title>
<path d="M78.624 8.704h5.632v2.912h-5.632v0.544h-10.4v-0.544h-0.704v1.28l-0.384 0.416h-0.64v1.184h1.536v-0.448h4.256v2.016h-4.256v-0.352h-1.568v0.384l-0.864 0.832h-2.496l-1.088 0.416h-14.848l-1.312-0.416h-0.32v8.512l-0.48 0.416h-8.928l-0.576-0.576v-2.016l-0.864 0.864v0.672l-0.416 0.768-1.28-0.416-0.48 0.416-12.224-3.2-0.384-0.384 0.96-0.544 0.032-0.864 0.288-1.376 0.512-1.216 1.152-1.76 0.96-1.088 0.448-0.352-0.128-0.32v-0.832l-1.824-0.832h-10.368l-4.8 2.784-0.192 1.344-0.256 0.32-2.176 0.576-0.416-0.128 0.224-2.368 0.128-3.744-0.128-2.944-0.128-1.856 0.032-0.704 0.224-0.352h1.248l0.192 0.192h0.864l0.32 0.352v0.672h14.848l0.288 0.32 2.464-0.608 0.544-0.512 0.672-0.448 0.608-0.128 0.096 0.096v0.448h0.992v-1.376l0.768-0.512h0.256v-1.152h0.672v1.152h0.608l1.696 0.992v0.896h6.368l2.112 0.8h8.448v-0.736l0.256-0.288h5.024l2.144 1.088h4.768l1.024-0.96h4.384l0.16 0.16v1.44h1.024l0.224 0.224v0.832h0.704v-0.544h10.4v0.576zM31.264 22.432l2.784-6.976-0.096-0.512-0.256-0.352-0.544-0.128h-3.84l-0.128 0.704 0.16 0.96 0.256 0.416-0.16 0.224-0.224-0.16-0.352-0.544-0.256-0.768-0.096-0.832h-0.128l-0.352 0.288-0.256 0.576 0.064 0.736 0.32 0.544 0.448 0.448-0.16 0.416h-0.672l-0.512 0.16-0.416 0.48-0.192 0.672-0.192 0.704-0.448 0.544-0.512 0.768-0.384 0.928 0.096 0.224 4.544 1.248 0.608-0.096 0.48-0.224z"></path>
</svg>
