<!-- Generated by IcoMoon.io -->
<svg version="1.1" xmlns="http://www.w3.org/2000/svg" width="3198" height="1024" viewBox="0 0 3198 1024">
<path d="M3065.856 955.392l-8.192 3.072q-55.296-63.488-172.032-169.984h-1065.984v40.96q0 6.144-5.12 8.192-20.48 0-22.528-6.144l-9.216-43.008h-496.64l-10.24 43.008q-2.048 6.144-22.528 6.144-4.096-1.024-4.096-8.192v-40.96h-965.632q-96.256 83.968-142.336 163.84-3.072 5.12-6.144 2.048-4.096-1.024-4.096-8.192v-2.048l1.024-2.048q19.456-109.568 40.96-165.888 36.864-99.328 61.44-106.496 1.024 0 6.656 5.632t11.264 12.288 6.656 7.68q21.504 36.864 55.296 8.192l28.672-23.552q11.264-8.192 67.072-54.784t104.96-84.992 139.264-96.256 185.344-105.984q248.832-126.976 698.368-220.16h2.048l2.048-223.232 8.192-19.456q2.048-3.072 3.072-3.072t27.136 139.264 26.112 142.336v4.096h-12.288q-25.6 6.144-27.648 10.24-7.168 17.408-7.168 52.224v176.128l-21.504 5.12v-12.288l-1.024-3.072q-3.072-8.192-7.168-8.192-5.12 0-11.264 21.504v2.048h-8.192v-77.824h-7.168l-5.12-1.024q-60.416 1.024-120.32 6.656t-111.104 13.312-99.84 17.408-88.064 20.48-74.24 20.992-60.928 19.968-45.056 16.896-28.16 11.264l-10.24 4.096q-6.144 0-84.48 34.304t-209.408 107.008-229.376 149.504h912.384v-6.144q0-9.216 5.12-9.216h30.72q6.144 0 6.144 9.216v6.144h486.4v-6.144q0-9.216 5.12-9.216h30.72q6.144 0 6.144 9.216v6.144h1016.832q-60.416-48.128-95.232-73.728-134.144-88.064-267.264-151.552-304.128-136.192-681.984-157.696-14.336-1.024-26.112 12.288t-16.896 34.816q-14.336 63.488-14.336 205.824 0 11.264-16.384 27.648l-4.096 5.12-6.144 8.192v-524.288h4.096q290.816 39.936 496.128 122.88t440.832 260.096q115.712 83.968 241.664 209.92 10.24 11.264 22.016 10.752t29.184-19.968q3.072-3.072 9.216-10.24t10.24-10.752 5.12-3.584q4.096 0 11.776 9.216t21.504 37.376 29.184 70.144q21.504 62.464 30.72 109.568 5.12 23.552 6.144 38.912zM1577.984 395.264v-156.672q0-28.672 5.12-38.912 1.024-3.072 9.728-4.608t11.776-0.512h1.024v2.048q8.192 45.056 14.336 54.272 20.48 23.552 66.56 32.768h1.024v171.008l-3.072-13.312q-1.024-4.096-3.584-13.312t-4.608-13.312q-25.6-58.368-48.128-66.56-16.384-5.12-30.72 18.432-4.096 9.216-9.216 26.624v2.048h-10.24z"></path>
</svg>
