<!-- Generated by IcoMoon.io -->
<svg version="1.1" xmlns="http://www.w3.org/2000/svg" width="64" height="32" viewBox="0 0 64 32">
<title>cabal_rifle</title>
<path d="M58.656 8.224h1.056v1.504h-1.024v0.896l-0.352 0.32h-12.544v0.416h8.416l0.384 0.352v1.856l-0.352 0.32 0.352 0.096 0.128 0.352 0.352 0.224 0.96 0.384-0.256 0.256-1.152-0.256-0.704-0.288-0.096-0.256h-0.704l-0.768 0.64h-0.736l-5.152 4.128v0.544l-2.016 1.536-0.032 0.416-0.64 0.512-0.48-0.384-0.8 0.064-1.056-1.024-0.416 0.352-0.288-0.256-8.48 7.008-0.512 0.992 0.096 0.192-0.384 1.056-0.928 0.192-4.864-4.832v-0.64l1.536-1.344 0.224 0.224 9.056-7.552-0.352-0.32-8.608 7.168-2.272 1.312-0.48-0.416-0.288-0.032-1.024-0.992v-0.416l-0.192-0.192v-1.376l3.072-5.92 0.032-0.32-0.096-0.48-0.288-0.224h-3.392l-1.696-0.928-0.352-0.32v-1.152l-4.256-1.6-5.408 0.832-3.136-0.64-0.832-1.248-1.6-0.416-1.216-1.952 0.128-0.448 1.888-1.184 0.448 0.16 0.928 1.376 6.016 1.152h7.072l0.512-0.48h5.952l0.288 0.256h3.552l0.96-1.312h0.224v-1.76h4.256v-0.832h-0.192v-0.192h-4.96v-1.152l0.096-0.256h0.96l0.128 0.224v0.64h3.776v-0.128h0.448l0.384-0.256h4.064v-0.256h1.184v0.256l-0.288 0.064v0.928l0.384 0.128v0.704h2.688l0.384 0.16 0.16 0.64h11.776v0.992h-0.672v0.896h1.632l0.384 0.384v0.928zM34.656 15.936v-1.472l-0.672-0.576h-2.336l-0.352 0.416-0.192 0.768-0.096 1.216 0.096 0.064-0.288 0.512h-0.96l-0.224-0.032-1.952 3.68 0.576 0.64z"></path>
</svg>
