<!-- Generated by IcoMoon.io -->
<svg version="1.1" xmlns="http://www.w3.org/2000/svg" width="32" height="32" viewBox="0 0 32 32">
<title>damage_arc</title>
<path d="M26.455 17.097q-1.652-0.032-1.764 0.175t0.683 1.605q0.35 0.636 1.78 3.257t2.224 4.020q0.318 0.508 0.54 1.954t0.286 2.638 0 1.255q-0.699-0.763-4.306-4.56t-5.069-5.196q-2.924 5.339-3.019 5.593-0.477 1.239-1.017 1.875t-1.811 1.589v-4.926q0.032-1.652-0.191-1.764t-1.621 0.683q-0.794 0.445-2.288 1.239t-2.701 1.462-2.256 1.303q-0.54 0.318-2.034 0.54t-2.542 0.27-1.303-0.016q0.508-0.413 4.274-4.004t5.45-5.275q-5.434-2.955-5.688-3.051-1.239-0.477-1.875-1.017t-1.589-1.811h4.926q1.652 0.032 1.764-0.191t-0.683-1.621l-4.004-7.245q-0.318-0.54-0.54-2.034t-0.27-2.542 0.016-1.303q0.413 0.508 4.052 4.322t5.291 5.466q2.955-5.37 3.051-5.593 0.445-1.208 1.001-1.859t1.827-1.637q0 3.496-0.032 4.926-0.032 1.652 0.191 1.78t1.621-0.667l7.245-4.004q0.54-0.318 1.986-0.54t2.638-0.286 1.255 0q-0.572 0.477-4.354 4.083t-5.339 5.196q5.402 2.987 5.656 3.082 1.239 0.477 1.875 1.017t1.589 1.811h-4.926zM16.001 19.036l3.051-3.019-3.051-3.051-3.019 3.051z"></path>
</svg>
