<!-- Generated by IcoMoon.io -->
<svg version="1.1" xmlns="http://www.w3.org/2000/svg" width="32" height="32" viewBox="0 0 32 32">
<title>damage_solar</title>
<path d="M27.588 19.604q1.297 6.002-4.072 10.285-1.659 1.297-3.951 2.021-0.362 0.090-0.392 0.090 1.96-0.754 3.499-2.564 1.598-1.87 1.764-4.177t-1.041-4.358q-1.297-2.232-3.876-6.168t-3.484-5.384l-0.030 0.030q0-0.030-0.030-0.030-0.905 1.448-3.484 5.384t-3.876 6.168q-1.206 2.051-1.041 4.358t1.764 4.177q1.538 1.81 3.499 2.564-0.030 0-0.392-0.090-2.262-0.694-3.951-2.021-5.399-4.313-4.072-10.285 0.603-2.624 2.745-5.911 0.754-1.206 3.318-5.052t3.861-5.987q0.271-0.483 1.659-2.654 1.387 2.172 1.659 2.654 1.327 2.232 4.087 6.379t3.091 4.66q2.172 3.408 2.745 5.911zM19.596 28.2q-1.478 1.87-3.589 1.9-2.081-0.030-3.619-1.9-1.749-2.202-0.392-4.795 0.905-1.659 4.011-6.877 3.016 5.097 3.981 6.877 1.387 2.594-0.392 4.795z"></path>
</svg>
