<!-- Generated by IcoMoon.io -->
<svg version="1.1" xmlns="http://www.w3.org/2000/svg" width="72" height="32" viewBox="0 0 72 32">
<title>fusion_rifle</title>
<path d="M66.944 3.936h0.608v5.792l-0.448 0.448v2.4h-0.768l-0.576 0.608h-13.568l-0.576-0.64h-1.184l-9.76 7.328v8.864l-0.48 0.512h-8.128l-0.416-0.448v-3.36l-13.504-3.904-0.512-0.32-0.224-0.32v-0.48l0.64-0.192 0.448-0.256 0.192-1.312 0.416-1.408 0.832-1.792 1.024-1.632 0.992-1.344 0.256-0.32 0.032-0.192-0.16-0.224h-12.672l-2.144 2.272-0.128 0.288v2.368l-0.448 0.992-2.144 0.768-0.256-0.16-0.16-0.736v-0.512l0.16-2.688 0.096-2.88-0.096-2.88-0.16-1.984 0.096-0.672 0.256-0.192 0.416-0.096h0.576l0.416 0.384h0.704l0.352-0.352h20.704l1.952-0.48 0.928-0.704 0.512-0.768 0.256-0.48h1.856v-0.416h1.312l0.448-0.736 3.232-0.16 0.48-0.544 0.224-1.152h1.088l0.16 1.12 0.672 0.832v0.448h3.68v0.48h21.088zM31.648 22.368v-9.696h-3.712l-0.128 0.32-0.032 0.576 0.128 0.704 0.288 0.64-0.288 0.288-0.192-0.192-0.224-0.288-0.32-0.672-0.128-0.64-0.032-0.736h-0.576l-0.224 0.288-0.16 0.576 0.064 0.736 0.288 0.448 0.608 0.384v0.288l-0.384 0.416-0.352-0.032-0.512 0.064-0.352 0.224-0.288 0.448-0.224 0.8v0.864l-0.384 0.192-0.512 0.544-0.416 0.736-0.256 0.96 8.064 2.336v-0.288zM33.664 9.632v-3.424h-0.64v3.424h0.64z"></path>
</svg>
