<!-- Generated by IcoMoon.io -->
<svg version="1.1" xmlns="http://www.w3.org/2000/svg" width="120" height="32" viewBox="0 0 120 32">
<title>glaive</title>
<path d="M31.52 18.176h0.096v0.032h-0.096v-0.032zM26.144 18.528h0.192v0.064h-0.192v-0.064zM78.4 14.24h37.92c-0.224 0.256-7.936 8.704-13.888 9.088-0.32 0-0.64 0.032-0.992 0.064-0.384 0.064-0.736-0.032-1.12 0.032-0.352 0.032-0.672 0-0.992 0h-26.784c-0.128 0.096-0.224 0.192-0.32 0.256-0.064 0.064-0.16 0.128-0.224 0.192h-1.024c-0.096 0.064-0.288 0.16-0.48 0.288-0.096-0.384-0.32-0.512-0.544-0.64-0.736-0.352-1.44-0.512-2.208-0.48-0.544 0.032-1.024 0.32-1.408 0.832-0.096 0.128-0.16 0.288-0.224 0.384-0.416 0.096-0.672-0.224-0.992-0.288-1.504 0.608-3.616 0.352-3.744-2.336-1.568 0-1.696 0-3.040-0.032-0.032-0.384-0.032-2.080-0.032-2.464 0-0.576-0.128-0.736-0.544-0.768-0.384 0-0.768-0.032-1.152-0.032-0.352 0-0.736 0.032-1.088 0.032-0.32 0.032-0.64-0.032-0.96 0s-0.576 0.032-0.896 0c-0.48-0.032-0.992 0-1.504 0.032-0.288 0-0.576-0.096-0.864-0.032s-0.608 0-0.896 0c-0.288 0.032-0.544-0.064-0.832 0-0.288 0.032-0.576 0.032-0.864 0-0.448-0.032-0.928 0-1.408 0-0.32 0.032-0.672-0.032-0.992 0s-0.672 0-0.992 0c-0.256 0.032-0.512-0.064-0.768 0s-0.512 0-0.768 0c-0.32 0.032-0.672-0.032-0.992 0s-0.608 0.032-0.928 0c-0.512-0.032-1.056 0.064-1.536 0-0.224 0.128-0.384 0.256-0.576 0.352l-0.096-0.224-0.384-0.032c-0.064-0.128-0.096-0.288-0.192-0.416h-6.368c0 0.288 0 0.576-0.032 0.896-0.512 0.16-1.056 0.16-1.472 0.768-0.224-0.16-0.448-0.288-0.576-0.672-0.416-0.416-0.928-0.256-1.44-0.448 0.064 0.096 0.096 0.192 0.128 0.288 0.224 0.448 0.224 1.056 0.064 1.536 0 0.032-0.032 0.064-0.032 0.096-0.128 0.384-0.32 0.64-0.64 0.768-0.448 0.192-0.928 0-1.216-0.608-0.096-0.224-0.224-0.48-0.352-0.736h-5.024c-0.032-0.16-0.064-0.288-0.096-0.448h4.064c0.064-0.16 0.096-0.288 0.16-0.448-0.224-0.128-0.448-0.064-0.64-0.064-0.224-0.032-0.416-0.096-0.64-0.128l-0.16-0.224h-14.464c-0.288 0.16-0.48 0.256-0.704 0.352-0.192 0.128-0.416 0-0.608 0.032-0.224 0.064-0.448 0.16-0.576 0l-0.544 0.064-0.128 0.16c-0.224-0.096-0.448-0.032-0.672 0-0.096 0-0.224 0.096-0.32 0.192s-0.16 0.128-0.192 0.384c-0.032 0.128 0 0.224 0 0.352l0.224 0.032c0 0.192 0 0.48-0.032 0.672-0.032-0.032-0.128 0-0.192-0.032v0.992h-1.536c0-0.096-0.032-0.192-0.032-0.32 0-0.288-0.064-0.288-0.16-0.544-0.448-1.024-0.768-1.728-0.928-2.88-0.096-0.864-0.128-1.152-0.032-2.016 0.128-1.024 0.32-1.728 0.64-2.656 0.032-0.128 0.512-0.992 0.512-1.632 0.48-0.064 0.992 0 1.472 0 0.032 0.352-0.032 0.672 0 0.896l0.256 0.064 0.032 0.512-0.224 0.032c-0.032 0.48 0.128 0.896 0.576 1.024l0.224-0.096 0.128 0.16 0.352-0.064 0.224 0.224 0.224-0.128 0.256 0.16 0.352-0.224 0.544 0.192c0.352-0.192 0.672-0.032 1.024 0.256h18.368c0.608 0 1.184 0.096 1.76-0.352l0.064-0.256c0.16-0.128 0.32-0.256 0.48-0.416 0.448 0.512 0.96 0.704 1.536 0.704v1.056h0.32c1.888 0 3.744 0 5.632-0.032 0.16 0 0.32-0.032 0.48-0.064 0.032-0.16 0.064-0.256 0.096-0.384h0.416l0.096-0.224c0.192-0.16 0.32 0.096 0.448 0.224 0.32 0 0.64-0.032 0.96 0 0.288 0.032 0.608 0 0.896 0h0.832c0.384 0 0.736 0.032 1.12 0 0.288-0.032 0.608 0.032 0.896 0 0.352-0.032 0.736 0 1.12 0h0.704c0.352 0 0.704-0.032 1.024 0s0.608 0 0.928 0 0.64-0.032 0.992 0c0.256 0.032 0.512 0 0.768 0h1.024c0.32 0 0.64 0.032 0.992 0 0.32-0.032 0.64 0.032 0.96 0 0.288-0.032 0.608 0 0.928 0h3.808c0.064-0.192 0.16-1.024 0.256-1.248 0.032 0 0.128-0.032 0.192-0.032 0.064-0.064 0.096-0.128 0.128-0.224h5.312c2.176 0 4.352 0 6.528 0.032 0.384 0 0.896-0.064 1.056-0.224 0.256-0.288 0.448-0.448 0.672-0.576h0.832c0 0.384 0.064 0.384-0.096 0.768 0.416 0.256 1.056 0.128 1.632 0.256 0.032 0.096 0.064 0.224 0.096 0.32h1.504c0.224 0 0.896-0.672 1.024-0.96 0.096-0.16 0.16-0.32 0.224-0.48h0.896c0.096 0.64-0.064 0.928 0 1.568zM26.496 19.104c0.064-0.032 0.128-0.032 0.192-0.032v-0.064h-0.192v0.096zM28.384 20.832c0.416 0 0.704-0.448 0.704-0.992 0-0.576-0.288-1.024-0.704-1.024-0.384 0-0.704 0.448-0.704 1.024 0 0.544 0.32 0.992 0.704 0.992zM31.872 18.688h0.128c0 0 0-0.032-0.032-0.032h-0.096v0.032zM64.8 23.136c0.416-0.288 0.608-0.832 0.576-1.504h-3.168c0.064 0.64 0.16 0.992 0.32 1.28 0.288 0.48 1.504 0.8 2.272 0.224z"></path>
</svg>
