<!-- Generated by IcoMoon.io -->
<svg version="1.1" xmlns="http://www.w3.org/2000/svg" width="32" height="32" viewBox="0 0 32 32">
<title>grenade</title>
<path d="M8.3 15.889q4.977 4.977 9.929 9.953-1.362 1.362-2.959 1.597t-3.082-0.446-2.922-2.117-2.117-2.922-0.446-3.095 1.597-2.971zM14.737 8.338l-4.878 1.188-3.565 3.516-1.089 2.872-0.545-0.52 0.619-3.243 4.011-4.036 4.481-2.055-0.025-0.050 1.436-1.436 4.407-0.074 2.278 2.278-0.47 0.495-1.907 1.906-2.006-2.006h-0.792l-1.164 1.164h-0.792zM24.691 15.097l-0.718 0.718q1.164 3.12-1.312 5.596-3.64-3.615-9.953-9.929 2.476-2.451 5.62-1.312l0.718-0.718zM8.126 14.651l3.343-3.343 11.365 11.365-3.343 3.343zM27.29 10.418l0.049 1.436-2.6 2.625-0.743-0.768-3.59-3.565-0.743-0.743 2.625-2.625 1.436 0.050z"></path>
</svg>
