<svg xmlns="http://www.w3.org/2000/svg" viewBox="0 0 1659 930">
  <title>Asset 1</title>
  <g id="Layer_2" data-name="Layer 2">
    <g id="Layer_1-2" data-name="Layer 1">
      <path d="M902,292q-3,1-10,1h-1q-3,0-3,2a5.76231,5.76231,0,0,1-2,4q-1,1-7,1l-2-1a62.11142,62.11142,0,0,1,1,12h559V290h-22a2.88126,2.88126,0,0,0-1,2,2.5,2.5,0,0,1,0,4,4.07441,4.07441,0,0,1-3,1q-15,0-21,1-3,0-5-4-2.00005-6-10-4h-12l-2,4q0,4-4,4h-19q-5.00005,0-5-4-.99995-4-7-4h-14q-3.99995,0-4,2a6.78371,6.78371,0,0,1-2,5q-2.00005,2-7,2-.99995-2-3,0a4.07441,4.07441,0,0,1-3-1q-2.00005-1-2-5v-2q-2.00005-9-10-8-6.99995,0-10,1a53.04681,53.04681,0,0,0-6,.5,53.04681,53.04681,0,0,1-6,.5h-5q-9.99995,2-13-6a.8839.8839,0,0,0-1-1h-12q-.99995-1-4-1h-11a106.10225,106.10225,0,0,1-12-1,106.10225,106.10225,0,0,0-12-1h-6q-9.99995-2-14,3-.99995,1-3,0-5.00005-1-9,3-2.00005,2-3,2l-4,4a15.66775,15.66775,0,0,0-3,4l-3,2,1-3q2.00005-8-4-20a2.88126,2.88126,0,0,0-1-2v-1q-5.00005-8-9-10t-4-9V91a352.86707,352.86707,0,0,0-1-60V26q-3-17-4-19a.88389.88389,0,0,1-1-1q-2.00005-4-2-6h-6a68.56161,68.56161,0,0,0-1,13v95q0,5,.5,14.5t.5,14.5v70a110.05818,110.05818,0,0,0-1,17q0,3-2,4-6,4-15,15a58.57316,58.57316,0,0,1-7,8,23.14177,23.14177,0,0,1-5,3q-9.99995,1-30,1H966q-32.00005,0-48,1-8.00005,1-8,9a13.92773,13.92773,0,0,0-1,6q-2.00005,8-1,12v2q3,5,2,6t-5,1Zm205-26q6,6,1,13l-1,1-14-14,1-1Q1100.99995,260,1107,266Zm-14,0,14,14-1,1q-3.99995,2-6,2a9.59386,9.59386,0,0,1-7-3q-6-6-1-13Zm-88,16q8.00005,0,10,9v1H995v-1Q997.00006,282,1005,282Zm10,11q-2.00005,9-10,9t-10-9v-1h20ZM937,480V318H878a941.8122,941.8122,0,0,0-12,149v13Zm336-163q-3,0-3,4V476q0,4,3,4h40q3.99995,0,4-4V321q0-1-2-3,0-1-2-1Zm153,189a30.336,30.336,0,0,1,9-1h2V491l-1-2v-4H866v19a2.881,2.881,0,0,1,1-2l1-1q1-2,4-2h5q10,0,14,5,5,5,16,3h10v-1l1-1q2.00005-6,10-6,9-2,14,3l1,2q3.99995,4,7,3,3.99995-2,6-2h8q3,2,5,0a5.76207,5.76207,0,0,0,2-4q0-2,1-2,3-1,10-1a16.25016,16.25016,0,0,0,8,0q.99995,0,4,3v2h1a6.78387,6.78387,0,0,0,5,2,26.62649,26.62649,0,0,1,12,3q3.99995,3,14,7,2.00005,2,8.5,5.5t9.5,5.5q2.00005,2,3,2,5.00005,5,9,5,6.99995-1,16,4a7.67535,7.67535,0,0,0,3,1,8.69932,8.69932,0,0,1,3.5,1.5,19.34059,19.34059,0,0,1,3.5,2.5,111.01157,111.01157,0,0,1,15,7h1a4.07437,4.07437,0,0,1,3,1v2q0,5-5,5h-2q-3,1-4,0h-2v3a8.876,8.876,0,0,0,1,4,8.876,8.876,0,0,1,1,4q2.00005,22,2,27-2.00005,29,1,43,.99995,5-2,8-6.99995,4-7,21l1,2q0,4,.5,13t.5,14q0,3-.5,9.5t-.5,9.5a26.01383,26.01383,0,0,0-1,8q0,5,3,6,3.99995,2,4,8v9a198.90411,198.90411,0,0,0,1,23v5q0,12,5,18a3.92115,3.92115,0,0,1,3,4h105q3.99995-1,4-8v-1q-2.00005-33,0-51v-2q0-2,2-6,3-2,3-10-.99995-2-1-8-2.00005-12-2-17a32.90266,32.90266,0,0,0-2-10q-2.00005-15,3-23l-1-1v-1a125.70747,125.70747,0,0,1-2-20V628a161.594,161.594,0,0,1,1-21q2.00005-22-2-33a21.45334,21.45334,0,0,0-1-5.5,22.52157,22.52157,0,0,1-1-4.5q0-11-4-15-2.00005-2-1-4a4.07466,4.07466,0,0,1,1-3q2.00005,0,2-1,9-5,11-4,3.99995,2,7-1l1-1,2-1a155.35644,155.35644,0,0,0,15-11q3.99995-2,5-2a21.44968,21.44968,0,0,1,5,4q6,10,20,10a53.30467,53.30467,0,0,0,12,1q18.99995,0,29,1,5.00005,0,6-1t6-7a15.66962,15.66962,0,0,0,4-3q6-6,6-9a20.37041,20.37041,0,0,1-1-14q2.00005-6,6-6h2q6,2,14,0,3.99995,0,6,2,.99995,1,1,4,0,2,1,2,0,1,2,1h16q3.99995,0,4-2,.99995-7,9-7h15a6.78387,6.78387,0,0,1,5,2q.99995,1,1,4-2.00005,2,2,2Q1419,506,1426,506Zm-287,0q0-9,8-9,9,0,9,9t-9,9Q1138.99995,515,1139,506Zm125-189-269,1V480h269Zm-317,1q-3.99995,0-4,3V476q0,4,4,4h39q3.99995,0,4-4V320l-1-1a4.07441,4.07441,0,0,0-3-1ZM770,587h1l2,1V541a35.06656,35.06656,0,0,1-12.5-5,81.51374,81.51374,0,0,1-10-7q-3.5-3-3.5-4L582,353H772V310H492q-28,0-49,21-97,97-124,126-20,21-37,27a17.7509,17.7509,0,0,1-8,2H166q-5,0-5-2-2-9-1-13a3.20325,3.20325,0,0,1,3-2q4-2,4,3a4.87949,4.87949,0,0,1,1,3.5,4.87949,4.87949,0,0,0,1,3.5v1h13l-6-16V382l9-31q0,1-2,1-6,2-9,10a7.67522,7.67522,0,0,1-1,3,7.67522,7.67522,0,0,0-1,3,61.98758,61.98758,0,0,0-4,12,5.87634,5.87634,0,0,1-3,5q-1,2-6,0-7-2-21-2h-5a91.28749,91.28749,0,0,0-27,4q-3,2-3,4t.5,6.5q.5,4.5.5,6.5v1h60v4H104v1h60v4H105v1h59v4H105v1h59v4H105v1h59v4H105v1h59v4H106v1h58v4H106v1h58v5H106v1h58v4H106a18.39355,18.39355,0,0,0-1.5,5.5,41.34041,41.34041,0,0,0-.5,5.5q0,5,4,5,5,1,5,6a41.27942,41.27942,0,0,1,1.5,9q.5,6,.5,9,6,27,23,37,6,4,11,4l138-1,6-1q6-1,20-10.5T344,492L477,359l3-2a47.10517,47.10517,0,0,1,7.5-2.5A43.51609,43.51609,0,0,1,499,353h17q4,0,8,6a.88388.88388,0,0,1,1,1L740,581A75.34546,75.34546,0,0,0,770,587ZM572,294H506a512.49744,512.49744,0,0,0-64,0q-13,1-25,15-2,4-5,4h-7q-11,0-16-3-1-1-8-1h-6a42.07127,42.07127,0,0,1-10-1h-3q-5,5-17,5H312q-32,0-50,7-3,1-8.5,3.5T246,327q-4,2-14,6l-5,3a275.41788,275.41788,0,0,1-29,11l-1,1q-2,0-6,2l-10,33v80l7,17h86a13.92745,13.92745,0,0,0,6-1q15-5,35-26,17-19,124-126,23-23,53-23H682q-8-4-12-8-6-5-18-3-13,1-38,1H572Zm200,64H595L751,521q0,1,3,3.5a85.34189,85.34189,0,0,0,8.5,6A31.19918,31.19918,0,0,0,773,535Q773,411,772,358Zm8,285q1,15,3,18h61q7,0,11-4,16-9,16-19a13.67735,13.67735,0,0,0-.5-3,16.43866,16.43866,0,0,1-.5-4q0-2-2-14-9-99-9-149,0-101,12-155v-1q0-20-11-31-9-9-23-9H786a8.87558,8.87558,0,0,0-4,1,17.75129,17.75129,0,0,0-2,8V643Zm698-165,37-1h134q3.99995,0,5-1a4.53012,4.53012,0,0,0,1-5l1-2v-3l1-18a246.61943,246.61943,0,0,0,1-25.5,216.92931,216.92931,0,0,1,1-24.5q0-32-1-49-.99995-8-1-26,0-4-5-4H1442q-3,0-3-2H1322V480h116q2.00005-3,6-2h34ZM592,496q3,0,3-2a3,3,0,0,0-6,0Q589,496,592,496Zm57,39h38L521,364a.88388.88388,0,0,0-1-1q-2-4-4-4t-7.5-.5q-5.5-.5-9.5-.5-12,0-18,5L348,496q-40,40-62,40H176a2.88113,2.88113,0,0,1,1,2q2,5,6,5a21.0669,21.0669,0,0,1,3.5.5,21.0669,21.0669,0,0,0,3.5.5,16.43768,16.43768,0,0,1,4,.5,13.67631,13.67631,0,0,0,3,.5q6,2,6,6a10.81216,10.81216,0,0,0,3,8q2,4,0,10a2.88113,2.88113,0,0,0-1,2q-4,12-17,30a23.1443,23.1443,0,0,0-3,5q-24,35-48,72-6,10-18.5,28.5T102,731L84,758q-10,16-15,23L39,826a195.30039,195.30039,0,0,0-12.5,17.5Q19,855,17,858,7,874,2,881q0,1-2,1v3H1q9,9,29,11a17.77037,17.77037,0,0,0,5,1.5,31.42719,31.42719,0,0,0,5,.5q39,8,124,24a223.78755,223.78755,0,0,0,40,6h1a5.76223,5.76223,0,0,1,4,2h1q1-2,5-2a7.675,7.675,0,0,0,3-1,2.88109,2.88109,0,0,0,2-1q7-4,11-14t2-18q-3-12-1-21,4-15,9-24,2-4,6.5-12t6.5-12q1-2,23-43,9-19,29-25,20-7,15-27-6-24,8-49,6-8,9-9a56.20354,56.20354,0,0,1,13-2q15-2,16-3,10-2,31-2h12a338.49831,338.49831,0,0,1,52,0h27q21,0,26-23,1-5,1-16V606q0-22,1-34,0-7,7-10h5q5,5,13,2,5-1,13-3h5q10-2,11-13v-3q1,0,1-2a2.881,2.881,0,0,1,1-2H460a3,3,0,0,1,0-6H649ZM515,550q0,4-4,4t-4-4q0-4,4-4T515,550Zm-16,9q3,0,4,2a.88387.88387,0,0,1,1,1,2.881,2.881,0,0,1-1,2v30a180.87884,180.87884,0,0,1,0,38q-1,16-8,21t-23,6H410a210.59285,210.59285,0,0,0-41,0q-9,0-10-8-3-12-3-36V567q0-4,3-5,5,0,6,3a10.81214,10.81214,0,0,0,8,3,47.46224,47.46224,0,0,1,11,1q14,2,15,15a30.335,30.335,0,0,1,1,9q0,3,.5,8a38.114,38.114,0,0,0,1.5,8q3,22,25,40a.88387.88387,0,0,1,1,1q2,2,3,1a1.76778,1.76778,0,0,0,2-2q3-5-1-8-14-8-19-26a38.5423,38.5423,0,0,1,4-32q2-3,8-7,4-2,18-14,3-3,10-3h46ZM468,411q0-11,12-11,11,0,11,11t-11,11Q468,422,468,411ZM575,513l-1-1q-1-1-1-4a4.07438,4.07438,0,0,1,1-3l12-11-11-11q-1,0-1-3a4.07438,4.07438,0,0,1,1-3q3-4,7,0l10,10,9-9q4-4,6,0,3,3,0,7l-8,9,10,10a5,5,0,0,1,0,6q-3,3-7,0l-10-10-11,12-1,1h-5Zm527,301v3a4.07466,4.07466,0,0,1,1,3q0,4,5,4,45,2,77,1h4q8.00005,0,10-1,2.00005-2,2-8v-6a8.876,8.876,0,0,1,1-4v-1H1102v9Z"/>
    </g>
  </g>
</svg>
