<svg xmlns="http://www.w3.org/2000/svg" viewBox="0 0 2364 744"><path d="M1738,578l-14,23-17,12-22,2-21-4-9-14-3-15V385l3-22,10-14,15-5h122l19,4,11,8,3,19-6,25Zm-206,39v34H1042v1H826l-8-6V633l4-27,10-22,13-25,12-7,4-9V530l4-13,12-17,15-16h22l4-22-7-13-8-9-7-10V416l4-19,8-18,11-13,2,18,13,44,18,29,14,12,7-9-11-17-6-20-4-23,5-23,11-14h69l-6,13V617h479V195H1031V184h501V617ZM711,456l-33,9H632l-35-15-20-24-7-29,6-35,11-14,18-4,33-4,70,8,12,7,14,17,6,25-6,34ZM2351,154V119l-48-45h-73V89H1596l-17-17H1368V37h-35V66H1178l-29-29H1007L970,6l-8-6H838L825,10,804,47H768V26H734L719,47,677,62,148,80l-40,27-5-19L90,75H33L18,81,4,102,0,140l4,67,8,130L8,451,4,555l7,25,7,10,24-1,36-4,14-8,12-27,15,16L726,733l64,11h918l52-5,33-11,29-18,21-26,109-243,24-45,24-21,29-9h54l9-10V316l-11-11h251l14-23h18V164h-23Z"/></svg>