<svg xmlns="http://www.w3.org/2000/svg" viewBox="0 0 1659 930"><path d="M1102,811v6a3.67,3.67,0,0,1,1,3c0,4,1,4,5,4,21,1,49,2,77,1h4c4,0,8,0,10-1,2-2,2-5,2-8,0-2-1-4,0-6a7.56,7.56,0,0,1,1-4v-1H1102ZM577,513c-1,0-2-1-3-1-1-1-1-2-1-4a3.67,3.67,0,0,1,1-3l12-11-11-11c-1,0-1-2-1-3a3.67,3.67,0,0,1,1-3,4.83,4.83,0,0,1,7,0l10,10,9-9c2-2,5-2,6,0a4.83,4.83,0,0,1,0,7l-8,9,10,10a5,5,0,0,1,0,6,4.83,4.83,0,0,1-7,0l-10-10-11,12C580,512,579,513,577,513Zm-97-91c-7,0-12-5-12-11s5-11,12-11a11,11,0,0,1,0,22Zm3,137h16c2,0,3,0,4,2,1,0,1,2,0,3-1,4,0,7,0,11v19a241,241,0,0,1,0,38c-2,22-12,26-31,27H410a280.45,280.45,0,0,0-41,0c-6,0-9-2-10-8-3-12-3-24-3-36V567c0-2,0-4,3-5,2,0,5-1,6,3,2,2,4,3,8,3a41,41,0,0,1,11,1q13.5,1.5,15,15a27.69,27.69,0,0,1,1,9c1,6,1,11,2,16,2,15,10,28,25,40,1,0,1,0,1,1,1,1,2,2,3,1a2.15,2.15,0,0,0,2-2c2-4,3-5-1-8-9-5-16-15-19-26a43.86,43.86,0,0,1,4-32c2-3,5-5,8-7,7-4,12-9,18-14,3-3,6-3,10-3Zm28-13c3,0,4,1,4,4a3.66,3.66,0,0,1-4,4,4.3,4.3,0,0,1-4-4A3.66,3.66,0,0,1,511,546Zm72-11H687L521,364c0-1,0-1-1-1-1-2-3-4-4-4-5,0-9-1-17-1-12,0-18,5-18,5L348,496c-40,40-60,40-62,40H176c1,1,1,1,1,2,1,3,3,5,6,5,2,0,5,1,7,1,3,0,5,1,7,1,4,1,6,2,6,6a11.35,11.35,0,0,0,3,8c2,4,1,7,0,10-1,1-1,1-1,2-4,11-10,20-17,30a21.86,21.86,0,0,0-3,5q-24,34.5-48,72c-11,18-24,36-35,53L84,758c-5,8-10,16-15,23L39,826c-8,11-15,22-22,32-5,8-10,16-15,23,0,1-1,1-2,1v3H1c8,8,19,10,29,11,3,1,6,1,10,2,42,9,86,17,124,24a298.25,298.25,0,0,0,40,6h1a7.58,7.58,0,0,1,4,2h1c1-2,3-2,5-2,2-1,4-1,5-2,9-6,15-22,13-32-2-7-3-14-1-21,2-8,5-17,9-24,4-8,9-16,13-24,8-14,15-28,23-43a48,48,0,0,1,29-25c11-4,18-16,15-27-4-16-2-31,8-49,2-3,4-8,9-9a58.53,58.53,0,0,1,13-2c6-1,11-1,16-3,10-2,20-2,31-2h12a451,451,0,0,1,52,0h27c14,0,23-8,26-23,1-5,1-11,1-16V606c0-11,0-22,1-34,0-4,3-8,7-10h5c3,3,8,4,13,2,5-1,9-2,13-3h5c8-2,10-4,11-13v-3c1-1,1-3,2-4H460a3.19,3.19,0,0,1-3-3,2.65,2.65,0,0,1,3-3Zm6-41c0,1,2,2,3,2,2,0,3-1,3-2a2.65,2.65,0,0,0-3-3A3.19,3.19,0,0,0,589,494Zm880-16h9l37-1h134c2,0,4,0,5-1a4.4,4.4,0,0,0,1-5c0-1,1-2,1-3v-2l1-18c1-17,1-33,2-50,0-17,0-32-1-49-1-8-1-17-1-26,0-4-1-4-5-4H1442c-2,0-3-1-3-2H1322V480h116c1-2,3-3,6-2ZM780,625v18c1,11,2,16,3,18h61c4,0,8-1,11-4,12-7,16-17,16-19s-1-4-1-7c0-4-1-8-2-14-3-33-9-94-9-149,0-71,10-146,12-155v-1c0-3-1-21-11-31-6-6-14-9-23-9H786a7.56,7.56,0,0,0-4,1,15.49,15.49,0,0,0-2,8Zm-7-90c0-52,0-124-1-177H595L751,521C751,522,762,532,773,535ZM603,294H506c-21-1-43-1-64,0-9,1-17,6-25,15-1,2-2,4-5,4h-7c-5,0-11,0-16-3-2-2-5-1-8-1h-6a37.51,37.51,0,0,1-10-1h-3c-5,5-11,5-17,5H312c-18,0-35,1-50,7-6,2-11,5-16,7-4,2-9,4-14,6l-5,3a248.84,248.84,0,0,1-29,11l-1,1c-2,0-4,1-6,2l-10,33v80l7,17h86a12.68,12.68,0,0,0,6-1c6-2,18-8,35-26,26-29,123-125,124-126s24-23,53-23H682c-4-2-8-4-12-8-5-4-12-4-18-3-13,1-26,1-38,1ZM740,581c9,4,18,6,30,6h1a3.1,3.1,0,0,1,2,1V541c-13-3-26-15-26-16L582,353H772V310H492c-26,0-48,20-49,21s-97,97-124,126c-18,19-31,25-37,27a18.84,18.84,0,0,1-8,2H166c-2,0-5,0-5-2-1-5-2-9-1-13,1-2,2-2,3-2,2-1,4,1,4,3,1,2,1,5,2,7v1h13l-6-16V382l9-31c0,1-1,1-2,1-5,2-7,5-9,10-1,2-1,4-2,6a56.38,56.38,0,0,0-4,12,5.5,5.5,0,0,1-3,5q-1.5,1.5-6,0c-7-2-14-2-21-2h-5a93,93,0,0,0-27,4c-2,1-3,1-3,4,0,4,1,9,1,13v1h60v4H104v1h60v4H105v1h59v4H105v1h59v4H105v1h59v4H105v1h59v4H106v1h58v4H106v1h58v5H106v1h58v4H106c-1,3-1,7-2,11,0,3,1,5,4,5,4,1,5,2,5,6,1,5,1,12,2,18,3,13,8,28,23,37,3,2,7,4,11,4l138-1s19,0,57-38L477,359s8-6,22-6h17c3,0,6,3,8,6a1,1,0,0,1,1,1ZM986,318H947c-2,0-4,1-4,3V476a4.3,4.3,0,0,0,4,4h39a4.3,4.3,0,0,0,4-4V321c0-1-1-1-1-2A3.67,3.67,0,0,0,986,318Zm278,162V317l-269,1V480Zm-117,35c-5,0-8-4-8-9s3-9,8-9a9,9,0,0,1,0,18Zm269-10c3,1,7,1,10,1a27.69,27.69,0,0,1,9-1c1,1,1,0,2,0V491c0-1-1-3-1-5v-1H866v19c1-1,1-2,2-3,1-3,3-2,4-2h5c5,0,9-1,14,5,4,4,10,4,16,3,3,0,7-1,10,0v-1l1-1c1-3,5-6,10-6,5-1,11,0,14,3a3.49,3.49,0,0,1,1,2c2,2,4,4,7,3,2-1,4-2,6-2h8c2,1,4,1,5,0a5.2,5.2,0,0,0,2-4c0-1,0-2,1-2,3-1,7-1,10-1a11,11,0,0,0,8,0c3,0,3,2,4,3v2h1a7.64,7.64,0,0,0,5,2,26.63,26.63,0,0,1,12,3c4,3,9,5,14,7,6,4,13,7,18,11,1,1,2,2,3,2,3,3,6,5,9,5,6-1,11,1,16,4,1,0,2,1,3,1,2,1,5,3,7,4a100.92,100.92,0,0,1,15,7h1a3.67,3.67,0,0,1,3,1,1.39,1.39,0,0,1,0,2c0,4-2,5-5,5h-2c-2,1-3,1-4,0h-2v3c1,3,1,5,2,8,1,9,3,18,2,27-1,14-2,29,1,43,1,4,0,6-2,8-8,5-7,13-7,21l1,2c0,9,1,18,1,27,0,6-1,13-1,19a22,22,0,0,0-1,8c0,4,0,5,3,6,4,2,4,5,4,8v9a184.84,184.84,0,0,0,1,23v5c0,7,0,12,5,18a5.36,5.36,0,0,1,3,4h105c4-1,4-3,4-8v-1c-1-17-2-32,0-51v-2c0-2,1-4,2-6,3-2,3-6,3-10-1-2-1-5-1-8-1-6-2-11-2-17a29.59,29.59,0,0,0-2-10c-1-7-2-15,3-23l-1-1v-1a123.1,123.1,0,0,1-2-20V628a147.69,147.69,0,0,1,1-21c1-11,2-22-2-33-1-3-1-7-2-10,0-6,0-11-4-15-1-1-2-2-1-4a3.67,3.67,0,0,1,1-3c1,0,2,0,2-1,4-2,8-5,11-4,3,2,5,1,7-1l1-1,2-1a143.09,143.09,0,0,0,15-11c2-1,4-2,5-2,2,1,3,2,5,4,4,7,10,10,20,10a48.69,48.69,0,0,0,12,1,281,281,0,0,1,29,1c2,0,5,0,6-1,1-3,4-5,6-7a13.8,13.8,0,0,0,4-3c3-3,6-7,6-9a22.94,22.94,0,0,1-1-14c1-4,2-6,6-6h2a33,33,0,0,0,14,0c2,0,4,0,6,2,1,1,1,2,1,4,0,1,0,2,1,2,0,1,1,1,2,1h16c4,0,4-1,4-2,1-7,5-7,9-7h15a7.64,7.64,0,0,1,5,2c1,1,1,2,1,4C1413,504,1413,505,1416,505ZM1313,317h-40c-1,0-3,2-3,4V476c0,2,2,4,3,4h40a4.3,4.3,0,0,0,4-4V321c0-1-1-2-2-3C1315,317,1314,317,1313,317ZM866,480h71V318H878c-4,25-12,87-12,149Zm149-188v1c-1,5-5,9-10,9s-9-4-10-9v-1Zm-20-1c1-5,5-9,10-9s9,4,10,9v1H995Zm97-24,1-1,14,14-1,1c-2,1-4,2-6,2a9.08,9.08,0,0,1-7-3C1090,277,1089,271,1092,267Zm2-2c4-3,10-2,13,1,4,4,4,9,1,13l-1,1-14-14ZM905,292h-3c-3,1-7,1-10,1h-1c-2,0-3,1-3,2a5.2,5.2,0,0,1-2,4c-2,2-5,1-7,1a3.49,3.49,0,0,0-2-1,62.45,62.45,0,0,1,1,12h559V290h-22c-1,1-1,1-1,2a3,3,0,0,1,0,4,3.67,3.67,0,0,1-3,1c-8,0-15,0-21,1-3,0-4-2-5-4-2-6-6-5-10-4-2,0-4,1-6,0h-6c-1,1-1,2-2,4a3.66,3.66,0,0,1-4,4h-19c-1,0-5,0-5-4-1-3-3-4-7-4h-14c-3,0-4,0-4,2a7.64,7.64,0,0,1-2,5c-2,2-4,2-7,2a1.88,1.88,0,0,0-3,0,3.67,3.67,0,0,1-3-1c-2-1-2-3-2-5v-2c-2-8-3-9-10-8-3,0-7,0-10,1-4,0-8,1-12,1h-5c-4,1-10,2-13-6,0-1,0-1-1-1h-12c-1-1-3-1-4-1h-11c-8-1-16-1-24-2h-6c-5-1-10-2-14,3a1.88,1.88,0,0,1-3,0c-4-1-7,1-9,3-1,1-2,2-3,2l-4,4a13.8,13.8,0,0,0-3,4l-3,2,1-3c2-9-1-14-4-20,0-1-1-2-1-3-3-5-5-8-9-10s-4-6-4-9V196c0-26,1-54,0-81V91a400.73,400.73,0,0,0-1-60V26c-1-6-1-13-4-19a1,1,0,0,1-1-1c-1-2-2-3-2-6h-6a61.51,61.51,0,0,0-1,13v95c0,10,1,19,1,29v70a102.84,102.84,0,0,0-1,17c0,2,0,3-2,4-6,4-10,9-15,15a57.16,57.16,0,0,1-7,8c-2,2-3,2-5,3-10,1-20,1-30,1H966c-16,0-32,0-48,1-6,1-8,4-8,9a12.68,12.68,0,0,0-1,6c-1,4-2,8-1,12,1,1,0,1,0,2,2,3,3,5,2,6S907,292,905,292Z"/></svg>