<!-- Generated by IcoMoon.io -->
<svg version="1.1" xmlns="http://www.w3.org/2000/svg" width="62" height="32" viewBox="0 0 62 32">
<title>hand_cannon</title>
<path d="M57.76 8.704h-2.72v1.056h1.184l0.32 0.32v3.52l-0.768 0.256-23.2 1.088-1.12-1.088h-0.896l-1.76 1.824h-0.416v0.352l-3.168 3.104-1.376 1.152-1.12 0.512-1.696 0.448-1.536 0.096-1.184-0.128-1.12-0.352-1.056-0.576-0.864-0.192-0.864 0.064-0.512 0.16-0.352 0.448-0.224 0.864v0.864l-0.704 0.544-0.384 0.64-0.832 3.328 0.352 1.664 0.608 0.448v0.416l-0.64 0.16-7.808-2.272-0.096-0.736 0.096-1.472 0.288-1.792 0.768-2.432 0.96-2.176 1.248-1.92 1.728-1.952 0.64-0.8 0.192-0.608v-0.8l-0.416-0.736-0.8-0.832-1.184-0.672 0.736-0.736h1.664l0.384-0.416 1.728-0.416 0.48-0.544 0.512-0.672 0.384-0.928 0.192-1.024 0.512-0.64h0.48l0.192-1.312 0.096-0.928h9.408l1.248 1.28h25.184l0.64-0.64h5.6l0.992 1.024v4.16zM24.896 17.76v-1.056l-0.224-0.768-0.48-0.48-0.64-0.224-1.664-0.064h-2.272l-0.64 0.864-0.128 0.704 0.064 0.512 0.224 0.384 0.32 0.384-0.288 0.256-0.48-0.448-0.416-0.704-0.288-1.024-0.128-0.544-0.288 0.032-0.608 0.544-0.48 0.704-0.192 0.96v0.992l0.448 0.896 0.768 0.608 1.312 0.384h1.088l1.28-0.128 1.28-0.352 0.864-0.448 0.8-0.608 0.512-0.608z"></path>
</svg>
