<!-- Generated by IcoMoon.io -->
<svg version="1.1" xmlns="http://www.w3.org/2000/svg" width="32" height="32" viewBox="0 0 32 32">
<title>hunter_smoke</title>
<path d="M28.005 18.242q1.692 0.183 2.843 1.457t1.152 2.986q0 0.428-0.102 0.897h-7.704q-0.143-0.408-0.163-0.55-0.387-2.446 0.978-3.669-1.040 0.632-1.559 1.743t-0.316 2.354q0 0.082 0.020 0.122h-6.196q-1.406-0.795-2.222-2.232t-0.836-3.006q0-1.569 0.367-2.548-1.203 1.794-1.141 3.71 0.061 2.405 1.732 4.076h-6.665q-0.082-0.978-0.673-1.824t-1.508-1.253q1.284 1.284 1.121 3.078h-7.113q0-0.061-0.010-0.173t-0.010-0.173q0-1.508 1.080-2.589t2.589-1.080q0.183 0 0.55 0.041-0.061-0.408-0.061-0.856 0-1.712 0.968-3.088t2.517-1.967q0.061 1.447 0.948 2.721t2.191 1.885q-1.080-0.999-1.539-2.425t-0.153-2.915q0.265-1.223 0.958-2.181 0.836-1.101 2.099-1.732t2.731-0.632q1.61 0 2.986 0.775t2.191 2.099q-0.55 0.326-1.040 0.795-0.897 0.795-1.304 1.743t-0.367 1.498l0.041 0.53q0.245-0.958 0.744-1.671t0.989-1.070 1.080-0.571 0.917-0.255 0.611-0.041q2.466 0.122 4.25 1.834t2.028 4.158zM6.685 18.772q0.326-0.102 0.245-0.408-0.082-0.346-0.408-0.245-0.326 0.061-0.245 0.408 0.041 0.122 0.153 0.194t0.255 0.051zM10.599 21.218q0.204 0 0.336-0.132t0.132-0.336q0-0.183-0.132-0.316t-0.336-0.132q-0.183 0-0.316 0.132t-0.132 0.316q0 0.204 0.132 0.336t0.316 0.132zM15.531 10.415q0.326-0.061 0.245-0.408-0.061-0.326-0.408-0.245-0.326 0.061-0.245 0.408 0.061 0.326 0.408 0.245zM16.795 18.425q0.326-0.061 0.245-0.408-0.061-0.326-0.408-0.245-0.326 0.061-0.245 0.408 0.061 0.326 0.408 0.245zM19.628 16.673q0.183 0 0.326-0.132t0.143-0.336-0.143-0.336-0.326-0.132q-0.204 0-0.336 0.132t-0.132 0.336 0.132 0.336 0.336 0.132zM25.987 20.973q0.143 0 0.245-0.102t0.102-0.245-0.102-0.234-0.245-0.092-0.245 0.092-0.102 0.234 0.102 0.245 0.245 0.102z"></path>
</svg>
