<svg version="1.1" xmlns="http://www.w3.org/2000/svg" width="3075" height="1024" viewBox="0 0 3075 1024">
<path d="M122.88 684.032l1.024-28.672h7.168l-5.12-212.992-2.048-2.048 2.048-28.672 5.12-4.096q3.072-118.784 6.144-119.808l9.216-8.192q4.096-4.096 59.392-5.12l1.024-7.168h29.696v9.216h13.312l7.168 8.192h16.384l10.24-12.288 56.32-3.072v-14.336h297.984v17.408l17.408 12.288 59.392 2.048-20.48 32.768h14.336l31.744-50.176h32.768l15.36-22.528h25.6v-3.072h-8.192v-12.288h8.192l2.048-7.168h7.168v-6.144h3.072l2.048 1.024h21.504l2.048-1.024h4.096v18.432h13.312l318.464-72.704h39.936l10.24-3.072h13.312l13.312-12.288h66.56l4.096-4.096 6.144-3.072v-3.072h-50.176v-26.624l29.696-16.384h100.352l8.192 4.096v34.816h-14.336v12.288l11.264 5.12h14.336l11.264 5.12h9.216l2.048 7.168h290.816l483.328 108.544 90.112 21.504h68.608l3.072-5.12v-4.096h39.936l158.72-3.072v-47.104l24.576-24.576v-61.44l6.144-4.096h27.648v137.216h154.624l5.12 7.168h98.304l5.12 12.288h25.6q1.024 1.024 1.024 4.096v47.104q0 2.048-1.024 4.096-2.048 3.072-94.208 3.072l-12.288 28.672-1.024 14.336 1.024 1.024h17.408l5.12 13.312 5.12-2.048h22.528v56.32l-2.048 2.048h-20.48l-3.072-2.048-2.048 2.048-5.12 7.168h-17.408l-1.024-7.168h-7.168l-5.12 2.048h-64.512v4.096h19.456l18.432 20.48v16.384h-37.888l-2.048 4.096h-30.72l-128-39.936h-288.768l-12.288-12.288h-58.368l-6.144-2.048h-211.968l-5.12 7.168h-253.952l19.456 43.008h41.984l12.288 16.384q0 3.072 39.936 3.072h40.96l19.456 9.216 1.024 20.48 78.848-2.048v-5.12h22.528v113.664h-22.528v-5.12l-64.512 4.096v-5.12h-7.168v5.12h-8.192v7.168l-19.456 8.192h-73.728l-9.216-6.144h-218.112l-9.216 6.144h-21.504l-13.312-8.192v-7.168h-1.024l-4.096-11.264-3.072-83.968 4.096-10.24h8.192v-20.48l9.216-9.216 14.336-3.072v-16.384l4.096-3.072h45.056v-2.048q0-3.072-2.048-5.12-3.072 0-3.072-1.024h-44.032l-7.168-10.24-2.048-14.336h-4.096l-1.024 27.648h-178.176v24.576h28.672v12.288h12.288v267.264l-3.072 2.048h-9.216v7.168h-25.6v-15.36h-203.776l-2.048 3.072v12.288h-25.6v-7.168h-13.312v-269.312h13.312v-14.336h25.6v-22.528h-17.408l-32.768-5.12-45.056-3.072 2.048 103.424q-4.096 16.384-12.288 28.672-4.096 6.144-17.408 19.456-11.264 11.264-75.776 6.144-8.192 0-16.384-2.048l-22.528-9.216-8.192-2.048h-22.528l-84.992 142.336v1.024q0 2.048 2.048 4.096l22.528 29.696v17.408h-138.24l-5.12-4.096h-34.816l-139.264-55.296v-7.168l-46.080-20.48h-259.072l-2.048 6.144-50.176 3.072-5.12-3.072v-6.144l-14.336 9.216q-41.984-3.072-44.032-4.096-4.096-1.024-4.096-6.144 0-3.072-3.072-59.392l-3.072-5.12zM2027.52 301.056l86.016-3.072 6.144-2.048-92.16-19.456v24.576zM1860.608 570.368v88.064q0 12.288 12.288 12.288 8.192 0 9.216-4.096 1.024-1.024 1.024-3.072v-93.184q0-9.216-10.24-9.216-12.288 0-12.288 9.216zM1584.128 223.232v20.48h98.304v11.264h61.44v26.624h19.456v3.072l6.144 2.048v3.072h91.136v8.192h138.24v-16.384q0-7.168-5.12-9.216l-5.12-3.072-243.712-50.176zM1245.184 289.792v15.36h32.768v7.168h80.896l4.096 2.048h17.408v-25.6l-2.048-4.096h-78.848v5.12h-54.272zM996.352 648.192h70.656q13.312 0 23.552-22.528 15.36-40.96-6.144-67.584-7.168-7.168-17.408-11.264t-15.872-4.608-19.456 0-14.848 0.512q-6.144 3.072-9.216 6.144-11.264 8.192-13.312 28.672-2.048 14.336 0 23.552 1.024 9.216 7.168 19.456l3.072 11.264 3.072 3.072q1.024 4.096-4.096 6.144l-6.144 3.072q-1.024 1.024-1.024 0l-14.336-8.192-11.264-4.096 11.264 12.288zM586.752 549.888l-14.336 13.312 1.024 66.56q0 13.312 12.288 22.528 6.144 5.12 68.608 31.744l70.656 29.696 10.24 3.072q5.12 2.048 8.192 0l25.6-20.48q13.312-24.576 27.648-50.688t19.968-36.352 5.632-11.264q1.024-4.096 4.096-7.168-4.096-31.744-6.144-34.816l-6.144-6.144-40.96-4.096-49.152-22.528v-20.48l-86.016-10.24-29.696 15.36-21.504 3.072v38.912zM449.536 606.208v21.504h41.984v-19.456zM339.968 612.352l-5.12 13.312q2.048 2.048 100.352 2.048v-21.504h-93.184z"></path>
</svg>
