<!-- Generated by IcoMoon.io -->
<svg version="1.1" xmlns="http://www.w3.org/2000/svg" width="99" height="32" viewBox="0 0 99 32">
<title>scout_rifle</title>
<path d="M89.184 9.696h5.408v3.072h-5.344v-0.416h-1.024v0.416h-1.12v-0.448h-16.352v1.792h0.768l0.352 0.352v0.448l-0.352 0.352h-0.928l-0.768 0.384-1.536 0.128-0.32 0.224h-20.32l-1.216 0.096-1.184 0.544-1.088 0.8-0.352 0.384-3.744 8.16-0.64 0.672-0.8 0.544-1.12 0.448-1.376 0.064-1.184-0.128-1.696-0.384-5.952-1.76-0.672-0.064-0.928 0.064v1.472h-0.768v-1.536h-0.512v0.832l-0.256 0.32h-2.016l-0.256-0.256-0.224 0.224h-4.832l-0.256 0.288h-1.12l-0.288-0.32h-1.024v-6.528l-0.672 0.64q-0.384-0.416-0.448-0.416v-1.312h-5.344v1.856l-0.224 0.352-0.448 0.32-2.624 0.64-0.288-0.16v-2.72l0.192-3.488 0.032-2.912-0.064-2.912-0.16-1.632 0.256-0.928 0.48-0.16h0.992l0.288 0.288h1.312l0.352 0.48 6.304-2.752h18.464v-0.544h2.144l0.64-0.64h3.52l0.32-0.576 0.128-0.544v-0.576l0.16-0.224h1.12l0.256 0.224v0.48l0.096 0.544 0.864 1.248h2.88l0.192-0.224h0.224l0.832 0.832h1.792l0.384-0.384h6.88l0.512 0.544h14.176l0.928 0.352v1.056h1.216l0.512 0.544v0.32l-0.48 0.512h-0.832v0.832l-0.32 0.32v0.832h16.384v-0.352h1.184v0.544h0.928v-0.544zM31.168 16.064v-0.8l-0.224-0.384-0.416-0.384-0.64-0.224h-1.632l-0.512 0.096-0.352 0.352-0.224 0.576-0.128 0.832 0.224 0.8 0.48 0.672 0.672 0.416h0.896l0.832-0.32 0.8-0.832zM43.072 16.352l0.224-0.48-0.16-0.448-0.384-0.32-0.512-0.224h-4.192l-0.192 0.768-0.064 0.576 0.096 0.48 0.192 0.48 0.224 0.256-0.192 0.288-0.32-0.32-0.416-0.704-0.256-0.96-0.096-0.864h-0.32l-0.768 0.736v1.376l0.192 0.448 0.288 0.256 0.288 0.224-0.16 0.736-0.96 0.128-0.576 0.32-0.448 0.64-0.224 0.672-0.096 0.768-0.16 0.384-0.48 0.448-0.416 0.64-0.384 0.864-0.448 1.152-0.064 0.192 0.096 0.192 2.304 0.704 1.632 0.448h0.96l0.736-0.32 0.832-0.64 0.416-0.8 3.36-7.2z"></path>
</svg>
