<!-- Generated by IcoMoon.io -->
<svg version="1.1" xmlns="http://www.w3.org/2000/svg" width="80" height="32" viewBox="0 0 80 32">
<title>shrapnel_launcher</title>
<path d="M74.336 11.616h-2.624q-0.16 0-0.208 0.064t-0.032 0.144-0.016 0.176q-0.032 0.16 0.064 0.208t0.192-0.048q0.192 0 0.56-0.016t0.592-0.016q0.544-0.032 1.6-0.032h1.6q0.224 0 0.288 0.192 0 0.096-0.016 0.32t-0.016 0.352q-0.032 0.032-0.064 0.032h-0.096q-0.064 0-0.192-0.016t-0.192-0.016q-0.128 0-0.384 0.016t-0.464 0.032-0.432 0.048h-0.416q-0.256 0.064-1.008 0.288t-1.2 0.288q-0.224 0-0.256 0.032t0 0.288q0 0.064 0.032 0.192t0.032 0.224q0.064 0.448 0.48 0.64h0.416v0.768h0.8q0.576 0 1.28 0.064 0.096 0.224 0.352 0.32 0.096 0.032 0.192 0 0.288-0.16 0.288-0.448 0-0.576 0.032-0.928 0-0.096 0.096-0.192 0.064-0.064 0.208-0.112t0.208-0.080q0 0.032 0.032 0.064v1.824q0 0.128-0.128 0.16l-1.888 1.632q-0.096 0.096-0.384 0.080t-0.416-0.080q-0.064-0.064-0.128-0.048t-0.096 0.048-0.032 0.064q-0.128 0.896 0.64 1.888 0.192 0.224 0.56 0.576t0.496 0.512q0.576 0.48 0.096 1.088 0 0.032-0.8 0.48-0.416 0.384-0.992 0.128h-0.032q-0.48-0.16-0.288-0.672 0.032 0 0.048-0.112t-0.016-0.256-0.128-0.208q-0.128-0.096-0.576-0.4t-0.704-0.56-0.416-0.576l-0.128-0.384q-0.192-0.672 0.096-1.28 0-0.096-0.352-0.224t-0.448-0.032q-0.448 0.288-0.288 0.672 0.16 0.416 0.128 0.704 0 0.448-0.192 1.152 0 0.416-0.416 0.608-0.224 0.064-0.544 0.416l-0.288 0.352q-0.128 0.256-0.032 0.608 0.256 0.576 0.256 0.864 0.032 0.384 0 1.072t-0.032 0.912q0 0.384-0.416 0.288l-2.752-0.352q-0.032-0.032-0.144-0.112t-0.144-0.144q-0.096-0.288-0.304-1.696t-0.208-1.472q-0.16-0.864 0.576-1.088 0.16 0 0.976-0.56t1.072-0.88q0.128-0.224 0.032-0.416-0.032-0.128-0.128-0.912t-0.16-0.88q-0.032-0.064-0.768-0.384-0.672-0.288-0.928-0.672-0.032-0.128-0.288-0.128-0.032 0-9.408 0.096-1.056 0-1.152 0.032-0.224 0.064-0.528 0.352t-0.432 0.352v0.064q-0.064 0-0.24 0.080t-0.272 0.080h-1.312q-0.96 0.032-1.888-0.448-0.8-0.512-1.792-0.48-0.224 0-0.384-0.16-0.576-0.512-1.6-1.488t-1.344-1.296q0-0.032-0.032-0.064t-0.080-0.064-0.080-0.064q-0.192 0.192-0.96 0.88t-1.088 1.2q0.032 0 0.064 0.032t0.096 0.032q0.256 0.16 0.256 0.512v1.568q0.064 0.608-0.496 0.96t-1.328 0.448q-0.8 0.064-3.552 0.064-0.16 0-0.256-0.192-0.064-0.192-0.224-0.192h-2.336q-0.672 0-0.8-0.416 0-0.064-0.064-0.128-0.288 0.192-0.48 0.384-0.32 0.288-0.832 0.352-0.352 0-0.96 0.064t-0.832 0.064q-0.256 0-0.704-0.032t-0.672-0.032q-0.704 0-1.152 0.16-0.832 0.288-2.048 0.928-0.224 0.128-0.224 0.288-0.128 0.352-0.32 1.12-0.032 0.032-0.096 0.256-0.384 0.416-0.416 0.928-0.16 0.992-0.928 1.664-0.256 0.256-1.024 1.072t-1.344 1.344-1.184 0.976q-0.128 0.096-0.416 0.16-0.16 0.032-0.48 0.080t-0.448 0.112q-0.256 0.128-0.512-0.064-0.576-0.448-0.96-0.416-0.192 0-0.448-0.096-0.192 0-0.256-0.16-0.224-0.576-0.704-0.96-0.352-0.224-0.96-0.688t-0.864-0.624q-0.32-0.224-0.688-0.368t-0.912-0.32-0.736-0.24h-3.296q-0.32 0-0.32-0.288 0-0.448-0.416-0.672-0.224-0.064-0.256-0.288-0.16-0.16-0.32-0.16h-2.496q-0.064 0-1.504-0.096-0.224-0.032-0.4-0.24t-0.176-0.368q0-0.032-0.096-0.96v-0.064l0.256-0.608q0.128-0.992 0.128-2.176 0-0.544 0.448-0.736 0.064-0.032 0.272-0.144t0.336-0.144q0.192-0.064 0.896-0.128 0.16 0 0.256-0.16 0.224-0.352 0.288-0.416 1.056-0.64 1.536-0.832 0.864-0.352 2.384-0.944t2.064-0.816q0.224-0.064 0.32-0.032 1.472 0.224 2.048 0.32 0.896 0.192 1.248 0.128 1.472-0.224 2.4-0.544 2.528-0.832 5.952-2.080 0.16-0.064 0.224-0.128 0.16-0.096 0.496-0.384t0.528-0.384l1.12-1.056q0.384-0.224 0.512 0.128 0.096 0.16 0.096 0.544 0 0.512-0.064 0.672 0 0.256 0.224 0.256 0.256-0.736 1.088-0.736 0.608 0 1.056 0.384 0.416 0.352 0.608-0.16 0.288-0.832-0.352-1.472-0.128-0.16-0.192-0.288-0.256-0.288-0.512-0.288-0.416-0.032-0.672-0.352-0.032-0.096-0.16-0.096-0.512-0.096-0.544-0.128-0.032 0-0.064-0.064t-0.096-0.128q0.064 0 0.096-0.048t0.096-0.048q0.48-0.064 0.512-0.512 0-0.352 0.032-0.448 0-0.128 0.096-0.128 0.928-0.256 1.376-0.16 0.992 0.256 1.536 0.032 0.928-0.48 1.856 0.064 0.032 0 0.192 0.048t0.208 0.064 0.144 0.064 0.16 0.128 0.096 0.208q0.192-0.16 0.208-0.208t-0.112-0.24q-0.16-0.096-0.064-0.192 0.096-0.064 0.224-0.128h0.064q0.064 0.032 0.128 0.032 0.032-0.128 0.048-0.336t0.080-0.336q0.064-0.064 0.128-0.224t0.096-0.256q0.48-0.672 0.8-0.928 0.064-0.16 0.224-0.16 0.096-0.032 0.32-0.096t0.368-0.128 0.272-0.192q0.384-0.32 0.832-0.448 0.512-0.224 0.416-0.736-0.032-0.288-0.032-0.832h0.16q0.032 0.064 0.064 0.416t0.16 0.512q0.32 0.544 1.376 0.544 0.576 0.096 1.728-0.096h0.352q0.512 0.128 1.52 0.304t1.488 0.304q1.312 0.16 2.144 0.352 3.008 0.736 7.424 2.176 0.032 0 0.224 0.064 0.992 0.416 1.536 1.216 0.128 0.16 0.288 0.224h0.352l0.224-0.224 0.768-1.728h0.352l-0.48 1.696 0.032 0.256h0.448l0.256-0.224 0.768-1.728h0.32l-0.512 1.696 0.064 0.256h0.48l0.224-0.224 0.736-1.728h0.384l-0.512 1.696 0.064 0.256h0.448l0.256-0.224 0.736-1.728h0.384l-0.512 1.696 0.064 0.256h0.448l0.256-0.224 0.736-1.728h0.32l-0.48 1.696 0.032 0.256h0.512l0.192-0.224 0.768-1.728h0.352l-0.48 1.696 0.032 0.256h0.448l0.256-0.224 0.768-1.728h0.352l-0.48 1.696 0.032 0.256h0.448l0.256-0.224 0.736-1.728h0.352l-0.512 1.696 0.064 0.16q0.064 0 0.096-0.064t0.096-0.064q0.32-0.128 0.944-0.304t0.944-0.304q0.288-0.128 0.512-0.128 0.416 0 1.36-0.016t1.76-0.032 0.848-0.016l0.032-0.224q0-0.224 0.016-0.448t0.048-0.224q0.064 0 0.224-0.032t0.288-0.016 0.256 0.112l1.792 1.568q0.128 0.064 0.16 0.288v1.792q-0.192-0.096-0.224-0.096-0.352-0.064-0.352-0.416v-0.864q0-0.352-0.32-0.352-0.288 0-0.288 0.384l-2.304 0.032v0.224q0 0.064 0.016 0.16t0.016 0.128q0.096 0.256-0.16 0.416-0.288 0.224-0.672 0.48-0.32 0.224-0.224 0.544 0 0.256 0.224 0.256 0.896-0.096 1.664 0.16 0.096 0.064 0.32 0.128t0.32 0.096q0.8 0.192 1.088 0.128 0.16-0.064 0.448-0.080t0.32-0.016q0.256-0.032 0.32 0.016t0.096 0.272v0.288q0 0.288-0.192 0.288-0.32 0.064-1.824 0.128zM23.648 18.112q0.16-0.48-0.064-0.8-0.384-0.48-0.288-1.024 0-0.8-0.48-1.152-0.096-0.096-0.224-0.128-0.352-0.064-1.792-0.128h-0.512q-2.24 0.704-3.072 1.44-0.192 0.16-0.256 0.352-0.096 0.544-0.32 1.952-0.096 0.352-0.352 0.608l-1.568 1.632-0.384 0.256q-0.448 0.16-1.344 0.544t-1.552 0.64-0.688 0.256l0.704-0.032h3.104q0.608 0 0.64 0.608 0 0.288 0.064 0.48 0 0.16 0.128 0.256 1.504 0.864 2.816 1.664 0.16 0.064 0.288 0 0.352-0.192 1.088-0.512 0.608-0.224 0.864-0.832 0.16-0.448 0.352-0.64 0.192-0.32 0.128-0.768-0.128-0.416-0.064-0.96 0.064-0.256 0.080-0.752t0.080-0.752q0-0.224 0.192-0.288 1.12-0.832 2.016-1.344 0.352-0.192 0.416-0.576zM28.608 12.704q-0.224 0.064-0.096 0.224 0.096 0.128 0.256 0.32t0.288 0.288q0.064 0.064 0.448-0.112t0.384-0.272q0-0.736-0.288-1.024-0.32 0.128-0.992 0.576zM32.064 16.544v-0.096q-0.032-0.032-0.096-0.064l-0.864-0.256-2.272 0.288q-0.16 0-0.192 0.032-0.096 0-0.128 0.032-0.032 0.096-0.144 0.304t-0.176 0.304q-0.032 0.064 0.048 0.224t0.080 0.224q0.256 0.576 0.864 0.416 1.28-0.384 2.048-0.544 0.512-0.128 0.624-0.224t0.208-0.64zM35.84 9.824q0.128-0.32-0.192-0.352-0.832-0.16-1.216-0.928-0.096-0.16-0.24-0.272t-0.32-0.24-0.272-0.224q-0.544-0.384-0.96-0.096-0.224 0.064-0.256 0.032-0.064-0.064-0.24-0.176t-0.288-0.224-0.112-0.304q0-0.352-0.416-0.224-0.096 0.032-0.592 0.256t-0.576 0.208-0.624-0.016q-0.032 0-0.064 0.032 0 0.032 0.096 0.16t0.16 0.192q0.928 0.608 1.824 1.312 0.96 0.672 1.344 1.216 0.16 0.16 0.384 0.16 0.32 0 0.96-0.016t0.992-0.016 0.416-0.048 0.192-0.432zM61.856 12v-0.288l-1.216-0.64h-0.16l-0.128 0.096-0.448 1.056h-0.224l0.352-1.024-0.064-0.128h-0.032l-0.096 0.096-0.448 1.056h-0.192l0.288-1.024v-0.128h-0.064l-0.064 0.096-0.512 1.056h-0.16l0.288-1.024-0.032-0.128-0.128 0.096-0.448 1.056h-0.224l0.32-1.024-0.032-0.128h-0.032l-0.096 0.096-0.448 1.056h-0.224l0.32-1.024v-0.128h-0.064l-0.064 0.096-0.48 1.056h-0.192l0.288-1.024-0.032-0.128-0.128 0.096-0.48 1.056h-0.192l0.32-1.024-0.032-0.128-0.128 0.096-0.448 1.056h-0.224l0.288-1.024v-0.128h-0.032l-0.064 0.096-0.48 1.056h-0.192l0.288-1.024-0.032-0.128-0.128 0.096-0.48 1.056h-0.192l0.32-1.024-0.032-0.128-0.128 0.096-0.448 1.056h-0.224l0.288-1.024v-0.128h-0.032l-0.096 0.096-0.448 1.056h-0.192l0.288-1.024-0.064-0.064-2.112 0.736 1.888 0.864 0.192-0.416h0.128l-0.16 0.512 0.064 0.032h0.256l0.256-0.544h0.096l-0.128 0.544h0.288l0.256-0.544h0.128l-0.192 0.544h0.352l0.256-0.544h0.096l-0.16 0.544h0.352l0.224-0.544h0.096l-0.16 0.544h0.32l0.256-0.544h0.128l-0.16 0.544h0.32l0.256-0.544h0.096l-0.128 0.544h0.288l0.256-0.544h0.096l-0.16 0.544h0.352l0.224-0.544h0.128l-0.16 0.544h0.352l0.224-0.544h0.096l-0.16 0.544h0.32l0.256-0.544h0.128l-0.16 0.544h0.736z"></path>
</svg>
