<!-- Generated by IcoMoon.io -->
<svg version="1.1" xmlns="http://www.w3.org/2000/svg" width="44" height="32" viewBox="0 0 44 32">
<title>sidearm</title>
<path d="M7.776 7.744l-0.512-0.512v-4l0.48-0.48h2.496l0.64-0.64h1.536l0.64 0.64h2.88l0.288 0.256h1.056l0.32-0.32h17.536v-0.352h1.024l0.416 0.416h1.472l0.32 0.32v1.088h0.672v2.432h-0.704v0.672l-0.288 0.288 0.256 0.256v1.984h-7.936l-0.608 0.992h-8.224l-0.256 0.8-0.096 0.96 0.032 1.088 0.192 1.12 0.064 0.32-0.544 0.192-0.448-1.024-0.352-1.568-0.096-1.44-0.032-0.448-0.48 0.064-0.544 0.736-0.352 0.8-0.128 0.992-0.064 1.056 0.32 0.96 0.8 0.832 0.608 0.384-0.192 0.448-1.28 0.288-0.864 0.416-0.768 0.8-0.48 0.896-0.16 1.248-0.576 0.352-0.576 0.8-0.512 1.184-0.512 1.504-0.416 1.44-0.032 0.992 0.032 0.672-0.32 0.128h-0.8l-7.424-1.888-1.152-0.608 0.064-0.864 1.696-0.096 0.096-1.728 0.48-2.24 1.056-2.496 1.664-2.464 0.992-1.376 0.832-1.568-0.096-0.64-0.992-0.96-0.864-0.544-0.352-0.096h-1.984l-0.384-0.352 0.736-1.44 0.96-0.352z"></path>
</svg>
