<!-- Generated by IcoMoon.io -->
<svg version="1.1" xmlns="http://www.w3.org/2000/svg" width="87" height="32" viewBox="0 0 87 32">
<title>spear_launcher</title>
<path d="M78.048 12.672l-0.352 0.192-10.816 0.544-0.416 0.416-1.408 0.128-2.080 2.88-0.96-0.384 0.576-0.928 0.352-0.096 0.576-1.152-0.096-0.32-3.584 0.064-0.32 0.224q-0.448 0.256-1.088 0.256-0.608 0.032-1.12-0.16-0.16-0.064-0.352-0.192l-2.464 0.032-2.56 3.264-0.768-0.512 0.704-1.024 0.32-0.032 0.512-0.576-0.096-0.352q-0.736 0.096-2.752 0.896-1.312 0.48-2.304 0.896l0.032 1.12q1.088 0.896 3.2 4.256 1.056 1.728 1.824 3.136l-0.384 0.992q-0.064-0.128-0.288-0.48-0.16-0.224-1.696-2.304-1.184-1.568-1.984-2.016-0.32-0.192-0.64-0.128-0.192-0.224-0.4-0.448t-0.448-0.48-0.368-0.384q-1.344-1.568-1.632-2.048-0.32-0.544-0.24-1.040t-0.080-0.624q-0.32-0.384-1.52-0.624t-2.032 0.144q-0.576 0.384-2.112 0.576-0.448 0.064-1.28 0.128-0.096 0.32 0.352 0.768 0.224 0.224 0.448 0.352h-0.8q-0.64-0.32-0.832-0.864-0.096-0.256-0.064-0.48l-0.576-0.064-0.032 0.032q0.448 0.448 0.256 1.504-0.224 0.704-0.32 0.896l0.352 1.44-3.040 4.288q0 0.288 0.832 0.608 0.256 0.128 0.864 0.224l0.096 0.576q-0.48 0.288-1.664 0.096-0.8-0.16-1.088-0.224l-1.376 1.312-2.688-0.96 0.64-0.8-1.44-0.352-3.072 0.896q-0.544-0.544-2.72-1.28-0.768-0.288-2.016-0.608l0.032-1.248 3.872 1.248 0.768-0.032q1.792-0.864 4.864-1.6 1.792-0.416 2.848-0.608l1.632-2.24-1.216-1.12-0.032-0.032h-0.032q-0.032-0.032-0.064-0.032-1.184 0-1.92-0.8-0.352-0.384-0.512-0.8l-1.216 0.512q-1.568 0.544-2.272 0.512-0.928 0-1.376-0.608-0.224-0.224-0.384-0.608l-1.408-0.544q-1.44-0.608-3.008-0.992-1.76-0.48-7.936-0.992-0.736-0.064-1.568-0.208t-0.992-0.144q-0.032 0-1.392-0.016t-1.872-0.272q-0.32-0.128-0.944-0.832t-1.2-1.456-0.672-0.848q-0.16-0.224-0.096-0.8l0.096-0.544q0.704-0.48 1.376-0.848t1.184-0.592 1.008-0.384 0.848-0.224 0.688-0.096 0.512-0.032h0.368l0.16 0.032q0.096 0 0.432-0.048t0.816-0.128 0.8-0.112q0.064-0.032 2.32-0.064t4.016-0.416q1.344-0.352 4.768-0.576 1.28-0.032 2.56 0l-0.192 0.096q0.064-0.032 0.128-0.096 0.128-0.064 0.432-0.128t0.432-0.096l0.544-0.064 6.976 1.504q0.512-0.448 0.992-0.736 1.216-0.736 2.912-0.736t3.136 1.152q0.736 0.608 1.184 1.152l1.376-0.288 0.416-1.312 9.312 0.416-0.384-0.64 0.16-0.896-0.192-0.448-0.672-0.096-0.32-1.152 0.672-0.416 2.944 4.096 0.448 0.416 1.344 0.192q0.096-0.096 0.288-0.192 0.416-0.192 1.28-0.224 0.576-0.032 1.088 0.256 0.192 0.192 0.224 0.288l3.808 0.288-0.864-2.144h-0.384l-0.512-1.248 0.768-0.448 2.496 3.712 1.376 0.224 0.352 0.32 10.496 0.832 0.64 0.512 0.352-0.48 4.192 0.096q0.16 0.064 0.32 0.352 0.288 0.512 0.288 1.536-0.128 1.248-0.448 1.632-0.16 0.256-0.384 0.352h-4.224z"></path>
</svg>
