<!-- Generated by IcoMoon.io -->
<svg version="1.1" xmlns="http://www.w3.org/2000/svg" width="120" height="32" viewBox="0 0 120 32">
<title>sword_heavy</title>
<path d="M80.832 10.368h35.328l-14.944 11.68h-57.728l-1.632-2.24-1.248-1.056-1.568-0.704-1.44-0.256-0.96-0.128-0.608 0.352-2.336 0.448-1.472-0.768-1.088 0.224-0.576 8.928h-0.8l-3.008-9.088-1.92-1.248h-16.032l-0.48 0.32-0.48 0.416-0.288 0.416h-2.88l-0.736-0.864v-5.152l1.44-0.736h2.432l0.992 1.28h15.84l3.52-1.76h14.752l0.448-0.672h4.672l1.568 1.76h29.568zM61.76 19.2v-1.248h-9.28v1.248h9.28zM65.056 19.2h33.376l-1.024-1.248h-32.352v1.248zM99.84 17.472l4-2.976v-0.672h-4.032v2.048l-0.704 0.64z"></path>
</svg>
