<svg xmlns="http://www.w3.org/2000/svg" viewBox="0 0 2360 799.9"><path d="M581,769.9c-10-2-17-1-23-4-13-5-26-13-39-18-31-13-62-24-92-37-34-15-67-30-101-45a46.71,46.71,0,0,1-10-5c-33-12-67-24-99-38-30-13-58-29-87-43-12-5-24-9-35-15-17-8-34-15-48-27-20-17-31-40-24-68v-10c-1-1-1-3-3-4-15-20-20-43-20-68,1-101,0-203,0-304,0-7,1-15,2-26l17-16H54c86,1,172,1,258,1a582.79,582.79,0,0,0,59-3c13-1,24,4,32,14,9,13,20,20,36,21,9,1,18,9,27,13l2,41h21v-18c-4-23,7-36,31-37H648c11,0,21,2,31,8s16,16,17,28c2,20,14,32,34,32,49,0,98-2,147-2,32-1,63-1,94,1,20,2,37-2,55-10,0-10-4-13-13-15-12-3-19-10-17-25,24-23,48-49,75-71,21-18,47-22,77-19,33,4,68,2,102,1,18-1,35-1,51,6,18,7,36,9,56,9,32-1,65,0,97,0h906s-74,103-82,109c-17,1-30,0-41,10-17,16-31,34-35,58-1,13-3,25-4,38,0,15-10,24-22,32h-21c-6-4-13-8-17-13-14-18-33-21-53-18-8,1-525,0-537-1-13-2-26-3-36,7-4,9-1,16,4,24,11,19,9,38,0,57-4,7-8,14-1,24,10,2,23,4,35,4,90,1,531,1,547,1,18-1,34-4,44-21,4-6,10-12,12-15,30-1,47,13,48,37,2,24,8,44,26,60,5,5,9,12,13,18,6,12,15,16,28,16,9,1,19,2,28,5l64,99H1719c-130,1-259,3-388,3a269.29,269.29,0,0,1-40-3c-19-2-36,3-52,14-8,13-8,26-4,41a116,116,0,0,1,3,37c-3,37-4,73,1,109,3,19,0,37-21,47-5,2-12,4-18,4H939c-31-4-44-18-40-49,6-49,1-99,3-149,1-23-17-47-48-43-11,2-23,4-34,5-9,0-17-1-22-10-4-7-2-15,3-22,19-22,35-46,63-56,14-5,23-15,28-28,6-15,17-20,32-23,8-1,17-7,24-12,3-3,4-9,5-13-17-21-51-21-68,0-3,3-6,8-8,12-11,19-27,28-47,29-10,0-20,0-31-1a117.9,117.9,0,0,0-41,7c-11,4-20,10-27,20-4,5-9,10-13,15-20-2-40-10-56,9l15,30c-5,9-9,16-14,24-12,18-26,34-35,54-14,30-29,59-45,88-10,19-9,39-4,60C580,752.9,580,758.9,581,769.9Zm-38-293c-9-18-20-29-36-33-11-3-22-3-34-3-83-1-165,0-248-1-35-1-56,17-69,44-13,29-6,42,18,53,14,7,28,15,43,21a735.41,735.41,0,0,1,77,32c30,15,63,27,94,40,10,5,20,9,29,14,17,9,31,9,40-2,10-12,21-23,28-36,11-22,21-45,34-66,10-14,15-31,24-51Zm1637-339c-14-3-20-3-27,3-9,7-11,18-4,26s19,9,27,0C2183,158.9,2186,149.9,2180,137.9Zm-34,292c6,12,16,14,24,13,5,0,12-4,15-8,5-6,1-12-4-17-8-9-18-11-30-5Zm-706-196c14-12,22-24,12-44-3,0-10-1-12-1-3,0-9,2-10,2C1423,212.9,1424,224.9,1440,233.9Zm1,168c13-5,17-19,16-28,0-9-12-19-20-20C1422,367.9,1426,387.9,1441,401.9Z"/></svg>