<!-- Generated by IcoMoon.io -->
<svg version="1.1" xmlns="http://www.w3.org/2000/svg" width="83" height="32" viewBox="0 0 83 32">
<title>wire_rifle</title>
<path d="M47.072 10.752h-1.408v-0.576h-0.768v0.32h-0.32v0.768h2.432l0.8 0.416h30.016l0.736 0.064 0.128 0.16v0.128l-0.128 0.16-1.088 0.672q-0.768 0.384-0.96 1.12l-0.48 4h-0.512l-0.192-0.224-0.512-1.824q-0.288-0.736-0.832-0.96-0.224-0.096-1.264-0.144t-1.968-0.048h-8.672l-6.24 0.128-5.472 0.16-3.648 0.192-1.696 0.224-0.928 0.288-0.544 0.256-0.352 0.32-0.32 0.576-0.448 1.056-0.512 1.504-0.384 1.344-0.192 1.056-0.096 0.896 0.064 0.544 0.096 0.256 1.184 1.216-0.064 0.608-0.16 0.224-3.328-2.592-0.864-0.608q-0.672-0.416-1.184-0.416-1.28-0.064-2.176 0.384l-0.864 0.512 0.096 1.632-0.032 0.128-0.064 0.128q-1.024 0.8-1.888 1.408l-1.76 1.152q-3.008-0.192-6.176-0.8l-3.84-0.736q-0.576-0.288-0.8-0.736l-0.16-0.896 0.512-0.32 0.032-1.28 0.736-0.256-0.032-0.16-0.704-0.256q0-1.408 1.024-2.912 0.288-0.448 0.928-1.28t0.864-1.248 0.128-0.64q-0.192-0.48-0.848-0.832t-1.712-0.384q-0.704-0.032-1.808-0.048t-2.704-0.048-2.592-0.064l-4.736-0.128-0.96 5.728-0.32 0.736-0.352 0.192h-0.896l-0.992-1.12-0.128-5.696-0.608-3.36 0.256-2.816q0.16-0.544 0.992-0.704l1.568-0.256q6.368-0.256 10.56-0.8l10.912-1.664-1.92-0.992 0.768-0.416 1.024-0.064 0.128-0.064 0.096-0.128v-1.568l0.16-0.576h1.152l0.288 0.608 0.448 1.152 0.928 0.32 0.16 0.288 1.856 0.288 3.136-0.416 0.32-0.16 0.32-0.32 0.224-0.288 0.096 0.128v1.376l-0.064 0.256q2.176 0.128 4.704 0.608 0.96 0.192 2.064 0.432t1.776 0.368 1.216 0.192 2.064 0.112 2.768 0.048h1.248l0.8 0.736v0.544h23.648l0.448 0.224v0.192h-0.224l-0.128 0.512h-30.112l-0.768 0.48h-2.496v0.768h0.32v0.288h0.768v-0.544h1.408l0.8-0.48h30.016l0.288 0.544h0.896v1.664h-0.864l-0.352 0.544h-29.888zM35.488 17.632q0.608-0.32 0.608-1.056 0-0.352-0.288-0.72t-0.544-0.56l-0.288-0.224q-0.8-0.8-2.496-0.8-1.088 0-2.56-0.064 0.064 0.608 0.16 0.864 0.096 0.288 0.288 0.608t0.352 0.512l0.16 0.16-0.32 0.384q-0.864-0.448-1.376-1.216-0.384-0.512-0.64-1.408-0.48 0.096-0.672 0.384-0.224 0.288-0.4 0.816t-0.144 0.752q0 0.064 0.096 0.304t0.144 0.432 0.032 0.384-0.176 0.256q-1.728 0.992-1.92 1.696-0.096 0.352-0.064 0.752t-0.16 0.464q-0.64 0.832-0.64 1.504l4.768-0.096h0.288z"></path>
</svg>
