<!-- Generated by IcoMoon.io -->
<svg version="1.1" xmlns="http://www.w3.org/2000/svg" width="66" height="32" viewBox="0 0 66 32">
<title>guardian_tank</title>
<path d="M62.368 4.896l0.224 0.864v2.208l-0.224 0.768-1.056 0.416-18.912 0.576-0.576 0.256-1.28 1.056 15.328 4.672 0.992-0.192h2.080l0.256 0.256v3.616l0.352 0.928v0.608l-0.928 0.096-2.176 1.536h-1.6l-0.928 0.704-0.576 0.736-6.016 3.136-0.416 0.128h-30.88l-0.416-0.064-6.592-3.264-0.512-0.384-0.384-0.512-0.224-0.384-0.032-0.192h-1.408l-2.72-1.92v-4.192l0.128-0.128h0.928l0.032-0.896-0.896-0.928-0.032-5.856 0.992-1.632 0.288-0.192 0.928-1.824 0.544-0.224 0.384 0.128-1.12 2.464h2.496l2.464-3.136 1.312-0.288v-1.44l0.288-0.288h1.632l0.352-0.352h0.576l2.4 0.576h2.656l0.736-0.448h2.496v-0.32h-0.544v-0.416h2.048l0.96 0.384h-0.928l0.672 0.48v0.448h1.024l1.248 1.248 14.048 0.032 0.736 0.416 18.88 0.224z"></path>
</svg>
