<!-- Generated by IcoMoon.io -->
<svg version="1.1" xmlns="http://www.w3.org/2000/svg" width="71" height="32" viewBox="0 0 71 32">
<title>loader_tank</title>
<path d="M63.968 20.32l3.648 3.008-0.384 0.416h-6.208l-1.12-1.216h-1.44l-7.968 4.256-0.544 0.192h-29.728l-0.608-0.128-7.488-4.32h-1.504l-0.992 1.216h-6.304l-0.512-0.416 3.584-2.752 1.024-1.664v-3.104l1.92-0.032v-0.704l-0.96-1.056v-5.12l1.152-1.696h2.016l2.528-2.624 0.384-0.192 7.968-1.6h2.944l0.8 0.32v-1.952h-0.992v-0.192l0.64-0.16h2.432l0.32 0.32h-0.576l0.224 0.224v0.544l-0.288 0.32h-0.32l0.192 1.6 5.344 1.92 10.144 2.656h1.088l3.392 3.68 0.288 0.096v-0.032l4.448 1.216 3.2 0.928 0.832 0.96 3.328 0.672 2.688-0.48v-0.544h0.544v4.032z"></path>
</svg>
