<!-- Generated by IcoMoon.io -->
<svg version="1.1" xmlns="http://www.w3.org/2000/svg" width="89" height="32" viewBox="0 0 89 32">
<title>sparrow</title>
<path d="M59.36 12.096l0.448 0.512 0.832 0.096 14.752 2.624 2.944 0.288 0.096 0.032 4.576 0.256 0.032 0.032 0.032 0.832 1.536 0.064 0.032 0.032v0.32l-0.032 0.032-1.536 0.064v1.856l-0.032 0.096-27.296 2.464-5.024 0.32-4.064 0.032-2.848-0.416-2.88-0.352-1.6 0.512-5.44 5.92-0.32 0.128-4.512 0.032-0.128-0.16 3.264-5.664 0.096-0.48-0.352 0.224-2.72 0.032 1.12 1.6 0.032 0.8-7.040-1.728-0.352-0.128-1.792-0.896-0.576 1.472-0.16 0.128 0.032 0.224v0.64h-1.376l-0.512 0.384-0.192-0.192-0.16 0.16-0.224 0.064-0.352 0.032-0.256-0.096-0.288-0.288-0.096-0.192-2.272 0.032 0.128 0.128v0.736l-0.384 0.512h-0.704l-0.16-0.192-0.448 0.032-0.16-0.192v-1.248l0.16-0.224h0.384v-0.48l-1.568-1.888-0.256 0.32 1.056 1.248 0.032 0.128-0.16 0.256h-0.128l-1.312-1.216-0.32 0.96h-0.128l-0.416-0.288-0.128 0.192-0.448-0.576-0.736-0.384-0.064-0.48-0.416-0.544 0.096-0.64 0.672-1.664-1.024-0.32h-1.472v-0.32l-1.28-0.288 0.16-0.384 1.568-0.768-0.032-1.824 1.952-0.576 1.312-1.504-0.064-0.288-0.64-0.512-2.432-0.672-0.192-0.064-2.144-1.632-0.16-0.192-0.416-1.888v-0.128l0.16-0.128 1.536-0.096-1.76-0.832-0.128-0.192-0.128-0.288v-0.736h0.064v-0.288l-0.096-0.192-0.032-0.288 0.096-0.032 10.752 1.088 0.096 0.064 0.512 1.056 0.192-0.064 0.576 0.064 0.256 0.192 0.576 1.056 0.8 1.184 0.832 0.928 0.896 0.512 1.152 0.512 1.344 0.448 0.96 0.224 0.672 0.064 0.352-0.064 0.192-0.16 0.192 0.032 0.064-0.288 1.12-1.248 0.256-0.224 1.056-0.672 0.352-0.16 1.696-0.704 0.64-0.096 0.672-0.032 7.84-0.096 0.96-0.704 1.472 0.352v0.32h0.704l0.32 0.064 14.464 4.704 0.48-0.704z"></path>
</svg>
