<?xml version="1.0" encoding="utf-8"?>
<!-- Generator: Adobe Illustrator 23.0.2, SVG Export Plug-In . SVG Version: 6.00 Build 0)  -->
<svg version="1.1" xmlns="http://www.w3.org/2000/svg" xmlns:xlink="http://www.w3.org/1999/xlink" x="0px" y="0px"
	 viewBox="0 0 445.85 307.78" style="enable-background:new 0 0 445.85 307.78;" xml:space="preserve">
<g id="Layer_1">
	<path d="M212.62,11.18v289.4L12.63,45.19l0.42-0.62l97.69,63.35c0,0,24.86,15.96,25.98,17.08s2.04,2.24,2.11,5.67
		c0.07,3.43-1.56,17.49-0.99,23.54c0,0,0.79,12.53,4.62,19.71c3.82,7.19,6.66,14.64,22.81,24.46s26.84,8.97,27.03,8.97
		S180.64,49.03,180.64,49.03s-0.68-10.43-1.05-12.73s-1.36-5.19-4.15-6.95s-7.29-1.73-10.43-0.74s-5.74,3.49-7.34,7.12
		c-1.61,3.63-9.43,24.2-9.43,24.2l-0.75-0.88c0,0-0.48-0.49-0.61-0.83s-14.92-37.72-14.92-37.72s-1.5-3.74-0.55-5.74
		c0.95-2,2.78-3.26,10.66-3.49L212.62,11.18z"/>
	<path d="M235.1,11.18v289.4L435.08,45.19l-0.42-0.62l-97.69,63.35c0,0-24.86,15.96-25.98,17.08s-2.04,2.24-2.11,5.67
		c-0.07,3.43,1.56,17.49,0.99,23.54c0,0-0.79,12.53-4.62,19.71c-3.82,7.19-6.66,14.64-22.81,24.46s-26.84,8.97-27.03,8.97
		s11.67-158.31,11.67-158.31s0.68-10.43,1.05-12.73s1.36-5.19,4.15-6.95c2.79-1.76,7.29-1.73,10.43-0.74s5.74,3.49,7.34,7.12
		c1.61,3.63,9.43,24.2,9.43,24.2l0.75-0.88c0,0,0.48-0.49,0.61-0.83c0.13-0.34,14.92-37.72,14.92-37.72s1.5-3.74,0.55-5.74
		c-0.95-2-2.78-3.26-10.66-3.49L235.1,11.18z"/>
</g>
<g id="Layer_2">
</g>
</svg>
