<?xml version="1.0" encoding="utf-8"?>
<!-- Generator: Adobe Illustrator 23.0.2, SVG Export Plug-In . SVG Version: 6.00 Build 0)  -->
<svg version="1.1" id="Layer_1" xmlns="http://www.w3.org/2000/svg" xmlns:xlink="http://www.w3.org/1999/xlink" x="0px" y="0px"
	 viewBox="0 0 61.71 84.13" style="enable-background:new 0 0 61.71 84.13;" xml:space="preserve">
<path d="M43.7,22.69v17.04h-3.17c-0.21,0-5.23-0.06-8,2.66c-1.16,1.14-1.75,2.61-1.76,4.35c0-1.74-0.59-3.21-1.76-4.35
	c-2.77-2.72-7.79-2.66-8-2.66h-3.17V22.69H0.97l2.87,11.67l3-9.73h3.03v33.43l3.99,8.54H8.81l9.03,15.51V40.73h3.18
	c0.05,0,4.82-0.06,7.29,2.37c0.97,0.95,1.46,2.18,1.46,3.65h0.01v35.36h1.98V46.76h0.01c0-1.47,0.49-2.7,1.46-3.65
	c2.47-2.43,7.24-2.37,7.29-2.37h3.18v41.38l9.03-15.51h-5.04l3.99-8.54V24.64h3.03l3,9.73l2.87-11.67H43.7z"/>
<path d="M51.74,19.46C50.71,9.47,42.25,1.65,31.99,1.65h-2.44c-10.26,0-18.72,7.82-19.74,17.81H0.97v2.14h16.89v-2.04h0
	c0.93-5.61,5.81-9.91,11.68-9.91h2.44c5.87,0,10.75,4.3,11.68,9.91h0v2.04h16.89v-2.14H51.74z"/>
</svg>
