<?xml version="1.0" encoding="utf-8"?>
<!-- Generator: Adobe Illustrator 22.0.1, SVG Export Plug-In . SVG Version: 6.00 Build 0)  -->
<svg version="1.1" id="Layer_1" xmlns="http://www.w3.org/2000/svg" xmlns:xlink="http://www.w3.org/1999/xlink" x="0px" y="0px"
	 viewBox="0 0 32 32" style="enable-background:new 0 0 32 32;" xml:space="preserve">
<title>faction_crucible_glory</title>
<g>
	<polygon points="0.5,16.1 0.5,16.1 0.5,16.1 	"/>
	<polygon points="28,14.8 28,14.8 28,14.8 	"/>
	<path d="M27.6,14.7l-0.5,0.3H26V5.8H5.4v9.1H4.9c-1,0-1.9,0-2.9,0c0,0,0,0-0.1,0c-0.6,0-1.2,0.2-1.6,0.5c-0.1,0.1-0.2,0.1-0.2,0.3
		l0,0c0.1,0.1,0.3,0.3,0.4,0.4c0.4,0.2,0.9,0.4,1.4,0.4c0,0,0,0,0,0c1.4,0,2.7,0,4.1,0c1.2,0,2.4,0,3.6,0c0,0.1-0.1,0.1-0.2,0.2
		c-0.5,0.3-1.1,0.6-1.6,0.9c-0.2,0.1-0.3,0.1-0.4,0.3c0,0.1-0.1,0.3,0.1,0.5c0.8-0.4,1.4-0.8,2.1-1.2c0.3-0.2,0.6-0.2,0.8-0.5
		c0,0,0,0,0,0c0.1,0,0.2,0.1,0.3,0.1l0,0c-0.1,0.2-0.3,0.2-0.4,0.3c-1,0.6-1.9,1.1-2.9,1.7c0,0.2,0,0.4,0.1,0.5
		c0.1,0,0.2-0.1,0.2-0.1c0.8-0.5,1.7-1,2.5-1.5c0.7-0.4,1.4-0.7,2-1.2c0,0,0,0,0,0l0,0c0.1,0,0.2,0,0.3,0c0.1,0,0.1,0,0.2,0
		c0,0,0,0.1-0.1,0.1L8.3,19c-0.3,0.2-0.6,0.4-1,0.6c0,0.2,0,0.4,0.1,0.6c0.2,0,0.4-0.2,0.5-0.3c1.1-0.6,2.1-1.2,3.2-1.8
		c0.9-0.5,1.7-1,2.6-1.5c0,0,0,0,0,0c0.1,0,0.3,0,0.4,0.1c-0.5,0.3-0.9,0.5-1.4,0.8c-1.1,0.6-2.1,1.2-3.2,1.8
		c-0.7,0.4-1.4,0.8-2.2,1.2c0,0.4,0,0.8,0,1.2c0.4,0.2,0.6,0.4,1,0.6C8.6,22.2,8.8,22,9,21.9c0.3-0.1,0.9-0.4,0.8-0.4l-2.8,2.9
		C6.7,24.7,6.4,25,6,25.3v-0.6c0-2.2,0-4.4,0-6.6c0-0.2,0-0.4,0-0.5H5.5v8.6H26v-8.8c-0.2-0.1-0.4,0-0.6,0l0,0c-0.1,0.2,0,0.4,0,0.5
		c0,2.4,0,4.8,0,7.2v0.5H6.2c0-0.2,0.2-0.2,0.3-0.3c0.8-0.8,1.6-1.6,2.4-2.4c0.1-0.1,0.2-0.2,0.3-0.3c0-0.1,0-0.1,0.1-0.1v0
		c0-0.1,0.1-0.1,0.1-0.1c0,0,0,0,0,0c0,0,0,0,0,0c0.2,0.1,0.3-0.1,0.4-0.2c0.5-0.3,1-0.6,1.5-0.9c1.3-0.8,2.6-1.5,3.9-2.3
		c0.2-0.1,0.3-0.2,0.5-0.2l6.5,3.8c0.2-0.1,0.3-0.2,0.5-0.4c-0.8-0.5-1.6-0.9-2.3-1.3c-1-0.6-2-1.1-2.9-1.7c-0.5-0.3-1-0.6-1.5-0.9
		c-0.1-0.1-0.2-0.1-0.3-0.1c-0.1,0-0.2,0-0.3,0.1c-1.3,0.8-2.6,1.5-3.9,2.3c-0.2,0.1-0.4,0.3-0.6,0.3c0.1-0.2,0.3-0.4,0.5-0.5v0
		c0-0.1,0.1-0.1,0.2-0.1c0,0,0,0,0,0c0,0,0,0,0,0c0.1,0,0.2,0,0.3-0.1c0.9-0.5,1.7-1,2.6-1.5c0.4-0.2,0.8-0.6,1.4-0.7l7.3,4.2
		c0.3-0.3,0.7-0.4,1-0.7v-1.1c-0.4-0.2-0.8-0.5-1.3-0.7c-0.3-0.2-0.6-0.4-1-0.5c0,0,0,0,0,0c0-0.1,0-0.2,0-0.3
		c0.4,0.1,0.7,0.4,1.1,0.6c0.4,0.2,0.7,0.5,1.1,0.6c0-0.1,0-0.2,0-0.3c0-0.1,0-0.2,0-0.3l-2.2-1.3c0,0,0-0.1,0-0.2
		c0.2,0,0.4,0.2,0.7,0.3c0.5,0.3,1,0.6,1.6,0.9c0-0.1,0-0.2,0-0.3c0-0.1,0-0.2,0-0.3c-0.2-0.1-0.3-0.2-0.4-0.3
		c-0.6-0.3-1.2-0.7-1.8-1c0-0.1,0-0.2,0-0.3v0c0.8,0.4,1.4,0.9,2.2,1.2c0-0.1,0-0.2,0-0.3c0-0.1,0-0.2,0-0.3
		c-0.2-0.1-0.3-0.2-0.5-0.3c-0.6-0.3-1.1-0.7-1.7-0.9c0-0.1,0-0.2,0-0.3h3.5c0.5-0.1,1.1,0,1.6,0c0.3,0.2,0.5,0.5,1,0.3v-1.9
		c-0.1,0-0.2,0-0.2,0C27.7,14.7,27.6,14.7,27.6,14.7z M10.7,21.2 M10.9,21 M15.2,14.7 M16.9,14.9L16.9,14.9c0.2-0.2,0.4-0.4,0.6-0.6
		l0,0c0-0.1,0.1-0.2,0.2-0.2l0,0c0,0,0.1-0.1,0.1-0.1c0,0-0.1,0.1-0.1,0.1c0,0.3,0,0.5,0,0.8h-0.2l0-0.6l0,0
		C17.3,14.5,17.1,14.7,16.9,14.9L16.9,14.9z M18.5,17.2c-0.1,0-0.1,0-0.2,0c-0.4-0.2-0.8-0.4-1.1-0.6c0.2,0,0.5,0,0.4,0
		c0.2,0.2,0.5,0.3,0.7,0.5c0,0,0.1,0,0.1,0c0,0,0-0.1,0-0.1c0,0,0,0,0,0.1C18.5,17,18.5,17.1,18.5,17.2
		C18.5,17.3,18.5,17.3,18.5,17.2z M21.3,17.6c0,0.1,0,0.2,0,0.3v0.9c0,0,0,0,0,0l0,0c0,0,0,0,0,0c-0.4-0.1-0.7-0.3-1-0.5
		c-0.5-0.3-1.1-0.6-1.6-0.9c0,0,0,0,0,0c0-0.1,0-0.1,0.1-0.2l0,0c0.5,0.3,1.1,0.6,1.6,0.9c0.3,0.2,0.6,0.3,0.8,0.5v-0.7
		c-0.4-0.1-0.8-0.4-1.2-0.6c-0.3-0.2-0.7-0.4-1-0.6c0-0.1,0.2-0.2,0.3-0.2c0,0,0,0,0,0c0,0,0,0.1,0.1,0.1
		C20.1,16.9,20.6,17.3,21.3,17.6c0-0.1,0-0.2,0-0.3c0-0.1,0-0.2,0-0.3v0c-0.4-0.2-0.8-0.4-1.1-0.6h0.3c0.3,0.2,0.5,0.3,0.8,0.5
		c0,0.1,0,0.1,0,0.2l0,0c0,0.1,0,0.2,0,0.3S21.3,17.5,21.3,17.6z M21.9,19.2 M25.4,15.1h-3.4c-0.1-0.1,0-0.2,0-0.4
		c0-0.7,0-1.5,0-2.2c0-0.6-0.2-0.8-0.7-1c0.2,1.2,0,2.3,0.1,3.5h-2l0,0c-0.2-0.1-0.3-0.3-0.4-0.5c-0.2-0.2-0.2-0.5-0.4-0.7v1
		c0,0-0.1,0.1-0.2,0.1c0,0,0,0-0.1,0h0c0-0.5,0-0.9,0-1.4c0,0,0,0,0,0l0,0c0-0.1,0.1-0.2,0.2-0.2l0,0c0.1-0.2,0.2-0.3,0.4-0.4
		c0.9-1,1.8-1.8,2.8-2.8h2.8l0-3l-3,0v2.8c-0.9,0.8-1.7,1.7-2.6,2.5l0,0c-0.1,0.2-0.2,0.3-0.4,0.4l0,0c0,0.1-0.1,0.2-0.2,0.2l0,0
		c-0.1,0.2-0.3,0.3-0.5,0.5c0.2-0.1,0.3-0.3,0.5-0.5V8.7c-0.2-0.1-0.3-0.2-0.6-0.2v5.1c0,0,0,0,0,0c0,0,0,0,0,0l0,0
		c0,0.1-0.1,0.2-0.2,0.2l0,0c-0.1,0.2-0.2,0.3-0.4,0.4c0.1-0.1,0.3-0.2,0.4-0.4V8.3l0,0c-0.1-0.1-0.3-0.2-0.5-0.3v6.2c0,0,0,0,0,0
		c0,0,0,0,0,0l0,0c-0.1,0.1-0.2,0.2-0.3,0.3c0,0.1-0.2,0.2-0.2,0.3c-0.1,0-0.3,0-0.4,0c-0.2,0-0.3,0-0.5-0.1c0.2,0,0.3,0.1,0.5,0.1
		c0.1,0,0.3,0,0.4,0c0.1-0.1,0.2-0.2,0.2-0.3V7.8l-1-0.6l-1,0.6v6.7c0,0,0,0,0.1,0c0.1,0,0.2,0,0.2,0c-0.1,0-0.1,0-0.2,0
		c0,0-0.1,0-0.1,0l-0.3,0.1c-0.2,0.1-0.3,0.1-0.5,0.1l-0.2,0.1c-0.2,0.1-0.4,0-0.6,0.1H13c0,0,0,0,0,0l0-5.7c0-0.1,0-0.2,0-0.3v0
		c0,0,0,0,0,0c0,0,0,0-0.1,0C12.8,9,12.6,9,12.5,9.2V15c0,0,0,0,0,0c-0.6,0.1-1.1-0.2-1.6-0.4h0c-0.1,0-0.2,0-0.2,0
		c-0.7,0.3-1.3,0.3-2,0.3c-0.7,0-1.5,0-2.2,0c-0.1,0-0.3,0-0.4,0V6.4c0.4-0.1,18.1-0.1,19.3,0c0,0,0,0,0,0c0,0,0,0,0,0
		c0,2.8,0,5.6,0,8.4C25.4,14.9,25.4,15,25.4,15.1z M23.6,9.2c-0.2,0-0.3,0-0.5,0c-0.2,0-0.4,0-0.6,0V8h1.1L23.6,9.2z"/>
	<polygon points="21.7,19.6 21.6,19.6 21.6,19.6 	"/>
	<polygon points="14.7,14.6 14.7,14.6 14.7,14.6 14.7,14.6 	"/>
	<path d="M9.8,21.5"/>
	<polygon points="16,18.5 16,18.5 16,18.5 	"/>
	<path d="M13.8,8.7c0-0.1,0-0.1,0-0.2v0c0,0,0,0,0,0l0,0c0,0,0,0-0.1,0h0c-0.2,0-0.4,0.1-0.5,0.3v6.2v0c0.2,0,0.4,0,0.6-0.1
		C13.8,12.8,13.8,10.8,13.8,8.7L13.8,8.7z"/>
	<polygon points="14.4,8.1 14.4,8.1 14.4,8.1 	"/>
	<path d="M14.4,8.1L14.4,8.1C14.4,8.1,14.4,8.1,14.4,8.1c-0.1-0.1-0.1-0.1-0.1-0.1c-0.1,0.1-0.3,0.1-0.4,0.3v6.4h0
		c0.2,0,0.3-0.1,0.5-0.1c0-2.1,0-4.2,0-6.3C14.5,8.3,14.5,8.2,14.4,8.1z"/>
	<polygon points="12.9,8.9 12.9,8.9 12.9,8.9 	"/>
	<path d="M18.5,8.9v3.9l0,0c0.2-0.1,0.3-0.2,0.4-0.4V9.2l0,0C18.8,9,18.7,8.9,18.5,8.9z"/>
	<polygon points="24.1,20.1 24.1,20.1 24.1,20.2 	"/>
	<polygon points="24.1,19.3 24.1,19.3 24.1,19.3 	"/>
	<polygon points="24.1,18.4 24.1,18.4 24.1,18.4 	"/>
	<polygon points="21.3,17.6 21.3,17.6 21.3,17.6 	"/>
	<polygon points="18.5,17 18.5,17 18.5,17 	"/>
	<path d="M18.5,13.3c0,0.2,0,0.3,0,0.5c0.2,0.2,0.2,0.5,0.4,0.7v-1.6l0,0C18.7,13,18.6,13.2,18.5,13.3z"/>
	<polygon points="16,19.4 16,19.4 16,19.4 	"/>
	<path d="M22.1,22.9l-4.5-2.6c-0.5-0.3-1-0.6-1.6-0.9c-0.1-0.1-0.2-0.1-0.3-0.1c-0.1,0-0.2,0-0.3,0.1c-0.2,0.1-0.4,0.2-0.6,0.4
		c-1.4,0.8-2.8,1.6-4.2,2.4c-0.4,0.2-0.9,0.4-1.2,0.8c0.1,0.1,0.3,0.2,0.5,0.3l5.7-3.3c0.7,0.2,1.3,0.7,2,1.1s1.3,0.8,2,1.1
		s1.3,0.8,2,1.1C21.8,23.1,21.9,23,22.1,22.9z"/>
	<polygon points="9.4,22.9 9.4,22.9 9.4,22.9 	"/>
	<path d="M10.1,23.3c0.2,0.1,0.3,0.2,0.5,0.2l5.1-2.9l5.1,2.9c0.2,0,0.4-0.1,0.5-0.3L15.7,20C13.9,21.1,12,22.2,10.1,23.3z"/>
</g>
</svg>
