<!-- Generated by IcoMoon.io -->
<svg version="1.1" xmlns="http://www.w3.org/2000/svg" width="32" height="32" viewBox="0 0 32 32">
<title>faction_queens_wrath</title>
<path d="M28.293 14.191c-0.32-2.137-1.143-4.038-2.346-5.638l0.023 0.032c-0.461-0.865 1.344-3.898 1.344-3.898s-3.035 1.803-3.899 1.344c-1.568-1.18-3.47-2.003-5.538-2.314l-0.068-0.008c-0.938-0.282-1.809-3.707-1.809-3.707s-0.871 3.425-1.809 3.707c-2.137 0.32-4.038 1.143-5.638 2.346l0.032-0.023c-0.865 0.461-3.898-1.344-3.898-1.344s1.803 3.033 1.344 3.898c-1.18 1.568-2.003 3.47-2.314 5.539l-0.008 0.068c-0.282 0.938-3.707 1.809-3.707 1.809s3.425 0.871 3.707 1.809c0.32 2.137 1.143 4.038 2.346 5.638l-0.023-0.032c0.461 0.865-1.344 3.898-1.344 3.898s3.033-1.803 3.898-1.344c1.568 1.18 3.469 2.004 5.538 2.316l0.068 0.008c0.938 0.281 1.809 3.707 1.809 3.707s0.871-3.427 1.809-3.707c2.137-0.32 4.038-1.143 5.638-2.346l-0.032 0.023c0.865-0.461 3.898 1.344 3.898 1.344s-1.803-3.035-1.344-3.899c1.18-1.568 2.004-3.469 2.316-5.538l0.008-0.068c0.281-0.938 3.707-1.809 3.707-1.809s-3.427-0.871-3.707-1.809zM26.732 17.712c-0.289 1.768-0.968 3.339-1.948 4.676l0.021-0.030c-0.329 0.953 1.376 3.823 1.376 3.823s-2.871-1.704-3.824-1.375c-1.761 1.289-3.969 2.063-6.359 2.063s-4.598-0.774-6.389-2.084l0.031 0.021c-0.955-0.329-3.824 1.375-3.824 1.375s1.707-2.87 1.376-3.823c-0.958-1.307-1.637-2.878-1.917-4.583l-0.008-0.063c-0.473-0.9-3.668-1.711-3.668-1.711s3.194-0.813 3.668-1.711c0.289-1.768 0.968-3.339 1.947-4.676l-0.021 0.030c0.329-0.953-1.376-3.824-1.376-3.824s2.871 1.707 3.824 1.376c1.761-1.289 3.969-2.062 6.359-2.062s4.598 0.773 6.389 2.083l-0.031-0.021c0.953 0.329 3.823-1.376 3.823-1.376s-1.704 2.864-1.375 3.82c0.959 1.307 1.638 2.878 1.918 4.583l0.008 0.063c0.472 0.9 3.668 1.711 3.668 1.711s-3.196 0.815-3.669 1.715z"></path>
<path d="M15.999 26.467c-5.772 0-10.468-4.696-10.468-10.468s4.696-10.468 10.468-10.468 10.468 4.696 10.468 10.468-4.696 10.468-10.468 10.468zM15.999 5.795c-5.627 0-10.205 4.578-10.205 10.205s4.578 10.205 10.205 10.205 10.205-4.578 10.205-10.205-4.578-10.205-10.205-10.205z"></path>
<path d="M10.645 9.924l1.816 2.422v2.465l-1.816 7.092-1.73-7.049v-2.508l1.73-2.422z"></path>
<path d="M13.369 14.853l1.794 7.2h-3.74l1.946-7.2z"></path>
<path d="M16.114 9.924l1.816 2.422v2.465l-1.816 7.092-1.73-7.049v-2.508l1.73-2.422z"></path>
<path d="M18.838 14.853l1.795 7.2h-3.741l1.946-7.2z"></path>
<path d="M21.585 9.924l1.816 2.422v2.465l-1.816 7.092-1.73-7.049v-2.508l1.73-2.422z"></path>
</svg>
