<?xml version="1.0" encoding="UTF-8" standalone="no"?>
<svg
   xmlns:dc="http://purl.org/dc/elements/1.1/"
   xmlns:cc="http://creativecommons.org/ns#"
   xmlns:rdf="http://www.w3.org/1999/02/22-rdf-syntax-ns#"
   xmlns:svg="http://www.w3.org/2000/svg"
   xmlns="http://www.w3.org/2000/svg"
   xmlns:sodipodi="http://sodipodi.sourceforge.net/DTD/sodipodi-0.dtd"
   xmlns:inkscape="http://www.inkscape.org/namespaces/inkscape"
   width="32"
   height="32"
   viewBox="0 0 8.4666669 8.4666666"
   version="1.1"
   id="svg8"
   inkscape:version="1.0.2-2 (e86c870879, 2021-01-15)"
   sodipodi:docname="Trials.svg">
  <defs
     id="defs2" />
  <sodipodi:namedview
     id="base"
     pagecolor="#ffffff"
     bordercolor="#666666"
     borderopacity="1.0"
     inkscape:pageopacity="0.0"
     inkscape:pageshadow="2"
     inkscape:zoom="16"
     inkscape:cx="-3.1449748"
     inkscape:cy="23.204457"
     inkscape:document-units="mm"
     inkscape:current-layer="layer1"
     showgrid="false"
     inkscape:snap-global="true"
     fit-margin-top="0"
     fit-margin-left="0"
     fit-margin-right="0"
     fit-margin-bottom="0"
     inkscape:window-width="1920"
     inkscape:window-height="1121"
     inkscape:window-x="-9"
     inkscape:window-y="-9"
     inkscape:window-maximized="1"
     inkscape:document-rotation="0"
     units="px" />
  <metadata
     id="metadata5">
    <rdf:RDF>
      <cc:Work
         rdf:about="">
        <dc:format>image/svg+xml</dc:format>
        <dc:type
           rdf:resource="http://purl.org/dc/dcmitype/StillImage" />
        <dc:title></dc:title>
      </cc:Work>
    </rdf:RDF>
  </metadata>
  <g
     inkscape:label="Layer 1"
     inkscape:groupmode="layer"
     id="layer1"
     transform="translate(151.20907,83.41444)">
    <path
       style="fill:#000000;stroke:none;stroke-width:1"
       d="m -147.03183,-83.362322 c -0.1487,0.01952 -0.29038,0.0345 -0.43009,0.09609 -0.45556,0.200867 -0.55388,0.682487 -0.74539,1.088271 -0.29222,0.61915 -0.56787,1.246164 -0.85292,1.868676 -0.10394,0.226994 -0.20766,0.454147 -0.30923,0.682214 -0.0693,0.15558 -0.14726,0.317823 -0.12836,0.494359 0.0155,0.144452 0.0702,0.264927 0.12836,0.395487 0.0641,0.143908 0.12982,0.286975 0.19553,0.430092 0.21139,0.460445 0.41645,0.923758 0.62783,1.384204 0.11474,0.249947 0.23833,0.498264 0.34546,0.751425 0.10006,0.236402 0.17653,0.503949 0.3236,0.716819 0.23977,0.347139 0.66023,0.502368 1.07261,0.453377 0.31744,-0.03767 0.59586,-0.227553 0.76413,-0.497869 0.12488,-0.200561 0.20081,-0.444478 0.28896,-0.66244 0.0663,-0.164078 0.15018,-0.323459 0.2239,-0.484471 0.25236,-0.551161 0.49851,-1.105189 0.75141,-1.656102 0.0657,-0.143116 0.13146,-0.286184 0.19552,-0.430091 0.0719,-0.16131 0.13725,-0.313177 0.12903,-0.494359 -0.007,-0.143908 -0.0682,-0.272515 -0.1268,-0.400431 -0.0565,-0.123382 -0.11157,-0.247387 -0.16808,-0.370768 -0.22903,-0.500203 -0.45318,-1.002644 -0.68222,-1.50285 -0.10563,-0.230737 -0.21632,-0.459937 -0.3186,-0.692103 -0.0976,-0.221671 -0.16576,-0.471312 -0.29618,-0.677271 -0.20491,-0.323523 -0.59792,-0.543537 -0.98847,-0.492262 m 0.33617,0.077 -0.18786,0.133725 -0.0889,0.03747 -0.0989,-0.03929 -0.18291,-0.126956 c 0.0678,-0.02298 0.14198,-0.02182 0.21257,-0.02491 0.11247,-0.0049 0.23705,-0.01694 0.34606,0.01997 m 0.46964,0.266955 -0.30156,0.17308 -0.17797,0.09882 c -0.11944,-0.209617 -0.42915,-0.225882 -0.53885,0.0049 l -0.17797,-0.09882 -0.30156,-0.17308 c 0.0659,-0.09355 0.20402,-0.192513 0.31639,-0.219228 0.0361,-0.0086 0.0882,-0.01739 0.12358,-0.0022 0.0758,0.0328 0.14253,0.09866 0.21258,0.142505 0.0259,0.01617 0.0617,0.04694 0.094,0.04563 0.0319,-0.0013 0.0679,-0.03108 0.094,-0.04746 0.0714,-0.04495 0.1402,-0.112165 0.21752,-0.145623 0.0353,-0.01527 0.0875,-0.0064 0.12358,0.0022 0.11237,0.02671 0.2505,0.125681 0.3164,0.219228 m -1.0431,0.31639 c -0.009,0.06239 -0.021,0.115814 4.6e-4,0.177969 0.0824,0.23832 0.39312,0.272584 0.54084,0.07909 0.0647,-0.08483 0.0603,-0.162966 0.047,-0.262011 0.0863,-0.04594 0.1711,-0.09522 0.25708,-0.141836 0.0561,-0.0304 0.11167,-0.06184 0.16807,-0.09159 0.0175,-0.0092 0.0487,-0.03286 0.0692,-0.02918 0.0226,0.004 0.0411,0.0381 0.0538,0.05498 0.0395,0.05217 0.0767,0.109381 0.10565,0.168081 0.01,0.01996 0.0273,0.04713 0.0147,0.06914 -0.0353,0.06128 -0.14984,0.07854 -0.20867,0.11036 -0.1841,0.09958 -0.35985,0.204091 -0.53885,0.312143 -0.0509,0.03074 -0.0954,0.06961 -0.14336,0.104329 -0.0202,0.01466 -0.0424,0.03606 -0.0692,0.03538 -0.074,-0.0019 -0.15814,-0.09634 -0.21751,-0.13496 -0.0628,-0.04083 -0.11954,-0.09017 -0.18291,-0.130298 -0.10614,-0.06721 -0.21841,-0.122359 -0.33122,-0.176951 -0.0676,-0.03272 -0.18895,-0.05698 -0.22583,-0.129833 -0.012,-0.0239 0.004,-0.048 0.0145,-0.06919 0.0274,-0.05321 0.0622,-0.105526 0.0982,-0.153251 0.0127,-0.01688 0.0312,-0.05091 0.0538,-0.05498 0.0204,-0.0037 0.0516,0.01996 0.0692,0.02918 0.0564,0.02976 0.11201,0.0612 0.16807,0.0916 0.086,0.04661 0.17076,0.0959 0.25707,0.141836 m 0.28673,-0.16171 c 0.13594,-0.0176 0.27921,0.109145 0.27659,0.245751 -0.003,0.127549 -0.11193,0.239339 -0.23705,0.255637 -0.20406,0.02658 -0.37758,-0.195928 -0.26156,-0.379226 0.0476,-0.07514 0.13654,-0.111088 0.22202,-0.122162 m 0,0.05505 c -0.0999,0.01328 -0.17298,0.07748 -0.18643,0.180816 -0.015,0.115478 0.0862,0.236674 0.2062,0.221033 0.097,-0.01264 0.17234,-0.08895 0.18208,-0.186428 0.0113,-0.113341 -0.0835,-0.231136 -0.20185,-0.215421 m 1.15185,0.521924 c -0.19769,0.07567 -0.39553,0.137254 -0.58334,0.23882 -0.0811,0.04387 -0.16215,0.09026 -0.2373,0.143947 -0.0516,0.03691 -0.10752,0.09072 -0.16808,0.11176 -0.0366,0.01272 -0.0811,-0.007 -0.11864,-0.0096 -0.055,-0.0038 -0.11533,0.01937 -0.16808,0.01091 -0.0959,-0.0154 -0.17688,-0.100928 -0.25707,-0.150714 -0.15181,-0.09426 -0.31031,-0.171435 -0.47459,-0.241287 -0.058,-0.02472 -0.1178,-0.04829 -0.17796,-0.06751 -0.0264,-0.0084 -0.0625,-0.01193 -0.0791,-0.03684 -0.0164,-0.02459 -0.006,-0.04934 0.005,-0.07362 0.0226,-0.05295 0.0478,-0.104681 0.0692,-0.158195 0.008,-0.02057 0.0153,-0.05638 0.0329,-0.07097 0.0164,-0.01366 0.049,0.004 0.066,0.01013 0.0637,0.02268 0.12676,0.05525 0.18786,0.08431 0.1846,0.08776 0.36059,0.18486 0.53391,0.294059 0.0664,0.04186 0.13452,0.125479 0.20763,0.151339 0.0282,0.01001 0.054,-0.01722 0.0741,-0.03266 0.0565,-0.04337 0.11226,-0.08919 0.17302,-0.126669 0.19028,-0.117415 0.38031,-0.232927 0.58829,-0.316449 0.0472,-0.01895 0.0899,-0.04577 0.13841,-0.06227 0.0143,-0.0048 0.0376,-0.01732 0.0524,-0.0093 0.0219,0.01186 0.0318,0.06161 0.0405,0.08345 0.0301,0.07493 0.0763,0.148688 0.095,0.227404 m 0.16808,0.37077 c -0.20822,0.01657 -0.42084,0.113297 -0.60805,0.199271 -0.0521,0.02394 -0.10516,0.0497 -0.15326,0.08101 -0.0273,0.01781 -0.0643,0.04923 -0.0989,0.04885 -0.0351,-3.93e-4 -0.0483,-0.03497 -0.0694,-0.05723 -0.0322,-0.03389 -0.0699,-0.05562 -0.10857,-0.0808 -0.0164,-0.01064 -0.045,-0.02336 -0.0365,-0.04762 0.0175,-0.04949 0.12231,-0.09372 0.16502,-0.120331 0.1708,-0.106387 0.35697,-0.193991 0.54379,-0.268111 0.0525,-0.02085 0.10861,-0.04093 0.16314,-0.05585 0.0162,-0.0044 0.0421,-0.01576 0.0586,-0.009 0.0234,0.0096 0.0345,0.05611 0.0437,0.07748 0.0328,0.07583 0.0785,0.152727 0.10025,0.232348 m -2.47648,-0.30617 c 0.0521,-0.01079 0.13862,0.03932 0.1876,0.05569 0.18939,0.06337 0.37102,0.162273 0.5438,0.261105 0.0507,0.02905 0.10125,0.06022 0.14831,0.09503 0.0152,0.01122 0.0403,0.02345 0.0462,0.04278 0.007,0.02264 -0.0212,0.03325 -0.0363,0.04246 -0.0389,0.02377 -0.0721,0.05345 -0.10377,0.08594 -0.0162,0.01658 -0.0316,0.04464 -0.0549,0.05154 -0.0572,0.01695 -0.14841,-0.06292 -0.1973,-0.08736 -0.13481,-0.06741 -0.27516,-0.132231 -0.4202,-0.174652 -0.0629,-0.0184 -0.18065,-0.02472 -0.22687,-0.07183 -0.0261,-0.02653 -0.0112,-0.04933 0.002,-0.07858 0.023,-0.05288 0.0473,-0.105175 0.07,-0.158195 0.008,-0.01929 0.0182,-0.05903 0.0419,-0.06393 m 2.50615,0.36055 0.12358,0.291672 c -0.21989,1.8e-5 -0.45243,0.09571 -0.65255,0.178023 -0.0606,0.02494 -0.11939,0.05347 -0.17797,0.08277 -0.0192,0.0096 -0.0515,0.034 -0.0738,0.02738 -0.0283,-0.0084 -0.0221,-0.06683 -0.0287,-0.09043 -0.0122,-0.0444 -0.0702,-0.11882 -0.0408,-0.16223 0.0143,-0.0211 0.043,-0.035 0.0643,-0.04825 0.16615,-0.104013 0.36428,-0.18005 0.55367,-0.230074 0.0767,-0.02026 0.15618,-0.02871 0.23236,-0.04886 m -1.88845,0.5784 c -0.12404,-0.03573 -0.24412,-0.111008 -0.36583,-0.157245 -0.1189,-0.04517 -0.2417,-0.08039 -0.36582,-0.107613 -0.0411,-0.009 -0.12567,-0.0038 -0.15652,-0.03332 -0.0223,-0.02137 -0.009,-0.04412 9.9e-4,-0.06764 0.0212,-0.04885 0.0549,-0.180238 0.11082,-0.195598 0.053,-0.01456 0.13131,0.01645 0.18292,0.02935 0.16467,0.04117 0.33009,0.101838 0.47953,0.182596 0.0494,0.02665 0.14944,0.05677 0.17297,0.112374 0.0129,0.03043 -0.009,0.05712 -0.0204,0.08384 -0.0226,0.05115 -0.0236,0.101671 -0.0389,0.153252 m 0.56357,-0.456926 c 0.17965,5.72e-4 0.36548,0.144728 0.43291,0.303674 0.0236,0.05554 0.0476,0.143379 0.0224,0.202173 -0.0117,0.02735 -0.0555,0.04329 -0.0796,0.05786 -0.0614,0.03702 -0.12029,0.07752 -0.17797,0.120045 -0.0452,0.0333 -0.0901,0.06577 -0.13348,0.101353 -0.0235,0.01931 -0.0466,0.04315 -0.0791,0.0423 -0.0793,-0.0021 -0.15394,-0.114429 -0.21257,-0.159629 -0.0565,-0.0435 -0.11633,-0.08398 -0.17797,-0.119768 -0.0252,-0.01463 -0.0727,-0.03051 -0.0865,-0.05752 -0.0275,-0.05408 0.009,-0.152014 0.0334,-0.201648 0.0791,-0.16345 0.27309,-0.289437 0.45847,-0.288844 m -0.0445,0.05861 c -0.15741,0.02254 -0.29068,0.105802 -0.35663,0.254951 -0.0167,0.03778 -0.046,0.107123 -0.0289,0.148214 0.01,0.02405 0.0396,0.03718 0.0592,0.05237 0.05,0.03855 0.10188,0.07549 0.15325,0.11229 0.0426,0.03055 0.0887,0.05968 0.12833,0.0941 0.0215,0.01876 0.0372,0.04408 0.0694,0.04119 0.0413,-0.0038 0.0629,-0.03849 0.094,-0.06111 0.0775,-0.05649 0.15434,-0.113801 0.23234,-0.169535 0.0285,-0.02038 0.0843,-0.04718 0.0919,-0.08405 0.01,-0.04838 -0.0202,-0.116106 -0.0413,-0.15819 -0.0717,-0.143315 -0.23654,-0.253883 -0.40161,-0.230233 m 1.6561,0.462581 c -0.0978,0 -0.19394,-0.0058 -0.29167,0.0063 -0.32227,0.0401 -0.64133,0.166919 -0.91456,0.339955 -0.10624,0.06728 -0.20758,0.143077 -0.29662,0.232087 -0.0135,0.01354 -0.0981,0.08458 -0.0639,0.101056 0.0302,0.01456 0.0702,-0.05358 0.0886,-0.07121 0.0851,-0.0815 0.17772,-0.155407 0.27683,-0.219234 0.26889,-0.173168 0.5792,-0.29092 0.89479,-0.341616 0.0776,-0.01246 0.16369,-0.0275 0.24224,-0.02225 0.0197,0.0013 0.0603,-0.0016 0.0766,0.0096 0.0218,0.01492 0.032,0.06079 0.0432,0.0839 0.0362,0.07422 0.0727,0.150399 0.10264,0.227405 -0.38699,-0.08872 -0.79301,-0.03 -1.1568,0.125701 -0.10882,0.04657 -0.21461,0.109273 -0.30651,0.183822 -0.0118,0.0097 -0.0944,0.06945 -0.0719,0.08555 0.0239,0.0171 0.0839,-0.05205 0.10149,-0.06558 0.0989,-0.07621 0.21184,-0.13317 0.32628,-0.18193 0.26161,-0.111437 0.53831,-0.152509 0.82063,-0.152509 0.0728,0 0.14594,0.0094 0.21752,0.02279 0.0243,0.0045 0.0621,0.0056 0.0821,0.02099 0.0254,0.01949 0.0379,0.07095 0.0506,0.09958 0.036,0.08087 0.0755,0.160494 0.10945,0.242236 -0.36785,-0.195775 -0.8192,-0.232581 -1.22107,-0.117207 -0.0982,0.0282 -0.19403,0.06445 -0.28178,0.117207 -0.034,0.02046 -0.0765,0.04195 -0.0939,0.07909 0.0531,0.01087 0.0943,-0.04182 0.13841,-0.0671 0.0887,-0.05081 0.18796,-0.08175 0.28673,-0.106445 0.33532,-0.08382 0.7538,-0.08111 1.06781,0.0759 0.0439,0.02194 0.098,0.04683 0.13031,0.08499 0.0231,0.0273 0.0344,0.06933 0.0492,0.101645 0.0302,0.06586 0.0614,0.131361 0.0903,0.197744 0.0166,0.03807 0.0363,0.07497 0.0514,0.113703 0.005,0.01365 0.0118,0.03323 -0.006,0.04073 -0.0316,0.01331 -0.0643,-0.04241 -0.0829,-0.06031 -0.0703,-0.06752 -0.14683,-0.130051 -0.22742,-0.184806 -0.29834,-0.202761 -0.67618,-0.324996 -1.03815,-0.256336 -0.0929,0.01762 -0.18513,0.04103 -0.2719,0.07938 -0.0126,0.0056 -0.0792,0.02921 -0.0752,0.04632 0.004,0.01845 0.0369,0.0013 0.0456,-0.0025 0.0469,-0.02049 0.0948,-0.03881 0.14337,-0.05467 0.2015,-0.06569 0.43142,-0.07149 0.63772,-0.02593 0.43286,0.09561 0.85573,0.402507 1.04933,0.803708 0.0668,0.138569 0.11948,0.289546 0.11948,0.444923 0,0.188499 -0.0782,0.367555 -0.15983,0.533906 -0.0579,0.118005 -0.17618,0.230372 -0.27239,0.317231 -0.29502,0.266459 -0.6431,0.424308 -1.04309,0.424308 -0.13901,0 -0.28129,-0.02951 -0.41032,-0.08108 -0.0276,-0.01103 -0.0556,-0.02616 -0.084,-0.03456 -0.007,-0.0022 -0.0286,-0.0044 -0.0259,0.0097 0.003,0.0175 0.0602,0.03574 0.0753,0.04241 0.079,0.0349 0.1627,0.05755 0.24719,0.07446 0.36384,0.07277 0.75142,-0.03614 1.05298,-0.244609 0.082,-0.05676 0.15939,-0.118844 0.23235,-0.186917 0.0199,-0.01859 0.0516,-0.07306 0.0835,-0.06634 0.0244,0.0052 0.0148,0.03139 0.008,0.04701 -0.0181,0.04335 -0.0383,0.08616 -0.0585,0.128534 -0.0404,0.08498 -0.0697,0.207878 -0.13041,0.279609 -0.0432,0.05117 -0.12399,0.08562 -0.18469,0.110885 -0.3073,0.12789 -0.69369,0.129917 -1.01344,0.04997 -0.0988,-0.02467 -0.19794,-0.05561 -0.28672,-0.106436 -0.0441,-0.02526 -0.0853,-0.07796 -0.13843,-0.06708 0.0175,0.03712 0.0599,0.05863 0.094,0.07909 0.0877,0.05275 0.18355,0.08898 0.28179,0.117213 0.40186,0.115382 0.85321,0.07855 1.22106,-0.117213 -0.034,0.08172 -0.0734,0.161358 -0.10945,0.242235 -0.0127,0.02863 -0.0253,0.08009 -0.0506,0.09956 -0.02,0.01543 -0.0577,0.01646 -0.0821,0.02102 -0.0716,0.01339 -0.1447,0.02279 -0.21752,0.02279 -0.28233,0 -0.55902,-0.04108 -0.82064,-0.152509 -0.11444,-0.04874 -0.22741,-0.105694 -0.32627,-0.181924 -0.0176,-0.01354 -0.0776,-0.08266 -0.10149,-0.0656 -0.0225,0.01612 0.06,0.07594 0.0719,0.08557 0.0919,0.07455 0.19769,0.137233 0.3065,0.183803 0.3638,0.155722 0.76981,0.214452 1.1568,0.125715 -0.0298,0.07702 -0.0664,0.153201 -0.10264,0.227404 -0.0112,0.02309 -0.0214,0.06897 -0.0432,0.08389 -0.0163,0.01117 -0.0569,0.0083 -0.0766,0.0096 -0.0786,0.0052 -0.16467,-0.0098 -0.24223,-0.02225 -0.3156,-0.05068 -0.62591,-0.168427 -0.89479,-0.341602 -0.0991,-0.06382 -0.19176,-0.137728 -0.27684,-0.219248 -0.0181,-0.0173 -0.059,-0.08601 -0.0888,-0.07119 -0.0338,0.01676 0.0505,0.0875 0.0642,0.101048 0.089,0.08898 0.19038,0.164819 0.29661,0.2321 0.27319,0.173026 0.59229,0.299829 0.91457,0.339922 0.0977,0.01216 0.19388,0.0064 0.29167,0.0064 -0.026,0.07623 -0.0669,0.148506 -0.0989,0.222461 -0.0105,0.02427 -0.0234,0.07415 -0.0464,0.08884 -0.0207,0.01325 -0.0594,0.0018 -0.0821,-0.0013 -0.0753,-0.0099 -0.14945,-0.02511 -0.22247,-0.04598 -0.29696,-0.08473 -0.59778,-0.212129 -0.85029,-0.391927 -0.0806,-0.0574 -0.15721,-0.113406 -0.22741,-0.183605 -0.0241,-0.02407 -0.0609,-0.07672 -0.0989,-0.07638 -0.0394,4.5e-4 -0.0732,0.05171 -0.0989,0.07618 -0.0648,0.06189 -0.13817,0.116965 -0.21258,0.166648 -0.26572,0.177474 -0.55753,0.315203 -0.86512,0.402753 -0.0733,0.02087 -0.14708,0.03604 -0.22246,0.04667 -0.0236,0.0034 -0.0655,0.01572 -0.0871,0.002 -0.023,-0.01469 -0.0359,-0.06456 -0.0464,-0.08884 -0.0319,-0.07395 -0.0729,-0.146232 -0.0989,-0.222461 0.0978,0 0.19394,0.0058 0.29168,-0.0064 0.32227,-0.04009 0.64138,-0.166895 0.91456,-0.339921 0.10624,-0.06728 0.20758,-0.143116 0.29662,-0.232102 0.0135,-0.01354 0.0981,-0.08458 0.0639,-0.101046 -0.0302,-0.01459 -0.0702,0.05359 -0.0886,0.07119 -0.0851,0.08152 -0.17772,0.155427 -0.27684,0.219249 -0.26888,0.173173 -0.5792,0.29093 -0.89479,0.341601 -0.0776,0.01246 -0.16369,0.02749 -0.24224,0.02225 -0.0197,-0.0014 -0.0603,0.0016 -0.0766,-0.0096 -0.0218,-0.01493 -0.032,-0.0608 -0.0432,-0.08389 -0.0362,-0.07421 -0.0727,-0.150384 -0.10262,-0.227405 0.38698,0.08874 0.79299,0.03001 1.15679,-0.125716 0.10881,-0.04657 0.2146,-0.109253 0.30651,-0.183802 0.0118,-0.0097 0.0944,-0.06946 0.0719,-0.08557 -0.0239,-0.01706 -0.0839,0.05206 -0.10149,0.0656 -0.0989,0.07623 -0.21184,0.13318 -0.32628,0.181924 -0.26162,0.111428 -0.53831,0.15251 -0.82064,0.15251 -0.0728,0 -0.14594,-0.0094 -0.21752,-0.02279 -0.0243,-0.0045 -0.062,-0.0056 -0.0821,-0.02101 -0.0255,-0.01947 -0.0379,-0.07094 -0.0506,-0.09956 -0.036,-0.08088 -0.0754,-0.160519 -0.10945,-0.242236 0.36785,0.195766 0.8192,0.232596 1.22106,0.117212 0.0982,-0.02823 0.19404,-0.06446 0.28179,-0.117212 0.0341,-0.02046 0.0765,-0.04197 0.094,-0.07909 -0.0531,-0.01088 -0.0943,0.04182 -0.13842,0.06708 -0.0887,0.05082 -0.18796,0.08177 -0.28674,0.106435 -0.33531,0.08384 -0.75379,0.08113 -1.06781,-0.07589 -0.0439,-0.0219 -0.098,-0.04682 -0.13032,-0.08498 -0.0231,-0.02729 -0.0344,-0.06931 -0.0492,-0.10164 -0.0301,-0.06585 -0.0613,-0.131351 -0.0903,-0.197744 -0.0166,-0.03806 -0.0363,-0.07495 -0.0514,-0.113702 -0.005,-0.01364 -0.0118,-0.03323 0.006,-0.04074 0.0316,-0.0133 0.0643,0.04242 0.0829,0.06031 0.0703,0.06753 0.14682,0.130067 0.22741,0.184792 0.29834,0.202786 0.67618,0.324991 1.03815,0.256375 0.0929,-0.01765 0.18513,-0.04103 0.2719,-0.07939 0.0126,-0.0056 0.0792,-0.02922 0.0752,-0.04632 -0.004,-0.01844 -0.0369,-0.0014 -0.0456,0.0025 -0.0469,0.02052 -0.0948,0.03881 -0.14337,0.05467 -0.2015,0.0657 -0.43142,0.07148 -0.63772,0.02595 -0.43286,-0.09561 -0.85571,-0.402507 -1.04932,-0.803727 -0.0558,-0.115631 -0.108,-0.246192 -0.11692,-0.375713 -0.0145,-0.21129 0.0658,-0.407075 0.15726,-0.593231 0.0579,-0.118023 0.1762,-0.230351 0.27239,-0.31723 0.29502,-0.266474 0.6431,-0.424308 1.04309,-0.424308 0.13901,0 0.28129,0.02951 0.41032,0.08108 0.0276,0.01104 0.0556,0.02615 0.084,0.03455 0.007,0.0022 0.0286,0.0044 0.0259,-0.0096 -0.003,-0.01752 -0.0602,-0.03577 -0.0753,-0.04242 -0.079,-0.03492 -0.1627,-0.05757 -0.24718,-0.07446 -0.36385,-0.07276 -0.75143,0.03615 -1.05299,0.244624 -0.082,0.05672 -0.15937,0.118814 -0.23235,0.186897 -0.0199,0.01859 -0.0516,0.07306 -0.0835,0.06634 -0.0245,-0.0051 -0.0148,-0.03138 -0.008,-0.047 0.0181,-0.04333 0.0383,-0.08616 0.0584,-0.128532 0.0405,-0.085 0.0698,-0.207858 0.13042,-0.279614 0.0432,-0.05115 0.12405,-0.08562 0.18471,-0.11087 0.30729,-0.127886 0.69368,-0.129952 1.01343,-0.05002 0.0988,0.0247 0.19795,0.05563 0.28674,0.106445 0.0441,0.02528 0.0853,0.07797 0.13841,0.0671 -0.0175,-0.03714 -0.0599,-0.05863 -0.094,-0.07909 -0.0877,-0.05276 -0.18355,-0.08901 -0.28178,-0.117208 -0.40186,-0.115373 -0.85321,-0.07857 -1.22106,0.117208 0.034,-0.08174 0.0734,-0.161364 0.10944,-0.242236 0.0127,-0.02863 0.0253,-0.08008 0.0506,-0.09958 0.02,-0.0154 0.0577,-0.01644 0.0821,-0.02099 0.0716,-0.0134 0.14469,-0.02279 0.21751,-0.02279 0.28233,0 0.55902,0.04107 0.82064,0.152511 0.11444,0.04876 0.2274,0.105713 0.32627,0.181929 0.0176,0.01353 0.0776,0.08268 0.10149,0.06558 0.0225,-0.01611 -0.06,-0.07593 -0.0718,-0.08555 -0.0919,-0.07455 -0.1977,-0.137254 -0.30651,-0.183822 -0.36379,-0.155699 -0.76982,-0.214418 -1.1568,-0.1257 0.0298,-0.077 0.0664,-0.153188 0.10263,-0.227406 0.0112,-0.02311 0.0214,-0.06898 0.0432,-0.0839 0.0163,-0.01116 0.0569,-0.0083 0.0766,-0.0096 0.0786,-0.0052 0.16467,0.0098 0.24224,0.02225 0.31559,0.0507 0.62591,0.168448 0.89479,0.341617 0.0991,0.06382 0.19176,0.137733 0.27684,0.219233 0.0181,0.01731 0.059,0.08605 0.0888,0.07121 0.0338,-0.01677 -0.0505,-0.0875 -0.0642,-0.101056 -0.089,-0.08901 -0.19038,-0.164809 -0.29662,-0.232087 -0.27323,-0.173036 -0.59229,-0.299854 -0.91456,-0.339955 -0.0977,-0.01216 -0.19389,-0.0063 -0.29167,-0.0063 0.026,-0.07624 0.0669,-0.1485 0.0989,-0.222462 0.0105,-0.02429 0.0234,-0.07416 0.0464,-0.08885 0.0215,-0.01376 0.0635,-0.0014 0.0871,0.002 0.0754,0.01063 0.14919,0.02579 0.22245,0.04665 0.30552,0.08697 0.59611,0.223342 0.86019,0.399477 0.0744,0.04961 0.14707,0.104221 0.21257,0.165224 0.0243,0.02265 0.0577,0.07464 0.094,0.07535 0.0434,8.42e-4 0.0758,-0.04885 0.10382,-0.0756 0.0648,-0.06189 0.13817,-0.116951 0.21258,-0.16663 0.26571,-0.177474 0.55752,-0.315208 0.86512,-0.402768 0.0732,-0.02085 0.14707,-0.03602 0.22246,-0.04665 0.0236,-0.0034 0.0655,-0.01572 0.0871,-0.002 0.023,0.01469 0.0359,0.06455 0.0464,0.08885 0.032,0.07396 0.0729,0.146216 0.0989,0.222461 m -1.63138,0.750833 c -0.24017,0.03786 -0.47686,0.223795 -0.63729,0.39608 -0.0399,0.04283 -0.0656,0.100893 -0.10617,0.141435 -0.0363,0.03631 -0.0913,0.06099 -0.13156,0.09464 -0.0814,0.06811 -0.15226,0.148639 -0.21569,0.233565 -0.0835,0.111898 -0.2062,0.281389 -0.19379,0.430091 0.02,0.239517 0.22459,0.47859 0.39465,0.631939 0.0442,0.03985 0.10535,0.06575 0.14639,0.106584 0.0406,0.04044 0.0663,0.09863 0.10617,0.141436 0.12162,0.13061 0.26533,0.237885 0.42471,0.317625 0.064,0.03198 0.16285,0.08943 0.23729,0.07811 0.23052,-0.0351 0.46445,-0.226416 0.61751,-0.39079 0.0399,-0.04281 0.0656,-0.100899 0.10618,-0.141437 0.0393,-0.0393 0.0983,-0.06595 0.14144,-0.102925 0.0819,-0.07015 0.1533,-0.153102 0.21678,-0.24011 0.0822,-0.112763 0.19671,-0.277187 0.18281,-0.425148 -0.0226,-0.240501 -0.2231,-0.477278 -0.39464,-0.631938 -0.0442,-0.03984 -0.10535,-0.06574 -0.14639,-0.106584 -0.0406,-0.04042 -0.0663,-0.09865 -0.10618,-0.141436 -0.11929,-0.128114 -0.263,-0.239038 -0.41977,-0.317611 -0.0588,-0.02948 -0.15424,-0.08428 -0.22245,-0.07353 m 0.53885,0.178562 c 0.0177,0.03464 0.0496,0.01355 0.0791,0.0057 0.076,-0.02026 0.15414,-0.02549 0.23235,-0.02549 0.25722,1.4e-5 0.52279,0.108027 0.73166,0.25225 0.12962,0.08951 0.24728,0.20507 0.34159,0.331093 0.0603,0.08044 0.11064,0.172229 0.14441,0.266953 0.19853,0.557389 -0.2627,1.092335 -0.75296,1.298087 -0.18449,0.07742 -0.37437,0.112219 -0.57346,0.101145 -0.0462,-0.0026 -0.0942,-0.01137 -0.13841,-0.02506 -0.0267,-0.0082 -0.0492,-0.01972 -0.0643,0.01004 0.10248,0.04409 0.22681,0.04948 0.33617,0.0447 0.34209,-0.01497 0.61671,-0.17179 0.8849,-0.371758 0.0495,-0.03688 0.1046,-0.02887 0.16313,-0.02887 0.0207,0 0.0618,0.0071 0.0731,-0.01597 0.008,-0.01597 7.5e-4,-0.04548 9.9e-4,-0.06313 6.6e-4,-0.05211 -0.008,-0.117706 0.006,-0.168081 0.0108,-0.04197 0.0482,-0.08557 0.0693,-0.12359 0.0333,-0.05997 0.0575,-0.126951 0.0763,-0.1928 0.0519,-0.181825 0.0192,-0.358954 -0.0566,-0.528963 -0.0242,-0.05422 -0.0674,-0.102827 -0.0874,-0.158195 -0.0173,-0.04783 -0.007,-0.122057 -0.007,-0.173026 -1.9e-4,-0.01793 0.008,-0.05226 -0.003,-0.06706 -0.0121,-0.01569 -0.0386,-0.01203 -0.0559,-0.01203 -0.0438,-1.5e-5 -0.10277,0.01029 -0.14336,-0.0081 -0.0577,-0.02618 -0.10668,-0.07936 -0.1582,-0.116204 -0.0866,-0.06192 -0.17989,-0.115318 -0.27683,-0.159015 -0.23834,-0.107443 -0.56906,-0.18092 -0.82064,-0.07264 m -1.07276,2.209783 c -0.0151,-0.02976 -0.0376,-0.01824 -0.0643,-0.01004 -0.0442,0.01369 -0.0923,0.0225 -0.13842,0.02506 -0.19913,0.01107 -0.38895,-0.02373 -0.57346,-0.101145 -0.4859,-0.203923 -0.95438,-0.738968 -0.75116,-1.293144 0.0348,-0.09469 0.0852,-0.186778 0.14632,-0.266953 0.0956,-0.125231 0.21242,-0.240723 0.34284,-0.32952 0.2106,-0.143369 0.47369,-0.24888 0.73165,-0.24888 0.0765,0 0.15315,0.0057 0.2274,0.02549 0.0294,0.0078 0.0615,0.02893 0.0791,-0.0057 -0.10248,-0.04409 -0.22681,-0.04946 -0.33616,-0.04469 -0.3421,0.01496 -0.61671,0.171805 -0.88491,0.371738 -0.0495,0.03691 -0.1046,0.02888 -0.16313,0.02888 -0.0207,0 -0.0618,-0.0071 -0.0731,0.01596 -0.008,0.01597 -7.4e-4,0.04547 -9.9e-4,0.06314 -5.6e-4,0.05211 0.008,0.117711 -0.006,0.168081 -0.0109,0.04198 -0.0482,0.0856 -0.0693,0.12359 -0.0333,0.05997 -0.0575,0.126966 -0.0763,0.1928 -0.0514,0.180046 -0.0183,0.356334 0.0587,0.52402 0.024,0.05216 0.0658,0.09966 0.0853,0.153252 0.0173,0.04785 0.007,0.122057 0.007,0.173024 1.8e-4,0.01794 -0.008,0.05226 0.003,0.06708 0.0121,0.01567 0.0386,0.01201 0.0559,0.01201 0.0438,0 0.10277,-0.01029 0.14336,0.0081 0.0577,0.0262 0.10668,0.07939 0.1582,0.116224 0.0866,0.06194 0.17989,0.115334 0.27684,0.159036 0.23833,0.107424 0.56906,0.180886 0.82063,0.07262 m 1.18152,-2.09608 c 0.0232,0.02367 0.0543,0.01203 0.084,0.01035 0.0399,-0.0023 0.0842,0.006 0.1236,0.01234 0.14193,0.02281 0.27743,0.07999 0.40043,0.153325 0.27828,0.165916 0.5921,0.496455 0.56807,0.847311 -0.0114,0.166796 -0.0903,0.318663 -0.18924,0.449867 -0.0798,0.105743 -0.17782,0.1971 -0.2849,0.274714 -0.13393,0.09714 -0.28718,0.174262 -0.44987,0.208719 -0.052,0.01103 -0.1099,0.02156 -0.16314,0.02057 -0.0311,-6.46e-4 -0.0645,-0.01484 -0.0889,0.01014 0.0518,0.02491 0.14168,0.01241 0.19774,0.0057 0.19023,-0.02279 0.36796,-0.110587 0.52402,-0.218209 0.0598,-0.04118 0.11756,-0.117312 0.18292,-0.145886 0.0429,-0.01873 0.12704,0.01528 0.16017,-0.02012 0.0364,-0.03901 -0.008,-0.141386 0.0115,-0.190031 0.0205,-0.05122 0.0584,-0.09714 0.0811,-0.148307 0.0627,-0.141684 0.0853,-0.299681 0.0387,-0.449867 -0.0283,-0.09164 -0.085,-0.165279 -0.11983,-0.252123 -0.0195,-0.04864 0.0249,-0.151026 -0.0115,-0.190012 -0.0382,-0.04082 -0.128,0.0062 -0.17501,-0.02904 -0.0497,-0.03732 -0.0926,-0.08347 -0.14336,-0.119941 -0.14332,-0.102941 -0.29839,-0.178929 -0.46964,-0.221478 -0.0738,-0.01834 -0.206,-0.04214 -0.27684,-0.008 m -1.29027,1.982378 c -0.0232,-0.02368 -0.0543,-0.01201 -0.084,-0.01033 -0.0399,0.0023 -0.0842,-0.006 -0.12359,-0.01236 -0.14193,-0.02279 -0.27743,-0.07998 -0.40043,-0.1533 -0.27491,-0.16393 -0.58344,-0.487092 -0.56832,-0.8325 0.013,-0.298366 0.24491,-0.563114 0.47439,-0.72955 0.13393,-0.09711 0.28718,-0.174242 0.44987,-0.208688 0.052,-0.01101 0.1099,-0.02158 0.16313,-0.02055 0.0311,5.99e-4 0.0646,0.01479 0.089,-0.01016 -0.0709,-0.03409 -0.20304,-0.01029 -0.27684,0.008 -0.17125,0.04255 -0.32633,0.118537 -0.46964,0.221478 -0.0507,0.03647 -0.0936,0.08262 -0.14337,0.119941 -0.047,0.03523 -0.13679,-0.01179 -0.175,0.02904 -0.0364,0.03899 0.008,0.141372 -0.0115,0.190012 -0.0348,0.08684 -0.0915,0.160479 -0.11983,0.252122 -0.0457,0.147665 -0.0228,0.300768 0.0387,0.439979 0.0226,0.05117 0.0606,0.09709 0.0811,0.148308 0.0195,0.04864 -0.0249,0.151027 0.0115,0.190032 0.0331,0.0354 0.11722,0.0014 0.16017,0.02012 0.0653,0.02858 0.1231,0.104706 0.18292,0.145885 0.15606,0.107623 0.33379,0.195421 0.52401,0.21821 0.0561,0.0067 0.14594,0.01918 0.19775,-0.0057 m 1.3842,-1.843958 c 0.0123,0.02294 0.0358,0.02558 0.0593,0.03292 0.0468,0.0146 0.0932,0.0293 0.13841,0.04828 0.14001,0.05871 0.25846,0.140057 0.37073,0.241554 0.1358,0.122804 0.27288,0.346417 0.2668,0.537437 -0.009,0.262207 -0.20684,0.502713 -0.41012,0.646176 -0.0909,0.06412 -0.1924,0.111429 -0.29661,0.149494 -0.0368,0.01344 -0.10896,0.01829 -0.12854,0.05462 0.0496,0.01142 0.11064,-0.01379 0.1582,-0.02828 0.15122,-0.04603 0.29726,-0.134021 0.41526,-0.237886 0.022,-0.01943 0.048,-0.05601 0.075,-0.06703 0.0219,-0.0089 0.0727,0.0099 0.0878,-0.01088 0.0189,-0.02615 -0.0124,-0.07959 0.002,-0.110736 0.0254,-0.05606 0.0625,-0.105298 0.0854,-0.163138 0.0599,-0.150879 0.0588,-0.307541 0.006,-0.459753 -0.0225,-0.06425 -0.0633,-0.116858 -0.0909,-0.17797 -0.0141,-0.03116 0.0172,-0.0846 -0.002,-0.110722 -0.0161,-0.02231 -0.0691,7.5e-5 -0.0922,-0.01301 -0.0623,-0.0353 -0.11361,-0.105037 -0.17446,-0.146469 -0.10263,-0.06987 -0.21653,-0.129057 -0.33617,-0.1634 -0.0416,-0.01192 -0.0903,-0.03113 -0.13347,-0.02121 m -1.47813,1.705537 c -0.0195,-0.03633 -0.0917,-0.04118 -0.12854,-0.05462 -0.10218,-0.03737 -0.20229,-0.0834 -0.29167,-0.146033 -0.19992,-0.140102 -0.41486,-0.388023 -0.41486,-0.649637 0,-0.189043 0.1314,-0.405296 0.26661,-0.52755 0.11226,-0.101497 0.23071,-0.182844 0.37071,-0.241554 0.0453,-0.01898 0.0917,-0.03368 0.13843,-0.04828 0.0235,-0.0073 0.047,-0.01 0.0593,-0.03292 -0.0431,-0.0099 -0.092,0.0093 -0.13348,0.02121 -0.11776,0.03381 -0.22988,0.09176 -0.33122,0.160069 -0.0628,0.0423 -0.11543,0.113545 -0.1794,0.149801 -0.023,0.01308 -0.076,-0.0093 -0.0922,0.01301 -0.0189,0.02612 0.0124,0.07956 -0.002,0.110722 -0.0254,0.05606 -0.0625,0.105283 -0.0854,0.163138 -0.0589,0.148604 -0.0579,0.299928 -0.006,0.449867 0.0225,0.06427 0.0633,0.116866 0.0909,0.177969 0.0141,0.03114 -0.0172,0.08458 0.002,0.110736 0.015,0.02081 0.0659,0.002 0.0877,0.01088 0.0269,0.01103 0.0529,0.04761 0.075,0.06703 0.118,0.103864 0.26404,0.19186 0.41526,0.237885 0.0475,0.01448 0.10856,0.0397 0.1582,0.02828 m 1.13702,-1.334767 c -0.0909,-0.0315 -0.1707,-0.08067 -0.26695,-0.100524 -0.19602,-0.04042 -0.35169,0.04007 -0.52897,0.105467 0.0627,-0.149732 0.25766,-0.271937 0.4202,-0.266741 0.14752,0.0047 0.31936,0.127119 0.37572,0.261798 m -0.12359,-0.212575 c 0.25741,0.07447 0.50306,0.266795 0.67865,0.464771 0.0501,0.05653 0.14495,0.147838 0.1533,0.227331 0.003,0.0257 -0.0166,0.05309 -0.0291,0.07415 -0.0339,0.05681 -0.0764,0.108612 -0.11997,0.158146 -0.11158,0.126655 -0.24615,0.232942 -0.38624,0.326326 -0.0905,0.06036 -0.19385,0.120871 -0.30156,0.143364 v -0.0049 c 0.18063,-0.113307 0.33996,-0.277928 0.45811,-0.454809 0.046,-0.06892 0.10036,-0.150978 0.10036,-0.237292 0,-0.08632 -0.0543,-0.168379 -0.10036,-0.237293 -0.1181,-0.176768 -0.27753,-0.341567 -0.45811,-0.45481 l 0.005,-0.0049 m -0.5438,0.0049 v 0.0049 c -0.18064,0.113288 -0.33996,0.277938 -0.45812,0.45481 -0.0446,0.06678 -0.10382,0.152756 -0.10001,0.237292 0.004,0.08483 0.0577,0.164325 0.10332,0.232349 0.11939,0.178167 0.27759,0.33033 0.45481,0.449866 -0.0641,0.01463 -0.1793,-0.06313 -0.23234,-0.09492 -0.18084,-0.108413 -0.35663,-0.244362 -0.48942,-0.409329 -0.0363,-0.04519 -0.11267,-0.120771 -0.11267,-0.182912 0,-0.07589 0.10407,-0.174707 0.15089,-0.227213 0.11097,-0.12445 0.24357,-0.229288 0.38198,-0.321526 0.0905,-0.06036 0.19384,-0.120851 0.30156,-0.143364 m 0.67233,0.212575 -0.005,0.0049 0.005,-0.0049 m -0.80086,0.0049 -0.005,0.0049 0.005,-0.0049 m 0.39549,0.05932 c 0.0299,0.04471 0.008,0.100751 0.0325,0.143053 0.0139,0.02389 0.0351,0.01201 0.0497,-0.0051 0.0192,-0.02278 0.0168,-0.05072 0.0168,-0.07863 h 0.005 c 0.0339,0.06617 0.003,0.07837 -0.0376,0.128607 -0.0234,0.02914 -0.0349,0.06419 -0.0809,0.05683 -0.0252,-0.004 -0.0326,-0.03451 -0.0465,-0.05188 -0.0403,-0.05023 -0.0715,-0.06243 -0.0376,-0.128607 h 0.005 c 0,0.02791 -0.002,0.05585 0.0168,0.07863 0.0145,0.01711 0.0357,0.02898 0.0496,0.0051 0.0228,-0.03908 0.01,-0.103306 0.0275,-0.147997 m 0.19774,0.103815 c 0.0229,0.06263 -0.0275,0.08052 -0.0619,0.119685 -0.01,0.01127 -0.0317,0.06204 -0.0516,0.03198 -0.0353,-0.05309 0.0655,-0.07601 0.0879,-0.09835 0.0154,-0.01548 0.0173,-0.03461 0.0258,-0.05332 m -0.38559,0.0049 c 0.003,0.06449 0.0533,0.05919 0.0923,0.09294 0.0143,0.01236 0.0284,0.04054 0.0164,0.05873 -0.008,0.01196 -0.0219,0.0094 -0.0307,0 -0.0313,-0.03357 -0.11997,-0.100009 -0.0779,-0.151669 m 0.48448,0.08898 c -0.004,0.07618 -0.0483,0.05576 -0.0978,0.07712 -0.0163,0.007 -0.023,0.03594 -0.0449,0.02838 -0.0367,-0.0127 9e-5,-0.0562 0.0191,-0.06481 0.0469,-0.0211 0.0805,-0.0023 0.12359,-0.04069 m -0.58335,0.0049 c 0.033,0.04435 0.0695,0.02259 0.11371,0.03865 0.0208,0.0076 0.0652,0.06274 0.0196,0.06777 -0.0197,0.0023 -0.0249,-0.02255 -0.0405,-0.02932 -0.034,-0.01469 -0.12007,-0.0073 -0.0929,-0.07712 m 0.62784,0.103815 c -0.0244,0.07143 -0.0961,0.02437 -0.13348,0.06921 0.085,0.02046 0.17416,0.03461 0.26201,0.03461 v 0.0099 c -0.0878,0 -0.17703,0.01413 -0.26201,0.03461 0.0374,0.04484 0.1091,-0.0023 0.13348,0.06921 -0.0217,-0.0067 -0.0409,-0.01923 -0.0643,-0.01938 -0.0318,-1.96e-4 -0.069,0.01409 -0.0981,-0.0058 -0.0257,-0.0175 0.006,-0.03663 0.004,-0.05888 -0.002,-0.01878 0.004,-0.04153 4.6e-4,-0.05913 -0.003,-0.01325 -0.0207,-0.02437 -0.0143,-0.03881 0.007,-0.01513 0.0292,-0.01908 0.0436,-0.02027 0.0482,-0.0038 0.081,-6.93e-4 0.12854,-0.01528 m -0.67233,0.0049 0.16156,0.02951 -0.008,0.04963 8.4e-4,0.05883 0.0125,0.03411 -0.0436,0.02026 -0.12854,0.01528 c 0.0244,-0.07143 0.0961,-0.02437 0.13348,-0.06921 l -0.1928,-0.02966 v -0.0099 l 0.1928,-0.02966 c -0.0265,-0.03183 -0.13704,-0.0055 -0.12853,-0.06921 m 0.0445,0.31639 c -0.0271,-0.06986 0.0588,-0.06244 0.0929,-0.07712 0.0156,-0.0068 0.0207,-0.03154 0.0405,-0.02932 0.0455,0.005 9.8e-4,0.06021 -0.0196,0.06778 -0.0443,0.01612 -0.0807,-0.0058 -0.11371,0.03865 m 0.58335,0.0049 c -0.0429,-0.03842 -0.0768,-0.01962 -0.12359,-0.04069 -0.0198,-0.009 -0.0576,-0.05166 -0.0191,-0.06481 0.0219,-0.0075 0.0286,0.02131 0.0449,0.02838 0.0496,0.02136 0.0944,9.4e-4 0.0978,0.07712 m -0.48447,0.08898 c -0.042,-0.05166 0.0467,-0.118102 0.0779,-0.151668 0.009,-0.0094 0.0227,-0.01196 0.0307,0 0.012,0.01819 -0.002,0.04637 -0.0164,0.05873 -0.039,0.03377 -0.0888,0.02843 -0.0923,0.09294 m 0.3856,0.0049 c -0.009,-0.01869 -0.0104,-0.03786 -0.0258,-0.05334 -0.0223,-0.02235 -0.1231,-0.04524 -0.0878,-0.09833 0.0199,-0.03006 0.0418,0.02071 0.0516,0.03198 0.0344,0.03916 0.0849,0.05705 0.0619,0.119686 m -0.094,0.04449 h -0.005 c 0,-0.02541 0.003,-0.05226 -0.0131,-0.07395 -0.0145,-0.01977 -0.0407,-0.03129 -0.0552,-0.0048 -0.0238,0.04316 0.008,0.100256 -0.0355,0.138124 -9.3e-4,-0.03287 -0.006,-0.133725 -0.0286,-0.156366 -0.0432,-0.04241 -0.0603,0.07109 -0.0603,0.0921 -0.0514,-0.05541 -0.002,-0.08537 0.0327,-0.128582 0.013,-0.01627 0.0199,-0.044 0.0417,-0.05092 0.0428,-0.01364 0.0619,0.02319 0.082,0.05097 0.039,0.05369 0.077,0.06363 0.0414,0.133477 m 0.30156,0.118646 -0.005,0.0049 0.005,-0.0049 m -0.79592,0.0049 c 0.15711,0.08236 0.34051,0.142475 0.51908,0.106535 0.098,-0.01972 0.17985,-0.06763 0.27189,-0.101591 -0.0564,0.134762 -0.22863,0.255584 -0.37571,0.261812 -0.0861,0.0037 -0.17648,-0.03282 -0.24718,-0.07929 -0.0535,-0.03515 -0.16882,-0.114742 -0.16808,-0.187462 m 0.39055,1.239901 c 0.0253,-7.86e-4 0.0508,0.02496 0.0692,0.03945 0.0496,0.03901 0.0975,0.07791 0.14831,0.115335 0.0577,0.04246 0.11656,0.083 0.17797,0.12003 0.0242,0.01459 0.0679,0.0305 0.0797,0.05784 0.0258,0.06031 3.7e-4,0.150631 -0.0246,0.207136 -0.0721,0.163534 -0.25415,0.29177 -0.43574,0.30052 -0.18152,0.0088 -0.38248,-0.140002 -0.45588,-0.295576 -0.0276,-0.05853 -0.0563,-0.153548 -0.0291,-0.217023 0.0122,-0.02853 0.0593,-0.04553 0.0846,-0.0608 0.0704,-0.04271 0.13797,-0.08977 0.20763,-0.133279 0.0461,-0.02877 0.0812,-0.06862 0.12359,-0.101986 0.0149,-0.01177 0.0342,-0.03099 0.0544,-0.03164 m -0.01,0.0739 c -0.0335,0.01172 -0.0654,0.04879 -0.094,0.06981 -0.0707,0.05201 -0.14123,0.104211 -0.21258,0.155278 -0.0295,0.02111 -0.0889,0.04948 -0.0968,0.08755 -0.0107,0.05156 0.0229,0.123936 0.0463,0.168081 0.0938,0.176784 0.31872,0.271009 0.51028,0.204171 0.11638,-0.04059 0.2064,-0.134861 0.25113,-0.248663 0.0132,-0.03372 0.0355,-0.09284 0.0207,-0.128433 -0.01,-0.02284 -0.0357,-0.03416 -0.0543,-0.0485 -0.047,-0.03619 -0.0956,-0.07025 -0.14336,-0.105447 -0.0502,-0.03702 -0.10798,-0.0703 -0.15306,-0.113554 -0.0205,-0.01977 -0.0408,-0.05206 -0.0743,-0.04029 m -1.32982,0.881145 -0.1236,-0.291671 c 0.21989,-5.6e-5 0.45244,-0.09571 0.65256,-0.178019 0.0606,-0.02496 0.11938,-0.05349 0.17797,-0.08276 0.0191,-0.0096 0.0515,-0.03401 0.0738,-0.02739 0.0283,0.0084 0.0221,0.06683 0.0287,0.09042 0.0122,0.04439 0.0702,0.118795 0.0408,0.162249 -0.0143,0.02105 -0.043,0.035 -0.0642,0.04825 -0.16616,0.104014 -0.3643,0.180046 -0.55369,0.230074 -0.0767,0.02026 -0.15616,0.02868 -0.23234,0.04884 m 2.80796,-0.286729 -0.1236,0.291672 c -0.0762,-0.02017 -0.15563,-0.02858 -0.23234,-0.04884 -0.18939,-0.05003 -0.38754,-0.126062 -0.55369,-0.230075 -0.0211,-0.01325 -0.0499,-0.02719 -0.0643,-0.04825 -0.0294,-0.04345 0.0284,-0.117854 0.0408,-0.162248 0.007,-0.02358 3.7e-4,-0.08201 0.0287,-0.09042 0.0223,-0.0066 0.0547,0.0178 0.0738,0.02739 0.0585,0.02927 0.11737,0.05779 0.17797,0.08276 0.20012,0.08231 0.43267,0.177969 0.65257,0.178018 m -2.7783,0.341108 c 0.20965,-0.01671 0.43088,-0.113456 0.61794,-0.203973 0.0534,-0.02585 0.1098,-0.05087 0.15776,-0.08632 0.024,-0.01775 0.0575,-0.05309 0.0894,-0.05236 0.035,8.42e-4 0.0549,0.03782 0.0756,0.0608 0.0306,0.03411 0.0693,0.06195 0.10733,0.08736 0.0187,0.01246 0.0363,0.0257 0.0266,0.05092 -0.0192,0.05017 -0.12126,0.09309 -0.16512,0.120426 -0.1699,0.105842 -0.3541,0.189932 -0.53885,0.266063 -0.0522,0.02156 -0.10875,0.04098 -0.16313,0.05651 -0.0172,0.0049 -0.0461,0.01755 -0.0637,0.01038 -0.0234,-0.0096 -0.0345,-0.05611 -0.0437,-0.07747 -0.0328,-0.07584 -0.0785,-0.152708 -0.10025,-0.232349 m 2.62504,0.0049 c -0.0217,0.07964 -0.0675,0.156514 -0.10025,0.232349 -0.009,0.02136 -0.0203,0.06792 -0.0437,0.07747 -0.0175,0.0072 -0.0465,-0.0055 -0.0637,-0.01038 -0.0544,-0.01553 -0.11088,-0.03495 -0.16314,-0.0565 -0.18474,-0.07613 -0.36894,-0.160222 -0.53885,-0.266064 -0.0438,-0.02734 -0.14588,-0.07025 -0.16512,-0.120425 -0.01,-0.02521 0.008,-0.03847 0.0267,-0.05092 0.038,-0.02541 0.0767,-0.05324 0.10733,-0.08736 0.0206,-0.02299 0.0406,-0.05996 0.0756,-0.0608 0.0319,-7.4e-4 0.0654,0.03461 0.0894,0.05235 0.048,0.03544 0.10431,0.06046 0.15775,0.08632 0.18707,0.09052 0.40829,0.187263 0.61795,0.203972 m -0.16809,0.370769 c -0.0186,0.0787 -0.0648,0.152461 -0.0949,0.227405 -0.009,0.02185 -0.0186,0.07158 -0.0405,0.08345 -0.0149,0.008 -0.0382,-0.0044 -0.0524,-0.0093 -0.05,-0.01706 -0.0946,-0.0447 -0.14338,-0.06427 -0.20856,-0.0835 -0.40473,-0.198881 -0.59323,-0.320642 -0.0551,-0.03559 -0.10603,-0.07717 -0.15818,-0.116718 -0.0171,-0.01295 -0.0409,-0.04509 -0.0643,-0.0436 -0.0231,0.0015 -0.0466,0.02917 -0.0643,0.04232 -0.0493,0.03673 -0.0969,0.07574 -0.14831,0.109797 -0.18796,0.124776 -0.38867,0.240011 -0.59817,0.323903 -0.0489,0.01957 -0.0933,0.04721 -0.14337,0.06427 -0.0143,0.0048 -0.0376,0.0173 -0.0524,0.0093 -0.0219,-0.01187 -0.0318,-0.06159 -0.0405,-0.08345 -0.0301,-0.07495 -0.0763,-0.148703 -0.095,-0.227405 0.19771,-0.07569 0.39554,-0.137234 0.58335,-0.238825 0.0811,-0.04385 0.16215,-0.09027 0.2373,-0.143958 0.0525,-0.03752 0.10648,-0.0922 0.16807,-0.113801 0.0465,-0.01632 0.10036,0.01043 0.14831,0.01043 0.0522,0 0.11301,-0.0223 0.16314,-0.01686 0.0386,0.0042 0.0656,0.04711 0.094,0.06961 0.0656,0.05226 0.13581,0.09764 0.20763,0.140743 0.21856,0.131105 0.45156,0.207384 0.68716,0.297604 m -0.15818,0.365825 c -0.0153,0.08577 -0.0823,0.178217 -0.13294,0.247179 -0.0146,0.01997 -0.0385,0.06506 -0.0648,0.06981 -0.0355,0.0064 -0.10782,-0.04973 -0.13837,-0.06693 -0.11776,-0.06639 -0.23665,-0.132192 -0.35594,-0.195667 0.0133,-0.09907 0.0178,-0.177178 -0.047,-0.26201 -0.14772,-0.193492 -0.45837,-0.159233 -0.54083,0.07909 -0.0215,0.06214 -0.009,0.115581 -4.7e-4,0.177969 -0.11929,0.06348 -0.23818,0.129274 -0.35594,0.195667 -0.0305,0.0172 -0.10287,0.07331 -0.13837,0.06693 -0.0264,-0.0047 -0.0502,-0.04983 -0.0649,-0.06981 -0.0505,-0.06897 -0.11766,-0.161408 -0.13293,-0.247179 0.0644,-0.0095 0.1141,-0.05226 0.17303,-0.07613 0.20016,-0.08108 0.38292,-0.195223 0.56851,-0.304476 0.0462,-0.02714 0.0924,-0.05586 0.13347,-0.09051 0.0304,-0.02565 0.0658,-0.06189 0.10877,-0.06353 0.0415,-0.0016 0.0802,0.0395 0.10875,0.06422 0.0421,0.03663 0.0904,0.06654 0.13842,0.09477 0.18559,0.109253 0.36834,0.2234 0.56851,0.304475 0.0589,0.02388 0.10866,0.06664 0.17303,0.07613 m -1.01838,-0.29518 c 0.25178,-0.03159 0.42624,0.336657 0.17797,0.466921 -0.0248,0.013 -0.051,0.0263 -0.0791,0.03006 -0.0944,0.01255 -0.20298,-0.0033 -0.27041,-0.0784 -0.13838,-0.15429 -0.0275,-0.393608 0.17154,-0.418573 m -0.01,0.05063 c -0.24984,0.05735 -0.16017,0.453328 0.0889,0.400184 0.24446,-0.05216 0.15271,-0.455651 -0.0889,-0.400184 m -0.2274,0.333545 c 0.11326,0.198731 0.42425,0.206097 0.53885,0.0049 l 0.17797,0.09882 0.30155,0.173075 c -0.0659,0.09354 -0.20402,0.192503 -0.31638,0.219248 -0.0361,0.0086 -0.0882,0.01735 -0.12359,0.0022 -0.0773,-0.03347 -0.14613,-0.100701 -0.21753,-0.145638 -0.026,-0.01637 -0.062,-0.04618 -0.0939,-0.04746 -0.0323,-0.0014 -0.0681,0.02947 -0.094,0.04563 -0.0701,0.04385 -0.13674,0.109698 -0.21258,0.142524 -0.0353,0.01522 -0.0875,0.0064 -0.12359,-0.0022 -0.11237,-0.02675 -0.25049,-0.125715 -0.31639,-0.219248 l 0.30156,-0.173075 0.17797,-0.09882 m 0.54873,0.543794 c -0.0961,0.03258 -0.18958,0.01676 -0.28677,0.01543 -0.0914,-0.0013 -0.18267,0.0099 -0.27185,-0.02036 l 0.19774,-0.140596 0.0791,-0.04761 0.0791,0.04909 0.20268,0.144056"
       id="path847"
       sodipodi:nodetypes="cccccccccccccccscccccccccccccccccccccccccccccccccccccccccccccccccccccccsccccccccccccccccccccccccccccccccccccccccccccccccccccccccccccccccccsccsccccccccccccccccccccccccccccccccccccccccccccccccccsccccccccccccccccccccccccsccssccccccccccccccccccccsccccccccccccccsccscccccccccccccccccccscccccccccscccccccccccccccccccccccccccscccccccccccccccccccccsccccccccccccccccccccccccccccccccccccccccccccccccccccccccccccccccscccccccccccccccccccccsccccscccccccccscccccccscccccccccccccccccccccccccscccccccccccccccccccccccccccccccccccccccscccccccccccccccccccccccccccccccscccccccccccscccccccccccccccccccccccccccccccccccccccccccccccccccccccccccccccccccccccccccccccccccccccccccccccccccccccccccccccccccccccccccsccccccccccccscccsccccccccccccccccccccccccccccccccccccccccccsccccccccccccsccccccccccscccccccscccccccccccscccccccccccccccccccccc" />
  </g>
</svg>
