<!-- Generated by IcoMoon.io -->
<svg version="1.1" xmlns="http://www.w3.org/2000/svg" width="32" height="32" viewBox="0 0 32 32">
<title>faction_thenine</title>
<path d="M4.728 11.272c-2.611 0-4.728 2.117-4.728 4.728s2.117 4.728 4.728 4.728c2.611 0 4.728-2.117 4.728-4.728v0c-0.003-2.61-2.118-4.725-4.728-4.728h-0zM4.728 20.234c-2.277-0.003-4.134-1.801-4.23-4.055l-0-0.009h8.46c-0.096 2.263-1.953 4.061-4.23 4.064h-0zM4.728 11.766c0.002 0 0.004 0 0.005 0 0.848 0 1.637 0.251 2.297 0.683l-0.016-0.010v3.236h-6.507c0.163-2.192 1.982-3.909 4.202-3.909 0.006 0 0.013 0 0.019 0h-0.001zM7.509 15.676v-2.863c0.814 0.708 1.351 1.715 1.437 2.849l0.001 0.014z"></path>
<path d="M16.007 11.272c-2.611 0-4.728 2.117-4.728 4.728s2.117 4.728 4.728 4.728c2.611 0 4.728-2.117 4.728-4.728v0c-0.003-2.61-2.118-4.725-4.728-4.728h-0zM16.007 20.234c-0.003 0-0.007 0-0.011 0-0.659 0-1.283-0.153-1.837-0.426l0.024 0.011v-0.406l5.821-4.81c0.15 0.416 0.237 0.896 0.237 1.396 0 2.338-1.896 4.234-4.234 4.234-0 0-0 0-0 0v0zM17.614 15.936l-3.276-3.826c0.489-0.218 1.060-0.344 1.66-0.344 0.003 0 0.006 0 0.009 0h-0c1.655 0.004 3.087 0.954 3.784 2.337l0.011 0.024zM14.184 18.771v-6.078l3.049 3.559zM13.689 12.459v7.082c-1.161-0.767-1.916-2.066-1.916-3.541s0.755-2.774 1.9-3.531l0.016-0.010z"></path>
<path d="M27.272 11.272c-2.611 0-4.728 2.117-4.728 4.728s2.117 4.728 4.728 4.728c2.611 0 4.728-2.117 4.728-4.728v0c-0.003-2.61-2.118-4.725-4.728-4.728h-0zM27.272 20.234c-0.002 0-0.004 0-0.007 0-0.599 0-1.169-0.126-1.684-0.353l0.027 0.011-1.533-6.662c0.78-0.897 1.924-1.46 3.198-1.46 2.337 0 4.232 1.895 4.232 4.232s-1.895 4.232-4.232 4.232c-0 0-0 0-0.001 0h0zM23.687 13.752l1.344 5.837c-1.204-0.759-1.993-2.081-1.993-3.588 0-0.834 0.242-1.612 0.658-2.267l-0.010 0.017z"></path>
</svg>
