<!-- Generated by IcoMoon.io -->
<svg version="1.1" xmlns="http://www.w3.org/2000/svg" width="32" height="32" viewBox="0 0 32 32">
<title>faction_fwc</title>
<path d="M12 12.3h2c0 0.060 0 0.12 0 0.18v3.65c0 0.002 0 0.003 0 0.005 0 0.332 0.062 0.65 0.176 0.942l-0.006-0.018c0.167 0.46 0.579 0.792 1.075 0.84l0.005 0c0.5 0.060 1 0 1.51 0v-5.59h1.93v5.58h3.080v-5.59h1.92c0 0.15 0 7.37 0 7.54h-8.18c-0.033 0.001-0.073 0.002-0.112 0.002-1.597 0-2.929-1.134-3.234-2.641l-0.004-0.021c-0.091-0.33-0.149-0.711-0.16-1.103l-0-0.007q0-1.78 0-3.57z"></path>
<path d="M6.75 12.3h4.58v1.9c-0.029 0.007-0.061 0.011-0.095 0.011s-0.066-0.004-0.098-0.012l0.003 0.001h-4.070c-0.008-0-0.018-0-0.027-0-0.262 0-0.511 0.059-0.733 0.165l0.010-0.004c-0.354 0.148-0.601 0.483-0.62 0.878l-0 0.002c0 0.3 0 0.6 0 0.92h5.65v1.97h-5.67v3.87h-1.93v-6.57c-0.001-0.021-0.001-0.046-0.001-0.071 0-1.427 0.996-2.621 2.331-2.925l0.020-0.004 0.65-0.13z"></path>
<path d="M32 14.22h-3.6c-0.366 0.005-0.71 0.097-1.012 0.256l0.012-0.006c-0.567 0.281-0.95 0.855-0.95 1.519 0 0.004 0 0.007 0 0.011v-0.001c-0.038 0.339-0.060 0.733-0.060 1.132 0 0.017 0 0.034 0 0.051v-0.003c0 0.42 0 0.83 0.060 1.25v-0.11c0.036 0.938 0.805 1.684 1.749 1.684 0.043 0 0.085-0.002 0.127-0.005l-0.006 0c1.16 0 2.32 0 3.49 0h0.19v2h-0.060c-1.29 0-2.59 0-3.89 0-1.797-0.051-3.264-1.401-3.498-3.141l-0.002-0.019c-0.046-0.389-0.073-0.84-0.073-1.297 0-0.191 0.005-0.381 0.014-0.57l-0.001 0.027c-0.006-0.113-0.009-0.246-0.009-0.38 0-0.47 0.040-0.931 0.116-1.379l-0.007 0.048c0.29-1.529 1.505-2.707 3.030-2.938l0.020-0.002c0.243-0.043 0.523-0.069 0.809-0.070h3.551z"></path>
<path d="M1.88 22h-1.88c-0.009-0.032-0.014-0.068-0.014-0.105s0.005-0.073 0.014-0.108l-0.001 0.003v-6.35c-0-0.012-0-0.027-0-0.042 0-1.48 1.072-2.71 2.482-2.955l0.018-0.003c0.366-0.069 0.788-0.109 1.219-0.109 0.124 0 0.246 0.003 0.368 0.010l-0.017-0.001h0.93l-0.59 0.1c-1.418 0.256-2.48 1.481-2.48 2.955 0 0.016 0 0.032 0 0.048l-0-0.002c0 2.19 0 4.39 0 6.58z"></path>
<path d="M1.88 22c0-2.19 0-4.39 0-6.58-0-0.014-0-0.029-0-0.045 0-1.473 1.062-2.698 2.462-2.952l0.018-0.003 0.64-0.12q0.9 0 1.8 0l-0.65 0.13c-1.355 0.308-2.351 1.502-2.351 2.929 0 0.025 0 0.050 0.001 0.075l-0-0.004v6.57z"></path>
<path d="M29.91 11.81h-1.75v-1.81c0.193-0.012 0.418-0.019 0.645-0.019s0.452 0.007 0.676 0.020l-0.031-0.001c0.256 0.035 0.451 0.252 0.451 0.515 0 0.012-0 0.024-0.001 0.036l0-0.002c0 0.4 0 0.81 0 1.23z"></path>
<path d="M30.26 10c0.43 0 0.85 0 1.26 0 0.266 0.006 0.48 0.223 0.48 0.49 0 0.004-0 0.007-0 0.011v-0.001c0 0.44 0 0.87 0 1.31h-1.74z"></path>
</svg>
