<!-- Generated by IcoMoon.io -->
<svg version="1.1" xmlns="http://www.w3.org/2000/svg" width="32" height="32" viewBox="0 0 32 32">
<title>cryptarch</title>
<path d="M32 16.006q-7.997 7.995-15.994 15.994l-16.006-16.005q7.983-7.983 15.994-15.994zM16.003 31.379l15.383-15.382-15.377-15.378-15.382 15.383z"></path>
<path d="M15.768 6.139c-0.109 0.1-0.19 0.174-0.278 0.255-0.115-0.086-0.202-0.198-0.306-0.311l0.806-0.764c0.273 0.258 0.541 0.511 0.812 0.768l-0.308 0.308-0.281-0.255v13.541h-0.447z"></path>
<path d="M14.6 19.688h-0.44v-9.859l-0.297 0.268c-0.099-0.105-0.196-0.207-0.299-0.316l0.809-0.766 0.809 0.765-0.299 0.317-0.284-0.258z"></path>
<path d="M19.94 20.771c-0.1 1.394-0.714 2.47-1.898 3.164-1.387 0.813-2.812 0.793-4.178-0.054-1.133-0.702-1.715-1.76-1.808-3.102h0.444c0.067 0.996 0.473 1.826 1.237 2.471 0.556 0.479 1.277 0.782 2.067 0.815l0.007 0c0.96 0.046 1.81-0.248 2.529-0.888s1.091-1.445 1.154-2.407h0.446z"></path>
<path d="M17.399 9.828l-0.297 0.27-0.298-0.317 0.806-0.766 0.809 0.765-0.288 0.309c-0.113-0.055-0.178-0.168-0.298-0.245v9.835h-0.434z"></path>
<path d="M12.488 19.682h-0.423c-0.023-1.363-0.499-2.54-1.46-3.501s-2.131-1.43-3.488-1.459v-0.419c2.902-0.049 5.416 2.417 5.372 5.38z"></path>
<path d="M15.77 25.791v0.419c-2.861-0.051-5.29-2.553-5.294-5.432h0.411c0.061 1.331 0.53 2.494 1.461 3.455s2.079 1.473 3.421 1.557z"></path>
<path d="M19.924 19.684h-0.413c-0.117-2.759 2.322-5.439 5.363-5.378v0.41c-2.67-0.002-4.934 2.192-4.95 4.969z"></path>
<path d="M21.097 20.78h0.421c-0.042 2.969-2.489 5.369-5.301 5.431v-0.419c1.335-0.084 2.483-0.589 3.415-1.55s1.407-2.122 1.465-3.462z"></path>
<path d="M21.533 19.684h-0.412c-0.086-1.948 1.645-3.819 3.75-3.766 0.008 0.065 0.012 0.141 0.012 0.217 0 0.068-0.003 0.135-0.010 0.201l0.001-0.008c-1.865 0.037-3.315 1.512-3.34 3.357z"></path>
<path d="M7.114 16.335v-0.412c1.908-0.084 3.81 1.612 3.758 3.758h-0.424c-0.013-0.915-0.334-1.706-0.979-2.354s-1.43-0.965-2.354-0.992z"></path>
<path d="M11.17 10.36l-0.314 0.288c-0.205-0.146-0.439-0.232-0.709-0.165-0.145 0.038-0.266 0.124-0.348 0.24l-0.001 0.002c-0.087 0.121-0.139 0.272-0.139 0.435 0 0.187 0.068 0.358 0.181 0.489l-0.001-0.001c0.237 0.27 0.589 0.278 1.018 0.027q0.151 0.144 0.301 0.286c-0.398 0.43-1.153 0.447-1.592 0.041-0.445-0.411-0.47-1.182-0.055-1.629 0.423-0.453 1.162-0.468 1.659-0.013z"></path>
<path d="M22.394 12.145c-0.297-0.492-0.585-0.967-0.882-1.459l-0.883 1.459-0.374-0.226 1.258-2.084 1.258 2.084z"></path>
<path d="M7.113 18.051v-0.446c0.921-0.246 2.133 0.948 2.092 2.071h-0.466c-0.017-0.432-0.164-0.818-0.475-1.133s-0.696-0.471-1.151-0.492z"></path>
<path d="M22.794 19.682c-0.077-1.064 0.924-2.149 2.078-2.089v0.456c-0.44 0.021-0.83 0.171-1.146 0.491s-0.462 0.701-0.477 1.142z"></path>
</svg>
