<!-- Generated by IcoMoon.io -->
<svg version="1.1" xmlns="http://www.w3.org/2000/svg" width="22" height="32" viewBox="0 0 22 32">
<title>faction_xur2</title>
<path fill="#f5f6f5" d="M22.206 3.744s0-0.028 0-0.044v-1.224h-22.206c0 7.131 0 14.037 0 20.966 0 1.26 0.586 2.124 1.446 2.892 2.678 2.401 5.828 4.033 9.069 5.523 0.175 0.089 0.382 0.141 0.601 0.141 0.251 0 0.487-0.069 0.688-0.188l-0.006 0.003c3.17-1.446 6.252-3.086 8.914-5.4 0.94-0.775 1.535-1.94 1.535-3.244 0-0.076-0.002-0.151-0.006-0.225l0 0.010c-0.055-6.402-0.024-12.809-0.036-19.211zM20.206 25.312c-2.5 2.318-5.471 3.871-8.522 5.305-0.169 0.080-0.368 0.126-0.578 0.126-0.269 0-0.519-0.076-0.732-0.209l0.006 0.003c-2.853-1.363-5.673-2.829-8.058-4.964-0.586-0.523-1.133-1.046-1.133-1.973 0.028-6.593 0-13.189 0-19.908h19.809c0 6.735 0 13.32 0 19.912 0 0.001 0 0.003 0 0.004 0 0.682-0.306 1.292-0.789 1.7l-0.003 0.003z"></path>
<path fill="#2c4b29" d="M20.998 3.692h-19.809c0 6.735 0 13.316 0 19.908 0 0.927 0.531 1.45 1.117 1.981 2.377 2.135 5.186 3.601 8.050 4.964 0.207 0.129 0.457 0.205 0.726 0.205 0.209 0 0.408-0.046 0.586-0.13l-0.009 0.004c3.051-1.434 6.022-2.987 8.522-5.305 0.501-0.406 0.82-1.019 0.828-1.706v-0.001c-0.012-6.6-0.012-13.193-0.012-19.92z"></path>
<path fill="#fff" d="M4.711 18.407v-7.924h-1.145v-1.335h3.883v1.323h-1.109v7.924h1.137v1.335h-3.91v-1.323z"></path>
<path fill="#fff" d="M10.15 18.407l2.698-3.962-2.694-3.962h-1.359v-1.335h4.255v1.323h-1.189l1.85 2.702 1.834-2.702h-1.236v-1.323h4.069v1.323h-1.315l-2.595 3.815 2.821 4.12h1.371v1.323h-4.334v-1.323h1.22l-1.937-2.853-1.941 2.853h1.288v1.323h-4.239v-1.323z"></path>
<path fill="#f5f6f5" d="M0.020 0h22.19v1.216h-22.19v-1.216z"></path>
</svg>
