<!-- Generated by IcoMoon.io -->
<svg version="1.1" xmlns="http://www.w3.org/2000/svg" width="32" height="32" viewBox="0 0 32 32">
<title>faction_rally</title>
<path d="M4.571 25.53v-18.925l11.43-6.605 11.428 6.603v18.929c-0.449 0.261-0.893 0.52-1.338 0.776-3.169 1.83-9.886 5.702-10.132 5.692-0.217-0.009-7.106-3.993-10.381-5.886zM5.243 24.925l10.759 6.218 10.747-6.211v-17.729l-10.748-6.21-10.758 6.217z"></path>
<path d="M16.293 2.046l9.769 5.644v16.236c-0.279-0.128-8.498-7.288-9.769-8.512zM23.425 16.193c0-0.769 0.013-1.497-0.009-2.223-0.015-0.224-0.081-0.43-0.186-0.611l0.004 0.007c-0.372-0.672-0.93-1.077-1.723-1.087-0.665-0.008-1.331 0-1.997 0-0.060 0-0.219 0.008-0.219 0.008v0.396c0 0.515-0.008 1.544-0.008 1.544-0.071 0.921 0.878 2.012 1.993 1.991 0.604-0.011 1.208 0 1.808 0 0.098-0.007 0.196-0.017 0.337-0.024zM23.325 11.827c0.008-0.151-0.004-1.45 0.023-1.988 0.052-1.026-0.944-1.949-1.861-1.942-0.715 0.006-2.274 0.008-2.274 0.008v0.369q0 0.791 0 1.586c0 1.005 0.808 1.911 1.808 1.963 0.751 0.034 1.505 0.005 2.303 0.005z"></path>
<path d="M15.665 2.006v13.49l-9.777 8.458c-0.076-0.31-0.106-15.608-0.035-16.276zM14.091 11.267c0-1.069 0.009-2.184-0.005-3.126-0.18-0.217-0.361-0.202-0.536-0.202q-2.168 0-4.336 0c-0.145 0.006-0.28 0.019-0.413 0.040l0.021-0.003c-0.193 0.137-0.185 0.289-0.185 0.442 0 0.616 0 1.232 0 1.848 0 0.082 0 0.221 0.009 0.302l1.019 0.005c-0.335 0.362-0.72 0.604-1.026 0.92 0 0.717 0 1.435 0 2.149 0 0.163 0.035 0.298 0.206 0.383h2.472c0.119-0.065 0.198-0.189 0.198-0.332 0-0.016-0.001-0.032-0.003-0.047l0 0.002c-0.005-0.251-0.008-0.503 0-0.755 0.030-0.906 0.588-1.504 1.49-1.591 0.227-0.021 0.453-0.015 0.68-0.040 0.044-0.002 0.096-0.003 0.148-0.003 0.092 0 0.183 0.004 0.274 0.011l-0.012-0.001zM8.773 14.41c-0.045 0.128-0.108 0.23-0.112 0.335-0.014 0.365-0.015 0.73 0 1.094 0.009 0.251 0.156 0.378 0.378 0.371s0.346-0.134 0.352-0.398c0.008-0.339 0-0.68 0-1.019 0-0.163-0.039-0.298-0.208-0.383zM9.831 14.41c-0.042 0.128-0.113 0.251-0.119 0.378-0.016 0.339-0.012 0.68 0 1.020 0.007 0.265 0.128 0.392 0.352 0.401 0.238 0.010 0.378-0.128 0.384-0.405 0.009-0.339 0.013-0.68 0-1.019-0.006-0.125-0.076-0.248-0.118-0.373zM10.884 14.415c-0.043 0.11-0.113 0.21-0.117 0.312-0.014 0.378-0.014 0.755 0 1.133-0 0.007-0.001 0.014-0.001 0.022 0 0.18 0.146 0.325 0.325 0.325v0c0.238 0.022 0.399-0.116 0.409-0.378 0.012-0.352 0.013-0.705 0-1.057-0.005-0.115-0.076-0.227-0.109-0.332-0.061-0.017-0.135-0.032-0.211-0.042l-0.008-0.001c-0.081-0.005-0.156 0.008-0.291 0.020z"></path>
<path d="M15.963 30.323l-9.882-5.71c3.283-2.84 9.954-8.64 9.954-8.64s6.56 5.786 9.809 8.637c-3.307 1.919-6.578 3.804-9.881 5.713zM16.842 21.070c-0.264 0.014-0.403 0.151-0.535 0.311-0.48 0.581-0.965 1.157-1.448 1.737-0.418 0.501-0.839 1.001-1.251 1.51-0.302 0.372-0.276 0.573 0.096 0.888 0.106 0.089 0.218 0.171 0.316 0.268 0.295 0.294 0.655 0.248 0.93-0.092 0.844-1.045 1.717-2.067 2.577-3.096 0.078-0.088 0.154-0.185 0.226-0.285l0.008-0.011c0.116-0.174 0.135-0.378-0.007-0.525-0.269-0.292-0.55-0.588-0.912-0.705zM14.016 21.070c-0.277 0.013-0.412 0.16-0.543 0.318q-0.868 1.044-1.737 2.086c-0.331 0.396-0.666 0.788-0.991 1.189-0.239 0.295-0.217 0.538 0.060 0.789 0.158 0.147 0.329 0.288 0.507 0.421l0.016 0.012c0.082 0.064 0.186 0.103 0.3 0.103 0.138 0 0.263-0.058 0.352-0.151l0-0c0.060-0.061 0.117-0.125 0.171-0.193l0.004-0.005 1.931-2.316c0.258-0.31 0.52-0.615 0.772-0.93 0.182-0.227 0.211-0.481 0.040-0.652-0.266-0.262-0.525-0.544-0.882-0.671zM19.67 21.070c-0.271 0.015-0.404 0.164-0.535 0.322q-0.856 1.029-1.717 2.057c-0.331 0.396-0.664 0.789-0.99 1.189-0.267 0.327-0.245 0.561 0.076 0.843 0.15 0.137 0.311 0.271 0.48 0.395l0.016 0.012c0.081 0.062 0.183 0.099 0.295 0.099 0.141 0 0.267-0.060 0.356-0.155l0-0c0.052-0.052 0.102-0.107 0.148-0.165l0.003-0.004q1.33-1.593 2.66-3.188c0.056-0.062 0.106-0.132 0.148-0.207l0.003-0.006c0.082-0.168 0.102-0.361-0.030-0.498-0.276-0.283-0.551-0.583-0.912-0.694z"></path>
</svg>
