<!-- Generated by IcoMoon.io -->
<svg version="1.1" xmlns="http://www.w3.org/2000/svg" width="32" height="32" viewBox="0 0 32 32">
<title>faction_dead_orbit2</title>
<path fill="#e8e8e8" d="M24.46 6.58c0.642-0.296 1.394-0.469 2.186-0.469 2.18 0 4.055 1.309 4.881 3.185l0.013 0.034c0.29 0.624 0.459 1.355 0.459 2.126 0 0.836-0.199 1.626-0.553 2.324l0.014-0.029c-0.653 1.378-1.848 2.41-3.303 2.831l-0.037 0.009c-0.129 3.583-1.592 6.802-3.904 9.194l0.004-0.004c-2.075 2.226-4.872 3.755-8.016 4.211l-0.074 0.009c-0.61 0.094-1.313 0.147-2.029 0.147-7.765 0-14.060-6.295-14.060-14.060s6.295-14.060 14.060-14.060c4.094 0 7.78 1.75 10.349 4.543l0.009 0.010zM22.46 16.060c0-4.639-3.761-8.4-8.4-8.4s-8.4 3.761-8.4 8.4c0 4.639 3.761 8.4 8.4 8.4 0.004 0 0.007 0 0.011 0h-0.001c4.629-0.006 8.38-3.76 8.38-8.39 0 0 0 0 0 0v0zM23.86 6.89c-2.456-2.624-5.94-4.258-9.806-4.258-7.412 0-13.42 6.008-13.42 13.42 0 1.884 0.388 3.678 1.090 5.305l-0.033-0.087v-0.080c2.071 4.904 6.84 8.283 12.398 8.283 7.167 0 13.021-5.618 13.4-12.69l0.001-0.034c-0.020-0-0.043-0.001-0.066-0.001-0.386 0-0.755 0.070-1.096 0.198l0.022-0.007c-0.974 0.329-1.718 1.106-1.995 2.078l-0.005 0.022c-0.604 2.079-1.779 3.833-3.343 5.136l-0.017 0.014c-1.811 1.57-4.192 2.527-6.795 2.527-0.713 0-1.409-0.072-2.082-0.208l0.067 0.011c-2.294-0.391-4.281-1.492-5.776-3.066l-0.004-0.004c-0.742-0.758-1.37-1.632-1.853-2.591l-0.027-0.059v-0.060c-0.691-1.358-1.095-2.962-1.095-4.66 0-0.83 0.097-1.637 0.279-2.411l-0.014 0.071c0.463-2.178 1.567-4.047 3.102-5.453l0.008-0.007c1.868-1.782 4.403-2.879 7.195-2.879 0.421 0 0.837 0.025 1.245 0.074l-0.049-0.005c1.761 0.175 3.354 0.771 4.717 1.683l-0.037-0.023c0.143 0.091 0.31 0.181 0.484 0.26l0.026 0.010c0.396 0.189 0.861 0.3 1.352 0.3 0.818 0 1.565-0.307 2.131-0.813l-0.003 0.003zM26.63 8.090c-1.861 0-3.37 1.509-3.37 3.37s1.509 3.37 3.37 3.37c1.861 0 3.37-1.509 3.37-3.37v0 0c0-0.003 0-0.007 0-0.010 0-1.85-1.5-3.35-3.35-3.35-0.011 0-0.021 0-0.032 0h0.002z"></path>
<path fill="#e8e8e8" d="M11.88 14.74l1.070-1h-1.060c-0.002-0.030-0.003-0.065-0.003-0.1s0.001-0.070 0.004-0.105l-0 0.005v-2c0-0.29 0.070-0.36 0.35-0.36h4.84c0.29 0 0.36 0.070 0.36 0.36v2.71c0 0.29-0.060 0.35-0.35 0.35h-1.26c-0.010-0-0.022-0.001-0.033-0.001-0.333 0-0.622 0.189-0.765 0.466l-0.002 0.005c-0.112 0.179-0.178 0.397-0.18 0.63v0c0 0.42 0 0.83 0 1.25 0.002 0.024 0.004 0.052 0.004 0.080s-0.001 0.056-0.004 0.084l0-0.003c0.001 0.007 0.001 0.014 0.001 0.022 0 0.144-0.116 0.26-0.26 0.26-0.011 0-0.022-0.001-0.032-0.002l0.001 0h-2.39c-0.2 0-0.29-0.090-0.29-0.28z"></path>
<path fill="#e8e8e8" d="M12.68 19.68h-0.75c-0.004-0.030-0.006-0.065-0.006-0.1s0.002-0.070 0.006-0.104l-0 0.004v-1.48c-0.003-0.031-0.004-0.068-0.004-0.105s0.002-0.074 0.005-0.11l-0 0.005h0.74c0.029 0.058 0.050 0.126 0.060 0.197l0 0.003c0 0.5 0 1 0 1.52-0.008 0.063-0.025 0.121-0.051 0.173l0.001-0.003z"></path>
<path fill="#e8e8e8" d="M13 19.68c-0.002-0.027-0.004-0.058-0.004-0.090s0.001-0.063 0.004-0.094l-0 0.004c0-0.51 0-1 0-1.54 0.006-0.070 0.024-0.135 0.052-0.194l-0.002 0.004h0.74c0.004 0.033 0.007 0.071 0.007 0.11s-0.003 0.077-0.007 0.114l0-0.004v1.48c0.003 0.033 0.004 0.071 0.004 0.11s-0.002 0.077-0.005 0.115l0-0.005h-0.79z"></path>
<path fill="#e8e8e8" d="M14.050 19.68c0-0.060 0-0.12 0-0.18v0-1.5c0.012-0.072 0.029-0.136 0.052-0.197l-0.002 0.007h0.74c0.004 0.033 0.007 0.071 0.007 0.11s-0.003 0.077-0.007 0.114l0-0.004c0 0.49 0 1 0 1.48 0.003 0.033 0.004 0.071 0.004 0.11s-0.002 0.077-0.005 0.115l0-0.005h-0.76z"></path>
</svg>
