<!-- Generated by IcoMoon.io -->
<svg version="1.1" xmlns="http://www.w3.org/2000/svg" width="32" height="32" viewBox="0 0 32 32">
<title>faction_crucible_valor</title>
<path d="M25.941 16.455c-1.115 0.012-2.232-0.082-3.344 0.091-0.477 0.073-0.728 0.267-0.682 0.781 0.027 0.314 0 0.633 0 0.95l0.35 0.436c0.020 0.064 0.032 0.137 0.032 0.214 0 0.112-0.025 0.218-0.070 0.312l0.002-0.004c-0.201 0.026-0.433 0.041-0.669 0.041s-0.468-0.015-0.696-0.044l0.027 0.003c-0.051-0.096-0.081-0.21-0.081-0.33 0-0.073 0.011-0.143 0.031-0.21l-0.001 0.005 0.365-0.401c0-0.267 0.011-0.586 0-0.899-0.008-0.199-0.035-0.409-0.3-0.447h-14.959c-0.784-0.048-1.567-0.094-2.314-0.373-0.358-0.134-0.709-0.285-0.99-0.608 0.758-0.698 1.716-0.786 2.7-0.958v-9.562h21.199v5.116q0 1.277 0 2.557c0 0.821 0 1.642 0 2.496 0.38-0.094 0.243-0.313 0.38-0.439h1.070c0.067 0.34 0.255 0.627 0.517 0.821l0.004 0.003c-0.256 0.203-0.44 0.487-0.514 0.813l-0.002 0.010h-1.070c-0.162-0.058-0.024-0.278-0.177-0.383-0.112-0.019-0.242-0.029-0.374-0.029-0.154 0-0.305 0.015-0.451 0.043l0.015-0.002zM22.197 15.27c0.064 0.051 0.123 0.134 0.194 0.148 1.153 0.229 2.314 0.134 3.492 0.134v-9.496h-19.873v8.974h15.026c0.297-0.443 0.124-0.9 0.165-1.325l-0.366-0.419c-0.021-0.183-0.059-0.349 0.063-0.526 0.201-0.022 0.433-0.035 0.669-0.035s0.468 0.013 0.697 0.038l-0.028-0.002c0.039 0.091 0.061 0.196 0.061 0.307 0 0.084-0.013 0.166-0.037 0.242l0.002-0.006-0.329 0.389v0.451c0 0.197-0.017 0.393-0.017 0.588 0.005 0.214-0.044 0.473 0.278 0.538z"></path>
<path d="M5.942 17.637q0.011 3.832 0.021 7.663v0.637h19.886c0.116-0.175 0.066-0.365 0.067-0.542q0-3.683 0-7.365c0-0.199 0.019-0.401 0.028-0.598l0.57 0.033v9.084h-21.131v-8.886z"></path>
<path d="M19.617 16.952h1.285l-4.926 6.339c-0.563-0.535-0.946-1.139-1.386-1.69-1.161-1.458-2.288-2.942-3.426-4.413-0.039-0.064-0.073-0.138-0.101-0.215l-0.002-0.008h1.204c0.006 0.053 0.022 0.101 0.044 0.144l-0.001-0.002q1.756 2.164 3.517 4.322c0.025 0.032 0.090 0.031 0.134 0.047 0.051-0.019 0.096-0.045 0.134-0.078l-0.001 0c0.749-0.91 1.518-1.803 2.232-2.74 0.432-0.572 0.978-1.050 1.292-1.705z"></path>
<path d="M13.077 16.959h1.321l1.554 1.941 1.538-1.947h1.32c-0.039 0.267-0.275 0.412-0.427 0.603-0.793 1.002-1.605 1.985-2.439 3.006-0.535-0.65-1.057-1.252-1.538-1.883-0.439-0.571-0.966-1.085-1.329-1.72z"></path>
<path d="M9.466 15.030l-3.301-4.268h0.983c0.445 0.538 0.92 1.107 1.382 1.693 0.679 0.863 1.426 1.67 2.049 2.574z"></path>
<path d="M21.934 14.144c0.627-0.599 1.111-1.32 1.669-1.978 0.385-0.456 0.756-0.924 1.142-1.399h1.008l-3.563 4.503c-0.322-0.064-0.267-0.32-0.274-0.544 0-0.195 0.012-0.392 0.017-0.582z"></path>
<path d="M16.791 16.952c-0.282 0.32-0.484 0.71-0.849 0.974-0.365-0.267-0.567-0.654-0.848-0.974z"></path>
<path d="M25.065 6.761c0.031 0.106 0.049 0.227 0.049 0.352 0 0.098-0.011 0.194-0.032 0.286l0.002-0.009h-1.901c-0.096-0.199-0.052-0.393-0.045-0.63z"></path>
<path d="M25.060 7.858c0.034 0.109 0.054 0.235 0.054 0.365 0 0.094-0.010 0.186-0.030 0.275l0.002-0.008h-1.887c-0.126-0.183-0.087-0.388-0.021-0.631z"></path>
</svg>
