<!-- Generated by IcoMoon.io -->
<svg version="1.1" xmlns="http://www.w3.org/2000/svg" width="32" height="32" viewBox="0 0 32 32">
<title>faction_xur</title>
<path d="M27.071 3.735v-1.258h-22.182v20.974c0.016 1.174 0.576 2.214 1.44 2.88l0.009 0.006c2.599 2.204 5.589 4.060 8.831 5.437l0.227 0.086c0.171 0.088 0.372 0.14 0.586 0.14 0.005 0 0.009-0 0.014-0h-0.001c0 0 0 0 0.001 0 0.251 0 0.485-0.071 0.684-0.193l-0.006 0.003c3.404-1.453 6.339-3.263 8.957-5.44l-0.058 0.047c0.941-0.772 1.536-1.934 1.538-3.236v-0c0-0.080 0-0.15 0-0.23v0c0-6.392 0-12.784 0-19.186zM25.074 25.278c-2.442 2.115-5.254 3.896-8.309 5.222l-0.211 0.081c-0.161 0.076-0.35 0.12-0.55 0.12-0.007 0-0.014-0-0.021-0h0.001c-0.004 0-0.009 0-0.014 0-0.269 0-0.52-0.078-0.731-0.213l0.005 0.003c-3.078-1.366-5.73-3.039-8.101-5.035l0.051 0.042c-0.653-0.443-1.087-1.165-1.128-1.991l-0-0.006c0-6.582 0-13.174 0-19.885h19.795v19.955c-0.002 0.679-0.307 1.287-0.786 1.695l-0.003 0.003z"></path>
<path d="M9.593 18.387v-7.92h-1.139v-1.328h3.875v1.318h-1.109v7.92h1.139v1.328h-3.905v-1.318z"></path>
<path d="M15.026 18.387l2.697-3.995-2.697-3.995h-1.358v-1.258h4.255v1.318h-1.189l1.848 2.697 1.828-2.697h-1.228v-1.318h4.065v1.318h-1.318l-2.587 3.815 2.816 4.115h1.368v1.318h-4.325v-1.318h1.218l-1.938-2.856-1.938 2.856h1.328v1.318h-4.275v-1.318z"></path>
<path d="M4.889 0h22.182v1.218h-22.182z"></path>
</svg>
