<!-- Generated by IcoMoon.io -->
<svg version="1.1" xmlns="http://www.w3.org/2000/svg" width="22" height="32" viewBox="0 0 22 32">
<title>faction_xur</title>
<path fill="#fff" d="M22.21 3.74v-1.26h-22.21v21c0.016 1.175 0.577 2.216 1.441 2.884l0.009 0.006c2.602 2.207 5.596 4.065 8.842 5.444l0.228 0.086c0.171 0.088 0.373 0.14 0.587 0.14 0.005 0 0.009-0 0.014-0h-0.001c0 0 0 0 0.001 0 0.251 0 0.486-0.071 0.685-0.193l-0.006 0.003c3.408-1.455 6.347-3.267 8.968-5.447l-0.058 0.047c0.942-0.773 1.538-1.937 1.54-3.24v-0c0-0.080 0-0.15 0-0.23v0c0-6.4 0-12.8 0-19.21zM20.21 25.31c-2.445 2.118-5.261 3.901-8.319 5.228l-0.211 0.082c-0.161 0.076-0.351 0.12-0.55 0.12-0.007 0-0.014-0-0.021-0h0.001c-0.004 0-0.009 0-0.014 0-0.269 0-0.52-0.078-0.732-0.213l0.005 0.003c-3.081-1.368-5.737-3.043-8.111-5.042l0.051 0.042c-0.653-0.443-1.088-1.167-1.13-1.994l-0-0.006c0-6.59 0-13.19 0-19.91h19.82v19.98c-0.002 0.68-0.307 1.288-0.787 1.697l-0.003 0.003z"></path>
<path fill="#fff" d="M4.71 18.41v-7.93h-1.14v-1.33h3.88v1.32h-1.11v7.93h1.14v1.33h-3.91v-1.32z"></path>
<path fill="#fff" d="M10.15 18.41l2.7-4-2.7-4h-1.36v-1.26h4.26v1.32h-1.19l1.85 2.7 1.83-2.7h-1.23v-1.32h4.070v1.32h-1.32l-2.59 3.82 2.82 4.12h1.37v1.32h-4.33v-1.32h1.22l-1.94-2.86-1.94 2.86h1.33v1.32h-4.28v-1.32z"></path>
<path fill="#fff" d="M0 0h22.21v1.22h-22.21z"></path>
</svg>
