<!-- Generated by IcoMoon.io -->
<svg version="1.1" xmlns="http://www.w3.org/2000/svg" width="32" height="32" viewBox="0 0 32 32">
<title>srl</title>
<path d="M16 0l-16 16 16 16 16-16zM0.774 16l15.226-15.226 15.226 15.226-15.226 15.226z"></path>
<path d="M26.624 14.919c0 0.002 0 0.004 0 0.007 0 0.217-0.176 0.392-0.392 0.392-0.009 0-0.018-0-0.026-0.001l0.001 0c0 0-0 0-0 0-0.219 0-0.396-0.177-0.396-0.396 0-0.002 0-0.003 0-0.005v0c0-0.001 0-0.001 0-0.002 0-0.227 0.184-0.411 0.411-0.411 0 0 0 0 0 0v0c0.223 0.001 0.402 0.182 0.402 0.405 0 0.004-0 0.008-0 0.012v-0.001z"></path>
<path d="M9.79 8.565l13.156 4.836c-0.197 0.158-0.366 0.303-0.545 0.423-0.049 0.033-0.155 0.002-0.226-0.024q-2.806-1.028-5.612-2.060-3.060-1.126-6.126-2.249c-0.155-0.057-0.265-0.137-0.339-0.287-0.107-0.207-0.266-0.468-0.379-0.672 0.010 0.006 0.059 0.028 0.071 0.032z"></path>
<path d="M10.778 10.391c3.664 1.346 7.269 2.67 10.915 4.008-0.201 0.159-0.373 0.305-0.561 0.432-0.046 0.029-0.143 0.005-0.207-0.019q-3.755-1.384-7.514-2.77c-0.653-0.241-1.309-0.47-1.961-0.714-0.104-0.046-0.19-0.118-0.251-0.208l-0.001-0.002c-0.142-0.219-0.263-0.454-0.419-0.727z"></path>
<path d="M11.744 12.201l8.686 3.197c-0.187 0.149-0.345 0.289-0.517 0.404-0.052 0.035-0.155 0.022-0.223 0q-2.314-0.841-4.624-1.691c-0.88-0.322-1.765-0.64-2.644-0.969-0.11-0.048-0.2-0.125-0.263-0.221l-0.001-0.002c-0.143-0.214-0.256-0.442-0.414-0.717z"></path>
<path d="M29.179 16.317q-6.733 2.781-13.47 5.558-3.732 1.536-7.461 3.070c-0.31 0.128-0.614 0.264-0.923 0.398-0.029 0.011-0.067 0.028-0.095 0.037-0.076 0.038-0.96 0.426-1.044 0.422 0.040-0.036 1.006-0.758 1.051-0.793q5.546-4.378 11.089-8.758c0.104-0.081 0.191-0.107 0.312-0.052 0.158 0.070 0.324 0.124 0.526 0.199-2.918 2.311-5.811 4.602-8.706 6.893 0.006 0.011 0.009 0.021 0.014 0.029l17.811-7.331c-0.199-0.428-0.442-0.796-0.731-1.123l0.004 0.005c-0.53-0.601-1.185-1.006-1.933-1.28q-6.587-2.417-13.172-4.841c-1.045-0.384-2.094-0.764-3.136-1.156-0.103-0.046-0.188-0.119-0.246-0.21l-0.001-0.002c-0.139-0.212-0.255-0.439-0.404-0.705 0.29 0.104 0.527 0.19 0.767 0.278q7.927 2.914 15.851 5.825c0.362 0.133 0.726 0.257 1.083 0.395 0.731 0.283 1.297 0.783 1.8 1.369 0.447 0.516 0.726 1.126 1.014 1.733 0.001 0.014 0.001 0.027 0.001 0.041z"></path>
</svg>
