<?xml version="1.0" standalone="no"?>
<!DOCTYPE svg PUBLIC "-//W3C//DTD SVG 1.1//EN" "http://www.w3.org/Graphics/SVG/1.1/DTD/svg11.dtd" >
<svg xmlns="http://www.w3.org/2000/svg" xmlns:xlink="http://www.w3.org/1999/xlink" version="1.1" viewBox="-10 0 1096 1000">
  <g transform="matrix(1 0 0 -1 0 800)">
   <path fill="currentColor"
d="M489.55 332.95l-122.2 -14.2998l122.2 10.3994l87.75 -8.4502l0.650391 -0.649414l0.649414 0.649414l111.801 17.5508l63.6992 -8.4502l1.30078 -0.650391l1.2998 0.650391l24.7002 13l13.6494 -9.75l1.2998 -0.650391h1.9502l5.2002 1.9502l111.8 -27.9502
c-131.3 -11.7002 -248.3 -22.0996 -351.649 -31.8496c-176.15 -15.6006 -353.601 -33.1504 -357.5 -35.1006l289.25 3.90039h4.5498l1.9502 -3.90039l8.44922 -18.8496l74.1006 39.6504l1.2998 0.649414l1.2998 -0.649414l118.3 -8.4502l28.6006 13l0.649414 0.649414
h0.650391l20.1504 -5.19922l158.6 8.44922l-158.6 -11.6992h-0.650391l-18.8496 2.59961l-28.6006 -16.25l-0.649414 -0.650391l-1.30078 0.650391l-117.649 7.15039l-77.3506 -44.8506l-5.19922 -2.59961l-3.25 5.84961l-10.4004 19.5l-57.2002 -3.89941l-61.0996 -4.55078
l-96.8506 -7.7998c31.2002 -23.3994 68.25 -39 109.851 -42.25c-44.8506 2.60059 -85.7998 11.0498 -122.851 25.3506c46.1504 -59.8008 109.851 -99.4502 183.301 -106.601c-81.25 5.2002 -155.351 29.25 -215.801 66.2998
c37.0508 -65.6494 88.4004 -109.85 147.551 -117.649c-169 15.5996 -302.25 169.649 -302.25 358.8s133.25 343.2 302.25 358.8c-59.1504 -7.7998 -110.5 -51.3496 -147.551 -117c60.4502 37.0498 134.551 61.1006 215.801 66.2998
c-73.4502 -7.14941 -137.15 -46.7998 -183.301 -106.6c37.0508 13.6504 78.6504 22.75 122.851 25.3496c-40.9502 -3.25 -78 -18.8496 -109.2 -42.25l96.2002 -7.14941l61.0996 -4.5498l57.2002 -3.90039l10.4004 19.5l3.25 5.84961l5.19922 -3.25l77.3506 -44.1992
l117.649 7.14941h1.30078l0.649414 -0.649414l28.6006 -15.6006l18.8496 1.9502h0.650391l158.6 -11.7002l-158.6 9.10059l-20.1504 -5.2002h-0.650391h-0.649414l-28.6006 13l-118.3 -8.4502h-1.2998l-1.2998 0.650391l-74.1006 39l-8.44922 -18.2002l-1.9502 -4.5498
h-4.5498l-289.9 4.5498c3.25 -3.25 182.65 -20.1504 358.15 -35.75c103.35 -9.75 220.35 -20.1504 351.649 -31.8506l-111.8 -27.2998l-5.2002 1.9502h-1.9502l-1.2998 -1.2998l-13.6494 -9.75l-24.7002 13l-1.2998 0.649414h-1.30078l-63.6992 -8.44922l-111.801 17.5498
h-0.649414h-0.650391l-87.0996 -8.4502l-122.851 9.75l122.2 -13.6504h0.650391l87.0996 6.5l111.8 -19.5l0.650391 -0.649414h0.650391l63.6992 6.5l25.3506 -14.9502l2.59961 -1.2998l2.60059 1.2998l14.9492 10.4004l172.25 -4.55078l-67.5996 -34.4492l-574.6 11.6992
c-9.75 30.5508 -36.4004 47.4502 -67.6006 47.4502c-39.6494 0 -71.5 -28.5996 -71.5 -72.7998c0 -43.5498 31.8506 -72.1504 71.5 -72.1504c31.2002 0 57.8506 16.25 67.6006 47.4502l574.6 11.7002l67.5996 -34.4502l-172.25 -3.89941l-14.9492 9.75l-2.60059 1.94922
l-2.59961 -1.2998l-25.3506 -14.9502l-63.6992 5.85059h-0.650391h-0.650391l-111.8 -19.5l-87.0996 6.5h-0.650391zM226.3 396c0 20.1504 15.6006 35.75 35.75 35.75c20.1504 0 35.1006 -15.5996 35.1006 -35.75s-14.9502 -35.0996 -35.1006 -35.0996
c-20.1494 0 -35.75 14.9492 -35.75 35.0996z" />
  </g>

</svg>
