<?xml version="1.0" standalone="no"?>
<!DOCTYPE svg PUBLIC "-//W3C//DTD SVG 1.1//EN" "http://www.w3.org/Graphics/SVG/1.1/DTD/svg11.dtd" >
<svg xmlns="http://www.w3.org/2000/svg" xmlns:xlink="http://www.w3.org/1999/xlink" version="1.1" viewBox="-10 0 905 1000">
  <g transform="matrix(1 0 0 -1 0 800)">
   <path fill="currentColor"
d="M797.8 533l-45 -21c48 -123 18 -263.4 -75 -356.4c-64.7998 -64.7998 -149.399 -97.7998 -236.399 -97.7998c-40.8008 0 -81 6.60059 -121.2 22.7998l-22.2002 -47.3994l36 131.399l-40.7998 -27l113.399 136.2l6.60059 6l-12 -25.2002
c50.3994 -15 104.399 -1.7998 141 36c36.5996 36.6006 50.3994 90 36.5996 140.4l-27.5996 -13.2002l6 6.60059l136.2 113.399l-27.6006 -40.7998zM440.8 170.6c-24.5996 0 -49.2002 4.2002 -73.2002 12.6006l-5.39941 -12c85.7998 -30.6006 179.399 -10.2002 244.8 55.2002
c64.2002 64.1992 85.7998 158.399 55.2002 243l-12 -5.40039c27.5996 -80.4004 7.2002 -169.2 -52.2002 -228.6c-42.5996 -42.6006 -99 -64.8008 -157.2 -64.8008zM669.4 163.4c91.1992 89.3994 118.199 225 73.1992 343.8l-60 -28.2002
c33.6006 -94.2002 10.2002 -196.8 -60 -268.8c-49.7998 -49.7998 -113.399 -75 -180.6 -75c-30 0 -59.4004 5.39941 -88.7998 15.5996l-28.2002 -60c119.4 -46.2002 253.8 -18 344.4 72.6006zM214.6 284.6l-131.399 -36.5996l46.7998 22.2002
c-48 123.6 -19.2002 263.399 75 357.6c94.7998 93 233.4 123.601 357 75.6006l20.4004 44.3994l-36 -131.399l41.3994 27l-97.7998 -117v-0.600586l-15.5996 -18.5996l-6.60059 -6l12.6006 27.5996c-49.8008 14.4004 -103.801 0.600586 -140.4 -36
c-36.5996 -37.7998 -50.4004 -91.2002 -36 -141.6l25.7998 12l-6 -6.60059l-136.2 -113.399zM284.8 548c60 60 149.4 79.7998 229.2 52.7998l5.40039 11.4004c-84.6006 30.5996 -179.4 9 -243.601 -55.2002s-85.2002 -158.4 -54.5996 -244.2l11.3994 5.40039
c-28.7998 79.7998 -7.7998 169.8 52.2002 229.8zM213.4 620c-91.2002 -91.2002 -119.4 -225.6 -73.2002 -345l60.5996 28.2002c-35.3994 93 -12 198.6 59.4004 270c70.7998 70.7998 175.2 93 268.8 59.3994l28.2002 60.6006c-120 45 -253.2 17.3994 -343.8 -73.2002z
M449.8 375.2l-20.3994 -20.4004l-25.2002 25.2002l20.3994 20.4004zM578.2 573.2h6.59961c4.2002 0 8.40039 0.599609 11.4004 2.39941c5.39941 3.60059 25.7998 23.4004 34.2002 33.6006c3 4.2002 4.7998 10.7998 6.59961 16.2002l1.7998 9.59961
c3 1.7998 6.60059 4.2002 10.7998 6c6.60059 4.2002 16.2002 7.7998 27.6006 13.2002l31.2002 13.2002l15 6c-1.80078 -5.40039 -4.2002 -10.2002 -6 -15c-4.2002 -9 -9 -19.2002 -13.8008 -30.6006c-4.7998 -11.3994 -9 -20.3994 -13.1992 -27.5996
c-1.80078 -4.2002 -3.60059 -8.40039 -5.40039 -11.4004l-9.59961 -1.7998c-5.40039 -1.7998 -12 -2.40039 -16.2002 -6.59961c-10.2002 -8.40039 -30.6006 -27.6006 -33.6006 -34.2002c-1.7998 -3 -3 -6.60059 -3 -10.7998
c-0.599609 -1.80078 -0.599609 -4.2002 0 -6.60059l-9 -1.2002l3.60059 -16.1992c-2.40039 0 -4.7998 0 -7.2002 0.599609c-4.2002 0 -9 0.599609 -11.4004 0c-4.19922 -1.7998 -9 -5.40039 -13.1992 -9.59961l-7.2002 -7.80078h-1.2002c-1.7998 0 -3 0 -4.2002 0.600586
l-27.5996 27.5996c-0.600586 1.2002 -0.600586 2.40039 -0.600586 4.2002v1.7998l7.2002 6.60059c4.2002 4.19922 7.7998 9 9.60059 13.1992c0.599609 2.40039 0.599609 7.2002 0.599609 11.4004c0 2.40039 0 4.7998 -0.599609 7.2002l16.1992 -3.60059zM655.6 616.4
l-48.5996 -48.6006c-2.40039 -2.39941 -1.7998 -5.39941 1.7998 -9c3 -3.59961 6 -4.2002 9 -1.2002l48 48c9 9 16.2002 18.6006 21 26.4004c3 4.2002 5.40039 9 7.7998 13.2002c-4.19922 -2.40039 -9 -4.7998 -13.1992 -7.7998
c-8.40039 -5.40039 -16.8008 -12 -25.8008 -21zM478 403.4l-19.7998 -20.4004l-25.7998 25.7998l20.3994 19.7998zM302.2 208.4h-6.60059c-4.19922 -0.600586 -7.7998 -1.2002 -10.7998 -3c-5.39941 -3 -27.5996 -23.4004 -34.2002 -33.6006
c-4.19922 -4.2002 -5.39941 -10.7998 -7.19922 -16.2002c-0.600586 -3 -1.2002 -6.59961 -1.2002 -9.59961c-3 -1.7998 -7.2002 -4.2002 -11.4004 -6c-7.2002 -4.2002 -16.2002 -7.7998 -27.5996 -12.5996c-11.4004 -5.40039 -22.2002 -9.60059 -31.2002 -13.8008
c-5.40039 -1.7998 -10.2002 -4.19922 -14.4004 -6l6 15c4.2002 9 7.80078 19.8008 13.2002 31.2002c4.7998 11.4004 9 19.7998 13.2002 27c1.7998 4.2002 4.2002 7.7998 6 11.4004l9.59961 1.7998c5.40039 1.7998 11.4004 2.40039 16.2002 6.59961
c9 6 30.6006 28.8008 33.6006 34.2002c1.7998 4.2002 2.39941 7.7998 2.39941 10.7998v6.60059l9.60059 1.2002l-3.60059 16.1992c2.40039 -0.599609 4.7998 -0.599609 7.2002 -0.599609c4.2002 0 8.40039 -1.2002 11.4004 0.599609
c4.19922 1.2002 8.39941 4.2002 13.1992 9l6.60059 7.80078h1.7998c1.7998 0 3 -0.600586 5.40039 -0.600586l1.19922 1.2002l25.8008 -25.7998l-1.2002 -0.600586c0.599609 -3 1.2002 -5.39941 1.2002 -6v-1.7998l-7.80078 -7.2002
c-4.19922 -4.19922 -7.7998 -9 -9.59961 -13.1992c-0.599609 -3 -0.599609 -7.2002 0 -11.4004c0 -2.40039 0 -4.7998 0.599609 -7.2002l-16.1992 3.60059zM225.4 165.2l48 48c3 3 2.39941 6 -1.2002 9c-3.60059 3.59961 -6.60059 4.2002 -9 1.2002l-18 -17.4004
c-10.2002 -9.59961 -21.6006 -21.5996 -30.6006 -30.5996s-16.1992 -18.6006 -21 -26.4004c-3 -4.2002 -5.39941 -9 -7.7998 -13.2002c4.2002 1.7998 9 4.7998 13.2002 7.7998c8.40039 5.40039 17.4004 12.6006 26.4004 21.6006zM563.2 488.6l-76.7998 -76.7998
l-25.2002 25.2002l76.7998 76.7998zM319 295.4l76.7998 76.7998l25.7998 -25.7998l-76.7998 -76.8008z" />
  </g>

</svg>
