<?xml version="1.0" standalone="no"?>
<!DOCTYPE svg PUBLIC "-//W3C//DTD SVG 1.1//EN" "http://www.w3.org/Graphics/SVG/1.1/DTD/svg11.dtd" >
<svg xmlns="http://www.w3.org/2000/svg" xmlns:xlink="http://www.w3.org/1999/xlink" version="1.1" viewBox="-10 0 840 1000">
  <g transform="matrix(1 0 0 -1 0 800)">
   <path fill="currentColor"
d="M582.075 139.925c18.8496 13.6504 35.75 29.9004 51.3496 48.1006c14.9502 17.5498 27.9502 37.6992 39 58.5c-9.75 -22.1006 -21.4502 -42.9004 -35.0996 -61.75c-14.2998 -19.5 -30.5498 -37.0508 -48.75 -52.6504
c-36.4004 -31.2002 -80.6006 -54.5996 -127.4 -66.9502c-23.3994 -5.84961 -47.4502 -9.75 -72.7998 -10.3994c-25.3496 -0.650391 -49.4004 1.2998 -73.4502 6.5c-46.7998 9.75 -90.3496 29.25 -129.35 57.8496l-1.2998 -1.2998l-42.9004 42.8994l64.3496 78.6504
l57.2002 -57.2002l-14.9502 -11.7002c20.1504 -15.5996 42.25 -28.5996 67.6006 -37.0498c32.5 -12.3496 65.6494 -16.8994 100.1 -14.9502c35.1006 1.30078 68.25 9.75 100.101 24.7002c31.8496 15.6006 60.4492 37.0498 84.5 63.7002
c-22.1006 -29.25 -48.75 -53.2998 -79.3008 -72.1504c-31.1992 -18.1992 -66.2998 -31.1992 -103.35 -36.3994c-36.4004 -5.2002 -74.0996 -3.25 -110.5 6.5c-31.8496 8.4502 -61.75 22.0996 -89.0498 40.9502l-1.9502 -1.30078
c31.8496 -25.3496 66.9502 -43.5498 105.3 -54.5996c22.75 -5.84961 44.2002 -9.75 66.9502 -10.4004c22.75 -0.649414 45.5 0.650391 68.25 5.2002c44.8496 7.7998 88.4004 27.2998 125.45 55.25zM725.725 429.825l5.85059 -43.5498l-43.5498 5.84961l5.84961 -43.5498
l-43.5498 5.84961l6.5 -43.5498l-43.5498 5.84961l5.84961 -43.5498l-86.4502 85.7998l-1.2998 40.3008l-37.7002 -4.55078l-67.5996 67.6006c5.84961 8.4502 11.0498 17.5498 15.5996 27.2998c7.7998 17.5498 14.2998 39.6504 13.6504 65
c-1.9502 27.9502 -17.5498 54.5996 -33.1504 73.4502c-33.7998 5.2002 -68.25 3.25 -102.7 -5.2002c-53.9492 -13 -100.75 -44.8496 -136.5 -88.4004c-34.4492 -44.1992 -55.8994 -98.1494 -57.8496 -155.35s14.9502 -115.05 48.0996 -162.5
c-36.3994 46.1504 -55.8994 102.7 -57.8496 162.5c-1.9502 59.1504 16.25 117.65 52 167.05c35.75 49.4004 84.5 87.1006 144.3 105.3c16.25 5.2002 33.7998 8.4502 51.3506 11.0508c1.94922 1.94922 3.89941 4.5498 8.44922 7.7998
c-20.1494 -0.650391 -41.5996 -3.25 -63.0498 -9.10059c-62.3994 -15.5996 -116.35 -52.6494 -157.3 -102.699c-39.6504 -51.3506 -63.7002 -113.75 -65.6504 -179.4c-2.59961 -65.6504 16.9004 -131.3 55.9004 -185.9c-41.5996 52 -65 118.301 -65.6504 185.9
c-1.94922 67.5996 20.1504 135.85 59.8008 191.1c40.9492 55.25 97.5 99.4502 165.1 119.601c48.75 14.9502 100.75 18.8496 152.1 10.3994c3.25 0 5.85059 -1.2998 9.10059 -1.2998c10.3994 -1.9502 20.7998 -5.84961 31.2002 -10.3994l11.0498 -6.5l0.649414 -0.650391
c12.3506 -7.15039 23.4004 -16.25 33.8008 -27.2998c39 -39 96.8496 -97.5 144.949 -144.3l85.8008 -85.8008zM537.225 578.025l47.4502 -33.1504l-76.0498 76.0498c-3.25 -3.25 -5.84961 -6.5 -7.7998 -9.75c-3.25 -5.84961 -5.2002 -14.9502 -0.650391 -23.3994
c4.5498 -9.75 13 -11.7002 21.4502 -11.7002c4.5498 0 9.75 0.649414 15.5996 1.9502zM205.725 253.675l21.4502 22.1006l71.5 -72.1504l-21.4502 -21.4502zM272.675 458.425c-18.2002 -22.75 -29.8994 -50.0498 -31.8496 -79.2998
c-1.9502 -28.5996 5.84961 -57.8496 21.4502 -83.2002l155.35 155.351l57.2002 -57.2002l-137.15 -136.5c16.9004 -7.7998 35.1006 -11.7002 53.9502 -11.7002c35.75 0 71.5 14.2998 97.5 42.25c-20.7998 -31.2002 -55.9004 -54.5996 -95.5498 -61.75
c-26 -5.2002 -53.9502 -3.25 -79.9502 6.5l-14.9502 -14.9502l-57.2002 57.8506l20.1504 20.1494c-18.2002 23.4004 -28.5996 52.6504 -30.5498 83.2002c-1.9502 31.2002 7.7998 63.0498 26 91c18.2002 26.6504 44.8496 48.75 78 59.1504
c31.8496 11.0498 67.5996 11.6992 100.75 1.2998l-13.6504 -37.0498c-24.0498 10.3994 -52.6494 13.6494 -79.2998 7.7998c-26.6504 -5.85059 -51.3496 -21.4502 -70.2002 -42.9004z" />
  </g>

</svg>
