<?xml version="1.0" standalone="no"?>
<!DOCTYPE svg PUBLIC "-//W3C//DTD SVG 1.1//EN" "http://www.w3.org/Graphics/SVG/1.1/DTD/svg11.dtd" >
<svg xmlns="http://www.w3.org/2000/svg" xmlns:xlink="http://www.w3.org/1999/xlink" version="1.1" viewBox="-10 0 1120 1000">
  <g transform="matrix(1 0 0 -1 0 800)">
   <path fill="currentColor"
d="M462 481.4l11.4004 -4.80078l-9.60059 -1.19922c-6.59961 -0.600586 -15 -0.600586 -26.3994 2.39941c-9.60059 2.40039 -19.2002 1.7998 -27 1.2002l-13.2002 -1.7998l13.2002 5.39941c7.7998 2.40039 19.1992 6 30.5996 4.2002
c6.59961 -0.599609 14.4004 -3 21 -5.39941zM985.2 194l-127.8 172.8c-15 -13.7998 -25.2002 -28.7998 -33 -45l65.3994 -180l-72.5996 165c-12 -30.5996 -19.7998 -64.7998 -40.7998 -103.8c16.1992 11.4004 34.1992 36 49.1992 42.5996
c-30.5996 -46.7998 -37.7998 -76.7998 -61.7998 -152.399c88.2002 -3 152.4 -11.4004 152.4 -22.7998c0 -12.6006 -95.4004 -23.4004 -213.601 -23.4004c-117.6 0 -213 10.7998 -213 23.4004c0 11.3994 66 19.7998 154.801 22.7998
c-22.8008 75.5996 -30.6006 106.2 -61.2002 152.399c14.3994 -6.59961 32.3994 -29.3994 48 -42c-21.6006 40.2002 -29.4004 75.6006 -43.2002 106.2l-73.7998 -168l66.5996 183c-7.7998 16.2002 -18 29.4004 -33 43.2002l-129 -180l118.2 189l-7.2002 4.7998
c28.2002 -5.39941 48.6006 -21.5996 70.7998 -35.3994c-9 7.19922 -19.1992 16.1992 -28.7998 27.5996c-16.2002 17.4004 -28.7998 35.4004 -49.7998 52.2002l-28.2002 -25.7998c6.60059 1.7998 15 3.59961 24.6006 1.19922l14.3994 -6
c2.40039 -1.7998 4.7998 -3 7.2002 -3.59961h-7.2002c-4.2002 0 -10.2002 0.599609 -17.3994 3.59961c-7.80078 4.2002 -18 3.60059 -23.4004 3.60059l-134.4 -122.4l151.801 157.8c-13.8008 9 -28.8008 16.2002 -49.8008 22.8008c24.6006 4.7998 56.4004 9 99.6006 -12
l7.2002 -3.60059c-1.80078 0.600586 -1.2002 1.7998 -3 2.40039c-38.4004 38.3994 -121.2 45.5996 -169.2 99c76.2002 -44.4004 112.2 -16.2002 187.8 -67.2002l0.599609 -0.599609c-46.7998 45 -129.6 66.5996 -165 126c69 -54.6006 111 -44.4004 176.4 -90.6006
c16.2002 -11.3994 27.5996 -22.7998 37.2002 -34.2002v0.600586h0.599609l-1.7998 2.39941c-22.2002 40.2002 -81.5996 67.8008 -108.6 120.601c51 -52.7998 82.7998 -48 131.399 -94.7998c0 -0.600586 0 -0.600586 0.600586 -0.600586
c-4.2002 9 -7.80078 20.4004 -9.60059 39.6006c-1.7998 18.5996 -7.7998 36.5996 -14.3994 50.3994c-3.60059 7.7998 -7.2002 15.6006 -11.4004 23.4004l12 -12c7.2002 -7.7998 16.2002 -18.6006 23.4004 -32.4004c0 4.7998 -0.600586 9.60059 -0.600586 16.2002
c0 17.4004 -3 32.4004 -7.2002 42.5996c-1.7998 6 -4.19922 11.4004 -7.19922 16.2002c3.59961 -3 7.19922 -6.59961 10.1992 -10.7998c5.40039 -7.2002 11.4004 -18.5996 15.6006 -34.7998l0.599609 30.5996l12.6006 5.40039c7.19922 3 16.1992 6 25.1992 6
s18.6006 -3 26.4004 -6l13.7998 -5.40039v-26.3994c4.2002 14.3994 9.60059 24.5996 15 31.1992c3 4.2002 6.60059 7.2002 9.60059 10.2002c-3 -4.7998 -5.40039 -10.2002 -7.2002 -16.2002c-4.2002 -10.1992 -7.7998 -25.1992 -7.2002 -42.5996
c0 -6.59961 -0.599609 -11.4004 -0.599609 -16.2002c7.19922 13.7998 15.5996 24.6006 22.7998 32.4004l12.5996 12c-4.2002 -7.7998 -7.7998 -15.6006 -11.3994 -23.4004c-6.60059 -13.7998 -12.6006 -31.7998 -14.4004 -50.3994c-1.7998 -21 -6 -33 -10.2002 -40.8008
l1.7998 1.80078c48 46.1992 80.4004 42 131.4 94.7998c-27 -52.7998 -86.4004 -80.4004 -108.6 -120.601l-1.2002 -2.39941h0.599609c9.60059 11.3994 21.6006 22.7998 36.6006 33.5996c66 46.7998 106.8 42.6006 177 96.6006
c-36.6006 -58.8008 -117.601 -87.6006 -165.601 -132c0.600586 0.599609 0.600586 0.599609 1.2002 0.599609c73.7998 51.5996 111 28.7998 187.2 73.2002c-48 -52.7998 -130.8 -66.6006 -169.2 -105c-1.7998 -0.600586 -1.7998 -1.7998 -2.40039 -2.40039l6.60059 3.60059
c43.2002 21 74.3994 16.7998 100.2 12c-22.2002 -7.2002 -38.4004 -15 -52.2002 -24l151.2 -150.601l-134.4 115.8c-5.40039 0.600586 -15 1.2002 -22.7998 -3c-7.2002 -3 -13.2002 -3.59961 -17.4004 -3.59961h-6.59961c2.39941 0.599609 4.7998 1.7998 7.2002 3.59961
l13.7998 6c9 1.80078 17.3994 0.600586 24 -1.19922l-27 24.5996c-21 -16.2002 -33 -34.2002 -48 -51s-28.7998 -28.2002 -41.4004 -36c25.2002 12.5996 48.6006 35.4004 79.7998 41.4004l-5.39941 -4.2002zM772.2 368.6l0.599609 1.2002h-0.599609v-1.2002zM733.8 365
l74.4004 39l12.5996 33l-81.5996 -19.7998l-1.2002 5.39941c-1.7998 3 -2.40039 6.60059 -5.40039 10.8008l-9.59961 7.19922l-4.2002 2.40039l6 6l-1.2002 142.2l-6.59961 2.39941c-4.2002 1.80078 -9 2.40039 -14.4004 2.40039
c-5.39941 0 -9.59961 -0.599609 -13.7998 -2.40039l-6.59961 -2.39941l-1.2002 -142.2l6 -6l-4.2002 -2.40039c-2.39941 -1.7998 -6.59961 -4.19922 -9.59961 -7.19922c-3 -3.60059 -4.7998 -7.2002 -5.40039 -10.8008c-0.599609 -1.7998 -1.2002 -3.59961 -1.2002 -5.39941
l-81.5996 19.7998l12.5996 -33l74.4004 -39l10.2002 -294.6c1.7998 -0.600586 3.59961 -0.600586 5.39941 -0.600586c4.2002 -0.599609 8.40039 -0.599609 15 -0.599609c6.60059 0 10.8008 0 15 0.599609c1.80078 0 4.2002 0 6 0.600586zM967.8 486.8
c11.4004 1.7998 21.6006 0.600586 30.6006 -1.2002l13.1992 -2.39941l-13.1992 -1.2002c-7.80078 -0.599609 -18 -1.7998 -27 -4.2002c-11.4004 -3 -19.8008 -3 -26.4004 -2.39941l-10.2002 1.19922l11.4004 4.80078c6.59961 2.39941 15 4.7998 21.5996 5.39941z
M591.6 611.6c-3.59961 -17.3994 -3 -36 2.40039 -55.7998c-9.59961 16.7998 -13.7998 36 -13.2002 57c1.2002 21 7.2002 39.6006 18 57c11.4004 18 25.7998 32.4004 44.4004 42.6006c18.5996 9.59961 38.3994 15 59.3994 15.5996c21.6006 -0.599609 41.4004 -6 60 -15.5996
c18.6006 -10.2002 33 -24.6006 44.4004 -42.6006c10.7998 -17.3994 16.7998 -36 18 -57c0.599609 -21 -3.59961 -40.2002 -13.2002 -57c5.40039 19.7998 6 38.4004 2.40039 55.7998c-3 18 -10.2002 34.2002 -21 49.2002c-11.4004 13.7998 -24 25.7998 -40.2002 33.6006
c-16.2002 7.7998 -33 12 -50.4004 12c-17.3994 0 -33.5996 -4.2002 -49.7998 -12c-16.2002 -7.80078 -28.7998 -19.8008 -40.2002 -33.6006c-10.7998 -15 -18 -31.2002 -21 -49.2002z" />
  </g>

</svg>
