<?xml version="1.0" standalone="no"?>
<!DOCTYPE svg PUBLIC "-//W3C//DTD SVG 1.1//EN" "http://www.w3.org/Graphics/SVG/1.1/DTD/svg11.dtd" >
<svg xmlns="http://www.w3.org/2000/svg" xmlns:xlink="http://www.w3.org/1999/xlink" version="1.1" viewBox="-10 0 724 1000">
  <g transform="matrix(1 0 0 -1 0 800)">
   <path fill="currentColor"
d="M556.6 287.4l-8.39941 -19.8008c-6.60059 -13.7998 -13.2002 -26.3994 -20.4004 -39c-13.7998 -25.7998 -29.3994 -49.1992 -48 -72.5996c-18.5996 -23.4004 -38.3994 -45 -59.3994 -64.7998c-11.4004 -9.60059 -22.8008 -18.6006 -34.8008 -27.6006
c-6 -4.7998 -12 -9 -18 -12.5996c-6.59961 -4.2002 -13.1992 -8.40039 -19.1992 -11.4004l-8.40039 -4.7998l-8.40039 4.7998l-18.5996 11.4004c-6 3 -12 7.2002 -18.5996 12.5996c-12 9 -22.8008 18 -34.2002 27.6006c-22.2002 21 -41.4004 41.3994 -60 64.7998
c-18.6006 23.4004 -33.6006 46.7998 -48 72.5996c-6.60059 12 -13.2002 25.2002 -19.7998 39l-9 19.8008l-7.80078 20.3994l-3 9l6.60059 6l9.59961 8.40039l0.600586 1.2002l1.19922 1.19922l0.600586 0.600586l1.2002 0.599609l3.59961 4.7998c3 3 5.40039 6 7.7998 9
l7.2002 10.2002c10.2002 12.6006 18.5996 27 27.5996 40.7998c16.8008 28.8008 31.2002 58.8008 43.2002 90c12.6006 30.6006 22.7998 62.4004 30.6006 95.4004l6 24.5996l4.7998 24.6006l4.7998 25.2002l4.2002 25.1992
c-1.7998 -34.1992 -4.2002 -67.7998 -9.60059 -101.399c-5.39941 -33.6006 -13.7998 -66.6006 -24 -99.6006c-11.3994 -33.5996 -23.3994 -64.7998 -39.5996 -95.3994c-9 -15 -16.7998 -30 -27 -44.4004l-7.2002 -10.7998l-8.39941 -10.7998l-4.2002 -4.7998
l-0.600586 -1.2002l-1.7998 -1.7998c-0.599609 -0.600586 -1.2002 -1.2002 -1.2002 -1.80078l-1.19922 -1.19922l-2.40039 -1.80078l4.7998 -10.7998l9 -18.5996l19.2002 -36.6006c14.4004 -23.3994 30.5996 -45.5996 48 -67.7998c16.7998 -21 35.4004 -41.3994 56.4004 -60
c10.1992 -9 20.3994 -17.3994 31.7998 -25.2002l3 -2.39941c-14.4004 13.7998 -33 32.3994 -49.2002 55.7998c-16.2002 22.2002 -27 46.7998 -34.7998 66l-12 32.4004c5.39941 -9.60059 11.3994 -19.2002 18 -28.8008c11.3994 -16.1992 25.2002 -36.5996 39.5996 -52.7998
c14.4004 -16.2002 29.4004 -29.3994 41.4004 -39c6.59961 -5.39941 13.2002 -10.7998 19.7998 -15l19.7998 15c12 9.60059 27 22.7998 42 39c14.4004 16.2002 27.6006 36.6006 39 52.7998c6.60059 9.60059 12.6006 19.2002 18 28.8008l-12 -32.4004
c-7.7998 -19.2002 -19.7998 -43.7998 -34.7998 -66c-16.2002 -23.4004 -34.7998 -42.5996 -49.2002 -56.4004l3.60059 3c11.3994 7.80078 21.5996 16.2002 31.7998 25.2002c19.7998 18.6006 39 39 56.3994 60c17.4004 21.6006 33.6006 44.4004 47.4004 67.7998
c7.2002 12 13.7998 24 19.7998 36c3 6.60059 6 12.6006 8.40039 19.2002l4.7998 10.7998l-2.40039 2.40039l-0.599609 0.599609l-0.599609 0.600586l-1.2002 1.2002l-1.2002 1.7998l-1.2002 1.2002l-4.2002 4.7998c-3 4.2002 -5.39941 6.59961 -7.7998 10.7998
l-7.7998 10.7998c-9.59961 14.4004 -18 29.4004 -27 44.4004c-15.5996 30.5996 -28.7998 62.3994 -39.5996 95.3994c-4.80078 16.2002 -9.60059 32.4004 -13.8008 49.2002l-5.39941 25.2002l-4.2002 25.2002c-5.40039 33.5996 -7.7998 67.2002 -9.59961 101.399
l3.59961 -25.1992l4.7998 -25.2002l4.7998 -24.6006l6 -24.5996c7.80078 -33 18 -64.7998 30.6006 -95.4004c12 -31.1992 26.3994 -61.1992 43.2002 -90c9 -13.7998 17.3994 -28.1992 27.5996 -40.7998l7.2002 -10.2002l7.7998 -9l4.2002 -4.7998l0.599609 -1.2002
l0.600586 -0.599609h0.599609l0.599609 -0.599609l1.2002 -1.2002l9 -8.40039l6.60059 -6l-3 -9zM608.8 372.6l8.40039 33c4.2002 -10.7998 7.7998 -22.7998 10.7998 -36c4.7998 -22.1992 8.40039 -52.7998 1.7998 -84.5996c-6.59961 -33 -21 -60 -33.5996 -79.7998
c-7.2002 -11.4004 -15 -22.2002 -24 -31.2002l4.2002 33c-6.60059 -7.7998 -13.8008 -16.7998 -22.2002 -25.7998c-14.4004 -16.2002 -36 -36.6006 -63 -58.2002c33.5996 37.7998 58.7998 73.2002 75.5996 99.5996c10.2002 15.6006 18.6006 30 25.2002 43.8008
l-4.7998 -40.2002c9 15 15 30.5996 19.2002 42l4.7998 19.2002l2.39941 19.7998c0.600586 12 1.2002 27.5996 -1.7998 44.3994l-10.7998 -39.5996c-1.2002 15 -3.59961 30.5996 -7.2002 48c-6.59961 29.4004 -15.5996 69.5996 -34.2002 113.4
c17.4004 -27 30 -52.2002 37.8008 -70.8008c4.19922 -10.7998 8.39941 -21 11.3994 -30zM92.7998 226.2l-4.7998 40.2002c6.59961 -13.8008 15 -28.2002 25.2002 -43.8008c16.7998 -26.3994 42 -61.7998 76.2002 -99.5996c-28.2002 21.5996 -48.6006 42 -63 58.2002
c-8.40039 9 -15.6006 18 -22.2002 25.7998l4.2002 -33c-9 9 -16.8008 19.7998 -24.6006 31.2002c-13.7998 19.7998 -27 46.7998 -33.5996 79.7998c-6.60059 31.7998 -3 62.4004 1.7998 84.5996c3 13.2002 6.59961 25.2002 10.7998 36l9 -33l10.7998 30
c7.80078 18.6006 19.2002 43.8008 37.8008 70.8008c-18.6006 -43.8008 -28.8008 -84 -34.2002 -113.4c-3 -17.4004 -5.40039 -33 -6.60059 -48l-11.3994 39.5996c-3 -16.7998 -3.60059 -32.3994 -1.7998 -44.3994c0.599609 -7.2002 1.19922 -13.7998 2.39941 -19.7998
l4.7998 -19.2002c4.2002 -11.4004 9.60059 -27 19.2002 -42zM304.6 295.2l-18 -78.6006c-6.59961 11.4004 -28.7998 51.6006 -38.3994 105c5.39941 16.2002 10.7998 33.6006 15.5996 51.6006c9 30.5996 18 69 24.6006 106.8c7.19922 43.2002 10.7998 75.5996 12.5996 99
l2.40039 34.2002c0.599609 -10.2002 1.19922 -22.7998 0.599609 -37.7998c-0.599609 -25.8008 -3.59961 -64.2002 -12.5996 -118.801c-6.60059 -37.7998 -13.8008 -70.7998 -20.4004 -95.3994c-3.59961 -14.4004 -7.2002 -27.6006 -10.7998 -39.6006l4.2002 -16.7998
c5.39941 15 10.7998 32.4004 16.1992 51.6006c9 33 19.8008 78 27 132.6c5.40039 43.7998 9 103.2 10.8008 153c1.19922 28.7998 1.7998 57.5996 1.7998 87c1.2002 -17.4004 1.7998 -37.7998 2.39941 -60.5996c0.600586 -39 0 -96 -6.59961 -168.601
c-5.40039 -60 -16.2002 -111.6 -26.4004 -150c-6 -22.2002 -12.5996 -42.5996 -19.1992 -61.2002l6.59961 -16.7998c7.7998 25.7998 18 56.4004 27.5996 93c9 38.4004 21 96 25.2002 155.4c4.2002 53.3994 6.60059 111.6 8.40039 157.2l1.7998 76.7998
c0 -24.6006 0.599609 -50.4004 1.7998 -76.7998c1.7998 -45.6006 4.2002 -103.801 8.40039 -157.2c4.2002 -51 12.5996 -103.2 21.5996 -141.601c11.4004 -43.1992 22.7998 -77.3994 31.7998 -106.199l6.60059 16.1992c-6.60059 18.6006 -13.2002 39 -19.2002 61.2002
c-10.2002 38.4004 -22.2002 90 -27 150c-6.59961 72.6006 -7.2002 129.601 -6.59961 168.601c0.599609 22.7998 1.19922 43.1992 2.39941 60.5996c0 -28.2002 0.600586 -56.4004 1.7998 -84.5996c1.80078 -47.4004 4.2002 -107.4 10.8008 -150
c7.19922 -55.2002 18 -102 27 -135.601c5.39941 -19.7998 10.7998 -37.7998 16.1992 -54l4.2002 16.7998c-3.59961 12 -7.2002 25.2002 -10.7998 39.6006c-6.59961 24.5996 -13.7998 57.5996 -20.4004 95.3994c-9 54.6006 -12 93 -12.5996 118.801
c-0.599609 15 0 27.5996 0.599609 37.7998l2.40039 -34.2002c1.7998 -23.4004 5.40039 -55.7998 12.5996 -99c6.60059 -37.7998 15.6006 -76.2002 24.6006 -106.8c4.7998 -18 10.2002 -35.4004 15.5996 -51.6006c-9.59961 -55.1992 -32.3994 -94.7998 -38.3994 -105.6
l-18 79.2002l9 -93.6006c-4.2002 -6.59961 -9 -11.3994 -13.2002 -18l-12 66.6006l1.2002 -79.2002c-4.80078 -5.40039 -9.60059 -9 -13.8008 -13.2002l-6.59961 63.6006l-6.59961 -63.6006c-4.2002 3.60059 -9 8.40039 -13.8008 13.7998l1.2002 78.6006l-12 -66
c-4.2002 5.39941 -9 11.3994 -13.2002 18z" />
  </g>

</svg>
