<?xml version="1.0" standalone="no"?>
<!DOCTYPE svg PUBLIC "-//W3C//DTD SVG 1.1//EN" "http://www.w3.org/Graphics/SVG/1.1/DTD/svg11.dtd" >
<svg xmlns="http://www.w3.org/2000/svg" xmlns:xlink="http://www.w3.org/1999/xlink" version="1.1" viewBox="-10 0 1056 1000">
  <g transform="matrix(1 0 0 -1 0 800)">
   <path fill="currentColor"
d="M431.8 462c-12.5996 12.5996 -21.5996 26.4004 -28.2002 41.4004c-6.59961 16.7998 -10.1992 33.5996 -10.1992 51c0 17.3994 3.59961 34.1992 10.1992 51c6.60059 15 15.6006 28.7998 28.2002 41.3994c12.6006 12.6006 26.4004 21.6006 41.4004 28.2002
c16.2002 7.2002 33.5996 10.2002 51 10.2002c17.3994 0 34.7998 -3 51 -10.2002c15 -6.59961 28.7998 -15.5996 41.3994 -28.2002c12.6006 -12.5996 21.6006 -26.3994 28.2002 -41.3994c6.60059 -16.8008 10.2002 -33.6006 10.2002 -51
c0 -17.4004 -3.59961 -34.2002 -10.2002 -51c-6.59961 -15 -15.5996 -28.8008 -28.2002 -41.4004c-12.5996 -12.5996 -26.3994 -21.5996 -41.3994 -28.2002c-16.7998 -6.59961 -33.6006 -10.2002 -51 -10.2002c-17.4004 0 -34.2002 3.60059 -51 10.2002
c-15 6.60059 -28.7998 15.6006 -41.4004 28.2002zM632.8 529.2v-1.7998c-3 -7.2002 -6 -14.4004 -10.2002 -21.6006c-4.19922 -6.59961 -9.59961 -12.5996 -15 -19.2002c-6.59961 -5.39941 -12.5996 -10.7998 -19.1992 -15
c-7.80078 -4.7998 -15.6006 -8.39941 -22.2002 -10.1992l-3 -1.2002h-1.2002l-1.7998 -0.600586c-0.600586 -0.599609 -1.7998 -0.599609 -3 -0.599609c-0.600586 -0.599609 -1.7998 -0.599609 -3 -0.599609c-0.600586 -0.600586 -1.2002 -0.600586 -1.7998 -0.600586
h-1.2002c-0.600586 -0.599609 -1.7998 -0.599609 -3 -0.599609c-1.7998 0 -2.40039 0 -3 -0.600586h-1.7998h-1.80078h-3h-3h-3h-1.7998h-1.2002l-6 1.2002h-1.7998h-0.599609c-0.600586 0 -0.600586 0 -0.600586 0.600586c-1.7998 0 -2.39941 0 -3 0.599609h-1.19922
h-0.600586c-0.599609 0 -0.599609 0 -1.2002 0.599609h-1.7998l-0.599609 0.600586h-0.600586c-1.7998 0 -1.19922 0.599609 -3 0.599609l-0.599609 0.600586h-0.599609c-0.600586 0.599609 -1.2002 0.599609 -1.80078 0.599609c0 0 -0.599609 0 -1.19922 0.599609
h-0.600586l-0.599609 0.600586l-3 1.2002h-0.600586l-0.599609 0.599609c-0.599609 0 -1.2002 0.599609 -1.7998 0.599609c0 0 -0.600586 0 -1.2002 0.600586h-0.599609l-0.600586 0.599609c-13.7998 7.2002 -25.2002 17.4004 -34.2002 30
c-4.19922 6.60059 -7.7998 12.6006 -10.1992 19.2002l-0.600586 1.2002s0 0.599609 -0.599609 1.2002c0 0.599609 -0.600586 0.599609 -0.600586 2.39941c0 0 0 0.600586 -0.599609 1.2002v0.599609c0 0.600586 0 0.600586 -0.599609 1.2002
c0 0.600586 0 1.2002 -0.600586 1.2002c0 1.2002 0 2.40039 -0.599609 3c0 0.599609 0 1.7998 -0.600586 2.40039c0 1.19922 0 1.7998 -0.599609 2.39941c0 1.2002 0 1.7998 -0.599609 2.40039v0.599609v0.600586v1.7998c-1.2002 6 -1.2002 12.5996 -0.600586 19.2002
c0.600586 6.59961 2.40039 12.5996 4.2002 18c1.7998 5.39941 3.59961 10.1992 6.59961 14.3994c1.80078 4.2002 4.80078 8.40039 7.80078 12l2.39941 2.40039l1.7998 2.39941c1.2002 0.600586 1.80078 1.2002 2.40039 2.40039l1.2002 0.599609
c0.599609 0.600586 1.2002 1.2002 1.2002 1.2002l1.19922 1.2002c0.600586 0.599609 1.2002 1.2002 1.2002 1.2002c1.7998 0.599609 1.2002 1.2002 3 1.7998l2.40039 1.7998l2.39941 1.7998c0.600586 0.600586 0.600586 0.600586 1.2002 0.600586
c-3.59961 -1.2002 -7.2002 -2.40039 -10.2002 -4.2002c-6 -3 -10.7998 -6.59961 -15 -10.2002c-4.7998 -4.2002 -9 -9 -13.1992 -13.7998c-4.2002 -5.40039 -7.2002 -11.4004 -9 -16.7998c-0.600586 -0.600586 -0.600586 -0.600586 -0.600586 -1.2002l-0.599609 -1.2002
l-0.600586 -0.599609v-1.2002c-0.599609 -1.7998 -1.19922 -2.40039 -1.19922 -2.40039v-1.19922l-0.600586 -1.2002c0 -0.600586 0 -1.7998 -0.599609 -2.40039v-0.599609v-0.600586l-0.600586 -1.19922c0 -0.600586 0 -1.80078 -0.599609 -2.40039v-1.7998
l-0.599609 -1.2002v-1.2002v-2.39941c-0.600586 -0.600586 -0.600586 -1.80078 -0.600586 -2.40039v-2.40039v-2.39941v-1.2002v-0.599609v-0.600586v-2.39941v-1.2002v-1.2002v-4.7998c0.600586 -0.600586 0.600586 -1.2002 0.600586 -2.40039v-1.2002l0.599609 -1.19922
v-1.80078c0.599609 -0.599609 0.599609 -1.7998 0.599609 -2.39941c0 -1.7998 0.600586 -1.7998 0.600586 -2.40039c0 -0.599609 0.599609 -1.7998 0.599609 -2.39941c1.7998 -5.40039 3.60059 -10.8008 6.60059 -17.4004
c2.39941 -5.40039 5.39941 -10.7998 9.59961 -15.5996c0 -0.600586 0.599609 -1.2002 1.2002 -1.80078l1.2002 -1.7998c0.599609 -0.599609 1.19922 -1.2002 1.19922 -1.7998l1.80078 -1.7998c1.7998 -1.7998 3.59961 -4.2002 6 -6c1.7998 -2.40039 4.19922 -4.2002 6 -6
l6.59961 -4.7998c9 -6.60059 18.5996 -10.2002 27.5996 -14.4004h0.600586l0.599609 -0.599609h1.7998c0.600586 -0.600586 1.2002 -0.600586 1.80078 -0.600586l0.599609 -0.599609h1.2002c0.599609 0 0.599609 -0.600586 1.2002 -0.600586h1.7998
c1.7998 -0.599609 2.39941 -0.599609 3 -1.19922l12.5996 -1.80078h0.600586c60.5996 -3 106.199 46.8008 111 103.2v-1.2002v-1.19922v-0.600586c-0.600586 -0.599609 -0.600586 -1.2002 -0.600586 -3l-0.599609 -1.2002v-1.19922
c-0.600586 -1.80078 -0.600586 -2.40039 -1.2002 -3v-1.80078zM526 603c-27 0 -49.2002 -21.5996 -49.2002 -48.5996s22.2002 -48.6006 49.2002 -48.6006s48.5996 21.6006 48.5996 48.6006s-21.5996 48.5996 -48.5996 48.5996zM523 667.2c-60.5996 0 -106.2 -45 -111 -103.2
v1.7998v0.600586v0.599609l0.599609 3l0.600586 1.2002v1.7998c0.599609 0.599609 0.599609 1.2002 1.2002 3v1.2002l0.599609 1.2002l0.599609 1.7998v1.2002c3 7.7998 6 15 10.2002 21.5996c4.2002 7.2002 9.60059 12.5996 15 19.2002
c6.60059 6.59961 12.6006 10.7998 19.2002 15c7.7998 4.2002 15 7.7998 22.2002 10.7998c1.7998 0 1.2002 0.599609 3 0.599609c0.599609 0 0.599609 0 1.2002 0.600586h1.7998l3 1.2002c1.2002 0 2.39941 0 3 0.599609h1.7998l1.2002 0.599609h3l3 0.600586h1.7998h1.7998
h3h3h3h1.7998h1.2002c2.40039 0 4.2002 -0.600586 6 -0.600586c0.600586 0 1.2002 -0.599609 1.7998 -0.599609h0.600586h0.599609c0.600586 -0.599609 1.7998 -0.599609 3 -0.599609h1.2002c0 -0.600586 0 -0.600586 0.599609 -0.600586h1.2002
c0.600586 -0.599609 1.2002 -0.599609 1.7998 -0.599609h0.600586l0.599609 -0.600586c1.7998 0 1.2002 -0.599609 3 -0.599609l0.600586 -0.599609h0.599609c0.599609 0 1.2002 -0.600586 1.7998 -0.600586c0 0 0.600586 0 1.2002 -0.599609h0.599609l0.600586 -0.600586
c1.7998 0 1.2002 -0.599609 3 -0.599609l0.599609 -0.599609h0.600586l1.7998 -1.2002s0.599609 0 1.2002 -0.600586h0.599609l0.599609 -0.599609c14.4004 -7.7998 25.8008 -17.4004 34.2002 -30c4.7998 -6.59961 8.40039 -13.2002 10.2002 -18.5996
c0 -0.600586 0 -0.600586 0.599609 -1.2002c0 -0.600586 0 -1.2002 0.600586 -1.2002c0 -1.7998 0.599609 -1.7998 0.599609 -2.40039c0 -0.599609 0 -1.19922 0.600586 -1.19922v-1.80078s0.599609 -0.599609 1.19922 -2.39941c0 -1.2002 0 -1.7998 0.600586 -2.40039
c0 -1.2002 0 -1.7998 0.599609 -2.39941v-2.40039l0.600586 -1.2002v-0.599609v-1.2002c1.19922 -6 1.19922 -12.5996 0.599609 -19.2002c-1.7998 -6.59961 -2.40039 -12.5996 -4.2002 -18c-1.7998 -4.2002 -3.59961 -9 -6.59961 -14.3994
c-2.40039 -4.2002 -4.7998 -8.40039 -7.7998 -12l-2.40039 -2.40039l-1.7998 -2.40039c-1.7998 -0.599609 -1.7998 -1.7998 -2.40039 -2.39941l-1.2002 -1.2002c-0.599609 0 -0.599609 0 -1.19922 -0.599609l-1.2002 -1.2002l-1.2002 -1.2002
c-1.7998 -0.599609 -1.2002 -1.2002 -3 -1.7998l-2.40039 -1.7998c-1.7998 -0.600586 -1.19922 -1.2002 -3 -1.80078c0 -0.599609 0 -0.599609 -0.599609 -0.599609c3 1.7998 6.59961 2.40039 9.59961 4.2002c5.40039 2.39941 10.2002 6 15.6006 10.2002
c4.7998 4.19922 9 9 13.2002 13.7998c3.59961 5.39941 6.59961 11.3994 9 16.7998c0 0 0 0.599609 0.599609 1.2002l0.599609 0.599609v1.2002c0.600586 0.599609 0.600586 0.599609 0.600586 1.2002c0.599609 0.599609 0.599609 1.2002 0.599609 2.39941l0.600586 1.2002
l0.599609 1.2002c0 0.599609 0 1.7998 0.599609 2.40039v0.599609v0.599609l0.600586 0.600586v2.39941c0.599609 0.600586 0.599609 1.80078 0.599609 2.40039l0.600586 1.2002v1.2002v2.39941c0.599609 0.600586 0.599609 1.2002 0.599609 2.40039v2.39941v2.40039v1.2002
v0.599609v0.600586v2.39941v1.2002v1.2002c0 1.7998 0 3.59961 -0.599609 4.7998v2.40039v0.599609l-0.600586 1.2002v2.39941c-0.599609 0.600586 -0.599609 1.80078 -0.599609 2.40039c-0.600586 0.599609 -0.600586 1.2002 -0.600586 2.40039
c0 0.599609 -0.599609 0.599609 -0.599609 2.39941l-1.2002 3.60059l-4.7998 11.3994c-2.40039 6.60059 -5.40039 10.7998 -9.59961 15.6006c0 0.599609 -0.600586 1.19922 -1.2002 1.7998l-1.2002 1.7998c-0.599609 0.599609 -1.2002 1.2002 -1.2002 1.7998l-1.7998 1.7998
c-1.2002 1.80078 -3 3.60059 -6 6.60059l-6 5.39941l-6.59961 5.40039c-9 6 -18.6006 10.7998 -27.6006 13.7998h-0.599609c0 0.600586 0 0.600586 -0.600586 0.600586c-0.599609 0 -1.19922 0.599609 -1.7998 0.599609c-0.599609 0 -1.2002 0 -1.7998 0.599609h-0.599609
h-1.2002c-0.600586 0.600586 -0.600586 0.600586 -1.2002 0.600586s-1.2002 0.599609 -1.7998 0.599609c-1.7998 0 -2.40039 0.600586 -3 0.600586l-8.40039 1.19922c-1.7998 0 -3 0 -4.7998 0.600586zM905.8 387.6l53.4004 -80.3994l-76.2002 -12h-28.2002
l21.6006 -15.6006c-16.8008 -37.1992 -39 -70.7998 -67.2002 -101.399c-18.6006 -20.4004 -38.4004 -38.4004 -59.4004 -53.4004l-7.7998 42l-11.4004 -69l-12.5996 -75l-41.4004 34.2002l-64.7998 54l22.2002 -42.5996c-11.4004 -4.2002 -21.5996 -6 -31.7998 -8.40039
c-28.2002 -5.40039 -55.2002 -8.40039 -81 -8.40039s-52.7998 3 -81 8.40039c-9 1.7998 -16.7998 4.2002 -25.7998 6.59961l22.7998 44.4004l-45 -37.2002h-0.600586l-61.1992 -51l-24 144l-8.40039 -45.5996l-4.7998 3.59961l-16.2002 12l-15.5996 12.6006
l-14.4004 13.7998l-13.7998 14.3994c-27.6006 30 -49.7998 63 -66 99.6006l24 18h-31.7998h-75.6006l52.7998 90.5996c-3 27 -4.19922 54.6006 0 81c3 -25.7998 7.80078 -49.7998 15 -73.7998l12 -36l127.2 59.4004c-4.2002 7.7998 -7.7998 15.5996 -10.7998 23.3994
c-12 33 -18 66.6006 -16.2002 100.8c1.7998 -34.7998 9.60059 -67.1992 23.4004 -97.7998c3 -7.7998 7.2002 -15.5996 11.3994 -22.7998l11.4004 5.40039l-10.7998 -7.2002c12.5996 -21.6006 27.5996 -40.7998 45 -57c2.39941 -3 5.39941 -5.40039 8.39941 -7.7998l30 36
l-9.59961 9c-19.7998 20.3994 -34.7998 43.7998 -45 69.5996s-15.5996 53.4004 -15 80.4004c1.7998 -55.2002 24.5996 -108 63.5996 -146.4l9 -9l1.80078 2.40039l42 50.3994l0.599609 -0.599609l-39 -52.2002l-1.7998 -3c16.7998 -13.7998 34.7998 -24.5996 54.5996 -33
c24.6006 -10.2002 51 -15 76.7998 -15.5996l0.600586 3l1.7998 67.7998h0.599609l1.80078 -67.7998v-3c26.3994 0.599609 52.7998 5.39941 77.3994 15.5996c19.7998 7.7998 36.6006 18.5996 51.6006 31.2002l-3.60059 4.7998l-39 52.2002l0.600586 0.599609l42 -50.3994
l3.59961 -4.2002c4.7998 3 9 6.59961 12 10.7998c39 38.4004 62.4004 91.2002 63 146.4c0.599609 -27 -4.2002 -54.6006 -14.4004 -80.4004c-10.1992 -25.7998 -25.1992 -49.2002 -45 -69.5996l-12.5996 -11.4004l30 -36c4.2002 3 7.2002 6 11.4004 10.2002
c16.7998 16.2002 31.7998 35.3994 43.7998 55.2002l-13.2002 9l14.4004 -6.60059l12 24c13.7998 31.2002 21.5996 63.6006 22.7998 97.7998c1.7998 -34.7998 -3.60059 -68.3994 -16.2002 -100.8c-3 -9 -6.59961 -15.5996 -10.7998 -24.5996l123.6 -57.6006
c4.2002 11.4004 7.7998 23.4004 12 35.4004c7.2002 24 12 48 15 73.7998c3 -26.3994 3 -52.7998 0 -79.2002zM604.6 352.2c-25.1992 -10.7998 -51.5996 -16.2002 -79.1992 -16.2002l1.19922 -47.4004c57.6006 0.600586 114 21.6006 159 58.2002l-28.1992 37.2002
c-15.6006 -13.2002 -33 -24 -52.8008 -31.7998zM386.2 386.4l-28.2002 -37.8008c45.5996 -38.3994 102.6 -59.3994 162 -60l0.599609 47.4004c-28.1992 0 -54 5.40039 -78.5996 16.2002c-20.4004 8.39941 -39 19.7998 -55.7998 34.2002zM863.8 324
c0.600586 1.7998 1.7998 4.7998 3.60059 7.7998l-114 79.7998c-11.4004 -21.5996 -25.2002 -41.3994 -42.6006 -58.7998l-12 -11.3994c12.6006 -16.2002 25.7998 -30.6006 37.7998 -46.8008c13.8008 -17.3994 25.8008 -34.7998 37.8008 -53.3994l-1.2002 -0.600586
c-15 15.6006 -29.4004 31.8008 -43.2002 48.6006c-13.7998 15 -24.5996 31.2002 -36.5996 47.3994c-21 -17.3994 -43.8008 -31.7998 -68.4004 -42c-31.2002 -13.1992 -64.2002 -20.3994 -98.4004 -21c0.600586 -21.5996 1.80078 -43.1992 1.2002 -64.7998
c-0.599609 -23.3994 -1.7998 -44.3994 -4.2002 -67.7998h-0.599609c-3 23.4004 -3.59961 44.4004 -4.2002 67.7998c-0.599609 21.6006 0.600586 43.2002 0.600586 64.7998c-34.2002 0.600586 -66.6006 7.80078 -98.4004 21
c-25.7998 10.8008 -49.7998 25.8008 -70.7998 44.4004c-12.6006 -16.7998 -24.6006 -33.5996 -38.4004 -49.7998c-13.7998 -16.7998 -28.2002 -33 -43.2002 -48.6006l-0.599609 0.600586c11.4004 18.5996 23.4004 36 37.2002 53.3994
c12.5996 16.8008 25.7998 33 39.5996 49.2002l-9 9c-17.3994 17.4004 -31.7998 37.7998 -43.2002 60.6006l-117.6 -82.2002l3.59961 -7.2002c21.6006 -43.2002 50.4004 -81.5996 85.8008 -114.6l13.7998 -12l13.7998 -10.8008l14.4004 -10.7998l14.3994 -9.59961
c13.7998 -9 27.6006 -16.2002 42 -22.7998l62.4004 133.8l-40.2002 -143.4c22.2002 -9 44.4004 -15 66.5996 -19.2002c23.4004 -4.19922 46.2002 -6.59961 69.6006 -6c23.3994 -0.599609 46.2002 1.80078 69.5996 6c23.4004 4.2002 45.6006 10.8008 67.7998 19.8008
l4.2002 1.7998l-39.5996 141l61.7998 -131.4c12 6.60059 24.5996 12.6006 36.5996 20.4004l14.4004 9.59961l14.4004 10.2002l13.7998 11.4004l13.7998 12c35.4004 33 64.2002 71.3994 85.7998 114.6z" />
  </g>

</svg>
