<?xml version="1.0" standalone="no"?>
<!DOCTYPE svg PUBLIC "-//W3C//DTD SVG 1.1//EN" "http://www.w3.org/Graphics/SVG/1.1/DTD/svg11.dtd" >
<svg xmlns="http://www.w3.org/2000/svg" xmlns:xlink="http://www.w3.org/1999/xlink" version="1.1" viewBox="-10 0 908 1000">
  <g transform="matrix(1 0 0 -1 0 800)">
   <path fill="currentColor"
d="M655.6 186.6l-41.3994 -111.6l100.8 124.8l78.5996 124.8zM655.6 587.4l-41.3994 111.6l100.8 -124.8l78.5996 -124.8zM814.6 387l-334.199 -334.2l74.3994 180h-36.5996l-149.4 -92.3994l79.2002 92.3994h-270l-91.7998 -24l-28.7998 -8.39941l103.8 78h325.8h46.7998
h69l108.601 108.6l-108.601 108.6h-115.8v0h-325.8l-103.8 110.4l120.6 -64.7998h270l-79.2002 93l149.4 -93h36.5996l-74.3994 180zM265 387l-62.4004 62.4004h169.801l61.7998 -62.4004l-62.4004 -62.4004h-169.2zM584.8 387l-61.7998 61.7998h55.2002l61.7998 -61.7998
l-62.4004 -62.4004h-55.1992zM419.8 449.4c18.6006 -0.600586 37.2002 -0.600586 55.2002 -0.600586l62.4004 -61.7998l-62.4004 -62.4004h-55.7998l62.3994 62.4004z" />
  </g>

</svg>
