<svg xmlns="http://www.w3.org/2000/svg" viewBox="100 -909 1065 1044">
  <path d="M 1149 -233 L 1018 -228 L 917 -186 L 1050 -389 L 1050 -454 L 1021 -483 L 946 -381 L 976 -467 L 1000 -567 L 957 -720 L 842 -702 L 741 -416 L 733 -424 L 777 -729 L 758 -759 L 755 -855 L 684 -909 L 615 -886 L 615 -755 L 586 -677 L 579 -569 L 520 -763 L 488 -798 L 487 -835 L 423 -885 L 406 -885 L 329 -720 L 440 -397 L 432 -392 L 349 -542 L 298 -560 L 289 -484 L 251 -484 L 236 -405 L 329 -194 L 195 -290 L 260 -163 L 184 -174 L 121 -227 L 107 -231 L 222 -30 L 460 79 L 324 -118 L 477 -48 L 615 -430 L 753 -48 L 946 -118 L 777 79 L 1049 -36 L 1097 -89 L 984 -50 L 1116 -150 L 1149 -233 Z M 1114 -778 L 1011 -647 L 1035 -726 L 1062 -799 L 1133 -856 L 1114 -778 Z M 615 -183 L 701 51 L 615 135 L 529 51 L 615 -183 Z M 1047 -296 L 1101 -350 L 1165 -393 L 1133 -332 L 1056 -290 L 1034 -283 L 1047 -296 Z M 842 -729 L 890 -804 L 921 -899 L 866 -847 L 850 -780 L 842 -729 Z M 167 -390 L 203 -325 L 139 -356 L 128 -368 L 100 -416 L 151 -401 L 167 -390 Z M 162 -687 L 168 -780 L 187 -767 L 324 -494 L 294 -458 L 162 -687 Z" fill="#000000"/>
</svg>