<svg xmlns="http://www.w3.org/2000/svg" viewBox="100 -949 1177 1068">
  <path d="M 519 84 L 683 119 L 870 27 L 576 31 L 519 84 Z M 867 -378 L 1189 -529 L 1277 -704 L 867 -378 Z M 952 27 L 890 -22 L 947 -76 L 1196 -78 L 952 27 Z M 408 -472 L 325 -689 L 353 -383 L 338 -358 L 349 9 L 520 -310 L 699 -949 L 408 -472 Z M 397 -931 L 422 -592 L 505 -878 L 460 -949 L 397 -931 Z M 1062 -678 L 1138 -797 L 1225 -845 L 1183 -768 L 1062 -678 Z M 296 60 L 228 -871 L 206 -478 L 120 -688 L 100 -497 L 173 -336 L 153 -252 L 296 60 Z M 1218 -370 L 731 -170 L 830 -351 L 578 -188 L 391 94 L 652 -68 L 788 -7 L 1218 -370 Z M 610 -334 L 804 -466 L 1029 -871 L 690 -575 L 610 -334 Z" fill="#000000"/>
</svg>