<?xml version="1.0" standalone="no"?>
<!DOCTYPE svg PUBLIC "-//W3C//DTD SVG 1.1//EN" "http://www.w3.org/Graphics/SVG/1.1/DTD/svg11.dtd" >
<svg xmlns="http://www.w3.org/2000/svg" xmlns:xlink="http://www.w3.org/1999/xlink" version="1.1" viewBox="-10 0 843 1000">
  <g transform="matrix(1 0 0 -1 0 800)">
   <path fill="currentColor"
d="M216.5 439.7l23.0996 -14l9.80078 -22.4004l1.39941 -18.8994l-33.5996 31.5zM670.8 53.2998c18.9004 -1.39941 14.7002 -13.2998 -10.5 -13.2998c-184.8 2.09961 -367.5 65.7998 -487.899 246.4c14.6992 -50.4004 38.5 -129.5 38.5 -129.5l-80.5 90.2998l-21 102.899
v-0.699219c-11.9004 32.1992 -19.6006 83.2998 -19.6006 83.2998l-11.2002 -33.6006l-18.1992 -80.5l-9.10059 107.801l14.7002 56l28.7002 44.0996l-16.1006 -6.2998l-31.5 -11.9004l63 61.6006h86.8008l7 -29.4004s-17.5 -30.7998 -18.2002 -60.9004
c-3.5 -192.5 212.8 -400.399 485.1 -426.3zM601.5 439.7l-23.0996 -14l-9.80078 -22.4004l-1.39941 -18.8994l32.8994 31.5zM448.2 389.3l40.5996 18.2002l39.9004 -7.7002l-4.90039 -5.59961s-23.0996 -2.10059 -30.0996 -3.5c-14 -3.5 -18.2002 -6.2998 -18.2002 -6.2998
v-8.40039c0 -3.5 -1.40039 -5.59961 -2.7998 -8.40039c-2.10059 -3.5 -5.60059 -5.59961 -9.10059 -7.69922c-9.09961 -4.2002 -21.6992 -14 -22.3994 -27.3008c0 -11.8994 -2.10059 -13.2998 -2.10059 -18.8994c-0.699219 -2.10059 -1.39941 -4.2002 -2.09961 -6.2998
c-2.09961 -2.80078 -4.90039 -9.10059 -4.90039 -19.6006c0 -14 0.700195 -22.3994 3.5 -28c0.700195 -2.09961 1.40039 -4.2002 1.40039 -7c0.700195 -7 0.700195 0.700195 1.40039 -28.7002l-29.4004 -16.7998l-29.4004 16.7998
c0 29.4004 0.700195 21.7002 0.700195 28.7002c0 2.7998 0.700195 4.90039 2.10059 7c2.09961 5.60059 3.5 14 3.5 28c0 10.5 -2.80078 16.7998 -4.90039 19.6006c-1.40039 2.09961 -2.09961 4.19922 -2.09961 6.2998c-0.700195 5.59961 -2.10059 7 -2.80078 18.8994
c0 13.3008 -12.5996 23.1006 -21.6992 27.3008c-3.5 2.09961 -7 4.19922 -9.10059 7.69922c-2.09961 2.80078 -2.7998 4.90039 -2.7998 8.40039l-0.700195 8.40039s-3.5 2.7998 -17.5 6.2998c-7.7002 1.39941 -30.7998 3.5 -30.7998 3.5l-4.90039 5.59961l40.6006 7.7002
l40.5996 -18.2002l2.7998 3.5l-34.2998 26.6006l-53.8994 77.6992l21 55.3008l-1.40039 32.1992c0 1.40039 1.40039 1.40039 2.09961 1.40039l5.60059 -3.5c3.5 -2.09961 6.2998 -4.90039 7.7002 -8.40039c2.7998 -7.69922 7.69922 -21 4.89941 -31.5
c-4.2002 -14.6992 2.10059 -47.5996 2.10059 -47.5996s17.5 -10.5 28.6992 -24.5c2.80078 16.7998 7 62.2998 7 72.0996c0 14.7002 -6.2998 44.8008 -6.2998 44.8008s0 28.6992 -4.2002 41.2998c7.7002 2.7998 15.4004 -32.2002 15.4004 -32.2002l4.2002 -7.7002
s0.700195 0.700195 8.39941 29.4004c1.40039 5.59961 0.700195 46.2002 0.700195 46.2002l8.40039 16.0996l0.700195 27.2998s12.5996 -34.2998 11.8994 -35l1.40039 -21l6.2998 9.10059v52.5l0.700195 10.5s2.7998 45.5 2.7998 32.1992c0 -3.5 7 25.9004 6.2998 25.9004
l3.5 -2.7998l0.700195 -7l5.59961 -58.7998l9.10059 -16.1006s-2.7998 -23.7998 -2.7998 -48.2998c0 0 2.09961 -25.2002 3.5 -30.7998c7.69922 -28.7002 7.69922 -29.4004 7.69922 -29.4004l4.2002 7.7002s8.40039 35 16.1006 32.2002
c-4.2002 -12.6006 -4.2002 -41.2998 -4.2002 -41.2998s-7 -30.1006 -7 -44.8008c0 -9.7998 4.2002 -55.2998 7 -72.0996c11.8994 14 29.3994 24.5 29.3994 24.5s5.60059 32.9004 2.10059 47.5996c-3.5 10.5 1.39941 23.8008 4.89941 31.5
c1.40039 3.5 4.2002 6.30078 7.7002 8.40039l4.90039 3.5c0.700195 0 2.09961 0 2.09961 -1.40039l-1.39941 -32.1992l21.6992 -55.3008l-53.8994 -77.6992l-35 -26.6006zM312.4 93.2002c15.3994 -7.7002 31.5 -15.4004 47.5996 -22.4004
c-65.0996 -21 -133.7 -30.0996 -202.3 -30.7998c-25.2002 0 -30.1006 11.9004 -10.5 13.2998c58.0996 5.60059 113.399 20.2998 165.2 39.9004zM723.3 526.5l28.7002 -44.0996l14 -56l-9.09961 -107.801l-17.5 80.5l-11.2002 33.6006s-7.7002 -51.1006 -19.6006 -83.2998
v0.699219l-21.6992 -102.899l-79.8008 -90.2998s23.8008 79.0996 38.5 129.5c-39.8994 -58.8008 -85.3994 -105.7 -135.8 -141.4c-18.8994 7.7002 -38.5 17.5 -56 27.2998c110.601 82.6006 180.601 197.4 178.5 307.3c-0.700195 30.1006 -18.8994 60.9004 -18.8994 60.9004
l7 29.4004h87.5l63 -61.6006l-31.5 11.9004z" />
  </g>

</svg>
