<?xml version="1.0" standalone="no"?>
<!DOCTYPE svg PUBLIC "-//W3C//DTD SVG 1.1//EN" "http://www.w3.org/Graphics/SVG/1.1/DTD/svg11.dtd" >
<svg xmlns="http://www.w3.org/2000/svg" xmlns:xlink="http://www.w3.org/1999/xlink" version="1.1" viewBox="-10 0 1080 1000">
  <g transform="matrix(1 0 0 -1 0 800)">
   <path fill="currentColor"
d="M977.85 593.85c0 -3.5 -2.7998 -5.59961 -5.59961 -6.2998l-32.2002 -2.09961c-14.7002 -0.700195 -28.7002 -4.2002 -42 -11.2002l-28.7002 -14c-3.5 -1.40039 -7 -0.700195 -8.39941 2.09961l-18.2002 26.6006c-7.7002 12.5996 -18.2002 23.0996 -30.7998 30.7998
l-26.6006 18.2002c-2.7998 1.39941 -3.5 4.89941 -2.09961 8.39941l14 28.7002c7 13.2998 10.5 27.2998 11.2002 42l2.09961 32.2002c0.700195 2.7998 2.7998 5.59961 6.2998 5.59961l32.2002 2.10059c14.7002 1.39941 28.7002 4.89941 42 11.2002l28.7002 14.6992
c2.7998 1.40039 6.2998 0.700195 8.40039 -2.09961l17.5 -27.2998c8.39941 -11.9004 18.8994 -22.4004 30.7998 -30.7998l27.2998 -17.5c2.7998 -2.10059 3.5 -5.60059 2.09961 -8.40039l-14.6992 -28.7002c-6.30078 -13.2998 -9.80078 -27.2998 -11.2002 -42z
M502.55 131.15l41.2998 38.5l364.7 -129.5h-385.7zM649.55 352.35l32.2002 13.3008l244.3 -119l-260.399 18.1992zM777.65 488.15l49 -4.90039l117.6 -49l-182 7.7002zM614.55 349.55c-133 -141.399 -168 -242.899 -168 -242.899l-112.7 4.19922l-4.19922 112.7
s101.5 35 242.899 168c141.4 133 228.2 206.5 228.2 206.5l10.5 -9.7998l9.7998 -10.5s-73.5 -86.7998 -206.5 -228.2zM354.15 279.55l38.5 41.2998l-129.5 364.7v-385.7zM575.35 426.55l13.3008 32.2002l-119 244.3l18.1992 -260.399zM711.15 554.65l-4.90039 49l-49 117.6
l7.7002 -182z" />
  </g>

</svg>
