<?xml version="1.0" standalone="no"?>
<!DOCTYPE svg PUBLIC "-//W3C//DTD SVG 1.1//EN" "http://www.w3.org/Graphics/SVG/1.1/DTD/svg11.dtd" >
<svg xmlns="http://www.w3.org/2000/svg" xmlns:xlink="http://www.w3.org/1999/xlink" version="1.1" viewBox="-10 0 780 1000">
  <g transform="matrix(1 0 0 -1 0 800)">
   <path fill="currentColor"
d="M690.6 434.6l-0.599609 28.8008l-11.4004 29.3994l-57.5996 23.4004l-12 -4.7998l-46.2002 28.1992l-15 -6.59961l-130.2 15l-67.1992 -51l-57.6006 -4.7998c-1.2002 -0.600586 -15.5996 -14.4004 -15.5996 -14.4004l-55.2002 -37.7998l90 14.4004
s10.2002 -1.2002 8.40039 -2.40039l-37.8008 -37.2002l-47.3994 -66l2.39941 -3.59961l84.6006 63s33 16.7998 32.3994 15.5996c-6.59961 -9.59961 -20.3994 -30.5996 -21 -31.7998c-3 -6 -15.5996 -25.7998 -12.5996 -28.7998c2.40039 -3 66.5996 10.7998 66.5996 10.7998
l57.6006 -40.7998l-28.7998 166.2s-4.2002 7.7998 -1.2002 11.3994c2.39941 3 8.39941 -0.599609 8.39941 -0.599609l46.8008 -73.7998l37.1992 57l15.6006 -62.4004l27.5996 24.5996s18.6006 21.6006 66 22.2002c17.4004 0.600586 30 -4.7998 48.6006 -16.7998
c5.39941 -3 25.1992 -26.4004 25.1992 -26.4004zM510.6 600.8c-15.5996 13.7998 -32.3994 27 -51 37.7998c-67.1992 38.4004 -142.199 51 -213 40.2002c90.6006 36.6006 196.801 32.4004 288 -20.3994c38.4004 -22.2002 70.8008 -51 96 -84
c-15.5996 6.59961 -34.1992 13.1992 -55.1992 18c-4.2002 1.19922 -39.6006 36.5996 -69 48.5996c25.1992 -20.4004 48.5996 -44.4004 45 -43.7998c-13.2002 2.39941 -27 3.59961 -40.8008 3.59961zM154.2 618.2l-24.6006 -14.4004l-19.7998 -24.5996l8.40039 -61.7998
l10.7998 -7.80078l-2.40039 -54l13.8008 -9.59961l52.1992 -120.6l77.4004 -32.4004l33 -47.4004c1.2002 -1.19922 20.4004 -6.59961 20.4004 -6.59961l60 -28.7998l-57 70.7998s-4.2002 9 -1.80078 8.40039l51 -14.4004l80.4004 -7.7998l1.7998 4.2002l-96.5996 42
s-31.2002 19.7998 -29.4004 19.7998c11.4004 -0.600586 36.6006 -2.40039 37.2002 -2.40039c7.2002 0 30.5996 -0.599609 31.7998 3c1.7998 4.2002 -42.5996 52.7998 -42.5996 52.7998l6.59961 70.2002l-129.6 -108s-4.7998 -7.7998 -9.60059 -6.59961
c-3.59961 0 -3.59961 7.2002 -3.59961 7.2002l40.7998 77.3994l-68.3994 4.2002l46.7998 44.4004l-35.4004 12s-27.5996 5.39941 -52.2002 45.5996c-9 15 -10.7998 28.2002 -9.59961 51c0 6 10.2002 34.2002 10.2002 34.2002zM100.2 379.4
c-4.2002 -20.4004 -6.60059 -41.4004 -6.60059 -63c0 -77.4004 26.4004 -148.2 70.8008 -204.601c-76.8008 60.6006 -126 154.2 -126 259.8c0 44.4004 9 86.4004 24.5996 125.4c2.40039 -17.4004 6 -36.5996 12 -57c1.2002 -4.2002 -12 -52.2002 -7.2002 -84
c5.40039 31.7998 13.7998 64.2002 15 60.5996c4.7998 -12.5996 10.7998 -24.5996 17.4004 -37.1992zM263.4 62l25.1992 -13.7998l31.2002 -4.7998l48.6006 38.3994l1.7998 13.2002l48 25.2002l1.2002 16.2002l78.5996 105.6l-10.7998 83.4004l24.5996 52.1992
c0 1.2002 -4.7998 21 -4.7998 21l-4.7998 66.6006l-33 -85.2002s-6 -7.7998 -6 -6l-13.2002 51.5996l-33.5996 73.8008l-4.2002 -0.600586l12 -104.399s-1.7998 -37.2002 -2.40039 -35.4004c-5.39941 9.59961 -16.7998 32.4004 -17.3994 33
c-3 6 -14.4004 27 -18.6006 26.4004c-3.59961 -1.2002 -24 -63.6006 -24 -63.6006l-64.2002 -29.3994l158.4 -58.2002s9 -0.600586 10.7998 -4.7998c1.2002 -3.60059 -4.7998 -6.60059 -4.7998 -6.60059l-87.5996 -3.59961l31.1992 -61.2002l-61.7998 18l7.2002 -36.5996
s9 -27 -13.2002 -67.8008c-8.39941 -15 -19.7998 -23.3994 -39.5996 -34.1992c-5.40039 -2.40039 -34.7998 -8.40039 -34.7998 -8.40039zM497.4 135.2c19.1992 6.59961 39 14.3994 57.5996 25.2002c67.2002 39 115.2 97.1992 141.6 163.8
c-13.7998 -96.6006 -70.1992 -186.601 -162 -239.4c-38.3994 -22.2002 -79.1992 -35.3994 -120.6 -40.7998c13.7998 10.7998 28.7998 23.4004 43.2002 39c3 3 51.5996 15.5996 76.2002 35.4004c-30 -11.4004 -62.4004 -19.8008 -60 -16.8008
c8.39941 10.2002 16.1992 21 24 33.6006zM148.2 201.2l12 -6.60059l18.5996 -9l3 3l-9.59961 19.2002l-3.60059 16.2002l-11.3994 16.7998l-4.7998 -5.39941zM539.4 194.6l4.19922 9.60059l2.40039 27.5996l28.7998 19.7998l12 1.2002l-15 -33.5996zM349.8 641l6 -3.59961
l15 -14.4004l22.7998 4.7998l13.2002 0.600586l-34.2002 -23.4004h-11.3994l-5.40039 7.2002s-6 26.3994 -6 28.7998z" />
  </g>

</svg>
