<svg xmlns="http://www.w3.org/2000/svg" viewBox="107 -950 1087 1120">
  <path d="M 1194 -482 C 1152 -526 1194 -482 1161 -521 C 1071 -554 1121 -546 1100 -555 C 961 -517 992 -553 961 -517 L 915 -476 L 889 -580 L 827 -485 L 749 -608 C 735 -609 749 -608 739 -614 C 737 -590 730 -603 737 -590 L 785 -313 L 689 -381 C 578 -363 689 -381 582 -358 C 599 -411 573 -368 594 -401 C 634 -464 600 -413 623 -448 C 580 -438 635 -466 580 -438 L 439 -333 L 435 -339 L 514 -449 L 577 -511 C 563 -515 580 -513 563 -515 L 413 -491 L 505 -554 C 531 -578 505 -554 529 -577 L 627 -586 L 739 -671 L 956 -646 L 981 -657 L 1058 -610 L 1078 -618 L 1174 -579 L 1193 -530 L 1194 -482 Z M 894 -759 C 962 -753 917 -759 940 -757 C 887 -826 968 -752 929 -792 C 1002 -745 936 -806 995 -747 C 1094 -715 1037 -737 1068 -726 C 934 -855 1052 -770 998 -818 C 454 -889 782 -943 605 -950 C 809 -822 572 -907 697 -886 C 894 -759 840 -804 868 -782 Z M 300 -788 C 283 -731 300 -788 283 -741 C 299 -646 281 -693 284 -671 C 386 -570 340 -579 386 -570 L 445 -550 L 367 -476 L 481 -469 L 413 -340 C 419 -328 413 -340 413 -328 C 435 -339 427 -326 435 -339 L 651 -519 L 640 -402 C 711 -314 640 -402 714 -321 C 658 -309 709 -308 670 -309 C 596 -313 657 -309 615 -312 C 645 -280 593 -313 645 -280 L 806 -210 L 803 -203 L 669 -216 L 584 -240 C 587 -226 580 -241 587 -226 L 682 -108 L 582 -156 C 548 -167 582 -156 550 -165 L 493 -246 L 364 -300 L 277 -501 L 254 -517 L 258 -607 L 240 -620 L 226 -723 L 259 -764 L 300 -788 Z M 210 -390 C 181 -452 199 -411 189 -431 C 156 -351 179 -458 165 -404 C 168 -491 148 -404 170 -484 C 148 -586 158 -525 152 -557 C 107 -377 122 -521 107 -451 C 317 56 107 -201 189 -45 C 199 -285 243 -38 199 -156 C 210 -390 199 -321 203 -356 Z M 482 139 C 540 125 482 139 531 129 C 606 68 573 107 592 93 C 628 -45 643 0 628 -45 L 616 -106 L 719 -76 L 667 -178 L 813 -184 C 821 -195 813 -184 823 -189 C 803 -203 818 -202 803 -203 L 539 -300 L 646 -349 C 686 -455 646 -349 680 -453 C 717 -411 693 -456 712 -421 C 746 -356 718 -410 737 -372 C 750 -415 747 -353 750 -415 L 730 -589 L 737 -590 L 793 -467 L 815 -381 C 825 -391 815 -378 825 -391 L 880 -533 L 888 -422 C 896 -387 888 -422 896 -389 L 855 -300 L 873 -161 L 742 15 L 740 42 L 660 84 L 657 106 L 576 170 L 524 162 L 482 139 Z M 872 17 C 832 73 859 38 846 56 C 932 45 828 78 882 64 C 805 104 891 78 810 99 C 733 169 781 130 756 151 C 934 101 802 160 870 138 C 1204 -298 1087 13 1181 -137 C 968 -25 1160 -187 1080 -90 C 872 17 937 -7 904 6 Z M 290 -93 L 297 -150 L 305 -159 L 324 -131 L 330 -104 L 346 -72 L 341 -67 L 310 -82 L 290 -93 Z M 942 -82 L 996 -123 L 1021 -179 L 1001 -177 L 953 -144 L 949 -98 L 942 -82 Z M 626 -826 C 636 -778 626 -822 636 -778 L 645 -766 L 664 -766 L 721 -805 L 699 -804 L 661 -796 L 636 -820 L 626 -826 Z" fill="#000000"/>
</svg>