<svg xmlns="http://www.w3.org/2000/svg" viewBox="35 -836 1276 995">
  <path d="M 1119 -321 L 1311 -333 L 1130 -356 C 1128 -414 1133 -376 1133 -395 C 1074 -499 1120 -445 1102 -473 C 1101 -452 1086 -484 1096 -468 C 1102 -451 1102 -452 1102 -452 C 1102 -450 1102 -451 1102 -450 C 1103 -447 1103 -449 1103 -448 C 1103 -446 1103 -447 1103 -447 C 1104 -443 1104 -445 1104 -444 C 1105 -442 1105 -442 1105 -442 C 1106 -438 1105 -441 1105 -439 C 1106 -438 1106 -438 1106 -438 C 1108 -398 1109 -425 1110 -411 C 1108 -398 1108 -398 1108 -398 C 1107 -394 1108 -396 1108 -395 C 893 -217 1096 -320 1016 -255 C 748 -189 849 -204 801 -194 C 654 -184 718 -186 686 -184 C 641 -184 649 -184 645 -184 C 555 -189 611 -185 583 -186 L 555 -189 C 448 -208 518 -193 482 -200 C 201 -438 280 -250 177 -341 C 201 -438 201 -438 201 -438 C 209 -460 203 -445 206 -453 C 227 -494 214 -472 220 -483 C 179 -414 203 -469 186 -443 C 197 -304 170 -378 177 -340 L 86 -225 L 224 -266 C 263 -227 235 -253 248 -240 L 35 -24 L 330 -181 C 578 -108 397 -145 481 -118 L 652 159 L 725 -107 C 1056 -236 868 -120 984 -171 L 1277 -176 L 1094 -278 C 1119 -321 1104 -292 1113 -306 Z M 404 -609 L 224 -692 L 344 -584 L 404 -609 Z M 536 -261 C 654 -253 573 -256 613 -253 C 767 -260 693 -253 731 -256 L 822 -460 L 826 -475 L 771 -589 L 755 -622 L 751 -630 L 749 -634 L 749 -635 L 739 -655 L 652 -836 L 564 -655 L 554 -635 L 554 -633 L 552 -630 L 548 -621 L 532 -589 L 477 -475 L 481 -460 L 536 -261 Z M 996 -63 L 1088 95 L 1187 103 L 1163 50 L 996 -63 Z" fill="#000000"/>
</svg>