<?xml version="1.0" standalone="no"?>
<!DOCTYPE svg PUBLIC "-//W3C//DTD SVG 1.1//EN" "http://www.w3.org/Graphics/SVG/1.1/DTD/svg11.dtd" >
<svg xmlns="http://www.w3.org/2000/svg" xmlns:xlink="http://www.w3.org/1999/xlink" version="1.1" viewBox="-10 0 1401 1000">
  <g transform="matrix(1 0 0 -1 0 800)">
   <path fill="currentColor"
d="M1142.35 663.55l67.9004 9.10059l-4.2002 -38.5l-216.3 -247.801l-44.0996 -11.8994v6.2998zM1171.75 324.05l108.5 57.4004l2.7998 -18.2002v-22.4004l-101.5 -39.1992l-9.7998 16.0996v6.2998zM307.95 452.85l25.8994 12.6006l168 -125.3l14 -27.3008l-44.7998 12.6006
l-145.6 105.7l-17.5 14.6992v7zM670.55 475.25l-95.8994 161.7l46.8994 -5.60059l52.5 -133zM436.75 718.15l215.6 -298.9l-39.8994 16.7998l-39.9004 21l-181.3 264.601zM657.95 755.95l44.0996 -27.2998l25.9004 -153.301h-29.4004l-59.5 161.7zM949.85 746.15
l49 -12.6006l-56.6992 -149.1l-26.6006 7.7002zM685.25 510.25c105.7 -11.2002 216.3 -4.2002 289.8 45.5c17.5 -9.09961 33.6006 -20.2998 49 -32.2002c-49.7002 -50.3994 -224 -86.0996 -338.8 -13.2998zM909.95 374.45c-177.101 -93.7998 -378 -50.4004 -452.2 21.7002
c14.7002 28 32.9004 53.8994 53.2002 77.6992c98 -109.199 252.7 -105.699 399 -99.3994zM604.05 550.15c56 32.1992 121.101 51.7998 190.4 51.7998c42 0 81.8994 -7 119.7 -19.6006c-18.2002 -26.5996 -71.4004 -45.5 -119.7 -45.5
c-57.4004 0 -67.2002 17.5 -113.4 21.7002c-30.7998 3.5 -53.8994 -6.2998 -63 -9.09961c-5.59961 -1.40039 -10.5 -0.700195 -14 0.700195zM956.85 221.15c-148.399 -13.3008 -266 15.3994 -321.3 34.2998c305.9 14 430.5 86.7998 475.3 175
c18.9004 -28 33.6006 -58.7998 44.1006 -91.7002c-25.2002 -57.4004 -97.2998 -114.8 -198.101 -117.6zM1167.55 285.55c2.7998 -19.5996 5.60059 -40.5996 5.60059 -60.8994c-0.700195 -103.601 -170.101 -187.601 -378.7 -187.601
c-69.2998 0 -134.4 9.10059 -190.4 25.2002c-112 32.9004 -187.6 93.0996 -187.6 162.4c0 37.0996 5.59961 73.5 15.3994 107.1c49 -152.6 312.2 -282.1 585.2 -205.1c39.9004 11.1992 102.2 50.3994 141.4 122.5c4.2002 11.1992 7 23.7998 9.09961 36.3994z" />
  </g>

</svg>
