<svg xmlns="http://www.w3.org/2000/svg" viewBox="99 -910 1393 1027">
  <path d="M 1291 -778 L 1010 -374 L 1010 -365 L 1073 -382 L 1382 -736 L 1388 -791 Z M 1333 -293 L 1333 -284 L 1347 -261 L 1492 -317 L 1492 -349 L 1488 -375 Z M 99 -477 L 99 -467 L 124 -446 L 332 -295 L 396 -277 L 376 -316 L 136 -495 Z M 617 -509 L 622 -542 L 547 -732 L 480 -740 Z M 283 -856 L 218 -861 L 477 -483 L 534 -453 L 591 -429 Z M 599 -910 L 572 -883 L 657 -652 L 699 -652 L 662 -871 Z M 1016 -896 L 967 -676 L 1005 -665 L 1086 -878 Z M 638 -559 C 1122 -578 802 -455 1051 -506 C 1052 -624 1100 -595 1077 -611 C 638 -559 947 -553 789 -543 Z M 959 -365 C 389 -507 750 -356 529 -351 C 313 -396 360 -473 334 -436 C 959 -365 419 -293 706 -231 Z M 522 -616 C 542 -615 527 -614 534 -613 C 632 -628 555 -619 588 -633 C 794 -597 698 -622 712 -597 C 965 -662 863 -597 939 -624 C 794 -690 911 -680 854 -690 C 522 -616 695 -690 602 -662 Z M 1026 -146 C 1309 -314 1170 -150 1273 -232 C 1246 -445 1294 -361 1273 -405 C 567 -195 1182 -319 1004 -215 C 1026 -146 646 -168 814 -127 Z M 1327 -238 C 1314 -186 1324 -220 1320 -202 C 1112 -11 1258 -83 1169 -27 C 276 -304 722 99 346 -86 C 254 -151 262 -256 254 -204 C 522 81 254 -52 362 34 C 794 117 602 104 695 117 C 1335 -151 1092 117 1334 -3 C 1327 -238 1335 -180 1331 -210 Z" fill="#000000"/>
</svg>