<svg xmlns="http://www.w3.org/2000/svg" viewBox="100 -939 1018 1091">
  <path d="M 1118 -545 L 1091 -554 L 928 -501 L 870 -559 L 894 -573 L 1030 -807 L 904 -729 L 805 -624 L 583 -847 L 505 -769 L 363 -911 L 422 -686 L 395 -660 L 456 -583 L 583 -710 L 739 -554 L 583 -388 L 784 -508 L 825 -468 L 583 -388 L 842 -451 L 905 -388 L 727 -211 L 789 -136 L 859 -206 L 1020 -206 L 942 -289 L 1041 -388 L 952 -478 L 1097 -513 L 1118 -545 Z M 218 152 L 359 13 L 378 -80 L 295 -32 L 218 152 Z M 874 -939 L 771 -828 L 759 -726 L 849 -800 L 874 -939 Z M 583 -66 L 414 -234 L 470 -294 L 133 -100 L 114 11 L 209 -13 L 349 -163 L 440 -72 L 426 95 L 506 -6 L 583 70 L 701 -48 L 666 -149 L 583 -66 Z M 298 -562 L 124 -388 L 257 -256 L 354 -295 L 260 -388 L 374 -502 L 298 -562 Z M 899 101 L 997 118 L 997 14 L 806 -109 L 899 101 Z M 583 -537 L 630 -490 L 656 -532 L 583 -605 L 479 -502 L 100 -917 L 143 -737 L 461 -484 L 365 -388 L 425 -329 L 474 -347 L 434 -388 L 499 -454 L 583 -388 L 511 -466 L 583 -537 Z M 800 -388 L 732 -388 L 583 -239 L 534 -288 L 511 -242 L 583 -171 L 800 -388 Z" fill="#000000"/>
</svg>