<svg xmlns="http://www.w3.org/2000/svg" viewBox="104 -119 1062 1063">
  <path d="M 1125 672 L 1128 718 C 1144 778 1130 739 1135 759 L 1165 819 C 1162 831 1167 823 1166 828 L 1123 856 C 1079 900 1106 868 1091 883 L 1054 939 C 1042 942 1051 943 1046 944 L 1001 921 C 941 905 982 912 962 907 L 895 902 C 886 894 890 902 887 898 L 883 848 C 867 788 882 827 877 807 L 847 747 C 850 735 845 742 846 737 L 888 709 C 932 665 906 698 921 683 L 958 627 C 970 624 960 623 965 622 L 1011 644 C 1071 660 1030 654 1050 659 L 1117 663 C 1125 672 1121 664 1125 667 Z M 446 11 L 475 -119 L 1026 -119 L 505 66 L 446 11 Z M 656 327 L 679 202 L 1051 176 L 702 346 L 656 327 Z M 839 521 L 817 455 L 1077 444 L 909 514 L 839 521 Z M 606 323 C 901 649 796 525 901 649 L 887 664 L 872 678 C 546 383 872 678 748 573 C 199 143 344 193 199 143 L 205 -18 L 366 -24 C 606 323 366 -24 416 121 Z M 234 223 L 104 252 L 104 803 L 289 282 L 234 223 Z M 550 433 L 425 456 L 399 828 L 569 479 L 550 433 Z M 744 616 L 678 594 L 667 854 L 737 686 L 744 616 Z" fill="#000000"/>
</svg>