<svg xmlns="http://www.w3.org/2000/svg" viewBox="101 -170 1262 1114">
  <path d="M 1098 53
L 1328 283
L 1197 75
L 1029 -133
L 1098 53
Z
M 1098 721
L 1328 491
L 1197 699
L 1029 907
L 1098 721
Z
M 1363 387
L 806 944
L 930 644
L 869 644
L 620 799
L 752 644
L 302 644
L 101 752
L 274 568
L 817 568
L 817 568
L 1010 568
L 1191 387
L 1010 206
L 895 206
L 817 206
L 274 206
L 101 76
L 149 90
L 302 130
L 752 130
L 620 -24
L 869 130
L 930 130
L 806 -170
L 1363 387
Z
M 447 387
L 343 283
L 625 283
L 729 387
L 626 491
C 343 491 492 491 416 491
L 447 387
Z
M 980 387
L 876 283
L 968 283
L 1072 387
L 969 490
C 877 490 941 490 910 490
L 980 387
Z
M 705 491
L 808 387
L 704 283
L 797 283
L 901 387
L 797 490
C 705 491 767 490 736 490
Z" fill="#000000"/>
</svg>