<?xml version="1.0" standalone="no"?>
<!DOCTYPE svg PUBLIC "-//W3C//DTD SVG 1.1//EN" "http://www.w3.org/Graphics/SVG/1.1/DTD/svg11.dtd" >
<svg xmlns="http://www.w3.org/2000/svg" xmlns:xlink="http://www.w3.org/1999/xlink" version="1.1" viewBox="-10 0 1151 1000">
  <g transform="matrix(1 0 0 -1 0 800)">
   <path fill="currentColor"
d="M985.2 376.25c-4.2002 -10.5 -10.5 -20.2998 -17.5 -30.0996l128.1 -71.4004l-154.7 42c-50.3994 -45.5 -131.6 -81.2002 -231.699 -90.2998l-51.1006 -186.2l-51.7998 186.9c-67.9004 7 -126.7 25.8994 -173.6 51.0996l-206.5 -109.9l159.6 142.101
c-10.5 9.09961 -19.5996 18.2002 -27.2998 27.2998l-96.6006 -28.7002l77.7002 55.2998c-14 25.2002 -18.8994 51.8008 -12.5996 77c4.89941 20.3008 16.7998 38.5 33.5996 56c-4.89941 -7.69922 -9.09961 -15.3994 -12.5996 -23.7998
c-2.10059 -4.89941 -4.2002 -10.5 -5.60059 -15.3994v0c-16.7998 -67.9004 55.3008 -131.601 172.9 -161c23.7998 -5.60059 49 -10.5 74.9004 -13.3008v0c19.5996 -2.09961 39.1992 -2.7998 60.1992 -3.5h9.10059c22.3994 0 44.7998 1.40039 65.7998 3.5
c37.0996 3.5 70.7002 10.5 101.5 19.6006c86.0996 26.5996 142.1 72.0996 149.8 123.899c0.700195 0.700195 0.700195 1.40039 0.700195 2.80078v0c1.40039 9.09961 0.700195 18.8994 -1.40039 28v0c-0.699219 0.699219 -0.699219 2.09961 -0.699219 2.7998
l-0.700195 0.700195c0 0.699219 0 1.39941 -0.700195 2.09961v0.700195c0 0.700195 0 1.39941 -0.700195 2.09961v0.700195c0 0.700195 0 0.700195 -0.700195 0.700195c-3.5 11.2002 -10.5 22.3994 -18.8994 32.8994c19.5996 -18.1992 32.2002 -37.7998 37.7998 -59.5
c3.5 -13.2998 3.5 -26.5996 1.40039 -40.5996l126.699 -16.0996zM484.7 577.85l-42 -17.5l-84 75.6006zM577.1 334.25l-38.5 139.3l-2.7998 10.5l38.5 79.7998l11.2002 22.4004l2.7998 6.2998l1.40039 2.10059v1.39941l7 14l61.5996 126.7l60.9004 -126.7l7 -14v-0.700195
l1.39941 -2.7998l2.80078 -5.59961l11.1992 -23.1006l38.5 -79.7998l-2.7998 -10.5l-38.5 -140c-25.2002 -2.7998 -51.7998 -4.89941 -79.0996 -4.89941c-28.7002 0 -56.7002 2.09961 -82.6006 5.59961zM899.1 195.65l116.9 -79.1006l16.7998 -37.0996l-69.2998 5.59961z
" />
  </g>

</svg>
