<?xml version="1.0" standalone="no"?>
<!DOCTYPE svg PUBLIC "-//W3C//DTD SVG 1.1//EN" "http://www.w3.org/Graphics/SVG/1.1/DTD/svg11.dtd" >
<svg xmlns="http://www.w3.org/2000/svg" xmlns:xlink="http://www.w3.org/1999/xlink" version="1.1" viewBox="-10 0 1046 1000">
  <g transform="matrix(1 0 0 -1 0 800)">
   <path fill="currentColor"
d="M192.55 194.6l32.2002 23.8008l30.7998 -37.1006l-32.2002 -23.7998zM653.85 492.1l-21.6992 -17.5l-42 51.8008l21.6992 17.5zM536.25 471.1l49 51.1006l42 -51.7998l-60.2002 -37.1006zM751.15 412.3l0.699219 3.5l137.2 111.3l3.5 -0.699219l12.6006 -36.4004
l-120.4 -97.2998zM620.95 559.3l0.700195 5.60059c4.19922 4.19922 7.69922 8.39941 11.1992 13.2998c5.60059 7.7002 10.5 16.0996 8.40039 23.7998c-7.7002 24.5 -22.4004 53.9004 -34.2998 78.4004l-22.4004 40.5996l2.7998 9.09961
c2.10059 5.60059 5.60059 14 11.9004 24.5c10.5 17.5 25.9004 32.9004 25.9004 32.2002c10.5 -5.59961 22.3994 -13.2998 35.6992 -22.3994c23.1006 -16.8008 57.4004 -43.4004 102.2 -86.1006c44.7998 -44.0996 74.9004 -76.2998 94.5 -100.8
c11.9004 -14 21 -25.9004 28 -36.4004l-0.700195 -7l-81.8994 -66.5c5.59961 11.9004 11.2002 28 6.2998 45.5c-6.2998 24.5 -21 35.7002 -28.7002 40.6006c3.5 4.89941 7 10.5 9.10059 16.7998c2.7998 7.7002 3.5 16.0996 3.5 24.5
c-0.700195 9.09961 -2.80078 16.7998 -6.30078 24.5c-2.7998 7 -7 14 -11.8994 21c-4.2002 6.2998 -9.7998 12.5996 -16.1006 18.9004l-9.09961 8.39941l-9.7998 7l-10.5 6.2998c-3.5 2.10059 -7 2.80078 -10.5 4.90039c-16.1006 7.7002 -30.1006 11.2002 -46.2002 14
c-7.7002 2.09961 -16.0996 2.7998 -23.7998 3.5s-16.1006 1.40039 -23.7998 1.40039c3.5 0 7 -0.700195 11.8994 -1.40039l11.9004 -1.40039c7.7002 -2.09961 15.3994 -2.7998 23.0996 -4.89941c7.7002 -2.10059 14.7002 -4.2002 22.4004 -7
c7.7002 -2.10059 14.7002 -5.60059 22.3994 -8.40039c3.5 -2.09961 7 -3.5 9.80078 -5.59961l10.5 -6.2998l9.09961 -7l8.40039 -8.40039c10.5 -11.2002 20.2998 -23.7998 25.8994 -37.7998c3.5 -7.7002 5.60059 -14.7002 5.60059 -21.7002
c0.699219 -8.40039 0 -16.0996 -2.80078 -22.4004c-2.09961 -7.69922 -5.59961 -14.6992 -10.5 -19.5996c-4.89941 -6.2998 -11.1992 -11.2002 -17.5 -16.0996c-6.2998 -4.2002 -12.5996 -7.7002 -20.2998 -10.5c-7.7002 -2.10059 -15.3994 -3.5 -23.0996 -4.2002
c-7.7002 0 -15.4004 0.700195 -23.1006 2.09961c-4.89941 0.700195 -8.39941 2.10059 -11.8994 2.7998c-4.2002 0.700195 -7.7002 2.10059 -11.2002 4.2002c6.2998 -3.5 13.2998 -7 22.4004 -9.09961c7 -2.10059 14.6992 -2.7998 23.7998 -2.7998
c9.09961 0 17.5 0.699219 24.5 2.7998c9.09961 3.5 16.0996 7 21.7002 10.5c7.69922 4.89941 13.2998 9.7998 18.8994 16.0996c5.60059 -3.5 21 -14.7002 26.6006 -37.0996c5.59961 -23.1006 -7 -45.5 -12.6006 -53.9004l-44.7998 -35.7002l-7 0.700195l-7.7002 7.7002
c-4.89941 4.90039 -11.2002 11.9004 -18.8994 22.4004c-13.3008 18.8994 -20.3008 30.7998 -21 31.5l9.7998 10.5c4.89941 5.59961 8.39941 11.8994 5.59961 15.3994s-10.5 1.40039 -18.2002 -3.5c-4.19922 -2.09961 -8.39941 -5.59961 -13.2998 -9.7998h-4.89941z
M646.85 690.9c-5.59961 0.699219 -11.8994 0.699219 -17.5 0.699219c5.60059 -0.699219 11.2002 -0.699219 16.8008 -2.7998l16.7998 -4.2002c10.5 -4.89941 21 -9.09961 28.7002 -16.7998c4.89941 -4.89941 7.69922 -9.09961 9.7998 -13.2998
c2.09961 -3.5 2.7998 -6.2998 3.5 -7.7002c0 -0.700195 0.700195 -2.09961 1.39941 -4.2002v-2.09961c0 -0.700195 0 -1.40039 0.700195 -2.09961c0 -3.5 0 -6.30078 -0.700195 -7.7002c-0.699219 -2.10059 -1.39941 -4.90039 -3.5 -8.40039
c-0.699219 -2.7998 -2.09961 -4.89941 -4.19922 -7c-0.700195 -1.39941 -2.80078 -3.5 -5.60059 -6.2998c4.90039 2.7998 8.40039 7 11.9004 12.5996c2.09961 2.10059 3.5 4.2002 4.2002 7.7002c0.699219 3.5 1.39941 6.2998 1.39941 9.10059
c0 2.09961 0 4.19922 -0.700195 4.89941c0 2.10059 -0.699219 2.10059 -0.699219 4.2002c-0.700195 3.5 -2.10059 6.2998 -3.5 8.40039c-2.80078 5.59961 -6.30078 10.5 -10.5 14.6992c-4.2002 4.2002 -9.10059 7.7002 -14.7002 10.5
c-4.90039 2.80078 -10.5 4.90039 -16.1006 7c-6.2998 2.10059 -11.8994 2.10059 -17.5 2.80078zM175.05 192.5l39.2002 -48.2998v-7c-4.90039 -4.2002 -9.7998 -8.40039 -15.4004 -11.9004c-9.7998 -7 -22.3994 -14 -37.0996 -21.7002
c-11.9004 -6.2998 -18.2002 -9.09961 -23.0996 -11.1992c-2.10059 -1.40039 -4.2002 -2.10059 -5.60059 -2.10059l-44.7998 -19.5996l-8.40039 10.5l24.5 44.7998l0.700195 0.700195l15.4004 -3.5l25.8994 34.2998c-1.39941 -5.59961 -3.5 -11.9004 -6.2998 -18.2002
l-6.2998 -11.2002l2.09961 -2.09961c2.10059 3.5 4.90039 7 7 11.2002c4.90039 7.7002 8.40039 16.0996 11.2002 24.5c2.10059 4.89941 2.10059 8.39941 4.2002 13.2998c0 2.09961 0.700195 4.2002 1.40039 7l4.19922 11.9004zM796.65 100.8l10.5 -6.2998
c2.7998 -2.09961 4.89941 -3.5 7 -4.2002c2.09961 -1.39941 2.7998 -2.09961 3.5 -2.09961c-0.700195 0 -2.10059 0.700195 -4.2002 0.700195c-2.10059 0.699219 -4.90039 0.699219 -8.40039 2.7998l-13.2998 4.89941l-16.7998 7l-18.2002 9.80078
c-6.2998 4.89941 -12.5996 7.69922 -17.5 11.1992c-6.2998 3.5 -10.5 7 -13.2998 9.10059l-6.2998 4.2002l3.5 25.8994c0 0.700195 1.39941 -1.39941 4.19922 -4.89941l9.80078 -10.5l13.2998 -13.3008l7.7002 -6.2998l-7.7002 6.2998l-13.2998 13.3008l-9.80078 10.5
c-2.7998 3.5 -4.19922 5.59961 -4.19922 4.89941l-3.5 -25.8994c-16.8008 11.1992 -35 25.1992 -55.3008 41.2998c-10.5 10.5 -22.3994 19.5996 -34.2998 30.7998c8.40039 -14.7002 15.4004 -28.7002 21 -42c10.5 -23.0996 17.5 -42.7002 21 -60.2002l-1.39941 -1.39941
s-0.700195 0 -1.40039 -0.700195l-0.700195 -0.700195h-1.39941h1.39941c0 0.700195 0 0.700195 0.700195 0.700195c0.700195 0.700195 0.700195 0.700195 1.40039 0.700195l1.39941 1.39941l2.7998 2.7998c0.700195 2.10059 1.40039 2.80078 2.10059 3.5
c0.700195 2.10059 1.39941 2.80078 1.39941 2.80078c0 0.699219 0 0.699219 0.700195 1.39941v-3.5c0 -2.09961 0.700195 -4.2002 0.700195 -7v-9.7998c0 -3.5 -0.700195 -7 -0.700195 -9.7998c-0.700195 -3.5 -2.09961 -6.2998 -2.7998 -7.7002
c-2.09961 -2.09961 -1.40039 -3.5 -3.5 -5.59961l-3.5 -3.5c-0.700195 -0.700195 -0.700195 -0.700195 -1.40039 -0.700195l-21.6992 42.7002c0.699219 0 1.39941 -0.700195 2.7998 -2.10059l5.59961 -2.7998c2.7998 -2.09961 4.90039 -2.7998 6.2998 -3.5
c-1.39941 0.700195 -3.5 1.40039 -6.2998 3.5l-5.59961 2.7998c-1.40039 1.40039 -2.10059 2.10059 -2.7998 2.10059l21.6992 -42.7002c-5.59961 -7 -15.3994 -8.40039 -28.6992 -4.90039c-14 3.5 -31.5 11.9004 -51.8008 26.6006
c-21.6992 14.6992 -46.1992 34.2998 -72.7998 58.7998l-16.7998 16.0996c7.7002 -17.5 13.2998 -32.2002 16.7998 -44.7998c4.90039 -19.5996 6.2998 -35.7002 3.5 -48.2998c-2.7998 -13.2998 -9.7998 -20.2998 -21 -22.4004
c-12.5996 -2.09961 -29.3994 1.40039 -49.7002 11.2002c-2.09961 2.09961 -2.7998 1.40039 -3.5 3.5c-2.09961 0.700195 -2.09961 2.09961 -4.19922 2.7998c-0.700195 2.10059 -1.40039 1.40039 -3.5 3.5l-3.5 3.5l-9.10059 8.40039l9.10059 -8.40039l3.5 -3.5
c2.09961 -2.09961 2.7998 -1.39941 3.5 -3.5c2.09961 -0.700195 2.09961 -2.09961 4.19922 -2.7998c0.700195 -2.09961 1.40039 -1.40039 3.5 -3.5c4.90039 -2.7998 8.40039 -6.2998 11.9004 -9.09961l9.7998 -7.7002c2.7998 -2.10059 4.2002 -4.2002 6.2998 -4.90039
c2.10059 -1.39941 2.80078 -2.09961 3.5 -2.09961c-0.699219 0 -2.09961 0.700195 -4.19922 2.09961c-2.80078 2.10059 -6.30078 3.5 -9.80078 5.60059c-4.89941 2.09961 -9.09961 5.59961 -14 8.39941c-5.59961 3.5 -11.1992 6.2998 -16.7998 11.2002
c-5.59961 4.90039 -11.2002 8.40039 -16.7998 11.9004c-5.59961 4.89941 -10.5 7.69922 -15.4004 12.5996c-4.89941 3.5 -8.39941 6.2998 -11.1992 9.09961l-3.5 2.80078l-1.40039 1.39941l16.0996 4.90039l-16.7998 -4.90039l-28 24.5
c-10.5 9.10059 -18.8994 17.5 -29.3994 28s-18.2002 20.2998 -28.7002 31.5c-10.5 10.5 -18.9004 21.7002 -28 32.9004c-11.2002 13.2998 -21 27.2998 -31.5 41.2998c-10.5 13.2998 -19.6006 27.2998 -28 41.2998c-9.7998 14.7002 -18.2002 28.7002 -24.5 41.2998
c-7.7002 13.3008 -13.2998 26.6006 -18.9004 38.5l-4.89941 13.3008c-2.10059 4.89941 -2.80078 8.39941 -4.90039 11.8994c-2.09961 4.90039 -1.40039 7.7002 -3.5 11.2002c-0.700195 4.90039 -2.09961 8.40039 -2.7998 10.5c-0.700195 0 -0.700195 0 -0.700195 -0.700195
h-0.700195c-0.700195 0 -0.700195 0 -0.700195 -0.700195c-3.5 -1.39941 -6.2998 -3.5 -8.39941 -5.59961c-2.7998 -2.09961 -4.90039 -4.2002 -6.2998 -6.2998c-1.40039 -1.40039 -2.80078 -2.7998 -3.5 -4.90039l-1.40039 -1.39941v-0.700195h-0.700195v1.39941v5.60059
c0.700195 2.09961 0.700195 5.59961 1.40039 10.5c2.09961 4.89941 2.09961 9.7998 4.2002 17.5c1.39941 7.7002 3.5 13.2998 6.2998 18.2002c2.09961 4.89941 4.89941 9.09961 7 12.5996c2.7998 3.5 4.89941 6.2998 6.2998 7
c1.40039 1.40039 2.09961 2.09961 2.7998 2.09961v-0.699219l2.7998 -28.7002l-2.7998 28.7002c3.5 4.89941 9.10059 6.2998 15.4004 8.39941c4.89941 1.40039 12.5996 0.700195 21.7002 -1.39941c7 -1.40039 16.0996 -4.90039 27.2998 -9.80078
c10.5 -4.89941 20.2998 -11.8994 32.2002 -19.5996l2.09961 -1.40039l2.7998 -2.09961c0.700195 0 1.40039 -0.700195 2.10059 -1.40039l2.7998 -2.09961c-15.4004 9.09961 -28 15.4004 -37.7998 18.2002c-10.5 3.5 -19.6006 3.5 -27.3008 0.700195
c-6.2998 -2.80078 -11.1992 -8.40039 -13.2998 -17.5c-1.39941 -9.80078 -0.700195 -22.4004 2.7998 -37.1006c0 -0.700195 0 -1.39941 0.700195 -2.09961c0.700195 -2.10059 0.700195 -3.5 2.7998 -5.60059l8.40039 -21.6992
c4.90039 -9.10059 9.09961 -19.6006 15.4004 -30.1006c6.2998 -11.2002 13.2998 -23.0996 21.6992 -35l6.30078 -7.7002l5.59961 -7.69922l5.59961 -7.7002c2.80078 -2.7998 4.90039 -4.90039 5.60059 -6.2998l16.0996 -19.6006l8.40039 -9.09961l9.7998 8.39941
c-14.7002 19.6006 -28.7002 39.2002 -42.7002 59.5c-10.5 14 -18.8994 28.7002 -27.2998 43.4004c-8.40039 16.0996 -16.7998 30.7998 -22.4004 47.5996c-2.09961 4.90039 -2.7998 8.40039 -3.5 13.3008c-0.699219 2.09961 -0.699219 4.19922 -0.699219 7.69922
c0.699219 2.80078 1.39941 7 4.89941 9.80078c2.7998 2.7998 6.2998 3.5 9.7998 2.7998c3.5 0 5.60059 -1.40039 7.7002 -2.10059l12.6006 -6.2998c14.6992 -10.5 26.5996 -21.7002 39.8994 -33.5996c13.2998 -11.9004 23.7998 -23.7998 35.7002 -37.1006l5.59961 -7
l-7.69922 11.9004c-11.9004 18.9004 -21.7002 36.4004 -30.8008 50.4004c-8.39941 14 -14.6992 25.8994 -19.5996 33.5996c-4.90039 9.09961 -7.7002 13.2998 -7.7002 14l0.700195 -1.40039l89.5996 -121.8l-89.5996 121.8
c-11.9004 21.7002 -22.4004 39.9004 -30.7998 58.8008c-8.40039 17.5 -14.7002 33.5996 -19.6006 48.2998c-4.89941 13.2998 -6.2998 24.5 -7 35c0 9.09961 2.10059 16.7998 6.30078 21.7002l0.699219 0.699219c0 0.700195 0.700195 0.700195 0.700195 1.40039
c0.700195 0 0.700195 0 1.40039 0.700195l0.700195 0.700195c-3.5 -8.40039 -2.80078 -21 2.09961 -37.1006c4.90039 -16.7998 13.2998 -37.0996 25.2002 -61.5996c13.2998 -24.5 28.7002 -50.4004 47.5996 -80.5c19.6006 -28.7002 42 -59.5 66.5 -91
c0.700195 -2.10059 5.60059 -7 13.2998 -16.1006c4.90039 -6.2998 11.2002 -13.2998 18.9004 -21.6992l21 16.7998c-18.9004 24.5 -36.4004 49 -53.9004 74.2002c-11.1992 16.7998 -22.3994 33.5996 -32.8994 52.5c-10.5 17.5 -18.9004 35.6992 -26.6006 56
c-2.09961 4.89941 -3.5 10.5 -4.19922 15.3994c-0.700195 2.7998 -0.700195 6.2998 -0.700195 9.10059c0.700195 3.5 1.39941 7.69922 4.89941 11.1992c4.2002 2.80078 8.40039 3.5 11.9004 2.80078c3.5 0 6.2998 -1.40039 8.40039 -2.10059
c4.89941 -2.09961 9.7998 -4.2002 14.6992 -7.7002c14.7002 -10.5 27.3008 -21 40.6006 -32.8994l-10.5 16.0996l-14 23.7998c-4.90039 7.7002 -9.7998 15.4004 -13.2998 22.4004c-4.90039 7.7002 -8.40039 13.2998 -11.9004 21l-10.5 20.2998l-0.700195 -0.700195v-1.39941
v-1.40039l-0.700195 -0.700195c-1.39941 -5.59961 -2.09961 -11.1992 -2.09961 -17.5c-0.700195 -6.2998 0 -11.8994 0 -17.5c0 -4.89941 0.700195 -9.7998 0.700195 -13.2998c0.700195 -4.2002 1.39941 -6.2998 1.39941 -6.2998s-0.699219 1.40039 -2.09961 3.5
l-4.2002 11.9004l-7.7002 23.7998c-2.7998 10.5 -5.59961 23.0996 -10.5 39.2002c-4.89941 16.0996 -7 29.3994 -9.09961 41.2998c-2.09961 11.8994 -2.7998 21 -3.5 29.3994v17.5v6.30078l0.700195 -1.40039c0 10.5 2.09961 18.9004 6.2998 24.5
c4.2002 4.90039 10.5 7.7002 18.2002 7.7002c7.7002 0.700195 16.7998 -1.40039 28.7002 -6.2998c10.5 -4.90039 23.0996 -11.2002 37.7998 -20.3008c0.700195 0 2.09961 -0.699219 2.7998 -1.39941l2.7998 -2.10059c2.10059 -0.699219 1.40039 -1.39941 3.5 -2.09961
l2.7998 -2.09961c-16.0996 9.09961 -30.0996 14.6992 -41.2998 15.3994c-10.5 0.700195 -17.5 -3.5 -20.2998 -12.5996c-3.5 -9.10059 -2.09961 -23.1006 3.5 -42c5.59961 -20.2998 15.4004 -44.1006 30.0996 -72.1006c2.10059 -2.09961 4.2002 -7 9.10059 -14.6992
c4.89941 -8.40039 11.8994 -20.3008 21 -33.6006c8.39941 -14 18.8994 -29.3994 30.0996 -46.2002c11.9004 -16.0996 24.5 -33.5996 37.7998 -50.3994l3.5 -4.2002l3.5 -4.2002l3.5 -4.2002l3.5 -3.5c14.7002 -17.5 27.3008 -32.8994 40.6006 -46.1992l15.3994 12.5996
c-25.8994 32.9004 -49.6992 65.0996 -74.1992 100.8c-14.7002 21.7002 -28.7002 43.4004 -42 66.5c-13.3008 22.4004 -25.2002 45.5 -34.3008 71.4004l-5.59961 19.5996c0 3.5 -0.700195 7.7002 0 11.2002v3.5l1.40039 2.7998c0.699219 2.10059 0.699219 2.7998 1.39941 3.5
c0.700195 2.10059 2.10059 2.10059 2.7998 2.7998c4.90039 4.90039 9.80078 4.2002 13.3008 4.2002c4.89941 -0.700195 7.69922 -2.09961 11.1992 -2.7998l18.2002 -9.7998c22.4004 -14.7002 42 -31.5 60.9004 -50.4004c18.8994 -18.8994 37.0996 -37.0996 54.5996 -56
c17.5 -19.5996 35 -39.2002 51.1006 -59.5c-35.7002 38.5 -71.4004 75.6006 -110.601 109.9c-19.5996 16.7998 -39.8994 33.5996 -61.5996 46.8994c-5.60059 3.5 -11.2002 6.30078 -16.7998 8.40039c-4.90039 2.09961 -10.5 2.7998 -12.6006 0.700195
c-0.700195 -0.700195 -1.39941 -2.7998 -1.39941 -4.90039c-0.700195 -2.09961 0 -4.89941 0.699219 -8.39941c0.700195 -5.60059 2.80078 -11.9004 4.90039 -17.5c4.2002 -11.2002 9.7998 -23.1006 16.0996 -35c5.60059 -11.2002 11.9004 -22.4004 18.9004 -33.6006
c13.2998 -22.3994 27.2998 -44.0996 42 -65.0996c24.5 -33.6006 48.2998 -66.5 74.2002 -99.4004l15.3994 12.6006l30.8008 -37.8008l-16.1006 -12.5996c30.1006 -35.7002 59.5 -70.7002 92.4004 -104.3c18.8994 -18.9004 36.3994 -37.1006 55.2998 -54.6006
l29.4004 -25.1992c10.5 -7.7002 20.2998 -15.4004 31.5 -21c3.5 -2.10059 7 -2.80078 9.7998 -4.90039c0.700195 3.5 0 6.2998 0 9.7998c-0.700195 6.2998 -2.10059 12.6006 -4.2002 18.2002s-2.7998 9.7998 -4.90039 14.7002c-1.39941 3.5 -2.09961 5.59961 -2.7998 6.2998
c0.700195 0 1.40039 -0.700195 2.10059 -2.7998c2.09961 -2.7998 3.5 -4.90039 4.19922 -7l5.60059 -11.2002c2.09961 -4.90039 4.2002 -8.40039 6.2998 -14c-0.700195 10.5 -3.5 21.7002 -7 34.2998c-2.09961 6.2998 -4.90039 14 -8.40039 21.7002
c-6.2998 13.2998 -12.5996 24.5 -20.2998 37.7998c-25.8994 44.7998 -55.2998 88.2002 -85.3994 130.9c17.5 -21 32.8994 -42 47.5996 -62.2998l6.2998 -8.40039c-6.2998 10.5 -13.2998 21.7002 -21 32.9004c0.700195 -2.10059 2.10059 -2.10059 2.7998 -4.2002
c2.10059 -2.10059 1.40039 -2.7998 3.5 -4.90039c0.700195 -2.09961 2.10059 -2.09961 2.80078 -4.2002c0.699219 -2.09961 2.09961 -2.09961 2.7998 -4.19922c11.2002 -16.1006 21.7002 -30.8008 30.7998 -46.9004l16.7998 -25.2002
c14 -21.7002 26.6006 -44.7998 37.7998 -69.2998l2.80078 -8.40039c8.39941 -16.7998 14.6992 -32.1992 19.5996 -46.1992c9.7998 -25.9004 13.2998 -46.9004 11.2002 -63c-2.7998 -16.1006 -12.6006 -23.1006 -30.1006 -21c-2.09961 0.699219 -3.5 2.09961 -4.19922 2.7998
c0.699219 -0.700195 2.09961 -2.10059 4.19922 -2.7998c4.90039 -3.5 8.40039 -6.30078 13.3008 -9.10059zM276.55 260.4l5.60059 4.89941l-12.6006 12.6006c-7.7002 8.39941 -16.7998 17.5 -27.2998 30.7998l11.2002 -16.7998c3.5 -4.90039 7 -10.5 11.8994 -16.1006
c3.5 -4.89941 6.30078 -10.5 11.2002 -15.3994zM635.65 170.8v-2.7998v2.7998c-0.700195 0.700195 -0.700195 1.40039 -0.700195 2.7998c0 -1.39941 0 -2.09961 0.700195 -2.7998zM480.95 426.3l2.09961 1.40039c-6.2998 5.59961 -11.8994 11.8994 -19.5996 19.5996
l2.09961 -2.7998l2.10059 -2.09961l2.09961 -2.80078l2.09961 -2.09961c2.80078 -4.2002 5.60059 -7.7002 9.10059 -11.2002zM346.55 345.1c0 0.700195 -0.700195 0.700195 -0.700195 1.40039c0 -0.700195 0.700195 -0.700195 0.700195 -1.40039
c0 -0.699219 0 -0.699219 0.700195 -0.699219zM344.45 349.3c-2.10059 2.10059 -2.10059 3.5 -2.7998 5.60059c0.699219 -2.10059 0.699219 -3.5 2.7998 -5.60059zM409.55 100.1l-4.89941 5.60059c-0.700195 0.700195 -1.40039 1.39941 -1.40039 1.39941
s0.700195 -0.699219 1.40039 -1.39941zM415.85 92.4004l-3.5 4.19922l3.5 -4.19922c0.700195 0 1.40039 -0.700195 2.10059 -1.40039c-0.700195 0.700195 -1.40039 1.40039 -2.10059 1.40039zM431.95 112c-1.40039 0.700195 -3.5 1.40039 -6.2998 3.5
c2.7998 -2.09961 4.89941 -2.7998 6.2998 -3.5c2.09961 -2.09961 4.89941 -2.09961 7 -4.2002c-2.10059 2.10059 -4.90039 2.10059 -7 4.2002zM457.85 98.7002c-3.5 2.09961 -6.2998 2.09961 -9.7998 4.2002c3.5 -2.10059 6.2998 -2.10059 9.7998 -4.2002
c2.10059 0 2.10059 -0.700195 4.2002 -0.700195c-2.09961 0 -2.09961 0.700195 -4.2002 0.700195zM480.95 101.5c0 0.700195 0 0.700195 0.700195 1.40039h-4.90039c-5.59961 0.699219 -9.09961 2.7998 -14 4.89941c-16.0996 8.40039 -29.4004 19.6006 -42.7002 30.7998
c-13.2998 11.9004 -25.8994 23.8008 -37.7998 35.7002c-19.5996 20.2998 -37.7998 42 -56.7002 63.7002l-18.2002 -14.7002l10.5 -12.5996l29.4004 -30.7998c9.09961 -9.10059 18.9004 -18.2002 28.7002 -26.6006c9.09961 -8.39941 18.2002 -14.7002 27.2998 -22.3994
v0.699219l1.40039 -1.39941c0.699219 -0.700195 1.39941 -1.40039 3.5 -2.10059c2.09961 -2.09961 3.5 -3.5 4.89941 -4.19922c2.7998 -2.10059 4.90039 -3.5 7 -4.2002c0.700195 -0.700195 2.10059 -2.10059 4.2002 -2.7998
c2.09961 -0.700195 2.09961 -2.10059 4.2002 -2.80078l4.2002 -2.09961c2.09961 -0.700195 3.5 -2.09961 4.19922 -2.7998l8.40039 -4.2002c3.5 -2.09961 6.2998 -2.7998 8.40039 -3.5c2.09961 -1.40039 4.89941 -2.09961 7.69922 -2.7998
c2.80078 -0.700195 4.90039 -1.40039 7 -1.40039h0.700195h0.700195h0.700195c4.2002 0.700195 7.7002 2.10059 10.5 4.2002zM502.65 135.1c-0.700195 9.10059 -3.5 18.9004 -7 30.1006l-2.10059 6.2998c-21.7002 20.2998 -43.3994 44.0996 -66.5 70l-15.3994 16.7998
l-14.7002 16.7998l-14 17.5l-14 17.5l-2.7998 3.5l-2.80078 3.5l-2.7998 3.5l-2.7998 3.5s0.700195 -0.699219 1.40039 -2.7998c0 -0.700195 0.699219 -1.39941 1.39941 -2.09961c0 -0.700195 0.700195 -0.700195 0.700195 -2.7998
c0.700195 -0.700195 1.40039 -1.40039 1.40039 -2.10059c6.2998 -11.8994 12.5996 -23.7998 18.8994 -34.2998l17.5 -30.0996l13.2998 -22.4004c2.10059 -2.7998 3.5 -4.90039 4.2002 -7l1.40039 -2.09961c0 0.699219 0 0.699219 -0.700195 1.39941
s-2.09961 1.40039 -2.7998 3.5l-11.2002 15.4004l-21 31.5l-34.2998 51.7998l-24.5 37.0996c-18.9004 18.9004 -36.4004 35.7002 -56 52.5c-13.2998 11.2002 -25.9004 21.7002 -39.9004 30.1006c-3.5 2.09961 -7 4.2002 -10.5 4.89941
c-3.5 2.10059 -7 1.40039 -6.2998 1.40039c-0.700195 -0.700195 -0.700195 -1.40039 -0.700195 -2.09961c0 -2.10059 0 -4.2002 0.700195 -4.90039c0.700195 -3.5 0.700195 -7.7002 2.7998 -11.2002l10.5 -22.3994c4.90039 -7.7002 7.7002 -14.7002 12.6006 -22.4004
c9.09961 -14 17.5 -28 28 -42c14 -19.5996 28 -38.5 42.6992 -57.4004l11.9004 9.10059l30.0996 -37.1006l-11.8994 -9.7998c18.8994 -21.7002 36.3994 -42.7002 56 -63c11.2002 -11.8994 23.0996 -23.7998 35.7002 -35.7002
c6.2998 -5.59961 12.5996 -11.1992 18.8994 -16.0996c7.7002 -5.59961 12.6006 -10.5 20.2998 -14c3.5 -2.09961 6.30078 -3.5 9.80078 -4.2002h2.09961l0.700195 1.40039c0 2.09961 -0.700195 5.59961 -1.40039 10.5c-2.09961 3.5 -1.39941 7 -3.5 11.8994
c-6.2998 16.1006 -14 30.1006 -22.3994 44.8008c-16.8008 30.0996 -35.7002 58.0996 -54.6006 86.7998l31.5 -40.6006c10.5 -13.2998 20.2998 -27.2998 29.4004 -42c10.5 -15.3994 18.8994 -30.7998 25.2002 -45.5c2.09961 -4.19922 3.5 -8.39941 4.89941 -12.5996
c2.10059 -4.90039 2.7998 -9.09961 2.10059 -14.7002c0 -1.39941 -0.700195 -2.7998 -1.40039 -4.89941c0 -2.10059 0.700195 -2.10059 0.700195 -2.80078v-7.69922c0 -2.10059 0 -4.2002 -0.700195 -4.90039c0 -0.700195 0 -1.40039 -0.700195 -1.40039
c0.700195 0 0.700195 0.700195 0.700195 1.40039c0.700195 0.700195 0.700195 2.7998 0.700195 4.90039c4.89941 2.7998 8.39941 7 9.7998 13.2998c2.09961 6.2998 2.09961 14 1.40039 22.3994zM599.95 152.6c4.2002 0.700195 7.7002 2.10059 9.7998 3.5h-0.700195
c-4.89941 0.700195 -10.5 2.80078 -16.7998 6.30078c-18.9004 10.5 -34.2998 23.0996 -50.4004 36.3994c-16.0996 14 -30.0996 28 -44.0996 42.7002c-25.2002 25.2002 -48.2998 51.0996 -70.7002 78.4004l-18.8994 -15.4004l16.0996 -16.7998
c13.2998 -13.2998 25.9004 -25.2002 37.7998 -34.2998c11.2002 -10.5 21 -16.8008 29.4004 -22.4004c7.7002 -5.59961 14.7002 -9.09961 19.5996 -11.9004c4.90039 -2.7998 9.10059 -4.19922 11.2002 -4.89941c2.7998 -0.700195 3.5 -1.40039 4.2002 -1.40039v-0.700195
c0 -0.699219 -0.700195 -0.699219 -0.700195 -1.39941c0 -1.40039 -1.40039 -2.10059 -4.2002 -2.7998c-2.7998 0 -7 0.699219 -11.8994 2.7998c-5.60059 2.7998 -14 6.2998 -25.2002 14c18.8994 -16.1006 34.2998 -30.1006 49 -40.6006s28 -18.8994 39.2002 -23.7998
c9.7998 -4.89941 18.8994 -7.7002 27.2998 -7.7002zM614.65 170.8c0.699219 3.5 0 7.7002 -1.40039 13.2998c-2.09961 4.90039 -2.7998 9.10059 -4.90039 14c-7.69922 18.9004 -16.0996 36.4004 -26.5996 53.9004c-2.09961 4.90039 -4.90039 7.7002 -7 12.5996
l-42.7002 45.5c-23.0996 25.9004 -46.2002 53.9004 -69.2998 81.9004l-30.7998 39.9004c-10.5 13.2998 -20.2998 26.5996 -29.4004 39.8994c-9.09961 13.2998 -18.2002 24.5 -26.5996 37.7998l-15.4004 14c-16.0996 13.3008 -31.5 25.9004 -48.2998 36.4004
c-4.2002 2.7998 -8.40039 4.90039 -12.5996 6.2998c-4.90039 2.10059 -9.10059 1.40039 -9.10059 0.700195c-0.700195 0 -0.700195 0 -0.700195 -0.700195v-2.09961c0 -2.7998 0 -4.90039 0.700195 -6.2998c0.700195 -4.90039 2.10059 -9.80078 4.2002 -13.3008
c2.7998 -9.09961 7 -18.1992 11.9004 -27.2998c4.89941 -8.39941 9.7998 -17.5 15.3994 -25.8994c10.5 -17.5 21 -34.3008 32.9004 -51.1006c17.5 -24.5 35 -48.2998 53.8994 -72.7998l18.2002 14.7002l30.7998 -37.1006l-18.1992 -14.6992
c21.6992 -27.3008 44.0996 -53.2002 68.5996 -78.4004c14 -14.7002 28.7002 -28.7002 43.4004 -42.7002l22.3994 -19.5996c7 -5.60059 15.4004 -11.2002 24.5 -16.7998c4.90039 -2.10059 8.40039 -4.2002 11.9004 -4.2002c1.39941 -0.700195 2.7998 -0.700195 3.5 0
v0.700195s0 0.699219 0.700195 1.39941zM616.05 214.9l-5.59961 9.09961c-1.40039 3.5 -3.5 6.2998 -5.60059 9.7998c2.10059 -3.5 4.2002 -6.2998 5.60059 -9.7998zM758.85 193.9c0.700195 0.699219 1.40039 1.39941 1.40039 1.39941
c-4.2002 1.40039 -8.40039 2.7998 -11.9004 4.90039c-24.5 13.2998 -44.0996 30.0996 -63.6992 46.8994c-19.6006 17.5 -38.5 35.7002 -56.7002 54.6006c-32.9004 33.5996 -63.7002 68.5996 -93.7998 105l-12.6006 -9.7998l21 -20.3008
c4.90039 -4.89941 7.7002 -7.69922 8.40039 -7.69922h-1.40039c-0.700195 0 -1.39941 0.699219 -2.7998 2.09961c-2.7998 1.40039 -7 4.2002 -13.2998 9.09961c-4.90039 3.5 -9.7998 7.7002 -15.4004 13.3008l-6.2998 -4.2002
c8.40039 -10.5 16.0996 -18.9004 23.7998 -27.2998c21.7002 -24.5 42 -46.2002 63.7002 -65.8008c20.2998 -20.2998 38.5 -37.0996 57.4004 -51.7998c18.8994 -14.7002 34.2998 -26.5996 49 -35l-0.700195 0.700195c0 0 0.700195 0 1.39941 -0.700195
c0 0 1.40039 -0.700195 4.2002 -2.7998l5.60059 -2.7998c2.7998 -2.10059 4.89941 -2.10059 7.69922 -4.2002l11.9004 -4.90039c4.90039 -2.09961 8.40039 -2.7998 11.9004 -2.7998c-3.5 0 -7 0.700195 -11.9004 2.7998l-11.9004 4.90039
c0.700195 0 2.10059 -0.700195 4.2002 -1.40039l3.5 -1.39941c2.10059 -0.700195 2.7998 -0.700195 3.5 -1.40039c2.10059 0 2.7998 -0.700195 3.5 -0.700195c3.5 -0.699219 6.2998 -1.39941 8.40039 -1.39941c2.09961 -0.700195 4.2002 -0.700195 6.2998 0
c2.09961 0 4.2002 0 5.59961 0.700195zM770.75 119l4.2002 -3.5z" />
  </g>

</svg>
