<?xml version="1.0" standalone="no"?>
<!DOCTYPE svg PUBLIC "-//W3C//DTD SVG 1.1//EN" "http://www.w3.org/Graphics/SVG/1.1/DTD/svg11.dtd" >
<svg xmlns="http://www.w3.org/2000/svg" xmlns:xlink="http://www.w3.org/1999/xlink" version="1.1" viewBox="-10 0 984 1000">
  <g transform="matrix(1 0 0 -1 0 800)">
   <path fill="currentColor"
d="M246.4 205.8c10.1992 1.7998 19.1992 4.7998 27 7.7998c-30 -13.1992 -58.2002 -21 -85.2002 -22.7998c-46.2002 -3 -96 7.2002 -118.8 68.4004c-27 72.5996 10.7998 126 57 172.2c11.3994 14.3994 24 32.3994 31.7998 48.5996
c9 19.2002 13.7998 31.7998 16.2002 39.5996c1.7998 4.2002 2.39941 7.80078 1.7998 10.2002c0 -5.39941 -0.600586 -11.3994 -1.2002 -18c-1.7998 -11.3994 -3.59961 -25.7998 -9 -40.7998c26.4004 27 49.7998 53.4004 57 84c9 35.4004 1.7998 67.7998 -7.2002 93.5996
c-5.39941 15 -12 28.8008 -19.7998 42c21 -27 36.5996 -54.5996 46.7998 -83.3994c17.4004 -49.7998 22.2002 -113.4 -25.7998 -172.8c-54.5996 -66.6006 -72 -120 -66.5996 -158.4c3 6.59961 6.59961 11.4004 10.7998 15.5996l6.59961 5.40039l-3 -9
c-1.7998 -5.40039 -3.59961 -13.2002 -3.59961 -21c-1.7998 -21.5996 13.2002 -37.7998 19.7998 -43.2002l7.2002 -4.2002c25.7998 -14.3994 80.3994 -6 84.5996 -6c-17.3994 -4.19922 -35.3994 -6 -54 -4.19922c-9 1.7998 -16.7998 2.39941 -25.7998 5.39941
s-16.2002 6.60059 -22.7998 12c-6.60059 5.40039 -12.6006 11.4004 -16.7998 18.6006c-4.80078 7.19922 -7.80078 14.3994 -10.2002 23.3994c-1.7998 7.7998 -3.60059 16.2002 -4.2002 25.7998c0 9 0.599609 17.4004 2.40039 25.2002
c4.19922 16.7998 10.7998 32.4004 19.7998 48.6006c9 16.1992 19.7998 30.5996 30 45.5996c5.39941 7.7998 10.2002 15.5996 15 23.4004c4.7998 9 9.59961 15.5996 13.7998 24.5996s7.2002 17.4004 9.59961 26.4004c3 8.39941 4.2002 17.3994 4.2002 27.5996
c-4.2002 -18.5996 -11.3994 -34.2002 -20.3994 -50.4004c-4.80078 -7.7998 -10.2002 -15 -15.6006 -22.1992l-16.2002 -22.2002c-11.3994 -14.4004 -22.7998 -29.4004 -32.3994 -45.6006c-10.2002 -16.1992 -18 -33.5996 -22.2002 -52.7998
c-2.40039 -9 -3 -18.5996 -2.40039 -28.7998c0 -5.40039 0.600586 -10.2002 1.80078 -15c0.599609 -5.40039 1.7998 -9.59961 3.59961 -13.7998c3 -9.60059 6 -18 12.5996 -27c5.40039 -8.40039 12.6006 -15 21 -20.4004c7.80078 -6.59961 17.4004 -9.59961 26.4004 -12
c9.59961 -2.39941 19.2002 -3 28.7998 -3c8.40039 0 17.4004 1.2002 27.6006 3zM811.6 431.4c45.6006 -46.8008 84 -98.4004 57 -172.2c-22.7998 -61.2002 -73.1992 -71.4004 -118.8 -68.4004c-27 1.7998 -55.2002 9.60059 -85.2002 22.7998h0.600586
c9 -4.19922 17.3994 -6 26.3994 -7.7998c10.2002 -1.7998 19.2002 -3 28.2002 -3s18.6006 0.600586 28.2002 3c9 2.40039 18.5996 5.40039 26.4004 12c8.39941 5.40039 15.5996 12 21 20.4004c5.39941 7.7998 10.1992 16.7998 13.1992 27
c1.80078 4.2002 1.80078 9 3.60059 13.7998c0.599609 4.7998 1.2002 9.59961 1.2002 15c0.599609 9.59961 0 19.2002 -1.80078 28.7998c-4.19922 19.2002 -12.5996 36.6006 -22.7998 52.7998c-9.59961 16.2002 -20.3994 31.2002 -31.7998 45.6006
c-5.40039 6.59961 -11.4004 14.3994 -16.7998 22.2002l-15 22.1992c-9.60059 16.2002 -16.7998 31.8008 -21 50.4004c0 -9.59961 1.7998 -18.5996 4.2002 -27.5996c2.39941 -8.40039 6 -17.4004 10.1992 -26.4004c4.2002 -9 8.40039 -15.5996 13.2002 -24.5996l15 -23.4004
c10.2002 -15 21 -29.4004 30 -45.5996c9 -16.2002 15.6006 -31.8008 19.7998 -48.6006c1.80078 -7.7998 2.40039 -16.2002 2.40039 -25.2002s-1.7998 -16.7998 -4.2002 -25.7998c-2.39941 -9 -5.39941 -16.7998 -9.59961 -23.3994
c-4.7998 -7.80078 -10.7998 -13.8008 -17.4004 -18.6006c-6.59961 -5.39941 -13.7998 -9 -22.7998 -12c-7.7998 -3 -16.7998 -3.59961 -25.7998 -5.39941c-18.6006 -1.80078 -35.4004 0 -54 4.19922c4.7998 0 58.7998 -8.39941 84.5996 6
c2.40039 1.80078 5.40039 2.40039 7.7998 4.2002c5.40039 5.40039 20.4004 21.6006 19.8008 43.2002c-0.600586 7.7998 -1.80078 15.5996 -3.60059 21l-3 9l6.60059 -5.40039c4.19922 -4.19922 7.7998 -9.59961 10.7998 -15.5996
c4.7998 38.4004 -12.6006 91.7998 -67.2002 158.4c-48.5996 59.3994 -43.7998 123 -25.7998 172.8c10.2002 28.7998 25.7998 56.3994 46.7998 83.3994c-7.7998 -13.1992 -14.4004 -27 -19.7998 -42c-9 -25.7998 -16.2002 -58.1992 -7.2002 -93.5996
c7.7998 -30.5996 30.5996 -57 57 -84c-5.40039 15 -7.2002 29.4004 -9 40.7998c-0.599609 6.60059 -1.2002 12.6006 -1.2002 18c0 -2.39941 0.600586 -6 2.40039 -10.2002c2.39941 -7.7998 6.59961 -20.3994 15.5996 -39.5996
c7.7998 -16.2002 20.4004 -34.2002 31.7998 -48.5996zM351.4 206.4c34.1992 -69 117.6 -94.2002 118.199 -94.8008c1.2002 0 82.8008 25.8008 118.2 93c-1.7998 -6 -4.7998 -12.5996 -8.39941 -19.1992c-10.8008 -21.6006 -26.4004 -39.6006 -46.2002 -54
c-9.60059 -7.2002 -19.7998 -13.2002 -31.2002 -18.6006c-5.40039 -2.39941 -10.2002 -4.7998 -16.7998 -6.59961c-1.7998 -0.600586 -4.2002 -1.7998 -8.40039 -2.40039c-1.7998 -0.599609 -3 -1.2002 -4.2002 -1.2002l-2.39941 -0.599609l-0.600586 -0.599609
l-2.39941 1.19922c-1.2002 0 -2.40039 0.600586 -4.2002 1.2002c-4.2002 0.600586 -6.59961 1.7998 -8.40039 2.40039c-5.39941 1.7998 -11.3994 4.2002 -16.7998 7.2002c-10.7998 4.7998 -21 10.7998 -31.2002 18c-19.7998 14.3994 -35.3994 33 -46.7998 54
c-3 6.59961 -6 13.7998 -8.39941 21zM602.8 287.4c-1.7998 11.3994 -3.59961 23.3994 -7.7998 37.1992c11.4004 -21 19.7998 -42.5996 25.7998 -63.5996c9.60059 -36.5996 15.6006 -79.7998 -4.2002 -115.8c-48 -82.7998 -143.399 -108 -146.399 -108h-0.600586
c-3 0 -98.3994 25.2002 -146.399 108c-37.2002 66 15 167.399 21 178.2c-6.60059 -22.2002 -9.60059 -45 -10.2002 -67.8008c0 -6.59961 0.599609 -12.5996 1.2002 -19.1992c0.599609 -6.60059 0.599609 -12.6006 2.39941 -19.2002c1.80078 -11.4004 6 -24 12 -36.6006
c10.8008 -23.3994 27 -43.7998 48.6006 -60.5996c10.2002 -7.7998 21.5996 -13.7998 33 -20.4004c6 -3 12 -5.39941 18 -7.19922c3.59961 -1.80078 6.59961 -2.40039 9.59961 -3c0.600586 -0.600586 2.40039 -1.2002 4.7998 -1.80078
c0.600586 0 2.40039 -0.599609 4.80078 -1.19922h1.7998h1.2002c26.3994 6 49.7998 17.3994 70.1992 33.5996c21 16.2002 37.2002 36 48.6006 60.5996c5.39941 11.4004 9 23.4004 11.3994 36.6006c2.40039 12.5996 3.60059 25.2002 3.60059 38.3994
c0 11.4004 -0.600586 20.4004 -2.40039 31.8008zM439 558.6c-1.7998 52.8008 12 65.4004 21.5996 70.2002c12 4.7998 41.4004 6.60059 43.2002 -17.3994c1.7998 -22.8008 -19.2002 -23.4004 -24 -31.8008c-5.39941 -9 -5.39941 -18 -5.39941 -22.7998
c0 -4.2002 -1.2002 -17.3994 13.1992 -27c13.2002 -8.39941 7.80078 -24 4.80078 -28.2002c-4.2002 -6.59961 -7.2002 -13.1992 -2.40039 -20.3994c1.7998 -3 5.40039 -5.40039 9.59961 -7.2002c1.80078 -0.599609 3.60059 -1.2002 6 -1.2002
c1.80078 -17.3994 3 -34.2002 4.2002 -50.3994c1.7998 -28.2002 2.40039 -63 0.600586 -88.8008c-4.80078 -62.3994 -23.4004 -102 -42 -126.6c-10.2002 -14.4004 -22.2002 -25.7998 -34.8008 -34.2002l-0.599609 20.4004c7.2002 9 14.4004 17.3994 21 27
c6.59961 9.59961 12.5996 19.7998 18 30.5996c5.40039 10.2002 9.59961 21 12.5996 32.4004c3 12 3.60059 23.3994 5.40039 35.3994c1.2002 23.4004 1.2002 46.8008 0 70.2002c-0.599609 23.4004 -2.40039 46.2002 -4.2002 69.6006
c1.7998 -23.4004 2.40039 -46.2002 3 -69.6006c0.600586 -23.3994 0 -46.7998 -1.7998 -70.2002c-1.7998 -11.3994 -2.40039 -22.7998 -5.40039 -34.1992c-3.59961 -10.2002 -8.39941 -21 -13.7998 -31.8008c-9.59961 -18.5996 -21.5996 -35.3994 -35.3994 -51.5996
l-4.2002 105l0.599609 -0.599609c0 -0.600586 0 -0.600586 0.600586 -1.2002c1.7998 -11.4004 6.59961 -42 13.1992 -45c6.60059 -4.2002 10.2002 2.39941 4.80078 18.5996c-6.60059 21 -12 61.2002 -15 93.6006c-1.80078 16.1992 -2.40039 36.5996 -3 52.7998
l-1.2002 28.2002c3.59961 2.39941 6.59961 5.39941 9.59961 9c4.7998 6.59961 9 14.3994 9.60059 24c0 19.1992 -6.60059 32.3994 -8.40039 73.1992zM398.8 545.4c-4.7998 -16.2002 -9.59961 -32.4004 -15 -48.6006c-9 -27 -20.3994 -59.3994 -31.7998 -82.7998
c-27 -55.2002 -60 -85.2002 -85.7998 -101.4c-15 -9.59961 -30 -15.5996 -45 -18.5996l6.59961 19.2002c10.2002 5.39941 19.7998 10.7998 28.7998 17.3994c9.60059 6.60059 19.2002 13.2002 28.2002 21c9 7.80078 16.7998 16.2002 24 25.8008
c7.2002 9.59961 12.6006 19.1992 18 30.5996c10.2002 21 18.6006 43.2002 26.4004 64.7998c7.7998 22.2002 15 44.4004 22.2002 66.6006c-7.2002 -22.2002 -14.4004 -44.4004 -23.4004 -66c-9 -21.6006 -17.4004 -43.2002 -27.5996 -64.2002
c-5.40039 -10.2002 -10.8008 -20.4004 -18 -29.4004c-7.2002 -9 -15.6006 -17.3994 -24.6006 -24.5996c-15 -12.6006 -32.3994 -24 -51.5996 -34.2002l34.7998 98.4004c0.599609 -0.600586 0.599609 -0.600586 0.599609 -1.2002v-1.2002
c-3 -9.59961 -9 -40.2002 -4.19922 -46.7998c4.19922 -5.40039 10.7998 -0.600586 11.3994 16.2002c1.7998 21.5996 11.4004 60.5996 21 92.3994c4.2002 16.2002 10.7998 33.6006 16.2002 49.7998l9.59961 27c4.2002 1.2002 7.80078 3 12 4.80078
c6.60059 4.19922 13.8008 9.59961 18 18.5996c7.80078 17.4004 5.40039 33.5996 19.8008 70.7998c19.1992 49.2002 34.7998 57 46.1992 57c12.6006 0 40.2002 -7.7998 33.6006 -32.3994c-6 -21.6006 -27.6006 -15.6006 -34.7998 -19.8008
c-7.2002 -6.59961 -11.4004 -15 -13.2002 -19.1992c-1.7998 -3.60059 -7.2002 -16.2002 2.39941 -30.6006c9 -12.5996 -1.19922 -24.5996 -6 -27.5996c-6.59961 -4.2002 -12 -9 -10.1992 -18c0.599609 -4.7998 4.19922 -8.40039 6.59961 -10.7998
c1.7998 -1.80078 3 -2.40039 4.7998 -3zM712 306.6l7.2002 -21c-15 3 -30 9 -45.6006 19.2002c-26.3994 16.7998 -60 46.2002 -87 103.2c-11.3994 23.4004 -23.3994 56.4004 -32.3994 84.5996c-5.40039 16.2002 -10.2002 32.4004 -15 49.2002
c1.7998 0.600586 3 1.2002 4.7998 3c2.40039 2.40039 4.7998 5.40039 6.59961 10.7998c1.80078 7.80078 -3 13.8008 -9.59961 18c-5.40039 4.2002 -15.5996 15.6006 -6.59961 28.2002c10.7998 13.7998 3.59961 28.2002 2.39941 31.2002
c-1.7998 4.2002 -6 12.5996 -13.2002 19.2002c-7.19922 4.2002 -29.3994 -1.2002 -35.3994 20.3994c-6.60059 24.6006 21.5996 33 34.7998 33c11.4004 0 27 -8.39941 46.2002 -58.1992c14.3994 -38.4004 11.3994 -54 19.7998 -72c4.2002 -9 11.4004 -14.4004 18 -18.6006
l12.5996 -5.39941l9.60059 -27c5.39941 -16.2002 12 -34.8008 16.7998 -51c9.59961 -31.8008 19.2002 -72 21 -93.6006c0.599609 -17.3994 7.2002 -22.7998 11.4004 -16.2002c4.7998 6 -1.2002 36.6006 -4.2002 47.4004v1.2002c0 0.599609 0 0.599609 0.599609 0.599609
l34.7998 -98.3994c-18.5996 9 -34.7998 20.3994 -49.7998 33c-9 7.7998 -17.3994 15.5996 -24.5996 24.5996s-12.6006 19.2002 -18 29.4004c-11.4004 21 -18.6006 42.5996 -27.6006 64.7998c-9 21.5996 -16.1992 43.7998 -23.3994 66
c6.59961 -23.4004 13.2002 -45 22.2002 -66.6006c7.7998 -22.1992 16.1992 -43.7998 26.3994 -65.3994c4.7998 -10.2002 10.2002 -21 17.4004 -30c7.2002 -9.60059 15.5996 -18 24.5996 -25.7998c9 -7.80078 18 -15 28.2002 -21.6006
c8.40039 -6 17.4004 -11.3994 27 -16.2002z" />
  </g>

</svg>
