<?xml version="1.0" standalone="no"?>
<!DOCTYPE svg PUBLIC "-//W3C//DTD SVG 1.1//EN" "http://www.w3.org/Graphics/SVG/1.1/DTD/svg11.dtd" >
<svg xmlns="http://www.w3.org/2000/svg" xmlns:xlink="http://www.w3.org/1999/xlink" version="1.1" viewBox="-10 0 1066 1000">
  <g transform="matrix(1 0 0 -1 0 800)">
   <path fill="currentColor"
d="M895.9 547.75c-26.6006 -1.40039 -44.8008 0 -55.3008 4.90039c-10.5 4.89941 -20.2998 12.5996 -29.3994 23.0996c-5.60059 5.59961 -9.7998 16.7998 -17.5 11.9004c-5.60059 -5.60059 -37.1006 -32.9004 -65.1006 -49.7002
c-18.8994 -10.5 -26.5996 -16.7998 -39.8994 -32.9004c-4.90039 -5.59961 -8.40039 -7.7002 -13.2998 -12.5996c-9.10059 -3.5 -18.2002 23.0996 -56.7002 26.5996c-2.7998 0 -19.6006 -2.09961 -21.7002 0l-19.5996 18.9004
c-9.80078 9.09961 -15.4004 14.7002 -16.8008 18.2002c-2.09961 5.59961 -0.699219 11.8994 9.80078 20.2998c4.89941 3.5 20.2998 29.3994 28.6992 28c11.2002 0 33.6006 27.2998 42.7002 36.3994c11.2002 11.2002 24.5 22.4004 39.2002 33.6006
c14 10.5 39.9004 21.7002 79.0996 35c39.2002 13.2998 83.3008 21.7002 134.4 23.7998c29.4004 4.2002 54.5996 -42 56 -43.4004c14 -73.5 -4.2002 -120.399 -54.5996 -142.1zM869.3 576.45c27.2998 0 51.1006 23.7998 51.1006 51.7998
c0 28.7002 -23.8008 51.0996 -51.1006 51.0996c-30.0996 0 -51.7998 -22.3994 -51.7998 -51.0996c0 -28 21.7002 -51.7998 51.7998 -51.7998zM666.3 485.45c2.10059 -0.700195 3.5 -2.7998 0 0zM666.3 485.45c31.5 -31.5 25.2002 -85.4004 -6.2998 -115.5
c-11.9004 -13.2998 -28 -20.2998 -44.7998 -23.7998c-19.6006 -4.90039 -25.9004 -11.2002 -39.9004 -25.2002c-50.3994 -50.4004 -96.5996 -97.2998 -149.8 -144.9c-102.2 -88.8994 -235.9 -173.6 -378 -160.3c2.09961 2.09961 12.5996 18.2002 31.5 49
c18.9004 30.0996 33.5996 53.2002 45.5 69.2998c11.9004 15.4004 24.5 30.7998 37.7998 46.2002c42.7002 56 91.7002 98.7002 147.7 138.6l-52.5 -69.2998c-24.5 -32.8994 -40.5996 -54.5996 -48.2998 -66.5c-14.7002 -23.0996 -14 -25.8994 -5.60059 -23.7998
c4.90039 0.700195 8.40039 2.7998 11.9004 6.2998s19.5996 24.5 49.7002 63.7002l55.2998 73.5c36.4004 46.9004 82.5996 84.7002 121.1 130.2c3.5 4.89941 7.7002 11.8994 12.6006 14c13.2998 4.89941 21 2.09961 31.5 13.2998c7 9.09961 2.7998 20.2998 8.39941 30.7998
l27.3008 27.2998l28.6992 28.7002l23.1006 -24.5c11.2002 -11.2002 19.5996 -16.7998 24.5 -16.7998c16.7998 2.09961 53.8994 -3.5 68.5996 -20.2998zM423.4 268.45c20.2998 0 36.3994 16.0996 36.3994 36.3994c0 20.3008 -16.0996 36.4004 -36.3994 36.4004
c-20.3008 0 -36.4004 -16.0996 -36.4004 -36.4004c0 -20.2998 16.0996 -36.3994 36.4004 -36.3994zM594.9 378.35c30.7998 0 54.5996 25.9004 54.5996 53.9004c0 30.7998 -24.5 54.5996 -54.5996 54.5996c-30.1006 0 -54.6006 -23.7998 -54.6006 -54.5996
c0 -28 23.7998 -53.9004 54.6006 -53.9004zM455.6 607.95l-139.3 -118.3l51.1006 54.5996l98 97.2998c23.0996 23.1006 44.0996 42.7002 63.6992 58.7998c19.6006 16.8008 30.1006 24.5 32.2002 22.4004c3.5 -3.5 -29.3994 -42 -105.7 -114.8zM611.7 184.45l-139.3 -117.601
c7 7 87.5 93.8008 132.3 133c137.899 141.4 161.7 130.2 7 -15.3994zM771.3 227.85l-139.3 -118.3c7 7 87.5 93.7998 132.3 133c137.9 142.101 161.7 128.8 7 -14.7002z" />
  </g>

</svg>
