<?xml version="1.0" standalone="no"?>
<!DOCTYPE svg PUBLIC "-//W3C//DTD SVG 1.1//EN" "http://www.w3.org/Graphics/SVG/1.1/DTD/svg11.dtd" >
<svg xmlns="http://www.w3.org/2000/svg" xmlns:xlink="http://www.w3.org/1999/xlink" version="1.1" viewBox="-10 0 1904 1000">
  <g transform="matrix(1 0 0 -1 0 800)">
   <path fill="currentColor"
d="M1184.25 137.9l374.4 65.6494l159.25 57.2002l-146.25 -95.5498l-183.301 -101.4c-13.6494 -3.25 -85.7998 -27.2998 -99.4492 -29.25l206.05 118.3l-162.5 -50.6992l96.8496 53.2998l-447.85 -64.3506l165.1 40.3008l56.5498 40.2998l-605.149 46.1494l689.649 -22.0996
zM1287.6 540.25l-689.649 -22.0996l605.149 46.1494l-56.5498 40.2998l-165.1 40.3008l447.85 -64.3506l-96.8496 53.2998l162.5 -50.6992l-206.05 118.3c14.2998 -3.25 85.1494 -26 99.4492 -29.25l183.301 -101.4l146.25 -95.5498l-159.25 57.2002l-374.4 65.6494z
M605.75 351.75h-5.2002l-20.1494 -28.5996h-48.75l-23.4004 22.75v5.84961h-7.15039l-5.84961 -9.75l-228.8 8.4502l-11.7002 -11.7002c-53.9502 0 -86.4502 3.90039 -106.6 8.4502c-11.7002 1.9502 -20.1504 5.2002 -26 8.4502v9.75v9.09961
c5.84961 3.25 14.9492 5.84961 26.6494 8.4502c20.1504 4.5498 52 8.4502 105.95 8.4502l11.7002 -11.0508l228.8 7.80078l5.84961 -9.75h7.15039v5.84961l23.4004 22.75h48.75l20.1494 -28.5996h5.2002l2.59961 11.0498l164.45 -0.650391v-12.3496h65.6504l-32.5 41.5996
h-66.2998l42.25 18.8506h62.3994l20.7998 -24.0508h35.75l-23.3994 27.9502h37.0498c0 3.25 0 6.5 0.650391 9.10059c0.649414 4.5498 2.59961 9.75 8.44922 9.75c1.30078 0 2.60059 -0.650391 4.55078 -1.9502c2.59961 -2.60059 5.19922 -7.15039 5.19922 -16.9004h33.8008
l-69.5508 -75.3994l69.5508 -76.0508h-33.8008c0 -9.75 -2.59961 -14.2998 -5.19922 -16.25c-1.9502 -1.2998 -3.25 -1.94922 -4.55078 -1.94922c-5.84961 0 -7.7998 4.5498 -8.44922 9.09961c-0.650391 2.59961 -0.650391 5.84961 -0.650391 9.09961h-37.0498
l23.3994 27.9502h-35.75l-20.7998 -24.0498h-62.3994l-42.25 18.8496h66.2998l32.5 41.6006h-65.6504v-13h-164.45zM1032.8 392.05l-44.2002 48.75h35.75c-0.649414 3.25 0 6.5 0.650391 9.10059c0.650391 4.5498 3.25 9.09961 8.4502 9.09961
c1.9502 0 3.25 -0.650391 5.2002 -1.9502c2.59961 -1.9502 5.19922 -6.5 5.19922 -16.25l33.1504 -0.649414zM1033.45 271.15c-5.2002 0 -7.7998 4.5498 -8.4502 9.09961c-0.650391 2.59961 -1.2998 5.84961 -0.650391 9.75l-35.75 -0.650391l44.2002 48.75
l44.2002 -48.0996l-33.1504 -0.650391c0 -9.75 -2.59961 -14.2998 -5.19922 -16.25c-1.9502 -1.2998 -3.25 -1.94922 -5.2002 -1.94922zM932.05 364.1l46.1504 50.7002l46.1494 -50.7002l-46.1494 -50.0498zM1136.15 364.1l-46.1504 -50.0498l-46.1504 50.0498
l46.1504 50.7002zM1582.7 370.6l-35.75 10.4004l22.0996 -15.5996l-22.0996 -16.25l35.75 10.3994l189.149 4.5498l-208 -44.8496l-2.59961 20.7998c-16.25 -1.9502 -35.75 -7.14941 -52 -11.7002c-9.75 -2.59961 -18.8496 -5.84961 -28.5996 -9.09961l-5.2002 15.5996
l-171.601 -3.25l22.1006 -7.14941l199.55 -63.0498l-261.95 11.6992l-23.3994 29.9004l-74.1006 14.2998l22.1006 -27.2998l-34.4502 -0.650391c0 -9.75 -2.60059 -14.2998 -5.2002 -16.25c-1.9502 -1.2998 -3.25 -1.94922 -5.2002 -1.94922
c-5.2002 0 -7.7998 4.5498 -8.4502 9.09961c-0.649414 2.59961 -1.2998 5.84961 -0.649414 9.75l-35.1006 -0.650391l63.0508 74.75l-63.0508 76.7002h35.1006c-0.650391 3.25 0 6.5 0.649414 9.10059c0.650391 4.5498 3.25 9.09961 8.4502 9.09961
c1.9502 0 3.25 -0.650391 5.2002 -1.9502c2.59961 -1.9502 5.2002 -6.5 5.2002 -16.25l34.4502 -0.649414l-22.1006 -27.3008l74.1006 14.3008l23.3994 29.8994l261.95 11.7002l-221.65 -70.2002h0.650391h-1.2998l172.25 -3.25l5.2002 15.6006
c9.75 -3.25 18.8496 -6.5 28.5996 -9.10059c16.25 -4.5498 35.75 -9.75 52 -11.7002l2.59961 20.8008l208 -44.2002z" />
  </g>

</svg>
