<?xml version="1.0" standalone="no"?>
<!DOCTYPE svg PUBLIC "-//W3C//DTD SVG 1.1//EN" "http://www.w3.org/Graphics/SVG/1.1/DTD/svg11.dtd" >
<svg xmlns="http://www.w3.org/2000/svg" xmlns:xlink="http://www.w3.org/1999/xlink" version="1.1" viewBox="-10 0 857 1000">
  <g transform="matrix(1 0 0 -1 0 800)">
   <path fill="currentColor"
d="M603 452.15c-66.5 -67.9004 -112.7 -114.101 -137.9 -139.301l-18.1992 -18.1992l-6.30078 -5.60059l-12.5996 6.2998l4.90039 -13.2998l-1.40039 -2.09961l4.90039 -2.10059c11.8994 -5.59961 23.7998 -9.7998 37.0996 -13.2998
c9.09961 -2.09961 18.2002 -2.7998 25.9004 -2.09961c24.5 2.7998 37.7998 18.8994 37.0996 46.2002c0 10.5 -2.7998 23.0996 -7.7002 37.7998l33.6006 33.5996l4.19922 -6.2998l3.5 -7.7002l7.7002 -15.3994l6.2998 -15.4004l5.60059 -14.7002
c6.2998 -20.2998 9.7998 -37.7998 9.09961 -53.2002c-2.09961 -30.7998 -15.3994 -52.5 -42.7002 -60.1992c-12.5996 -3.5 -28.6992 -4.2002 -47.5996 -1.40039c-17.5 3.5 -37.0996 9.09961 -58.7998 19.5996c-42 20.3008 -88.2002 54.6006 -127.4 95.9004
c-23.0996 23.7998 -43.3994 49 -59.5 75.5996l7.7002 -12.5996c2.7998 -4.90039 6.2998 -8.40039 9.09961 -13.2998c3.5 -4.90039 6.30078 -9.7998 9.80078 -13.2998c6.2998 -8.40039 12.5996 -17.5 20.2998 -25.9004l23.0996 -25.2002l25.2002 -23.0996
c8.40039 -7.7002 16.7998 -14.7002 25.9004 -21c8.39941 -7.7002 17.5 -13.2998 25.8994 -18.9004l13.2998 -8.39941c4.90039 -2.80078 8.40039 -5.60059 13.3008 -7.7002l13.2998 -7l12.5996 -6.2998l7 -2.80078c2.10059 -2.09961 3.5 -0.699219 5.60059 -2.7998
l12.5996 -4.2002c32.9004 -10.5 60.9004 -13.2998 82.5996 -4.89941c21.7002 7.7002 33.6006 24.5 37.1006 49c2.7998 25.8994 -2.7998 56 -16.7998 89.5996c-6.30078 14.7002 -14 30.1006 -23.1006 46.9004l4.2002 4.89941c11.2002 -18.8994 20.2998 -37.0996 28 -54.5996
c14.7002 -36.4004 21 -67.9004 18.2002 -94.5c-3.5 -25.2002 -16.7998 -44.0996 -39.2002 -52.5c-21.7002 -8.40039 -51.7998 -6.2998 -86.0996 4.90039l-13.3008 4.89941l-6.2998 2.10059l-7 3.5l-14 6.2998l-13.2998 7.7002
c-4.90039 2.09961 -9.09961 4.19922 -14 7.69922c-4.90039 2.80078 -9.7998 5.60059 -14.7002 9.10059c-9.09961 6.2998 -18.8994 11.8994 -28 19.5996l-27.2998 23.1006c-9.09961 7.69922 -18.2002 15.3994 -26.5996 24.5c-9.10059 8.39941 -16.8008 17.5 -25.2002 26.5996
c-7.7002 9.09961 -15.4004 18.9004 -21.7002 28c-4.90039 4.90039 -7.7002 9.09961 -10.5 14l-9.7998 14l-8.40039 14.7002l-7.7002 14c-10.5 18.8994 -16.7998 36.3994 -21.6992 53.2002c-10.5 33.5996 -8.40039 63 5.59961 80.5
c14.7002 17.5 39.2002 23.0996 72.0996 16.0996c6.30078 -0.700195 11.9004 -2.7998 19.6006 -4.90039c4.89941 -2.09961 9.09961 -2.7998 14 -4.89941c6.2998 -2.7998 11.8994 -5.60059 19.5996 -8.40039c18.9004 -10.5 37.7998 -21 56.7002 -35.7002
c0.700195 0 1.40039 -0.699219 2.09961 -1.39941h2.10059l-14 10.5c-7.7002 6.2998 -16.1006 11.2002 -23.7998 16.7998c-7.7002 4.90039 -16.1006 9.09961 -23.8008 12.5996c-7.69922 4.90039 -14.6992 7.7002 -22.3994 10.5
c-4.90039 2.10059 -7.7002 2.10059 -11.2002 4.2002c-4.90039 2.10059 -7.7002 2.7998 -11.2002 3.5l-10.5 2.7998l-10.5 1.40039l-4.89941 0.700195h-4.2002h-9.7998c-23.1006 -0.700195 -41.3008 -9.10059 -50.4004 -28c-10.5 -16.7998 -9.7998 -42 -2.09961 -70.7002
c8.39941 -30.0996 24.5 -63 46.8994 -95.9004c22.4004 -33.5996 51.1006 -65.7998 82.6006 -95.8994c32.1992 -30.1006 65.0996 -54.6006 99.3994 -72.7998c32.9004 -18.9004 65.1006 -28.7002 93.1006 -33.6006c28.6992 -4.2002 51.7998 -0.700195 69.2998 10.5
c17.5 11.9004 27.2998 29.4004 30.0996 53.2002c6.2998 42 -14 102.9 -53.2002 164.5l11.9004 11.9004c22.4004 -34.3008 41.2998 -67.9004 53.2002 -100.801c14.7002 -36.3994 20.2998 -70 18.2002 -97.2998c-2.80078 -27.2998 -14 -48.2998 -32.9004 -61.5996
s-44.7998 -18.2002 -77 -14l-11.9004 1.39941l-12.5996 2.80078c-4.90039 2.09961 -8.40039 1.39941 -13.2998 3.5l-13.2998 4.19922c-8.40039 2.80078 -18.2002 7 -27.3008 10.5l-14.6992 7l-14 7c-39.2002 21.7002 -79.1006 50.4004 -117.601 84.7002
c-37.0996 34.2998 -72.0996 73.5 -99.3994 113.4c-28 40.5996 -47.6006 79.0996 -58.8008 116.2c-10.5 35.6992 -10.5 67.8994 0.700195 89.5996c10.5 22.4004 30.7998 35 60.9004 37.0996h11.8994h5.60059l6.2998 -0.699219c4.90039 -0.700195 7.7002 0 12.5996 -2.10059
l13.3008 -2.7998c4.89941 -0.700195 9.09961 -2.09961 13.2998 -4.2002l14.7002 -4.2002c10.5 -4.89941 18.8994 -7.69922 29.3994 -13.2998c10.5 -4.89941 20.2998 -10.5 30.7998 -16.7998s20.3008 -12.5996 30.8008 -20.2998
c5.59961 -4.90039 10.5 -7.7002 16.0996 -12.6006l-0.700195 2.10059l7.7002 1.39941c-34.2998 27.3008 -70 49 -104.3 65.1006c-34.2998 16.0996 -67.2002 24.5 -94.5 25.2002c-28 0 -49.7002 -7 -64.4004 -21.7002c-30.0996 -30.1006 -28.7002 -88.9004 1.40039 -158.9
c28.7002 -69.2998 85.3994 -145.6 153.3 -210c34.2998 -31.5 70.7002 -60.2002 107.1 -82.5996c35.7002 -23.1006 72.1006 -40.6006 105 -51.7998c67.2002 -22.4004 122.5 -19.6006 153.301 10.5c15.3994 14 24.5 34.2998 27.2998 60.1992
c3.5 25.2002 -0.700195 55.3008 -9.7998 88.2002c-14.7002 51.1006 -44.1006 109.2 -85.4004 167.3l0.700195 0.700195c42 -58.7998 70.7002 -116.2 86.7998 -168.7c9.09961 -32.8994 13.2998 -63.6992 10.5 -89.5996s-11.9004 -46.2002 -27.2998 -60.9004
c-30.7998 -30.0996 -86.7998 -34.2998 -154 -11.8994c-34.2998 11.2002 -70 28.7002 -107.101 52.5c-37.7998 23.0996 -74.1992 51.0996 -108.5 84c-69.2998 63.7002 -128.8 143.5 -158.199 214.2c-14.7002 35.6992 -23.1006 68.5996 -23.8008 96.5996
c-0.699219 28.7002 6.30078 50.4004 22.4004 66.5c15.4004 16.0996 37.0996 23.7998 65.7998 23.0996c28 0 61.6006 -9.09961 97.2998 -25.1992c35.7002 -16.8008 74.2002 -39.2002 110.601 -69.3008c2.09961 -0.699219 1.39941 -2.09961 3.5 -2.7998l4.2002 0.700195
l3.5 2.7998c2.7998 2.10059 5.59961 4.2002 8.39941 7c-22.3994 20.2998 -45.5 38.5 -70 54.6006c-35.7002 24.5 -70 41.2998 -102.899 53.1992c-32.9004 11.9004 -63 17.5 -89.6006 16.8008c-52.5 -2.10059 -84.7002 -30.1006 -92.3994 -79.8008
c-3.5 -24.5 -0.700195 -53.1992 8.39941 -85.3994c9.10059 -32.9004 25.2002 -67.9004 45.5 -103.601c41.2998 -72.0996 101.5 -145.6 171.5 -207.899c69.2998 -63.7002 144.9 -111.3 214.2 -138.601c-67.9004 25.2002 -144.9 72.8008 -215.6 136.5
c-70.7002 61.6006 -133 136.5 -177.101 211.4c-21.7002 36.4004 -37.7998 72.7998 -48.2998 106.4c-10.5 33.5996 -14.7002 64.3994 -11.2002 90.2998c5.60059 53.2002 38.5 84 93.7998 87.5c27.3008 2.09961 58.1006 -3.5 93.8008 -15.4004
c35.6992 -11.8994 72.0996 -30.7998 109.899 -55.2998c27.2998 -18.9004 53.9004 -38.5 79.7998 -61.5996c7.7002 6.2998 14 13.2998 22.4004 21c-34.2998 30.0996 -70 58.0996 -105.7 81.1992c36.4004 -23.7998 71.4004 -51.0996 105.7 -81.1992
c4.2002 3.5 8.40039 7.69922 11.9004 11.8994c28.6992 28.7002 37.7998 42 45.5 51.1006c7.69922 8.39941 16.0996 6.2998 23.7998 18.1992c4.89941 8.40039 4.2002 18.2002 3.5 24.5c0 2.10059 1.39941 2.80078 4.2002 0.700195l32.8994 -35l4.2002 -14
c2.09961 -7.7002 3.5 -13.2998 3.5 -16.7998c-0.700195 -5.59961 -4.2002 -11.2002 -7 -14.7002l-5.59961 -5.59961l-8.40039 -2.7998l-61.5996 -62.3008c13.2998 -13.2998 24.5 -25.8994 35.6992 -39.1992c103.601 105 143.5 156.8 161.7 184.8
c4.90039 7.7002 9.7998 16.0996 14.7002 28c2.09961 4.89941 3.5 9.09961 4.2002 13.2998l1.39941 5.59961l2.80078 -10.5c2.09961 -7.69922 3.5 -17.5 5.59961 -32.1992c2.09961 -16.8008 1.40039 -30.1006 -0.700195 -38.5l-4.2002 -12.6006
c-7.69922 -14 -17.5 -30.0996 -30.7998 -49c-23.0996 -32.8994 -59.5 -78.3994 -118.3 -137.899zM298.5 487.85c-11.9004 -11.1992 -14 -32.1992 -3.5 -59.5l9.09961 -20.2998c4.90039 3.5 7.7002 7 11.2002 10.5c7.7002 7.7002 12.6006 13.2998 18.2002 18.2002
l18.9004 18.9004l7 6.2998l12.5996 -5.60059l-4.90039 13.3008l7 7l7 -2.80078c4.90039 -0.699219 7 0.700195 7 4.2002c0 4.90039 -3.5 13.2998 -8.39941 21l-7.7002 13.2998c2.09961 0 4.90039 0 7 -0.699219l15.4004 -2.10059
c-13.3008 8.40039 -24.5 16.1006 -37.8008 21.7002c-5.59961 3.5 -11.8994 5.59961 -17.5 7.7002l18.9004 -49c-25.9004 10.5 -48.2998 9.09961 -59.5 -2.10059zM435.7 377.25l9.09961 1.40039c-1.39941 -1.40039 -0.700195 -1.40039 1.40039 0.699219
c4.89941 3.5 14 14 41.2998 41.3008c-4.90039 6.2998 -9.7998 12.5996 -15.4004 18.8994l15.4004 14.7002l-2.7998 9.7998l9.09961 9.10059l12.6006 -14.7002c3.5 -2.7998 6.2998 -6.2998 8.39941 -9.7998c1.40039 0.699219 2.7998 2.09961 4.90039 4.19922
c-7.7002 8.40039 -14 16.8008 -21.7002 24.5l4.2002 4.2002c7.7002 -8.39941 14.7002 -16.0996 21 -24.5c4.89941 3.5 7 7 11.8994 11.9004c-6.2998 8.39941 -13.2998 16.0996 -21 24.5l10.5 9.7998c7.7002 -7.7002 13.3008 -15.4004 21 -23.7998l12.6006 12.5996
l8.39941 8.40039l-35.6992 39.2002l-74.2002 -74.9004l1.39941 -7.7002l-23.0996 -24.5l-9.09961 2.7998l-43.4004 -43.3994l-18.2002 -18.2002l-9.09961 -0.700195c0.700195 1.40039 0.700195 1.40039 0 0.700195l-16.1006 -16.7998c3.5 -4.90039 7 -9.10059 11.9004 -14
c8.40039 -8.40039 16.7998 -16.7998 25.9004 -24.5l41.2998 42zM190.7 293.25c13.2998 -15.4004 27.2998 -30.0996 40.5996 -44.7998c-100.8 -104.3 -142.1 -154.7 -158.899 -182.7c-5.60059 -8.40039 -10.5 -16.7998 -15.4004 -28
c-2.09961 -4.90039 -3.5 -9.7998 -4.2002 -14l-1.39941 -5.59961c-0.700195 2.7998 -2.10059 6.2998 -2.80078 10.5c-2.09961 7.69922 -3.5 16.7998 -5.59961 32.8994c-2.09961 16.7998 -1.40039 29.4004 0.700195 37.7998c0.700195 4.90039 2.09961 9.80078 4.2002 13.3008
c7.69922 13.2998 17.5 28.6992 30.0996 46.8994c21.7002 30.7998 56.7002 74.9004 112.7 133.7zM207.5 148.35l60.9004 62.3008c16.0996 -15.4004 32.1992 -30.1006 48.2998 -44.1006l-12.6006 -12.5996c-30.0996 -28 -37.7998 -42 -45.5 -50.4004
c-7.69922 -9.09961 -16.0996 -7 -23.7998 -18.8994c-4.89941 -8.40039 -4.2002 -18.2002 -3.5 -23.8008c0 -3.5 -1.39941 -3.5 -4.2002 -0.699219l-32.8994 34.2998l-4.2002 14c-2.09961 7.7002 -4.2002 14.7002 -3.5 17.5c0.700195 5.59961 4.2002 10.5 7 14
l5.59961 5.59961z" />
  </g>

</svg>
