<?xml version="1.0" standalone="no"?>
<!DOCTYPE svg PUBLIC "-//W3C//DTD SVG 1.1//EN" "http://www.w3.org/Graphics/SVG/1.1/DTD/svg11.dtd" >
<svg xmlns="http://www.w3.org/2000/svg" xmlns:xlink="http://www.w3.org/1999/xlink" version="1.1" viewBox="-10 0 1068 1000">
  <g transform="matrix(1 0 0 -1 0 800)">
   <path fill="currentColor"
d="M538.335 378.96l58.5898 -34.6494c1.88965 -0.630859 1.88965 -2.52051 0 -3.15039l-58.5898 -34.6494c-1.88965 -0.630859 -4.41016 -0.630859 -6.2998 0l-58.5898 34.6494c-1.88965 0.629883 -1.88965 2.51953 0 3.15039l58.5898 34.6494
c1.88965 0.629883 4.41016 0.629883 6.2998 0zM467.775 419.91l58.5889 -34.0205c1.89062 -1.25977 1.89062 -2.51953 0 -3.7793l-58.5889 -34.0205c-1.88965 -1.25977 -3.15039 -0.629883 -3.15039 1.89062v68.0391c0 2.52051 1.26074 3.15039 3.15039 1.89062z
M532.035 389.04l-58.5898 34.6494c-1.88965 0.629883 -1.88965 2.52051 0 3.15039l58.5898 34.6494c1.88965 0.630859 4.41016 0.630859 6.2998 0l58.5898 -34.6494c1.88965 -0.629883 1.88965 -2.52051 0 -3.15039l-58.5898 -34.6494
c-1.88965 -0.629883 -4.41016 -0.629883 -6.2998 0zM543.375 385.89l58.5898 34.0205c1.89062 1.25977 3.14941 0.629883 3.14941 -1.89062v-68.0391c0 -2.52051 -1.25879 -3.15039 -3.14941 -1.89062l-58.5898 34.0205c-1.88965 1.25977 -1.88965 2.51953 0 3.7793z
M765.765 382.739l-106.47 -22.0498c-10.0801 -59.2197 -62.3701 -102.689 -124.109 -102.689c-61.7402 0 -114.03 43.4697 -124.11 102.689l-105.84 22.0498h-6.2998l3.14941 0.630859l-3.14941 0.629883h6.2998l105.84 21.4199
c10.0801 59.8496 62.3701 104.58 124.11 104.58c61.7393 0 114.029 -44.7305 124.109 -104.58l106.47 -21.4199h6.2998l-3.14941 -0.629883l3.14941 -0.630859h-6.2998zM535.186 275.64c59.8496 0 108.359 48.5107 108.359 108.36s-48.5098 108.36 -108.359 108.36
c-59.8506 0 -108.36 -48.5107 -108.36 -108.36s48.5098 -108.36 108.36 -108.36zM732.375 41.9102l-62.3701 85.0498c-38.4297 -10.0801 -78.75 -16.3799 -121.59 -17.0098l10.0801 -54.8105l-23.9395 -39.0596l-23.3105 39.0596l10.0801 54.8105
c-42.8398 0.629883 -83.1602 6.92969 -121.59 17.0098l-62.3711 -85.0498l40.3213 91.9795c-132.931 42.21 -225.541 139.23 -225.541 250.11c0 112.14 92.6104 206.64 225.541 250.11l-40.3213 91.9795l62.3711 -85.0498c38.4297 10.0801 78.75 16.3799 121.59 17.0098
l-10.0801 54.8105l23.3105 39.0596l23.9395 -39.0596l-10.0801 -54.8105c42.8398 -0.629883 83.1602 -6.92969 121.59 -17.0098l62.3701 85.0498l-40.3193 -91.9795c132.93 -43.4707 225.539 -137.971 225.539 -250.11c0 -110.88 -92.6094 -207.9 -225.539 -250.11z
M534.556 184.29l11.9697 -66.1504c40.9492 1.89062 78.75 10.71 114.03 26.46l-39.6914 90.0898l59.2207 -80.6396c41.5801 23.3105 74.9707 53.5498 99.54 90.7197c-23.3105 -24.5693 -52.29 -42.8398 -85.6797 -55.4395c65.5195 37.1699 109.619 110.25 109.619 194.67
c0 85.6797 -44.0996 157.5 -109.619 194.67c33.3896 -12.6006 62.3691 -30.8701 85.6797 -55.4395c-24.5693 37.1699 -57.96 67.4092 -99.54 90.7197l-59.2207 -80.6396l39.6914 90.0898c-35.2803 15.75 -73.0811 24.5693 -114.03 26.46l-11.9697 -66.1504l-11.9707 66.1504
c-40.3203 -1.89062 -78.1201 -10.71 -113.399 -26.46l39.6895 -90.0898l-59.2197 80.6396c-42.8408 -22.6807 -76.8604 -55.4395 -102.061 -93.8701c24.5703 25.8301 54.1807 45.3594 88.8301 58.5898c-65.5195 -37.1699 -109.619 -108.99 -109.619 -194.67
c0 -84.4199 44.0996 -157.5 109.619 -194.67c-34.6494 13.2305 -64.2598 32.7598 -88.8301 58.5898c25.2002 -38.4307 59.2197 -71.1895 102.061 -93.8701l59.2197 80.6396l-39.6895 -90.0898c35.2793 -15.75 73.0791 -24.5693 113.399 -26.46zM134.505 384
c0 -84.4199 44.1006 -157.5 109.62 -194.67c-85.0498 31.5 -144.9 107.73 -144.9 194.67s59.8506 163.17 144.9 194.67c-65.5195 -37.1699 -109.62 -108.99 -109.62 -194.67zM826.245 578.67c85.6797 -32.1299 145.53 -107.101 145.53 -194.67
c0 -87.5703 -59.8506 -162.54 -145.53 -194.67c65.5195 36.54 110.25 110.25 110.25 194.67c0 85.6797 -44.7305 157.5 -110.25 194.67z" />
  </g>

</svg>
