<!-- Generated by IcoMoon.io -->
<svg version="1.1" xmlns="http://www.w3.org/2000/svg" width="32" height="32" viewBox="0 0 32 32">
<title>gambit_dazzle</title>
<path d="M10.616 10.211c-0.007-0-0.013-0.003-0.018-0.007v0c-0.003-0.006-0.007-0.010-0.013-0.013l-0-0-1.047-1.047c-0.005-0.005-0.007-0.011-0.007-0.018s0.003-0.013 0.007-0.018v0c0.689-0.725 0.52-1.724-0.041-2.271-0.525-0.512-1.519-0.658-2.209-0.003-0.005 0.004-0.011 0.007-0.018 0.007s-0.013-0.003-0.018-0.007v0l-1.054-1.054c-0.005-0.005-0.007-0.011-0.007-0.018s0.003-0.013 0.007-0.018v0c0.535-0.559 1.313-0.887 2.135-0.902 0.020-0 0.043-0.001 0.066-0.001 1.738 0 3.147 1.409 3.147 3.147 0 0.864-0.348 1.647-0.912 2.216l0-0c-0.005 0.005-0.011 0.008-0.018 0.008v0zM9.592 9.125l1.024 1.024c0.541-0.557 0.874-1.319 0.874-2.158 0-1.712-1.388-3.1-3.1-3.1-0.020 0-0.039 0-0.059 0.001l0.003-0c-0.799 0.015-1.556 0.332-2.082 0.869l1.019 1.018c0.711-0.656 1.723-0.503 2.26 0.021 0.291 0.287 0.478 0.678 0.503 1.113l0 0.004c0.001 0.025 0.002 0.055 0.002 0.085 0 0.435-0.169 0.831-0.446 1.124l0.001-0.001z"></path>
<path d="M8.030 11.529c-0.132-0-0.262-0.008-0.39-0.023l0.016 0.001c-0.347-0.043-0.662-0.133-0.955-0.265l0.021 0.008c-0.479-0.203-0.885-0.527-1.239-0.988-0.336-0.431-0.558-0.966-0.611-1.55l-0.001-0.011c-0.049-0.525 0.014-1.012 0.188-1.445 0.183-0.457 0.413-0.808 0.704-1.076 0.005-0.004 0.011-0.007 0.017-0.007 0.002 0 0.005 0 0.007 0.001l-0-0c0.002-0 0.004-0.001 0.006-0.001 0.007 0 0.013 0.003 0.018 0.007v0l1.054 1.054c0.005 0.005 0.008 0.011 0.008 0.018v0c-0 0.007-0.003 0.013-0.008 0.018v0c-0.587 0.584-0.614 1.533-0.060 2.159 0.294 0.333 0.691 0.529 1.117 0.551s0.85-0.135 1.186-0.443c0.005-0.004 0.011-0.007 0.018-0.007s0.013 0.003 0.018 0.007v0l1.060 1.060c0.005 0.005 0.007 0.011 0.007 0.018s-0.003 0.013-0.007 0.018v0c-0.093 0.090-0.193 0.175-0.298 0.252l-0.008 0.006c-0.562 0.424-1.188 0.637-1.866 0.637zM5.785 6.228c-0.279 0.261-0.502 0.604-0.679 1.047-0.171 0.426-0.233 0.904-0.185 1.422 0.053 0.585 0.27 1.111 0.606 1.541l-0.005-0.007c0.349 0.454 0.748 0.772 1.219 0.972 0.268 0.122 0.579 0.21 0.904 0.251l0.016 0.002c0.81 0.090 1.552-0.114 2.205-0.605 0.105-0.077 0.197-0.154 0.285-0.236l-0.002 0.001-1.025-1.025c-0.344 0.307-0.771 0.463-1.205 0.44-0.44-0.023-0.85-0.225-1.153-0.568-0.566-0.64-0.544-1.606 0.045-2.211z"></path>
<path d="M15.637 8.104c-0.015 0-0.031 0-0.046 0-0.029-0.002-0.059-0.005-0.087-0.008l-0.041-0.004c-0.709-0.069-1.32-0.333-1.815-0.784-0.753-0.686-1.106-1.549-1.051-2.569 0.021-0.386 0.121-0.767 0.307-1.164 0.205-0.44 0.525-0.826 0.95-1.148 0.282-0.216 0.614-0.387 0.972-0.492l0.021-0.005c0.101-0.029 0.232-0.057 0.364-0.079l0.022-0.003c0.070-0.012 0.143-0.025 0.214-0.040 0.002-0 0.004-0.001 0.006-0.001s0.004 0 0.006 0.001l-0-0c0.001-0 0.002-0 0.003-0s0.002 0 0.003 0h0.247c0.014 0 0.025 0.011 0.025 0.025v0 1.498c-0 0.007-0.003 0.013-0.008 0.018v0c-0.005 0.004-0.011 0.007-0.018 0.007h-0.008c-0.72 0-1.512 0.542-1.568 1.55-0.020 0.365 0.096 0.719 0.335 1.022 0.308 0.39 0.726 0.602 1.242 0.631 0.014 0 0.025 0.011 0.025 0.025v0 1.494c0 0.014-0.011 0.025-0.025 0.025v0h-0.076zM15.459 1.857h-0.001c-0.072 0.015-0.145 0.028-0.215 0.041-0.153 0.024-0.281 0.053-0.408 0.087l0.027-0.006c-0.374 0.109-0.699 0.276-0.984 0.493l0.007-0.005c-0.418 0.317-0.733 0.697-0.935 1.129-0.183 0.392-0.282 0.767-0.302 1.146-0.054 1.004 0.294 1.855 1.035 2.529 0.487 0.443 1.088 0.702 1.785 0.771l0.041 0.004c0.028 0.003 0.057 0.006 0.085 0.008s0.051 0 0.078 0h0.015v-1.444c-0.52-0.035-0.943-0.254-1.255-0.649-0.247-0.313-0.367-0.678-0.346-1.056 0.025-0.457 0.213-0.872 0.53-1.168 0.28-0.263 0.656-0.426 1.070-0.432h0.001v-1.447h-0.222c-0.001 0-0.003 0-0.004 0s-0.002-0-0.003-0h0z"></path>
<path d="M8.081 15.727h-1.489c0 0-0 0-0 0-0.014 0-0.025-0.011-0.025-0.024v-0c-0.046-0.939-0.792-1.536-1.487-1.571-0.457-0.023-0.851 0.109-1.173 0.392-0.345 0.303-0.528 0.7-0.544 1.179 0 0.014-0.011 0.025-0.025 0.025v0h-1.49c-0 0-0 0-0 0-0.013 0-0.024-0.010-0.025-0.023v-0c-0.017-0.163-0.005-0.336 0.037-0.547 0.134-0.667 0.435-1.231 0.894-1.676 0.387-0.374 0.805-0.624 1.278-0.762 0.206-0.061 0.449-0.109 0.699-0.135l0.017-0.001c0.001-0 0.003-0 0.005-0s0.003 0 0.005 0l-0-0c0.001-0 0.002-0 0.003-0s0.002 0 0.003 0h-0c0.305-0.007 0.629-0.003 0.946 0.078 0.489 0.127 0.915 0.352 1.275 0.653l-0.005-0.004c0.495 0.411 0.829 0.922 1.020 1.564 0.036 0.119 0.080 0.268 0.086 0.412 0.003 0.051 0.009 0.097 0.017 0.143l-0.001-0.008c0.014 0.091 0.029 0.185 0.005 0.284-0.003 0.011-0.013 0.020-0.025 0.020-0 0-0 0-0.001 0h0zM6.616 15.676h1.444c0.016-0.082 0.004-0.161-0.010-0.245-0.008-0.040-0.014-0.088-0.017-0.137l-0-0.004c-0.006-0.138-0.049-0.283-0.084-0.4-0.188-0.632-0.517-1.135-1.004-1.539-0.349-0.292-0.768-0.513-1.227-0.633l-0.022-0.005c-0.311-0.080-0.632-0.084-0.932-0.076-0.001 0-0.002 0-0.003 0s-0.002-0-0.004-0l0 0c-0.001 0-0.001 0-0.002 0s-0.001-0-0.002-0h0c-0.264 0.026-0.504 0.074-0.736 0.141l0.029-0.007c-0.464 0.135-0.875 0.38-1.257 0.748-0.452 0.437-0.748 0.992-0.88 1.649-0.027 0.117-0.043 0.25-0.043 0.388 0 0.042 0.001 0.084 0.004 0.125l-0-0.006h1.443c0.022-0.482 0.21-0.883 0.56-1.191 0.332-0.292 0.739-0.428 1.209-0.404 0.71 0.035 1.473 0.642 1.532 1.595z"></path>
<path d="M23.994 11.533c-0 0-0 0-0.001 0-0.863 0-1.644-0.349-2.211-0.913l0 0c-0.005-0.005-0.007-0.011-0.007-0.018s0.003-0.013 0.007-0.018v0c0.002-0.002 0.005-0.004 0.007-0.005l0-0c0.001-0.003 0.003-0.006 0.005-0.008v0l1.047-1.047c0.005-0.005 0.011-0.007 0.018-0.007s0.013 0.003 0.018 0.007v0c0.725 0.689 1.724 0.52 2.271-0.041 0.512-0.525 0.658-1.519 0.003-2.209-0.004-0.005-0.007-0.011-0.007-0.018s0.003-0.013 0.007-0.018v0l1.054-1.054c0.005-0.005 0.011-0.007 0.018-0.007s0.013 0.003 0.018 0.007v0c0.559 0.535 0.887 1.313 0.902 2.135 0 0.016 0 0.034 0 0.053 0 1.728-1.387 3.132-3.108 3.16l-0.003 0zM21.836 10.602c0.557 0.541 1.319 0.874 2.158 0.874 1.712 0 3.1-1.388 3.1-3.1 0-0.020-0-0.039-0.001-0.059l0 0.003c-0.015-0.799-0.33-1.556-0.869-2.082l-1.019 1.019c0.656 0.711 0.503 1.723-0.021 2.26-0.287 0.291-0.678 0.478-1.113 0.503l-0.004 0c-0.025 0.001-0.055 0.002-0.084 0.002-0.435 0-0.831-0.17-1.125-0.446l0.001 0.001z"></path>
<path d="M21.368 10.196c-0 0-0 0-0 0-0.007 0-0.013-0.003-0.018-0.007v0c-0.090-0.093-0.175-0.193-0.252-0.299l-0.006-0.008c-0.5-0.664-0.707-1.418-0.615-2.24 0.043-0.347 0.133-0.662 0.264-0.955l-0.008 0.021c0.203-0.479 0.528-0.885 0.988-1.239 0.431-0.336 0.966-0.558 1.549-0.611l0.012-0.001c0.526-0.049 1.012 0.014 1.445 0.188 0.457 0.183 0.808 0.413 1.076 0.704 0.004 0.005 0.007 0.011 0.007 0.017 0 0.002-0 0.004-0.001 0.006l0-0c0 0.002 0.001 0.004 0.001 0.006 0 0.007-0.003 0.013-0.008 0.018v0l-1.054 1.054c-0.005 0.005-0.011 0.008-0.018 0.008h-0c-0.007-0-0.013-0.003-0.018-0.008v0c-0.584-0.588-1.533-0.614-2.16-0.060-0.317 0.275-0.524 0.67-0.551 1.113l-0 0.004c-0.022 0.428 0.135 0.85 0.444 1.186 0.004 0.005 0.007 0.011 0.007 0.018s-0.003 0.013-0.007 0.018v0l-1.061 1.060c-0.005 0.005-0.011 0.007-0.018 0.007v0zM23.621 4.891q-0.164 0-0.333 0.016c-0.585 0.053-1.111 0.27-1.541 0.606l0.006-0.005c-0.454 0.349-0.772 0.748-0.973 1.219-0.121 0.268-0.21 0.579-0.251 0.905l-0.002 0.016c-0.090 0.81 0.113 1.552 0.605 2.205 0.077 0.105 0.154 0.197 0.236 0.285l-0.001-0.001 1.025-1.025c-0.307-0.344-0.463-0.771-0.44-1.205 0.022-0.44 0.225-0.85 0.568-1.153 0.64-0.566 1.606-0.544 2.211 0.045l1.025-1.025c-0.262-0.279-0.604-0.502-1.047-0.679-0.315-0.127-0.68-0.201-1.062-0.201-0.009 0-0.019 0-0.028 0h0.001z"></path>
<path d="M30.153 15.725h-1.498c-0.007-0-0.013-0.003-0.018-0.008v0c-0.005-0.005-0.007-0.011-0.007-0.018 0-0 0-0 0-0v0c0.004-0.722-0.538-1.52-1.551-1.576-0.365-0.020-0.719 0.096-1.022 0.335-0.39 0.308-0.602 0.726-0.631 1.242 0 0.014-0.011 0.025-0.025 0.025v0h-1.494c-0.014 0-0.025-0.011-0.025-0.025v0c0-0.014 0-0.027 0-0.040 0-0.028 0-0.055 0-0.082s0.005-0.059 0.008-0.087c0.002-0.014 0.003-0.027 0.004-0.041 0.069-0.709 0.333-1.32 0.784-1.815 0.686-0.753 1.549-1.106 2.569-1.051 0.386 0.021 0.767 0.121 1.165 0.307 0.44 0.205 0.826 0.525 1.148 0.95 0.216 0.283 0.386 0.614 0.491 0.972l0.005 0.021c0.029 0.101 0.058 0.232 0.079 0.364l0.003 0.022c0.012 0.070 0.025 0.143 0.040 0.214 0 0.002 0.001 0.004 0.001 0.006s-0 0.004-0.001 0.006l0-0c0 0.001 0 0.002 0 0.003s-0 0.002-0 0.003v-0 0.248c-0.001 0.013-0.011 0.024-0.024 0.024h-0zM28.681 15.674h1.447v-0.222c-0-0.001-0-0.002-0-0.003s0-0.002 0-0.003v0s0 0 0-0.001c-0.015-0.072-0.028-0.145-0.040-0.215-0.024-0.152-0.052-0.281-0.087-0.407l0.006 0.026c-0.108-0.374-0.275-0.699-0.493-0.984l0.005 0.007c-0.317-0.418-0.696-0.733-1.129-0.935-0.392-0.183-0.766-0.282-1.146-0.302-1.004-0.054-1.855 0.294-2.529 1.035-0.443 0.487-0.702 1.088-0.771 1.785-0.001 0.014-0.003 0.028-0.004 0.042-0.003 0.028-0.006 0.056-0.008 0.084s0 0.051 0 0.079v0.015h1.445c0.035-0.52 0.254-0.943 0.648-1.255 0.313-0.247 0.678-0.367 1.056-0.346 0.457 0.025 0.872 0.213 1.168 0.53 0.263 0.28 0.425 0.656 0.43 1.070v0.001z"></path>
<path d="M16.391 8.105c-0.001 0-0.002 0-0.003 0-0.039 0-0.077-0.005-0.113-0.014l0.003 0.001c-0.011-0.003-0.019-0.013-0.019-0.025 0-0 0-0.001 0-0.001v0-1.488c0 0 0-0 0-0 0-0.014 0.011-0.025 0.024-0.025h0c0.939-0.046 1.536-0.792 1.571-1.487 0.023-0.457-0.109-0.851-0.392-1.173-0.303-0.345-0.7-0.528-1.179-0.544-0.014 0-0.025-0.011-0.025-0.025v0-1.49c0-0 0-0 0-0 0-0.013 0.010-0.024 0.023-0.025h0c0.163-0.017 0.336-0.005 0.546 0.037 0.668 0.134 1.231 0.435 1.676 0.894 0.375 0.387 0.624 0.805 0.762 1.278 0.061 0.206 0.109 0.449 0.135 0.699l0.001 0.017c0 0.001 0 0.003 0 0.005s-0 0.003-0 0.005l0-0c0 0.001 0 0.002 0 0.003s-0 0.002-0 0.003v-0c0.007 0.305 0.003 0.629-0.079 0.946-0.127 0.489-0.352 0.915-0.653 1.274l0.004-0.005c-0.411 0.495-0.922 0.829-1.564 1.020-0.119 0.036-0.268 0.080-0.412 0.086-0.051 0.003-0.097 0.009-0.143 0.017l0.008-0.001c-0.051 0.010-0.109 0.016-0.169 0.017l-0.001 0zM16.31 8.047c0.082 0.016 0.161 0.004 0.245-0.010 0.040-0.008 0.088-0.014 0.138-0.017l0.004-0c0.138-0.006 0.283-0.049 0.4-0.084 0.632-0.188 1.135-0.517 1.539-1.004 0.292-0.349 0.513-0.768 0.634-1.227l0.005-0.022c0.080-0.311 0.084-0.632 0.076-0.932-0-0.001-0-0.002-0-0.003s0-0.002 0-0.004v0-0.004c-0.027-0.264-0.074-0.505-0.141-0.736l0.007 0.029c-0.135-0.464-0.38-0.875-0.748-1.257-0.437-0.452-0.992-0.748-1.65-0.88-0.117-0.027-0.25-0.043-0.388-0.043-0.042 0-0.084 0.001-0.126 0.004l0.006-0v1.443c0.482 0.022 0.883 0.21 1.191 0.56 0.292 0.332 0.428 0.739 0.404 1.209-0.036 0.711-0.641 1.474-1.595 1.534z"></path>
<path d="M23.592 27.159c-0.002 0-0.004 0-0.006 0-1.738 0-3.146-1.409-3.146-3.146 0-0.864 0.349-1.647 0.913-2.216l-0 0c0.005-0.005 0.011-0.008 0.018-0.008s0.013 0.003 0.018 0.008v0c0.002 0.002 0.004 0.005 0.005 0.008l0 0c0.003 0.001 0.005 0.003 0.007 0.005l1.047 1.047c0.005 0.005 0.007 0.011 0.007 0.018s-0.003 0.013-0.007 0.018v0c-0.689 0.725-0.52 1.724 0.041 2.271 0.525 0.512 1.519 0.658 2.209 0.003 0.005-0.005 0.011-0.007 0.018-0.007s0.013 0.003 0.018 0.007v0l1.054 1.054c0.004 0.005 0.007 0.011 0.007 0.018s-0.003 0.013-0.007 0.018v0c-0.535 0.559-1.313 0.887-2.135 0.902zM21.371 21.851c-0.541 0.557-0.874 1.319-0.874 2.158 0 1.712 1.388 3.1 3.1 3.1 0.019 0 0.039-0 0.058-0.001l-0.003 0c0.799-0.015 1.557-0.332 2.082-0.869l-1.018-1.019c-0.287 0.269-0.674 0.435-1.1 0.435-0.002 0-0.004 0-0.005 0h0c-0.442 0-0.867-0.174-1.155-0.455-0.291-0.287-0.479-0.678-0.503-1.113l-0-0.004c-0.001-0.025-0.002-0.053-0.002-0.082 0-0.435 0.17-0.831 0.446-1.125l-0.001 0.001z"></path>
<path d="M26.207 25.826c-0.011-0.001-0.022-0.004-0.031-0.008l0.001 0-1.053-1.054c-0.005-0.005-0.007-0.011-0.007-0.018v0c0-0.007 0.003-0.013 0.007-0.018v0c0.587-0.584 0.614-1.533 0.060-2.16-0.294-0.333-0.691-0.528-1.117-0.551s-0.85 0.135-1.186 0.444c-0.005 0.004-0.011 0.007-0.018 0.007s-0.013-0.003-0.018-0.007v0l-1.062-1.062c-0.005-0.005-0.007-0.011-0.007-0.018s0.003-0.013 0.007-0.018v0c0.093-0.090 0.193-0.174 0.299-0.252l0.008-0.006c0.664-0.5 1.418-0.707 2.241-0.615 0.347 0.043 0.662 0.133 0.955 0.264l-0.021-0.008c0.479 0.203 0.885 0.528 1.239 0.988 0.336 0.431 0.558 0.966 0.61 1.549l0.001 0.011c0.049 0.526-0.014 1.012-0.188 1.445-0.183 0.457-0.413 0.808-0.704 1.076-0.005 0.004-0.011 0.007-0.017 0.007v0zM25.177 24.747l1.024 1.025c0.279-0.262 0.502-0.604 0.679-1.047 0.171-0.426 0.233-0.904 0.185-1.422-0.052-0.585-0.27-1.111-0.606-1.541l0.005 0.006c-0.349-0.454-0.748-0.772-1.219-0.973-0.268-0.121-0.579-0.21-0.904-0.25l-0.016-0.002c-0.81-0.090-1.552 0.113-2.205 0.605-0.105 0.077-0.197 0.154-0.285 0.236l0.002-0.001 1.026 1.025c0.344-0.307 0.771-0.463 1.205-0.44 0.44 0.023 0.85 0.225 1.153 0.568 0.565 0.64 0.544 1.606-0.045 2.211z"></path>
<path d="M16.534 30.193c-0.001 0-0.002 0-0.003 0s-0.002-0-0.003-0h0c-0.001 0-0.002 0-0.003 0s-0.002-0-0.003-0h-0.247c-0.014 0-0.025-0.011-0.025-0.025v0-1.498c0-0 0-0 0-0 0-0.007 0.003-0.013 0.007-0.018v0c0.005-0.005 0.011-0.007 0.018-0.007 0 0 0 0 0 0v0c0.722 0.004 1.52-0.538 1.576-1.551 0.020-0.365-0.096-0.719-0.335-1.022-0.308-0.39-0.726-0.602-1.242-0.631-0.013-0.001-0.024-0.012-0.024-0.025 0-0 0-0 0-0v0-1.494c0-0.014 0.011-0.025 0.025-0.025v0h0.040c0.028 0 0.055 0 0.082 0s0.059 0.005 0.087 0.008l0.041 0.004c0.709 0.069 1.32 0.333 1.815 0.784 0.753 0.686 1.106 1.549 1.051 2.569-0.021 0.386-0.121 0.767-0.307 1.165-0.206 0.44-0.525 0.826-0.95 1.148-0.282 0.216-0.614 0.386-0.972 0.491l-0.021 0.005c-0.101 0.029-0.232 0.058-0.365 0.079l-0.022 0.003c-0.070 0.012-0.143 0.025-0.214 0.040zM16.299 30.142h0.222c0.001-0 0.002-0 0.003-0s0.002 0 0.003 0h-0c0.072-0.015 0.145-0.028 0.216-0.040 0.152-0.024 0.281-0.052 0.407-0.087l-0.026 0.006c0.374-0.108 0.699-0.275 0.984-0.493l-0.007 0.005c0.418-0.317 0.733-0.696 0.935-1.129 0.183-0.392 0.282-0.766 0.302-1.146 0.054-1.004-0.294-1.855-1.035-2.529-0.487-0.443-1.088-0.702-1.786-0.771l-0.042-0.004c-0.028-0.003-0.056-0.006-0.084-0.008s-0.051 0-0.078 0h-0.015v1.445c0.52 0.035 0.943 0.254 1.255 0.648 0.247 0.313 0.366 0.678 0.346 1.056-0.025 0.457-0.214 0.872-0.53 1.168-0.28 0.263-0.656 0.426-1.070 0.432h-0.001z"></path>
<path d="M27.039 19.418c-0.249 0-0.508-0.016-0.762-0.081-0.489-0.127-0.915-0.352-1.275-0.653l0.005 0.004c-0.495-0.411-0.829-0.922-1.020-1.564-0.036-0.119-0.080-0.268-0.086-0.412-0.003-0.051-0.009-0.097-0.017-0.143l0.001 0.007c-0.014-0.091-0.029-0.185-0.005-0.284 0.003-0.011 0.013-0.019 0.025-0.019 0 0 0.001 0 0.001 0h1.489c0 0 0 0 0 0 0.014 0 0.025 0.011 0.025 0.024v0c0.046 0.939 0.792 1.536 1.487 1.571 0.457 0.023 0.852-0.109 1.173-0.392 0.345-0.303 0.528-0.7 0.544-1.179 0-0.014 0.011-0.025 0.025-0.025v0h1.49c0 0 0 0 0 0 0.013 0 0.024 0.010 0.025 0.023v0c0.017 0.163 0.005 0.336-0.037 0.546-0.134 0.668-0.435 1.231-0.894 1.676-0.387 0.375-0.805 0.624-1.278 0.762-0.206 0.061-0.449 0.109-0.699 0.135l-0.017 0.001c-0.001 0-0.003 0-0.004 0s-0.003-0-0.005-0l0 0c-0.001 0-0.002 0-0.003 0s-0.002-0-0.003-0h0c-0.061 0.002-0.123 0.003-0.185 0.003zM23.926 16.325c-0.016 0.082-0.003 0.161 0.010 0.245 0.007 0.040 0.013 0.088 0.017 0.137l0 0.004c0.006 0.138 0.049 0.283 0.084 0.4 0.188 0.632 0.517 1.135 1.004 1.539 0.349 0.292 0.767 0.513 1.227 0.634l0.022 0.005c0.311 0.080 0.632 0.084 0.932 0.076 0.001-0 0.002-0 0.004-0s0.003 0 0.004 0h0.003c0.264-0.026 0.505-0.074 0.736-0.141l-0.029 0.007c0.464-0.135 0.875-0.38 1.257-0.748 0.452-0.437 0.748-0.992 0.88-1.65 0.027-0.117 0.043-0.251 0.043-0.389 0-0.042-0.001-0.083-0.004-0.125l0 0.006h-1.442c-0.022 0.482-0.21 0.883-0.56 1.191-0.332 0.292-0.739 0.428-1.209 0.404-0.711-0.036-1.474-0.641-1.534-1.595z"></path>
<path d="M16.319 32q-0.155 0-0.31-0.004c-0.003 0.001-0.006 0.002-0.009 0.002h-0l-0.18-0.002c-0.254-0.002-0.516-0.003-0.774-0.020-0.391-0.025-0.714-0.055-1.017-0.092-0.937-0.118-1.772-0.296-2.581-0.535l0.114 0.029c-0.787-0.222-1.606-0.536-2.503-0.958-0.776-0.365-1.529-0.81-2.302-1.36-0.559-0.4-1.049-0.799-1.512-1.228l0.010 0.009c-0.729-0.675-1.295-1.274-1.777-1.884-0.511-0.639-0.994-1.354-1.419-2.107l-0.042-0.081c-0.427-0.757-0.827-1.643-1.148-2.566l-0.035-0.117c-0.178-0.515-0.308-1.033-0.451-1.65-0.133-0.574-0.231-1.189-0.308-1.935-0.038-0.35-0.060-0.756-0.060-1.168 0-0.112 0.002-0.224 0.005-0.336l-0 0.016-0.002-0.025c0-0.062 0-0.122 0.001-0.182 0.002-0.254 0.003-0.516 0.021-0.774 0.027-0.392 0.055-0.715 0.092-1.018 0.118-0.937 0.296-1.772 0.535-2.581l-0.029 0.114c0.222-0.787 0.535-1.606 0.958-2.503 0.365-0.776 0.81-1.53 1.36-2.302 0.4-0.559 0.799-1.049 1.228-1.512l-0.009 0.010c0.675-0.729 1.273-1.295 1.883-1.777 0.639-0.511 1.354-0.994 2.107-1.419l0.081-0.042c0.757-0.427 1.643-0.827 2.566-1.148l0.117-0.035c0.515-0.178 1.032-0.308 1.65-0.451 0.574-0.133 1.188-0.231 1.935-0.308 0.35-0.038 0.757-0.060 1.168-0.060 0.109 0 0.218 0.002 0.327 0.005l-0.016-0c0.003-0.001 0.006-0.002 0.009-0.002v0l0.179 0.001c0.254 0.002 0.516 0.003 0.774 0.021 0.39 0.025 0.714 0.055 1.017 0.092 0.937 0.119 1.773 0.296 2.582 0.535l-0.114-0.029c0.787 0.222 1.605 0.535 2.503 0.958 0.776 0.365 1.529 0.81 2.302 1.36 0.559 0.4 1.049 0.799 1.512 1.228l-0.010-0.009c0.729 0.675 1.295 1.273 1.777 1.883 0.511 0.639 0.994 1.354 1.419 2.107l0.042 0.081c0.427 0.757 0.827 1.643 1.148 2.566l0.035 0.117c0.178 0.515 0.308 1.032 0.451 1.65 0.133 0.573 0.231 1.188 0.308 1.934 0.038 0.351 0.060 0.757 0.060 1.169 0 0.112-0.002 0.224-0.005 0.336l0-0.016c-0 0.004-0.001 0.008-0.003 0.012l0-0c0.003 0.004 0.006 0.010 0.006 0.016 0 0 0 0 0 0v0c0 0.060 0 0.12-0.002 0.179-0.002 0.254-0.003 0.516-0.020 0.774-0.025 0.391-0.055 0.714-0.092 1.017-0.119 0.937-0.296 1.773-0.535 2.582l0.029-0.114c-0.222 0.787-0.536 1.605-0.958 2.503-0.365 0.776-0.81 1.529-1.36 2.302-0.399 0.559-0.799 1.049-1.228 1.512l0.009-0.010c-0.675 0.729-1.273 1.295-1.883 1.777-0.639 0.511-1.354 0.994-2.107 1.419l-0.081 0.042c-0.757 0.427-1.643 0.826-2.566 1.146l-0.117 0.035c-0.515 0.178-1.032 0.308-1.65 0.451-0.573 0.133-1.188 0.231-1.934 0.308-0.351 0.039-0.758 0.061-1.17 0.062h-0.001zM16.001 31.945v0c0.095 0.003 0.206 0.005 0.318 0.005 0.41 0 0.814-0.022 1.213-0.064l-0.050 0.004c0.744-0.076 1.357-0.175 1.928-0.307 0.617-0.143 1.134-0.274 1.646-0.45 1.037-0.355 1.92-0.753 2.759-1.222l-0.084 0.043c0.831-0.465 1.544-0.947 2.213-1.482l-0.032 0.025c0.609-0.482 1.205-1.046 1.879-1.773 0.418-0.452 0.816-0.94 1.184-1.453l0.031-0.045c0.548-0.77 0.991-1.521 1.355-2.294 0.421-0.895 0.733-1.712 0.955-2.496 0.21-0.693 0.386-1.526 0.496-2.38l0.008-0.080c0.037-0.302 0.066-0.624 0.092-1.014 0.017-0.257 0.019-0.518 0.020-0.771 0-0.060 0-0.12 0.002-0.18 0-0 0-0 0-0 0-0.004 0.001-0.009 0.003-0.012l-0 0c-0.003-0.004-0.005-0.010-0.005-0.016 0-0 0-0.001 0-0.001v0c0.003-0.095 0.004-0.206 0.004-0.318 0-0.41-0.022-0.814-0.064-1.213l0.004 0.050c-0.076-0.744-0.175-1.357-0.307-1.928-0.143-0.617-0.274-1.133-0.45-1.646-0.355-1.037-0.753-1.92-1.222-2.758l0.043 0.084c-0.465-0.831-0.948-1.544-1.482-2.213l0.025 0.032c-0.482-0.608-1.046-1.204-1.773-1.879-0.452-0.418-0.94-0.817-1.453-1.184l-0.045-0.031c-0.77-0.548-1.521-0.99-2.294-1.355-0.895-0.421-1.712-0.733-2.496-0.955-0.693-0.209-1.525-0.385-2.379-0.494l-0.080-0.008c-0.303-0.037-0.625-0.065-1.016-0.092-0.257-0.017-0.518-0.019-0.771-0.020l-0.17-0.001c-0.003 0.001-0.006 0.002-0.009 0.002-0 0-0 0-0.001 0h0c-0.095-0.003-0.207-0.005-0.32-0.005-0.409 0-0.813 0.022-1.211 0.064l0.049-0.004c-0.744 0.077-1.357 0.175-1.928 0.307-0.617 0.143-1.133 0.274-1.646 0.45-1.036 0.355-1.919 0.753-2.758 1.221l0.084-0.043c-0.831 0.466-1.544 0.948-2.213 1.483l0.032-0.025c-0.608 0.482-1.204 1.046-1.879 1.773-0.418 0.452-0.817 0.94-1.184 1.453l-0.031 0.045c-0.548 0.77-0.99 1.521-1.355 2.294-0.421 0.895-0.733 1.712-0.955 2.496-0.209 0.692-0.385 1.525-0.495 2.378l-0.008 0.080c-0.036 0.302-0.065 0.625-0.092 1.014-0.017 0.257-0.019 0.519-0.020 0.772 0 0.060 0 0.12-0.001 0.179l0.002 0.025c0 0 0 0.001 0 0.001s-0 0.001-0 0.001v-0c-0.003 0.095-0.005 0.208-0.005 0.32 0 0.409 0.022 0.813 0.064 1.211l-0.004-0.049c0.077 0.744 0.175 1.357 0.307 1.928 0.143 0.617 0.274 1.133 0.45 1.646 0.355 1.037 0.753 1.92 1.222 2.759l-0.043-0.084c0.466 0.831 0.948 1.543 1.482 2.213l-0.025-0.032c0.482 0.608 1.046 1.205 1.773 1.879 0.452 0.418 0.94 0.816 1.453 1.184l0.045 0.031c0.77 0.548 1.521 0.99 2.294 1.355 0.895 0.421 1.712 0.733 2.496 0.955 0.693 0.209 1.526 0.386 2.38 0.496l0.080 0.008c0.302 0.037 0.624 0.066 1.014 0.092 0.257 0.017 0.519 0.019 0.772 0.020h0.17c0.002-0.001 0.005-0.002 0.007-0.002h0z"></path>
<path d="M5.762 25.821c-0.007-0-0.013-0.003-0.018-0.007v0c-0.559-0.535-0.887-1.313-0.902-2.135-0-0.016-0-0.035-0-0.053 0-1.728 1.387-3.132 3.108-3.16l0.003-0h0.040c0 0 0 0 0.001 0 0.863 0 1.644 0.349 2.211 0.913l-0-0c0.005 0.005 0.008 0.011 0.008 0.018s-0.003 0.013-0.008 0.018v0c-0.002 0.002-0.005 0.004-0.007 0.005l-0 0c-0.001 0.003-0.003 0.005-0.005 0.007l-1.047 1.047c-0.005 0.005-0.011 0.007-0.018 0.007s-0.013-0.003-0.018-0.007v0c-0.725-0.689-1.724-0.52-2.271 0.041-0.512 0.525-0.658 1.519-0.003 2.209 0.005 0.005 0.007 0.011 0.007 0.018s-0.003 0.013-0.007 0.018v0l-1.054 1.054c-0.004 0.004-0.010 0.006-0.017 0.006-0 0-0.001 0-0.002-0h0zM7.993 20.517h-0.039c-1.696 0.027-3.061 1.409-3.061 3.109 0 0.018 0 0.037 0 0.055l-0-0.003c0.015 0.799 0.332 1.557 0.869 2.082l1.019-1.019c-0.656-0.711-0.503-1.723 0.021-2.26 0.287-0.291 0.678-0.479 1.113-0.503l0.004-0c0.025-0.001 0.055-0.002 0.084-0.002 0.435 0 0.831 0.17 1.125 0.446l-0.001-0.001 1.024-1.024c-0.555-0.544-1.316-0.88-2.156-0.88-0.001 0-0.002 0-0.003 0h0z"></path>
<path d="M8.365 27.16c-0.009 0-0.020 0-0.030 0-0.388 0-0.758-0.075-1.097-0.21l0.020 0.007c-0.457-0.183-0.808-0.413-1.076-0.704-0.004-0.007-0.006-0.015-0.006-0.024s0.002-0.017 0.006-0.024l-0 0 1.054-1.054c0.005-0.005 0.011-0.007 0.018-0.007 0 0 0 0 0 0v0c0 0 0 0 0 0 0.007 0 0.013 0.003 0.018 0.007v0c0.584 0.587 1.533 0.614 2.159 0.060 0.333-0.294 0.529-0.691 0.551-1.117s-0.135-0.85-0.443-1.186c-0.004-0.005-0.007-0.011-0.007-0.018s0.003-0.013 0.007-0.018v0l1.063-1.062c0.005-0.005 0.011-0.007 0.018-0.007s0.013 0.003 0.018 0.007v0c0.090 0.093 0.175 0.193 0.252 0.299l0.006 0.008c0.5 0.664 0.707 1.418 0.615 2.241-0.043 0.347-0.133 0.662-0.265 0.955l0.008-0.021c-0.203 0.479-0.527 0.885-0.988 1.239-0.431 0.336-0.966 0.558-1.55 0.61l-0.011 0.001c-0.115 0.010-0.228 0.016-0.339 0.016zM6.229 26.229c0.261 0.279 0.604 0.502 1.047 0.679 0.426 0.171 0.904 0.233 1.422 0.185 0.585-0.053 1.111-0.27 1.541-0.606l-0.007 0.005c0.454-0.349 0.772-0.748 0.972-1.219 0.121-0.268 0.21-0.578 0.251-0.904l0.002-0.016c0.090-0.81-0.114-1.552-0.605-2.205-0.077-0.105-0.154-0.197-0.236-0.285l0.001 0.002-1.025 1.025c0.307 0.344 0.463 0.771 0.44 1.205-0.023 0.44-0.225 0.85-0.568 1.153-0.287 0.255-0.668 0.411-1.084 0.411-0 0-0 0-0 0v0c-0.001 0-0.003 0-0.004 0-0.437 0-0.833-0.174-1.123-0.456l0 0z"></path>
<path d="M16.095 21.435c-0.036 0-0.072 0-0.107 0h-0.004c-0.010 0-0.022 0-0.034 0-0.744 0-1.45-0.164-2.084-0.457l0.031 0.013c-0.667-0.305-1.236-0.708-1.716-1.199l-0.001-0.001c-0.491-0.498-0.894-1.084-1.183-1.733l-0.015-0.037c-0.289-0.669-0.428-1.348-0.414-2.019l-0.002-0.010c-0-0.001-0-0.001-0-0.002s0-0.001 0-0.002v0c-0-0.014-0-0.031-0-0.047 0-0.751 0.159-1.465 0.445-2.109l-0.013 0.033c0.297-0.677 0.699-1.255 1.193-1.74l0.001-0.001c1.034-1.020 2.422-1.587 3.808-1.556h0.003c0.009-0 0.020-0 0.031-0 0.745 0 1.452 0.164 2.086 0.457l-0.031-0.013c0.667 0.305 1.236 0.708 1.717 1.199l0.001 0.001c0.492 0.497 0.895 1.083 1.185 1.731l0.015 0.037c0.289 0.669 0.429 1.349 0.414 2.021 0 0 0 0.001 0 0.001s-0 0.001-0 0.001v-0c0.002 0.003 0.003 0.007 0.003 0.010v0c0 0.014 0 0.029 0 0.045 0 0.751-0.159 1.466-0.445 2.111l0.013-0.033c-0.297 0.677-0.699 1.255-1.193 1.741l-0.001 0.001c-1.009 0.993-2.352 1.558-3.703 1.558zM15.993 21.384c0.034 0 0.069 0 0.102 0 1.337 0 2.668-0.559 3.665-1.543 1.036-1.022 1.623-2.418 1.611-3.828v-0.003c-0.001-0.003-0.002-0.007-0.002-0.011 0-0 0-0.001 0-0.001v0c0.029-1.326-0.553-2.694-1.6-3.753s-2.387-1.641-3.771-1.629h-0.005c-1.371-0.029-2.745 0.533-3.768 1.542-1.036 1.022-1.623 2.416-1.611 3.826l0.002 0.011c0 0.001 0 0.002 0 0.002s-0 0.002-0 0.003v-0c-0.029 1.326 0.553 2.694 1.598 3.753s2.387 1.641 3.771 1.629c0.001-0 0.002-0.001 0.004-0.001s0.002 0 0.003 0h-0z"></path>
<path d="M4.943 19.423q-0.102 0-0.203-0.006c-0.386-0.021-0.767-0.121-1.164-0.307-0.44-0.206-0.826-0.525-1.148-0.95-0.216-0.282-0.386-0.614-0.491-0.972l-0.005-0.021c-0.029-0.101-0.057-0.231-0.079-0.364l-0.003-0.022c-0.012-0.070-0.025-0.143-0.040-0.214-0-0.002-0.001-0.004-0.001-0.006s0-0.004 0.001-0.006l-0 0c-0-0.001-0-0.002-0-0.003s0-0.002 0-0.003v0-0.249c0-0.014 0.011-0.025 0.025-0.025v0h1.498c0 0 0 0 0 0 0.007 0 0.013 0.003 0.018 0.007v0c0.004 0.005 0.007 0.011 0.007 0.018v0c-0.004 0.722 0.538 1.52 1.55 1.576 0.366 0.020 0.719-0.096 1.022-0.335 0.39-0.308 0.602-0.726 0.631-1.242 0.001-0.013 0.012-0.024 0.025-0.024 0 0 0 0 0 0v0h1.494c0.014 0 0.025 0.011 0.025 0.025v0c0 0.014 0 0.027 0 0.040 0 0.028 0 0.055 0 0.082s-0.005 0.059-0.008 0.088c-0.002 0.013-0.003 0.027-0.004 0.040-0.069 0.709-0.333 1.32-0.784 1.815-0.641 0.703-1.435 1.058-2.367 1.058zM1.858 16.554s0 0 0 0c0.015 0.072 0.028 0.145 0.040 0.216 0.024 0.153 0.052 0.281 0.087 0.407l-0.006-0.027c0.109 0.374 0.276 0.699 0.493 0.984l-0.005-0.007c0.317 0.418 0.697 0.733 1.129 0.935 0.392 0.183 0.767 0.282 1.146 0.302 1.004 0.054 1.855-0.294 2.529-1.035 0.443-0.487 0.702-1.088 0.771-1.786 0.001-0.014 0.003-0.027 0.004-0.041 0.003-0.028 0.006-0.057 0.008-0.085s0-0.051 0-0.078c0-0.005 0-0.010 0-0.015h-1.444c-0.035 0.52-0.254 0.943-0.649 1.255-0.313 0.247-0.678 0.367-1.056 0.346-0.457-0.025-0.872-0.214-1.168-0.53-0.263-0.28-0.426-0.656-0.432-1.070v-0.001h-1.447v0.222c0 0.001 0 0.003 0 0.004s-0 0.002-0 0.003l0-0z"></path>
<path d="M15.56 30.199c-0.143-0.002-0.282-0.018-0.415-0.047l0.013 0.002c-0.667-0.134-1.231-0.435-1.676-0.894-0.374-0.387-0.623-0.805-0.762-1.278-0.061-0.206-0.109-0.449-0.135-0.699l-0.001-0.017c-0-0.001-0-0.003-0-0.004s0-0.003 0-0.005l-0 0c-0-0.001-0-0.002-0-0.003s0-0.002 0-0.003v0c-0.007-0.305-0.003-0.629 0.078-0.946 0.127-0.489 0.352-0.915 0.653-1.275l-0.004 0.005c0.411-0.495 0.922-0.829 1.564-1.020 0.119-0.036 0.268-0.080 0.412-0.086 0.051-0.003 0.097-0.009 0.143-0.017l-0.007 0.001c0.091-0.014 0.185-0.029 0.284-0.005 0.011 0.003 0.019 0.013 0.019 0.025 0 0 0 0.001 0 0.001v-0 1.489c0 0 0 0 0 0 0 0.014-0.011 0.025-0.024 0.025h-0c-0.939 0.046-1.536 0.792-1.571 1.487-0.023 0.457 0.109 0.852 0.392 1.173 0.303 0.345 0.7 0.528 1.179 0.544 0.014 0 0.025 0.011 0.025 0.025v0 1.49c0 0 0 0 0 0 0 0.013-0.010 0.024-0.023 0.025h-0c-0.041 0.004-0.089 0.007-0.137 0.007-0.003 0-0.005 0-0.008-0h0zM12.636 27.256c0 0.001 0 0.001 0 0.002s-0 0.001-0 0.002v-0c0.027 0.264 0.074 0.505 0.141 0.736l-0.007-0.029c0.135 0.464 0.381 0.875 0.748 1.257 0.437 0.452 0.992 0.748 1.649 0.88 0.117 0.027 0.251 0.043 0.389 0.043 0.042 0 0.083-0.001 0.124-0.004l-0.006 0v-1.442c-0.482-0.022-0.883-0.21-1.191-0.56-0.292-0.332-0.428-0.739-0.404-1.209 0.036-0.711 0.642-1.474 1.595-1.534v-1.444c-0.082-0.016-0.161-0.003-0.245 0.010-0.040 0.007-0.088 0.013-0.137 0.017l-0.004 0c-0.138 0.006-0.283 0.049-0.4 0.084-0.632 0.189-1.135 0.517-1.539 1.004-0.292 0.349-0.513 0.768-0.633 1.227l-0.005 0.022c-0.080 0.311-0.084 0.632-0.076 0.932 0 0.001 0 0.002 0 0.004s-0 0.003-0 0.004l0-0z"></path>
</svg>
