<!-- Generated by IcoMoon.io -->
<svg version="1.1" xmlns="http://www.w3.org/2000/svg" width="1023" height="1024" viewBox="0 0 1023 1024">
<title></title>
<g id="icomoon-ignore">
    <line stroke-width="1" x1="16" y1="0" x2="16" y2="1024" stroke="#449FDB" opacity="0.3"></line>
    <line stroke-width="1" x1="32" y1="0" x2="32" y2="1024" stroke="#449FDB" opacity="1"></line>
    <line stroke-width="1" x1="48" y1="0" x2="48" y2="1024" stroke="#449FDB" opacity="0.3"></line>
    <line stroke-width="1" x1="64" y1="0" x2="64" y2="1024" stroke="#449FDB" opacity="1"></line>
    <line stroke-width="1" x1="80" y1="0" x2="80" y2="1024" stroke="#449FDB" opacity="0.3"></line>
    <line stroke-width="1" x1="96" y1="0" x2="96" y2="1024" stroke="#449FDB" opacity="1"></line>
    <line stroke-width="1" x1="112" y1="0" x2="112" y2="1024" stroke="#449FDB" opacity="0.3"></line>
    <line stroke-width="1" x1="128" y1="0" x2="128" y2="1024" stroke="#449FDB" opacity="1"></line>
    <line stroke-width="1" x1="144" y1="0" x2="144" y2="1024" stroke="#449FDB" opacity="0.3"></line>
    <line stroke-width="1" x1="160" y1="0" x2="160" y2="1024" stroke="#449FDB" opacity="1"></line>
    <line stroke-width="1" x1="176" y1="0" x2="176" y2="1024" stroke="#449FDB" opacity="0.3"></line>
    <line stroke-width="1" x1="192" y1="0" x2="192" y2="1024" stroke="#449FDB" opacity="1"></line>
    <line stroke-width="1" x1="208" y1="0" x2="208" y2="1024" stroke="#449FDB" opacity="0.3"></line>
    <line stroke-width="1" x1="224" y1="0" x2="224" y2="1024" stroke="#449FDB" opacity="1"></line>
    <line stroke-width="1" x1="240" y1="0" x2="240" y2="1024" stroke="#449FDB" opacity="0.3"></line>
    <line stroke-width="1" x1="256" y1="0" x2="256" y2="1024" stroke="#449FDB" opacity="1"></line>
    <line stroke-width="1" x1="272" y1="0" x2="272" y2="1024" stroke="#449FDB" opacity="0.3"></line>
    <line stroke-width="1" x1="288" y1="0" x2="288" y2="1024" stroke="#449FDB" opacity="1"></line>
    <line stroke-width="1" x1="304" y1="0" x2="304" y2="1024" stroke="#449FDB" opacity="0.3"></line>
    <line stroke-width="1" x1="320" y1="0" x2="320" y2="1024" stroke="#449FDB" opacity="1"></line>
    <line stroke-width="1" x1="336" y1="0" x2="336" y2="1024" stroke="#449FDB" opacity="0.3"></line>
    <line stroke-width="1" x1="352" y1="0" x2="352" y2="1024" stroke="#449FDB" opacity="1"></line>
    <line stroke-width="1" x1="368" y1="0" x2="368" y2="1024" stroke="#449FDB" opacity="0.3"></line>
    <line stroke-width="1" x1="384" y1="0" x2="384" y2="1024" stroke="#449FDB" opacity="1"></line>
    <line stroke-width="1" x1="400" y1="0" x2="400" y2="1024" stroke="#449FDB" opacity="0.3"></line>
    <line stroke-width="1" x1="416" y1="0" x2="416" y2="1024" stroke="#449FDB" opacity="1"></line>
    <line stroke-width="1" x1="432" y1="0" x2="432" y2="1024" stroke="#449FDB" opacity="0.3"></line>
    <line stroke-width="1" x1="448" y1="0" x2="448" y2="1024" stroke="#449FDB" opacity="1"></line>
    <line stroke-width="1" x1="464" y1="0" x2="464" y2="1024" stroke="#449FDB" opacity="0.3"></line>
    <line stroke-width="1" x1="480" y1="0" x2="480" y2="1024" stroke="#449FDB" opacity="1"></line>
    <line stroke-width="1" x1="496" y1="0" x2="496" y2="1024" stroke="#449FDB" opacity="0.3"></line>
    <line stroke-width="1" x1="512" y1="0" x2="512" y2="1024" stroke="#449FDB" opacity="1"></line>
    <line stroke-width="1" x1="528" y1="0" x2="528" y2="1024" stroke="#449FDB" opacity="0.3"></line>
    <line stroke-width="1" x1="544" y1="0" x2="544" y2="1024" stroke="#449FDB" opacity="1"></line>
    <line stroke-width="1" x1="560" y1="0" x2="560" y2="1024" stroke="#449FDB" opacity="0.3"></line>
    <line stroke-width="1" x1="576" y1="0" x2="576" y2="1024" stroke="#449FDB" opacity="1"></line>
    <line stroke-width="1" x1="592" y1="0" x2="592" y2="1024" stroke="#449FDB" opacity="0.3"></line>
    <line stroke-width="1" x1="608" y1="0" x2="608" y2="1024" stroke="#449FDB" opacity="1"></line>
    <line stroke-width="1" x1="624" y1="0" x2="624" y2="1024" stroke="#449FDB" opacity="0.3"></line>
    <line stroke-width="1" x1="640" y1="0" x2="640" y2="1024" stroke="#449FDB" opacity="1"></line>
    <line stroke-width="1" x1="656" y1="0" x2="656" y2="1024" stroke="#449FDB" opacity="0.3"></line>
    <line stroke-width="1" x1="672" y1="0" x2="672" y2="1024" stroke="#449FDB" opacity="1"></line>
    <line stroke-width="1" x1="688" y1="0" x2="688" y2="1024" stroke="#449FDB" opacity="0.3"></line>
    <line stroke-width="1" x1="704" y1="0" x2="704" y2="1024" stroke="#449FDB" opacity="1"></line>
    <line stroke-width="1" x1="720" y1="0" x2="720" y2="1024" stroke="#449FDB" opacity="0.3"></line>
    <line stroke-width="1" x1="736" y1="0" x2="736" y2="1024" stroke="#449FDB" opacity="1"></line>
    <line stroke-width="1" x1="752" y1="0" x2="752" y2="1024" stroke="#449FDB" opacity="0.3"></line>
    <line stroke-width="1" x1="768" y1="0" x2="768" y2="1024" stroke="#449FDB" opacity="1"></line>
    <line stroke-width="1" x1="784" y1="0" x2="784" y2="1024" stroke="#449FDB" opacity="0.3"></line>
    <line stroke-width="1" x1="800" y1="0" x2="800" y2="1024" stroke="#449FDB" opacity="1"></line>
    <line stroke-width="1" x1="816" y1="0" x2="816" y2="1024" stroke="#449FDB" opacity="0.3"></line>
    <line stroke-width="1" x1="832" y1="0" x2="832" y2="1024" stroke="#449FDB" opacity="1"></line>
    <line stroke-width="1" x1="848" y1="0" x2="848" y2="1024" stroke="#449FDB" opacity="0.3"></line>
    <line stroke-width="1" x1="864" y1="0" x2="864" y2="1024" stroke="#449FDB" opacity="1"></line>
    <line stroke-width="1" x1="880" y1="0" x2="880" y2="1024" stroke="#449FDB" opacity="0.3"></line>
    <line stroke-width="1" x1="896" y1="0" x2="896" y2="1024" stroke="#449FDB" opacity="1"></line>
    <line stroke-width="1" x1="912" y1="0" x2="912" y2="1024" stroke="#449FDB" opacity="0.3"></line>
    <line stroke-width="1" x1="928" y1="0" x2="928" y2="1024" stroke="#449FDB" opacity="1"></line>
    <line stroke-width="1" x1="944" y1="0" x2="944" y2="1024" stroke="#449FDB" opacity="0.3"></line>
    <line stroke-width="1" x1="960" y1="0" x2="960" y2="1024" stroke="#449FDB" opacity="1"></line>
    <line stroke-width="1" x1="976" y1="0" x2="976" y2="1024" stroke="#449FDB" opacity="0.3"></line>
    <line stroke-width="1" x1="992" y1="0" x2="992" y2="1024" stroke="#449FDB" opacity="1"></line>
    <line stroke-width="1" x1="1008" y1="0" x2="1008" y2="1024" stroke="#449FDB" opacity="0.3"></line>
    <line stroke-width="1" x1="0" y1="16" x2="1023" y2="16" stroke="#449FDB" opacity="0.3"></line>
    <line stroke-width="1" x1="0" y1="32" x2="1023" y2="32" stroke="#449FDB" opacity="1"></line>
    <line stroke-width="1" x1="0" y1="48" x2="1023" y2="48" stroke="#449FDB" opacity="0.3"></line>
    <line stroke-width="1" x1="0" y1="64" x2="1023" y2="64" stroke="#449FDB" opacity="1"></line>
    <line stroke-width="1" x1="0" y1="80" x2="1023" y2="80" stroke="#449FDB" opacity="0.3"></line>
    <line stroke-width="1" x1="0" y1="96" x2="1023" y2="96" stroke="#449FDB" opacity="1"></line>
    <line stroke-width="1" x1="0" y1="112" x2="1023" y2="112" stroke="#449FDB" opacity="0.3"></line>
    <line stroke-width="1" x1="0" y1="128" x2="1023" y2="128" stroke="#449FDB" opacity="1"></line>
    <line stroke-width="1" x1="0" y1="144" x2="1023" y2="144" stroke="#449FDB" opacity="0.3"></line>
    <line stroke-width="1" x1="0" y1="160" x2="1023" y2="160" stroke="#449FDB" opacity="1"></line>
    <line stroke-width="1" x1="0" y1="176" x2="1023" y2="176" stroke="#449FDB" opacity="0.3"></line>
    <line stroke-width="1" x1="0" y1="192" x2="1023" y2="192" stroke="#449FDB" opacity="1"></line>
    <line stroke-width="1" x1="0" y1="208" x2="1023" y2="208" stroke="#449FDB" opacity="0.3"></line>
    <line stroke-width="1" x1="0" y1="224" x2="1023" y2="224" stroke="#449FDB" opacity="1"></line>
    <line stroke-width="1" x1="0" y1="240" x2="1023" y2="240" stroke="#449FDB" opacity="0.3"></line>
    <line stroke-width="1" x1="0" y1="256" x2="1023" y2="256" stroke="#449FDB" opacity="1"></line>
    <line stroke-width="1" x1="0" y1="272" x2="1023" y2="272" stroke="#449FDB" opacity="0.3"></line>
    <line stroke-width="1" x1="0" y1="288" x2="1023" y2="288" stroke="#449FDB" opacity="1"></line>
    <line stroke-width="1" x1="0" y1="304" x2="1023" y2="304" stroke="#449FDB" opacity="0.3"></line>
    <line stroke-width="1" x1="0" y1="320" x2="1023" y2="320" stroke="#449FDB" opacity="1"></line>
    <line stroke-width="1" x1="0" y1="336" x2="1023" y2="336" stroke="#449FDB" opacity="0.3"></line>
    <line stroke-width="1" x1="0" y1="352" x2="1023" y2="352" stroke="#449FDB" opacity="1"></line>
    <line stroke-width="1" x1="0" y1="368" x2="1023" y2="368" stroke="#449FDB" opacity="0.3"></line>
    <line stroke-width="1" x1="0" y1="384" x2="1023" y2="384" stroke="#449FDB" opacity="1"></line>
    <line stroke-width="1" x1="0" y1="400" x2="1023" y2="400" stroke="#449FDB" opacity="0.3"></line>
    <line stroke-width="1" x1="0" y1="416" x2="1023" y2="416" stroke="#449FDB" opacity="1"></line>
    <line stroke-width="1" x1="0" y1="432" x2="1023" y2="432" stroke="#449FDB" opacity="0.3"></line>
    <line stroke-width="1" x1="0" y1="448" x2="1023" y2="448" stroke="#449FDB" opacity="1"></line>
    <line stroke-width="1" x1="0" y1="464" x2="1023" y2="464" stroke="#449FDB" opacity="0.3"></line>
    <line stroke-width="1" x1="0" y1="480" x2="1023" y2="480" stroke="#449FDB" opacity="1"></line>
    <line stroke-width="1" x1="0" y1="496" x2="1023" y2="496" stroke="#449FDB" opacity="0.3"></line>
    <line stroke-width="1" x1="0" y1="512" x2="1023" y2="512" stroke="#449FDB" opacity="1"></line>
    <line stroke-width="1" x1="0" y1="528" x2="1023" y2="528" stroke="#449FDB" opacity="0.3"></line>
    <line stroke-width="1" x1="0" y1="544" x2="1023" y2="544" stroke="#449FDB" opacity="1"></line>
    <line stroke-width="1" x1="0" y1="560" x2="1023" y2="560" stroke="#449FDB" opacity="0.3"></line>
    <line stroke-width="1" x1="0" y1="576" x2="1023" y2="576" stroke="#449FDB" opacity="1"></line>
    <line stroke-width="1" x1="0" y1="592" x2="1023" y2="592" stroke="#449FDB" opacity="0.3"></line>
    <line stroke-width="1" x1="0" y1="608" x2="1023" y2="608" stroke="#449FDB" opacity="1"></line>
    <line stroke-width="1" x1="0" y1="624" x2="1023" y2="624" stroke="#449FDB" opacity="0.3"></line>
    <line stroke-width="1" x1="0" y1="640" x2="1023" y2="640" stroke="#449FDB" opacity="1"></line>
    <line stroke-width="1" x1="0" y1="656" x2="1023" y2="656" stroke="#449FDB" opacity="0.3"></line>
    <line stroke-width="1" x1="0" y1="672" x2="1023" y2="672" stroke="#449FDB" opacity="1"></line>
    <line stroke-width="1" x1="0" y1="688" x2="1023" y2="688" stroke="#449FDB" opacity="0.3"></line>
    <line stroke-width="1" x1="0" y1="704" x2="1023" y2="704" stroke="#449FDB" opacity="1"></line>
    <line stroke-width="1" x1="0" y1="720" x2="1023" y2="720" stroke="#449FDB" opacity="0.3"></line>
    <line stroke-width="1" x1="0" y1="736" x2="1023" y2="736" stroke="#449FDB" opacity="1"></line>
    <line stroke-width="1" x1="0" y1="752" x2="1023" y2="752" stroke="#449FDB" opacity="0.3"></line>
    <line stroke-width="1" x1="0" y1="768" x2="1023" y2="768" stroke="#449FDB" opacity="1"></line>
    <line stroke-width="1" x1="0" y1="784" x2="1023" y2="784" stroke="#449FDB" opacity="0.3"></line>
    <line stroke-width="1" x1="0" y1="800" x2="1023" y2="800" stroke="#449FDB" opacity="1"></line>
    <line stroke-width="1" x1="0" y1="816" x2="1023" y2="816" stroke="#449FDB" opacity="0.3"></line>
    <line stroke-width="1" x1="0" y1="832" x2="1023" y2="832" stroke="#449FDB" opacity="1"></line>
    <line stroke-width="1" x1="0" y1="848" x2="1023" y2="848" stroke="#449FDB" opacity="0.3"></line>
    <line stroke-width="1" x1="0" y1="864" x2="1023" y2="864" stroke="#449FDB" opacity="1"></line>
    <line stroke-width="1" x1="0" y1="880" x2="1023" y2="880" stroke="#449FDB" opacity="0.3"></line>
    <line stroke-width="1" x1="0" y1="896" x2="1023" y2="896" stroke="#449FDB" opacity="1"></line>
    <line stroke-width="1" x1="0" y1="912" x2="1023" y2="912" stroke="#449FDB" opacity="0.3"></line>
    <line stroke-width="1" x1="0" y1="928" x2="1023" y2="928" stroke="#449FDB" opacity="1"></line>
    <line stroke-width="1" x1="0" y1="944" x2="1023" y2="944" stroke="#449FDB" opacity="0.3"></line>
    <line stroke-width="1" x1="0" y1="960" x2="1023" y2="960" stroke="#449FDB" opacity="1"></line>
    <line stroke-width="1" x1="0" y1="976" x2="1023" y2="976" stroke="#449FDB" opacity="0.3"></line>
    <line stroke-width="1" x1="0" y1="992" x2="1023" y2="992" stroke="#449FDB" opacity="1"></line>
    <line stroke-width="1" x1="0" y1="1008" x2="1023" y2="1008" stroke="#449FDB" opacity="0.3"></line>
</g>
<path fill="#000" d="M512.176 184.838c0.826-0.008 1.802-0.012 2.779-0.012 179.229 0 324.522 145.293 324.522 324.522 0 2.016-0.018 4.027-0.055 6.034l0.004-0.301c-0.88 181.933-144.965 328.747-326.634 327.779-0.813 0.007-1.774 0.011-2.735 0.011-180.735 0-327.25-146.515-327.25-327.25 0-0.747 0.003-1.493 0.007-2.239l-0.001 0.115c2.024-184.838 144.789-329.363 329.363-328.659zM514.905 403.826c-41.104 0-82.121-0.88-123.225 0-38.552 1.056-47.178 16.371-27.99 50.346q57.3 101.397 116.536 201.649c21.652 36.615 40.84 36.087 63.197-1.76q58.092-98.492 114.423-197.776c20.948-37.056 12.851-51.49-28.694-52.811-38.024-0.704-76.135 0.088-114.247 0.088z"></path>
<path fill="#000" d="M511.208 0l33.359 95.323h-66.013c10.21-29.75 19.98-58.444 32.655-95.323z"></path>
<path fill="#000" d="M544.479 930.877c-10.738 30.278-20.684 58.268-33.007 93.123-12.323-34.679-22.269-62.581-33.183-93.123z"></path>
<path fill="#000" d="M94.355 545.711l-94.355-31.95 94.355-34.239z"></path>
<path fill="#000" d="M927.972 546.415v-66.013l95.411 32.391z"></path>
<path fill="#000" d="M236.504 833.353l-86.874 42.249 42.601-89.162z"></path>
<path fill="#000" d="M829.128 783.359c15.579 32.479 28.078 58.356 44.009 91.010l-91.363-42.425c15.931-16.195 30.102-30.982 47.354-48.586z"></path>
<path fill="#000" d="M148.75 150.335l90.042 44.009-48.762 38.992z"></path>
<path fill="#000" d="M789.608 191.351l83.265-40.488-42.777 88.81z"></path>
</svg>
