<!-- Generated by IcoMoon.io -->
<svg version="1.1" xmlns="http://www.w3.org/2000/svg" width="1024" height="1024" viewBox="0 0 1024 1024">
<title></title>
<g id="icomoon-ignore">
    <line stroke-width="1" x1="16" y1="0" x2="16" y2="1024" stroke="#449FDB" opacity="0.3"></line>
    <line stroke-width="1" x1="32" y1="0" x2="32" y2="1024" stroke="#449FDB" opacity="1"></line>
    <line stroke-width="1" x1="48" y1="0" x2="48" y2="1024" stroke="#449FDB" opacity="0.3"></line>
    <line stroke-width="1" x1="64" y1="0" x2="64" y2="1024" stroke="#449FDB" opacity="1"></line>
    <line stroke-width="1" x1="80" y1="0" x2="80" y2="1024" stroke="#449FDB" opacity="0.3"></line>
    <line stroke-width="1" x1="96" y1="0" x2="96" y2="1024" stroke="#449FDB" opacity="1"></line>
    <line stroke-width="1" x1="112" y1="0" x2="112" y2="1024" stroke="#449FDB" opacity="0.3"></line>
    <line stroke-width="1" x1="128" y1="0" x2="128" y2="1024" stroke="#449FDB" opacity="1"></line>
    <line stroke-width="1" x1="144" y1="0" x2="144" y2="1024" stroke="#449FDB" opacity="0.3"></line>
    <line stroke-width="1" x1="160" y1="0" x2="160" y2="1024" stroke="#449FDB" opacity="1"></line>
    <line stroke-width="1" x1="176" y1="0" x2="176" y2="1024" stroke="#449FDB" opacity="0.3"></line>
    <line stroke-width="1" x1="192" y1="0" x2="192" y2="1024" stroke="#449FDB" opacity="1"></line>
    <line stroke-width="1" x1="208" y1="0" x2="208" y2="1024" stroke="#449FDB" opacity="0.3"></line>
    <line stroke-width="1" x1="224" y1="0" x2="224" y2="1024" stroke="#449FDB" opacity="1"></line>
    <line stroke-width="1" x1="240" y1="0" x2="240" y2="1024" stroke="#449FDB" opacity="0.3"></line>
    <line stroke-width="1" x1="256" y1="0" x2="256" y2="1024" stroke="#449FDB" opacity="1"></line>
    <line stroke-width="1" x1="272" y1="0" x2="272" y2="1024" stroke="#449FDB" opacity="0.3"></line>
    <line stroke-width="1" x1="288" y1="0" x2="288" y2="1024" stroke="#449FDB" opacity="1"></line>
    <line stroke-width="1" x1="304" y1="0" x2="304" y2="1024" stroke="#449FDB" opacity="0.3"></line>
    <line stroke-width="1" x1="320" y1="0" x2="320" y2="1024" stroke="#449FDB" opacity="1"></line>
    <line stroke-width="1" x1="336" y1="0" x2="336" y2="1024" stroke="#449FDB" opacity="0.3"></line>
    <line stroke-width="1" x1="352" y1="0" x2="352" y2="1024" stroke="#449FDB" opacity="1"></line>
    <line stroke-width="1" x1="368" y1="0" x2="368" y2="1024" stroke="#449FDB" opacity="0.3"></line>
    <line stroke-width="1" x1="384" y1="0" x2="384" y2="1024" stroke="#449FDB" opacity="1"></line>
    <line stroke-width="1" x1="400" y1="0" x2="400" y2="1024" stroke="#449FDB" opacity="0.3"></line>
    <line stroke-width="1" x1="416" y1="0" x2="416" y2="1024" stroke="#449FDB" opacity="1"></line>
    <line stroke-width="1" x1="432" y1="0" x2="432" y2="1024" stroke="#449FDB" opacity="0.3"></line>
    <line stroke-width="1" x1="448" y1="0" x2="448" y2="1024" stroke="#449FDB" opacity="1"></line>
    <line stroke-width="1" x1="464" y1="0" x2="464" y2="1024" stroke="#449FDB" opacity="0.3"></line>
    <line stroke-width="1" x1="480" y1="0" x2="480" y2="1024" stroke="#449FDB" opacity="1"></line>
    <line stroke-width="1" x1="496" y1="0" x2="496" y2="1024" stroke="#449FDB" opacity="0.3"></line>
    <line stroke-width="1" x1="512" y1="0" x2="512" y2="1024" stroke="#449FDB" opacity="1"></line>
    <line stroke-width="1" x1="528" y1="0" x2="528" y2="1024" stroke="#449FDB" opacity="0.3"></line>
    <line stroke-width="1" x1="544" y1="0" x2="544" y2="1024" stroke="#449FDB" opacity="1"></line>
    <line stroke-width="1" x1="560" y1="0" x2="560" y2="1024" stroke="#449FDB" opacity="0.3"></line>
    <line stroke-width="1" x1="576" y1="0" x2="576" y2="1024" stroke="#449FDB" opacity="1"></line>
    <line stroke-width="1" x1="592" y1="0" x2="592" y2="1024" stroke="#449FDB" opacity="0.3"></line>
    <line stroke-width="1" x1="608" y1="0" x2="608" y2="1024" stroke="#449FDB" opacity="1"></line>
    <line stroke-width="1" x1="624" y1="0" x2="624" y2="1024" stroke="#449FDB" opacity="0.3"></line>
    <line stroke-width="1" x1="640" y1="0" x2="640" y2="1024" stroke="#449FDB" opacity="1"></line>
    <line stroke-width="1" x1="656" y1="0" x2="656" y2="1024" stroke="#449FDB" opacity="0.3"></line>
    <line stroke-width="1" x1="672" y1="0" x2="672" y2="1024" stroke="#449FDB" opacity="1"></line>
    <line stroke-width="1" x1="688" y1="0" x2="688" y2="1024" stroke="#449FDB" opacity="0.3"></line>
    <line stroke-width="1" x1="704" y1="0" x2="704" y2="1024" stroke="#449FDB" opacity="1"></line>
    <line stroke-width="1" x1="720" y1="0" x2="720" y2="1024" stroke="#449FDB" opacity="0.3"></line>
    <line stroke-width="1" x1="736" y1="0" x2="736" y2="1024" stroke="#449FDB" opacity="1"></line>
    <line stroke-width="1" x1="752" y1="0" x2="752" y2="1024" stroke="#449FDB" opacity="0.3"></line>
    <line stroke-width="1" x1="768" y1="0" x2="768" y2="1024" stroke="#449FDB" opacity="1"></line>
    <line stroke-width="1" x1="784" y1="0" x2="784" y2="1024" stroke="#449FDB" opacity="0.3"></line>
    <line stroke-width="1" x1="800" y1="0" x2="800" y2="1024" stroke="#449FDB" opacity="1"></line>
    <line stroke-width="1" x1="816" y1="0" x2="816" y2="1024" stroke="#449FDB" opacity="0.3"></line>
    <line stroke-width="1" x1="832" y1="0" x2="832" y2="1024" stroke="#449FDB" opacity="1"></line>
    <line stroke-width="1" x1="848" y1="0" x2="848" y2="1024" stroke="#449FDB" opacity="0.3"></line>
    <line stroke-width="1" x1="864" y1="0" x2="864" y2="1024" stroke="#449FDB" opacity="1"></line>
    <line stroke-width="1" x1="880" y1="0" x2="880" y2="1024" stroke="#449FDB" opacity="0.3"></line>
    <line stroke-width="1" x1="896" y1="0" x2="896" y2="1024" stroke="#449FDB" opacity="1"></line>
    <line stroke-width="1" x1="912" y1="0" x2="912" y2="1024" stroke="#449FDB" opacity="0.3"></line>
    <line stroke-width="1" x1="928" y1="0" x2="928" y2="1024" stroke="#449FDB" opacity="1"></line>
    <line stroke-width="1" x1="944" y1="0" x2="944" y2="1024" stroke="#449FDB" opacity="0.3"></line>
    <line stroke-width="1" x1="960" y1="0" x2="960" y2="1024" stroke="#449FDB" opacity="1"></line>
    <line stroke-width="1" x1="976" y1="0" x2="976" y2="1024" stroke="#449FDB" opacity="0.3"></line>
    <line stroke-width="1" x1="992" y1="0" x2="992" y2="1024" stroke="#449FDB" opacity="1"></line>
    <line stroke-width="1" x1="1008" y1="0" x2="1008" y2="1024" stroke="#449FDB" opacity="0.3"></line>
    <line stroke-width="1" x1="0" y1="16" x2="1024" y2="16" stroke="#449FDB" opacity="0.3"></line>
    <line stroke-width="1" x1="0" y1="32" x2="1024" y2="32" stroke="#449FDB" opacity="1"></line>
    <line stroke-width="1" x1="0" y1="48" x2="1024" y2="48" stroke="#449FDB" opacity="0.3"></line>
    <line stroke-width="1" x1="0" y1="64" x2="1024" y2="64" stroke="#449FDB" opacity="1"></line>
    <line stroke-width="1" x1="0" y1="80" x2="1024" y2="80" stroke="#449FDB" opacity="0.3"></line>
    <line stroke-width="1" x1="0" y1="96" x2="1024" y2="96" stroke="#449FDB" opacity="1"></line>
    <line stroke-width="1" x1="0" y1="112" x2="1024" y2="112" stroke="#449FDB" opacity="0.3"></line>
    <line stroke-width="1" x1="0" y1="128" x2="1024" y2="128" stroke="#449FDB" opacity="1"></line>
    <line stroke-width="1" x1="0" y1="144" x2="1024" y2="144" stroke="#449FDB" opacity="0.3"></line>
    <line stroke-width="1" x1="0" y1="160" x2="1024" y2="160" stroke="#449FDB" opacity="1"></line>
    <line stroke-width="1" x1="0" y1="176" x2="1024" y2="176" stroke="#449FDB" opacity="0.3"></line>
    <line stroke-width="1" x1="0" y1="192" x2="1024" y2="192" stroke="#449FDB" opacity="1"></line>
    <line stroke-width="1" x1="0" y1="208" x2="1024" y2="208" stroke="#449FDB" opacity="0.3"></line>
    <line stroke-width="1" x1="0" y1="224" x2="1024" y2="224" stroke="#449FDB" opacity="1"></line>
    <line stroke-width="1" x1="0" y1="240" x2="1024" y2="240" stroke="#449FDB" opacity="0.3"></line>
    <line stroke-width="1" x1="0" y1="256" x2="1024" y2="256" stroke="#449FDB" opacity="1"></line>
    <line stroke-width="1" x1="0" y1="272" x2="1024" y2="272" stroke="#449FDB" opacity="0.3"></line>
    <line stroke-width="1" x1="0" y1="288" x2="1024" y2="288" stroke="#449FDB" opacity="1"></line>
    <line stroke-width="1" x1="0" y1="304" x2="1024" y2="304" stroke="#449FDB" opacity="0.3"></line>
    <line stroke-width="1" x1="0" y1="320" x2="1024" y2="320" stroke="#449FDB" opacity="1"></line>
    <line stroke-width="1" x1="0" y1="336" x2="1024" y2="336" stroke="#449FDB" opacity="0.3"></line>
    <line stroke-width="1" x1="0" y1="352" x2="1024" y2="352" stroke="#449FDB" opacity="1"></line>
    <line stroke-width="1" x1="0" y1="368" x2="1024" y2="368" stroke="#449FDB" opacity="0.3"></line>
    <line stroke-width="1" x1="0" y1="384" x2="1024" y2="384" stroke="#449FDB" opacity="1"></line>
    <line stroke-width="1" x1="0" y1="400" x2="1024" y2="400" stroke="#449FDB" opacity="0.3"></line>
    <line stroke-width="1" x1="0" y1="416" x2="1024" y2="416" stroke="#449FDB" opacity="1"></line>
    <line stroke-width="1" x1="0" y1="432" x2="1024" y2="432" stroke="#449FDB" opacity="0.3"></line>
    <line stroke-width="1" x1="0" y1="448" x2="1024" y2="448" stroke="#449FDB" opacity="1"></line>
    <line stroke-width="1" x1="0" y1="464" x2="1024" y2="464" stroke="#449FDB" opacity="0.3"></line>
    <line stroke-width="1" x1="0" y1="480" x2="1024" y2="480" stroke="#449FDB" opacity="1"></line>
    <line stroke-width="1" x1="0" y1="496" x2="1024" y2="496" stroke="#449FDB" opacity="0.3"></line>
    <line stroke-width="1" x1="0" y1="512" x2="1024" y2="512" stroke="#449FDB" opacity="1"></line>
    <line stroke-width="1" x1="0" y1="528" x2="1024" y2="528" stroke="#449FDB" opacity="0.3"></line>
    <line stroke-width="1" x1="0" y1="544" x2="1024" y2="544" stroke="#449FDB" opacity="1"></line>
    <line stroke-width="1" x1="0" y1="560" x2="1024" y2="560" stroke="#449FDB" opacity="0.3"></line>
    <line stroke-width="1" x1="0" y1="576" x2="1024" y2="576" stroke="#449FDB" opacity="1"></line>
    <line stroke-width="1" x1="0" y1="592" x2="1024" y2="592" stroke="#449FDB" opacity="0.3"></line>
    <line stroke-width="1" x1="0" y1="608" x2="1024" y2="608" stroke="#449FDB" opacity="1"></line>
    <line stroke-width="1" x1="0" y1="624" x2="1024" y2="624" stroke="#449FDB" opacity="0.3"></line>
    <line stroke-width="1" x1="0" y1="640" x2="1024" y2="640" stroke="#449FDB" opacity="1"></line>
    <line stroke-width="1" x1="0" y1="656" x2="1024" y2="656" stroke="#449FDB" opacity="0.3"></line>
    <line stroke-width="1" x1="0" y1="672" x2="1024" y2="672" stroke="#449FDB" opacity="1"></line>
    <line stroke-width="1" x1="0" y1="688" x2="1024" y2="688" stroke="#449FDB" opacity="0.3"></line>
    <line stroke-width="1" x1="0" y1="704" x2="1024" y2="704" stroke="#449FDB" opacity="1"></line>
    <line stroke-width="1" x1="0" y1="720" x2="1024" y2="720" stroke="#449FDB" opacity="0.3"></line>
    <line stroke-width="1" x1="0" y1="736" x2="1024" y2="736" stroke="#449FDB" opacity="1"></line>
    <line stroke-width="1" x1="0" y1="752" x2="1024" y2="752" stroke="#449FDB" opacity="0.3"></line>
    <line stroke-width="1" x1="0" y1="768" x2="1024" y2="768" stroke="#449FDB" opacity="1"></line>
    <line stroke-width="1" x1="0" y1="784" x2="1024" y2="784" stroke="#449FDB" opacity="0.3"></line>
    <line stroke-width="1" x1="0" y1="800" x2="1024" y2="800" stroke="#449FDB" opacity="1"></line>
    <line stroke-width="1" x1="0" y1="816" x2="1024" y2="816" stroke="#449FDB" opacity="0.3"></line>
    <line stroke-width="1" x1="0" y1="832" x2="1024" y2="832" stroke="#449FDB" opacity="1"></line>
    <line stroke-width="1" x1="0" y1="848" x2="1024" y2="848" stroke="#449FDB" opacity="0.3"></line>
    <line stroke-width="1" x1="0" y1="864" x2="1024" y2="864" stroke="#449FDB" opacity="1"></line>
    <line stroke-width="1" x1="0" y1="880" x2="1024" y2="880" stroke="#449FDB" opacity="0.3"></line>
    <line stroke-width="1" x1="0" y1="896" x2="1024" y2="896" stroke="#449FDB" opacity="1"></line>
    <line stroke-width="1" x1="0" y1="912" x2="1024" y2="912" stroke="#449FDB" opacity="0.3"></line>
    <line stroke-width="1" x1="0" y1="928" x2="1024" y2="928" stroke="#449FDB" opacity="1"></line>
    <line stroke-width="1" x1="0" y1="944" x2="1024" y2="944" stroke="#449FDB" opacity="0.3"></line>
    <line stroke-width="1" x1="0" y1="960" x2="1024" y2="960" stroke="#449FDB" opacity="1"></line>
    <line stroke-width="1" x1="0" y1="976" x2="1024" y2="976" stroke="#449FDB" opacity="0.3"></line>
    <line stroke-width="1" x1="0" y1="992" x2="1024" y2="992" stroke="#449FDB" opacity="1"></line>
    <line stroke-width="1" x1="0" y1="1008" x2="1024" y2="1008" stroke="#449FDB" opacity="0.3"></line>
</g>
<path fill="#000" d="M339.712 326.754c-0.222-0.001-0.423-0.091-0.569-0.236v0c-0.087-0.183-0.231-0.328-0.409-0.412l-0.005-0.002-33.506-33.506c-0.144-0.146-0.232-0.347-0.232-0.569s0.089-0.422 0.232-0.569v0c22.050-23.204 16.639-55.174-1.324-72.675-16.802-16.371-48.593-21.067-70.684-0.106-0.146 0.141-0.345 0.228-0.565 0.228s-0.419-0.087-0.565-0.229v0l-33.725-33.725c-0.144-0.146-0.232-0.347-0.232-0.569s0.089-0.422 0.232-0.569v0c17.127-17.874 42.029-28.371 68.312-28.875 0.627-0.014 1.365-0.022 2.105-0.022 55.613 0 100.696 45.083 100.696 100.696 0 27.653-11.146 52.702-29.191 70.9l0.007-0.007c-0.147 0.15-0.351 0.243-0.577 0.244v0zM306.929 292.005l32.775 32.775c17.309-17.835 27.98-42.197 27.98-69.051 0-54.783-44.41-99.193-99.193-99.193-0.628 0-1.255 0.006-1.88 0.017l0.094-0.001c-25.576 0.487-49.804 10.611-66.622 27.802l32.612 32.572c22.749-21.002 55.125-16.095 72.309 0.658 9.303 9.191 15.309 21.7 16.096 35.605l0.006 0.143c0.045 0.813 0.071 1.765 0.071 2.723 0 13.924-5.423 26.582-14.273 35.976l0.025-0.026z"></path>
<path fill="#000" d="M256.947 368.921c-4.228-0.005-8.393-0.25-12.489-0.722l0.505 0.047c-11.098-1.368-21.195-4.252-30.565-8.466l0.666 0.268c-15.339-6.5-28.306-16.875-39.656-31.621-10.759-13.781-17.849-30.907-19.537-49.59l-0.027-0.368c-1.56-16.81 0.463-32.377 6.028-46.253 5.858-14.624 13.219-25.852 22.513-34.432 0.144-0.132 0.337-0.214 0.549-0.214 0.073 0 0.145 0.010 0.212 0.028l-0.006-0.001c0.060-0.016 0.128-0.025 0.199-0.025 0.223 0 0.426 0.090 0.573 0.236v0l33.717 33.717c0.15 0.147 0.243 0.351 0.244 0.577v0c-0.001 0.226-0.094 0.43-0.244 0.577v0c-18.792 18.687-19.645 49.064-1.926 69.1 9.408 10.651 22.107 16.915 35.748 17.63s27.193-4.314 37.958-14.186c0.146-0.139 0.343-0.224 0.561-0.224s0.415 0.085 0.561 0.225v0l33.936 33.928c0.146 0.147 0.236 0.349 0.236 0.573s-0.090 0.426-0.236 0.573v0c-2.974 2.889-6.171 5.593-9.545 8.069l-0.253 0.177c-17.972 13.552-38.015 20.376-59.724 20.376zM185.124 199.311c-8.937 8.368-16.054 19.337-21.741 33.514-5.468 13.633-7.458 28.94-5.915 45.498 1.684 18.723 8.65 35.553 19.379 49.305l-0.156-0.208c11.179 14.519 23.935 24.699 38.998 31.117 8.572 3.889 18.515 6.731 28.938 8.025l0.505 0.051c25.917 2.884 49.658-3.632 70.546-19.361 3.363-2.469 6.319-4.933 9.118-7.562l-0.051 0.047-32.807-32.791c-10.993 9.815-24.658 14.819-38.567 14.088-14.080-0.739-27.185-7.198-36.886-18.175-18.102-20.482-17.419-51.396 1.43-70.757z"></path>
<path fill="#000" d="M500.376 259.336c-0.496 0-0.983 0-1.471 0-0.942-0.057-1.885-0.154-2.795-0.26l-1.3-0.138c-22.684-2.218-42.248-10.651-58.075-25.073-24.081-21.936-35.399-49.56-33.644-82.213 0.674-12.349 3.884-24.544 9.823-37.259 6.573-14.080 16.802-26.437 30.402-36.731 9.038-6.925 19.633-12.376 31.118-15.745l0.681-0.171c3.24-0.925 7.414-1.839 11.662-2.531l0.696-0.094c2.251-0.398 4.574-0.812 6.841-1.284 0.056-0.016 0.12-0.025 0.187-0.025s0.131 0.009 0.192 0.026l-0.005-0.001c0.030-0.004 0.066-0.006 0.102-0.006s0.071 0.002 0.106 0.007h7.917c0.449 0 0.812 0.364 0.812 0.812v0 47.935c-0.001 0.226-0.094 0.43-0.244 0.577v0c-0.156 0.133-0.355 0.219-0.573 0.235h-0.271c-23.049 0-48.398 17.33-50.169 49.609-0.642 11.691 3.071 23.001 10.724 32.693 9.847 12.471 23.22 19.263 39.746 20.19 0.449 0 0.812 0.364 0.812 0.812v0 47.813c0 0.449-0.364 0.812-0.812 0.812v0h-2.437zM494.689 59.421h-0.041c-2.291 0.487-4.631 0.902-6.89 1.3-4.892 0.781-9.008 1.681-13.040 2.782l0.854-0.199c-11.959 3.476-22.375 8.82-31.495 15.777l0.231-0.169c-13.389 10.139-23.456 22.294-29.915 36.122-5.85 12.528-9.010 24.528-9.668 36.666-1.731 32.133 9.408 59.358 33.116 80.921 15.583 14.177 34.806 22.473 57.132 24.658l1.324 0.138c0.886 0.097 1.812 0.203 2.705 0.252s1.625 0 2.511 0h0.496v-46.213c-16.655-1.113-30.167-8.125-40.168-20.758-7.905-10.010-11.732-21.693-11.066-33.79 0.812-14.624 6.825-27.908 16.964-37.373 8.949-8.415 20.983-13.64 34.236-13.811h0.034v-46.31h-7.109c-0.038 0.009-0.082 0.015-0.127 0.015-0.030 0-0.059-0.002-0.088-0.007h0.003z"></path>
<path fill="#000" d="M258.58 503.261h-47.635c0 0-0.001 0-0.001 0-0.434 0-0.789-0.341-0.811-0.77v-0.002c-1.479-30.061-25.349-49.146-47.578-50.267-14.624-0.731-27.242 3.477-37.536 12.528-11.033 9.701-16.891 22.391-17.411 37.723 0 0.449-0.364 0.812-0.812 0.812v0h-47.667c-0.001 0-0.003 0-0.004 0-0.42 0-0.766-0.319-0.808-0.728v-0.003c-0.536-5.208-0.154-10.765 1.194-17.492 4.282-21.351 13.909-39.396 28.615-53.622 12.398-11.984 25.771-19.954 40.891-24.374 6.581-1.955 14.369-3.49 22.369-4.308l0.559-0.046c0.044-0.008 0.095-0.013 0.146-0.013s0.102 0.005 0.151 0.013l-0.005-0.001c0.027-0.004 0.058-0.006 0.089-0.006s0.063 0.002 0.093 0.006h-0.004c9.75-0.236 20.125-0.089 30.272 2.511 15.663 4.079 29.286 11.254 40.785 20.882l-0.162-0.132c15.843 13.137 26.527 29.509 32.653 50.048 1.137 3.819 2.559 8.563 2.754 13.186 0.106 1.627 0.291 3.113 0.556 4.57l-0.036-0.24c0.463 2.909 0.942 5.915 0.154 9.1-0.087 0.362-0.408 0.626-0.791 0.626-0.008 0-0.015 0-0.023 0h0.001zM211.716 501.636h46.213c0.512-2.64 0.114-5.167-0.309-7.832-0.243-1.276-0.437-2.826-0.538-4.4l-0.006-0.117c-0.187-4.42-1.576-9.067-2.689-12.796-6.028-20.222-16.542-36.333-32.125-49.259-11.159-9.344-24.567-16.407-39.271-20.267l-0.71-0.158c-9.953-2.559-20.222-2.697-29.825-2.437-0.033 0.006-0.071 0.009-0.11 0.009s-0.077-0.003-0.114-0.009l0.004 0.001c-0.018 0.004-0.039 0.006-0.061 0.006s-0.043-0.002-0.063-0.006h0.002c-8.448 0.847-16.14 2.363-23.555 4.526l0.912-0.228c-14.86 4.314-28.014 12.146-40.209 23.951-14.47 13.991-23.943 31.751-28.16 52.769-0.867 3.731-1.364 8.015-1.364 12.415 0 1.349 0.047 2.687 0.139 4.012l-0.010-0.179h46.188c0.707-15.437 6.735-28.265 17.931-38.104 10.619-9.343 23.643-13.69 38.689-12.934 22.716 1.129 47.139 20.531 49.040 51.039z"></path>
<path fill="#000" d="M767.797 369.051c-0.006 0-0.014 0-0.021 0-27.609 0-52.612-11.155-70.748-29.204l0.004 0.004c-0.146-0.147-0.236-0.349-0.236-0.573s0.090-0.426 0.236-0.573v0c0.065-0.074 0.147-0.132 0.239-0.169l0.004-0.002c0.038-0.096 0.093-0.177 0.162-0.244v0l33.506-33.506c0.146-0.144 0.347-0.232 0.569-0.232s0.422 0.089 0.569 0.232v0c23.212 22.050 55.182 16.639 72.683-1.324 16.371-16.802 21.067-48.593 0.106-70.684-0.141-0.146-0.228-0.345-0.228-0.565s0.087-0.419 0.229-0.565v0l33.733-33.733c0.146-0.144 0.347-0.232 0.569-0.232s0.422 0.089 0.569 0.232v0c17.874 17.127 28.371 42.029 28.867 68.312 0.009 0.506 0.014 1.104 0.014 1.702 0 55.291-44.377 100.218-99.457 101.105l-0.084 0.001zM698.738 339.266c17.835 17.309 42.197 27.98 69.051 27.98 54.783 0 99.193-44.41 99.193-99.193 0-0.628-0.006-1.255-0.017-1.88l0.001 0.094c-0.487-25.576-10.562-49.804-27.802-66.622l-32.604 32.612c21.002 22.749 16.095 55.125-0.658 72.309-9.191 9.303-21.7 15.309-35.605 16.096l-0.143 0.006c-0.804 0.044-1.746 0.069-2.693 0.069-13.934 0-26.6-5.429-35.998-14.287l0.026 0.024z"></path>
<path fill="#000" d="M683.789 326.275c-0.001 0-0.003 0-0.005 0-0.223 0-0.425-0.090-0.572-0.236v0c-2.884-2.976-5.586-6.175-8.060-9.552l-0.178-0.255c-15.989-21.238-22.611-45.368-19.694-71.683 1.364-11.097 4.246-21.194 8.457-30.565l-0.268 0.666c6.5-15.339 16.883-28.306 31.629-39.656 13.779-10.759 30.901-17.849 49.582-19.537l0.368-0.027c16.818-1.56 32.377 0.463 46.253 6.028 14.624 5.858 25.861 13.219 34.432 22.513 0.136 0.145 0.22 0.341 0.22 0.556 0 0.071-0.009 0.14-0.026 0.205l0.001-0.006c0.015 0.058 0.023 0.124 0.023 0.193 0 0.227-0.093 0.432-0.242 0.579v0l-33.717 33.717c-0.145 0.148-0.346 0.24-0.568 0.244h-0.001c-0.226-0.001-0.43-0.094-0.577-0.244v0c-18.687-18.8-49.064-19.645-69.108-1.926-10.144 8.802-16.771 21.426-17.624 35.606l-0.007 0.142c-0.715 13.706 4.322 27.193 14.194 37.958 0.139 0.146 0.224 0.343 0.224 0.561s-0.085 0.415-0.225 0.561v0l-33.945 33.92c-0.146 0.145-0.347 0.235-0.569 0.236v0zM755.887 156.518q-5.24 0-10.668 0.504c-18.729 1.684-35.565 8.654-49.321 19.387l0.208-0.156c-14.519 11.179-24.699 23.935-31.125 38.998-3.886 8.574-6.728 18.519-8.024 28.945l-0.051 0.507c-2.884 25.917 3.624 49.658 19.361 70.546 2.461 3.359 4.925 6.313 7.559 9.105l-0.043-0.047 32.807-32.807c-9.823-10.993-14.819-24.658-14.088-38.559 0.715-14.080 7.215-27.193 18.183-36.894 20.474-18.102 51.396-17.419 70.749 1.43l32.791-32.791c-8.368-8.937-19.328-16.054-33.506-21.741-10.071-4.069-21.75-6.43-33.98-6.43-0.299 0-0.598 0.001-0.896 0.004h0.046z"></path>
<path fill="#000" d="M964.901 503.188h-47.935c-0.226-0.001-0.43-0.094-0.577-0.244v0c-0.146-0.147-0.236-0.349-0.236-0.572 0-0.002 0-0.003 0-0.005v0c0.122-23.114-17.216-48.642-49.617-50.421-11.691-0.642-22.993 3.071-32.693 10.724-12.471 9.847-19.263 23.22-20.182 39.746 0 0.449-0.364 0.812-0.812 0.812v0h-47.813c-0.449 0-0.812-0.364-0.812-0.812v0c0-0.447 0-0.869 0-1.284 0-0.91 0-1.763 0-2.624s0.154-1.877 0.252-2.787c0.049-0.439 0.097-0.869 0.138-1.308 2.218-22.684 10.659-42.248 25.073-58.075 21.936-24.081 49.56-35.407 82.213-33.644 12.358 0.666 24.544 3.884 37.268 9.823 14.072 6.573 26.429 16.802 36.731 30.402 6.905 9.040 12.339 19.636 15.696 31.118l0.171 0.682c0.927 3.239 1.843 7.412 2.538 11.66l0.094 0.698c0.398 2.251 0.812 4.574 1.284 6.841 0.012 0.056 0.018 0.121 0.018 0.187s-0.007 0.131-0.019 0.193l0.001-0.006c0.004 0.030 0.006 0.066 0.006 0.102s-0.002 0.071-0.007 0.106v-0.004 7.921c-0.021 0.42-0.359 0.755-0.778 0.772h-0.002zM917.778 501.563h46.31v-7.109c-0.004-0.030-0.006-0.066-0.006-0.102s0.002-0.071 0.007-0.106v0.004s0 0 0-0.041c-0.487-2.291-0.894-4.631-1.292-6.89-0.778-4.88-1.68-8.995-2.789-13.026l0.197 0.839c-3.467-11.96-8.813-22.377-15.775-31.493l0.168 0.229c-10.131-13.389-22.286-23.456-36.122-29.915-12.528-5.85-24.52-9.010-36.666-9.668-32.133-1.731-59.358 9.408-80.921 33.116-14.177 15.583-22.473 34.806-24.658 57.132-0.041 0.447-0.089 0.886-0.138 1.332-0.097 0.886-0.203 1.804-0.252 2.697s0 1.625 0 2.519v0.487h46.245c1.113-16.655 8.125-30.167 20.75-40.168 10.010-7.905 21.693-11.732 33.79-11.066 14.624 0.812 27.916 6.825 37.373 16.964 8.402 8.95 13.614 20.982 13.771 34.23v0.031z"></path>
<path fill="#000" d="M524.522 259.352c-0.031 0-0.068 0-0.106 0-1.248 0-2.461-0.151-3.622-0.436l0.104 0.022c-0.357-0.090-0.618-0.409-0.618-0.789 0-0.008 0-0.017 0-0.025v0.001-47.618c0 0 0-0.001 0-0.001 0-0.434 0.341-0.789 0.77-0.811h0.002c30.061-1.479 49.138-25.357 50.259-47.578 0.739-14.624-3.477-27.242-12.528-37.536-9.701-11.033-22.391-16.891-37.723-17.411-0.449 0-0.812-0.364-0.812-0.812v0-47.667c0-0.001 0-0.003 0-0.004 0-0.42 0.319-0.766 0.728-0.808h0.003c5.2-0.536 10.757-0.154 17.484 1.194 21.36 4.282 39.396 13.909 53.622 28.615 11.992 12.398 19.954 25.771 24.374 40.891 1.959 6.584 3.495 14.372 4.309 22.374l0.046 0.554c0.010 0.044 0.015 0.094 0.015 0.146s-0.006 0.102-0.016 0.151l0.001-0.005c0.004 0.027 0.006 0.058 0.006 0.089s-0.002 0.063-0.006 0.093v-0.004c0.227 9.75 0.089 20.125-2.519 30.272-4.075 15.663-11.251 29.287-20.882 40.784l0.132-0.161c-13.137 15.843-29.5 26.527-50.039 32.653-3.819 1.137-8.571 2.551-13.194 2.754-1.628 0.106-3.114 0.291-4.572 0.556l0.241-0.036c-1.617 0.31-3.5 0.51-5.421 0.552l-0.038 0.001zM521.906 257.492c2.632 0.512 5.167 0.114 7.832-0.309 1.277-0.244 2.827-0.437 4.402-0.538l0.116-0.006c4.42-0.187 9.059-1.576 12.796-2.689 20.214-6.028 36.325-16.542 49.251-32.125 9.35-11.158 16.416-24.565 20.275-39.272l0.158-0.709c2.551-9.961 2.689-20.222 2.437-29.825-0.004-0.033-0.006-0.071-0.006-0.11s0.002-0.077 0.007-0.114v0.005-0.122c-0.849-8.452-2.364-16.147-4.526-23.566l0.228 0.915c-4.314-14.852-12.146-28.005-23.943-40.209-13.999-14.462-31.751-23.935-52.81-28.152-3.73-0.867-8.012-1.364-12.411-1.364-1.35 0-2.69 0.047-4.017 0.139l0.179-0.010v46.188c15.437 0.707 28.257 6.735 38.104 17.931 9.335 10.619 13.69 23.643 12.926 38.689-1.146 22.749-20.523 47.18-51.031 49.081z"></path>
<path fill="#000" d="M754.944 869.088c-0.053 0-0.115 0-0.177 0-55.609 0-100.688-45.080-100.688-100.688 0-27.659 11.152-52.712 29.205-70.91l-0.007 0.007c0.147-0.148 0.351-0.24 0.577-0.24s0.43 0.092 0.577 0.24v0c0.069 0.071 0.127 0.154 0.168 0.246l0.002 0.005c0.094 0.036 0.173 0.091 0.235 0.162l33.515 33.507c0.144 0.146 0.232 0.347 0.232 0.569s-0.089 0.422-0.232 0.569v0c-22.050 23.212-16.647 55.182 1.316 72.683 16.81 16.371 48.601 21.067 70.684 0.106 0.146-0.144 0.347-0.232 0.569-0.232s0.422 0.089 0.569 0.232v0l33.725 33.733c0.141 0.146 0.228 0.345 0.228 0.565s-0.087 0.419-0.229 0.565v0c-17.127 17.874-42.020 28.379-68.312 28.875zM683.862 699.218c-17.309 17.835-27.98 42.197-27.98 69.050 0 54.783 44.41 99.193 99.193 99.193 0.619 0 1.238-0.006 1.854-0.017l-0.093 0.001c25.576-0.487 49.812-10.611 66.622-27.802l-32.58-32.604c-9.187 8.617-21.582 13.91-35.213 13.91-0.057 0-0.114 0-0.171 0h0.009c-14.129 0-27.729-5.582-36.951-14.567-9.307-9.188-15.314-21.699-16.097-35.606l-0.006-0.143c-0.042-0.788-0.066-1.711-0.066-2.639 0-13.933 5.428-26.597 14.285-35.995l-0.025 0.026z"></path>
<path fill="#000" d="M838.637 826.434c-0.362-0.032-0.695-0.119-1.004-0.252l0.021 0.008-33.693-33.717c-0.145-0.146-0.235-0.347-0.236-0.569v0c0.001-0.222 0.091-0.423 0.236-0.569v0c18.8-18.687 19.645-49.064 1.934-69.108-9.416-10.651-22.115-16.907-35.748-17.63s-27.185 4.322-37.958 14.194c-0.146 0.139-0.343 0.224-0.561 0.224s-0.415-0.085-0.561-0.225v0l-33.969-33.969c-0.146-0.147-0.236-0.349-0.236-0.573s0.090-0.426 0.236-0.573v0c2.978-2.881 6.18-5.582 9.558-8.059l0.257-0.18c21.238-15.989 45.36-22.611 71.708-19.678 11.097 1.364 21.194 4.246 30.565 8.457l-0.666-0.268c15.331 6.5 28.306 16.883 39.656 31.629 10.758 13.778 17.846 30.901 19.529 49.583l0.027 0.367c1.568 16.818-0.463 32.377-6.028 46.253-5.858 14.624-13.219 25.861-22.513 34.432-0.144 0.135-0.339 0.219-0.552 0.219v0zM805.659 791.896l32.783 32.791c8.937-8.368 16.062-19.328 21.741-33.506 5.468-13.633 7.467-28.94 5.923-45.498-1.68-18.73-8.65-35.567-19.387-49.32l0.156 0.207c-11.171-14.519-23.935-24.699-38.998-31.125-8.571-3.883-18.515-6.722-28.937-8.016l-0.507-0.051c-25.917-2.892-49.649 3.624-70.546 19.361-3.359 2.465-6.313 4.929-9.107 7.56l0.048-0.045 32.823 32.807c11.001-9.823 24.658-14.819 38.567-14.088 14.080 0.739 27.185 7.19 36.894 18.175 18.077 20.474 17.395 51.396-1.454 70.749z"></path>
<path fill="#000" d="M529.088 966.177c-0.030 0.004-0.066 0.006-0.102 0.006s-0.071-0.002-0.106-0.007h0.004c-0.030 0.004-0.066 0.006-0.102 0.006s-0.071-0.002-0.106-0.006h-7.917c-0.449 0-0.812-0.364-0.812-0.812v0-47.935c0-0.001 0-0.003 0-0.005 0-0.223 0.090-0.425 0.236-0.572v0c0.147-0.146 0.349-0.236 0.572-0.236 0.002 0 0.003 0 0.005 0v0c23.090 0.114 48.642-17.224 50.421-49.617 0.642-11.691-3.063-22.993-10.716-32.693-9.855-12.471-23.228-19.263-39.754-20.182-0.427-0.026-0.764-0.379-0.764-0.811 0-0.001 0-0.001 0-0.002v0-47.813c0-0.449 0.364-0.812 0.812-0.812v0h1.276c0.91 0 1.763 0 2.624 0s1.877 0.154 2.787 0.252l1.308 0.138c22.684 2.218 42.248 10.651 58.075 25.073 24.089 21.936 35.407 49.56 33.644 82.213-0.666 12.358-3.875 24.544-9.815 37.268-6.581 14.072-16.81 26.429-30.41 36.731-9.040 6.906-19.635 12.341-31.118 15.697l-0.682 0.171c-3.244 0.93-7.418 1.846-11.666 2.539l-0.691 0.093c-2.242 0.39-4.566 0.812-6.841 1.284zM521.573 964.552h7.109c0.030-0.004 0.066-0.006 0.102-0.006s0.071 0.002 0.106 0.006h-0.004c2.299-0.487 4.631-0.894 6.898-1.292 4.876-0.776 8.992-1.678 13.022-2.788l-0.835 0.196c11.963-3.465 22.383-8.811 31.501-15.775l-0.229 0.168c13.381-10.131 23.448-22.286 29.907-36.122 5.85-12.528 9.018-24.52 9.668-36.666 1.739-32.125-9.408-59.35-33.108-80.921-15.591-14.177-34.814-22.473-57.14-24.658l-1.332-0.138c-0.886-0.097-1.804-0.203-2.697-0.252s-1.625 0-2.511 0h-0.487v46.245c16.655 1.113 30.167 8.125 40.168 20.75 7.897 10.010 11.724 21.693 11.066 33.79-0.812 14.624-6.833 27.916-16.972 37.373-8.945 8.418-20.977 13.643-34.228 13.811h-0.033z"></path>
<path fill="#000" d="M865.261 621.36c-7.97 0-16.249-0.504-24.374-2.592-15.663-4.077-29.286-11.252-40.785-20.882l0.162 0.132c-15.843-13.137-26.527-29.5-32.645-50.039-1.146-3.819-2.559-8.571-2.762-13.194-0.101-1.619-0.286-3.105-0.555-4.562l0.035 0.231c-0.455-2.909-0.934-5.915-0.146-9.091 0.090-0.357 0.409-0.618 0.789-0.618 0.008 0 0.017 0 0.025 0h47.634c0 0 0.001 0 0.001 0 0.434 0 0.789 0.341 0.811 0.77v0.002c1.487 30.061 25.357 49.138 47.578 50.259 14.624 0.739 27.25-3.477 37.544-12.528 11.033-9.701 16.883-22.391 17.403-37.723 0-0.449 0.364-0.812 0.812-0.812v0h47.675c0.001 0 0.003 0 0.004 0 0.42 0 0.766 0.319 0.808 0.728v0.003c0.536 5.2 0.154 10.757-1.194 17.484-4.282 21.36-13.909 39.396-28.615 53.622-12.39 11.992-25.763 19.954-40.883 24.374-6.586 1.959-14.377 3.494-22.381 4.309l-0.555 0.046c-0.043 0.010-0.092 0.015-0.142 0.015s-0.099-0.006-0.147-0.016l0.004 0.001c-0.028 0.004-0.060 0.006-0.093 0.006s-0.065-0.002-0.097-0.006h0.004c-1.966 0.049-3.932 0.081-5.915 0.081zM765.636 522.411c-0.512 2.632-0.106 5.167 0.317 7.832 0.237 1.27 0.427 2.82 0.53 4.395l0.006 0.123c0.195 4.42 1.576 9.059 2.689 12.788 6.028 20.222 16.542 36.333 32.133 49.259 11.155 9.35 24.56 16.416 39.264 20.275l0.709 0.158c9.961 2.551 20.222 2.689 29.825 2.437 0.034-0.004 0.074-0.006 0.114-0.006s0.080 0.002 0.118 0.007h0.109c8.452-0.848 16.146-2.364 23.565-4.526l-0.914 0.228c14.86-4.314 28.014-12.146 40.209-23.943 14.462-13.999 23.935-31.751 28.152-52.81 0.871-3.739 1.37-8.032 1.37-12.442 0-1.34-0.046-2.669-0.137-3.985l0.010 0.178h-46.156c-0.699 15.437-6.727 28.257-17.923 38.104-10.627 9.335-23.643 13.682-38.697 12.926-22.749-1.146-47.18-20.523-49.073-51.031z"></path>
<path fill="#000" d="M522.223 1024q-4.964 0-9.92-0.13c-0.083 0.032-0.18 0.055-0.28 0.065h-0.005l-5.744-0.049c-8.125-0.049-16.501-0.097-24.78-0.65-12.504-0.812-22.838-1.771-32.539-2.941-29.98-3.791-56.715-9.465-82.601-17.117l3.646 0.925c-25.186-7.117-51.38-17.143-80.109-30.654-24.837-11.683-48.934-25.917-73.666-43.515-17.896-12.788-33.569-25.584-48.387-39.292l0.321 0.294c-23.342-21.603-41.435-40.753-56.872-60.276-16.345-20.446-31.818-43.33-45.416-67.411l-1.341-2.582c-13.67-24.217-26.459-52.57-36.721-82.104l-1.131-3.741c-5.687-16.477-9.863-33.043-14.446-52.81-4.249-18.353-7.385-38.039-9.871-61.926-1.224-11.206-1.923-24.203-1.923-37.362 0-3.592 0.052-7.172 0.155-10.74l-0.012 0.524-0.073-0.812c0-1.991 0-3.9 0.041-5.817 0.049-8.125 0.106-16.501 0.658-24.78 0.853-12.536 1.771-22.871 2.941-32.58 3.791-29.98 9.465-56.715 17.117-82.601l-0.925 3.646c7.109-25.186 17.135-51.38 30.646-80.109 11.683-24.837 25.917-48.967 43.515-73.666 12.784-17.896 25.58-33.569 39.29-48.385l-0.292 0.319c21.595-23.342 40.745-41.435 60.268-56.872 20.448-16.345 43.334-31.817 67.418-45.416l2.583-1.341c24.222-13.675 52.577-26.464 82.116-36.723l3.737-1.129c16.477-5.687 33.035-9.863 52.81-14.446 18.362-4.249 38.031-7.385 61.918-9.871 11.214-1.225 24.218-1.923 37.386-1.923 3.495 0 6.979 0.049 10.45 0.147l-0.511-0.011c0.083-0.040 0.181-0.064 0.284-0.065v0l5.736 0.041c8.125 0.049 16.509 0.106 24.78 0.658 12.496 0.812 22.838 1.763 32.539 2.941 29.984 3.792 56.722 9.466 82.611 17.117l-3.648-0.925c25.186 7.109 51.372 17.135 80.1 30.646 24.845 11.683 48.943 25.917 73.666 43.515 17.9 12.785 33.575 25.581 48.393 39.291l-0.32-0.293c23.334 21.595 41.435 40.745 56.872 60.268 16.343 20.448 31.815 43.334 45.415 67.417l1.342 2.584c13.678 24.22 26.475 52.574 36.745 82.111l1.132 3.741c5.687 16.477 9.855 33.035 14.446 52.81 4.249 18.345 7.385 38.007 9.863 61.893 1.23 11.22 1.931 24.233 1.931 37.409 0 3.593-0.052 7.174-0.156 10.741l0.012-0.524c-0.007 0.138-0.045 0.266-0.108 0.378l0.002-0.004c0.111 0.138 0.179 0.315 0.179 0.508 0 0.001 0 0.002 0 0.004v0c0 1.909 0 3.827-0.049 5.736-0.049 8.125-0.097 16.509-0.65 24.78-0.812 12.504-1.771 22.846-2.941 32.539-3.792 29.984-9.466 56.722-17.117 82.611l0.925-3.648c-7.117 25.186-17.143 51.364-30.654 80.1-11.683 24.845-25.917 48.943-43.515 73.666-12.782 17.9-25.578 33.576-39.29 48.392l0.291-0.319c-21.595 23.334-40.745 41.435-60.268 56.872-20.446 16.341-43.329 31.813-67.408 45.414l-2.585 1.343c-24.213 13.655-52.566 26.432-82.099 36.688l-3.746 1.132c-16.477 5.687-33.035 9.855-52.81 14.446-18.345 4.249-38.015 7.385-61.901 9.863-11.219 1.248-24.244 1.968-37.434 1.982h-0.021zM512.027 1022.237v0c3.034 0.091 6.603 0.144 10.183 0.144 13.111 0 26.059-0.698 38.809-2.060l-1.585 0.137c23.821-2.437 43.426-5.598 61.698-9.831 19.759-4.574 36.276-8.775 52.68-14.397 33.178-11.354 61.445-24.093 88.279-39.089l-2.695 1.383c26.581-14.895 49.392-30.319 70.813-47.412l-1.039 0.801c19.499-15.437 38.551-33.457 60.122-56.734 13.37-14.454 26.123-30.085 37.877-46.481l0.991-1.454c17.541-24.65 31.727-48.658 43.369-73.414 13.471-28.655 23.472-54.776 30.557-79.857 6.71-22.175 12.367-48.827 15.875-76.152l0.268-2.559c1.17-9.66 2.104-19.978 2.933-32.45 0.552-8.222 0.601-16.59 0.65-24.683 0-1.917 0-3.827 0.049-5.744 0-0.001 0-0.003 0-0.004 0-0.141 0.036-0.274 0.1-0.39l-0.002 0.004c-0.107-0.136-0.171-0.31-0.171-0.499 0-0.010 0-0.021 0.001-0.031v0.001c0.091-3.033 0.143-6.6 0.143-10.179 0-13.112-0.698-26.061-2.060-38.812l0.137 1.585c-2.437-23.813-5.598-43.418-9.831-61.698-4.574-19.751-8.775-36.26-14.397-52.68-11.352-33.174-24.091-61.438-39.089-88.269l1.382 2.693c-14.896-26.585-30.32-49.399-47.412-70.822l0.801 1.040c-15.437-19.45-33.457-38.543-56.734-60.122-14.455-13.377-30.086-26.133-46.484-37.888l-1.451-0.989c-24.65-17.541-48.658-31.686-73.414-43.369-28.647-13.471-54.768-23.464-79.857-30.557-22.164-6.685-48.808-12.32-76.123-15.812l-2.556-0.267c-9.701-1.17-20.011-2.072-32.498-2.933-8.222-0.544-16.59-0.601-24.683-0.65l-5.452-0.041c-0.084 0.046-0.185 0.073-0.292 0.073-0.006 0-0.012 0-0.018 0h0.001c-3.051-0.092-6.64-0.145-10.241-0.145-13.090 0-26.018 0.696-38.749 2.053l1.583-0.137c-23.821 2.478-43.426 5.598-61.698 9.831-19.743 4.574-36.26 8.775-52.68 14.405-33.165 11.351-61.421 24.087-88.245 39.080l2.693-1.382c-26.582 14.901-49.396 30.335-70.816 47.441l1.034-0.798c-19.45 15.437-38.543 33.457-60.122 56.734-13.374 14.455-26.13 30.086-37.886 46.483l-0.99 1.452c-17.541 24.65-31.686 48.666-43.369 73.414-13.471 28.655-23.464 54.776-30.557 79.857-6.688 22.151-12.331 48.786-15.834 76.090l-0.269 2.564c-1.162 9.676-2.072 19.987-2.933 32.45-0.544 8.23-0.601 16.599-0.65 24.691 0 1.909 0 3.827-0.041 5.744l0.065 0.812c0.002 0.012 0.003 0.026 0.003 0.041s-0.001 0.028-0.003 0.042v-0.002c-0.093 3.052-0.145 6.641-0.145 10.243 0 13.090 0.696 26.017 2.053 38.746l-0.137-1.583c2.478 23.821 5.598 43.426 9.831 61.698 4.582 19.751 8.775 36.268 14.405 52.68 11.351 33.181 24.093 61.453 39.095 88.291l-1.381-2.69c14.898 26.579 30.33 49.39 47.433 70.808l-0.798-1.034c15.437 19.458 33.457 38.551 56.734 60.122 14.454 13.371 30.085 26.124 46.481 37.877l1.454 0.991c24.65 17.549 48.666 31.686 73.414 43.369 28.647 13.471 54.768 23.472 79.857 30.557 22.168 6.704 48.821 12.361 76.144 15.874l2.567 0.269c9.668 1.17 19.978 2.104 32.45 2.933 8.23 0.552 16.599 0.601 24.691 0.65h5.443c0.069-0.030 0.149-0.050 0.233-0.057h0.003z"></path>
<path fill="#000" d="M184.393 826.272c-0.218-0.001-0.415-0.087-0.561-0.228v0c-17.874-17.127-28.371-42.029-28.875-68.312-0.009-0.506-0.014-1.104-0.014-1.702 0-55.291 44.377-100.218 99.457-101.105l0.084-0.001h1.284c0.007 0 0.015 0 0.022 0 27.611 0 52.616 11.155 70.755 29.204l-0.004-0.004c0.148 0.147 0.24 0.351 0.24 0.577s-0.092 0.43-0.24 0.577v0c-0.068 0.070-0.149 0.127-0.239 0.169l-0.005 0.002c-0.042 0.093-0.099 0.171-0.17 0.235l-33.507 33.515c-0.146 0.144-0.347 0.232-0.569 0.232s-0.422-0.089-0.569-0.232v0c-23.204-22.042-55.174-16.639-72.675 1.324-16.371 16.81-21.067 48.601-0.106 70.684 0.144 0.146 0.232 0.347 0.232 0.569s-0.089 0.422-0.232 0.569v0l-33.725 33.725c-0.143 0.127-0.332 0.204-0.539 0.204-0.016 0-0.032 0-0.048-0.001h0.002zM255.769 656.54h-1.259c-54.276 0.875-97.94 45.079-97.94 99.482 0 0.587 0.005 1.173 0.015 1.758l-0.001-0.088c0.487 25.576 10.611 49.812 27.802 66.622l32.604-32.604c-21.002-22.749-16.087-55.134 0.666-72.309 9.188-9.307 21.699-15.314 35.606-16.097l0.143-0.006c0.804-0.044 1.745-0.069 2.692-0.069 13.932 0 26.596 5.429 35.991 14.287l-0.026-0.024 32.775-32.775c-17.77-17.404-42.124-28.144-68.987-28.144-0.028 0-0.056 0-0.084 0h0.004z"></path>
<path fill="#000" d="M267.679 869.105c-0.29 0.003-0.632 0.005-0.975 0.005-12.401 0-24.243-2.388-35.093-6.73l0.637 0.225c-14.624-5.858-25.861-13.219-34.432-22.513-0.125-0.22-0.199-0.483-0.199-0.764s0.074-0.544 0.203-0.772l-0.004 0.008 33.717-33.717c0.147-0.146 0.349-0.236 0.572-0.236 0.002 0 0.003 0 0.005 0v0c0.001 0 0.003 0 0.005 0 0.223 0 0.425 0.090 0.572 0.236v0c18.687 18.8 49.064 19.645 69.1 1.934 10.651-9.416 16.915-22.115 17.63-35.748s-4.314-27.185-14.186-37.958c-0.139-0.146-0.224-0.343-0.224-0.561s0.085-0.415 0.225-0.561v0l34.001-33.985c0.147-0.146 0.349-0.236 0.573-0.236s0.426 0.090 0.573 0.236v0c2.887 2.977 5.59 6.179 8.061 9.56l0.177 0.254c15.989 21.238 22.611 45.36 19.686 71.708-1.368 11.098-4.252 21.195-8.466 30.565l0.268-0.666c-6.5 15.331-16.875 28.306-31.621 39.656-13.78 10.76-30.907 17.848-49.592 19.529l-0.367 0.027c-3.689 0.333-7.304 0.504-10.846 0.504zM199.342 839.312c8.368 8.937 19.337 16.054 33.514 21.741 13.633 5.476 28.94 7.467 45.498 5.923 18.729-1.683 35.566-8.653 49.321-19.387l-0.208 0.156c14.519-11.171 24.699-23.935 31.117-38.998 3.888-8.569 6.73-18.509 8.025-28.93l0.051-0.506c2.884-25.926-3.632-49.658-19.361-70.554-2.465-3.359-4.929-6.313-7.56-9.107l0.045 0.048-32.807 32.799c9.823 11.001 14.819 24.666 14.088 38.567-0.739 14.088-7.198 27.185-18.175 36.894-9.19 8.166-21.363 13.154-34.7 13.154-0.003 0-0.006 0-0.009 0v0c-0.037 0-0.082 0-0.126 0-13.975 0-26.651-5.563-35.934-14.595l0.012 0.011z"></path>
<path fill="#000" d="M515.033 685.91c-1.146 0-2.291 0-3.437 0h-0.122c-0.322 0.002-0.702 0.004-1.083 0.004-23.812 0-46.4-5.237-66.676-14.622l0.983 0.408c-21.342-9.756-39.552-22.666-54.924-38.365l-0.031-0.031c-15.717-15.932-28.614-34.693-37.85-55.444l-0.474-1.192c-9.246-21.392-13.698-43.125-13.235-64.607l-0.057-0.333c-0.002-0.019-0.003-0.042-0.003-0.065s0.001-0.046 0.003-0.068v0.003c-0.004-0.448-0.007-0.977-0.007-1.507 0-24.028 5.086-46.868 14.24-67.502l-0.421 1.063c9.499-21.676 22.371-40.164 38.162-55.695l0.024-0.024c33.075-32.637 77.492-50.795 121.869-49.804h0.097c0.294-0.002 0.642-0.003 0.99-0.003 23.84 0 46.458 5.237 66.764 14.622l-0.987-0.409c21.347 9.752 39.56 22.663 54.932 38.365l0.031 0.032c15.736 15.916 28.651 34.661 37.906 55.398l0.474 1.19c9.262 21.416 13.714 43.182 13.235 64.688 0.002 0.009 0.003 0.018 0.003 0.028s-0.001 0.020-0.003 0.029v-0.001c0.050 0.097 0.080 0.211 0.081 0.333v0c0.004 0.432 0.006 0.942 0.006 1.453 0 24.043-5.085 46.899-14.239 67.55l0.421-1.065c-9.502 21.677-22.374 40.168-38.162 55.704l-0.024 0.023c-32.287 31.775-75.266 49.844-118.489 49.844zM511.783 684.285c1.097 0 2.194 0 3.25 0 42.8 0 85.365-17.874 117.279-49.373 33.165-32.718 51.949-77.362 51.551-122.486v-0.081c-0.046-0.099-0.074-0.215-0.074-0.338 0-0.010 0-0.019 0.001-0.029v0.001c0.942-42.427-17.703-86.202-51.185-120.098s-76.371-52.517-120.683-52.119h-0.146c-43.873-0.934-87.827 17.062-120.561 49.341-33.14 32.702-51.924 77.322-51.542 122.43l0.057 0.349c0.002 0.023 0.003 0.050 0.003 0.077s-0.001 0.054-0.004 0.081v-0.003c-0.942 42.427 17.695 86.202 51.144 120.098s76.371 52.509 120.683 52.127c0.034-0.011 0.073-0.017 0.113-0.017 0.029 0 0.057 0.003 0.085 0.009h-0.003z"></path>
<path fill="#000" d="M158.183 621.531q-3.25 0-6.5-0.179c-12.349-0.666-24.536-3.875-37.259-9.815-14.080-6.581-26.437-16.81-36.731-30.41-6.909-9.040-12.346-19.635-15.705-31.118l-0.171-0.682c-0.921-3.232-1.835-7.406-2.529-11.653l-0.095-0.705c-0.398-2.242-0.812-4.566-1.284-6.841-0.013-0.055-0.021-0.118-0.021-0.183s0.008-0.128 0.022-0.188l-0.001 0.006c-0.004-0.030-0.006-0.066-0.006-0.102s0.002-0.071 0.006-0.106v0.004-7.962c0-0.449 0.364-0.812 0.812-0.812v0h47.935c0.001 0 0.003 0 0.005 0 0.223 0 0.425 0.090 0.572 0.236v0c0.143 0.15 0.232 0.353 0.236 0.576v0.001c-0.13 23.114 17.216 48.642 49.609 50.421 11.699 0.642 23.001-3.063 32.693-10.716 12.479-9.855 19.272-23.228 20.19-39.754 0.026-0.427 0.379-0.764 0.811-0.764 0.001 0 0.001 0 0.002 0v0h47.813c0.449 0 0.812 0.364 0.812 0.812v0c0 0.447 0 0.869 0 1.284 0 0.902 0 1.755 0 2.616s-0.154 1.885-0.26 2.803c-0.049 0.431-0.097 0.861-0.138 1.292-2.218 22.684-10.651 42.248-25.073 58.075-20.498 22.489-45.928 33.863-75.746 33.863zM59.453 529.723s0 0 0 0c0.479 2.299 0.894 4.631 1.292 6.898 0.779 4.888 1.679 9.004 2.782 13.036l-0.198-0.849c3.473 11.962 8.818 22.381 15.776 31.503l-0.169-0.231c10.139 13.381 22.294 23.448 36.122 29.907 12.528 5.85 24.528 9.018 36.666 9.668 32.133 1.739 59.358-9.408 80.921-33.108 14.177-15.591 22.473-34.814 24.658-57.14 0.041-0.439 0.089-0.877 0.138-1.316 0.106-0.894 0.203-1.812 0.252-2.714s0-1.625 0-2.511c0-0.162 0-0.325 0-0.487h-46.205c-1.113 16.655-8.125 30.167-20.758 40.168-10.010 7.905-21.701 11.732-33.79 11.066-14.624-0.812-27.908-6.833-37.373-16.972-8.414-8.948-13.638-20.978-13.811-34.227v-0.034h-46.31v7.109c0.010 0.041 0.016 0.089 0.016 0.138 0 0.035-0.003 0.068-0.009 0.101l0.001-0.004z"></path>
<path fill="#000" d="M497.922 966.356c-4.581-0.054-9.012-0.572-13.285-1.509l0.431 0.079c-21.351-4.282-39.396-13.909-53.622-28.615-11.984-12.39-19.946-25.763-24.374-40.883-1.954-6.582-3.489-14.373-4.308-22.375l-0.046-0.56c-0.008-0.043-0.013-0.092-0.013-0.142s0.005-0.099 0.013-0.147l-0.001 0.005c-0.004-0.028-0.006-0.060-0.006-0.093s0.002-0.065 0.006-0.097v0.004c-0.236-9.75-0.089-20.117 2.511-30.264 4.080-15.662 11.255-29.285 20.882-40.785l-0.132 0.162c13.137-15.843 29.509-26.519 50.048-32.645 3.819-1.146 8.571-2.559 13.186-2.762 1.618-0.1 3.103-0.285 4.56-0.555l-0.229 0.035c2.909-0.455 5.923-0.934 9.1-0.146 0.357 0.090 0.618 0.409 0.618 0.789 0 0.008 0 0.017 0 0.025v-0.001 47.635c0 0 0 0.001 0 0.001 0 0.434-0.341 0.789-0.77 0.811h-0.002c-30.061 1.487-49.146 25.357-50.267 47.578-0.739 14.624 3.477 27.25 12.528 37.544 9.701 11.033 22.391 16.883 37.723 17.403 0.449 0 0.812 0.364 0.812 0.812v0 47.675c0 0.001 0 0.003 0 0.004 0 0.42-0.319 0.766-0.728 0.808h-0.003c-1.315 0.135-2.842 0.212-4.386 0.212-0.086 0-0.172 0-0.258-0.001h0.013zM404.343 872.208c0.004 0.017 0.006 0.037 0.006 0.057s-0.002 0.040-0.007 0.059v-0.002c0.848 8.452 2.364 16.146 4.526 23.565l-0.228-0.914c4.314 14.86 12.187 28.014 23.951 40.209 13.991 14.462 31.751 23.935 52.769 28.152 3.74 0.871 8.035 1.37 12.446 1.37 1.338 0 2.666-0.046 3.981-0.136l-0.178 0.010v-46.156c-15.437-0.699-28.265-6.735-38.104-17.923-9.343-10.627-13.69-23.643-12.934-38.697 1.154-22.749 20.531-47.18 51.039-49.073v-46.221c-2.64-0.504-5.167-0.106-7.832 0.317-1.269 0.236-2.819 0.427-4.393 0.53l-0.124 0.006c-4.42 0.195-9.067 1.576-12.796 2.689-20.222 6.037-36.333 16.542-49.259 32.133-9.344 11.157-16.407 24.561-20.267 39.263l-0.158 0.71c-2.559 9.961-2.697 20.222-2.437 29.825 0.006 0.034 0.009 0.074 0.009 0.114s-0.003 0.080-0.010 0.118l0.001-0.004z"></path>
</svg>
