<!-- Generated by IcoMoon.io -->
<svg version="1.1" xmlns="http://www.w3.org/2000/svg" width="1024" height="1024" viewBox="0 0 1024 1024">
<title></title>
<g id="icomoon-ignore">
    <line stroke-width="1" x1="16" y1="0" x2="16" y2="1024" stroke="#449FDB" opacity="0.3"></line>
    <line stroke-width="1" x1="32" y1="0" x2="32" y2="1024" stroke="#449FDB" opacity="1"></line>
    <line stroke-width="1" x1="48" y1="0" x2="48" y2="1024" stroke="#449FDB" opacity="0.3"></line>
    <line stroke-width="1" x1="64" y1="0" x2="64" y2="1024" stroke="#449FDB" opacity="1"></line>
    <line stroke-width="1" x1="80" y1="0" x2="80" y2="1024" stroke="#449FDB" opacity="0.3"></line>
    <line stroke-width="1" x1="96" y1="0" x2="96" y2="1024" stroke="#449FDB" opacity="1"></line>
    <line stroke-width="1" x1="112" y1="0" x2="112" y2="1024" stroke="#449FDB" opacity="0.3"></line>
    <line stroke-width="1" x1="128" y1="0" x2="128" y2="1024" stroke="#449FDB" opacity="1"></line>
    <line stroke-width="1" x1="144" y1="0" x2="144" y2="1024" stroke="#449FDB" opacity="0.3"></line>
    <line stroke-width="1" x1="160" y1="0" x2="160" y2="1024" stroke="#449FDB" opacity="1"></line>
    <line stroke-width="1" x1="176" y1="0" x2="176" y2="1024" stroke="#449FDB" opacity="0.3"></line>
    <line stroke-width="1" x1="192" y1="0" x2="192" y2="1024" stroke="#449FDB" opacity="1"></line>
    <line stroke-width="1" x1="208" y1="0" x2="208" y2="1024" stroke="#449FDB" opacity="0.3"></line>
    <line stroke-width="1" x1="224" y1="0" x2="224" y2="1024" stroke="#449FDB" opacity="1"></line>
    <line stroke-width="1" x1="240" y1="0" x2="240" y2="1024" stroke="#449FDB" opacity="0.3"></line>
    <line stroke-width="1" x1="256" y1="0" x2="256" y2="1024" stroke="#449FDB" opacity="1"></line>
    <line stroke-width="1" x1="272" y1="0" x2="272" y2="1024" stroke="#449FDB" opacity="0.3"></line>
    <line stroke-width="1" x1="288" y1="0" x2="288" y2="1024" stroke="#449FDB" opacity="1"></line>
    <line stroke-width="1" x1="304" y1="0" x2="304" y2="1024" stroke="#449FDB" opacity="0.3"></line>
    <line stroke-width="1" x1="320" y1="0" x2="320" y2="1024" stroke="#449FDB" opacity="1"></line>
    <line stroke-width="1" x1="336" y1="0" x2="336" y2="1024" stroke="#449FDB" opacity="0.3"></line>
    <line stroke-width="1" x1="352" y1="0" x2="352" y2="1024" stroke="#449FDB" opacity="1"></line>
    <line stroke-width="1" x1="368" y1="0" x2="368" y2="1024" stroke="#449FDB" opacity="0.3"></line>
    <line stroke-width="1" x1="384" y1="0" x2="384" y2="1024" stroke="#449FDB" opacity="1"></line>
    <line stroke-width="1" x1="400" y1="0" x2="400" y2="1024" stroke="#449FDB" opacity="0.3"></line>
    <line stroke-width="1" x1="416" y1="0" x2="416" y2="1024" stroke="#449FDB" opacity="1"></line>
    <line stroke-width="1" x1="432" y1="0" x2="432" y2="1024" stroke="#449FDB" opacity="0.3"></line>
    <line stroke-width="1" x1="448" y1="0" x2="448" y2="1024" stroke="#449FDB" opacity="1"></line>
    <line stroke-width="1" x1="464" y1="0" x2="464" y2="1024" stroke="#449FDB" opacity="0.3"></line>
    <line stroke-width="1" x1="480" y1="0" x2="480" y2="1024" stroke="#449FDB" opacity="1"></line>
    <line stroke-width="1" x1="496" y1="0" x2="496" y2="1024" stroke="#449FDB" opacity="0.3"></line>
    <line stroke-width="1" x1="512" y1="0" x2="512" y2="1024" stroke="#449FDB" opacity="1"></line>
    <line stroke-width="1" x1="528" y1="0" x2="528" y2="1024" stroke="#449FDB" opacity="0.3"></line>
    <line stroke-width="1" x1="544" y1="0" x2="544" y2="1024" stroke="#449FDB" opacity="1"></line>
    <line stroke-width="1" x1="560" y1="0" x2="560" y2="1024" stroke="#449FDB" opacity="0.3"></line>
    <line stroke-width="1" x1="576" y1="0" x2="576" y2="1024" stroke="#449FDB" opacity="1"></line>
    <line stroke-width="1" x1="592" y1="0" x2="592" y2="1024" stroke="#449FDB" opacity="0.3"></line>
    <line stroke-width="1" x1="608" y1="0" x2="608" y2="1024" stroke="#449FDB" opacity="1"></line>
    <line stroke-width="1" x1="624" y1="0" x2="624" y2="1024" stroke="#449FDB" opacity="0.3"></line>
    <line stroke-width="1" x1="640" y1="0" x2="640" y2="1024" stroke="#449FDB" opacity="1"></line>
    <line stroke-width="1" x1="656" y1="0" x2="656" y2="1024" stroke="#449FDB" opacity="0.3"></line>
    <line stroke-width="1" x1="672" y1="0" x2="672" y2="1024" stroke="#449FDB" opacity="1"></line>
    <line stroke-width="1" x1="688" y1="0" x2="688" y2="1024" stroke="#449FDB" opacity="0.3"></line>
    <line stroke-width="1" x1="704" y1="0" x2="704" y2="1024" stroke="#449FDB" opacity="1"></line>
    <line stroke-width="1" x1="720" y1="0" x2="720" y2="1024" stroke="#449FDB" opacity="0.3"></line>
    <line stroke-width="1" x1="736" y1="0" x2="736" y2="1024" stroke="#449FDB" opacity="1"></line>
    <line stroke-width="1" x1="752" y1="0" x2="752" y2="1024" stroke="#449FDB" opacity="0.3"></line>
    <line stroke-width="1" x1="768" y1="0" x2="768" y2="1024" stroke="#449FDB" opacity="1"></line>
    <line stroke-width="1" x1="784" y1="0" x2="784" y2="1024" stroke="#449FDB" opacity="0.3"></line>
    <line stroke-width="1" x1="800" y1="0" x2="800" y2="1024" stroke="#449FDB" opacity="1"></line>
    <line stroke-width="1" x1="816" y1="0" x2="816" y2="1024" stroke="#449FDB" opacity="0.3"></line>
    <line stroke-width="1" x1="832" y1="0" x2="832" y2="1024" stroke="#449FDB" opacity="1"></line>
    <line stroke-width="1" x1="848" y1="0" x2="848" y2="1024" stroke="#449FDB" opacity="0.3"></line>
    <line stroke-width="1" x1="864" y1="0" x2="864" y2="1024" stroke="#449FDB" opacity="1"></line>
    <line stroke-width="1" x1="880" y1="0" x2="880" y2="1024" stroke="#449FDB" opacity="0.3"></line>
    <line stroke-width="1" x1="896" y1="0" x2="896" y2="1024" stroke="#449FDB" opacity="1"></line>
    <line stroke-width="1" x1="912" y1="0" x2="912" y2="1024" stroke="#449FDB" opacity="0.3"></line>
    <line stroke-width="1" x1="928" y1="0" x2="928" y2="1024" stroke="#449FDB" opacity="1"></line>
    <line stroke-width="1" x1="944" y1="0" x2="944" y2="1024" stroke="#449FDB" opacity="0.3"></line>
    <line stroke-width="1" x1="960" y1="0" x2="960" y2="1024" stroke="#449FDB" opacity="1"></line>
    <line stroke-width="1" x1="976" y1="0" x2="976" y2="1024" stroke="#449FDB" opacity="0.3"></line>
    <line stroke-width="1" x1="992" y1="0" x2="992" y2="1024" stroke="#449FDB" opacity="1"></line>
    <line stroke-width="1" x1="1008" y1="0" x2="1008" y2="1024" stroke="#449FDB" opacity="0.3"></line>
    <line stroke-width="1" x1="0" y1="16" x2="1024" y2="16" stroke="#449FDB" opacity="0.3"></line>
    <line stroke-width="1" x1="0" y1="32" x2="1024" y2="32" stroke="#449FDB" opacity="1"></line>
    <line stroke-width="1" x1="0" y1="48" x2="1024" y2="48" stroke="#449FDB" opacity="0.3"></line>
    <line stroke-width="1" x1="0" y1="64" x2="1024" y2="64" stroke="#449FDB" opacity="1"></line>
    <line stroke-width="1" x1="0" y1="80" x2="1024" y2="80" stroke="#449FDB" opacity="0.3"></line>
    <line stroke-width="1" x1="0" y1="96" x2="1024" y2="96" stroke="#449FDB" opacity="1"></line>
    <line stroke-width="1" x1="0" y1="112" x2="1024" y2="112" stroke="#449FDB" opacity="0.3"></line>
    <line stroke-width="1" x1="0" y1="128" x2="1024" y2="128" stroke="#449FDB" opacity="1"></line>
    <line stroke-width="1" x1="0" y1="144" x2="1024" y2="144" stroke="#449FDB" opacity="0.3"></line>
    <line stroke-width="1" x1="0" y1="160" x2="1024" y2="160" stroke="#449FDB" opacity="1"></line>
    <line stroke-width="1" x1="0" y1="176" x2="1024" y2="176" stroke="#449FDB" opacity="0.3"></line>
    <line stroke-width="1" x1="0" y1="192" x2="1024" y2="192" stroke="#449FDB" opacity="1"></line>
    <line stroke-width="1" x1="0" y1="208" x2="1024" y2="208" stroke="#449FDB" opacity="0.3"></line>
    <line stroke-width="1" x1="0" y1="224" x2="1024" y2="224" stroke="#449FDB" opacity="1"></line>
    <line stroke-width="1" x1="0" y1="240" x2="1024" y2="240" stroke="#449FDB" opacity="0.3"></line>
    <line stroke-width="1" x1="0" y1="256" x2="1024" y2="256" stroke="#449FDB" opacity="1"></line>
    <line stroke-width="1" x1="0" y1="272" x2="1024" y2="272" stroke="#449FDB" opacity="0.3"></line>
    <line stroke-width="1" x1="0" y1="288" x2="1024" y2="288" stroke="#449FDB" opacity="1"></line>
    <line stroke-width="1" x1="0" y1="304" x2="1024" y2="304" stroke="#449FDB" opacity="0.3"></line>
    <line stroke-width="1" x1="0" y1="320" x2="1024" y2="320" stroke="#449FDB" opacity="1"></line>
    <line stroke-width="1" x1="0" y1="336" x2="1024" y2="336" stroke="#449FDB" opacity="0.3"></line>
    <line stroke-width="1" x1="0" y1="352" x2="1024" y2="352" stroke="#449FDB" opacity="1"></line>
    <line stroke-width="1" x1="0" y1="368" x2="1024" y2="368" stroke="#449FDB" opacity="0.3"></line>
    <line stroke-width="1" x1="0" y1="384" x2="1024" y2="384" stroke="#449FDB" opacity="1"></line>
    <line stroke-width="1" x1="0" y1="400" x2="1024" y2="400" stroke="#449FDB" opacity="0.3"></line>
    <line stroke-width="1" x1="0" y1="416" x2="1024" y2="416" stroke="#449FDB" opacity="1"></line>
    <line stroke-width="1" x1="0" y1="432" x2="1024" y2="432" stroke="#449FDB" opacity="0.3"></line>
    <line stroke-width="1" x1="0" y1="448" x2="1024" y2="448" stroke="#449FDB" opacity="1"></line>
    <line stroke-width="1" x1="0" y1="464" x2="1024" y2="464" stroke="#449FDB" opacity="0.3"></line>
    <line stroke-width="1" x1="0" y1="480" x2="1024" y2="480" stroke="#449FDB" opacity="1"></line>
    <line stroke-width="1" x1="0" y1="496" x2="1024" y2="496" stroke="#449FDB" opacity="0.3"></line>
    <line stroke-width="1" x1="0" y1="512" x2="1024" y2="512" stroke="#449FDB" opacity="1"></line>
    <line stroke-width="1" x1="0" y1="528" x2="1024" y2="528" stroke="#449FDB" opacity="0.3"></line>
    <line stroke-width="1" x1="0" y1="544" x2="1024" y2="544" stroke="#449FDB" opacity="1"></line>
    <line stroke-width="1" x1="0" y1="560" x2="1024" y2="560" stroke="#449FDB" opacity="0.3"></line>
    <line stroke-width="1" x1="0" y1="576" x2="1024" y2="576" stroke="#449FDB" opacity="1"></line>
    <line stroke-width="1" x1="0" y1="592" x2="1024" y2="592" stroke="#449FDB" opacity="0.3"></line>
    <line stroke-width="1" x1="0" y1="608" x2="1024" y2="608" stroke="#449FDB" opacity="1"></line>
    <line stroke-width="1" x1="0" y1="624" x2="1024" y2="624" stroke="#449FDB" opacity="0.3"></line>
    <line stroke-width="1" x1="0" y1="640" x2="1024" y2="640" stroke="#449FDB" opacity="1"></line>
    <line stroke-width="1" x1="0" y1="656" x2="1024" y2="656" stroke="#449FDB" opacity="0.3"></line>
    <line stroke-width="1" x1="0" y1="672" x2="1024" y2="672" stroke="#449FDB" opacity="1"></line>
    <line stroke-width="1" x1="0" y1="688" x2="1024" y2="688" stroke="#449FDB" opacity="0.3"></line>
    <line stroke-width="1" x1="0" y1="704" x2="1024" y2="704" stroke="#449FDB" opacity="1"></line>
    <line stroke-width="1" x1="0" y1="720" x2="1024" y2="720" stroke="#449FDB" opacity="0.3"></line>
    <line stroke-width="1" x1="0" y1="736" x2="1024" y2="736" stroke="#449FDB" opacity="1"></line>
    <line stroke-width="1" x1="0" y1="752" x2="1024" y2="752" stroke="#449FDB" opacity="0.3"></line>
    <line stroke-width="1" x1="0" y1="768" x2="1024" y2="768" stroke="#449FDB" opacity="1"></line>
    <line stroke-width="1" x1="0" y1="784" x2="1024" y2="784" stroke="#449FDB" opacity="0.3"></line>
    <line stroke-width="1" x1="0" y1="800" x2="1024" y2="800" stroke="#449FDB" opacity="1"></line>
    <line stroke-width="1" x1="0" y1="816" x2="1024" y2="816" stroke="#449FDB" opacity="0.3"></line>
    <line stroke-width="1" x1="0" y1="832" x2="1024" y2="832" stroke="#449FDB" opacity="1"></line>
    <line stroke-width="1" x1="0" y1="848" x2="1024" y2="848" stroke="#449FDB" opacity="0.3"></line>
    <line stroke-width="1" x1="0" y1="864" x2="1024" y2="864" stroke="#449FDB" opacity="1"></line>
    <line stroke-width="1" x1="0" y1="880" x2="1024" y2="880" stroke="#449FDB" opacity="0.3"></line>
    <line stroke-width="1" x1="0" y1="896" x2="1024" y2="896" stroke="#449FDB" opacity="1"></line>
    <line stroke-width="1" x1="0" y1="912" x2="1024" y2="912" stroke="#449FDB" opacity="0.3"></line>
    <line stroke-width="1" x1="0" y1="928" x2="1024" y2="928" stroke="#449FDB" opacity="1"></line>
    <line stroke-width="1" x1="0" y1="944" x2="1024" y2="944" stroke="#449FDB" opacity="0.3"></line>
    <line stroke-width="1" x1="0" y1="960" x2="1024" y2="960" stroke="#449FDB" opacity="1"></line>
    <line stroke-width="1" x1="0" y1="976" x2="1024" y2="976" stroke="#449FDB" opacity="0.3"></line>
    <line stroke-width="1" x1="0" y1="992" x2="1024" y2="992" stroke="#449FDB" opacity="1"></line>
    <line stroke-width="1" x1="0" y1="1008" x2="1024" y2="1008" stroke="#449FDB" opacity="0.3"></line>
</g>
<path fill="#000" d="M840.926 362.73c13.28 13.111 21.11 28.677 18.132 48.795-1.292 8.691-2.585 17.214-6.425 25.23-5.42 11.811-14.804 21.027-26.415 26.094l-0.333 0.129c-8.972 3.896-17.832 7.118-27.853 6.856-6.548-0.045-12.424-2.882-16.504-7.38l-0.017-0.019c-11.988-12.699-23.863-25.511-35.963-38.099-3.465-3.278-5.623-7.91-5.623-13.045 0-0.116 0.001-0.231 0.003-0.346v0.017c0.187-9.178 3.072-12.774 12.138-14.891l33.622-7.905c16.053-3.746 30.756-10.059 42.707-21.878 2.94-2.922 6.088-5.788 12.531-3.559z"></path>
<path fill="#000" d="M183.712 660.964c-11.332-9.89-18.581-22.477-19.499-37.631-0.123-1.604-0.193-3.474-0.193-5.361 0-12.567 3.113-24.407 8.612-34.791l-0.195 0.404c9.010-17.083 24.556-24.818 42.426-29.052 1.873-0.431 3.746-0.375 5.62-0.749 8.766-1.873 15.997 1.030 21.953 7.343 12.381 13.111 24.593 26.41 36.993 39.541 4.907 5.169 5.151 11.239 3.39 17.401-1.498 5.282-5.47 7.905-10.808 9.103-13.317 2.997-26.711 5.807-39.841 9.534-13.505 3.839-26.523 8.991-36.207 20.024-2.884 3.203-6.481 4.851-12.25 4.233z"></path>
<path fill="#000" d="M323.951 696.534c-2.925 1.167-6.671 2.385-10.5 3.393l-0.738 0.165c-13.152 2.653-24.839 7.065-35.524 13.051l0.61-0.314c-7.569 4.505-14.065 9.063-20.2 14.047l0.308-0.242c-1.873 1.386-2.772 4.027-4.102 6.088l-4.476 6.912c-8.467-3.053-15.79-6.481-21.84-11.913-9.74-8.729-19.068-17.926-28.64-26.842-5.451-5.057-6.406-11.239-4.551-17.963 3.249-11.492 10.514-20.936 20.146-26.934l0.196-0.114c18.563-11.988 39.654-15.415 59.602-17.476 5.001 2.51 5.151 5.62 5.263 8.822 0.39 8.523 3.887 16.162 9.376 21.87l-0.011-0.011c7.774 8.691 16.521 16.034 27.479 20.473 3.073 1.47 5.651 2.942 8.114 4.574l-0.246-0.153z"></path>
<path fill="#000" d="M746.184 383.352c-0.836-2.442-1.494-5.313-1.852-8.278l-0.020-0.208c-0.205-6.892-2.862-13.126-7.123-17.897l0.024 0.027c-7.867-9.366-16.858-17.345-28.434-22.215-3.615-1.83-6.682-3.696-9.589-5.771l0.223 0.151c2.21-4.214 5.62-4.701 9.028-5.358 13.025-2.84 24.499-6.873 35.276-12.112l-0.924 0.405c8.614-4.017 16.023-8.975 22.554-14.884l-0.077 0.068c1.654-1.738 3.081-3.715 4.22-5.869l0.069-0.144c1.311-2.041 2.416-4.195 3.54-6.182 7.006-0.412 12.044 3.053 16.858 6.257 13.523 9.085 25.062 20.51 36.319 32.217 4.345 4.514 4.757 10.002 3.259 15.715-1.674 7.037-4.938 13.15-9.403 18.174l0.037-0.042c-8.841 9.515-19.087 16.858-32.030 19.874-7.886 1.873-15.696 3.989-23.545 5.938-2.837 0.79-6.095 1.244-9.458 1.244-3.18 0-6.267-0.406-9.208-1.169l0.254 0.056z"></path>
<path fill="#000" d="M310.352 861.985c4.439 4.008 9.028 8.186 13.673 12.306 4.017 3.198 6.57 8.088 6.57 13.574 0 2.105-0.376 4.122-1.064 5.989l0.039-0.12c-0.721 2.106-1.137 4.533-1.137 7.058 0 2.687 0.471 5.263 1.336 7.653l-0.050-0.156c2.041 6.238 0.974 7.643-6.275 11.519-3.981-2.048-8.687-3.249-13.674-3.249-1.739 0-3.445 0.146-5.104 0.427l0.179-0.025c-0.484 0.036-1.048 0.057-1.617 0.057-3.981 0-7.728-1.006-10.999-2.777l0.122 0.061c-13.561-6.968-26.898-14.366-40.141-21.934-6.074-3.4-10.927-8.344-14.124-14.308l-0.093-0.19c-6.594-12.624-19.274-15.396-32.086-10.377-4.908 1.759-9.098 3.735-13.060 6.059l0.361-0.196c-4.25 3.024-7.97 6.049-11.488 9.289l0.080-0.073c-16.765-10.059-23.301-29.164-36.787-41.845 2.472-10.864 7.886-17.551 18.581-19.199 3.371-0.524 6.669-1.517 10.002-2.248 12.475-2.66 22.477 2.266 31.562 10.171 0.661 0.633 1.179 1.409 1.503 2.28l0.014 0.042c0.252 0.979 0.432 2.125 0.503 3.301l0.002 0.052h-17.046c-6.519 6.594-6.968 15.134-1.48 27.273 1.18-3.746 2.154-6.406 2.922-9.197 1.873-6.8 3.24-8.41 10.283-8.261 8.055 0.169 16.109 1.161 24.144 2.135 8.335 1.011 16.727 1.967 24.912 3.746 7.723 1.552 14.542 3.784 20.982 6.707l-0.602-0.245c11.669 5.432 23.282 8.748 36.019 4.495 0.26-0.025 0.563-0.039 0.869-0.039 0.768 0 1.514 0.089 2.231 0.258l-0.066-0.013zM252.287 867.716c0.918 4.532 2.098 8.785 7.493 11.332 0.805-6.65-2.622-9.515-7.53-11.332zM165.056 833.85c6.95 6.575 6.95 6.575 12.699 3.484-3.24-3.615-7.099-4.383-12.699-3.484z"></path>
<path fill="#000" d="M698.571 104.655c8.242 0.73 14.31 1.611 20.379 1.686 0.173-0.003 0.377-0.005 0.582-0.005 5.99 0 11.603 1.608 16.433 4.416l-0.156-0.084c10.208 5.976 20.604 11.669 30.981 17.289 7.867 4.252 15.134 9.459 18.825 17.607 5.863 12.943 20.005 14.385 31.262 10.733 11.875-3.877 15.359-6.294 24.725-15.602 2.953 1.855 5.519 3.813 7.892 5.977l-0.043-0.039c4.311 4.567 8.476 9.451 12.388 14.537l0.33 0.447c5.564 7.062 10.733 14.441 16.221 21.934-2.753 10.958-8.654 18.3-20.997 18.731-3.107 0.346-5.905 0.899-8.614 1.663l0.372-0.090c-11.407 2.454-20.754-1.873-29.37-8.785-2.060-1.629-3.633-3.446-1.967-6.706 5.882-1.873 12.943 2.94 18.544-2.304 3.147-6.912 2.847-15.978-1.217-24.556-2.154 5.62-4.083 10.564-6.2 16.090-2.882 0.389-6.213 0.61-9.596 0.61-0.953 0-1.902-0.018-2.846-0.053l0.137 0.004c-14.853-1.704-29.708-3.484-44.448-5.938-6.656-1.35-12.552-3.382-18.066-6.076l0.44 0.194c-11.613-5.151-23.226-8.785-36.169-5.414-0.49 0.083-1.054 0.131-1.63 0.131-2.285 0-4.395-0.752-6.096-2.023l0.027 0.019c-5.005-4.024-9.486-8.162-13.671-12.581l-0.058-0.062c-2.49-2.615-4.022-6.163-4.022-10.067 0-1.728 0.3-3.386 0.851-4.925l-0.032 0.102c0.895-2.584 1.411-5.564 1.411-8.663s-0.517-6.079-1.469-8.855l0.057 0.192c-1.91-5.732-0.337-7.436 4.813-9.534zM772.689 155.452c-1.873-3.296-3.633-6.669-5.77-9.796-0.431-0.656-2.248-0.356-3.746-0.524 0.843 5.751 3.54 9.141 9.515 10.321zM846.114 184.392c5.358 5.62 5.432 5.732 12.025 3.446-3.39-3.596-6.931-5.489-12.025-3.409z"></path>
<path fill="#000" d="M429.144 479.817c2.603 2.847 5.076 5.62 7.643 8.354 6.182 6.556 12.287 13.224 18.731 19.574 3.203 3.184 4.813 6.762 3.465 10.939-3.278 10.19-1.611 20.323-0.524 30.55 0.527 4.748 0.833 10.265 0.843 15.85v0.014c-0.182 2.45-0.601 4.723-1.239 6.903l0.059-0.234c-4.757 2.248-8.036 0.262-11.239-1.723-4.569-2.755-10.073-4.41-15.959-4.476h-0.019c-9.366-0.468-18.581-1.704-27.872-1.779-6.595 0.118-12.936 0.945-19.030 2.406l0.598-0.121c-8.804 1.873-10.602 1.124-13.861-7.605-1.199-3.203-2.079-6.556-3.502-9.647-6.369-13.748-4.158-27.029 3.259-39.335 11.501-19.012 29.445-27.984 51.061-30.288 0.147-0.002 0.32-0.003 0.494-0.003 2.506 0 4.959 0.226 7.341 0.659l-0.249-0.038z"></path>
<path fill="#000" d="M564.906 451.177c5.62-1.648 9.122 0.3 12.437 2.641 3.48 2.432 7.801 3.887 12.46 3.887 0.229 0 0.457-0.004 0.685-0.010l-0.033 0.001c0.066 0 0.144 0 0.222 0 5.153 0 10.181 0.539 15.028 1.563l-0.472-0.084c9.703 2.060 19.162 0.955 28.734-0.787 4.813-0.88 9.759-1.086 14.853-1.611 0.983 1.687 2.041 3.772 2.993 5.915l0.172 0.435c1.442 3.746 2.528 7.699 3.989 11.463 2.116 5.012 3.346 10.841 3.346 16.957 0 12.863-5.442 24.455-14.147 32.601l-0.025 0.023c-11.407 10.883-25.193 17.008-40.478 20.042-6.107 1.217-10.92-1.011-14.984-5.507-6.669-7.38-13.261-14.853-20.248-21.971-4.345-4.439-5.225-8.748-4.195-15.078 0.514-3.76 0.808-8.107 0.808-12.521s-0.294-8.761-0.863-13.020l0.054 0.498c-0.522-4.317-0.821-9.317-0.821-14.386 0-3.89 0.176-7.739 0.519-11.54l-0.036 0.49z"></path>
<path fill="#000" d="M536.36 733.565c-5.451 9.909-11.632 17.42-23.207 20.192-14.984 3.596-27.741 12.306-39.804 21.765-3.746 2.884-7.156 6.032-10.958 8.71-2.549 2.046-5.532 3.685-8.772 4.756l-0.201 0.057c-9.759 2.379-18.956-2.079-28.228-3.839-6.631-1.274-10.976-7.923-14.329-13.973-1.523-2.632-2.422-5.79-2.422-9.158 0-3.537 0.991-6.843 2.711-9.654l-0.046 0.081c6.902-12.18 16.031-22.314 26.921-30.155l0.276-0.189c0.912-0.729 1.937-1.395 3.024-1.956l0.103-0.048c14.984-6.556 30.438-10.583 46.921-9.853 1.637 0.003 3.201 0.312 4.639 0.873l-0.087-0.030c16.944 7.222 31.218 14.723 44.814 23.211l-1.359-0.791z"></path>
<path fill="#000" d="M487.566 290.765c4.177-9.965 10.414-16.128 19.668-18.731 19.331-5.414 35.588-16.184 50.724-28.846 7.062-5.919 14.348-8.148 23.245-6.163 3.153 0.535 6.976 0.949 10.854 1.151l0.254 0.011c12.316 0.945 21.952 11.171 21.952 23.648 0 5.184-1.664 9.981-4.486 13.883l0.048-0.069c-8.036 11.669-16.858 22.477-30.157 28.528-11.622 5.517-25.253 8.737-39.636 8.737-2.333 0-4.645-0.085-6.936-0.251l0.307 0.018c-1.315-0.065-2.549-0.334-3.696-0.777l0.081 0.027c-16.702-7.087-30.571-14.171-43.89-22.085l1.67 0.919z"></path>
<path fill="#000" d="M485.337 426.602c2.004-3.17 4.116-5.925 6.447-8.475l-0.041 0.045c14.029-12.718 16.858-29.071 15.584-46.827-0.187-2.772-0.637-5.62-0.955-8.148 1.395-1.295 3.27-2.089 5.332-2.089 1.006 0 1.967 0.189 2.851 0.534l-0.053-0.018q30.738 9.366 61.475 18.956c0.798 0.423 1.487 0.909 2.107 1.469l-0.009-0.008c2.547 8.073 4.645 16.858 3.933 25.886-1.667 21.147-13.767 34.24-33.21 40.628-5.496 1.896-11.828 2.99-18.416 2.99-10.466 0-20.287-2.763-28.773-7.599l0.287 0.15c-7.326-3.875-13.066-9.918-16.464-17.266l-0.095-0.229z"></path>
<path fill="#000" d="M603.193 693.031c-2.258-0.462-4.143-0.972-5.982-1.584l0.362 0.105c-17.12-6.575-34.165-13.299-51.323-19.761-5.265-2.096-9.533-5.771-12.318-10.432l-0.063-0.114c-7.83-11.819-6.051-24.35-4.439-37.031 0.693-5.414 4.008-9.759 8.055-13.355 8.132-7.625 19.102-12.308 31.166-12.308 3.688 0 7.275 0.438 10.71 1.264l-0.311-0.063c2.927 0.572 5.526 1.662 7.816 3.178l-0.080-0.050c10.246 7.043 20.304 14.348 29.314 20.754 3.296 5.432 3.015 9.59 1.086 13.786-1.292 2.828-2.472 5.732-3.989 8.429-4.055 6.886-6.452 15.169-6.452 24.012 0 3.961 0.481 7.812 1.387 11.493l-0.068-0.329c1.161 4.72-0.075 8.579-4.87 12.006z"></path>
<path fill="#000" d="M416.482 332.741c5.994-2.51 9.609-0.824 13.449 0.693 14.984 5.901 30.138 11.707 45.31 17.27 12.063 4.401 21.709 19.162 20.51 32.18-0.444 2.932-0.772 6.462-0.912 10.039l-0.006 0.188c0.112 8.879-3.858 15.453-10.752 20.604-11.688 8.841-24.238 14.123-39.148 9.628-2.925-0.741-5.496-1.827-7.848-3.238l0.131 0.073c-9.272-6.294-18.488-12.681-27.479-19.368-5.113-3.746-5.863-7.287-3.746-13.111 1.168-3.323 2.432-6.13 3.899-8.81l-0.153 0.306c6.575-11.613 8.055-23.975 6.182-37.031-0.023-0.554-0.036-1.204-0.036-1.857 0-2.67 0.217-5.29 0.635-7.843l-0.038 0.278z"></path>
<path fill="#000" d="M363.118 468.766c-2.004 0.829-4.331 1.31-6.772 1.31s-4.767-0.481-6.892-1.354l0.121 0.044c-9.366-3.596-19.050-2.641-28.621-2.322-3.909 0.523-7.444 1.724-10.624 3.487l0.154-0.078c-5.62 2.491-11.089 5.376-17.327 8.429-2.435-2.828-5.225-4.757-6.107-7.324-1.807-5.317-3.544-11.955-4.856-18.746l-0.163-1.015c-0.656-3.315-0.169-6.837-0.468-10.246-1.592-18.638 7.605-32.086 20.923-43.512 1.873-1.611 4.177-2.753 6.013-4.42 7.98-7.343 17.139-7.886 27.048-5.113 13.598 3.746 23.844 10.059 33.453 27.629-2.379 8.56-5.882 17.083-6.875 25.867s0.543 17.813 0.993 27.366z"></path>
<path fill="#000" d="M537.877 599.058c-2.257 3.099-4.443 5.797-6.756 8.379l0.088-0.1c-12.756 12.943-16.727 28.621-14.853 46.209 0.262 2.472 0.581 4.945 0.693 7.493-0.177 1.162-0.491 2.208-0.93 3.186l0.031-0.077c-0.903 0.245-1.939 0.385-3.008 0.385-0.445 0-0.884-0.024-1.316-0.072l0.053 0.005q-30.775-9.272-61.438-18.731c-1.589-0.621-2.908-1.25-4.177-1.96l0.169 0.087c-10.564-25.005-3.746-50.218 17.832-62.955 0.932-0.683 1.989-1.308 3.106-1.825l0.115-0.048c19.012-6.444 37.874-7.174 55.912 2.791 6.594 3.521 12.1 8.616 14.479 17.233z"></path>
<path fill="#000" d="M734.159 546.124c2.229 5.751 4.252 9.946 5.47 14.366 1.745 6.202 2.749 13.323 2.749 20.68 0 4.144-0.318 8.214-0.932 12.186l0.056-0.443c-1.873 12.962-9.178 23.638-19.181 32.18-3.053 2.603-6.744 4.476-9.871 7.024-6.369 5.169-13.823 5.976-21.241 4.383-16.266-3.38-29.567-13.843-36.742-27.946l-0.139-0.301c2.547-9.216 6.013-17.72 7.024-26.523 0.955-8.467-0.637-17.195-1.124-26.129 2.028-1.504 4.579-2.407 7.343-2.407 1.435 0 2.813 0.244 4.095 0.692l-0.087-0.026c5.414 1.349 10.883 2.603 16.39 3.427 8.448 1.274 16.727 0.824 24.5-3.39 3.229-1.847 7.118-3.732 11.133-5.372l0.686-0.248c2.726-0.84 6.061-1.591 9.473-2.105l0.398-0.049z"></path>
<path fill="#000" d="M554.829 323.226c2.66-5.919 7.268-6.968 11.688-8.448 8.85-2.658 16.077-5.346 23.096-8.416l-1.312 0.512c9.141-4.308 16.446-11.407 22.627-19.181 6.669-8.41 14.441-9.946 23.975-6.818 4.42 1.461 8.972 2.622 13.28 4.364 23.095 9.216 33.528 34.446 22.852 55.874-2.748 5.055-6.106 9.38-10.050 13.086l-0.027 0.025c-7.605 7.493-16.615 9.216-26.58 4.72-16.971-7.643-33.996-15.19-50.986-22.833-9.328-4.12-18.619-8.335-28.565-12.887z"></path>
<path fill="#000" d="M469.884 700.898c-3.615 2.66-5.901 4.607-8.467 6.125-1.54 0.838-3.34 1.421-5.25 1.642l-0.069 0.006c-18.094 2.603-31.168 13.317-43.081 26.223-2.903 3.165-6.2 5.994-9.103 8.785-16.428 0.543-31.15-4.064-42.257-14.142-18.731-17.027-16.727-42.538-2.154-57.747 9.796-10.246 19.424-12.156 33.097-6.369 24.35 10.321 48.326 21.672 72.433 32.629 1.274 0.45 2.154 1.199 4.851 2.847z"></path>
<path fill="#000" d="M352.478 551.070c-18.956-0.356-36.338 0.15-53.102 7.736-1.877-2.045-3.65-4.269-5.261-6.614l-0.133-0.205c-4.326-7.493-8.616-15.153-12.55-22.927-5.207-10.133-4.308-19.986 2.791-28.958 11.894-14.984 27.366-23.395 46.621-23.713 0.556-0.010 1.212-0.016 1.87-0.016 7.188 0 14.214 0.687 21.019 2l-0.693-0.111c7.916 1.418 14.415 6.466 17.805 13.324l0.064 0.144c-1.873 2.847-3.746 5.957-5.976 8.879-9.010 12.156-14.441 25.361-12.512 40.89 0.105 1.58 0.165 3.424 0.165 5.283 0 1.508-0.039 3.007-0.117 4.496l0.009-0.208z"></path>
<path fill="#000" d="M726.329 464.814c5.919 11.239 11.931 21.709 17.139 32.592 4.532 9.366 2.266 18.394-4.42 26.017-13.111 14.984-28.977 24.050-49.675 23.507-9.796-0.262-19.368-0.412-27.797-6.069-3.54-2.379-7.643-4.551-7.661-9.647 5.057-9.047 10.489-17.757 14.872-26.936 4.589-9.628 2.154-20.248 2.472-31.243 2.11-0.697 4.548-1.154 7.076-1.271l0.061-0.002c2.655 0.262 5.74 0.412 8.859 0.412 12.307 0 24.069-2.33 34.87-6.574l-0.648 0.224c1.315-0.38 2.955-0.733 4.628-0.984l0.223-0.027z"></path>
<path fill="#000" d="M763.979 275.818c1.873 9.066-2.66 13.486-7.493 17.476-7.526 6.447-16.556 11.376-26.475 14.19l-0.497 0.121c-8.71 2.304-17.401 4.664-26.223 6.556-8.279 1.761-12.4 0.281-15.677-6.463-8.954-18.357-24.725-28.097-42.725-35.457-2.528-1.011-5.094-1.985-7.156-2.791-1.536-4.813 1.423-5.62 4.139-6.331 6.35-1.555 12.699-3.128 19.143-4.214 9.066-1.555 17.233-4.495 24.181-11.014 5.976-5.62 13.205-6.219 20.791-2.51 14.797 7.212 29.801 14.048 44.523 21.428 5.163 2.992 9.562 5.97 13.742 9.215l-0.274-0.205z"></path>
<path fill="#000" d="M386.793 757.803c-1.773 1.025-3.838 1.974-5.996 2.73l-0.261 0.080c-7.83 1.873-15.696 3.839-23.62 5.339-6.457 1.010-12.128 3.811-16.644 7.874l0.029-0.026c-3.925 3.637-8.973 6.116-14.567 6.86l-0.136 0.015c-2.079-0.843-4.682-1.761-7.193-2.94-13.523-6.313-27.104-12.493-40.459-19.125-6.35-3.165-12.231-7.212-17.008-10.077-3.090-5.751-1.723-9.366 0.862-12.812 4.76-6.118 10.85-10.977 17.854-14.188l0.297-0.122c12.962-6.331 26.936-9.366 41.077-11.669 1.595-0.134 3.453-0.21 5.329-0.21s3.733 0.076 5.571 0.226l-0.241-0.016c5.225 7.493 9.122 14.703 14.666 20.379 5.657 5.399 12.003 10.159 18.872 14.113l0.477 0.253c6.744 4.083 14.142 7.099 21.241 10.583z"></path>
<path fill="#000" d="M223.684 540.224c-5.395 1.555-8.897 2.884-12.512 3.54-16.652 2.997-28.097 13.636-38.905 25.567-2.397 2.66-5.019 5.151-6.95 7.099-0.003 0-0.006 0-0.009 0-8.057 0-15.145-4.145-19.249-10.42l-0.054-0.088c-12.194-17.813-15.097-36.506-3.971-56.024 2.304-4.046 4.87-7.961 7.493-11.782 8.673-12.512 25.23-14.835 36.113-4.252 8.012 8.179 15.648 16.836 22.818 25.879l0.521 0.681c5.001 5.901 9.291 12.4 14.703 19.799z"></path>
<path fill="#000" d="M800.897 483.375c10.639-4.701 22.702-4.401 31.431-12.025 8.392-7.324 16.652-14.816 26.485-23.582 6.331-1.873 12.737 1.873 17.439 8.167 11.969 15.978 16.69 33.435 7.493 52.447-3.489 7.234-7.408 13.46-11.928 19.191l0.165-0.217c-4.305 5.238-10.786 8.555-18.041 8.555-5.193 0-9.99-1.699-13.864-4.571l0.063 0.045c-4.134-2.994-7.741-6.31-10.927-9.997l-0.068-0.081c-8.335-10.077-16.296-20.473-24.35-30.831-1.303-1.993-2.602-4.32-3.742-6.738l-0.154-0.362z"></path>
<path fill="#000" d="M442.274 588.138c-7.717 15.378-12.175 31.936-7.324 50.574-1.403 0.135-3.034 0.213-4.682 0.213s-3.279-0.077-4.888-0.228l0.206 0.016c-27.541-5.898-51.286-13.155-74.147-22.169l3.157 1.097c-0.45-12.756 2.435-23.769 13.505-31.674 8.332-6.371 18.825-10.304 30.224-10.582l0.064-0.001c11.145-0.112 22.477-1.461 33.041 3.502 4.046 1.761 8.167 3.109 10.845 9.253z"></path>
<path fill="#000" d="M582.439 439.47c0.599-3.596 0.393-7.212 1.873-9.984 6.856-13.374 7.493-27.404 5.263-41.845-0.031-0.384-0.049-0.831-0.049-1.283s0.018-0.899 0.053-1.341l-0.004 0.058c10.658-1.873 56.436 10.302 79.419 21.091 0.412 10.115-0.88 19.78-9.366 27.348-10.62 9.366-22.477 15.453-37.124 14.629-1.681-0.126-3.642-0.198-5.62-0.198s-3.937 0.072-5.88 0.213l0.26-0.015c-10.208 0.899-18.787-3.278-28.827-8.673z"></path>
<path fill="#000" d="M357.46 291.908c13.505 9.628 27.722 18.244 40.028 29.052 9.703 8.523 15.19 20.342 11.857 34.296-1.030 4.233-1.667 8.56-2.809 12.737-2.079 7.493-4.945 11.239-12.1 15.883-3.768-1.671-6.985-3.479-10.008-5.55l0.211 0.137c-13.486-10.695-24.462-23.863-35.308-37.106-0.853-0.858-1.5-1.923-1.859-3.112l-0.014-0.053c-2.248-15.546-3.914-31.019 7.287-44.355 0.8-0.676 1.687-1.312 2.623-1.877l0.093-0.052z"></path>
<path fill="#000" d="M676.655 685.295c1.779 16.671 3.184 32.423-9.609 45.947-4.607-2.884-8.897-5.282-12.868-8.129-8.841-6.369-17.907-12.475-26.223-19.537-11.613-9.965-17.158-22.477-13.111-38.118 1.18-4.495 2.229-9.066 3.746-13.467 1.386-4.102 3.147-8.129 6.5-10.414 6.331-2.416 10.695 0.112 14.984 3.746 10.672 9.528 20.3 19.731 29.003 30.702l0.386 0.504c2.36 2.884 4.757 5.77 7.193 8.766z"></path>
<path fill="#000" d="M209.112 887.252c6.088 9.515 14.198 10.433 23.563 11.351 2.040-0.084 3.969-0.339 5.839-0.752l-0.219 0.041c0.78-0.1 1.683-0.158 2.599-0.158 4.322 0 8.347 1.274 11.719 3.467l-0.083-0.051c6.987 4.626 14.048 9.178 21.222 13.505s14.516 8.335 22.065 12.662c0.243 2.472 0.468 4.87 0.674 7.212-6.615 7.786-15.915 13.114-26.454 14.548l-0.218 0.024c-1.038 0.134-2.239 0.21-3.458 0.21-3.659 0-7.158-0.689-10.372-1.944l0.194 0.067c-9.412-3.707-17.18-7.407-24.664-11.554l1.063 0.541c-5.336-3.032-11.534-5.757-18.022-7.839l-0.71-0.197c-23.264-6.893-31.206-29.97-21.597-49.488l8.373-0.431c3.25 2.528 6.050 5.423 8.401 8.662l0.085 0.123zM247.154 924.022c-8.111-5.77-15.808-6.163-22.627-8.822s-12.812-6.612-19.331-10.077c-1.367 3.858 1.068 5.62 3.072 7.493 5.901 5.595 13.046 9.938 20.974 12.566l0.398 0.114c3.216 1.001 6.941 1.672 10.791 1.868l0.111 0.005c1.686 0.094 3.427-1.555 6.612-3.147z"></path>
<path fill="#000" d="M814.496 136.010c-4.645-7.081-10.958-8.485-17.795-10.452-0.686-0.198-1.475-0.312-2.29-0.312-0.514 0-1.018 0.045-1.508 0.132l0.052-0.008c-11.632 2.079-21.091-2.641-30.457-8.785s-19.256-11.463-28.958-17.083c-8.223-4.738-8.804-9.815-1.255-15.79 11.239-8.916 23.957-12.063 37.668-6.856 7.811 2.959 15.134 7.212 22.739 10.752 4.757 2.229 9.609 4.308 14.46 6.331 2.004 0.824 4.195 1.236 6.219 2.023 16.034 6.35 28.097 24.35 18.619 47.877h-10.283c-2.713-2.304-5.086-4.874-7.125-7.703l-0.087-0.127zM818.917 118.59c0.206-6.238-4.252-8.972-8.073-11.744-9.141-6.612-18.918-11.707-30.738-11.032-0.768 1.723-1.255 2.828-1.873 4.102 6.069 5.47 14.235 4.757 20.81 7.998s12.905 6.912 19.874 10.677z"></path>
<path fill="#000" d="M183.038 370.297c-5.62-2.285-6.388-6.706-6.612-11.594-0.446-10.946-2.27-21.294-5.305-31.111l0.229 0.86c-1.507-6.022-4.289-11.255-8.057-15.613l0.040 0.048c-2.457-2.312-3.987-5.586-3.987-9.216 0-2.293 0.611-4.444 1.678-6.299l-0.033 0.061c3.746-7.493 7.643-14.984 11.576-22.308 2.714-4.924 7.611-8.357 13.35-9.002l0.079-0.007c10.227-1.704 19.743 1.049 28.79 5.526 1.761 0.862 2.903 2.978 4.383 4.589-13.374 27.048-20.604 55.724-29.445 83.859-1.274 3.821-1.892 7.961-6.687 10.208z"></path>
<path fill="#000" d="M837.648 653.396c8.129 1.742 8.673 2.603 9.497 9.459 0.974 8.317 2.060 16.652 3.484 24.893 1.26 9.094 4.963 17.15 10.419 23.695l-0.061-0.075c3.971 4.532 4.308 9.366 1.461 14.591-3.502 6.575-6.331 13.542-10.133 19.911-6.313 10.583-13.917 13.636-25.979 10.976-6.893-1.517-14.198-2.023-20.604-7.736 0.465-3.15 1.17-5.961 2.121-8.656l-0.098 0.32c10.283-23.058 17.027-47.314 24.575-71.29 1.611-5.244 3.427-10.433 5.32-16.090z"></path>
<path fill="#000" d="M838.809 542.041c6.238-1.573 9.366 2.023 11.576 6.257 5.751 10.677 11.032 21.578 16.858 32.18 2.382 3.838 5.029 7.165 8.017 10.152v0c2.051 1.995 4.25 3.868 6.57 5.59l0.174 0.123c0.375 1.442 0.993 2.435 0.805 3.221-4.12 17.289-11.388 32.292-29.295 39.335-1.847 0.706-3.984 1.115-6.217 1.115-0.356 0-0.71-0.010-1.062-0.031l0.048 0.002c-0.047 0.001-0.102 0.001-0.158 0.001-3.92 0-7.214-2.682-8.147-6.312l-0.013-0.058c-1.12-3.544-1.8-7.627-1.872-11.856l-0.001-0.038c0.487-16.24 0-32.255-3.839-48.214-2.828-11.763-0.543-19.256 6.556-31.468z"></path>
<path fill="#000" d="M185.698 480.809c-6.631 2.004-9.684-1.086-11.838-5.076-5.788-10.62-11.126-21.503-17.046-32.049-2.572-4.117-5.386-7.692-8.537-10.935l0.015 0.015c-2.263-2.304-4.639-4.472-7.13-6.507l-0.157-0.124c-0.203-0.858-0.319-1.844-0.319-2.857 0-0.491 0.027-0.976 0.081-1.453l-0.005 0.059c4.888-13.898 10.452-27.385 24.050-35.345 7.043-4.139 14.123-3.54 21.484 2.51 0.656 5.19 1.063 11.261 1.123 17.414l0.001 0.081c-0.543 14.067-0.581 28.097 3.914 41.545 4.083 12.231-0.73 22.327-5.638 32.723z"></path>
<path fill="#000" d="M799.568 757.335c9.126 5.611 20.179 8.934 32.009 8.934 2.449 0 4.865-0.142 7.24-0.419l-0.289 0.027c-6.519 8.785-11.239 16.015-16.858 22.477-8.841 10.471-17.945 20.81-27.572 30.4-6.325 5.917-13.196 11.456-20.458 16.47l-0.596 0.389c-2.566 1.873-6.107 2.36-8.448 3.203-1.611-0.955-2.435-1.142-2.641-1.592-4.102-9.366-3.559-19.349-3.446-29.164 0-2.866 2.716-6.257 5.057-8.485 9.712-8.962 18.249-18.957 25.509-29.874l0.376-0.602c2.547-4.102 6.313-7.455 10.115-11.763z"></path>
<path fill="#000" d="M262.608 186.284c2.772 8.879 2.809 17.945 3.090 26.917 0.15 4.158-2.229 7.661-5.3 10.564-10.497 9.564-19.701 20.251-27.515 31.946l-0.395 0.627c-2.191 3.54-5.938 6.2-7.811 8.279-7.156-2.435-12.83-4.907-18.731-6.257-5.087-0.955-11.283-1.722-17.578-2.129l-0.479-0.025c2.341-7.493 6.706-13.018 11.332-18.3 9.684-10.995 19.312-22.065 29.595-32.479 6.294-6.388 13.729-11.669 20.716-17.383 3.502-2.959 7.586-3.858 13.074-1.761z"></path>
<path fill="#000" d="M864.395 556.295c0.069-1.007 0.263-1.944 0.566-2.831l-0.023 0.077c5.957-10.227 12.044-20.604 21.765-27.591 6.931-4.982 15.434-3.427 23.264-2.51 5.62 13.992 4.664 64.172-2.772 75.111-6.013 1.873-11.239-1.011-16.24-4.083-10.451-6.363-18.459-15.845-22.819-27.143l-0.127-0.373c-1.349-3.427-2.416-7.024-3.615-10.658z"></path>
<path fill="#000" d="M113.753 500.103c-5.395-15.321-3.952-59.246 2.285-74.68 1.452-0.378 3.119-0.595 4.836-0.595 4.412 0 8.491 1.431 11.796 3.855l-0.056-0.039c14.004 8.877 23.833 23.263 26.462 40.039l0.042 0.327c-5.62 10.789-12.568 21.615-23.938 28.846-2.586 1.322-5.638 2.108-8.87 2.135h-0.009c-3.989 0.356-8.036 0.112-12.55 0.112z"></path>
<path fill="#000" d="M299.788 614.455c3.035 1.274 5.628 2.672 8.064 4.287l-0.178-0.111c15.145 11.645 32.223 22.44 50.263 31.618l1.866 0.861c1.584 0.97 2.934 1.921 4.222 2.948l-0.083-0.064c-1.144 1.235-2.368 2.358-3.677 3.376l-0.068 0.051c-7.715 4.896-14.165 11.048-19.245 18.239l-0.142 0.212c-3.334 5.001-7.942 6.163-13.842 4.682-11.298-2.865-20.972-8.693-28.465-16.606l-0.025-0.027c-9.234-9.366-10.452-35.757-2.004-46.471 1.017-1.068 2.099-2.049 3.249-2.947l0.066-0.049z"></path>
<path fill="#000" d="M724.887 408.695c-2.173-0.768-5.151-1.049-7.043-2.622-17.139-14.291-36.394-25.099-56.193-35.064-0.426-0.299-0.782-0.666-1.058-1.090l-0.009-0.015 26.879-26.748c13.411-2.098 32.685 6.781 40.141 19.050 3.608 6.074 5.741 13.39 5.741 21.204 0 9.539-3.177 18.336-8.532 25.39l0.076-0.104z"></path>
<path fill="#000" d="M503.356 262.069c-1.142-2.828-2.454-4.72-2.603-6.725-0.787-9.459-6.069-16.053-13.111-21.69-4.308-3.446-8.748-6.8-11.501-10.92 0.365-2.856 2.78-5.040 5.707-5.040 0.055 0 0.11 0.001 0.164 0.002h-0.008c15.715-1.873 31.318-4.907 47.295-4.27 9.628 0.375 19.293-0.206 28.94-0.262 3.015 0 6.051 0.3 9.927 0.524-0.712 2.547-0.749 4.495-1.686 5.77-13.542 18.469-30.307 32.91-52.185 40.609-3.112 0.874-6.83 1.58-10.638 1.979l-0.301 0.025z"></path>
<path fill="#000" d="M455.068 808.283c2.491-3.446 4.795-7.062 7.493-10.34 10.316-12.34 22.84-22.447 37.020-29.805l0.667-0.315c6.762-3.465 13.767-5.62 21.747-2.622 0.342 1.199 0.675 2.73 0.923 4.29l0.032 0.243c0.863 7.776 4.731 14.512 10.399 19.121l0.053 0.041c4.907 4.252 9.59 8.729 13.786 12.568 0 4.42-2.21 5.207-4.888 5.62-14.65 2.806-31.5 4.411-48.726 4.411-0.815 0-1.628-0.004-2.441-0.011l0.125 0.001c-8.729-0.187-17.458 0-26.223 0-2.997 0-6.013-0.524-9.010-0.805z"></path>
<path fill="#000" d="M116.974 416.675c7.923-35.72 16.989-69.305 33.36-100.678 5.169 2.004 7.024 5.732 8.429 9.366 4.607 12.231 8.523 24.668 9.647 37.818 0.543 6.294-0.768 12.156-5.957 15.846-10.246 7.287-16.353 17.739-23.001 27.872-2.51 3.746-5.62 7.249-8.467 10.958z"></path>
<path fill="#000" d="M610.759 781.947c1.401-0.1 3.035-0.157 4.682-0.157s3.282 0.057 4.901 0.169l-0.219-0.012c15.378 2.379 29.801 0.936 42.276-9.478 0.949-0.64 2.037-1.197 3.192-1.615l0.104-0.033c13.542 9.553 20.042 41.377 11.875 58.066-6.556 2.135-12.943-0.3-19.218-1.517-7.225-1.637-13.478-3.683-19.467-6.235l0.735 0.278c-5.938-2.39-10.72-6.616-13.752-11.964l-0.071-0.136c-4.832-8.504-9.459-17.252-15.041-27.366z"></path>
<path fill="#000" d="M906.334 608.498c-7.74 37.63-19.154 70.911-34.19 102.119l1.13-2.601c-3.751-1.915-6.603-5.143-7.982-9.065l-0.035-0.113c-4.616-11.467-8.127-24.811-9.915-38.696l-0.087-0.827c-0.599-5.244 0.618-10.283 4.813-13.486 11.744-8.916 18.638-21.484 26.504-33.416 5.414-8.317 9.085-8.954 19.761-3.914z"></path>
<path fill="#000" d="M346.428 193.383c15.503 0.346 29.972 4.468 42.617 11.479l-0.472-0.24c3.569 2.034 6.482 4.844 8.576 8.215l0.059 0.101c5.395 8.954 10.096 18.319 15.453 28.228-4.383 0-8.129 0.543-11.669 0-14.216-2.51-27.16-0.169-38.661 8.897-1.316 0.917-2.836 1.832-4.416 2.646l-0.229 0.107c-13.018-10.115-19.537-43.212-11.257-59.434z"></path>
<path fill="#000" d="M747.926 622.415c6.781 7.249 8.373 14.984 4.851 24.238-5.138 14.022-12.011 26.149-20.533 36.912l0.209-0.274c-6.013 7.493-11.669 15.172-17.907 23.339l-21.409-28.303c6.069-9.122 11.707-17.963 17.776-26.523 1.961-2.769 4.468-5.019 7.38-6.63l0.113-0.057c11.089-5.601 19.743-14.104 29.52-22.702z"></path>
<path fill="#000" d="M309.659 317.008q11.239 14.984 21.203 28.209c-6.612 9.366-12.887 18.731-19.443 27.647-1.622 2.277-3.697 4.125-6.106 5.441l-0.094 0.047c-11.014 5.507-20.024 13.542-28.996 22.477-6.107-5.507-8.691-11.875-6.5-19.836 3.697-13.059 9.356-24.458 16.731-34.521l-0.21 0.3c6.331-8.841 13.111-17.364 19.724-25.979 1.177-1.356 2.382-2.591 3.655-3.752l0.035-0.031z"></path>
<path fill="#000" d="M390.84 403.095l14.722 11.388c1.255 9.815 1.498 19.312 3.896 28.228s6.912 17.064 10.377 25.268c-0.843 0.88-1.199 1.573-1.704 1.723-11.613 3.24-23.264 6.425-35.588 9.834-1.429-1.752-2.719-3.723-3.79-5.825l-0.087-0.188c-4.248-10.101-6.717-21.843-6.717-34.161 0-0.502 0.004-1.003 0.012-1.503l-0.001 0.075c0.506-14.629 6.95-26.129 18.881-34.839z"></path>
<path fill="#000" d="M638.013 725.604c11.894 10.377 19.443 21.953 26.354 33.903-25.23 25.305-61.325 23.432-82.529-10.677 9.796-2.248 20.061-3.633 29.614-7.081s18.787-7.905 26.56-16.147z"></path>
<path fill="#000" d="M443.53 275.331c-22.234 1.536-41.864 6.331-56.848 21.915-9.366-5.826-22.589-23.039-26.823-34.783 7.623-7.696 17.687-12.962 28.934-14.541l0.268-0.031c17.439-2.622 32.742 1.199 44.055 15.959 2.809 3.671 6.182 6.875 10.414 11.482z"></path>
<path fill="#000" d="M632.674 620.523l-14.085-11.070c-1.386-9.534-1.873-19.274-4.401-28.49-2.379-8.822-6.8-17.102-10.321-25.586 11.744-5.507 32.086-10.62 39.541-9.59 6.275 15.921 11.070 32.442 6.519 50.237-2.547 9.965-8.429 17.851-17.252 24.5z"></path>
<path fill="#000" d="M601.806 787.81c-9.010 3.371-17.327 6.706-25.811 9.609-1.864 0.754-4.026 1.192-6.291 1.192-3.665 0-7.064-1.147-9.854-3.102l0.055 0.037c-7.002-4.718-13.12-9.647-18.79-15.040l0.059 0.056c-7.624-7.774-8.467-17.832-5.62-27.891 1.442-5.244 4.42-10.077 6.631-14.891 14.984 3.559 45.291 28.996 59.621 50.031z"></path>
<path fill="#000" d="M421.614 235.996c10.452-3.746 19.93-7.493 29.576-10.714 1.245-0.432 2.679-0.682 4.172-0.682 2.814 0 5.421 0.886 7.557 2.395l-0.041-0.028c4.888 3.296 9.778 6.612 14.422 10.246 17.888 13.992 14.31 36.263 2.135 48.589-22.683-11.763-41.227-28.322-57.822-49.806z"></path>
<path fill="#000" d="M804.287 712.137c-10.452-7.268-21.185-14.067-31.168-21.84-7.68-6.013-10.752-14.16-6.8-24.050 2.622-6.537 3.128-13.898 8.223-20.604 2.749 0.68 5.157 1.604 7.411 2.783l-0.181-0.086c8.272 5.586 17.946 9.865 28.339 12.268l0.582 0.113c3.053 0.712 6.219 1.161 7.343 4.832-0.749 9.366-9.291 38.811-13.748 46.584z"></path>
<path fill="#000" d="M248.69 379.682c-13.861-10.564-28.584-15.153-43.887-19.256 2.959-17.87 8.954-33.097 13.111-50.087 4.701 3.147 8.261 5.432 11.725 7.886 6.856 4.832 13.842 9.497 20.398 14.703 8.935 7.062 10.62 14.048 6.875 24.668-1.423 4.083-2.528 8.298-3.989 12.381-0.936 2.753-2.341 5.489-4.233 9.703z"></path>
<path fill="#000" d="M326.274 185.422c-5.325-3.991-9.11-9.783-10.46-16.459l-0.030-0.175c-1.101-5.327-1.922-11.668-2.288-18.133l-0.016-0.355c-0.063-0.761-0.099-1.646-0.099-2.54 0-7.626 2.619-14.64 7.007-20.192l-0.052 0.069c6.415-8.821 14.619-15.948 24.118-20.946l0.381-0.183c5.526-2.828 11.089-5.62 16.521-8.616 2.698-1.529 5.927-2.431 9.365-2.431 2.24 0 4.391 0.383 6.392 1.086l-0.135-0.041c-0.56 1.317-1.251 2.453-2.081 3.472l0.020-0.026c-22.477 19.405-33.716 44.842-39.598 73.219-0.487 2.435-1.105 4.851-1.761 7.249-0.936 3.465-3.221 5.169-7.287 5.001z"></path>
<path fill="#000" d="M645.862 926.737c2.641-2.903 4.139-4.813 5.882-6.463 16.892-15.885 29.063-36.611 34.298-59.959l0.148-0.785c1.124-4.851 2.566-9.628 3.427-14.516 0.693-3.746 2.791-6.013 6.556-7.849 6.562 4.524 11.066 11.628 12.049 19.815l0.013 0.134c0.656 3.989 1.030 8.017 1.555 12.006 0.29 1.69 0.456 3.637 0.456 5.623 0 9.175-3.543 17.523-9.336 23.75l0.020-0.021c-7.755 8.654-16.315 16.184-27.198 20.754-4.008 1.686-7.774 3.914-11.632 5.919-4.589 2.36-9.328 2.959-16.24 1.592z"></path>
<path fill="#000" d="M395.297 304.814c1.461-5.094 5.113-7.605 8.766-9.871 11.814-7.587 26.233-12.093 41.705-12.093 1.294 0 2.581 0.032 3.86 0.094l-0.18-0.007c2.597 0.107 4.993 0.88 7.049 2.152l-0.062-0.036c11.782 7.586 23.395 15.396 35.907 23.676l-15.997 0.749c-13.526 0.421-26.349 2.822-38.387 6.923l0.924-0.274c-16.896 5.863-31.131 0.412-43.587-11.313z"></path>
<path fill="#000" d="M628.666 720.472c-16.634 15.902-36.225 21.222-58.066 19.686-13.111-8.654-26.073-17.158-39.804-26.223 3.034-0.15 5.188-0.431 7.324-0.318 15.715 0.862 30.85-2.21 45.909-6.313 3.887-1.217 8.357-1.918 12.99-1.918 9.808 0 18.882 3.14 26.27 8.471l-0.133-0.091c1.33 0.914 2.494 1.893 3.555 2.974l0.004 0.004c0.735 1.073 1.39 2.301 1.904 3.6l0.044 0.127z"></path>
<path fill="#000" d="M555.559 35.987c-1.332 3.776-4.471 6.606-8.352 7.478l-0.077 0.015c-9.796 3.24-35.439 4.738-46.246 2.678-9.796-9.010-10.976-21.185-2.922-31.431 4.821-6.074 11.155-10.749 18.438-13.483l0.293-0.097c7.493-2.828 17.776-0.712 19.668 9.553 1.423 7.717 5.938 13.505 11.931 18.375 2.547 2.060 4.813 4.626 7.268 6.912z"></path>
<path fill="#000" d="M467.655 986.471c3.902-4.677 9.591-7.751 16.005-8.163l0.067-0.003c9.59-1.049 19.256-1.33 28.865-2.229 14.872-1.405 21.447 9.478 17.42 23.207-3.896 13.299-14.591 20.604-27.423 24.35-5.807 1.704-12.962-2.734-14.385-9.141-2.023-9.141-7.305-15.584-14.216-21.241-2.25-2.1-4.321-4.314-6.236-6.661l-0.095-0.12z"></path>
<path fill="#000" d="M678.060 242.177c-2.787 1.499-6.184 3.038-9.684 4.364l-0.618 0.206c-7.099 2.191-14.348 3.971-21.559 5.826-13.748 3.54-18.9 1.873-27.198-9.59-5.494-7.797-13.975-13.171-23.744-14.46l-0.175-0.019c-2.135-0.318-4.383 0-6.481-0.487-3.559-0.805-7.006-1.985-10.658-3.053v-7.493c0.824-0.649 1.748-1.268 2.719-1.816l0.109-0.057c6.088-2.491 12.194-0.955 18.357-0.131 22.988 2.953 43.581 7.547 63.434 13.807l-2.558-0.696c4.511 1.406 8.235 2.855 11.838 4.519l-0.6-0.248c3.938 1.368 6.732 5.011 6.818 9.318v0.010z"></path>
<path fill="#000" d="M345.117 781.31c1.951-1.225 4.208-2.37 6.57-3.309l0.286-0.1q14.348-3.989 28.865-7.493c8.804-2.154 16.371-1.142 21.99 7.493 4.813 7.362 11.145 13.58 20.061 15.94 4.495 1.18 9.216 1.442 13.767 2.416 3.203 0.693 6.294 1.873 9.89 2.997-0.412 3.203-0.73 5.62-0.974 7.493-5.507 3.502-10.901 3.147-16.072 2.341-24.893-3.896-49.619-8.616-73.519-16.858-4.757-1.798-9.309-3.896-10.864-10.92z"></path>
<path fill="#000" d="M293.194 132.32h12.025c0.656 11.37 0.45 22.271 2.098 32.873 1.611 10.302 5.151 20.304 8.148 31.58l-25.961 17.308c-5.038-1.517-5.807-4.87-6.425-8.261-1.387-6.809-2.182-14.635-2.182-22.646 0-10.68 1.411-21.029 4.057-30.874l-0.19 0.83c1.929-7.156 2.847-14.741 8.429-20.81z"></path>
<path fill="#000" d="M444.429 325.604c18.057-14.366 64.060-15.303 94.517 6.744-0.412 0.693-0.693 1.873-1.274 2.060-15.153 4.607-30.419 8.673-46.265 10.077-0.905 0.065-1.96 0.102-3.024 0.102-6.151 0-12.013-1.235-17.352-3.471l0.296 0.11q-9.16-3.465-18.207-7.156c-3.802-1.536-7.287-3.484-8.691-8.467z"></path>
<path fill="#000" d="M579.198 699.569c-21.503 16.034-73.631 11.744-94.573-7.661 1.569-0.744 3.589-1.555 5.657-2.263l0.45-0.134c8.691-2.435 17.327-5.094 26.11-7.006 13.598-2.978 27.104-3.746 40.103 2.997 4.682 2.397 9.796 3.952 14.722 5.882 3.815 1.15 6.699 4.251 7.518 8.115l0.013 0.071z"></path>
<path fill="#000" d="M736.201 808.377c10.789 18.357 6.818 65.671-5.994 82.21h-11.557c-0.73-11.239-0.618-21.934-2.285-32.255s-5.132-20.342-8.036-31.374z"></path>
<path fill="#000" d="M209.693 778.557c1.363-0.435 2.93-0.686 4.556-0.686 4.222 0 8.051 1.692 10.842 4.434l-0.002-0.002c9.234 8.335 18.506 16.671 27.048 25.661 4.458 4.682 8.972 8.542 15.19 10.246 9.478 2.622 17.514 7.998 25.343 13.617s11.763 13.28 13.692 23.095c-3.020 1.021-6.498 1.61-10.114 1.61-6.393 0-12.355-1.841-17.386-5.023l0.134 0.079c-12.849-7.624-24.725-16.727-32.067-30.475-6.15-11.836-14.92-21.549-25.587-28.634l-0.28-0.175c-3.203-2.161-5.986-4.568-8.453-7.27l-0.032-0.036c-1.274-1.461-1.667-3.671-2.884-6.444z"></path>
<path fill="#000" d="M716.514 167.572c13.467-1.629 24.706 0.187 34.521 7.886 5.395 4.233 10.658 8.654 15.621 13.374 2.735 2.784 5.203 5.848 7.354 9.139l0.139 0.227c3.896 5.62 7.38 11.538 11.239 17.139 4.3 6.186 9.691 11.294 15.935 15.152l0.229 0.132c3.531 2.289 6.6 4.815 9.354 7.649l0.012 0.012c1.311 1.33 1.686 3.615 2.547 5.62-6.107 3.278-10.639 0.656-14.273-2.603-9.253-8.279-18.432-16.708-26.898-25.773-4.401-4.738-8.71-8.485-15.097-10.096-10.752-2.734-19.967-8.71-28.471-15.565-6.369-5.282-9.441-12.793-12.212-22.29z"></path>
<path fill="#000" d="M463.122 433.664l3.933-3.221c3.746 3.034 7.399 5.807 10.845 8.822 9.826 8.966 21.699 15.87 34.823 19.925l0.654 0.174c4.406 1.266 9.468 1.994 14.7 1.994 3.631 0 7.181-0.351 10.617-1.020l-0.348 0.057c3.596-0.618 7.305-0.693 10.546-0.974 7.605 11.501 9.16 34.689 3.090 44.355-2.041-1.255-4.214-2.379-6.144-3.746q-36.843-27.217-73.613-54.507c-4.046-3.034-8.055-5.994-9.103-11.857z"></path>
<path fill="#000" d="M756.299 687.693c7.343 6.313 14.067 12.849 21.559 18.319 7.174 5.263 15.134 9.366 23.339 14.422-5.47 12.475-12.287 23.151-18.357 35.064-2.491-1.873-4.289-2.94-5.788-4.345-9.069-8.693-16.855-18.621-23.113-29.537l-0.338-0.639c-1.186-2.080-2.388-4.577-3.425-7.157l-0.152-0.429c-1.184-2.341-1.878-5.103-1.878-8.028 0-4.309 1.506-8.267 4.021-11.374l-0.027 0.034c1.48-1.948 2.622-4.083 4.158-6.331z"></path>
<path fill="#000" d="M241.030 268.176c6.781 4.467 12.442 10.040 16.874 16.52l0.134 0.207c4.282 5.548 8.609 11.849 12.587 18.385l0.524 0.927c7.23 12.418 6.088 19.368-4.888 31.524-11.46-13.199-25.611-23.743-41.633-30.833l-0.755-0.298c-0.524-7.923 4.832-12.962 7.605-18.918s6.125-11.37 9.553-17.514z"></path>
<path fill="#000" d="M681.712 412.742c15.808 9.197 34.671 32.479 35.701 43.718-13.111 12.269-46.097 8.429-57.728-6.257 0.707-2.85 1.663-5.346 2.881-7.683l-0.090 0.19c2.244-3.178 4.607-5.97 7.19-8.539l0.003-0.003c4.135-4.387 7.3-9.738 9.122-15.675l0.075-0.284c0.86-2.104 1.814-3.903 2.923-5.593l-0.076 0.123z"></path>
<path fill="#000" d="M343.843 284.303c-2.716 12.662-5.339 24.893-8.41 39.167-23.282-27.085-40.403-54.975-48.027-88.447 3.39-1.648 4.813 0.581 6.444 2.322 7.024 7.493 13.786 15.265 21.166 22.383 6.5 6.238 13.673 11.763 20.604 17.607z"></path>
<path fill="#000" d="M364.766 573.828c-1.592 2.94-2.66 6.275-4.813 8.635-7.174 7.867-14.198 15.696-16.521 26.541-0.112 0.468-0.918 0.768-1.405 1.161-13.111-6.369-33.809-31.168-35.944-43.081 14.273-12.456 44.43-9.628 58.685 6.744z"></path>
<path fill="#000" d="M679.952 739.053c2.285-11.538 4.495-22.721 6.818-33.865 0.225-1.049 1.292-1.873 1.967-2.866 16.858 11.557 43.437 60.913 47.258 88.691-2.692-2.058-5.082-4.162-7.319-6.42l-0.005-0.005c-12.634-15.081-26.602-28.341-41.934-39.884l-0.641-0.462c-1.985-1.461-3.783-3.184-6.144-5.188z"></path>
<path fill="#000" d="M785.089 200.052c1.337-0.942 3-1.505 4.795-1.505s3.457 0.563 4.821 1.523l-0.027-0.018c5.017 2.951 9.299 5.89 13.364 9.089l-0.253-0.192c12.606 10.658 24.931 21.653 37.462 32.405 2.442 2.212 5.204 4.144 8.193 5.704l0.217 0.103c2.73 1.469 5.976 2.333 9.422 2.333s6.692-0.863 9.53-2.386l-0.108 0.053c6.2-3.24 9.366-7.923 9.028-14.984 0.141-0.971 0.492-1.839 1.006-2.587l-0.013 0.021c0.112-0.225 0.506-0.3 1.461-0.824 0.749 0.88 2.004 1.742 2.454 2.903 0.973 2.407 1.538 5.198 1.538 8.123 0 10.846-7.773 19.877-18.052 21.825l-0.138 0.022c-4.214 0.88-8.504 1.386-12.849 2.060-1.33 3.371-2.697 6.163-3.577 9.103-6.013 20.361-26.485 20.885-38.979 8.654 1.938-0.104 4.207-0.164 6.491-0.164s4.551 0.059 6.806 0.177l-0.315-0.013c11.239 1.18 18.862-8.635 17.795-18.937s-5.094-18.731-13.28-24.762c-8.748-6.481-17.926-12.381-26.823-18.731-4.78-3.038-8.907-6.092-12.804-9.406l0.161 0.134c-2.615-2.885-5.030-6.063-7.158-9.439l-0.166-0.283z"></path>
<path fill="#000" d="M348.302 267.651c-4.27 3.409-7.811 1.704-11.032-0.974q-14.984-12.493-29.82-25.23c-3.142-2.631-5.966-5.401-8.558-8.376l-0.077-0.090c-2.809-3.315-5.263-7.006-3.896-13.111 8.129-4.963 16.989-10.583 26.054-15.865 3.502-2.023 3.746-1.667 9.553-0.169 1.873 10.901 3.015 22.046 5.957 32.667s7.792 20.642 11.819 31.15z"></path>
<path fill="#000" d="M729.064 802.738c-9.292 7.338-19.872 13.718-31.212 18.686l-0.93 0.363c-3.652-0.693-5.225-2.491-5.207-5.32 0.131-21.035-6.706-40.178-15.865-58.703-0.243-0.487 0-1.199 0-2.173 1.327-0.766 2.919-1.217 4.617-1.217 2.448 0 4.677 0.94 6.347 2.478l-0.006-0.006c12.212 10.546 24.5 20.997 36.506 31.749 3.591 2.887 5.871 7.28 5.871 12.205 0 0.683-0.044 1.355-0.129 2.015l0.008-0.078z"></path>
<path fill="#000" d="M471.925 521.624c10.358 7.849 20.604 15.94 31.225 23.432 15.902 11.445 32.011 22.589 48.008 33.903 4.308 3.053 8.467 6.294 9.366 12.306-2.978 3.746-5.826 2.51-8.691 0-4.458-3.858-8.841-7.83-13.43-11.519-7.998-6.174-17.399-10.998-27.603-13.923l-0.587-0.144c-3.89-1.246-8.366-1.964-13.008-1.964-2.891 0-5.719 0.279-8.455 0.81l0.278-0.045c-4.813 0.899-9.778 0.918-15.378 1.386-5.863-14.685-6.163-28.996-4.233-43.493z"></path>
<path fill="#000" d="M209.393 742.313c-5.489-0.262-10.096-0.712-14.703-0.674-8.335 0-12.4 3.409-14.984 11.239-2.229 6.706-0.843 12.887 1.873 19.012 2.626 6.204 6.785 11.326 12.011 15.043l0.107 0.073c8.748 5.976 17.57 11.8 26.448 17.57 7.362 4.795 14.235 9.984 17.87 18.506-3.072 2.566-6.2 1.48-8.897 0.3-3.339-1.432-6.218-3.217-8.784-5.365l0.055 0.045c-14.235-12.1-28.303-24.35-42.444-36.581-0.936-0.805-1.873-1.629-2.847-2.416-9.665-7.923-23.732-8.073-31.974 4.701l-1.985 11.594c-2.004-2.060-3.615-2.978-4.12-4.326-0.848-2.245-1.338-4.841-1.338-7.552 0-9.735 6.331-17.991 15.1-20.876l0.155-0.044c4.27-1.107 9.61-2.118 15.048-2.813l0.686-0.072c1.086-2.716 2.528-6.051 3.746-9.366 6.594-18.151 24.144-22.121 38.979-7.998z"></path>
<path fill="#000" d="M295.724 292.769c-4.476 11.145-5.395 12.437-11.613 16.858-12.325-17.383-24.612-34.746-36.544-51.604 4.926-12.943 13.111-22.477 22.308-25.848 5.489 9.572 7.493 20.604 12.1 30.719s9.085 19.761 13.748 29.876z"></path>
<path fill="#000" d="M347.102 182.819c-0.393-11.445 0.88-23.133 7.736-34.334 14.572-0.487 27.91 1.536 37.874 11.239v37.743z"></path>
<path fill="#000" d="M728.221 729.818c2.079-6.369 5.263-12.175 11.239-16.184l36.712 51.847c-3.971 11.239-11.239 19.087-20.716 26.804-1.84-2.494-3.583-5.323-5.087-8.292l-0.158-0.343c-2.547-6.369-4.326-13.111-6.931-19.349-4.701-11.22-9.721-22.271-15.059-34.483z"></path>
<path fill="#000" d="M665.753 876.051c-19.405-2.454-29.745-6.537-34.895-12.812v-37.219c1.985 0.581 3.596 0.993 5.169 1.517 12.044 3.933 23.451 9.927 36.431 10.77 1.105 0 2.154 1.068 3.072 1.536 2.66 14.273-1.311 29.389-9.778 36.207z"></path>
<path fill="#000" d="M613.457 994.262c-8.223-5.938-16.671-11.688-24.725-17.926-6.125-4.757-5.263-13.111 1.386-17.139 1.117-0.622 2.503-1.288 3.928-1.88l0.286-0.105q11.8-5.489 23.62-10.958c8.242-3.858 12.55-2.023 15.621 6.725 5.732 16.39-3.446 35.289-20.117 41.283z"></path>
<path fill="#000" d="M465.951 863.689l6.069-4.607c23.919 1.873 46.134 8.822 67.993 20.211-1.292 1.611-2.173 3.746-3.746 4.532-11.651 6.294-23.732 10.714-37.369 7.493-6.95-1.667-14.048-2.753-20.979-4.514-12.1-3.147-15.715-9.984-11.969-23.114z"></path>
<path fill="#000" d="M557.919 159.705l-6.406 5.113c-24.35-1.199-46.265-9.178-68.124-20.042 1.329-1.9 2.822-3.548 4.498-4.99l0.035-0.029c7.374-4.874 16.423-7.776 26.149-7.776 1.424 0 2.833 0.062 4.225 0.184l-0.181-0.013c10.445 1.179 19.776 2.956 28.849 5.368l-1.371-0.31c11.594 2.791 15.284 9.553 12.325 22.496z"></path>
<path fill="#000" d="M411.2 29.619c7.699 5.807 14.142 11.239 21.11 15.734 5.489 3.596 7.68 7.83 5.395 15.546-2.341 1.674-5.040 3.362-7.843 4.887l-0.417 0.208c-7.811 3.746-15.808 7.156-23.676 10.808-8.373 3.914-12.55 2.248-15.621-6.463-5.207-14.76 2.772-33.903 16.858-40.103 1.255-0.386 2.697-0.611 4.192-0.618h0.003z"></path>
<path fill="#000" d="M199.747 410.193c-0.955-3.746-2.547-6.631-2.266-9.366 1.124-10.452 2.847-20.829 4.514-32.255 3.278 0.506 5.863 0.3 7.792 1.33 9.028 4.813 17.982 9.796 26.748 14.984 5.919 3.559 5.77 3.746 8.691 11.782-1.161 5.788-2.379 11.819-3.54 17.533-4.383 2.903-8.373 1.873-12.175 0.674-9.178-2.809-18.319-5.788-29.764-4.682z"></path>
<path fill="#000" d="M782.129 606.869c15.378 0.131 27.816 8.954 42.426 6.612 3.914 15.621-0.899 28.602-4.214 41.583-1.723 0-2.491 0.393-2.94 0.131q-16.24-9.122-32.405-18.394c-3.502-1.905-5.839-5.558-5.839-9.756 0-0.777 0.080-1.534 0.232-2.266l-0.012 0.072c0.824-5.489 1.704-10.976 2.753-17.982z"></path>
<path fill="#000" d="M416.482 925.295c-3.015 7.493-5.62 15.097-9.047 22.346-1.475 3.212-4.664 5.403-8.366 5.403-0.958 0-1.882-0.147-2.75-0.419l0.065 0.018c-11.089-2.94-22.102-6.2-32.966-9.927-5.62-1.873-6.669-5.788-3.858-11.145 3.087-6.272 7.805-11.338 13.605-14.765l0.162-0.088c2.445-1.444 5.389-2.297 8.531-2.297 0.723 0 1.436 0.045 2.135 0.133l-0.083-0.009c9.984 2.116 19.78 5.207 29.595 8.055 1.030 0.206 1.779 1.48 2.978 2.697z"></path>
<path fill="#000" d="M505.192 675.105c-0.524 0.674-0.955 1.686-1.686 2.060-9.788 5.096-21.203 8.636-33.288 9.946l-0.428 0.038c-0.188 0.009-0.408 0.014-0.63 0.014-2.413 0-4.685-0.601-6.677-1.662l0.077 0.037c-14.254-7.006-28.415-14.216-42.575-21.391-0.487-0.243-0.73-0.955-1.704-2.304 3.207-1.385 7.195-2.778 11.287-3.917l0.701-0.166c12.381-2.547 24.612-2.547 36.787 1.873 9.927 3.615 20.23 6.257 30.269 9.572 3.128 1.086 7.043 1.442 7.867 5.901z"></path>
<path fill="#000" d="M606.976 97.050c4.963-7.849 5.882-17.87 12.924-26.223 15.734 0 29.839 6.537 43.924 11.089 0.749 1.742 1.461 2.622 1.423 3.446-0.693 14.535-17.458 26.354-31.187 22.14-6.238-1.873-12.568-3.596-18.862-5.358-3.802-1.011-3.952-1.011-8.223-5.094z"></path>
<path fill="#000" d="M605.253 360.501c-4.682 4.439-10.508 4.495-15.921 5.62-3.701 0.864-7.953 1.359-12.318 1.359-6.132 0-12.035-0.977-17.564-2.783l0.399 0.113c-10.62-3.577-21.335-6.875-31.955-10.433-3.109-1.049-6.069-2.547-10.040-4.233 1.873-2.322 2.809-4.308 4.177-4.795 9.366-3.221 18.825-6.463 28.415-8.991 0.979-0.213 2.103-0.336 3.256-0.336 2.434 0 4.741 0.545 6.806 1.52l-0.097-0.041c13.523 6.35 26.823 13.111 40.159 19.911 1.81 1.050 3.338 2.071 4.8 3.176l-0.118-0.085z"></path>
<path fill="#000" d="M606.789 68.691c0.862 12.381-3.034 21.522-12.437 28.659l-34.652-7.081c-6.556-9.178 0.169-19.537-1.011-29.015 4.214-3.746 8.41-2.922 12.269-2.322 9.178 1.461 18.338 3.128 27.385 5.244 3.109 0.73 5.788 3.034 8.448 4.514z"></path>
<path fill="#000" d="M603.811 909.13c21.054 8.504 24.2 10.283 27.928 16.409-1.442 1.893-2.958 3.57-4.604 5.111l-0.022 0.021c-4.364 3.521-9.253 6.425-13.374 10.19-11.239 10.227-37.275 6.519-47.070-9.047-0.424-0.998-0.763-2.163-0.962-3.375l-0.012-0.090z"></path>
<path fill="#000" d="M428.189 926.906c12.606 0 24.35 4.645 36.956 6.406 2.716 10.583 1.367 20.398-1.086 29.97-7.493 2.734-14.179 0.225-20.81-0.805-5.807-0.88-11.576-2.154-17.308-3.427-7.493-1.648-9.815-5.038-9.028-12.418s3.315-11.969 11.276-19.724z"></path>
<path fill="#000" d="M389.96 99.803c10.152-10.115 18.563-19.499 30.457-22.121 2.52-0.664 5.414-1.045 8.396-1.045 10.844 0 20.511 5.041 26.785 12.907l0.053 0.069c0.708 0.917 1.334 1.957 1.834 3.067l0.039 0.098c0.199 0.661 0.327 1.424 0.355 2.213v0.016c-11.332 7.174-25.698 9.197-35.832 19.817z"></path>
<path fill="#000" d="M323.52 967.14c-2.379-9.871 0-19.799-3.914-28.715-3.577-0.15-4.589 1.629-3.746 4.083 2.229 7.212 0.112 14.235-0.618 21.297-0.317 1.243-0.773 2.334-1.362 3.337l0.032-0.060c-7.905-1.442-19.087-8.279-24.593-15.228 3.184-3.39 7.062-6.463 9.572-10.433s3.746-9.028 5.882-14.254c2.768 0.218 5.322 0.67 7.785 1.341l-0.292-0.068c3.211 1.339 5.933 2.763 8.513 4.389l-0.234-0.138c7.268 4.195 14.385 8.635 21.709 12.718 9.647 5.376 11.594 11.239 6.275 22.308-8.204 3.203-16.652 4.027-25.005-0.581z"></path>
<path fill="#000" d="M676.692 54.905c11.744-1.48 14.647-1.349 23.657 1.255 0.618 4.682 1.405 9.796 1.873 14.984 0.356 3.39 0 6.875 0.599 10.227 0.3 1.704 1.873 3.184 2.978 4.757l1.873-0.562c-0.432-3.927-0.678-8.481-0.678-13.092 0-0.343 0.001-0.685 0.004-1.027v0.053c0.578-5.625 1.364-10.554 2.395-15.392l-0.166 0.932c8.616 0.206 17.345 5.113 25.324 14.291-3.24 3.39-7.156 6.463-9.684 10.414s-3.484 8.542-5.489 13.804c-0.289 0.009-0.628 0.015-0.969 0.015-2.452 0-4.838-0.278-7.131-0.805l0.213 0.041c-3.462-1.557-6.401-3.195-9.181-5.050l0.228 0.143c-7.006-3.971-13.898-8.167-21.054-11.838-9.74-5.019-11.875-14.123-4.795-23.151z"></path>
<path fill="#000" d="M413.86 124.098l-18.019 27.872c-10.808-8.654-24.743-7.68-37.087-11.089 1.311-12.812 12.55-27.254 22.252-29.633 2.086-0.493 4.481-0.776 6.944-0.776 10.706 0 20.163 5.35 25.842 13.522l0.068 0.103z"></path>
<path fill="#000" d="M609.617 898.922c6.275-9.478 12.269-18.488 18.731-28.228 10.115 10.546 24.575 7.493 36.431 12.212-1.236 11.913-11.875 26.223-21.203 28.827-12.006 3.39-26.448-1.948-33.959-12.812z"></path>
<path fill="#000" d="M391.495 30.349c-3.278 9.366-7.23 17.27-8.635 25.605s0 16.559 0.112 25.717c0 0-0.393 1.124-1.105 1.311-8.879 2.266-17.813 2.828-26.036-2.041-6.706-3.989-8.579-10.302-5.845-17.664 3.306-8.657 9.135-15.73 16.579-20.504l0.167-0.1c6.481-4.233 13.374-7.792 20.136-11.538 1.368-0.431 2.95-0.713 4.586-0.785l0.040-0.001z"></path>
<path fill="#000" d="M633.517 993.195c0.262-3.034-0.206-5.414 0.712-6.968 7.905-13.355 8.86-27.554 5.713-42.351-0.131-0.543 0.225-1.199 0.356-1.873 10.414-7.212 25.773-3.746 34.015 7.661 1.873 7.942-1.498 14.76-6.257 20.604-8.822 10.826-20.716 17.308-34.54 22.927z"></path>
<path fill="#000" d="M547.692 931.513c7.493 5.526 14.123 10.171 20.473 15.097 1.326 1.351 2.451 2.907 3.322 4.614l0.049 0.106c-0.524 4.738-3.502 6.369-6.744 7.699-7.472 2.884-16.119 4.824-25.133 5.418l-0.266 0.014c-0.509 0.058-1.098 0.092-1.696 0.092-4.658 0-8.843-2.026-11.721-5.246l-0.013-0.015c-6.125-6.406-10.733-13.355-9.647-23.545 5.751-0.918 10.883-1.873 16.053-2.566s10.471-1.142 15.321-1.667z"></path>
<path fill="#000" d="M507.159 87.272c-1.928 0.747-4.267 1.438-6.673 1.948l-0.314 0.056c-8.279 0.936-16.596 1.648-24.35 2.397-7.493-5.62-14.441-10.658-21.185-16.072-1.442-1.161-1.873-3.521-2.809-5.169 2.585-3.762 6.476-6.467 11.006-7.47l0.12-0.022c5.994-1.555 12.025-2.978 18.132-4.046 1.16-0.259 2.492-0.408 3.859-0.408 6.18 0 11.65 3.035 15.002 7.696l0.038 0.055c4.514 6.013 8.467 12.138 7.174 21.035z"></path>
<path fill="#000" d="M238.069 458.108c-10.752 2.959-20.304-5.414-31.337-2.566-6.8-11.857-4.738-24.612-8.56-35.982 1.99-1.181 4.388-1.879 6.949-1.879 1.821 0 3.559 0.353 5.15 0.994l-0.093-0.033c9.085 2.866 18.094 6.013 27.497 9.16 3.090 6.369 3.446 21.896 0.393 30.307z"></path>
<path fill="#000" d="M820.134 570.887c0.468 11.239 5.001 21.765 4.27 33.378-5.751 2.341-10.714 0.131-15.64-1.311-7.118-2.079-14.142-4.439-22.721-7.156-5.076-8.991-1.985-19.593-1.461-29.876 6.725-1.611 25.286 1.011 35.551 4.963z"></path>
<path fill="#000" d="M755.512 524.64c12.83 32.292 13.224 64.341 3.203 98.019-5.432-7.493-9.028-14.741-7.305-22.477 3.858-17.345-1.274-33.285-5.919-49.431-0.911-2.507-1.883-5.802-2.688-9.16l-0.14-0.692c-1.423-7.811 3.24-14.048 12.849-16.259z"></path>
<path fill="#000" d="M267.758 497.818c-12.512-32.067-13.111-63.835-2.322-96.689 5.751 7.68 8.335 15.752 6.631 24.35-3.053 15.34 0.393 29.67 4.963 44.018 1.39 3.711 2.683 8.238 3.639 12.886l0.106 0.619c1.461 8.204-3.521 14.010-13.018 14.816z"></path>
<path fill="#000" d="M539.882 2.589c3.766-0.578 8.112-0.909 12.534-0.909 10.603 0 20.762 1.898 30.156 5.375l-0.602-0.195c6.8 2.547 11.426 8.504 14.366 15.247 0.862 2.004 0.468 4.551 0.712 7.624-11.482 0.88-21.971 2.622-32.386 2.191-9.721-0.375-16.259-7.249-20.417-15.734-1.985-4.046-2.828-8.71-4.364-13.598z"></path>
<path fill="#000" d="M483.164 1020.636c-14.703 1.573-28.902 0.899-42.257-4.832-6.31-2.95-11.156-8.15-13.576-14.542l-0.060-0.18c-0.805-2.060-0.543-4.514-0.862-7.661l12.044-1.030c3.746-0.318 7.493-0.356 11.126-0.974 11.913-2.060 20.136 0.393 28.996 13.804 2.881 4.015 4.607 9.029 4.607 14.446 0 0.341-0.007 0.68-0.020 1.018l0.002-0.048z"></path>
<path fill="#000" d="M508.264 63.053c2.547-3.931 6.799-6.572 11.683-6.873l0.042-0.002c14.198-1.217 21.953-0.3 28.097 3.596 4.102 9.366 3.746 19.012-0.393 29.633-9.965 0.468-20.024 0.468-31.15 0-0.45-9.721-8.598-16.521-8.279-26.354z"></path>
<path fill="#000" d="M186.952 676.904c-0.787 3.54-2.341 5.526-7.081 4.345-22.346-26.41-40.684-55.949-49.768-90.714 3.48-1.19 7.491-1.878 11.661-1.878 4.905 0 9.589 0.951 13.875 2.678l-0.25-0.089c-0.562 3.746-0.899 7.736-1.873 11.594-3.877 16.371 0.524 30.962 9.871 44.186 6.107 8.654 13.111 16.634 19.724 24.931 1.405 1.686 2.678 3.427 3.839 4.945z"></path>
<path fill="#000" d="M837.18 346.508c0.843-1.573 1.873-3.559 2.903-5.489 1.704 0.45 2.922 0.393 3.427 0.974 4.27 4.926 8.766 9.721 12.55 14.984 15.696 21.859 28.827 45.066 36.693 70.972 0.524 1.723 0.768 3.521 1.236 5.807-3.57 0.501-7.694 0.787-11.885 0.787s-8.315-0.286-12.354-0.839l0.469 0.053c-3.465-4.158-1.142-7.792-0.375-11.239 1.053-4.017 1.658-8.63 1.658-13.383s-0.605-9.366-1.741-13.764l0.084 0.381c-1.902-7.382-5.126-13.83-9.437-19.396l0.090 0.121z"></path>
<path fill="#000" d="M475.672 935.241h31.58c0 9.665 9.572 16.053 7.867 27.010-10.92 8.41-23.638 3.221-35.794 4.832-8.41-9.684-7.399-19.986-3.652-31.843z"></path>
<path fill="#000" d="M814.308 559.067c-8.748 2.322-16.577-0.562-24.35-1.873-1.967-0.318-4.027-2.884-5.188-4.907-4.214-7.324-5.62-24.687-2.903-33.884 4.664-3.933 10.34-2.922 15.584-2.922 8.897 7.212 18.45 31.543 16.858 43.587z"></path>
<path fill="#000" d="M236.964 467.492c7.137 13.523 8.598 28.322 3.633 39.335l-15.771 1.33c-9.853-12.924-14.085-27.217-17.308-43.325 10.733-1.124 20.080-1.18 29.445 2.66z"></path>
<path fill="#000" d="M481.609 17.799c-4.233 1.292-6.706 2.154-9.253 2.791-4.409 0.783-8.081 1.654-11.677 2.704l0.775-0.194c-6.41 2.095-11.583 6.466-14.674 12.135l-0.067 0.134c-1.853 3.029-3.675 5.615-5.645 8.077l0.119-0.154c-10.433-5.62-17.533-13.542-24.968-20.81 0.637-1.18 0.712-1.573 0.955-1.704 14.403-8.099 31.586-12.937 49.885-13.111h0.052c5.919-0.187 9.066 4.738 14.497 10.133z"></path>
<path fill="#000" d="M581.465 981.731c7.493 1.086 19.181 10.321 25.848 20.323-3.841 3.266-8.518 5.671-13.661 6.851l-0.218 0.042c-7.755 2.229-15.621 4.12-23.488 5.901-9.366 2.116-17.945 0.824-25.062-6.2-0.372-0.456-0.682-0.982-0.904-1.552l-0.014-0.040c-0.031-0.281-0.049-0.607-0.049-0.936s0.018-0.656 0.052-0.976l-0.003 0.040c2.081-0.954 4.513-1.75 7.047-2.266l0.221-0.038c13.111-1.255 22.739-7.586 28.546-19.537 0.243-0.487 0.787-0.824 1.686-1.611z"></path>
<path fill="#000" d="M565.037 873.972c2.396-3.586 6.209-6.066 10.619-6.642l0.076-0.008c12.044-1.292 24.088-2.435 36.15-3.559 1.737 0.024 3.416 0.213 5.039 0.554l-0.17-0.030c-1.276 9.181-5.27 17.255-11.133 23.572l0.025-0.027c-5.225 5.994-14.984 7.118-22.271 3.315s-14.984-6.612-17.963-15.228c-0.15-0.54-0.282-1.201-0.367-1.875l-0.008-0.073z"></path>
<path fill="#000" d="M405.974 159.461c4.476-13.261 8.335-24.762 21.803-28.94 2.304-0.712 5.32-1.592 7.23-0.712 9.234 4.27 19.387 7.643 23.601 18.937-2.051 3.748-5.709 6.398-10.022 7.034l-0.074 0.009c-12.535 2.017-27.234 3.34-42.178 3.665l-0.36 0.006z"></path>
<path fill="#000" d="M359.016 953.392c15.734 5.038 31.225 7.905 44.954 15.265-2.21 11.239-6.65 15.34-16.54 16.428-10.452 1.142-19.574-2.341-28.19-7.68-2.32-1.355-3.855-3.833-3.855-6.671 0-0.456 0.040-0.902 0.116-1.336l-0.007 0.046c0.862-5.188 2.173-10.227 3.521-16.053z"></path>
<path fill="#000" d="M668.489 52.714c-1.086 4.776-2.304 10.133-3.484 15.284-9.141 0.73-34.371-6.931-44.205-13.111-0.599-8.223 3.746-14.441 11.913-15.49 9.628-1.236 19.162-0.656 28.097 3.914 3.926 1.676 6.81 5.129 7.666 9.32l0.014 0.083z"></path>
<path fill="#000" d="M300.594 117.167c2.791-14.984 23.395-42.126 35.869-47.52 1.274 4.027 1.873 8.392 3.989 11.857s5.62 5.507 8.804 8.56c-2.079 1.742-3.596 3.221-5.32 4.42-9.946 6.837-19.967 13.561-29.97 20.417-3.877 2.734-7.867 4.738-13.374 2.266z"></path>
<path fill="#000" d="M687.013 953.598c-1.873-9.366-1.873-9.366-12.55-20.323 1.623-1.589 3.352-3.091 5.165-4.489l0.135-0.1c10.564-7.081 21.297-13.879 31.712-21.166 2.018-1.663 4.63-2.671 7.478-2.671 1.256 0 2.465 0.196 3.601 0.559l-0.084-0.023c0.15 1.18 0.918 2.866 0.431 3.971-7.755 16.858-17.739 32.030-32.723 43.418-0.924 0.413-1.996 0.705-3.12 0.82l-0.045 0.004z"></path>
<path fill="#000" d="M491.799 47.974c-7.774 4.326-34.933 10.246-42.257 9.066-5.188-19.050 9.927-32.742 33.716-30.101z"></path>
<path fill="#000" d="M540.107 996.005c-2.716-6.987-5.263-13.58-8.111-20.923 6.182-4.214 14.048-4.458 21.316-6.051 6.95-1.536 13.936-5.057 21.297-2.847 2.94 20.735-11.426 33.079-34.502 29.82z"></path>
<path fill="#000" d="M599.015 818.529l17.757-4.514c6.2 12.681 5.957 24.762 3.502 36.825-9.684 5.77-10.752 5.938-21.241 3.39-5.732-11.239-7.867-22.852-0.019-35.701z"></path>
<path fill="#000" d="M424.087 168.715c3.521 5.566 5.612 12.34 5.612 19.604 0 1.786-0.126 3.543-0.371 5.262l0.023-0.197c-0.918 7.062-3.559 12.493-11.782 13.111-3.577 0.281-7.118 1.217-11.032 1.873-6.069-12.194-5.432-24.032-3.259-36.281 6.051-5.207 13.186-3.933 20.81-3.371z"></path>
<path fill="#000" d="M745.679 446.232c15.303 6.931 43.493 42.875 47.914 58.759-9.16 7.193-17.383 5.62-21.335-4.589-7.099-18.162-14.786-33.576-23.659-48.194l0.77 1.366c-1.405-2.341-2.472-4.888-3.69-7.343z"></path>
<path fill="#000" d="M276.038 578.772c-20.042-16.596-35.139-36.993-46.827-60.764 1.591-1.026 3.437-2.015 5.362-2.858l0.258-0.101c8.111-2.528 12.231-0.88 15.959 6.706 3.259 6.687 5.919 13.673 9.234 20.342 5.094 10.283 10.527 20.398 15.79 30.607 0.787 1.536 1.423 3.165 2.116 4.738z"></path>
<path fill="#000" d="M406.611 837.11l53.795 20.398c-1.536 4.87-3.034 9.684-4.458 14.216-17.289 1.929-43.4-16.015-49.338-34.615z"></path>
<path fill="#000" d="M571.706 859.568c-8.504-4.888-7.755-12.156-7.081-18.862 0.843-8.148 3.989-14.984 13.655-16.334 4.672-0.893 8.588-1.898 12.409-3.111l-0.759 0.208c-0.468 6.968-1.442 12.718-1.105 18.394s2.041 10.92 3.24 16.858c-6.444 3.746-13.58 2.66-20.361 2.847z"></path>
<path fill="#000" d="M617.091 186.059l-53.739-20.061c1.423-4.682 2.734-9.066 4.008-13.355 16.577-3.596 41.676 12.606 49.731 33.416z"></path>
<path fill="#000" d="M451.921 163.469c9.366 5.244 7.961 13.861 6.8 21.615-1.030 6.95-4.776 12.681-12.924 13.898-4.295 0.925-7.92 1.977-11.44 3.246l0.613-0.193c-2.94-6.519 1.274-12.156 0-17.832s-2.248-11.445-3.484-17.739c6.725-2.997 13.898-1.18 20.436-2.997z"></path>
<path fill="#000" d="M370.666 996.623c2.454-5.019 6.575-5.713 10.508-5.358 1.169 0.149 2.521 0.233 3.893 0.233 6.463 0 12.486-1.881 17.553-5.125l-0.13 0.078c2.772-1.742 6.987-1.199 10.246-1.667 6.706 7.942 10.883 15.396 7.493 26.054-3.043-0.012-6.026-0.223-8.948-0.62l0.35 0.039c-14.048-2.866-35.944-10.040-40.965-13.636z"></path>
<path fill="#000" d="M652.174 26.096c0.146 0.385 0.231 0.83 0.231 1.295 0 2.069-1.677 3.746-3.746 3.746-0.141 0-0.28-0.008-0.416-0.023l0.017 0.002c-11.875-0.918-22.477 2.978-32.798 7.961-0.487 0.225-1.217 0-1.873-0.112-8.879-5.77-11.725-12.231-10.733-24.593 2.585-2.585 5.826-1.873 8.71-1.049 13.111 3.746 26.223 7.493 39.335 11.445 0.524 0.15 0.843 0.862 1.274 1.33z"></path>
<path fill="#000" d="M885.187 448.161l12.793-2.491c7.493 22.814 7.961 45.891 11.931 68.761-5.3 0.955-10.096 1.629-14.441-1.873-2.36-5.113-0.412-10.059 1.367-14.46 3.858-9.366 2.454-18.188-1.517-27.010-3.165-7.099-6.238-14.067-10.133-22.927z"></path>
<path fill="#000" d="M138.047 575.363l-12.55 1.742c-6.481-22.477-8.467-44.636-11.8-67.337h14.497c0.478 1.995 0.764 4.292 0.787 6.653v0.016c-0.335 3.332-1.103 6.391-2.253 9.255l0.080-0.227c-3.746 8.972-2.809 17.607 1.068 26.223 2.285 5.094 4.682 10.152 6.95 15.265 0.993 2.173 1.817 4.476 3.221 8.41z"></path>
<path fill="#000" d="M378.757 850.577c4.963-9.028 9.684-11.239 19.387-10.639 6.837 7.268 12.606 14.629 19.611 20.604 6.725 5.62 14.722 9.815 21.84 15.247-20.698-7.006-42.014-12.306-60.838-25.211z"></path>
<path fill="#000" d="M381.549 396.351l-8.335 4.289c-6.725-6.219-12.718-13.111-20.005-18.113s-15.808-8.148-24.762-12.587l10.059-14.984z"></path>
<path fill="#000" d="M677.704 89.22l10.976 5.62c-1.761 4.813-3.203 8.804-4.551 12.493 0.843 6.537 6.051 12.606-0.45 19.78-9.796 0.749-16.034-7.362-24.631-11.426z"></path>
<path fill="#000" d="M364.653 907.65l-18.094 25.23c-4.607 0.375-8.129-1.611-11.445-5.882 4.195-7.081 6.762-14.647 0.805-22.196l2.959-8.86c10.789-0.337 17.383 6.875 25.773 11.707z"></path>
<path fill="#000" d="M653.016 624.121c9.871 14.984 25.324 22.477 42.669 28.771l-10.527 15.528-42.594-40.684c2.828-3.727 5.957-4.945 10.452-3.615z"></path>
<path fill="#000" d="M625.726 183.811c-6.687-7.493-11.969-14.984-18.731-20.604s-14.348-9.366-21.297-14.554c20.417 5.882 40.684 11.969 59.097 23.713-3.371 9.778-10.901 11.351-19.068 11.445z"></path>
<path fill="#000" d="M483.67 190.705c-6.519 0.637-12.943 3.746-19.743 2.004 0.581-9.684 1.124-18.731 1.667-27.984 8.092-2.416 13.111-2.379 20.492 0 2.697 9.965 1.985 17.327-2.416 25.979z"></path>
<path fill="#000" d="M558.425 859.175h-21.054c-2.098-9.234-2.21-17.851 1.985-26.842l20.866-2.94c-0.693 5.882-1.442 10.62-1.723 15.378s-0.075 9.197-0.075 14.404z"></path>
<path fill="#000" d="M610.797 54.118c-1.657 0.307-3.565 0.483-5.514 0.483-0.512 0-1.020-0.012-1.526-0.036l0.071 0.003c-13.748-2.435-27.46-5.057-41.208-7.717-0.712-0.15-1.255-1.142-2.041-1.873 0.674-0.862 1.086-1.873 1.779-2.173 7.411-3.83 16.177-6.077 25.465-6.077 3.171 0 6.281 0.262 9.309 0.765l-0.329-0.045c8.673 1.367 13.729 7.493 13.992 16.671z"></path>
<path fill="#000" d="M411.987 969.294c10.695-1.873 18.319 2.66 26.485 3.877s15.921 2.36 24.931 3.746c-1.199 1.873-1.686 3.746-2.622 3.971-6.329 2.034-14.514 4.102-22.856 5.733l-1.494 0.243c-9.178 1.498-16.296-3.072-21.747-10.115-1.461-1.779-1.704-4.345-2.697-7.455z"></path>
<path fill="#000" d="M374.019 636.015c11.239-1.292 31.093 3.278 51.979 11.8-1.311 1.386-2.21 2.959-3.559 3.633-2.51 1.432-5.419 2.575-8.496 3.274l-0.215 0.041c-3.278 0.581-7.324 1.349-10.002 0-9.366-4.738-18.432-10.358-27.554-15.715-0.712-0.337-1.068-1.461-2.154-3.034z"></path>
<path fill="#000" d="M648.765 387.023c-18.113 1.48-33.978-6.388-50.574-11.782 8.691-5.807 16.858-10.845 27.61-4.046 7.755 4.926 16.577 8.129 22.964 15.827z"></path>
<path fill="#000" d="M512.141 189.169h-17.308v-24.125h15.79c7.568 8.523 7.755 11.594 1.517 24.125z"></path>
<path fill="#000" d="M670.886 204.434c-3.746-4.514-7.23-9.122-11.089-13.467-2.903-3.259-6.35-6.032-9.216-9.366-0.899-1.011-0.73-2.959-1.536-6.8 18.469 12.774 34.315 24.893 47.763 40.665-6.612 1.517-8.542 0.768-25.923-11.032z"></path>
<path fill="#000" d="M529.074 859.494c-6.388 0.393-12.437 0.45-18.525-2.191-4.364-7.043-3.989-13.954 0.618-21.391l16.446-1.761c2.884 4.27 0.506 8.635 0.843 12.793s0.393 7.961 0.618 12.55z"></path>
<path fill="#000" d="M374.993 844.283c-11.126-0.187-40.515-25.118-46.827-37.65 5.47-2.36 8.354 2.734 12.269 4.233 4.612 1.955 8.427 3.893 12.097 6.051l-0.484-0.263c4.008 5.62 7.23 10.508 10.976 14.984s7.942 8.485 11.969 12.643z"></path>
<path fill="#000" d="M477.845 847.394c0.843-3.39 1.873-7.118 2.772-11.239h23.526c-1.555 5.994-3.015 11.576-4.626 17.701-7.436 1.33-14.479 0.824-21.672-6.463z"></path>
<path fill="#000" d="M544.639 173.977c1.33 5.3 0.543 9.366-3.109 13.111h-21.185c1.18-5.882 2.304-11.482 3.559-17.664 7.436-2.135 14.123 0.225 20.735 4.551z"></path>
<path fill="#000" d="M469.715 144.42c-3.746-2.791-7.118-5.47-10.639-7.905s-6.687-4.195-11.239-7.081c15.808 0.112 30.138-0.187 44.392 1.611z"></path>
<path fill="#000" d="M210.798 883.338c-0.622-0.964-0.991-2.142-0.991-3.407 0-0.418 0.040-0.827 0.118-1.222l-0.007 0.040c0.356-5.938 4.252-9.366 10.508-9.366s10.265 3.427 10.62 9.234-3.015 9.684-9.047 10.976c-0.536 0.119-1.153 0.186-1.785 0.186-2.803 0-5.294-1.336-6.873-3.406l-0.015-0.021c-0.906-0.909-1.736-1.894-2.481-2.944l-0.048-0.071z"></path>
<path fill="#000" d="M812.304 139.4c0.413 1.176 0.651 2.533 0.651 3.945 0 1.857-0.413 3.618-1.151 5.196l0.032-0.075c-1.873 4.851-5.188 5.282-9.16 5.188-6.013-0.169-9.946-3.971-9.965-9.815s3.577-10.34 9.59-10.077c3.746 0.169 5.113 1.124 8.448 3.184 0.739 0.629 1.284 1.466 1.546 2.419l0.008 0.034z"></path>
<path fill="#000" d="M574.403 893.453h-42.65l-0.356-1.18c4.536-2.057 8.278-4.057 11.88-6.264l-0.473 0.269c3.559-2.416 6.238-6.238 12.119-5.976z"></path>
<path fill="#000" d="M395.784 830.442c-4.962 4.421-11.542 7.123-18.752 7.123-0.652 0-1.298-0.022-1.939-0.065l0.087 0.005c-4.888-4.776-8.935-9.272-11.613-16.334 11.445 2.098 21.803 4.214 32.217 9.272z"></path>
<path fill="#000" d="M448.512 843.16l1.648-7.081h23.226c-0.693 4.907 0.112 9.459-3.015 13.804-7.568-0.075-14.329-2.697-21.859-6.725z"></path>
<path fill="#000" d="M573.804 186.92h-24.050c1.030-4.926 1.873-9.197 2.978-14.31 4.495 1.049 8.073 1.742 11.557 2.772s6.369 2.248 10.396 3.746c-0.3 2.641-0.581 5.151-0.88 7.792z"></path>
<path fill="#000" d="M649.87 185.965c3.559 4.832 7.006 9.534 10.471 14.216-11.681-0.129-22.709-2.795-32.6-7.471l0.477 0.203c4.835-4.429 11.304-7.143 18.408-7.143 1.144 0 2.271 0.070 3.377 0.207l-0.133-0.013z"></path>
<path fill="#000" d="M660.734 28.963c6.425 1.124 24.556 10.677 31.992 16.858-15.565 6.762-23.095 0.562-31.992-16.858z"></path>
<path fill="#000" d="M330.544 976.45h20.136l13.936 17.514c-2.866 0.169-4.27 0.637-5.414 0.281-5.282-1.517-24.35-13.411-28.659-17.795z"></path>
<path fill="#000" d="M202.2 500.103c-1.467-0.906-2.72-1.795-3.913-2.754l0.074 0.057c-1.573-1.48-3.015-3.109-4.364-4.514-0.693-8.41-0.693-8.41 2.21-14.497 4.383 5.957 5.994 11.182 5.994 21.709z"></path>
<path fill="#000" d="M826.99 545.656c-4.439-7.305-5.244-14.235-6.331-21.672 10.901 4.701 12.437 9.984 6.331 21.672z"></path>
<path fill="#000" d="M522.705 1022.209l8.879-8.392c5.863-1.236 9.366 1.217 13.505 5.169-5.481 2.133-11.825 3.369-18.458 3.369-1.381 0-2.75-0.054-4.105-0.159l0.179 0.011z"></path>
<path fill="#000" d="M556.009 867.585c-6.444 7.399-12.774 7.399-27.91-0.281 10.358-0.543 18.844 0.206 27.91 0.281z"></path>
<path fill="#000" d="M500.022 1.859c-10.639 10.19-12.624 10.34-20.604 2.079 6.313-2.997 12.737-2.416 20.604-2.079z"></path>
<path fill="#000" d="M419.273 833.082c1.169-0.234 2.515-0.37 3.892-0.375h0.004c5.976 1.068 11.95 2.21 18.207 3.39l-1.442 4.458c-8.916 0.45-12.306-0.805-20.66-7.474z"></path>
<path fill="#000" d="M603.68 191.042l-20.923-3.933c0.543-2.173 0.862-3.521 1.274-5.207 7.624 1.199 14.741 2.229 20.361 7.305z"></path>
<path fill="#000" d="M493.129 155.34h-25.792c1.581-3.175 4.804-5.319 8.528-5.319 0.627 0 1.241 0.061 1.834 0.177l-0.060-0.010c5.376 0.824 11.014 1.292 15.303 5.376z"></path>
<path fill="#000" d="M459.844 882.214l-9.834-3.015c5.676-2.004 5.676-2.004 9.834 3.015z"></path>
<path fill="#000" d="M574.946 145.263c-5.169 1.068-9.047 1.18-12.119-4.008 4.531 0.421 8.654 1.857 12.239 4.077l-0.12-0.069z"></path>
<path fill="#000" d="M492.942 155.565l0.693 0.206c0.618 0.506 0 0-0.506-0.431z"></path>
</svg>
