<!-- Generated by IcoMoon.io -->
<svg version="1.1" xmlns="http://www.w3.org/2000/svg" width="1024" height="1024" viewBox="0 0 1024 1024">
<title></title>
<g id="icomoon-ignore">
    <line stroke-width="1" x1="16" y1="0" x2="16" y2="1024" stroke="#449FDB" opacity="0.3"></line>
    <line stroke-width="1" x1="32" y1="0" x2="32" y2="1024" stroke="#449FDB" opacity="1"></line>
    <line stroke-width="1" x1="48" y1="0" x2="48" y2="1024" stroke="#449FDB" opacity="0.3"></line>
    <line stroke-width="1" x1="64" y1="0" x2="64" y2="1024" stroke="#449FDB" opacity="1"></line>
    <line stroke-width="1" x1="80" y1="0" x2="80" y2="1024" stroke="#449FDB" opacity="0.3"></line>
    <line stroke-width="1" x1="96" y1="0" x2="96" y2="1024" stroke="#449FDB" opacity="1"></line>
    <line stroke-width="1" x1="112" y1="0" x2="112" y2="1024" stroke="#449FDB" opacity="0.3"></line>
    <line stroke-width="1" x1="128" y1="0" x2="128" y2="1024" stroke="#449FDB" opacity="1"></line>
    <line stroke-width="1" x1="144" y1="0" x2="144" y2="1024" stroke="#449FDB" opacity="0.3"></line>
    <line stroke-width="1" x1="160" y1="0" x2="160" y2="1024" stroke="#449FDB" opacity="1"></line>
    <line stroke-width="1" x1="176" y1="0" x2="176" y2="1024" stroke="#449FDB" opacity="0.3"></line>
    <line stroke-width="1" x1="192" y1="0" x2="192" y2="1024" stroke="#449FDB" opacity="1"></line>
    <line stroke-width="1" x1="208" y1="0" x2="208" y2="1024" stroke="#449FDB" opacity="0.3"></line>
    <line stroke-width="1" x1="224" y1="0" x2="224" y2="1024" stroke="#449FDB" opacity="1"></line>
    <line stroke-width="1" x1="240" y1="0" x2="240" y2="1024" stroke="#449FDB" opacity="0.3"></line>
    <line stroke-width="1" x1="256" y1="0" x2="256" y2="1024" stroke="#449FDB" opacity="1"></line>
    <line stroke-width="1" x1="272" y1="0" x2="272" y2="1024" stroke="#449FDB" opacity="0.3"></line>
    <line stroke-width="1" x1="288" y1="0" x2="288" y2="1024" stroke="#449FDB" opacity="1"></line>
    <line stroke-width="1" x1="304" y1="0" x2="304" y2="1024" stroke="#449FDB" opacity="0.3"></line>
    <line stroke-width="1" x1="320" y1="0" x2="320" y2="1024" stroke="#449FDB" opacity="1"></line>
    <line stroke-width="1" x1="336" y1="0" x2="336" y2="1024" stroke="#449FDB" opacity="0.3"></line>
    <line stroke-width="1" x1="352" y1="0" x2="352" y2="1024" stroke="#449FDB" opacity="1"></line>
    <line stroke-width="1" x1="368" y1="0" x2="368" y2="1024" stroke="#449FDB" opacity="0.3"></line>
    <line stroke-width="1" x1="384" y1="0" x2="384" y2="1024" stroke="#449FDB" opacity="1"></line>
    <line stroke-width="1" x1="400" y1="0" x2="400" y2="1024" stroke="#449FDB" opacity="0.3"></line>
    <line stroke-width="1" x1="416" y1="0" x2="416" y2="1024" stroke="#449FDB" opacity="1"></line>
    <line stroke-width="1" x1="432" y1="0" x2="432" y2="1024" stroke="#449FDB" opacity="0.3"></line>
    <line stroke-width="1" x1="448" y1="0" x2="448" y2="1024" stroke="#449FDB" opacity="1"></line>
    <line stroke-width="1" x1="464" y1="0" x2="464" y2="1024" stroke="#449FDB" opacity="0.3"></line>
    <line stroke-width="1" x1="480" y1="0" x2="480" y2="1024" stroke="#449FDB" opacity="1"></line>
    <line stroke-width="1" x1="496" y1="0" x2="496" y2="1024" stroke="#449FDB" opacity="0.3"></line>
    <line stroke-width="1" x1="512" y1="0" x2="512" y2="1024" stroke="#449FDB" opacity="1"></line>
    <line stroke-width="1" x1="528" y1="0" x2="528" y2="1024" stroke="#449FDB" opacity="0.3"></line>
    <line stroke-width="1" x1="544" y1="0" x2="544" y2="1024" stroke="#449FDB" opacity="1"></line>
    <line stroke-width="1" x1="560" y1="0" x2="560" y2="1024" stroke="#449FDB" opacity="0.3"></line>
    <line stroke-width="1" x1="576" y1="0" x2="576" y2="1024" stroke="#449FDB" opacity="1"></line>
    <line stroke-width="1" x1="592" y1="0" x2="592" y2="1024" stroke="#449FDB" opacity="0.3"></line>
    <line stroke-width="1" x1="608" y1="0" x2="608" y2="1024" stroke="#449FDB" opacity="1"></line>
    <line stroke-width="1" x1="624" y1="0" x2="624" y2="1024" stroke="#449FDB" opacity="0.3"></line>
    <line stroke-width="1" x1="640" y1="0" x2="640" y2="1024" stroke="#449FDB" opacity="1"></line>
    <line stroke-width="1" x1="656" y1="0" x2="656" y2="1024" stroke="#449FDB" opacity="0.3"></line>
    <line stroke-width="1" x1="672" y1="0" x2="672" y2="1024" stroke="#449FDB" opacity="1"></line>
    <line stroke-width="1" x1="688" y1="0" x2="688" y2="1024" stroke="#449FDB" opacity="0.3"></line>
    <line stroke-width="1" x1="704" y1="0" x2="704" y2="1024" stroke="#449FDB" opacity="1"></line>
    <line stroke-width="1" x1="720" y1="0" x2="720" y2="1024" stroke="#449FDB" opacity="0.3"></line>
    <line stroke-width="1" x1="736" y1="0" x2="736" y2="1024" stroke="#449FDB" opacity="1"></line>
    <line stroke-width="1" x1="752" y1="0" x2="752" y2="1024" stroke="#449FDB" opacity="0.3"></line>
    <line stroke-width="1" x1="768" y1="0" x2="768" y2="1024" stroke="#449FDB" opacity="1"></line>
    <line stroke-width="1" x1="784" y1="0" x2="784" y2="1024" stroke="#449FDB" opacity="0.3"></line>
    <line stroke-width="1" x1="800" y1="0" x2="800" y2="1024" stroke="#449FDB" opacity="1"></line>
    <line stroke-width="1" x1="816" y1="0" x2="816" y2="1024" stroke="#449FDB" opacity="0.3"></line>
    <line stroke-width="1" x1="832" y1="0" x2="832" y2="1024" stroke="#449FDB" opacity="1"></line>
    <line stroke-width="1" x1="848" y1="0" x2="848" y2="1024" stroke="#449FDB" opacity="0.3"></line>
    <line stroke-width="1" x1="864" y1="0" x2="864" y2="1024" stroke="#449FDB" opacity="1"></line>
    <line stroke-width="1" x1="880" y1="0" x2="880" y2="1024" stroke="#449FDB" opacity="0.3"></line>
    <line stroke-width="1" x1="896" y1="0" x2="896" y2="1024" stroke="#449FDB" opacity="1"></line>
    <line stroke-width="1" x1="912" y1="0" x2="912" y2="1024" stroke="#449FDB" opacity="0.3"></line>
    <line stroke-width="1" x1="928" y1="0" x2="928" y2="1024" stroke="#449FDB" opacity="1"></line>
    <line stroke-width="1" x1="944" y1="0" x2="944" y2="1024" stroke="#449FDB" opacity="0.3"></line>
    <line stroke-width="1" x1="960" y1="0" x2="960" y2="1024" stroke="#449FDB" opacity="1"></line>
    <line stroke-width="1" x1="976" y1="0" x2="976" y2="1024" stroke="#449FDB" opacity="0.3"></line>
    <line stroke-width="1" x1="992" y1="0" x2="992" y2="1024" stroke="#449FDB" opacity="1"></line>
    <line stroke-width="1" x1="1008" y1="0" x2="1008" y2="1024" stroke="#449FDB" opacity="0.3"></line>
    <line stroke-width="1" x1="0" y1="16" x2="1024" y2="16" stroke="#449FDB" opacity="0.3"></line>
    <line stroke-width="1" x1="0" y1="32" x2="1024" y2="32" stroke="#449FDB" opacity="1"></line>
    <line stroke-width="1" x1="0" y1="48" x2="1024" y2="48" stroke="#449FDB" opacity="0.3"></line>
    <line stroke-width="1" x1="0" y1="64" x2="1024" y2="64" stroke="#449FDB" opacity="1"></line>
    <line stroke-width="1" x1="0" y1="80" x2="1024" y2="80" stroke="#449FDB" opacity="0.3"></line>
    <line stroke-width="1" x1="0" y1="96" x2="1024" y2="96" stroke="#449FDB" opacity="1"></line>
    <line stroke-width="1" x1="0" y1="112" x2="1024" y2="112" stroke="#449FDB" opacity="0.3"></line>
    <line stroke-width="1" x1="0" y1="128" x2="1024" y2="128" stroke="#449FDB" opacity="1"></line>
    <line stroke-width="1" x1="0" y1="144" x2="1024" y2="144" stroke="#449FDB" opacity="0.3"></line>
    <line stroke-width="1" x1="0" y1="160" x2="1024" y2="160" stroke="#449FDB" opacity="1"></line>
    <line stroke-width="1" x1="0" y1="176" x2="1024" y2="176" stroke="#449FDB" opacity="0.3"></line>
    <line stroke-width="1" x1="0" y1="192" x2="1024" y2="192" stroke="#449FDB" opacity="1"></line>
    <line stroke-width="1" x1="0" y1="208" x2="1024" y2="208" stroke="#449FDB" opacity="0.3"></line>
    <line stroke-width="1" x1="0" y1="224" x2="1024" y2="224" stroke="#449FDB" opacity="1"></line>
    <line stroke-width="1" x1="0" y1="240" x2="1024" y2="240" stroke="#449FDB" opacity="0.3"></line>
    <line stroke-width="1" x1="0" y1="256" x2="1024" y2="256" stroke="#449FDB" opacity="1"></line>
    <line stroke-width="1" x1="0" y1="272" x2="1024" y2="272" stroke="#449FDB" opacity="0.3"></line>
    <line stroke-width="1" x1="0" y1="288" x2="1024" y2="288" stroke="#449FDB" opacity="1"></line>
    <line stroke-width="1" x1="0" y1="304" x2="1024" y2="304" stroke="#449FDB" opacity="0.3"></line>
    <line stroke-width="1" x1="0" y1="320" x2="1024" y2="320" stroke="#449FDB" opacity="1"></line>
    <line stroke-width="1" x1="0" y1="336" x2="1024" y2="336" stroke="#449FDB" opacity="0.3"></line>
    <line stroke-width="1" x1="0" y1="352" x2="1024" y2="352" stroke="#449FDB" opacity="1"></line>
    <line stroke-width="1" x1="0" y1="368" x2="1024" y2="368" stroke="#449FDB" opacity="0.3"></line>
    <line stroke-width="1" x1="0" y1="384" x2="1024" y2="384" stroke="#449FDB" opacity="1"></line>
    <line stroke-width="1" x1="0" y1="400" x2="1024" y2="400" stroke="#449FDB" opacity="0.3"></line>
    <line stroke-width="1" x1="0" y1="416" x2="1024" y2="416" stroke="#449FDB" opacity="1"></line>
    <line stroke-width="1" x1="0" y1="432" x2="1024" y2="432" stroke="#449FDB" opacity="0.3"></line>
    <line stroke-width="1" x1="0" y1="448" x2="1024" y2="448" stroke="#449FDB" opacity="1"></line>
    <line stroke-width="1" x1="0" y1="464" x2="1024" y2="464" stroke="#449FDB" opacity="0.3"></line>
    <line stroke-width="1" x1="0" y1="480" x2="1024" y2="480" stroke="#449FDB" opacity="1"></line>
    <line stroke-width="1" x1="0" y1="496" x2="1024" y2="496" stroke="#449FDB" opacity="0.3"></line>
    <line stroke-width="1" x1="0" y1="512" x2="1024" y2="512" stroke="#449FDB" opacity="1"></line>
    <line stroke-width="1" x1="0" y1="528" x2="1024" y2="528" stroke="#449FDB" opacity="0.3"></line>
    <line stroke-width="1" x1="0" y1="544" x2="1024" y2="544" stroke="#449FDB" opacity="1"></line>
    <line stroke-width="1" x1="0" y1="560" x2="1024" y2="560" stroke="#449FDB" opacity="0.3"></line>
    <line stroke-width="1" x1="0" y1="576" x2="1024" y2="576" stroke="#449FDB" opacity="1"></line>
    <line stroke-width="1" x1="0" y1="592" x2="1024" y2="592" stroke="#449FDB" opacity="0.3"></line>
    <line stroke-width="1" x1="0" y1="608" x2="1024" y2="608" stroke="#449FDB" opacity="1"></line>
    <line stroke-width="1" x1="0" y1="624" x2="1024" y2="624" stroke="#449FDB" opacity="0.3"></line>
    <line stroke-width="1" x1="0" y1="640" x2="1024" y2="640" stroke="#449FDB" opacity="1"></line>
    <line stroke-width="1" x1="0" y1="656" x2="1024" y2="656" stroke="#449FDB" opacity="0.3"></line>
    <line stroke-width="1" x1="0" y1="672" x2="1024" y2="672" stroke="#449FDB" opacity="1"></line>
    <line stroke-width="1" x1="0" y1="688" x2="1024" y2="688" stroke="#449FDB" opacity="0.3"></line>
    <line stroke-width="1" x1="0" y1="704" x2="1024" y2="704" stroke="#449FDB" opacity="1"></line>
    <line stroke-width="1" x1="0" y1="720" x2="1024" y2="720" stroke="#449FDB" opacity="0.3"></line>
    <line stroke-width="1" x1="0" y1="736" x2="1024" y2="736" stroke="#449FDB" opacity="1"></line>
    <line stroke-width="1" x1="0" y1="752" x2="1024" y2="752" stroke="#449FDB" opacity="0.3"></line>
    <line stroke-width="1" x1="0" y1="768" x2="1024" y2="768" stroke="#449FDB" opacity="1"></line>
    <line stroke-width="1" x1="0" y1="784" x2="1024" y2="784" stroke="#449FDB" opacity="0.3"></line>
    <line stroke-width="1" x1="0" y1="800" x2="1024" y2="800" stroke="#449FDB" opacity="1"></line>
    <line stroke-width="1" x1="0" y1="816" x2="1024" y2="816" stroke="#449FDB" opacity="0.3"></line>
    <line stroke-width="1" x1="0" y1="832" x2="1024" y2="832" stroke="#449FDB" opacity="1"></line>
    <line stroke-width="1" x1="0" y1="848" x2="1024" y2="848" stroke="#449FDB" opacity="0.3"></line>
    <line stroke-width="1" x1="0" y1="864" x2="1024" y2="864" stroke="#449FDB" opacity="1"></line>
    <line stroke-width="1" x1="0" y1="880" x2="1024" y2="880" stroke="#449FDB" opacity="0.3"></line>
    <line stroke-width="1" x1="0" y1="896" x2="1024" y2="896" stroke="#449FDB" opacity="1"></line>
    <line stroke-width="1" x1="0" y1="912" x2="1024" y2="912" stroke="#449FDB" opacity="0.3"></line>
    <line stroke-width="1" x1="0" y1="928" x2="1024" y2="928" stroke="#449FDB" opacity="1"></line>
    <line stroke-width="1" x1="0" y1="944" x2="1024" y2="944" stroke="#449FDB" opacity="0.3"></line>
    <line stroke-width="1" x1="0" y1="960" x2="1024" y2="960" stroke="#449FDB" opacity="1"></line>
    <line stroke-width="1" x1="0" y1="976" x2="1024" y2="976" stroke="#449FDB" opacity="0.3"></line>
    <line stroke-width="1" x1="0" y1="992" x2="1024" y2="992" stroke="#449FDB" opacity="1"></line>
    <line stroke-width="1" x1="0" y1="1008" x2="1024" y2="1008" stroke="#449FDB" opacity="0.3"></line>
</g>
<path fill="#000" d="M0.093 510.681c-3.45-279.833 232.437-509.91 510.001-510.546 272.388-0.636 513.905 218.909 513.905 511.726 0.001 0.406 0.002 0.887 0.002 1.367 0 282.017-228.62 510.637-510.637 510.637-0.799 0-1.597-0.002-2.395-0.005h0.123c-293.089 0-516.266-242.88-511-513.179zM582.186 265.532c-19.612 76.813-40.041 156.532-60.38 236.070h-5.267v-416.39h-9.080c0 45.943-0.636 91.885-0.817 137.828s0 93.792 0 140.643v137.738c-25.15-79.628-49.666-158.529-64.102-237.341 5.707-5.655 13.564-9.15 22.237-9.15 0.738 0 1.47 0.025 2.194 0.075l-0.098-0.005c0.527 0.041 1.141 0.064 1.761 0.064 8.845 0 16.579-4.755 20.786-11.847l0.061-0.112c-1.726-49.666 4.722-103.235 8.081-156.896-181.319-9.715-394.509 142.187-415.755 388.97-22.79 261.129 185.405 466.238 426.741 468.326 249.598 2.27 453.344-212.009 434.731-461.607-19.703-254.773-244.059-406.403-417.934-395.689 8.172 54.477 7.899 109.591 9.987 161.072 15.799 11.804 31.778 3.541 46.941 17.796z"></path>
<path fill="#000" d="M179.234 615.641c-8.081-9.080-5.992-14.709-5.357-23.698 30.326-12.258 63.557-24.424 73.908-63.557h162.161z"></path>
<path fill="#000" d="M616.053 845.446c-4.332 3.471-9.893 5.571-15.945 5.571-3.174 0-6.214-0.578-9.020-1.634l0.176 0.058c-10.895-30.598-23.789-63.557-62.377-72.636v-162.979c31.053 82.352 59.017 156.623 87.165 231.621z"></path>
<path fill="#000" d="M622.68 492.159l223.086-83.442c3.556 3.776 5.741 8.879 5.741 14.49 0 4.38-1.331 8.449-3.61 11.825l0.048-0.075c-32.959 8.081-60.743 26.513-72.636 61.468h-151.266z"></path>
<path fill="#000" d="M288.642 796.598c-60.924 0-77.176-24.969-54.477-79.356 9.205-9.185 21.365-15.411 34.931-17.129l0.298-0.031c18.767 0.894 34.956 11.155 44.081 26.18l0.136 0.242c6.719 44.036 6.719 44.036-24.969 70.094z"></path>
<path fill="#000" d="M222.815 507.322c-3.178 29.145-16.978 48.122-47.94 52.389-18.773-1.399-34.919-11.523-44.535-26.288l-0.137-0.224c-2.935-7.302-4.638-15.769-4.638-24.632 0-6.786 0.998-13.338 2.855-19.52l-0.124 0.48c14.073-28.056 37.499-31.507 63.557-24.878 16.701 7.955 28.559 23.7 30.934 42.405l0.028 0.27z"></path>
<path fill="#000" d="M849.852 464.103c19.427 1.704 35.956 12.722 45.25 28.509l0.148 0.273c2.243 6.418 3.539 13.817 3.539 21.518s-1.296 15.1-3.681 21.99l0.142-0.472c-14.164 26.422-36.318 29.509-61.741 23.971-16.956-7.578-29.089-23.239-31.568-41.948l-0.030-0.273c1.816-27.965 15.345-47.395 47.94-53.57z"></path>
<path fill="#000" d="M792.288 305.845c-43.128 25.695-48.031 25.059-81.716-9.624-2.491-6.823-3.932-14.701-3.932-22.915 0-7.515 1.206-14.748 3.435-21.516l-0.139 0.486c24.787-27.239 47.304-33.595 69.64-19.975s25.695 34.503 12.712 73.545z"></path>
<path fill="#000" d="M612.421 528.115h162.161c10.805 37.953 38.952 58.018 75.724 65.010 0.908 8.263 3.178 14.255-4.903 22.245z"></path>
<path fill="#000" d="M495.929 774.171c-34.191 10.034-59.604 38.919-64.414 74.35l-0.052 0.466c-2.555 1.195-5.549 1.891-8.705 1.891-5.43 0-10.377-2.063-14.102-5.449l0.017 0.015 87.255-233.164z"></path>
<path fill="#000" d="M250.689 496.88c-13.074-37.68-37.68-59.381-72.636-64.465-2.844-3.054-4.59-7.164-4.59-11.682 0-2.543 0.554-4.959 1.547-7.13l-0.044 0.107c5.357-6.537 130.565 37.59 234.163 83.169h-158.439z"></path>
<path fill="#000" d="M417.209 443.13c-24.696-2.179-44.399-17.16-66.19-26.603-49.575-21.337-98.514-44.127-147.362-66.463 0-11.713 7.264-16.344 17.069-21.973 15.428 11.238 34.758 17.979 55.663 17.979 13.968 0 27.233-3.009 39.181-8.416l-0.599 0.242c32.777 35.773 72.636 65.373 101.056 106.413z"></path>
<path fill="#000" d="M607.245 581.23c24.787 2.088 44.399 17.251 66.281 26.603 49.575 20.974 98.332 43.945 147.362 66.099-0.229 9.574-6.377 17.656-14.915 20.742l-0.158 0.050c-43.309-19.703-50.029-20.43-96.97-9.080-32.141-35.138-72.636-64.738-100.42-105.869z"></path>
<path fill="#000" d="M507.642 800.865c29.69 4.54 47.486 18.159 52.299 47.395-0.793 20.043-12.085 37.279-28.5 46.434l-0.282 0.145c-6.467 2.308-13.928 3.642-21.7 3.642s-15.233-1.334-22.165-3.786l0.465 0.143c-41.221-41.221-35.229-70.639 19.885-93.974z"></path>
<path fill="#000" d="M581.187 416.98c5.539-31.597 23.516-58.018 35.773-86.801 18.159-42.764 38.679-84.622 58.018-127.115 11.531-0.545 14.8 9.080 22.881 15.254-12.047 15.773-19.303 35.765-19.303 57.453 0 14.013 3.029 27.319 8.468 39.297l-0.243-0.597c-36.318 32.505-65.645 72.636-106.776 100.874z"></path>
<path fill="#000" d="M443.358 607.016c-5.539 31.597-23.516 58.109-35.773 86.892-17.614 41.403-37.136 81.716-55.93 122.847-0.822 1.373-1.722 2.561-2.735 3.644l0.011-0.012c-10.895 0.636-14.255-8.535-22.699-15.617 22.608-29.145 24.515-60.561 11.985-95.971 35.682-32.232 65.282-72.274 106.776-100.33z"></path>
<path fill="#000" d="M324.506 267.893c-15.708 43.491-27.965 53.57-59.108 50.029-24.787-3.178-39.042-19.885-39.223-46.034 0-24.515 11.985-40.949 34.049-46.034 30.417-7.264 46.669 3.269 64.284 42.039z"></path>
<path fill="#000" d="M776.489 794.964c-51.481 8.353-58.291 4.722-75.906-39.496 1.349-19.169 11.792-35.639 27-45.257l0.239-0.141c24.605-7.264 50.391-9.080 64.829 19.067 12.258 23.426 8.263 46.578-16.162 65.827z"></path>
<path fill="#000" d="M444.448 415.981c-39.859-27.239-68.551-66.826-105.142-99.058l11.622-42.855c-0.999-20.701-10.26-38.135-16.616-53.932 0-9.080 4.177-13.437 14.527-18.159 30.689 72.636 69.822 140.37 94.428 215.277z"></path>
<path fill="#000" d="M608.426 444.219c27.239-40.041 67.007-68.461 99.149-105.051l45.398 12.53c21.428-1.362 36.318-13.074 52.026-17.433 8.444 0 12.712 4.086 18.159 14.8-72.092 30.78-140.643 69.277-215.64 93.974z"></path>
<path fill="#000" d="M416.211 579.868c-27.784 39.768-66.644 68.823-99.421 104.96l-44.853-12.803c-21.882 1.090-36.318 13.165-52.389 17.433-0.133 0.004-0.289 0.006-0.446 0.006-6.715 0-12.489-4.027-15.039-9.797l-0.041-0.105c-0.999-7.536 164.613-84.531 213.734-98.332z"></path>
<path fill="#000" d="M580.007 608.469c39.859 27.239 68.642 66.735 105.051 98.967l-11.713 43.673c2.143 19.123 8.113 36.475 17.13 51.822l-0.333-0.613c0.006 0.184 0.010 0.4 0.010 0.617 0 9.112-6.128 16.791-14.488 19.143l-0.14 0.034c-30.78-71.911-69.549-140.28-94.337-215.186z"></path>
<path fill="#000" d="M443.267 417.071l3.813 2.814-2.633-3.904z"></path>
<path fill="#000" d="M608.426 579.687l-3.995-2.542 2.814 3.723z"></path>
<path fill="#000" d="M444.993 608.469l2.633-3.995-3.813 2.814z"></path>
<path fill="#000" d="M581.187 606.925l-3.813-2.814 2.633 3.995z"></path>
<path fill="#000" d="M607.063 443.039l-2.633 3.813 3.904-2.633z"></path>
<path fill="#000" d="M416.029 444.309l3.995 2.633-2.814-3.813z"></path>
<path fill="#000" d="M579.916 415.8l-2.542 3.995 3.723-2.814z"></path>
<path fill="#000" d="M417.754 581.23l2.724-3.904-3.904 2.724z"></path>
</svg>
