<!-- Generated by IcoMoon.io -->
<svg version="1.1" xmlns="http://www.w3.org/2000/svg" width="1024" height="1024" viewBox="0 0 1024 1024">
<title></title>
<g id="icomoon-ignore">
    <line stroke-width="1" x1="16" y1="0" x2="16" y2="1024" stroke="#449FDB" opacity="0.3"></line>
    <line stroke-width="1" x1="32" y1="0" x2="32" y2="1024" stroke="#449FDB" opacity="1"></line>
    <line stroke-width="1" x1="48" y1="0" x2="48" y2="1024" stroke="#449FDB" opacity="0.3"></line>
    <line stroke-width="1" x1="64" y1="0" x2="64" y2="1024" stroke="#449FDB" opacity="1"></line>
    <line stroke-width="1" x1="80" y1="0" x2="80" y2="1024" stroke="#449FDB" opacity="0.3"></line>
    <line stroke-width="1" x1="96" y1="0" x2="96" y2="1024" stroke="#449FDB" opacity="1"></line>
    <line stroke-width="1" x1="112" y1="0" x2="112" y2="1024" stroke="#449FDB" opacity="0.3"></line>
    <line stroke-width="1" x1="128" y1="0" x2="128" y2="1024" stroke="#449FDB" opacity="1"></line>
    <line stroke-width="1" x1="144" y1="0" x2="144" y2="1024" stroke="#449FDB" opacity="0.3"></line>
    <line stroke-width="1" x1="160" y1="0" x2="160" y2="1024" stroke="#449FDB" opacity="1"></line>
    <line stroke-width="1" x1="176" y1="0" x2="176" y2="1024" stroke="#449FDB" opacity="0.3"></line>
    <line stroke-width="1" x1="192" y1="0" x2="192" y2="1024" stroke="#449FDB" opacity="1"></line>
    <line stroke-width="1" x1="208" y1="0" x2="208" y2="1024" stroke="#449FDB" opacity="0.3"></line>
    <line stroke-width="1" x1="224" y1="0" x2="224" y2="1024" stroke="#449FDB" opacity="1"></line>
    <line stroke-width="1" x1="240" y1="0" x2="240" y2="1024" stroke="#449FDB" opacity="0.3"></line>
    <line stroke-width="1" x1="256" y1="0" x2="256" y2="1024" stroke="#449FDB" opacity="1"></line>
    <line stroke-width="1" x1="272" y1="0" x2="272" y2="1024" stroke="#449FDB" opacity="0.3"></line>
    <line stroke-width="1" x1="288" y1="0" x2="288" y2="1024" stroke="#449FDB" opacity="1"></line>
    <line stroke-width="1" x1="304" y1="0" x2="304" y2="1024" stroke="#449FDB" opacity="0.3"></line>
    <line stroke-width="1" x1="320" y1="0" x2="320" y2="1024" stroke="#449FDB" opacity="1"></line>
    <line stroke-width="1" x1="336" y1="0" x2="336" y2="1024" stroke="#449FDB" opacity="0.3"></line>
    <line stroke-width="1" x1="352" y1="0" x2="352" y2="1024" stroke="#449FDB" opacity="1"></line>
    <line stroke-width="1" x1="368" y1="0" x2="368" y2="1024" stroke="#449FDB" opacity="0.3"></line>
    <line stroke-width="1" x1="384" y1="0" x2="384" y2="1024" stroke="#449FDB" opacity="1"></line>
    <line stroke-width="1" x1="400" y1="0" x2="400" y2="1024" stroke="#449FDB" opacity="0.3"></line>
    <line stroke-width="1" x1="416" y1="0" x2="416" y2="1024" stroke="#449FDB" opacity="1"></line>
    <line stroke-width="1" x1="432" y1="0" x2="432" y2="1024" stroke="#449FDB" opacity="0.3"></line>
    <line stroke-width="1" x1="448" y1="0" x2="448" y2="1024" stroke="#449FDB" opacity="1"></line>
    <line stroke-width="1" x1="464" y1="0" x2="464" y2="1024" stroke="#449FDB" opacity="0.3"></line>
    <line stroke-width="1" x1="480" y1="0" x2="480" y2="1024" stroke="#449FDB" opacity="1"></line>
    <line stroke-width="1" x1="496" y1="0" x2="496" y2="1024" stroke="#449FDB" opacity="0.3"></line>
    <line stroke-width="1" x1="512" y1="0" x2="512" y2="1024" stroke="#449FDB" opacity="1"></line>
    <line stroke-width="1" x1="528" y1="0" x2="528" y2="1024" stroke="#449FDB" opacity="0.3"></line>
    <line stroke-width="1" x1="544" y1="0" x2="544" y2="1024" stroke="#449FDB" opacity="1"></line>
    <line stroke-width="1" x1="560" y1="0" x2="560" y2="1024" stroke="#449FDB" opacity="0.3"></line>
    <line stroke-width="1" x1="576" y1="0" x2="576" y2="1024" stroke="#449FDB" opacity="1"></line>
    <line stroke-width="1" x1="592" y1="0" x2="592" y2="1024" stroke="#449FDB" opacity="0.3"></line>
    <line stroke-width="1" x1="608" y1="0" x2="608" y2="1024" stroke="#449FDB" opacity="1"></line>
    <line stroke-width="1" x1="624" y1="0" x2="624" y2="1024" stroke="#449FDB" opacity="0.3"></line>
    <line stroke-width="1" x1="640" y1="0" x2="640" y2="1024" stroke="#449FDB" opacity="1"></line>
    <line stroke-width="1" x1="656" y1="0" x2="656" y2="1024" stroke="#449FDB" opacity="0.3"></line>
    <line stroke-width="1" x1="672" y1="0" x2="672" y2="1024" stroke="#449FDB" opacity="1"></line>
    <line stroke-width="1" x1="688" y1="0" x2="688" y2="1024" stroke="#449FDB" opacity="0.3"></line>
    <line stroke-width="1" x1="704" y1="0" x2="704" y2="1024" stroke="#449FDB" opacity="1"></line>
    <line stroke-width="1" x1="720" y1="0" x2="720" y2="1024" stroke="#449FDB" opacity="0.3"></line>
    <line stroke-width="1" x1="736" y1="0" x2="736" y2="1024" stroke="#449FDB" opacity="1"></line>
    <line stroke-width="1" x1="752" y1="0" x2="752" y2="1024" stroke="#449FDB" opacity="0.3"></line>
    <line stroke-width="1" x1="768" y1="0" x2="768" y2="1024" stroke="#449FDB" opacity="1"></line>
    <line stroke-width="1" x1="784" y1="0" x2="784" y2="1024" stroke="#449FDB" opacity="0.3"></line>
    <line stroke-width="1" x1="800" y1="0" x2="800" y2="1024" stroke="#449FDB" opacity="1"></line>
    <line stroke-width="1" x1="816" y1="0" x2="816" y2="1024" stroke="#449FDB" opacity="0.3"></line>
    <line stroke-width="1" x1="832" y1="0" x2="832" y2="1024" stroke="#449FDB" opacity="1"></line>
    <line stroke-width="1" x1="848" y1="0" x2="848" y2="1024" stroke="#449FDB" opacity="0.3"></line>
    <line stroke-width="1" x1="864" y1="0" x2="864" y2="1024" stroke="#449FDB" opacity="1"></line>
    <line stroke-width="1" x1="880" y1="0" x2="880" y2="1024" stroke="#449FDB" opacity="0.3"></line>
    <line stroke-width="1" x1="896" y1="0" x2="896" y2="1024" stroke="#449FDB" opacity="1"></line>
    <line stroke-width="1" x1="912" y1="0" x2="912" y2="1024" stroke="#449FDB" opacity="0.3"></line>
    <line stroke-width="1" x1="928" y1="0" x2="928" y2="1024" stroke="#449FDB" opacity="1"></line>
    <line stroke-width="1" x1="944" y1="0" x2="944" y2="1024" stroke="#449FDB" opacity="0.3"></line>
    <line stroke-width="1" x1="960" y1="0" x2="960" y2="1024" stroke="#449FDB" opacity="1"></line>
    <line stroke-width="1" x1="976" y1="0" x2="976" y2="1024" stroke="#449FDB" opacity="0.3"></line>
    <line stroke-width="1" x1="992" y1="0" x2="992" y2="1024" stroke="#449FDB" opacity="1"></line>
    <line stroke-width="1" x1="1008" y1="0" x2="1008" y2="1024" stroke="#449FDB" opacity="0.3"></line>
    <line stroke-width="1" x1="0" y1="16" x2="1024" y2="16" stroke="#449FDB" opacity="0.3"></line>
    <line stroke-width="1" x1="0" y1="32" x2="1024" y2="32" stroke="#449FDB" opacity="1"></line>
    <line stroke-width="1" x1="0" y1="48" x2="1024" y2="48" stroke="#449FDB" opacity="0.3"></line>
    <line stroke-width="1" x1="0" y1="64" x2="1024" y2="64" stroke="#449FDB" opacity="1"></line>
    <line stroke-width="1" x1="0" y1="80" x2="1024" y2="80" stroke="#449FDB" opacity="0.3"></line>
    <line stroke-width="1" x1="0" y1="96" x2="1024" y2="96" stroke="#449FDB" opacity="1"></line>
    <line stroke-width="1" x1="0" y1="112" x2="1024" y2="112" stroke="#449FDB" opacity="0.3"></line>
    <line stroke-width="1" x1="0" y1="128" x2="1024" y2="128" stroke="#449FDB" opacity="1"></line>
    <line stroke-width="1" x1="0" y1="144" x2="1024" y2="144" stroke="#449FDB" opacity="0.3"></line>
    <line stroke-width="1" x1="0" y1="160" x2="1024" y2="160" stroke="#449FDB" opacity="1"></line>
    <line stroke-width="1" x1="0" y1="176" x2="1024" y2="176" stroke="#449FDB" opacity="0.3"></line>
    <line stroke-width="1" x1="0" y1="192" x2="1024" y2="192" stroke="#449FDB" opacity="1"></line>
    <line stroke-width="1" x1="0" y1="208" x2="1024" y2="208" stroke="#449FDB" opacity="0.3"></line>
    <line stroke-width="1" x1="0" y1="224" x2="1024" y2="224" stroke="#449FDB" opacity="1"></line>
    <line stroke-width="1" x1="0" y1="240" x2="1024" y2="240" stroke="#449FDB" opacity="0.3"></line>
    <line stroke-width="1" x1="0" y1="256" x2="1024" y2="256" stroke="#449FDB" opacity="1"></line>
    <line stroke-width="1" x1="0" y1="272" x2="1024" y2="272" stroke="#449FDB" opacity="0.3"></line>
    <line stroke-width="1" x1="0" y1="288" x2="1024" y2="288" stroke="#449FDB" opacity="1"></line>
    <line stroke-width="1" x1="0" y1="304" x2="1024" y2="304" stroke="#449FDB" opacity="0.3"></line>
    <line stroke-width="1" x1="0" y1="320" x2="1024" y2="320" stroke="#449FDB" opacity="1"></line>
    <line stroke-width="1" x1="0" y1="336" x2="1024" y2="336" stroke="#449FDB" opacity="0.3"></line>
    <line stroke-width="1" x1="0" y1="352" x2="1024" y2="352" stroke="#449FDB" opacity="1"></line>
    <line stroke-width="1" x1="0" y1="368" x2="1024" y2="368" stroke="#449FDB" opacity="0.3"></line>
    <line stroke-width="1" x1="0" y1="384" x2="1024" y2="384" stroke="#449FDB" opacity="1"></line>
    <line stroke-width="1" x1="0" y1="400" x2="1024" y2="400" stroke="#449FDB" opacity="0.3"></line>
    <line stroke-width="1" x1="0" y1="416" x2="1024" y2="416" stroke="#449FDB" opacity="1"></line>
    <line stroke-width="1" x1="0" y1="432" x2="1024" y2="432" stroke="#449FDB" opacity="0.3"></line>
    <line stroke-width="1" x1="0" y1="448" x2="1024" y2="448" stroke="#449FDB" opacity="1"></line>
    <line stroke-width="1" x1="0" y1="464" x2="1024" y2="464" stroke="#449FDB" opacity="0.3"></line>
    <line stroke-width="1" x1="0" y1="480" x2="1024" y2="480" stroke="#449FDB" opacity="1"></line>
    <line stroke-width="1" x1="0" y1="496" x2="1024" y2="496" stroke="#449FDB" opacity="0.3"></line>
    <line stroke-width="1" x1="0" y1="512" x2="1024" y2="512" stroke="#449FDB" opacity="1"></line>
    <line stroke-width="1" x1="0" y1="528" x2="1024" y2="528" stroke="#449FDB" opacity="0.3"></line>
    <line stroke-width="1" x1="0" y1="544" x2="1024" y2="544" stroke="#449FDB" opacity="1"></line>
    <line stroke-width="1" x1="0" y1="560" x2="1024" y2="560" stroke="#449FDB" opacity="0.3"></line>
    <line stroke-width="1" x1="0" y1="576" x2="1024" y2="576" stroke="#449FDB" opacity="1"></line>
    <line stroke-width="1" x1="0" y1="592" x2="1024" y2="592" stroke="#449FDB" opacity="0.3"></line>
    <line stroke-width="1" x1="0" y1="608" x2="1024" y2="608" stroke="#449FDB" opacity="1"></line>
    <line stroke-width="1" x1="0" y1="624" x2="1024" y2="624" stroke="#449FDB" opacity="0.3"></line>
    <line stroke-width="1" x1="0" y1="640" x2="1024" y2="640" stroke="#449FDB" opacity="1"></line>
    <line stroke-width="1" x1="0" y1="656" x2="1024" y2="656" stroke="#449FDB" opacity="0.3"></line>
    <line stroke-width="1" x1="0" y1="672" x2="1024" y2="672" stroke="#449FDB" opacity="1"></line>
    <line stroke-width="1" x1="0" y1="688" x2="1024" y2="688" stroke="#449FDB" opacity="0.3"></line>
    <line stroke-width="1" x1="0" y1="704" x2="1024" y2="704" stroke="#449FDB" opacity="1"></line>
    <line stroke-width="1" x1="0" y1="720" x2="1024" y2="720" stroke="#449FDB" opacity="0.3"></line>
    <line stroke-width="1" x1="0" y1="736" x2="1024" y2="736" stroke="#449FDB" opacity="1"></line>
    <line stroke-width="1" x1="0" y1="752" x2="1024" y2="752" stroke="#449FDB" opacity="0.3"></line>
    <line stroke-width="1" x1="0" y1="768" x2="1024" y2="768" stroke="#449FDB" opacity="1"></line>
    <line stroke-width="1" x1="0" y1="784" x2="1024" y2="784" stroke="#449FDB" opacity="0.3"></line>
    <line stroke-width="1" x1="0" y1="800" x2="1024" y2="800" stroke="#449FDB" opacity="1"></line>
    <line stroke-width="1" x1="0" y1="816" x2="1024" y2="816" stroke="#449FDB" opacity="0.3"></line>
    <line stroke-width="1" x1="0" y1="832" x2="1024" y2="832" stroke="#449FDB" opacity="1"></line>
    <line stroke-width="1" x1="0" y1="848" x2="1024" y2="848" stroke="#449FDB" opacity="0.3"></line>
    <line stroke-width="1" x1="0" y1="864" x2="1024" y2="864" stroke="#449FDB" opacity="1"></line>
    <line stroke-width="1" x1="0" y1="880" x2="1024" y2="880" stroke="#449FDB" opacity="0.3"></line>
    <line stroke-width="1" x1="0" y1="896" x2="1024" y2="896" stroke="#449FDB" opacity="1"></line>
    <line stroke-width="1" x1="0" y1="912" x2="1024" y2="912" stroke="#449FDB" opacity="0.3"></line>
    <line stroke-width="1" x1="0" y1="928" x2="1024" y2="928" stroke="#449FDB" opacity="1"></line>
    <line stroke-width="1" x1="0" y1="944" x2="1024" y2="944" stroke="#449FDB" opacity="0.3"></line>
    <line stroke-width="1" x1="0" y1="960" x2="1024" y2="960" stroke="#449FDB" opacity="1"></line>
    <line stroke-width="1" x1="0" y1="976" x2="1024" y2="976" stroke="#449FDB" opacity="0.3"></line>
    <line stroke-width="1" x1="0" y1="992" x2="1024" y2="992" stroke="#449FDB" opacity="1"></line>
    <line stroke-width="1" x1="0" y1="1008" x2="1024" y2="1008" stroke="#449FDB" opacity="0.3"></line>
</g>
<path fill="#000" d="M746.471 765.266l63.461 67.283 47.996 21.865-48.974-5.244-149.676 58.306 18.043 66.128-41.419-63.994h-244.69l-42.219 62.928 20.709-64.972-155.187-55.017-49.24 7.199 41.952-20.798 71.816-73.949-185.851 99.636 227.447 159.364h383.877l226.291-163.097-184.34-95.636z"></path>
<path fill="#000" d="M776.334 74.038c-13.777-7.288-25.42-11.821-35.552-19.021-10.471-7.719-19.654-15.323-28.395-23.399l0.22 0.201v-31.819c-21.243 7.999-40.085 15.288-59.017 22.309-6.399 2.4-16.087 7.999-19.109 5.6-22.043-17.243-50.307-1.244-73.682-16.176-9.826-6.173-21.772-9.835-34.573-9.835-4.913 0-9.699 0.539-14.304 1.562l0.437-0.081c-16.976 5.333-37.419 0.711-49.151 8.888-22.22 15.11-50.040-3.377-69.061 16.265-27.053-8.241-49.878-17.295-71.788-27.938l2.905 1.273c-2.133-0.978-5.422 0.711-9.777 1.511v30.842c-13.243 4.266-16.176 19.554-32.175 22.043-11.288 1.689-21.243 12.888-33.419 20.976 4.533 27.998 8.888 55.728 13.599 83.459l6.044-5.422c1.067 5.688 2.222 11.288 4.177 21.42 4.622-13.51 6.399-18.665 11.732-34.041 0.978 21.331 1.955 32.619 1.955 43.818 0 121.323 0 242.646 0 364.412 0 28.709 8.888 55.462 14.221 83.015 7.466 36.886 15.999 73.505 25.064 114.568 9.611 12.371 23.206 21.247 38.836 24.714l0.45 0.084-23.909 3.733v52.351h87.548v6.488l-84.704 3.111 13.688 32.975h307.439l8.355-34.575s-26.664 0.8-40.263 0c-11.377-0.889-24.087 4.266-43.196-8.888h94.658l-0.533-51.107-24.176-4.533c13.332-7.022 26.664-14.043 48.351-79.993 0.853-4.674 2.272-8.847 4.211-12.713l-0.123 0.27c1.511-4.888 3.022-10.044 4.711-15.465-1.511-17.776-2.044-30.664-1.867-39.819-7.789 22.476-15.936 51.809-22.558 81.714l-1.085 5.834c-21.687 23.376-56.262 10.577-82.393 26.664-6.577-9.955-19.198-20.354-19.198-30.931-0.622-35.552-22.931-67.372-18.754-103.547-10.221-24.709-35.552-30.397-55.373-32.175-1.899-0.21-4.101-0.329-6.33-0.329-21.981 0-41.249 11.614-52.002 29.041l-0.151 0.263c-3.377 22.309-5.333 46.485-11.11 69.594s-15.199 43.73-23.109 65.861c-12.088-2.666-20.532-5.244-29.153-6.222-11.199-1.155-22.22 1.778-32.442-8.355-5.6-5.511-17.776-4.266-25.331-5.688-9.51-36.53-17.776-68.616-26.664-100.613-6.933-25.776-15.021-50.84-14.754-78.304 1.067-97.769 0.444-195.539 0.444-292.862v-38.219l28.62 42.752c16.444-29.083 26.134-63.865 26.134-100.911 0-0.364-0.001-0.728-0.003-1.092v0.056l25.953-12.443c-18.754 0-27.198 0-35.552 3.644 3.466-6.577 6.577-11.466 10.488-12.088 3.753-0.319 8.121-0.501 12.532-0.501s8.779 0.182 13.098 0.539l-0.566-0.038c2.311-2.933 4.888-8.888 6.844-8.888 23.82 2.4 49.24-7.999 71.105 8.888 42.93-4.266 86.126 6.044 129.5-6.222 20.798-5.866 45.063 0.8 67.727 2.044 0 0 0 2.755 0 4.177 3.74-0.319 8.092-0.502 12.488-0.502s8.748 0.182 13.051 0.539l-0.564-0.038c3.911 0.622 7.022 5.511 11.199 8.888 7.555 0.533 15.732 0.533 25.687 0.533-14.754 8.266-14.754 8.266-25.687-0.533-12.532-0.622-24.353-0.622-36.175-0.622 1.955 17.065 17.776 4.177 23.998 10.755 4.977 62.928 7.733 73.505 26.664 97.769 8.888-15.465 16.354-30.042 24.531-44.885 0.287-0.132 0.624-0.208 0.978-0.208s0.69 0.077 0.993 0.214l-0.015-0.006c1.155 0.8 2.666 2.133 2.666 3.2 0 125.678 0 251.445-13.688 462.181-0.711 4-1.422 7.377-2.044 10.577 11.821-18.665 0-38.841 14.399-56.884 8.888-10.844 3.022-32.975 8.888-50.662s1.422-40.974 1.422-61.684q0-159.986 0-319.527c0-11.199 0.978-22.309 1.867-39.908 5.777 12.266 8.888 17.776 10.666 22.487 14.754-5.244 16.443-17.065 13.865-29.153s6.311-21.331 8.888-31.997c0.591-5.25 0.928-11.337 0.928-17.502 0-5.542-0.272-11.021-0.804-16.424l0.054 0.684z"></path>
<path fill="#000" d="M713.318 680.118l-4.089 12.443c-1.244 7.733 1.511 8.088 6.755-17.776v0c-0.956 1.518-1.851 3.273-2.587 5.109l-0.079 0.224z"></path>
<path fill="#000" d="M567.908 736.202l10.666 28.175v0.533l2.578 6.755-27.464-9.955c-7.91-5.6-15.465-11.643-23.376-17.776z"></path>
<path fill="#000" d="M539.022 644.476l22.398 57.684-16.71 13.954-17.776-17.243c4.089-19.554 12.088-54.395 12.088-54.395z"></path>
<path fill="#000" d="M531.289 785.441c-5.511 13.954-9.777 24.62-17.776 43.818l-16.443-43.818z"></path>
<path fill="#000" d="M486.76 633.811c6.399 27.909 10.399 45.418 14.488 63.55-7.11 4.444-14.31 8.888-23.020 14.31l-10.755-8.888c5.6-20.176 11.288-40.352 19.287-68.972z"></path>
<path fill="#000" d="M458.585 741.535h42.485l-47.285 35.552-7.466-6.133c4-9.333 7.999-18.932 12.266-29.42z"></path>
<path fill="#000" d="M315.397 143.543l-0.533-5.866 26.22-3.466c0 2.044 0 4.089 0 4.622-7.255 2.987-15.677 4.721-24.504 4.721-0.416 0-0.831-0.004-1.245-0.012l0.062 0.001z"></path>
<path fill="#000" d="M716.162 624.834c1.067-2.844 2.133-5.688 3.377-8.888 4-9.066-3.111-22.309-3.377 8.888z"></path>
<path fill="#000" d="M650.035 215.892c1.511 16.887-1.689 36.175 5.511 50.129 8.888 16.354 3.377 31.375 4.8 46.751 1.689 17.776 0 35.552 0 53.329v115.546c0 29.509 1.511 59.106 0 88.881-1.867 26.664-7.466 53.329-11.288 78.926-8.444-26.664-11.199-316.327 0.978-433.561z"></path>
<path fill="#000" d="M385.258 189.761c0 29.153 0.889 58.306 0 87.459-2.4 63.994 13.777 126.922 9.777 191.272-2.044 34.397-13.421 67.372-10.221 102.658 0.86 13.728 1.35 29.77 1.35 45.927 0 20.81-0.813 41.43-2.408 61.831l0.17-2.7c-9.599-28.798-11.999-396.853 1.333-486.446z"></path>
<path fill="#000" d="M357.082 261.221v348.058c-9.421-31.553-11.643-265.487 0-348.058z"></path>
<path fill="#000" d="M679.81 604.835v-347.88c9.688 30.753 11.91 263.532 0 347.88z"></path>
<path fill="#000" d="M651.901 126.3v8.888h-52.084c16.71-11.91 34.753-7.466 52.084-8.888z"></path>
<path fill="#000" d="M378.058 127.367h43.107c-26.309 10.31-26.309 10.31-43.107 0z"></path>
</svg>
