<!-- Generated by IcoMoon.io -->
<svg version="1.1" xmlns="http://www.w3.org/2000/svg" width="1024" height="1024" viewBox="0 0 1024 1024">
<title></title>
<g id="icomoon-ignore">
    <line stroke-width="1" x1="16" y1="0" x2="16" y2="1024" stroke="#449FDB" opacity="0.3"></line>
    <line stroke-width="1" x1="32" y1="0" x2="32" y2="1024" stroke="#449FDB" opacity="1"></line>
    <line stroke-width="1" x1="48" y1="0" x2="48" y2="1024" stroke="#449FDB" opacity="0.3"></line>
    <line stroke-width="1" x1="64" y1="0" x2="64" y2="1024" stroke="#449FDB" opacity="1"></line>
    <line stroke-width="1" x1="80" y1="0" x2="80" y2="1024" stroke="#449FDB" opacity="0.3"></line>
    <line stroke-width="1" x1="96" y1="0" x2="96" y2="1024" stroke="#449FDB" opacity="1"></line>
    <line stroke-width="1" x1="112" y1="0" x2="112" y2="1024" stroke="#449FDB" opacity="0.3"></line>
    <line stroke-width="1" x1="128" y1="0" x2="128" y2="1024" stroke="#449FDB" opacity="1"></line>
    <line stroke-width="1" x1="144" y1="0" x2="144" y2="1024" stroke="#449FDB" opacity="0.3"></line>
    <line stroke-width="1" x1="160" y1="0" x2="160" y2="1024" stroke="#449FDB" opacity="1"></line>
    <line stroke-width="1" x1="176" y1="0" x2="176" y2="1024" stroke="#449FDB" opacity="0.3"></line>
    <line stroke-width="1" x1="192" y1="0" x2="192" y2="1024" stroke="#449FDB" opacity="1"></line>
    <line stroke-width="1" x1="208" y1="0" x2="208" y2="1024" stroke="#449FDB" opacity="0.3"></line>
    <line stroke-width="1" x1="224" y1="0" x2="224" y2="1024" stroke="#449FDB" opacity="1"></line>
    <line stroke-width="1" x1="240" y1="0" x2="240" y2="1024" stroke="#449FDB" opacity="0.3"></line>
    <line stroke-width="1" x1="256" y1="0" x2="256" y2="1024" stroke="#449FDB" opacity="1"></line>
    <line stroke-width="1" x1="272" y1="0" x2="272" y2="1024" stroke="#449FDB" opacity="0.3"></line>
    <line stroke-width="1" x1="288" y1="0" x2="288" y2="1024" stroke="#449FDB" opacity="1"></line>
    <line stroke-width="1" x1="304" y1="0" x2="304" y2="1024" stroke="#449FDB" opacity="0.3"></line>
    <line stroke-width="1" x1="320" y1="0" x2="320" y2="1024" stroke="#449FDB" opacity="1"></line>
    <line stroke-width="1" x1="336" y1="0" x2="336" y2="1024" stroke="#449FDB" opacity="0.3"></line>
    <line stroke-width="1" x1="352" y1="0" x2="352" y2="1024" stroke="#449FDB" opacity="1"></line>
    <line stroke-width="1" x1="368" y1="0" x2="368" y2="1024" stroke="#449FDB" opacity="0.3"></line>
    <line stroke-width="1" x1="384" y1="0" x2="384" y2="1024" stroke="#449FDB" opacity="1"></line>
    <line stroke-width="1" x1="400" y1="0" x2="400" y2="1024" stroke="#449FDB" opacity="0.3"></line>
    <line stroke-width="1" x1="416" y1="0" x2="416" y2="1024" stroke="#449FDB" opacity="1"></line>
    <line stroke-width="1" x1="432" y1="0" x2="432" y2="1024" stroke="#449FDB" opacity="0.3"></line>
    <line stroke-width="1" x1="448" y1="0" x2="448" y2="1024" stroke="#449FDB" opacity="1"></line>
    <line stroke-width="1" x1="464" y1="0" x2="464" y2="1024" stroke="#449FDB" opacity="0.3"></line>
    <line stroke-width="1" x1="480" y1="0" x2="480" y2="1024" stroke="#449FDB" opacity="1"></line>
    <line stroke-width="1" x1="496" y1="0" x2="496" y2="1024" stroke="#449FDB" opacity="0.3"></line>
    <line stroke-width="1" x1="512" y1="0" x2="512" y2="1024" stroke="#449FDB" opacity="1"></line>
    <line stroke-width="1" x1="528" y1="0" x2="528" y2="1024" stroke="#449FDB" opacity="0.3"></line>
    <line stroke-width="1" x1="544" y1="0" x2="544" y2="1024" stroke="#449FDB" opacity="1"></line>
    <line stroke-width="1" x1="560" y1="0" x2="560" y2="1024" stroke="#449FDB" opacity="0.3"></line>
    <line stroke-width="1" x1="576" y1="0" x2="576" y2="1024" stroke="#449FDB" opacity="1"></line>
    <line stroke-width="1" x1="592" y1="0" x2="592" y2="1024" stroke="#449FDB" opacity="0.3"></line>
    <line stroke-width="1" x1="608" y1="0" x2="608" y2="1024" stroke="#449FDB" opacity="1"></line>
    <line stroke-width="1" x1="624" y1="0" x2="624" y2="1024" stroke="#449FDB" opacity="0.3"></line>
    <line stroke-width="1" x1="640" y1="0" x2="640" y2="1024" stroke="#449FDB" opacity="1"></line>
    <line stroke-width="1" x1="656" y1="0" x2="656" y2="1024" stroke="#449FDB" opacity="0.3"></line>
    <line stroke-width="1" x1="672" y1="0" x2="672" y2="1024" stroke="#449FDB" opacity="1"></line>
    <line stroke-width="1" x1="688" y1="0" x2="688" y2="1024" stroke="#449FDB" opacity="0.3"></line>
    <line stroke-width="1" x1="704" y1="0" x2="704" y2="1024" stroke="#449FDB" opacity="1"></line>
    <line stroke-width="1" x1="720" y1="0" x2="720" y2="1024" stroke="#449FDB" opacity="0.3"></line>
    <line stroke-width="1" x1="736" y1="0" x2="736" y2="1024" stroke="#449FDB" opacity="1"></line>
    <line stroke-width="1" x1="752" y1="0" x2="752" y2="1024" stroke="#449FDB" opacity="0.3"></line>
    <line stroke-width="1" x1="768" y1="0" x2="768" y2="1024" stroke="#449FDB" opacity="1"></line>
    <line stroke-width="1" x1="784" y1="0" x2="784" y2="1024" stroke="#449FDB" opacity="0.3"></line>
    <line stroke-width="1" x1="800" y1="0" x2="800" y2="1024" stroke="#449FDB" opacity="1"></line>
    <line stroke-width="1" x1="816" y1="0" x2="816" y2="1024" stroke="#449FDB" opacity="0.3"></line>
    <line stroke-width="1" x1="832" y1="0" x2="832" y2="1024" stroke="#449FDB" opacity="1"></line>
    <line stroke-width="1" x1="848" y1="0" x2="848" y2="1024" stroke="#449FDB" opacity="0.3"></line>
    <line stroke-width="1" x1="864" y1="0" x2="864" y2="1024" stroke="#449FDB" opacity="1"></line>
    <line stroke-width="1" x1="880" y1="0" x2="880" y2="1024" stroke="#449FDB" opacity="0.3"></line>
    <line stroke-width="1" x1="896" y1="0" x2="896" y2="1024" stroke="#449FDB" opacity="1"></line>
    <line stroke-width="1" x1="912" y1="0" x2="912" y2="1024" stroke="#449FDB" opacity="0.3"></line>
    <line stroke-width="1" x1="928" y1="0" x2="928" y2="1024" stroke="#449FDB" opacity="1"></line>
    <line stroke-width="1" x1="944" y1="0" x2="944" y2="1024" stroke="#449FDB" opacity="0.3"></line>
    <line stroke-width="1" x1="960" y1="0" x2="960" y2="1024" stroke="#449FDB" opacity="1"></line>
    <line stroke-width="1" x1="976" y1="0" x2="976" y2="1024" stroke="#449FDB" opacity="0.3"></line>
    <line stroke-width="1" x1="992" y1="0" x2="992" y2="1024" stroke="#449FDB" opacity="1"></line>
    <line stroke-width="1" x1="1008" y1="0" x2="1008" y2="1024" stroke="#449FDB" opacity="0.3"></line>
    <line stroke-width="1" x1="0" y1="16" x2="1024" y2="16" stroke="#449FDB" opacity="0.3"></line>
    <line stroke-width="1" x1="0" y1="32" x2="1024" y2="32" stroke="#449FDB" opacity="1"></line>
    <line stroke-width="1" x1="0" y1="48" x2="1024" y2="48" stroke="#449FDB" opacity="0.3"></line>
    <line stroke-width="1" x1="0" y1="64" x2="1024" y2="64" stroke="#449FDB" opacity="1"></line>
    <line stroke-width="1" x1="0" y1="80" x2="1024" y2="80" stroke="#449FDB" opacity="0.3"></line>
    <line stroke-width="1" x1="0" y1="96" x2="1024" y2="96" stroke="#449FDB" opacity="1"></line>
    <line stroke-width="1" x1="0" y1="112" x2="1024" y2="112" stroke="#449FDB" opacity="0.3"></line>
    <line stroke-width="1" x1="0" y1="128" x2="1024" y2="128" stroke="#449FDB" opacity="1"></line>
    <line stroke-width="1" x1="0" y1="144" x2="1024" y2="144" stroke="#449FDB" opacity="0.3"></line>
    <line stroke-width="1" x1="0" y1="160" x2="1024" y2="160" stroke="#449FDB" opacity="1"></line>
    <line stroke-width="1" x1="0" y1="176" x2="1024" y2="176" stroke="#449FDB" opacity="0.3"></line>
    <line stroke-width="1" x1="0" y1="192" x2="1024" y2="192" stroke="#449FDB" opacity="1"></line>
    <line stroke-width="1" x1="0" y1="208" x2="1024" y2="208" stroke="#449FDB" opacity="0.3"></line>
    <line stroke-width="1" x1="0" y1="224" x2="1024" y2="224" stroke="#449FDB" opacity="1"></line>
    <line stroke-width="1" x1="0" y1="240" x2="1024" y2="240" stroke="#449FDB" opacity="0.3"></line>
    <line stroke-width="1" x1="0" y1="256" x2="1024" y2="256" stroke="#449FDB" opacity="1"></line>
    <line stroke-width="1" x1="0" y1="272" x2="1024" y2="272" stroke="#449FDB" opacity="0.3"></line>
    <line stroke-width="1" x1="0" y1="288" x2="1024" y2="288" stroke="#449FDB" opacity="1"></line>
    <line stroke-width="1" x1="0" y1="304" x2="1024" y2="304" stroke="#449FDB" opacity="0.3"></line>
    <line stroke-width="1" x1="0" y1="320" x2="1024" y2="320" stroke="#449FDB" opacity="1"></line>
    <line stroke-width="1" x1="0" y1="336" x2="1024" y2="336" stroke="#449FDB" opacity="0.3"></line>
    <line stroke-width="1" x1="0" y1="352" x2="1024" y2="352" stroke="#449FDB" opacity="1"></line>
    <line stroke-width="1" x1="0" y1="368" x2="1024" y2="368" stroke="#449FDB" opacity="0.3"></line>
    <line stroke-width="1" x1="0" y1="384" x2="1024" y2="384" stroke="#449FDB" opacity="1"></line>
    <line stroke-width="1" x1="0" y1="400" x2="1024" y2="400" stroke="#449FDB" opacity="0.3"></line>
    <line stroke-width="1" x1="0" y1="416" x2="1024" y2="416" stroke="#449FDB" opacity="1"></line>
    <line stroke-width="1" x1="0" y1="432" x2="1024" y2="432" stroke="#449FDB" opacity="0.3"></line>
    <line stroke-width="1" x1="0" y1="448" x2="1024" y2="448" stroke="#449FDB" opacity="1"></line>
    <line stroke-width="1" x1="0" y1="464" x2="1024" y2="464" stroke="#449FDB" opacity="0.3"></line>
    <line stroke-width="1" x1="0" y1="480" x2="1024" y2="480" stroke="#449FDB" opacity="1"></line>
    <line stroke-width="1" x1="0" y1="496" x2="1024" y2="496" stroke="#449FDB" opacity="0.3"></line>
    <line stroke-width="1" x1="0" y1="512" x2="1024" y2="512" stroke="#449FDB" opacity="1"></line>
    <line stroke-width="1" x1="0" y1="528" x2="1024" y2="528" stroke="#449FDB" opacity="0.3"></line>
    <line stroke-width="1" x1="0" y1="544" x2="1024" y2="544" stroke="#449FDB" opacity="1"></line>
    <line stroke-width="1" x1="0" y1="560" x2="1024" y2="560" stroke="#449FDB" opacity="0.3"></line>
    <line stroke-width="1" x1="0" y1="576" x2="1024" y2="576" stroke="#449FDB" opacity="1"></line>
    <line stroke-width="1" x1="0" y1="592" x2="1024" y2="592" stroke="#449FDB" opacity="0.3"></line>
    <line stroke-width="1" x1="0" y1="608" x2="1024" y2="608" stroke="#449FDB" opacity="1"></line>
    <line stroke-width="1" x1="0" y1="624" x2="1024" y2="624" stroke="#449FDB" opacity="0.3"></line>
    <line stroke-width="1" x1="0" y1="640" x2="1024" y2="640" stroke="#449FDB" opacity="1"></line>
    <line stroke-width="1" x1="0" y1="656" x2="1024" y2="656" stroke="#449FDB" opacity="0.3"></line>
    <line stroke-width="1" x1="0" y1="672" x2="1024" y2="672" stroke="#449FDB" opacity="1"></line>
    <line stroke-width="1" x1="0" y1="688" x2="1024" y2="688" stroke="#449FDB" opacity="0.3"></line>
    <line stroke-width="1" x1="0" y1="704" x2="1024" y2="704" stroke="#449FDB" opacity="1"></line>
    <line stroke-width="1" x1="0" y1="720" x2="1024" y2="720" stroke="#449FDB" opacity="0.3"></line>
    <line stroke-width="1" x1="0" y1="736" x2="1024" y2="736" stroke="#449FDB" opacity="1"></line>
    <line stroke-width="1" x1="0" y1="752" x2="1024" y2="752" stroke="#449FDB" opacity="0.3"></line>
    <line stroke-width="1" x1="0" y1="768" x2="1024" y2="768" stroke="#449FDB" opacity="1"></line>
    <line stroke-width="1" x1="0" y1="784" x2="1024" y2="784" stroke="#449FDB" opacity="0.3"></line>
    <line stroke-width="1" x1="0" y1="800" x2="1024" y2="800" stroke="#449FDB" opacity="1"></line>
    <line stroke-width="1" x1="0" y1="816" x2="1024" y2="816" stroke="#449FDB" opacity="0.3"></line>
    <line stroke-width="1" x1="0" y1="832" x2="1024" y2="832" stroke="#449FDB" opacity="1"></line>
    <line stroke-width="1" x1="0" y1="848" x2="1024" y2="848" stroke="#449FDB" opacity="0.3"></line>
    <line stroke-width="1" x1="0" y1="864" x2="1024" y2="864" stroke="#449FDB" opacity="1"></line>
    <line stroke-width="1" x1="0" y1="880" x2="1024" y2="880" stroke="#449FDB" opacity="0.3"></line>
    <line stroke-width="1" x1="0" y1="896" x2="1024" y2="896" stroke="#449FDB" opacity="1"></line>
    <line stroke-width="1" x1="0" y1="912" x2="1024" y2="912" stroke="#449FDB" opacity="0.3"></line>
    <line stroke-width="1" x1="0" y1="928" x2="1024" y2="928" stroke="#449FDB" opacity="1"></line>
    <line stroke-width="1" x1="0" y1="944" x2="1024" y2="944" stroke="#449FDB" opacity="0.3"></line>
    <line stroke-width="1" x1="0" y1="960" x2="1024" y2="960" stroke="#449FDB" opacity="1"></line>
    <line stroke-width="1" x1="0" y1="976" x2="1024" y2="976" stroke="#449FDB" opacity="0.3"></line>
    <line stroke-width="1" x1="0" y1="992" x2="1024" y2="992" stroke="#449FDB" opacity="1"></line>
    <line stroke-width="1" x1="0" y1="1008" x2="1024" y2="1008" stroke="#449FDB" opacity="0.3"></line>
</g>
<path fill="#000" d="M442.132 791.747c-11.186 17.788-25.765 13.020-36.677 13.661-50.613-37.318-99.943-73.352-148.814-110.029-22.049-14.802-37.98-37.252-44.057-63.477l-0.138-0.706 186.315-291.942h43.37z"></path>
<path fill="#000" d="M810.727 631.472c-3.523 24.419-17.124 45.108-36.374 58.032l-0.302 0.191c-28.699 21.731-59.691 40.344-88.482 61.983-22.281 16.871-42.728 36.677-62.716 53.548h-28.332l-12.286-12.286v-453.685h43.645z"></path>
<path fill="#000" d="M527.496 915.804h47.955c23.014 14.488 10.728 34.567 16.046 53.088h-155.874l-1.833-39.335 13.295-12.653h49.33v-741.226c-6.143-19.255-26.59-9.169-40.619-13.020-12.011-17.054-12.378-16.963-11.37-43.003h134.51c3.118 13.936 6.602 29.157-9.169 41.627-12.195 8.619-32.275-7.885-42.086 22.923z"></path>
<path fill="#000" d="M1016.297 638.624h-45.845q-178.797-270.395-360.527-546.476l12.103-62.074z"></path>
<path fill="#000" d="M7.702 638.899l394.269-609.192 11.461 63.358-359.885 545.834z"></path>
<path fill="#000" d="M933.042 631.105h-44.562c-30.992-49.055-63.174-97.925-93.341-147.988-27.507-46.578-60.241-90.223-86.739-137.536s-60.241-94.258-91.69-140.653c-19.53-28.974-20.172-28.516-12.103-72.711 45.57 51.163 72.436 111.129 111.037 163.392s67.301 112.963 105.169 166.419 68.493 112.504 112.229 169.077z"></path>
<path fill="#000" d="M423.61 136.252v41.995l-287.541 451.759h-43.095c108.103-166.327 214.555-330.086 320.916-493.662 0.55-0.733 3.026-0.092 9.719-0.092z"></path>
<path fill="#000" d="M436.447 89.122l-13.478-89.123h174.945c0.811 8.487 1.273 18.348 1.273 28.317 0 6.489-0.196 12.932-0.582 19.323l0.042-0.879c-3.606 16.307-8.178 30.458-13.911 44.001l0.616-1.639z"></path>
<path fill="#000" d="M69.685 742.692h36.677l300.287 229.226v25.123l-18.338 1.192c-56.573-42.728-112.596-82.522-165.777-125.983-51.438-41.81-108.194-77.020-157.341-121.582z"></path>
<path fill="#000" d="M635.69 997.776h-16.229v-27.507l298.727-227.576h37.777c0 5.135 1.742 11.553 0 13.111-29.891 23.106-60.424 45.845-90.682 68.309-18.338 14.029-37.502 27.507-55.84 42.27-32.275 25.399-64.183 51.805-96.55 76.745-24.573 18.338-50.063 35.301-77.204 54.648z"></path>
<path fill="#000" d="M865.741 709.5l35.667 17.421c-48.596 36.677-97.467 72.802-145.421 110.029s-90.040 77.937-145.329 111.862v-49.146z"></path>
<path fill="#000" d="M122.681 727.656c27.507-20.906 48.78-10.728 73.352 8.068 43.37 33.467 86.005 68.126 132.401 98.018 30.441 19.622 57.215 45.020 86.739 68.768v41.902c-19.969-6.956-37.1-17.53-51.414-31.055l0.068 0.063c-45.845-38.877-95.358-72.802-141.111-111.862-26.407-22.556-57.398-39.885-82.522-65.009-5.022-3.682-10.829-6.703-17.071-8.768l-0.442-0.127z"></path>
<path fill="#000" d="M598.372 990.257v33.742h-171.92l-1.742-33.742z"></path>
<path fill="#000" d="M49.604 670.532l25.765 49.146-34.934 10.728-32.092-59.874z"></path>
<path fill="#000" d="M948.355 720.045l26.957-50.43h39.794l-30.441 60.699z"></path>
<path fill="#000" d="M85.731 660.171h46.762l10.453 30.624-32.459 15.221-24.756-34.567z"></path>
<path fill="#000" d="M937.719 660.171v21.731l-22.281 24.114-33.009-14.304 7.518-31.175z"></path>
</svg>
