<?xml version="1.0" encoding="utf-8"?>
<!-- Generator: Adobe Illustrator 24.0.0, SVG Export Plug-In . SVG Version: 6.00 Build 0)  -->
<svg version="1.1" id="Layer_1" xmlns="http://www.w3.org/2000/svg" xmlns:xlink="http://www.w3.org/1999/xlink" x="0px" y="0px"
	 width="32px" height="32px" viewBox="0 0 32 32" style="enable-background:new 0 0 32 32;" xml:space="preserve">
<style type="text/css">
	.st0{fill:#FFFFFF;}
	.st1{fill:#E67419;}
</style>
<path class="st0" d="M30.4,4.1L16,0L1.6,4.1c0,0,0,9.1,0,13.5C1.6,25,7.3,32,16,32s14.4-7,14.4-14.4C30.4,13.3,30.4,4.1,30.4,4.1z
	 M28.5,17.4c0,6.5-5,12.5-12.5,12.5s-12.5-6-12.5-12.5c0-3.8,0-11.7,0-11.7L16,2.1l12.5,3.6C28.5,5.7,28.5,13.6,28.5,17.4z"/>
<path class="st1" d="M16,2.1L3.5,5.7c0,0,0,7.9,0,11.7c0,6.5,5,12.5,12.5,12.5s12.5-6,12.5-12.5c0-3.8,0-11.7,0-11.7L16,2.1z
	 M10.1,24.7l-2.4-0.6c-0.2-0.8-0.4-1.6-0.7-2.4l7.4-7.9l1.1,2l-6.8,6.8c0,0.2,0,0.3,0.1,0.4h0.3l6.9-6.8l2,1.1
	C17.8,17.6,11,24,10.1,24.7z M22.2,19.7c-0.6,0.3-1.2,0.6-1.9,0.9c0.3-0.6,0.5-1.1,0.7-1.6l-9-9c0.1-0.5,0.4-0.8,0.8-1
	c0.6-0.3,1.2-0.5,1.7-0.8h0.1c-0.2,0.5-0.5,1-0.7,1.5l8.9,9C22.8,19.2,22.5,19.5,22.2,19.7z M19.8,14.4l-2.6-2.6l4-3.8l2.5,2.5
	L19.8,14.4z M24.7,10.4L21.3,7c0.2-0.3,0.5-0.6,0.8-0.8l3.4,3.4C25.3,10,25.1,10.2,24.7,10.4z"/>
<path class="st0" d="M10.1,24.7l-2.4-0.6c-0.2-0.8-0.4-1.6-0.7-2.4l7.4-7.9l1.1,2l-6.8,6.8c0,0.2,0,0.3,0.1,0.4h0.3l6.9-6.8l2,1.1
	C17.8,17.6,11,24,10.1,24.7z M22.8,18.7c0,0.5-0.3,0.8-0.6,1c-0.6,0.3-1.2,0.6-1.9,0.9c0.3-0.6,0.5-1.1,0.7-1.6
	c-0.6-0.6-8.4-8.4-9-9c0.1-0.5,0.4-0.8,0.8-1c0.6-0.3,1.2-0.5,1.7-0.8h0.1c-0.2,0.5-0.5,1-0.7,1.5L22.8,18.7z M23.7,10.5l-3.9,3.9
	l-2.6-2.6l4-3.8L23.7,10.5z M25.5,9.6c-0.2,0.4-0.4,0.6-0.8,0.8L21.3,7c0.2-0.3,0.5-0.6,0.8-0.8L25.5,9.6z"/>
</svg>
