<!-- Generated by IcoMoon.io -->
<svg version="1.1" xmlns="http://www.w3.org/2000/svg" width="32" height="32" viewBox="0 0 32 32">
<title>adventure</title>
<path d="M14.597 13.688l-7.544 7.855 0.51 2.601 2.532 0.441 7.863-7.156-1.84-1.209-6.905 6.783-0.449-0.631 6.722-6.654-0.89-2.030z"></path>
<path d="M17.167 11.848l3.992-4.084 2.753 2.943-4.152 3.871-2.593-2.73z"></path>
<path d="M21.137 7.004l0.814-0.821 3.513 3.589-0.844 0.798-3.483-3.567z"></path>
<path d="M14.597 8.274c-0.129-0.213-2.456 0.319-2.631 1.452s9.422 9.612 8.905 9.125c0 0-0.76 1.361-0.669 1.521s3.148-0.951 2.54-1.711c-2.848-3.267-5.766-6.245-8.848-9.047l-0.088-0.079s0.844-1.118 0.791-1.262z"></path>
<path d="M30.247 4.122l-14.259-4.122-14.319 4.122v15.331c0.57 7.673 7.985 12.548 14.289 12.548 6.563 0 13.909-4.753 14.289-12.608 0.19-3.817 0-15.27 0-15.27zM28.285 18.966c-0.327 6.791-6.684 10.897-12.35 10.897-5.452 0-11.863-4.213-12.357-10.844v-13.262l12.403-3.559 12.304 3.559s0.183 9.909 0 13.209z"></path>
</svg>
