<?xml version="1.0" encoding="utf-8"?>
<!-- Generator: Adobe Illustrator 23.0.4, SVG Export Plug-In . SVG Version: 6.00 Build 0)  -->
<svg version="1.1" id="Layer_1" xmlns="http://www.w3.org/2000/svg" xmlns:xlink="http://www.w3.org/1999/xlink" x="0px" y="0px"
	 width="32px" height="32px" viewBox="0 0 32 32" style="enable-background:new 0 0 32 32;" xml:space="preserve">
<path d="M22.3,32c0.7-2.7-2-1.8-2-2.9v-9.3c0-1.9,1.7-2.6,2.7-3.6c1.5-1.5,0.9-3.7-0.1-4.7l-6.4-3.6C16.4,7.9,16,8.1,16,8.3
	c-0.4,2.3-4.4,0.7-9.2,5.4C3.1,17.3,3.5,20.5,3.5,32H15c0-9.3-0.2-10.5,0.7-11.5c0.4-0.4,0.8-0.6,0.8-0.6c0.1,0.9,0.6,1.3,0.7,1.8
	c0.1,0.3,0.1,0.6-0.1,0.6c-0.1,2.2,0.7,5.2,0.5,6.4c0,0.4,0.1,0.7,0.1,0.6c0.2,1,0.6,2.1,1.2,2.7H22.3z M28.5,7.5
	C28.2,7.8,28.1,7.9,28,8c-0.4,0.8-1.2,1.2-2.1,1.1l0,0c-1.2-0.1-2.4,0-3.2,1.2L16.8,7c1.2-2.1,2.4-3.9,4.8-4.3
	c0.9-0.8,0.8-2.6,2-2.6c0,2.5,1.2,2.7,1.7,2.8C27.5,3.4,28.2,5.4,28.5,7.5z M25.7,5.1c0,0.7,0.6,1.2,1,0.9l-0.1-0.9H25.7z"/>
</svg>
