<!-- Generated by IcoMoon.io -->
<svg version="1.1" xmlns="http://www.w3.org/2000/svg" width="32" height="32" viewBox="0 0 32 32">
<title>clovis_bray</title>
<path d="M15.541 0.556v5.136c-3.366 0.099-6.13 1.425-8.184 4.102-1.578 2.051-2.233 4.404-2.056 6.981 0.349 5.062 4.631 9.489 10.219 9.516v5.17c-5.391-0.188-9.781-2.338-12.751-6.847-3.57-5.414-3.676-11.096-0.39-16.684 3.227-5.487 9.008-7.522 13.162-7.373z"></path>
<path d="M17.209 15.326v-14.786h14.783c0.286 7.579-6.354 14.908-14.783 14.786z"></path>
<path d="M17.216 31.408v-14.777h14.777c0.208 7.717-6.424 14.868-14.777 14.777z"></path>
</svg>
