<?xml version="1.0" encoding="utf-8"?>
<!-- Generator: Adobe Illustrator 23.0.4, SVG Export Plug-In . SVG Version: 6.00 Build 0)  -->
<svg version="1.1" id="Layer_1" xmlns="http://www.w3.org/2000/svg" xmlns:xlink="http://www.w3.org/1999/xlink" x="0px" y="0px"
	 width="32px" height="32px" viewBox="0 0 32 32" style="enable-background:new 0 0 32 32;" xml:space="preserve">
<path d="M16.5,0C25.7,0.4,32,7.9,32,15.5C24,15.6,16.5,8.8,16.5,0z M15.5,0C6.3,0.4,0,7.9,0,15.5C8,15.6,15.5,8.8,15.5,0z M16.5,32
	c0.1-7.9,6.4-15.3,15.5-15.5C31.6,24.6,25.6,31.5,16.5,32z M15.5,32C15.5,24.1,9.1,16.7,0,16.5C0.4,24.6,6.4,31.5,15.5,32z"/>
</svg>
