<?xml version="1.0" encoding="utf-8"?>
<!-- Generator: Adobe Illustrator 23.0.4, SVG Export Plug-In . SVG Version: 6.00 Build 0)  -->
<svg version="1.1" id="Layer_1" xmlns="http://www.w3.org/2000/svg" xmlns:xlink="http://www.w3.org/1999/xlink" x="0px" y="0px"
	 width="32px" height="32px" viewBox="0 0 32 32" style="enable-background:new 0 0 32 32;" xml:space="preserve">
<style type="text/css">
	.st0{display:none;fill:#8BB594;}
	.st1{fill:#FFFFFF;}
	.st2{fill:#D2622A;}
	.st3{font-family:'MyriadPro-Regular';}
	.st4{font-size:12px;}
	.st5{font-size:6px;}
</style>
<path class="st0" d="M1.2,13.6C1.5,11.9,2,10.4,2.7,9l0,0.1C4,6.7,5.8,4.7,8.1,3.3c2.2-1.4,4.6-2.1,7.2-2.2c2.8-0.1,5.5,0.5,8,1.9
	c2.4,1.4,4.3,3.2,5.7,5.7c0.9,1.6,1.5,3.3,1.8,5.1L16,3.4L1.2,13.6L1.2,13.6z"/>
<path class="st1" d="M16,0c8.8,0,16,7.1,16,16c0,8.7-7.1,16-16,16c-2.6,0-16-2.2-16-16C0,7,7.3,0,16,0L16,0z M1.2,13.6L1.2,13.6
	L16,3.4l14.8,10.2C29.6,6.3,23.4,1,16,1C8.4,1,2.3,6.6,1.2,13.6C1.2,13.5,1.2,13.6,1.2,13.6z M12.9,19.9v0.5h-1.2c0-0.2,0-0.3,0-0.5
	c-0.2,0-0.3,0-0.5-0.1c-0.8-0.2-1.5-0.6-1.8-1.4c-0.1-0.3-0.2-0.6-0.2-0.9c0,0,0,0,0,0v0c0-0.2,0-0.5,0-0.7c0-0.6,0.2-1.2,0.7-1.6
	c0.5-0.5,1.1-0.8,1.8-0.9c0,0,0,0,0.1,0c0-0.2,0-0.3,0-0.5h1.2c0,0.2,0,0.3,0,0.5c0.3,0,0.6,0.1,0.9,0.2c0.7,0.3,1.2,0.7,1.5,1.4
	c0.1,0.2,0.2,0.5,0.2,0.8v0c0,0.3,0,0.6,0,0.8c0,0.7-0.3,1.3-0.9,1.7C14.1,19.6,13.6,19.8,12.9,19.9C13,19.9,12.9,19.9,12.9,19.9z
	 M11.6,15.2c-0.6,0.2-1.3,1-1.2,2c0.1,0.8,0.7,1.6,1.2,1.6V15.2z M12.9,18.9c0.6-0.2,1.3-0.9,1.2-2c-0.1-0.7-0.7-1.6-1.2-1.6V18.9z
	 M15.8,19.9v-5.7h4.8v1h-3.5v1.3c0,0,0.1,0,0.2,0c0.5,0,1,0,1.5,0c0.4,0,0.8,0,1.2,0.1c0.7,0.2,1.1,0.7,1.2,1.4
	c0.1,0.8-0.4,1.6-1.2,1.8c-0.2,0.1-0.5,0.1-0.8,0.1c0,0,0,0,0,0l0,0c-1.1,0-2.1,0-3.2,0C15.9,19.9,15.8,19.9,15.8,19.9L15.8,19.9z
	 M17.1,18.9C17.1,18.9,17.2,18.9,17.1,18.9c0.6,0,1,0,1.5,0c0,0,0,0,0,0c0.2,0,0.4,0,0.6-0.1l0,0c0.3-0.1,0.6-0.3,0.6-0.7
	c0-0.3-0.2-0.5-0.4-0.6c-0.3-0.1-0.5-0.1-0.8-0.1c-0.4,0-0.9,0-1.3,0c0,0-0.1,0-0.1,0L17.1,18.9z M28.4,19.9h-1.6l-0.6-1.3h-3
	l-0.6,1.3h-1.6l2.9-5.7h1.6L28.4,19.9z M25.6,17.6c-0.3-0.7-0.7-1.4-1-2.1l-1,2.1C23.7,17.6,25.4,17.6,25.6,17.6z M5,17.7v2.1H3.7
	c0-0.1,0-5.5,0-5.7c0,0,0.1,0,0.2,0c0.7,0,1.5,0,2.2,0c0.4,0,0.9,0,1.3,0.1c0.5,0.1,0.9,0.2,1.2,0.6c0.2,0.2,0.4,0.6,0.4,0.9
	c0,0.1,0,0.1,0,0.2c0,0.2,0,0.3-0.1,0.5l0,0c-0.1,0.4-0.4,0.7-0.7,0.9c-0.4,0.2-0.8,0.3-1.2,0.4c-0.6,0-1.2,0-1.8,0L5,17.7z M5,16.8
	c0,0,0.1,0,0.1,0c0,0,0,0,0,0h0c0.3,0,0.6,0,0.8,0c0.2,0,0.5,0,0.7,0c0.2,0,0.4-0.1,0.6-0.3c0.1-0.1,0.2-0.3,0.2-0.5
	c0-0.2-0.1-0.4-0.3-0.6l0,0c-0.1-0.1-0.3-0.2-0.4-0.2l0,0c-0.1,0-0.3,0-0.5,0c0,0,0,0,0,0l0,0c-0.4,0-0.9,0-1.3,0c0,0-0.1,0-0.1,0
	L5,16.8z M18.7,21.2v0.3c0,0,0,0-0.1,0c0,0,0,0-0.1,0h0v-0.7c0,0,0.1,0,0.1,0c0,0.1,0,0.2,0,0.3c0,0,0.1,0,0.1,0c0,0,0-0.1,0-0.1
	l0,0c0-0.1,0.1-0.2,0.3-0.2c0,0,0,0,0,0h0c0.1,0,0.2,0.1,0.3,0.2l0,0c0,0.1,0,0.1,0,0.2c0,0.1,0,0.1,0,0.2l0,0
	c0,0.1-0.2,0.2-0.3,0.2c0,0,0,0,0,0h0c-0.1,0-0.2-0.1-0.3-0.2C18.8,21.3,18.8,21.3,18.7,21.2C18.8,21.2,18.8,21.2,18.7,21.2z
	 M19.3,21.1C19.3,21.1,19.3,21.1,19.3,21.1c0-0.1,0-0.1,0-0.2l0,0c-0.1-0.1-0.2-0.1-0.3,0s-0.1,0.3,0,0.4s0.2,0.1,0.3,0
	C19.3,21.3,19.3,21.2,19.3,21.1z M11.2,21.1c0,0.1,0,0.2-0.1,0.2c-0.1,0.1-0.2,0.2-0.3,0.2s-0.2-0.1-0.3-0.1
	c-0.1-0.1-0.1-0.2-0.1-0.3c0-0.1,0-0.2,0.1-0.2c0.1-0.1,0.2-0.1,0.3-0.2c0.1,0.1,0.2,0.1,0.3,0.2C11.2,21,11.2,21,11.2,21.1
	L11.2,21.1z M10.7,20.9c-0.1,0-0.2,0.1-0.1,0.2c0,0.1,0,0.2,0.2,0.2C10.8,21.2,10.8,21.1,10.7,20.9z M10.9,21.4
	c0.1-0.1,0.2-0.1,0.1-0.3c0-0.1,0-0.1-0.2-0.2C10.9,21.1,10.9,21.2,10.9,21.4z M11.9,21.7C11.9,21.7,11.9,21.7,11.9,21.7
	c-0.1-0.1-0.1-0.2-0.1-0.3C12,21.3,12,21,12,20.8c0.1,0,0.3,0,0.4,0c0,0.2,0,0.3,0,0.4c0,0.1,0,0.2,0.1,0.2c0,0.1,0,0.2,0,0.2
	c0,0-0.1,0-0.1,0c0,0,0-0.1,0-0.2c-0.1,0-0.1,0-0.2,0c-0.1,0-0.1,0-0.2,0l0,0C11.9,21.6,12,21.6,11.9,21.7L11.9,21.7z M12.1,20.9
	c0,0.2,0,0.3-0.1,0.5h0.2v-0.5C12.3,20.9,12.2,20.9,12.1,20.9C12.2,20.9,12.1,20.9,12.1,20.9C12.1,20.9,12.1,20.9,12.1,20.9z
	 M6.8,21.5C6.8,21.5,6.8,21.5,6.8,21.5c-0.1,0-0.1,0-0.1,0h0c0-0.1,0-0.3,0-0.5c-0.1,0.2-0.2,0.3-0.3,0.5c0,0-0.1,0-0.1,0
	s-0.1,0-0.1,0l0,0c0-0.1,0-0.2,0-0.4s0-0.2,0-0.4c0,0,0.1,0,0.1,0v0.5l0,0l0.3-0.5c0,0,0.1,0,0.1,0c0,0,0.1,0,0.1,0h0L6.8,21.5z
	 M27.8,20.8C27.8,20.8,27.8,20.8,27.8,20.8c0.1,0,0.1,0,0.1,0h0c0,0.2,0,0.3,0,0.5c0.1-0.2,0.2-0.4,0.3-0.5c0,0,0,0,0.1,0
	s0.1,0,0.1,0h0v0.7c0,0-0.1,0-0.1,0v-0.4c-0.1,0.1-0.1,0.2-0.2,0.2s-0.1,0.2-0.1,0.2c0,0-0.1,0-0.1,0c0,0,0,0-0.1,0h0L27.8,20.8z
	 M26.6,21.5C26.6,21.5,26.5,21.5,26.6,21.5c-0.1,0-0.1,0-0.2,0h0v-0.7c0,0,0.1,0,0.1,0c0,0.2,0,0.3,0,0.5l0.3-0.5c0,0,0,0,0.1,0
	c0,0,0,0,0.1,0h0v0.7c0,0-0.1,0-0.1,0v-0.4l0,0L26.6,21.5z M7.1,21.3l0.3-0.5c0.1,0,0.1,0,0.2,0v0.7c0,0,0,0-0.1,0c0,0,0,0-0.1,0
	l0,0v-0.4l0,0c-0.1,0.2-0.2,0.3-0.3,0.4c0,0-0.1,0-0.1,0s-0.1,0-0.1,0l0,0v-0.7c0,0,0.1,0,0.1,0C7.1,20.9,7.1,21.1,7.1,21.3
	L7.1,21.3z M25.7,21.1C25.7,21.1,25.7,21.1,25.7,21.1c0.1,0.2,0.1,0.3-0.1,0.4c0,0-0.1,0-0.2,0c-0.1,0-0.1,0-0.2,0l0,0v-0.7
	c0.1,0,0.1,0,0.2,0c0,0,0.1,0,0.1,0h0C25.7,20.8,25.8,20.9,25.7,21.1C25.7,21.1,25.7,21.1,25.7,21.1L25.7,21.1z M25.4,21.4
	c0.1,0,0.1,0,0.2-0.1c0,0,0,0,0,0c0,0,0,0,0-0.1l0,0c0-0.1-0.1-0.1-0.2-0.1C25.4,21.3,25.4,21.3,25.4,21.4z M25.4,20.9
	c0,0.1,0,0.1,0,0.2c0.1,0,0.2,0,0.2-0.1C25.6,20.9,25.5,20.9,25.4,20.9L25.4,20.9z M17.1,21.1c0,0.1,0,0.2-0.1,0.3
	c-0.1,0-0.1,0.1-0.2,0.1c-0.1,0-0.3-0.1-0.3-0.2l0,0c-0.1-0.2,0-0.5,0.1-0.6C16.8,20.7,17.1,20.8,17.1,21.1z M16.5,21.1
	c0,0.2,0.1,0.3,0.2,0.3s0.2-0.1,0.2-0.3s-0.1-0.3-0.2-0.3C16.6,20.9,16.5,21,16.5,21.1z M20.8,21.1c0,0.2-0.1,0.4-0.3,0.4
	c0,0,0,0-0.1,0c-0.1,0-0.1,0-0.2,0l0,0c-0.1-0.1-0.2-0.2-0.2-0.4s0.1-0.3,0.2-0.4C20.6,20.7,20.8,20.9,20.8,21.1z M20.3,21.1
	C20.3,21.1,20.3,21.2,20.3,21.1c0,0.2,0.1,0.3,0.2,0.3c0.1,0,0.2-0.1,0.2-0.2c0,0,0-0.1,0-0.1c0,0,0,0,0,0l0,0
	c0-0.1-0.1-0.3-0.2-0.3S20.3,21,20.3,21.1L20.3,21.1z M16.1,20.8C16.2,20.8,16.2,20.8,16.1,20.8c0.1,0,0.1,0,0.1,0h0v0.7
	c0,0,0,0-0.1,0c0,0-0.1,0-0.1,0l0,0v-0.3c-0.1,0-0.2,0-0.3,0c0,0.1,0,0.2,0,0.3c0,0-0.1,0-0.1,0v-0.7c0,0,0,0,0.1,0s0,0,0.1,0h0V21
	c0,0,0.1,0,0.1,0c0.1,0,0.1,0,0.1,0l0,0C16.2,20.9,16.1,20.9,16.1,20.8L16.1,20.8z M24.3,21v-0.3c0,0,0,0,0.1,0c0,0,0,0,0.1,0h0v0.7
	c0,0-0.1,0-0.1,0v-0.3c-0.1,0-0.2,0-0.3,0v0.3c-0.1,0-0.1,0-0.1,0v-0.7c0,0,0.1,0,0.1,0c0,0.1,0,0.2,0,0.3
	C24.1,21.1,24.2,21.1,24.3,21L24.3,21z M23,21.1c0-0.3,0.2-0.4,0.4-0.4c0,0,0,0,0,0c0.2,0.1,0.3,0.3,0.2,0.5c0,0.1-0.2,0.2-0.3,0.2
	c0,0-0.1,0-0.1,0l0,0C23.1,21.5,23,21.3,23,21.1L23,21.1z M23.6,21.1c0-0.1,0-0.2-0.1-0.2c0,0-0.1-0.1-0.1-0.1c-0.1,0-0.1,0-0.1,0.1
	v0c-0.1,0.1-0.1,0.3,0,0.4c0.1,0.1,0.2,0.1,0.3,0C23.6,21.3,23.6,21.2,23.6,21.1C23.6,21.2,23.6,21.1,23.6,21.1L23.6,21.1L23.6,21.1
	z M9.6,21.1c0,0.3-0.2,0.5-0.4,0.4c-0.1,0-0.1-0.1-0.2-0.1l0,0c-0.1-0.1-0.1-0.4,0-0.5c0.1-0.1,0.2-0.1,0.3-0.1
	c0.1,0,0.2,0.1,0.2,0.2C9.6,21,9.6,21.1,9.6,21.1L9.6,21.1z M9.5,21.1c0-0.1-0.1-0.3-0.2-0.3S9.1,21,9.1,21.1c0,0.2,0.1,0.3,0.2,0.3
	C9.4,21.4,9.5,21.3,9.5,21.1L9.5,21.1z M4.2,21.1c0-0.3,0.2-0.4,0.4-0.4c0.2,0,0.3,0.2,0.3,0.4c0,0.3-0.2,0.5-0.5,0.4
	C4.3,21.5,4.2,21.3,4.2,21.1L4.2,21.1z M4.7,21.1c0-0.1,0-0.1,0-0.2l0,0c0-0.1-0.1-0.1-0.1-0.1l0,0c-0.1,0-0.1,0-0.2,0.1
	c0,0,0,0.1,0,0.2l0,0c0,0.1,0.1,0.3,0.2,0.3C4.6,21.4,4.7,21.3,4.7,21.1L4.7,21.1z M14.8,20.9C14.7,20.9,14.7,20.9,14.8,20.9
	c-0.1,0-0.2,0-0.2,0h0c0,0.1,0,0.3,0,0.4c0,0.2-0.1,0.2-0.2,0.2c0,0,0-0.1,0-0.1c0.1-0.1,0.1-0.1,0.1-0.2c0-0.1,0-0.3,0-0.4
	c0.1,0,0.2,0,0.2,0s0.1,0,0.2,0v0.7c0,0-0.1,0-0.1,0C14.8,21.3,14.8,21.1,14.8,20.9L14.8,20.9z M8.9,21.5c-0.1,0-0.1,0-0.1,0
	c-0.1-0.1,0-0.2-0.1-0.3c0,0,0,0-0.1,0c0,0,0,0,0,0h0v0.3c0,0,0,0-0.1,0c0,0-0.1,0-0.1,0h0v-0.7c0,0,0.1,0,0.1,0v0.3l0.2-0.3
	c0,0,0.1,0,0.1,0s0.1,0,0.1,0l0,0l-0.2,0.3C8.8,21.2,8.8,21.3,8.9,21.5z M27.2,20.8c0,0,0.1,0,0.1,0c0,0,0,0.1,0,0.1s0,0.1,0,0.1
	c0.1-0.1,0.1-0.2,0.2-0.3c0,0,0,0,0.1,0c0,0,0.1,0,0.1,0l0,0l-0.2,0.3c0.1,0.1,0.1,0.1,0.2,0.2c0,0.1,0,0.1,0.1,0.2c0,0-0.1,0-0.1,0
	c-0.1-0.1,0-0.3-0.2-0.3c-0.1,0.1,0,0.2,0,0.3c0,0-0.1,0-0.1,0L27.2,20.8z M21.8,21.5C21.8,21.5,21.8,21.5,21.8,21.5
	c0-0.1,0-0.1,0-0.1l0,0c0.2,0,0.3,0,0.4-0.2c-0.1,0-0.2,0-0.3,0c0,0,0-0.1,0-0.1h0.3c0-0.2-0.1-0.2-0.4-0.2c0,0,0,0,0,0v0
	c0,0,0,0,0,0c0,0,0,0,0,0v0c0.2-0.1,0.3-0.1,0.4,0.1c0.1,0.1,0.1,0.4,0,0.5C22.2,21.5,22,21.6,21.8,21.5L21.8,21.5z M18.1,20.9
	c0,0.1,0,0.1,0,0.1c0.1,0,0.1,0,0.2,0c0.1,0,0.2,0.1,0.2,0.2c0,0.1,0,0.2-0.2,0.2c-0.1,0-0.1,0-0.2,0c-0.1,0-0.1,0-0.2,0l0,0v-0.7
	h0.4c0,0,0,0.1,0,0.1L18.1,20.9z M18.1,21.1c0,0,0,0.1,0,0.1s0,0.1,0,0.1l0,0c0.1,0,0.1,0,0.2-0.1c0,0,0,0,0-0.1s0,0,0-0.1l0,0
	C18.3,21.1,18.2,21.1,18.1,21.1L18.1,21.1z M14.3,21.5C14.3,21.5,14.2,21.5,14.3,21.5c-0.1,0-0.1,0-0.2,0h0c0-0.1,0-0.1-0.1-0.2
	c-0.1,0-0.1,0-0.2,0c0,0.1,0,0.1-0.1,0.2c0,0-0.1,0-0.2,0c0.1-0.3,0.2-0.5,0.2-0.7c0,0,0.1,0,0.1,0c0,0,0.1,0,0.1,0h0L14.3,21.5z
	 M14,21.2C14,21.2,14,21.2,14,21.2c0-0.1,0-0.2-0.1-0.2l0,0c0,0.1-0.1,0.2-0.1,0.2C13.9,21.2,13.9,21.2,14,21.2
	C14,21.2,14,21.2,14,21.2C14,21.2,14,21.2,14,21.2z M25.1,21.5C25.1,21.5,25.1,21.5,25.1,21.5c-0.1,0-0.1,0-0.1,0h0
	c0-0.1,0-0.1-0.1-0.2c-0.1,0-0.1,0-0.2,0c-0.1,0.1-0.1,0.1-0.1,0.2c0,0-0.1,0-0.1,0l0.2-0.7c0.1,0,0.1,0,0.2,0
	C25,21,25.1,21.2,25.1,21.5L25.1,21.5z M24.8,20.9c0,0.1,0,0.2-0.1,0.3c0.1,0,0.1,0,0.2,0C24.9,21.1,24.9,21,24.8,20.9z M21.3,20.8
	c0,0,0.1,0,0.1,0c0,0,0.1,0,0.1,0h0l0.2,0.7c0,0-0.1,0-0.1,0c0,0,0,0-0.1,0h0c-0.1,0,0-0.1-0.1-0.2c0,0-0.1,0-0.1,0c0,0-0.1,0-0.1,0
	l0,0c0,0.1,0,0.1-0.1,0.2c0,0-0.1,0-0.1,0C21.2,21.3,21.2,21,21.3,20.8L21.3,20.8z M21.5,21.2c0-0.1,0-0.2-0.1-0.3
	c0,0.1-0.1,0.2-0.1,0.3v0C21.4,21.2,21.4,21.2,21.5,21.2L21.5,21.2z M15.1,21.5v-0.7c0,0,0.1,0,0.1,0c0,0.1,0,0.2,0,0.2
	c0.1,0,0.1,0,0.2,0c0.1,0,0.2,0.1,0.2,0.2c0,0,0,0,0,0l0,0c0,0.1,0,0.2-0.2,0.2C15.3,21.5,15.2,21.5,15.1,21.5L15.1,21.5z
	 M15.2,21.4c0.1,0,0.2,0,0.2-0.1c0,0,0,0,0-0.1c0,0,0-0.1,0-0.1l0,0c-0.1-0.1-0.1-0.1-0.2,0V21.4z M12.6,21.5v-0.7
	c0.1,0,0.3,0,0.4,0c0,0,0,0,0,0.1c0,0,0,0,0,0l0,0c-0.1,0-0.2,0-0.3,0c0,0,0,0.1,0,0.1s0,0.1,0,0.1l0,0c0.1,0,0.2,0,0.2,0
	c0,0,0,0.1,0,0.1c-0.1,0-0.2,0-0.2,0c0,0,0,0.1,0,0.1c0,0,0,0.1,0,0.1l0,0c0.1,0,0.2,0,0.3,0c0,0,0,0,0,0.1c0,0,0,0,0,0v0
	C12.9,21.5,12.8,21.5,12.6,21.5L12.6,21.5z M17.2,21.5v-0.7h0.4c0,0,0,0.1,0,0.1c-0.1,0-0.2,0-0.3,0c0,0.1,0,0.1,0,0.2
	c0.1,0,0.2,0,0.2,0c0,0,0,0.1,0,0.1c-0.1,0-0.2,0-0.2,0c0,0,0,0.1,0,0.1c0,0,0,0.1,0,0.1l0,0c0.1,0,0.2,0,0.3,0c0,0,0,0.1,0,0.1
	C17.5,21.5,17.3,21.5,17.2,21.5L17.2,21.5z M11.3,21.5v-0.7h0.4c0,0,0,0.1,0,0.1c-0.1,0-0.2,0-0.3,0c0,0,0,0.1,0,0.1
	c0,0,0,0.1,0,0.1l0,0c0.1,0,0.2,0,0.2,0c0,0,0,0.1,0,0.1c-0.1,0-0.2,0-0.2,0c0,0.1,0,0.1,0,0.2c0.1,0,0.2,0,0.3,0c0,0,0,0.1,0,0.1
	L11.3,21.5z M9.7,20.8h0.4c0,0,0,0.1,0,0.1c-0.1,0-0.2,0-0.3,0c0,0,0,0,0,0.1c0,0,0,0.1,0,0.1l0,0c0.1,0,0.2,0,0.2,0
	c0,0,0,0.1,0,0.1c-0.1,0-0.2,0-0.2,0c0,0,0,0.1,0,0.1s0,0.1,0,0.1l0,0c0.1,0,0.2,0,0.3,0c0,0,0,0.1,0,0.1c-0.1,0-0.2,0-0.2,0
	c-0.1,0-0.1,0-0.2,0h0L9.7,20.8z M3.6,20.8c0.1,0,0.1,0,0.2,0c0,0,0.1,0,0.1,0h0c0.1,0,0.2,0.1,0.2,0.2c0,0.1-0.1,0.2-0.2,0.3
	c0,0-0.1,0-0.1,0c0,0.1,0,0.2,0,0.3c0,0-0.1,0-0.1,0L3.6,20.8z M3.8,20.9c0,0.1,0,0.2,0,0.2c0.1,0,0.2,0,0.2-0.1
	C4,20.9,3.9,20.9,3.8,20.9L3.8,20.9z M19.6,20.8c0.1,0,0.1,0,0.2,0c0,0,0.1,0,0.1,0h0c0.1,0,0.2,0.1,0.2,0.2c0,0.1-0.1,0.2-0.2,0.3
	c0,0-0.1,0-0.1,0h0c0,0.1,0,0.2,0,0.3c0,0-0.1,0-0.1,0L19.6,20.8z M19.7,21.1c0.1,0,0.2-0.1,0.2-0.1c0-0.1-0.1-0.1-0.2-0.1
	c0,0,0,0.1,0,0.1S19.7,21.1,19.7,21.1L19.7,21.1L19.7,21.1z M13.3,21.2c0,0.1,0,0.2,0,0.3c0,0-0.1,0-0.1,0v-0.7c0.1,0,0.1,0,0.2,0
	c0,0,0.1,0,0.1,0h0c0.1,0,0.2,0.1,0.2,0.2c0,0.1-0.1,0.2-0.2,0.3C13.4,21.2,13.4,21.2,13.3,21.2L13.3,21.2L13.3,21.2z M13.3,21.1
	c0.1,0,0.1,0,0.2,0c0,0,0,0,0-0.1c0,0,0,0,0-0.1l0,0c0-0.1-0.1-0.1-0.2-0.1C13.3,20.9,13.3,21,13.3,21.1
	C13.3,21,13.3,21.1,13.3,21.1L13.3,21.1L13.3,21.1z M5.5,21.4C5.5,21.4,5.5,21.4,5.5,21.4L5.5,21.4C5.5,21.4,5.5,21.5,5.5,21.4
	C5.5,21.5,5.5,21.5,5.5,21.4L5.5,21.4c0,0.2-0.3,0.1-0.4,0.1C5,21.4,4.9,21.1,5,21s0.3-0.2,0.5-0.2c0,0,0,0.1,0,0.1
	c-0.3,0-0.4,0.1-0.4,0.3C5.1,21.3,5.2,21.4,5.5,21.4L5.5,21.4z M6.1,20.8C6.1,20.8,6.1,20.8,6.1,20.8c0,0.1,0,0.1,0,0.1l0,0
	c-0.3,0-0.4,0-0.4,0.4c0,0.2,0.2,0.2,0.4,0.2c0,0,0,0,0,0.1c0,0,0,0,0,0v0c-0.2,0.1-0.4,0-0.5-0.1s-0.1-0.4,0-0.5S5.9,20.7,6.1,20.8
	L6.1,20.8z M8.2,20.8C8.2,20.8,8.2,20.8,8.2,20.8C8.2,20.8,8.2,20.9,8.2,20.8L8.2,20.8c-0.3,0.1-0.4,0.2-0.4,0.4
	c0,0.2,0.1,0.3,0.4,0.2c0,0,0,0.1,0,0.1c-0.1,0.1-0.3,0.1-0.4,0c-0.2-0.1-0.2-0.3-0.1-0.5S8,20.7,8.2,20.8L8.2,20.8z M22.5,20.8
	c0.1,0,0.1,0,0.2,0c0,0,0.1,0,0.1,0h0c0.1,0,0.2,0.1,0.2,0.2c0,0.1-0.1,0.2-0.2,0.3c0,0-0.1,0-0.1,0c0,0,0,0.1,0,0.1s0,0.1,0,0.1
	c0,0-0.1,0-0.1,0L22.5,20.8z M22.6,21.1c0.1,0,0.2,0,0.2-0.1c0,0,0,0,0-0.1c0,0,0-0.1,0-0.1l0,0c0-0.1-0.1-0.1-0.2,0
	c0,0,0,0.1,0,0.1C22.6,21,22.6,21.1,22.6,21.1L22.6,21.1L22.6,21.1z M25.8,20.8h0.5c0,0,0,0,0,0.1c0,0,0,0,0,0.1l0,0l-0.2,0v0.6
	c0,0,0,0-0.1,0s-0.1,0-0.1,0l0,0v-0.6c-0.1-0.1-0.1,0-0.2,0C25.8,20.8,25.8,20.8,25.8,20.8L25.8,20.8z M7.3,20.7
	c0.1-0.1,0.1-0.1,0.2,0C7.4,20.7,7.4,20.7,7.3,20.7c-0.1,0.1-0.1,0.1-0.1,0C7.2,20.5,7.2,20.6,7.3,20.7L7.3,20.7z M16,31
	C5.5,31,1.1,21.4,1.1,17.4c0-2.2,1.8-4.7,5-4.7c3.3,0,6.6,0,9.9,0c3.3,0,6.6,0,9.9,0c3.1,0,5,2.5,5,4.7C30.9,21.4,26.4,31,16,31z"/>
<path class="st2" d="M16,31C5.5,31,1.1,21.4,1.1,17.4c0-2.2,1.8-4.7,5-4.7c3.3,0,6.6,0,9.9,0c3.3,0,6.6,0,9.9,0c3.1,0,5,2.5,5,4.7
	C30.9,21.4,26.4,31,16,31z M12.9,19.9C12.9,19.9,13,19.9,12.9,19.9c0.7-0.1,1.2-0.3,1.7-0.7c0.5-0.5,0.8-1,0.9-1.7
	c0-0.3,0-0.6,0-0.8c0-0.3-0.1-0.5-0.2-0.8l0,0c-0.3-0.7-0.8-1.2-1.5-1.4c-0.3-0.1-0.6-0.2-0.9-0.2c0-0.2,0-0.3,0-0.5h-1.2
	c0,0.2,0,0.4,0,0.5c0,0,0,0-0.1,0c-0.7,0.1-1.3,0.3-1.8,0.9c-0.4,0.4-0.7,1-0.7,1.6c0,0.2,0,0.5,0,0.7c0,0,0,0,0,0
	c0,0.3,0.1,0.7,0.2,0.9l0,0c0.4,0.8,1,1.2,1.8,1.4c0.2,0,0.3,0.1,0.5,0.1c0,0.2,0,0.4,0,0.5h1.2L12.9,19.9z M15.8,19.9
	c0,0,0.1,0,0.1,0c1.1,0,2.1,0,3.2,0c0,0,0,0,0,0c0.3,0,0.6,0,0.8-0.1l0,0c0.8-0.2,1.4-1,1.2-1.8c-0.1-0.7-0.5-1.1-1.2-1.4
	c-0.4-0.1-0.8-0.1-1.2-0.1c-0.5,0-1,0-1.5,0c-0.1,0-0.1,0-0.2,0v-1.3h3.5v-1h-4.8L15.8,19.9z M28.4,19.9l-3-5.7h-1.6l-2.9,5.7h1.6
	l0.6-1.3h3l0.6,1.3L28.4,19.9z M5,17.7l0.2,0c0.6,0,1.2,0,1.8,0c0.4,0,0.8-0.1,1.2-0.4c0.4-0.2,0.6-0.5,0.7-0.9
	c0-0.1,0.1-0.3,0.1-0.5c0-0.1,0-0.2,0-0.2l0,0c0-0.3-0.2-0.6-0.4-0.9c-0.3-0.4-0.7-0.5-1.2-0.6c-0.4-0.1-0.9,0-1.3-0.1
	c-0.7,0-1.5,0-2.2,0c-0.1,0-0.1,0-0.2,0c0,0.2,0,5.5,0,5.7H5V17.7z M18.7,21.2C18.8,21.2,18.8,21.2,18.7,21.2
	c0.1,0.1,0.1,0.1,0.1,0.1c0,0.1,0.1,0.2,0.3,0.2c0,0,0,0,0,0c0.1,0,0.2-0.1,0.3-0.2c0-0.1,0-0.1,0-0.2c0-0.1,0-0.1,0-0.2
	c0-0.1-0.1-0.2-0.3-0.2c0,0,0,0,0,0c-0.1,0-0.2,0.1-0.3,0.2c0,0,0,0.1,0,0.1l0,0c0,0,0,0.1-0.1,0c0-0.1,0-0.2,0-0.3c0,0-0.1,0-0.1,0
	v0.7c0,0,0,0,0.1,0c0,0,0,0,0.1,0L18.7,21.2z M11.2,21.1c0-0.1,0-0.2-0.1-0.3c-0.1-0.1-0.2-0.1-0.3-0.2c-0.1,0.1-0.2,0.1-0.3,0.2
	c-0.1,0.1-0.1,0.2-0.1,0.2c0,0.1,0,0.2,0.1,0.3c0.1,0.1,0.2,0.1,0.3,0.1s0.2-0.1,0.3-0.2C11.2,21.3,11.2,21.2,11.2,21.1z M11.9,21.7
	c0,0,0-0.1,0-0.2c0.1,0,0.1,0,0.2,0c0.1,0,0.2,0,0.2,0l0,0c0,0.1,0,0.1,0,0.2c0,0,0.1,0,0.1,0c0-0.1,0-0.2,0-0.2
	c-0.1-0.1,0-0.2-0.1-0.2c0-0.1,0-0.3,0-0.4c-0.1,0-0.3,0-0.4,0c0,0.2,0,0.5-0.2,0.7C11.8,21.5,11.8,21.6,11.9,21.7
	C11.9,21.7,11.9,21.7,11.9,21.7z M6.8,21.5v-0.7c0,0,0,0-0.1,0c0,0-0.1,0-0.1,0l-0.3,0.5l0,0v-0.5c0,0-0.1,0-0.1,0
	c0,0.1,0,0.2,0,0.4s0,0.2,0,0.4c0,0,0.1,0,0.1,0s0.1,0,0.1,0c0.1-0.1,0.2-0.3,0.3-0.5c0,0.2,0,0.3,0,0.5C6.7,21.5,6.7,21.5,6.8,21.5
	C6.8,21.5,6.8,21.5,6.8,21.5C6.8,21.5,6.8,21.5,6.8,21.5z M27.8,20.8l0,0.7c0,0,0,0,0.1,0c0,0,0.1,0,0.1,0c0-0.1,0.1-0.1,0.1-0.2
	s0.1-0.2,0.2-0.2v0.4c0.1,0,0.1,0,0.1,0v-0.7c0,0,0,0-0.1,0s-0.1,0-0.1,0c-0.1,0.2-0.2,0.3-0.3,0.5c0-0.2,0-0.4,0-0.5
	C27.9,20.8,27.9,20.8,27.8,20.8C27.8,20.8,27.8,20.8,27.8,20.8z M26.6,21.5l0.3-0.5l0,0v0.4c0,0,0.1,0,0.1,0v-0.7c0,0,0,0-0.1,0
	c0,0-0.1,0-0.1,0l-0.3,0.5c0-0.2,0-0.4,0-0.5c0,0-0.1,0-0.1,0v0.7C26.5,21.5,26.5,21.5,26.6,21.5C26.5,21.5,26.6,21.5,26.6,21.5z
	 M7.1,21.3c0-0.2,0-0.4,0-0.5c0,0-0.1,0-0.1,0v0.7c0,0,0.1,0,0.1,0s0.1,0,0.1,0c0.1-0.1,0.2-0.3,0.3-0.4l0,0v0.4c0,0,0,0,0.1,0
	c0,0,0,0,0.1,0l0-0.7c-0.1,0-0.1,0-0.2,0L7.1,21.3z M25.7,21.1C25.7,21.1,25.7,21.1,25.7,21.1c0.1-0.2,0-0.4-0.1-0.4
	c0,0-0.1,0-0.1,0c-0.1,0-0.1,0-0.2,0l0,0.7c0.1,0,0.1,0,0.2,0c0.1,0,0.1,0,0.2,0C25.8,21.5,25.8,21.3,25.7,21.1
	C25.7,21.1,25.7,21.1,25.7,21.1z M17.1,21.1c0-0.4-0.3-0.5-0.5-0.4c-0.2,0.1-0.2,0.3-0.1,0.6c0.1,0.1,0.2,0.2,0.3,0.2
	c0.1,0,0.2,0,0.2-0.1C17,21.4,17.1,21.3,17.1,21.1z M20.8,21.1c0-0.3-0.2-0.5-0.5-0.4c-0.2,0.1-0.2,0.2-0.2,0.4s0,0.3,0.2,0.4
	c0,0,0.1,0,0.2,0c0,0,0,0,0.1,0C20.7,21.5,20.8,21.4,20.8,21.1z M16.1,20.8c0,0.1,0,0.2,0,0.3c0,0-0.1,0-0.1,0s-0.1,0-0.1,0l0-0.3
	c0,0,0,0-0.1,0s0,0-0.1,0l0,0.7c0,0,0.1,0,0.1,0c0-0.1,0-0.2,0-0.3c0.1,0,0.2,0,0.3,0v0.3c0,0,0,0,0.1,0c0,0,0,0,0.1,0l0-0.7
	C16.3,20.8,16.2,20.8,16.1,20.8C16.2,20.8,16.2,20.8,16.1,20.8z M24.3,21c-0.1,0-0.2,0-0.3,0c0-0.1,0-0.2,0-0.3c0,0-0.1,0-0.1,0v0.7
	c0.1,0,0.1,0,0.1,0v-0.3c0.1,0,0.2,0,0.3,0v0.3c0.1,0,0.1,0,0.1,0v-0.7c0,0,0,0-0.1,0c0,0-0.1,0-0.1,0L24.3,21z M23,21.1
	c0,0.2,0.1,0.3,0.2,0.4c0,0,0.1,0,0.1,0c0.2,0,0.3-0.1,0.3-0.2c0.1-0.2,0-0.5-0.2-0.5c0,0,0,0,0,0C23.2,20.7,23,20.9,23,21.1z
	 M9.6,21.1c0,0,0-0.1,0-0.1c0-0.1-0.1-0.2-0.2-0.2c-0.1,0-0.3,0-0.3,0.1c-0.1,0.1-0.1,0.4,0,0.5c0,0.1,0.1,0.1,0.2,0.1
	C9.4,21.6,9.6,21.4,9.6,21.1z M4.2,21.1c0,0.2,0.1,0.3,0.2,0.4c0.3,0.1,0.5-0.1,0.5-0.4c0-0.2-0.1-0.3-0.3-0.4
	C4.4,20.7,4.2,20.9,4.2,21.1z M14.8,20.9c0,0.2,0,0.4,0,0.6c0,0,0.1,0,0.1,0v-0.7c-0.1,0-0.2,0-0.2,0s-0.2,0-0.2,0
	c0,0.1,0,0.3,0,0.4c0,0.1,0,0.2-0.1,0.2c-0.1,0,0,0.1,0,0.1c0.2,0,0.2-0.1,0.2-0.2c0-0.1,0-0.3,0-0.4C14.6,20.9,14.7,20.9,14.8,20.9
	C14.7,20.9,14.8,20.9,14.8,20.9z M8.9,21.5c-0.1-0.2-0.1-0.3-0.2-0.4l0.2-0.3c0,0-0.1,0-0.1,0s-0.1,0-0.1,0l-0.2,0.3v-0.3
	c-0.1,0-0.1,0-0.1,0v0.7c0,0,0,0,0.1,0c0,0,0,0,0.1,0l0-0.3c0,0,0,0,0,0c0,0,0,0,0.1,0c0.1,0.1,0.1,0.2,0.1,0.3
	C8.8,21.5,8.8,21.5,8.9,21.5z M27.2,20.8l0,0.7c0,0,0.1,0,0.1,0c0-0.1,0-0.2,0-0.3c0.2,0,0.2,0.2,0.2,0.3c0,0,0.1,0,0.1,0
	c0-0.1-0.1-0.1-0.1-0.2c0-0.1-0.1-0.1-0.2-0.2l0.2-0.3c0,0-0.1,0-0.1,0c0,0-0.1,0-0.1,0c-0.1,0.1-0.1,0.2-0.2,0.3c0,0,0-0.1,0-0.1
	s0-0.1,0-0.1C27.2,20.8,27.2,20.7,27.2,20.8z M21.8,21.5c0.2,0.1,0.4,0,0.5-0.1c0.1-0.1,0.1-0.4,0-0.5c-0.1-0.1-0.3-0.1-0.4-0.1
	c0,0,0,0,0,0c0,0,0,0,0,0c0,0,0,0,0,0c0.3,0,0.3,0,0.4,0.2h-0.3c0,0,0,0.1,0,0.1c0.1,0,0.2,0,0.3,0c-0.1,0.2-0.2,0.2-0.4,0.2
	C21.8,21.4,21.8,21.4,21.8,21.5C21.8,21.5,21.8,21.5,21.8,21.5z M18.1,20.9l0.3,0c0,0,0-0.1,0-0.1H18v0.7c0,0,0.1,0,0.2,0
	c0.1,0,0.1,0,0.2,0c0.1,0,0.2-0.1,0.2-0.2c0-0.1-0.1-0.2-0.2-0.2c-0.1,0-0.1,0-0.2,0C18.1,21,18.1,20.9,18.1,20.9z M14.3,21.5
	L14,20.8c0,0-0.1,0-0.1,0c0,0-0.1,0-0.1,0c-0.1,0.2-0.1,0.5-0.2,0.7c0.1,0,0.1,0,0.2,0c0-0.1,0-0.1,0.1-0.2c0.1,0,0.1,0,0.2,0
	c0,0.1,0,0.1,0.1,0.2C14.1,21.5,14.2,21.5,14.3,21.5C14.2,21.5,14.3,21.5,14.3,21.5z M25.1,21.5c-0.1-0.2-0.2-0.5-0.2-0.7
	c-0.1,0-0.1,0-0.2,0l-0.2,0.7c0.1,0,0.1,0,0.1,0c0-0.1,0-0.1,0.1-0.2c0.1,0,0.1,0,0.2,0c0,0.1,0,0.1,0.1,0.2
	C25,21.5,25,21.5,25.1,21.5C25.1,21.5,25.1,21.5,25.1,21.5z M21.3,20.8c-0.1,0.2-0.1,0.5-0.2,0.7c0.1,0,0.1,0,0.1,0
	c0-0.1,0-0.1,0.1-0.2c0,0,0.1,0,0.1,0c0,0,0.1,0,0.1,0c0.1,0.1,0,0.1,0.1,0.2c0,0,0,0,0,0c0,0,0.1,0,0.1,0l-0.2-0.7c0,0-0.1,0-0.1,0
	C21.4,20.8,21.3,20.8,21.3,20.8z M15.1,21.5c0.2,0,0.3,0,0.4,0c0.1,0,0.2-0.1,0.2-0.2c0,0,0,0,0,0c0-0.1-0.1-0.2-0.2-0.2
	c-0.1,0-0.1,0-0.2,0c0-0.1,0-0.2,0-0.2c0,0-0.1,0-0.1,0L15.1,21.5z M12.6,21.5c0.2,0,0.3,0,0.4,0c0,0,0,0,0,0c0,0,0,0,0-0.1
	c-0.1,0-0.2,0-0.3,0c0,0,0-0.1,0-0.1c0,0,0-0.1,0-0.1c0.1,0,0.2,0,0.2,0c0,0,0-0.1,0-0.1c-0.1,0-0.2,0-0.2,0c0,0,0-0.1,0-0.1
	s0-0.1,0-0.1c0.1,0,0.2,0,0.3,0c0,0,0,0,0,0c0,0,0,0,0-0.1c-0.1,0-0.3,0-0.4,0L12.6,21.5z M17.2,21.5c0.2,0,0.3,0,0.4,0
	c0,0,0-0.1,0-0.1c-0.1,0-0.2,0-0.3,0c0,0,0-0.1,0-0.1c0,0,0-0.1,0-0.1c0.1,0,0.2,0,0.2,0c0,0,0-0.1,0-0.1c-0.1,0-0.2,0-0.2,0
	c0-0.1,0-0.1,0-0.2c0.1,0,0.2,0,0.3,0c0,0,0-0.1,0-0.1h-0.4V21.5z M11.3,21.5h0.4c0,0,0-0.1,0-0.1c-0.1,0-0.2,0-0.3,0
	c0-0.1,0-0.1,0-0.2c0.1,0,0.2,0,0.2,0c0,0,0-0.1,0-0.1c-0.1,0-0.2,0-0.2,0c0,0,0,0,0-0.1c0,0,0-0.1,0-0.1c0.1,0,0.2,0,0.3,0
	c0,0,0-0.1,0-0.1h-0.4L11.3,21.5z M9.7,20.8v0.7c0.1,0,0.1,0,0.2,0c0.1,0,0.2,0,0.3,0l0,0c0,0,0-0.1,0-0.1c-0.1,0-0.2,0-0.3,0
	c0,0,0-0.1,0-0.1s0-0.1,0-0.1c0.1,0,0.2,0,0.2,0c0,0,0-0.1,0-0.1c-0.1,0-0.2,0-0.2,0c0,0,0-0.1,0-0.1c0,0,0-0.1,0-0.1
	c0.1,0,0.2,0,0.3,0c0,0,0-0.1,0-0.1L9.7,20.8z M3.6,20.8v0.7c0,0,0.1,0,0.1,0c0-0.1,0-0.2,0-0.3c0,0,0.1,0,0.1,0
	c0.1,0,0.2-0.1,0.2-0.3c0-0.1-0.1-0.2-0.2-0.2c0,0-0.1,0-0.1,0C3.7,20.7,3.7,20.8,3.6,20.8L3.6,20.8z M19.6,20.8l0,0.7
	c0.1,0,0.1,0,0.1,0c0-0.1,0-0.2,0-0.3c0.1,0,0.1,0,0.1,0l0,0c0.1,0,0.2-0.1,0.2-0.3c0-0.1-0.1-0.2-0.2-0.2c0,0-0.1,0-0.1,0
	C19.7,20.7,19.6,20.8,19.6,20.8L19.6,20.8z M13.3,21.2c0.1,0,0.1,0,0.2,0l0,0c0.1,0,0.2-0.1,0.2-0.3c0-0.1-0.1-0.2-0.2-0.2
	c0,0-0.1,0-0.1,0c-0.1,0-0.1,0-0.2,0l0,0.7c0,0,0.1,0,0.1,0C13.3,21.4,13.3,21.3,13.3,21.2z M5.5,21.4c-0.3,0-0.4,0-0.4-0.2
	c0-0.2,0.1-0.3,0.4-0.3c0,0,0-0.1,0-0.1c-0.2-0.1-0.4,0-0.5,0.2s0,0.4,0.1,0.5C5.2,21.5,5.5,21.5,5.5,21.4
	C5.5,21.5,5.5,21.5,5.5,21.4C5.5,21.5,5.5,21.4,5.5,21.4C5.5,21.4,5.5,21.4,5.5,21.4z M6.1,20.8c-0.2-0.1-0.4,0-0.5,0.1
	s-0.1,0.4,0,0.5s0.3,0.2,0.5,0.1c0,0,0,0,0,0c0,0,0,0,0-0.1c-0.1,0-0.3,0-0.4-0.2c-0.1-0.3,0.1-0.4,0.4-0.4
	C6.1,20.9,6.1,20.8,6.1,20.8C6.1,20.8,6.1,20.8,6.1,20.8z M8.2,20.8c-0.2-0.1-0.4,0-0.5,0.2s0,0.4,0.1,0.5c0.1,0.1,0.3,0.1,0.4,0
	c0,0,0-0.1,0-0.1c-0.3,0-0.4,0-0.4-0.2C7.8,20.9,7.9,20.9,8.2,20.8C8.2,20.9,8.2,20.8,8.2,20.8C8.2,20.8,8.2,20.8,8.2,20.8z
	 M22.5,20.8l0,0.7c0,0,0.1,0,0.1,0c0,0,0-0.1,0-0.1s0-0.1,0-0.1c0,0,0.1,0,0.1,0c0.1,0,0.2-0.1,0.2-0.3c0-0.1-0.1-0.2-0.2-0.2
	c0,0-0.1,0-0.1,0C22.6,20.7,22.5,20.8,22.5,20.8L22.5,20.8z M25.8,20.8c0,0.1,0,0.1,0,0.1c0.1,0,0.1,0,0.2,0v0.6c0,0,0,0,0.1,0
	s0.1,0,0.1,0v-0.6l0.2,0c0,0,0,0,0-0.1c0,0,0,0,0-0.1L25.8,20.8z M7.3,20.7c0,0-0.1-0.1-0.1,0C7.2,20.7,7.2,20.7,7.3,20.7
	c0.1,0.1,0.1,0,0.2,0C7.3,20.6,7.3,20.6,7.3,20.7z M11.6,15.2v3.6c-0.5-0.1-1.2-0.9-1.2-1.6C10.3,16.2,11,15.4,11.6,15.2z
	 M12.9,18.9v-3.6c0.5,0.1,1.2,0.9,1.2,1.6C14.2,17.9,13.5,18.7,12.9,18.9z M17.1,18.9l0-1.5c0,0,0.1,0,0.1,0c0.4,0,0.9,0,1.3,0
	c0.3,0,0.6,0,0.8,0.1c0.3,0.1,0.4,0.3,0.4,0.6c0,0.4-0.3,0.7-0.6,0.7c-0.2,0-0.4,0.1-0.6,0.1c0,0,0,0,0,0
	C18.1,18.9,17.7,18.9,17.1,18.9C17.2,18.9,17.1,18.9,17.1,18.9z M25.6,17.6c-0.2,0-1.9,0-2,0l1-2.1C24.9,16.2,25.2,16.9,25.6,17.6z
	 M5,16.8l0-1.6c0,0,0.1,0,0.1,0c0.4,0,0.9,0,1.3,0c0,0,0,0,0,0c0.2,0,0.3,0,0.5,0.1l0,0c0.2,0,0.3,0.1,0.4,0.2
	c0.2,0.1,0.3,0.3,0.3,0.6c0,0.2-0.1,0.4-0.2,0.5c-0.2,0.2-0.4,0.2-0.6,0.3c-0.2,0-0.5,0-0.7,0c-0.3,0-0.6,0-0.8,0c0,0,0,0,0,0
	C5.1,16.8,5.1,16.8,5,16.8z M19.3,21.1c0,0.1,0,0.1,0,0.2c-0.1,0.1-0.2,0.1-0.3,0s-0.1-0.3,0-0.4s0.2-0.1,0.3,0
	C19.3,21,19.3,21,19.3,21.1C19.3,21.1,19.3,21.1,19.3,21.1z M10.7,20.9c0,0.1,0,0.3,0,0.4c-0.1,0-0.1-0.1-0.2-0.2
	C10.6,21,10.6,21,10.7,20.9z M10.9,21.4c0-0.2,0-0.3,0-0.4c0.1,0,0.1,0.1,0.2,0.2C11.1,21.2,11,21.3,10.9,21.4z M12.1,20.9
	C12.1,20.9,12.2,20.9,12.1,20.9c0.1,0,0.1,0,0.2,0l0,0.5H12C12.1,21.2,12.1,21.1,12.1,20.9z M25.4,21.4c0-0.1,0-0.1,0-0.2
	c0.1,0,0.1,0,0.2,0.1c0,0,0,0,0,0.1c0,0,0,0,0,0C25.5,21.4,25.5,21.4,25.4,21.4z M25.4,20.9c0.1,0,0.2,0,0.2,0.1
	c0,0.1,0,0.1-0.2,0.1C25.4,21,25.4,20.9,25.4,20.9z M16.5,21.1c0-0.2,0.1-0.3,0.2-0.3c0.1,0,0.2,0.1,0.2,0.3s-0.1,0.3-0.2,0.3
	S16.5,21.3,16.5,21.1z M20.3,21.1c0-0.2,0.1-0.3,0.2-0.3s0.2,0.1,0.2,0.3c0,0,0,0,0,0c0,0,0,0.1,0,0.1c0,0.1-0.1,0.2-0.2,0.2
	C20.4,21.4,20.3,21.3,20.3,21.1C20.3,21.2,20.3,21.1,20.3,21.1z M23.6,21.1C23.6,21.1,23.6,21.2,23.6,21.1c0,0.1,0,0.1-0.1,0.2
	c-0.1,0.1-0.2,0.1-0.3,0c-0.1-0.1-0.1-0.3,0-0.4c0,0,0.1-0.1,0.1-0.1c0.1,0,0.1,0,0.1,0.1C23.6,21,23.6,21.1,23.6,21.1z M9.5,21.1
	c0,0.1-0.1,0.3-0.2,0.3c-0.1,0-0.2-0.1-0.2-0.3c0-0.1,0.1-0.3,0.2-0.3S9.4,21,9.5,21.1z M4.7,21.1c0,0.2-0.1,0.3-0.2,0.3
	c-0.1,0-0.2-0.1-0.2-0.3c0-0.1,0-0.1,0-0.2c0-0.1,0.1-0.1,0.2-0.1c0.1,0,0.1,0,0.1,0.1C4.7,21,4.7,21.1,4.7,21.1z M18.1,21.1
	c0.1,0,0.2,0,0.2,0.1c0,0,0,0,0,0.1s0,0,0,0.1c0,0.1-0.1,0.1-0.2,0.1c0,0,0-0.1,0-0.1C18.1,21.2,18.1,21.2,18.1,21.1z M14,21.2
	C14,21.2,14,21.2,14,21.2c-0.1,0-0.1,0-0.1,0c0-0.1,0-0.1,0.1-0.2C14,21,14,21.1,14,21.2C14,21.2,14,21.2,14,21.2z M24.8,20.9
	c0,0.1,0.1,0.2,0.1,0.2c-0.1,0-0.1,0-0.2,0C24.8,21.1,24.8,21,24.8,20.9z M21.5,21.2c-0.1,0-0.1,0-0.1,0c0-0.1,0-0.2,0.1-0.3
	C21.4,21,21.5,21.1,21.5,21.2z M15.2,21.4v-0.3c0.1,0,0.1,0,0.2,0c0,0,0,0.1,0,0.1c0,0,0,0,0,0.1C15.4,21.4,15.3,21.4,15.2,21.4z
	 M3.8,20.9c0.1,0,0.2,0,0.2,0.1c0,0.1-0.1,0.1-0.2,0.1C3.8,21,3.8,21,3.8,20.9z M19.7,21.1c0,0,0-0.1,0-0.1s0-0.1,0-0.1
	c0.1,0,0.2,0,0.2,0.1C19.9,21.1,19.9,21.1,19.7,21.1z M13.3,21.1C13.3,21.1,13.3,21,13.3,21.1c0-0.1,0-0.2,0-0.2
	c0.1,0,0.1,0,0.2,0.1c0,0,0,0,0,0.1c0,0,0,0.1,0,0.1C13.4,21.1,13.4,21.1,13.3,21.1z M22.6,21.1c0,0,0-0.1,0-0.1c0,0,0-0.1,0-0.1
	c0.1,0,0.1,0,0.2,0c0,0,0,0,0,0.1c0,0,0,0,0,0.1C22.8,21.1,22.7,21.1,22.6,21.1z"/>
<text transform="matrix(1 0 0 1 -5.7993 29.1035)" class="st3 st4">PФБA</text>
<text transform="matrix(1 0 0 1 -8.0747 36.0015)" class="st3 st5">РОССИЙСКОЕ ФЕДЕРАЛЬНОЕ БЮРО АЭРОНАВТИКИ</text>
</svg>
