<?xml version="1.0" encoding="utf-8"?>
<!-- Generator: Adobe Illustrator 23.0.6, SVG Export Plug-In . SVG Version: 6.00 Build 0)  -->
<svg version="1.1" id="Layer_3" xmlns="http://www.w3.org/2000/svg" xmlns:xlink="http://www.w3.org/1999/xlink" x="0px" y="0px"
	 width="32px" height="32px" viewBox="0 0 32 32" style="enable-background:new 0 0 32 32;" xml:space="preserve">
<style type="text/css">
	.st0{fill:#FFFFFF;}
	.st1{fill:#D2622A;}
	.st2{fill:#8BB594;}
</style>
<path class="st0" d="M16,0C7.2,0,0,7.2,0,16s7.2,16,16,16s16-7.2,16-16S24.8,0,16,0z M16,1c7.5,0,13.7,5.5,14.8,12.6L16,3.4
	L1.2,13.6C2.3,6.5,8.5,1,16,1z M16,31C8.5,31,2.4,25.5,1.2,18.6c-0.3-1.5,0.2-2.9,1.1-4.1c0.9-1.2,2.4-1.8,3.8-1.8h19.8
	c1.5,0,2.8,0.6,3.8,1.8c0.9,1.1,1.4,2.6,1.1,4C29.6,25.4,23.6,31,16,31z"/>
<path class="st1" d="M16,31C8.5,31,2.4,25.5,1.2,18.6c-0.3-1.5,0.2-2.9,1.1-4.1s2.4-1.8,3.8-1.8c3.6,0,9.7,0,19.8,0
	c1.5,0,2.8,0.6,3.8,1.8c0.9,1.1,1.4,2.6,1.1,4C29.6,25.4,23.6,31,16,31z"/>
<path class="st2" d="M30.8,13.6L16,3.4L1.2,13.6C2.3,6.5,8.5,1,16,1S29.7,6.5,30.8,13.6z"/>
<path class="st0" d="M3.5,20.9h0.3c0,0,0.1,0,0.1,0S4,20.9,4,21c0,0,0,0,0,0.1c0,0,0,0,0,0.1c0,0,0,0,0,0.1s0,0,0,0.1
	c0,0,0,0-0.1,0.1c0,0-0.1,0-0.1,0H3.7v0.3H3.5V20.9z M3.7,21.2h0.2c0,0,0,0,0,0c0,0,0,0,0,0c0,0,0,0,0,0c0,0,0,0,0-0.1s0,0,0-0.1
	s0,0,0,0c0,0,0,0,0,0c0,0,0,0,0,0H3.7V21.2z M4.5,20.9c0.1,0,0.1,0,0.1,0c0,0,0.1,0,0.1,0.1s0,0.1,0.1,0.1s0,0.1,0,0.1s0,0.1,0,0.1
	s0,0.1-0.1,0.1c0,0-0.1,0.1-0.1,0.1c0,0-0.1,0-0.1,0c-0.1,0-0.1,0-0.1,0s-0.1,0-0.1-0.1c0,0,0-0.1-0.1-0.1c0,0,0-0.1,0-0.1
	s0-0.1,0-0.1c0,0,0-0.1,0.1-0.1s0.1-0.1,0.1-0.1C4.4,20.9,4.4,20.9,4.5,20.9z M4.5,21C4.4,21,4.4,21,4.5,21c-0.1,0-0.1,0.1-0.2,0.1
	c0,0,0,0.1,0,0.1c0,0,0,0.1,0,0.1s0,0.1,0,0.1c0,0,0,0.1,0,0.1c0,0,0,0,0.1,0.1c0,0,0.1,0,0.1,0s0.1,0,0.1,0s0,0,0.1-0.1
	c0,0,0-0.1,0-0.1s0-0.1,0-0.1s0-0.1,0-0.1c0,0,0-0.1,0-0.1C4.6,21,4.6,21,4.5,21C4.5,21,4.5,21,4.5,21z M5.4,21.1
	C5.4,21.1,5.3,21.1,5.4,21.1C5.3,21,5.3,21,5.4,21.1C5.3,21,5.3,21,5.3,21c0,0,0,0-0.1,0c0,0-0.1,0-0.1,0c0,0,0,0-0.1,0.1
	c0,0,0,0.1,0,0.1c0,0,0,0.1,0,0.1s0,0.1,0,0.1c0,0,0,0.1,0,0.1c0,0,0,0,0.1,0.1c0,0,0.1,0,0.1,0c0,0,0.1,0,0.1,0c0,0,0,0,0.1,0
	c0,0,0,0,0-0.1s0,0,0-0.1h0.1c0,0,0,0.1,0,0.1c0,0,0,0.1-0.1,0.1s-0.1,0-0.1,0.1s-0.1,0-0.1,0c-0.1,0-0.1,0-0.1,0S5,21.5,5,21.5
	c0,0,0-0.1-0.1-0.1c0,0,0-0.1,0-0.1s0-0.1,0-0.1c0,0,0-0.1,0.1-0.1s0.1-0.1,0.1-0.1c0,0,0.1,0,0.1,0c0,0,0.1,0,0.1,0s0.1,0,0.1,0
	C5.4,21,5.4,21,5.4,21.1c0.1-0.1,0.1,0,0.1,0H5.4z M6,21.1C6,21.1,6,21.1,6,21.1C6,21,6,21,6,21.1C6,21,6,21,5.9,21c0,0,0,0-0.1,0
	c0,0-0.1,0-0.1,0c0,0,0,0-0.1,0.1c0,0,0,0.1,0,0.1c0,0,0,0.1,0,0.1s0,0.1,0,0.1c0,0,0,0.1,0,0.1c0,0,0,0,0.1,0.1c0,0,0.1,0,0.1,0
	c0,0,0.1,0,0.1,0c0,0,0,0,0.1,0c0,0,0,0,0-0.1s0,0,0-0.1h0.1c0,0,0,0.1,0,0.1c0,0,0,0.1-0.1,0.1S6,21.6,6,21.6s-0.1,0-0.1,0
	c-0.1,0-0.1,0-0.1,0s-0.1,0-0.1-0.1c0,0,0-0.1-0.1-0.1c0,0,0-0.1,0-0.1s0-0.1,0-0.1c0,0,0-0.1,0.1-0.1s0.1-0.1,0.1-0.1
	c0,0,0.1,0,0.1,0c0,0,0.1,0,0.1,0s0.1,0,0.1,0C6.1,21,6.1,21,6,21.1c0.1-0.1,0.1,0,0.1,0H6z M6.3,20.9h0.1v0.5l0.3-0.5h0.1v0.7H6.7
	v-0.5l-0.3,0.5H6.3V20.9z M7,20.9h0.1v0.5l0.3-0.5h0.1v0.7H7.4v-0.5l-0.3,0.5H7V20.9z M7.1,20.7C7.1,20.7,7.1,20.7,7.1,20.7
	c0.1,0.1,0.1,0.1,0.1,0.1c0,0,0,0,0.1,0c0,0,0,0,0-0.1h0.1c0,0,0,0.1-0.1,0.1c0,0-0.1,0-0.1,0C7.2,20.8,7.1,20.8,7.1,20.7
	C7.1,20.8,7.1,20.7,7.1,20.7L7.1,20.7z M8.1,21.1C8.1,21.1,8.1,21.1,8.1,21.1C8.1,21,8.1,21,8.1,21.1C8,21,8,21,8,21c0,0,0,0-0.1,0
	c0,0-0.1,0-0.1,0c0,0,0,0-0.1,0.1c0,0,0,0.1,0,0.1c0,0,0,0.1,0,0.1s0,0.1,0,0.1c0,0,0,0.1,0,0.1c0,0,0,0,0.1,0.1c0,0,0.1,0,0.1,0
	c0,0,0.1,0,0.1,0c0,0,0,0,0.1,0c0,0,0,0,0-0.1s0,0,0-0.1h0.1c0,0,0,0.1,0,0.1c0,0,0,0.1-0.1,0.1s-0.1,0-0.1,0.1s-0.1,0-0.1,0
	c-0.1,0-0.1,0-0.1,0s-0.1,0-0.1-0.1c0,0,0-0.1-0.1-0.1c0,0,0-0.1,0-0.1s0-0.1,0-0.1c0,0,0-0.1,0.1-0.1s0.1-0.1,0.1-0.1
	c0,0,0.1,0,0.1,0c0,0,0.1,0,0.1,0s0.1,0,0.1,0C8.2,21,8.2,21,8.1,21.1c0.1-0.1,0.1,0,0.1,0H8.1z M8.3,20.9h0.1v0.3l0.3-0.3h0.1
	l-0.3,0.3l0.3,0.4H8.8l-0.2-0.3l-0.1,0.1v0.2H8.3V20.9z M9.3,20.9c0.1,0,0.1,0,0.1,0c0,0,0.1,0,0.1,0.1s0,0.1,0.1,0.1s0,0.1,0,0.1
	s0,0.1,0,0.1s0,0.1-0.1,0.1c0,0-0.1,0.1-0.1,0.1c0,0-0.1,0-0.1,0c-0.1,0-0.1,0-0.1,0s-0.1,0-0.1-0.1c0,0,0-0.1-0.1-0.1
	c0,0,0-0.1,0-0.1s0-0.1,0-0.1C9,21.1,9,21,9,21s0.1-0.1,0.1-0.1C9.2,20.9,9.2,20.9,9.3,20.9z M9.3,21C9.2,21,9.2,21,9.3,21
	c-0.1,0-0.1,0.1-0.2,0.1c0,0,0,0.1,0,0.1c0,0,0,0.1,0,0.1s0,0.1,0,0.1c0,0,0,0.1,0,0.1c0,0,0,0,0.1,0.1c0,0,0.1,0,0.1,0s0.1,0,0.1,0
	s0,0,0.1-0.1c0,0,0-0.1,0-0.1s0-0.1,0-0.1s0-0.1,0-0.1c0,0,0-0.1,0-0.1C9.4,21,9.4,21,9.3,21C9.3,21,9.3,21,9.3,21z M9.7,20.9h0.5
	V21H9.8v0.2h0.3v0.1H9.8v0.2h0.4v0.1H9.7V20.9z M10.7,21.5c0,0-0.1,0-0.1,0c0,0-0.1,0-0.1-0.1c0,0,0-0.1-0.1-0.1c0,0,0-0.1,0-0.1
	s0-0.1,0-0.1c0,0,0-0.1,0-0.1c0,0,0,0,0.1-0.1c0,0,0.1,0,0.1,0v-0.1h0.1V21c0,0,0.1,0,0.1,0c0,0,0.1,0,0.1,0.1s0,0.1,0,0.1
	s0,0.1,0,0.1s0,0.1,0,0.1c0,0,0,0.1-0.1,0.1c0,0,0,0-0.1,0.1s-0.1,0-0.1,0v0.1L10.7,21.5L10.7,21.5z M10.5,21.2
	C10.5,21.2,10.5,21.3,10.5,21.2c0,0.1,0,0.1,0,0.1c0,0,0,0,0,0s0,0,0.1,0V21c0,0-0.1,0-0.1,0s0,0,0,0C10.5,21.1,10.5,21.1,10.5,21.2
	C10.5,21.2,10.5,21.2,10.5,21.2z M10.9,21.2C10.9,21.2,10.9,21.2,10.9,21.2c0-0.1,0-0.1,0-0.1s0,0,0,0c0,0,0,0-0.1,0v0.4
	c0,0,0.1,0,0.1,0c0,0,0,0,0,0S10.9,21.3,10.9,21.2C10.9,21.3,10.9,21.2,10.9,21.2z M11.2,20.9h0.5V21h-0.4v0.2h0.3v0.1h-0.3v0.2h0.4
	v0.1h-0.5V20.9z M12.3,21.6h-0.5v0.2h-0.1v-0.3h0.1c0,0,0,0,0,0c0,0,0,0,0,0c0,0,0,0,0,0c0,0,0,0,0-0.1c0,0,0,0,0-0.1c0,0,0,0,0-0.1
	c0,0,0,0,0-0.1s0,0,0-0.1c0,0,0-0.1,0-0.1c0,0,0-0.1,0-0.1h0.5v0.6h0.1v0.3h-0.1V21.6z M11.9,21.5h0.3V21H12c0,0,0,0.1,0,0.1
	c0,0,0,0.1,0,0.1c0,0,0,0.1,0,0.1s0,0.1,0,0.1C11.9,21.4,11.9,21.4,11.9,21.5C11.9,21.4,11.9,21.5,11.9,21.5z M12.5,20.9H13V21h-0.4
	v0.2H13v0.1h-0.3v0.2H13v0.1h-0.5V20.9z M13.1,20.9h0.3c0,0,0.1,0,0.1,0s0.1,0,0.1,0.1c0,0,0,0,0,0.1c0,0,0,0,0,0.1c0,0,0,0,0,0.1
	s0,0,0,0.1c0,0,0,0-0.1,0.1c0,0-0.1,0-0.1,0h-0.2v0.3h-0.1V20.9z M13.2,21.2h0.2c0,0,0,0,0,0c0,0,0,0,0,0c0,0,0,0,0,0c0,0,0,0,0-0.1
	s0,0,0-0.1s0,0,0,0c0,0,0,0,0,0c0,0,0,0,0,0h-0.2V21.2z M13.9,20.9h0.1l0.3,0.7h-0.1l-0.1-0.2h-0.3l-0.1,0.2h-0.1L13.9,20.9z
	 M13.9,21.3h0.2L14,21h0L13.9,21.3z M14.4,21.5C14.4,21.5,14.4,21.5,14.4,21.5C14.4,21.5,14.4,21.4,14.4,21.5
	C14.4,21.4,14.4,21.4,14.4,21.5c0.1-0.1,0.1-0.1,0.1-0.1c0,0,0,0,0-0.1c0,0,0,0,0-0.1c0,0,0,0,0-0.1s0,0,0-0.1c0,0,0-0.1,0-0.1
	c0,0,0-0.1,0-0.1h0.5v0.7h-0.1V21h-0.2c0,0,0,0.1,0,0.1c0,0,0,0.1,0,0.1s0,0.1,0,0.1s0,0.1,0,0.1c0,0,0,0,0,0.1c0,0,0,0,0,0.1
	c0,0,0,0-0.1,0.1c0,0-0.1,0-0.1,0c0,0,0,0,0,0C14.3,21.6,14.3,21.6,14.4,21.5L14.4,21.5C14.3,21.5,14.3,21.5,14.4,21.5
	C14.3,21.5,14.3,21.5,14.4,21.5z M15.1,20.9h0.1v0.3h0.2c0,0,0.1,0,0.1,0s0.1,0,0.1,0.1c0,0,0,0,0,0.1s0,0,0,0.1s0,0,0,0.1
	s0,0,0,0.1s0,0-0.1,0.1c0,0-0.1,0-0.1,0h-0.3V20.9z M15.2,21.5h0.2c0,0,0,0,0,0c0,0,0,0,0,0s0,0,0,0s0,0,0-0.1c0,0,0,0,0-0.1
	s0,0,0,0s0,0,0,0c0,0,0,0,0,0h-0.2V21.5z M15.7,20.9h0.1v0.3h0.3v-0.3h0.1v0.7h-0.1v-0.3h-0.3v0.3h-0.1V20.9z M16.7,20.9
	c0.1,0,0.1,0,0.1,0c0,0,0.1,0,0.1,0.1s0,0.1,0.1,0.1s0,0.1,0,0.1s0,0.1,0,0.1s0,0.1-0.1,0.1c0,0-0.1,0.1-0.1,0.1c0,0-0.1,0-0.1,0
	c-0.1,0-0.1,0-0.1,0s-0.1,0-0.1-0.1c0,0,0-0.1-0.1-0.1c0,0,0-0.1,0-0.1s0-0.1,0-0.1c0,0,0-0.1,0.1-0.1s0.1-0.1,0.1-0.1
	C16.6,20.9,16.6,20.9,16.7,20.9z M16.7,21C16.7,21,16.6,21,16.7,21c-0.1,0-0.1,0.1-0.2,0.1c0,0,0,0.1,0,0.1c0,0,0,0.1,0,0.1
	s0,0.1,0,0.1c0,0,0,0.1,0,0.1c0,0,0,0,0.1,0.1c0,0,0.1,0,0.1,0s0.1,0,0.1,0s0,0,0.1-0.1c0,0,0-0.1,0-0.1s0-0.1,0-0.1s0-0.1,0-0.1
	c0,0,0-0.1,0-0.1C16.8,21,16.8,21,16.7,21C16.8,21,16.7,21,16.7,21z M17.1,20.9h0.5V21h-0.4v0.2h0.3v0.1h-0.3v0.2h0.4v0.1h-0.5V20.9
	z M17.8,20.9h0.5V21H18v0.2h0.2c0,0,0.1,0,0.1,0s0.1,0,0.1,0.1c0,0,0,0,0,0.1s0,0,0,0.1s0,0,0,0.1s0,0,0,0.1s0,0-0.1,0.1
	c0,0-0.1,0-0.1,0h-0.3V20.9z M18,21.5h0.2c0,0,0,0,0,0c0,0,0,0,0,0s0,0,0,0c0,0,0,0,0-0.1c0,0,0,0,0-0.1c0,0,0,0,0,0s0,0,0,0
	c0,0,0,0,0,0H18V21.5z M19,20.9c0.1,0,0.1,0,0.1,0c0,0,0.1,0,0.1,0.1c0,0,0,0.1,0.1,0.1s0,0.1,0,0.1s0,0.1,0,0.1s0,0.1-0.1,0.1
	c0,0-0.1,0.1-0.1,0.1s-0.1,0-0.1,0c0,0-0.1,0-0.1,0s-0.1,0-0.1-0.1c0,0,0-0.1-0.1-0.1c0,0,0-0.1,0-0.1h-0.1v0.3h-0.1v-0.7h0.1v0.3
	h0.1c0,0,0-0.1,0-0.1c0,0,0-0.1,0.1-0.1c0,0,0.1,0,0.1-0.1C18.9,20.9,19,20.9,19,20.9z M19,21C19,21,19,21,19,21
	c-0.1,0-0.1,0.1-0.2,0.1s0,0.1,0,0.1c0,0,0,0.1,0,0.1s0,0.1,0,0.1c0,0,0,0.1,0,0.1s0,0,0.1,0.1c0,0,0.1,0,0.1,0s0.1,0,0.1,0
	s0,0,0.1-0.1s0-0.1,0-0.1s0-0.1,0-0.1s0-0.1,0-0.1c0,0,0-0.1,0-0.1S19.2,21,19,21C19.1,21,19.1,21,19,21z M19.5,20.9h0.3
	c0,0,0.1,0,0.1,0s0.1,0,0.1,0.1c0,0,0,0,0,0.1c0,0,0,0,0,0.1c0,0,0,0,0,0.1s0,0,0,0.1c0,0,0,0-0.1,0.1c0,0-0.1,0-0.1,0h-0.2v0.3
	h-0.1V20.9z M19.6,21.2h0.2c0,0,0,0,0,0s0,0,0,0c0,0,0,0,0,0c0,0,0,0,0-0.1s0,0,0-0.1c0,0,0,0,0,0c0,0,0,0,0,0c0,0,0,0,0,0h-0.2
	V21.2z M20.4,20.9c0.1,0,0.1,0,0.1,0c0,0,0.1,0,0.1,0.1c0,0,0,0.1,0.1,0.1s0,0.1,0,0.1s0,0.1,0,0.1s0,0.1-0.1,0.1
	c0,0-0.1,0.1-0.1,0.1s-0.1,0-0.1,0c0,0-0.1,0-0.1,0s-0.1,0-0.1-0.1c0,0,0-0.1-0.1-0.1c0,0,0-0.1,0-0.1s0-0.1,0-0.1
	c0,0,0-0.1,0.1-0.1c0,0,0.1-0.1,0.1-0.1C20.3,20.9,20.3,20.9,20.4,20.9z M20.4,21C20.4,21,20.3,21,20.4,21c-0.1,0-0.1,0.1-0.2,0.1
	s0,0.1,0,0.1c0,0,0,0.1,0,0.1s0,0.1,0,0.1c0,0,0,0.1,0,0.1s0,0,0.1,0.1c0,0,0.1,0,0.1,0s0.1,0,0.1,0s0,0,0.1-0.1s0-0.1,0-0.1
	s0-0.1,0-0.1s0-0.1,0-0.1c0,0,0-0.1,0-0.1S20.5,21,20.4,21C20.5,21,20.4,21,20.4,21z M21.2,20.9h0.1l0.3,0.7h-0.1l-0.1-0.2h-0.3
	l-0.1,0.2H21L21.2,20.9z M21.2,21.3h0.2L21.3,21h0L21.2,21.3z M21.6,21.1C21.6,21.1,21.7,21,21.6,21.1c0-0.1,0.1-0.2,0.1-0.2
	c0,0,0.1,0,0.1,0c0,0,0.1,0,0.1,0c0.1,0,0.1,0,0.1,0c0,0,0.1,0,0.1,0.1c0,0,0,0.1,0.1,0.1s0,0.1,0,0.1s0,0.1,0,0.1s0,0.1-0.1,0.1
	c0,0-0.1,0.1-0.1,0.1c0,0-0.1,0-0.1,0c0,0-0.1,0-0.1,0s-0.1,0-0.1-0.1s0-0.1-0.1-0.1c0,0,0-0.1,0-0.1h0.1c0,0,0,0,0,0.1s0,0,0,0.1
	c0,0,0,0,0.1,0c0,0,0,0,0.1,0c0,0,0.1,0,0.1,0s0,0,0.1,0s0,0,0-0.1c0,0,0-0.1,0-0.1h-0.3v-0.1h0.3c0,0,0-0.1,0-0.1c0,0,0,0,0-0.1
	c0,0,0,0-0.1,0s-0.1,0-0.1,0c0,0-0.1,0-0.1,0c0,0,0,0.1-0.1,0.1H21.6z M22.4,20.9h0.3c0,0,0.1,0,0.1,0s0.1,0,0.1,0.1c0,0,0,0,0,0.1
	c0,0,0,0,0,0.1c0,0,0,0,0,0.1s0,0,0,0.1c0,0,0,0-0.1,0.1c0,0-0.1,0-0.1,0h-0.2v0.3h-0.1V20.9z M22.5,21.2h0.2c0,0,0,0,0,0
	c0,0,0,0,0,0c0,0,0,0,0,0c0,0,0,0,0-0.1s0,0,0-0.1c0,0,0,0,0,0c0,0,0,0,0,0c0,0,0,0,0,0h-0.2V21.2z M23.3,20.9c0.1,0,0.1,0,0.1,0
	c0,0,0.1,0,0.1,0.1c0,0,0,0.1,0.1,0.1s0,0.1,0,0.1s0,0.1,0,0.1s0,0.1-0.1,0.1c0,0-0.1,0.1-0.1,0.1c0,0-0.1,0-0.1,0s-0.1,0-0.1,0
	s-0.1,0-0.1-0.1c0,0,0-0.1-0.1-0.1s0-0.1,0-0.1s0-0.1,0-0.1S23,21,23,21c0,0,0.1-0.1,0.1-0.1C23.2,20.9,23.2,20.9,23.3,20.9z
	 M23.3,21C23.3,21,23.2,21,23.3,21c-0.1,0-0.1,0.1-0.2,0.1c0,0,0,0.1,0,0.1c0,0,0,0.1,0,0.1s0,0.1,0,0.1s0,0.1,0,0.1
	c0,0,0,0,0.1,0.1s0.1,0,0.1,0s0.1,0,0.1,0s0,0,0.1-0.1c0,0,0-0.1,0-0.1s0-0.1,0-0.1s0-0.1,0-0.1c0,0,0-0.1,0-0.1
	C23.4,21,23.4,21,23.3,21C23.4,21,23.3,21,23.3,21z M23.7,20.9h0.1v0.3h0.3v-0.3h0.1v0.7h-0.1v-0.3h-0.3v0.3h-0.1V20.9z M24.6,20.9
	h0.1l0.3,0.7h-0.1l-0.1-0.2h-0.3l-0.1,0.2h-0.1L24.6,20.9z M24.5,21.3h0.2L24.7,21h0L24.5,21.3z M25,20.9h0.3c0.1,0,0.1,0,0.1,0
	c0,0,0.1,0.1,0.1,0.1c0,0,0,0.1,0,0.1s0,0-0.1,0.1v0c0,0,0.1,0,0.1,0.1c0,0,0,0.1,0,0.1c0,0,0,0.1,0,0.1c0,0,0,0,0,0.1
	c0,0,0,0-0.1,0c0,0-0.1,0-0.1,0H25V20.9z M25.2,21.2h0.2c0,0,0.1,0,0.1,0c0,0,0,0,0-0.1c0,0,0-0.1,0-0.1c0,0,0,0-0.1,0h-0.2V21.2z
	 M25.2,21.5h0.2c0,0,0.1,0,0.1,0c0,0,0,0,0-0.1s0-0.1,0-0.1c0,0,0,0-0.1,0h-0.2V21.5z M25.6,20.9h0.5V21H26v0.6h-0.1V21h-0.2V20.9z
	 M26.3,20.9h0.1v0.5l0.3-0.5h0.1v0.7h-0.1v-0.5l-0.3,0.5h-0.1V20.9z M27,20.9h0.1v0.3l0.3-0.3h0.1l-0.3,0.3l0.3,0.4h-0.1l-0.2-0.3
	l-0.1,0.1v0.2H27V20.9z M27.6,20.9h0.1v0.5l0.3-0.5h0.1v0.7H28v-0.5l-0.3,0.5h-0.1V20.9z M19,16.3h-1.9v-0.9h3.3v-1.2h-4.6v5.7H19
	c0.6,0,2.1-0.1,2.1-1.8C21.1,16.4,19.6,16.3,19,16.3z M19,18.9h-1.9v-1.6H19c0.3,0,0.8,0.2,0.8,0.8C19.7,18.7,19.2,18.9,19,18.9z
	 M7,14.2H3.8v5.7h1.3v-2.1H7c0.6,0,2.1-0.1,2.1-1.8C9.1,14.3,7.6,14.2,7,14.2z M7,16.8H5.1v-1.6H7c0.3,0,0.8,0.2,0.8,0.8
	C7.8,16.6,7.3,16.8,7,16.8z M13,14.4v-0.6h-1.3v0.6c-2,0.1-2.5,1.6-2.5,2.7c0,1.7,1,2.8,2.5,2.8v0.6H13v-0.6c1.5,0,2.5-1,2.5-2.8
	C15.5,16,15,14.5,13,14.4z M10.5,17c0-1,0.7-1.7,1.2-1.8v3.6C11.2,18.9,10.5,18.1,10.5,17z M13,18.9v-3.6c0.5,0.1,1.2,0.8,1.2,1.8
	C14.2,18.1,13.5,18.9,13,18.9z M26.8,19.9h1.6l-2.9-5.7H24l-3,5.7h1.4l0.6-1.3h3.2L26.8,19.9z M23.5,17.7l1.1-2.4l1.1,2.4H23.5z"/>
</svg>
