<?xml version="1.0" encoding="utf-8"?>
<!-- Generator: Adobe Illustrator 23.0.4, SVG Export Plug-In . SVG Version: 6.00 Build 0)  -->
<svg version="1.1" id="Layer_1" xmlns="http://www.w3.org/2000/svg" xmlns:xlink="http://www.w3.org/1999/xlink" x="0px" y="0px"
	 width="32px" height="32px" viewBox="0 0 32 32" style="enable-background:new 0 0 32 32;" xml:space="preserve">
<path d="M5.9,16l-0.3,1c0-0.3-0.1-0.7-0.1-1s0-0.7,0.1-1L5.9,16z M8,22.6c0.4,0.5,0.9,1,1.4,1.4l-0.5-0.9L8,22.6z M9.4,8
	C8.9,8.4,8.4,8.9,8,9.4l0.9-0.5L9.4,8z M8.4,22.3l2.5-4.2l-4.8-1.2L6,16.5l-0.3,1.2c0.3,1.6,0.9,3.1,1.8,4.4l1,0.6L8.4,22.3z
	 M6.1,15.1l4.8-1.2L8.4,9.7l0.2-0.3l-1,0.6c-0.9,1.3-1.6,2.8-1.8,4.4L6,15.5L6.1,15.1z M6.2,16l0.2,0.7l4.7,1.2l1.1-1.9L11,14.1
	l-4.7,1.2L6.2,16z M9,23l0.6,0.3l4.2-2.4l-0.6-2.1l-2.1-0.6l-2.4,4.2L9,23z M9,9L8.7,9.7l2.4,4.2l2.1-0.6l0.6-2.1L9.7,8.7L9,9z
	 M15.1,25.9l-1.2-4.8l-4.2,2.5l-0.3-0.2l0.6,1c1.3,0.9,2.8,1.6,4.4,1.8l1.2-0.3L15.1,25.9z M9.7,8.4l4.2,2.5l1.2-4.8L15.5,6
	l-1.2-0.3C12.7,6,11.2,6.6,9.9,7.6l-0.6,1L9.7,8.4z M13.3,13.5L11.3,14l1.1,1.8h3.4L13.3,13.5z M11.3,18l2.1,0.5l2.4-2.4h-3.4
	L11.3,18z M13.5,13.3l2.4,2.4v-3.4L14,11.3L13.5,13.3z M15.9,19.7v-3.4l-2.4,2.4l0.5,2.1L15.9,19.7z M15,26.3c0.3,0,0.7,0.1,1,0.1
	s0.7,0,1-0.1l-1-0.3L15,26.3z M17,5.7c-0.3,0-0.7-0.1-1-0.1s-0.7,0-1,0.1l1,0.3L17,5.7z M16,25.8l0.7-0.2l1.2-4.7L16,19.9L14.1,21
	l1.2,4.7L16,25.8z M16,6.2l-0.7,0.2L14.1,11l1.9,1.1l1.9-1.1l-1.2-4.7L16,6.2z M16.1,12.3v3.4l2.4-2.4L18,11.3L16.1,12.3z
	 M18.5,18.7l-2.4-2.4v3.4l1.8,1.1L18.5,18.7z M18.7,18.5l2.1-0.5l-1.1-1.8h-3.4L18.7,18.5z M18.7,13.5l-2.4,2.4h3.4l1.1-1.8
	L18.7,13.5z M22.3,23.6l-4.2-2.5l-1.2,4.8L16.5,26l1.2,0.3c1.6-0.3,3.1-0.9,4.4-1.8l0.6-1L22.3,23.6z M16.9,6.1l1.2,4.8l4.2-2.5
	l0.3,0.2l-0.6-1c-1.3-0.9-2.8-1.6-4.4-1.8L16.5,6L16.9,6.1z M23,23l0.3-0.6l-2.4-4.2l-2.1,0.6l-0.6,2.1l4.2,2.4L23,23z M23.3,9.7
	L23,9l-0.6-0.3l-4.2,2.4l0.6,2.1l2.1,0.6L23.3,9.7z M22.6,24c0.5-0.4,1-0.9,1.4-1.4l-0.9,0.5L22.6,24z M24,9.4
	c-0.4-0.5-0.9-1-1.4-1.4l0.5,0.9L24,9.4z M25.8,16l-0.2-0.7L21,14.1L19.9,16l1.1,1.9l4.7-1.2L25.8,16z M23.6,9.7l-2.5,4.2l4.8,1.2
	l0.1,0.4l0.3-1.2c-0.3-1.6-0.9-3.1-1.8-4.4l-1-0.6L23.6,9.7z M25.9,16.9l-4.8,1.2l2.5,4.2l-0.2,0.3l1-0.6c0.9-1.3,1.6-2.8,1.8-4.4
	L26,16.5L25.9,16.9z M26.3,15l-0.3,1l0.3,1c0-0.3,0.1-0.7,0.1-1S26.4,15.3,26.3,15z M28.8,19.8l-1.5,0.9l0.5,1.7l-5.4,5.4l-1.7-0.5
	l-0.9,1.5h-7.6l-0.9-1.5l-1.7,0.5l-5.4-5.4l0.4-1.7l-1.5-0.9v-7.6l1.5-0.9L4.2,9.6l5.4-5.4l1.7,0.4l0.9-1.5h7.6l0.9,1.5l1.7-0.4
	l5.4,5.4l-0.5,1.7l1.5,0.9V19.8z M28.6,12.3l-1.3-0.8L26.3,15c0-0.2,0-0.5-0.1-0.7l0.8-2.9l-2.6-1.5c-0.1-0.2-0.3-0.3-0.4-0.5
	l3.1,1.8l0.4-1.5l-5.2-5.2l-1.5,0.4L22.6,8c-0.2-0.1-0.3-0.3-0.5-0.4L20.6,5l-2.9,0.8c-0.2,0-0.4-0.1-0.7-0.1l3.4-0.9l-0.8-1.3h-7.3
	l-0.8,1.3L15,5.7c-0.2,0-0.5,0-0.7,0.1L11.4,5L9.9,7.6C9.7,7.7,9.6,7.8,9.4,8l1.8-3.1L9.7,4.5L4.5,9.7l0.4,1.5L8,9.4
	C7.8,9.6,7.7,9.7,7.6,9.9L5,11.4l0.8,2.9c0,0.2-0.1,0.4-0.1,0.7l-0.9-3.4l-1.3,0.8v7.3l1.3,0.8L5.7,17c0,0.2,0,0.5,0.1,0.7L5,20.6
	l2.6,1.5c0.1,0.2,0.3,0.3,0.4,0.5l-3.1-1.8l-0.4,1.5l5.2,5.2l1.5-0.4L9.4,24c0.2,0.1,0.3,0.3,0.5,0.4l1.5,2.6l2.9-0.8
	c0.2,0,0.4,0.1,0.7,0.1l-3.4,0.9l0.8,1.3h7.3l0.8-1.3L17,26.3c0.2,0,0.5,0,0.7-0.1l2.9,0.8l1.5-2.6c0.2-0.1,0.3-0.3,0.5-0.4
	l-1.8,3.1l1.5,0.4l5.2-5.2l-0.4-1.5L24,22.6c0.1-0.2,0.3-0.3,0.4-0.5l2.6-1.5l-0.8-2.9c0-0.2,0.1-0.4,0.1-0.7l0.9,3.4l1.3-0.8V12.3z
	 M31.1,15.1c-0.5,0-0.9,0.4-0.9,0.9c0,0.5,0.4,0.9,0.9,0.9c0.5,0,0.9-0.4,0.9-0.9C32,15.5,31.6,15.1,31.1,15.1z M16,0
	c-0.5,0-0.9,0.4-0.9,0.9s0.4,0.9,0.9,0.9c0.5,0,0.9-0.4,0.9-0.9S16.5,0,16,0z M0.9,15.1C0.4,15.1,0,15.5,0,16c0,0.5,0.4,0.9,0.9,0.9
	s0.9-0.4,0.9-0.9C1.8,15.5,1.4,15.1,0.9,15.1z M16,30.2c-0.5,0-0.9,0.4-0.9,0.9c0,0.5,0.4,0.9,0.9,0.9c0.5,0,0.9-0.4,0.9-0.9
	C16.9,30.6,16.5,30.2,16,30.2z"/>
</svg>
