<!-- Generated by IcoMoon.io -->
<svg version="1.1" xmlns="http://www.w3.org/2000/svg" width="32" height="32" viewBox="0 0 32 32">
<title>flashpoint</title>
<path d="M3.454 19.472v-7.313l1.514-0.877-0.467-1.718 5.19-5.196 1.752 0.477 0.898-1.592h7.359c0.27 0.471 0.554 0.968 0.837 1.463 0.242 0.089 0.452-0.032 0.669-0.075 0.318-0.075 0.627-0.182 0.942-0.267 0.032-0.004 0.069-0.007 0.106-0.007s0.074 0.003 0.11 0.008l-0.004-0 5.111 5.11c-0.015 0.596-0.359 1.163-0.388 1.807l1.506 0.872v7.318l-1.594 0.913c0.154 0.578 0.314 1.175 0.465 1.737l-5.205 5.204-1.688-0.468-0.867 1.511h-7.355l-0.847-1.48c-0.319-0.054-0.598 0.1-0.891 0.171-0.309 0.075-0.618 0.151-0.896 0.222l-5.138-5.14c0.015-0.596 0.359-1.163 0.388-1.807zM21.595 6.928l0.075 0.075c0 0.025-0.010 0.056 0 0.075 0.211 0.352 0.428 0.7 0.635 1.054 0.079 0.135 0.136 0.282 0.203 0.423-0.208-0.127-0.385-0.040-0.515 0.058-0.112 0.076-0.241 0.152-0.376 0.221l-0.021 0.010c-0.222 0.128-0.461 0.231-0.671 0.377-0.541 0.377-1.137 0.654-1.694 1.001-0.238 0.151-0.483 0.288-0.726 0.426-0.151 0.088-0.301 0.233-0.498 0.191-0.035-0.085-0.070-0.191-0.098-0.3l-0.004-0.018c-0.066-0.358-0.195-0.699-0.279-1.050-0.075-0.308-0.169-0.609-0.242-0.915-0.083-0.342-0.187-0.678-0.27-1.020-0.075-0.317-0.17-0.63-0.256-0.945-0.031-0.155-0.096-0.292-0.187-0.407l0.002 0.002-0.329-0.038c0.173-0.053 0.288-0.080 0.395-0.122 0.316-0.123 0.66-0.14 0.973-0.288 0.155-0.075 0.351-0.060 0.527-0.090 0.011 0 0.017-0.032 0.040-0.075h-0.296c0.377-0.209 0.797-0.264 1.194-0.383s0.805-0.226 1.248-0.328c-0.266-0.51-0.547-0.979-0.821-1.463h-7.168c-0.284 0.495-0.566 0.986-0.851 1.483l2.474 0.667c-0.483 0.075-0.848-0.075-1.223-0.18-0.429-0.119-0.863-0.221-1.286-0.329-0.075 0.075-0.157 0.124-0.194 0.199-0.256 0.527-0.584 1.011-0.854 1.528-0.020 0.046-0.039 0.101-0.053 0.158l-0.002 0.007-0.075 0.075-0.226 0.151c-0.009-0.179 0.108-0.315 0.192-0.445 0.36-0.557 0.652-1.152 1.016-1.732l-1.639-0.443-5.045 5.045c0.151 0.55 0.301 1.095 0.452 1.657 0.040-0.048 0.084-0.091 0.132-0.13l0.002-0.001c0.352-0.206 0.707-0.409 1.061-0.611 0.315-0.181 0.65-0.325 0.936-0.555 0.023-0.018 0.075 0 0.111 0-0 0.007-0 0.015-0 0.024 0 0.047 0.003 0.094 0.008 0.139l-0.001-0.005-0.014-0.015-0.062 0.053 0.024 0.023c0.018-0.019 0.033-0.042 0.044-0.066l0.001-0.001c0.038 0 0.089 0.016 0.111 0 0.349-0.284 0.766-0.456 1.146-0.689 0.044-0.027 0.094-0.047 0.178-0.087-0.075 0.175-0.118 0.282-0.022 0.435 0.235 0.377 0.425 0.776 0.648 1.16 0.258 0.447 0.546 0.877 0.79 1.331 0.127 0.237 0.27 0.465 0.404 0.697 0.151 0.262 0.297 0.527 0.46 0.82-0.172 0.050-0.329 0.087-0.48 0.142-0.302 0.11-0.685 0.221-1.076 0.309l-0.067 0.013c-0.537 0.128-1.068 0.282-1.605 0.41-0.462 0.11-0.923 0.246-1.414 0.394l-0.167 0.393c-0.101-0.368-0.205-0.739-0.301-1.113-0.069-0.256-0.175-0.527-0.096-0.779 0.052-0.167 0.075-0.343 0.136-0.507s0.096-0.337 0.151-0.501c0.261-0.741 0.452-1.264 0.971-2.082 0.039-0.082 0.074-0.177 0.098-0.277l0.002-0.010-2.054 1.189c0 0.061-0.032 0.164 0.006 0.205 0.117 0.127 0.023 0.315 0.145 0.432 0.063 0.467 0.252 0.904 0.346 1.361 0.055 0.267 0.17 0.527 0.070 0.853l-0.736-2.751-1.404 0.797v7.154l1.462 0.827c0.029-0.134 0.046-0.237 0.075-0.337 0.087-0.301 0.184-0.607 0.248-0.91 0.093-0.438 0.266-0.855 0.319-1.302 0.005-0.044 0.070-0.082 0.118-0.134l0.063 0.252c0.129-0.478 0.248-0.92 0.386-1.431 0.030 0.266 0.204 0.337 0.335 0.347 0.254 0.020 0.465 0.194 0.723 0.172 0.57 0.208 1.163 0.349 1.748 0.499 0.656 0.169 1.3 0.392 1.989 0.494-0.151 0.28-0.278 0.542-0.429 0.79-0.058 0.076-0.134 0.136-0.222 0.173l-0.004 0.001c-0.282 0.141-0.511 0.273-0.733 0.415l0.032-0.019c-0.541 0.351-1.116 0.643-1.668 0.974-0.328 0.202-0.665 0.388-1.002 0.578-0.364-0.368-0.992-2.025-1.151-2.861h-0.080c-0.211 0.787-0.422 1.577-0.631 2.358 0.186 0.116 0.377 0.233 0.562 0.352 0.237 0.151 0.495 0.263 0.73 0.422 0.271 0.183 0.577 0.316 0.935 0.506l-0.295-0.505c0.345-0.183 0.673-0.337 0.979-0.527 0.429-0.264 0.861-0.521 1.3-0.769 0.27-0.151 0.538-0.311 0.841-0.486-0.015 0.058-0.033 0.109-0.054 0.157l0.002-0.006q-0.243 0.427-0.492 0.851c-0.267 0.452-0.527 0.911-0.803 1.362-0.108 0.18-0.301 0.385-0.139 0.666-0.414-0.231-0.828-0.462-1.248-0.684l0.014-0.014-0.052-0.062-0.024 0.023c0.019 0.019 0.042 0.034 0.067 0.045l0.001 0.001v0.151c-0.051-0.003-0.098-0.013-0.142-0.030l0.003 0.001c-0.151-0.087-0.301-0.184-0.452-0.272-0.284-0.163-0.572-0.317-0.85-0.492-0.294-0.186-0.611-0.336-0.938-0.513l-0.426 1.625 5.045 5.045 1.623-0.422c-0.121-0.226-0.226-0.428-0.344-0.63s-0.234-0.405-0.356-0.602-0.258-0.394-0.377-0.597-0.206-0.399-0.337-0.659l0.26 0.187c0.025 0.025 0.050 0.050 0.013 0.021l1.303 2.233 2.38-0.636-0.075-0.075c-1.302-0.268-2.454-0.787-3.539-1.468l-0.075-0.075c0-0.038 0.014-0.084 0-0.112-0.156-0.262-0.321-0.519-0.475-0.782-0.080-0.136-0.144-0.283-0.258-0.509 0.243 0.192 0.42 0.128 0.554 0.030 0.306-0.226 0.649-0.377 0.968-0.576s0.674-0.371 1.008-0.563c0.264-0.151 0.515-0.329 0.782-0.474 0.248-0.134 0.491-0.273 0.727-0.426 0.112-0.067 0.248-0.138 0.389-0.202l0.027-0.011c0.066 0.232 0.151 0.431 0.175 0.637 0.048 0.352 0.177 0.684 0.26 1.026 0.104 0.428 0.226 0.855 0.357 1.28 0.151 0.481 0.261 0.972 0.377 1.462 0.044 0.179 0.102 0.336 0.327 0.394l-1.386 0.373 0.158 0.075-0.005 0.082-2.549 0.674c0 0.013-0.015 0.042-0.006 0.059 0.258 0.471 0.518 0.941 0.77 1.396h7.184l0.788-1.377c-0.316-0.132-0.69-0.248-1.078-0.328l-0.041-0.007c-0.343-0.075-0.669-0.248-1.032-0.24-0.156-0.141-0.403-0.044-0.555-0.216 0.165 0 0.337-0.038 0.482 0.006 0.602 0.186 1.222 0.309 1.822 0.507 0.145 0.039 0.316 0.070 0.492 0.086l0.012 0.001c0.196-0.368 0.4-0.697 0.593-1.027 0.135-0.231 0.217-0.504 0.424-0.693 0.006-0.19 0.236-0.273 0.226-0.471l0.075-0.075 0.221-0.081-1.388 2.397c0.541 0.188 1.075 0.301 1.557 0.438q2.547-2.547 5.077-5.077l-0.436-1.605c-0.401 0.239-0.759 0.488-1.148 0.678s-0.734 0.475-1.2 0.642l0.178-0.249 0.075-0.075c0.050-0.002 0.098-0.013 0.142-0.030l-0.003 0.001c0.394-0.226 0.782-0.465 1.191-0.669 0.252-0.125 0.475-0.307 0.72-0.469l-0.598-2.281c-0.317 0.979-0.587 1.933-1.111 2.791-0.452-0.251-0.894-0.466-1.304-0.731-0.434-0.281-0.895-0.511-1.333-0.785-0.28-0.189-0.601-0.37-0.937-0.524l-0.042-0.017c-0.046-0.023-0.082-0.059-0.106-0.103l-0.001-0.001c-0.132-0.246-0.258-0.495-0.395-0.764 0.074-0.034 0.168-0.070 0.265-0.101l0.021-0.006c0.328-0.087 0.67-0.137 0.986-0.257 0.471-0.178 0.985-0.205 1.442-0.422 0.556-0.050 1.059-0.318 1.612-0.381 0.109-0.020 0.205-0.064 0.287-0.126l-0.002 0.001c0.051-0.034 0.075-0.111 0.13-0.203 0.151 0.553 0.29 1.080 0.429 1.598l0.142-0.212q0.337 1.262 0.658 2.468l1.486-0.854v-7.154c-0.497-0.254-0.949-0.585-1.454-0.789-0.23 0.87-0.452 1.716-0.678 2.56-0.052-0.254-0.069-0.505 0.035-0.747 0.111-0.261 0.14-0.542 0.221-0.81 0.111-0.369 0.203-0.744 0.301-1.116-0.103-0.053-0.209-0.101-0.309-0.16-0.202-0.12-0.397-0.251-0.602-0.37-0.313-0.185-0.651-0.326-0.937-0.557-0.023-0.019-0.075 0-0.111 0l-0.075-0.075c-0.047-0.070-0.094-0.139-0.141-0.209 0.758 0.383 1.473 0.813 2.227 1.216 0.122-0.585 0.301-1.116 0.404-1.618l-5.047-5.053-1.608 0.427 1.27 2.197-0.264-0.127c-0.025-0.026-0.050-0.050-0.015-0.031-0.207-0.388-0.394-0.71-0.586-1.029s-0.381-0.66-0.587-1.019c-0.063 0.058-0.094 0.114-0.131 0.117-0.566 0.056-1.079 0.338-1.647 0.377-0.071 0.131-0.301 0.010-0.326 0.189 1.218 0.285 2.292 0.74 3.261 1.347l-0.045-0.026z"></path>
<path d="M24.833 10.166l0.075 0.075c0.157 0.26 0.226 0.571 0.452 0.791 0.045 0.355 0.273 0.639 0.389 0.968s0.226 0.659 0.342 0.986c0.075 0.204 0.151 0.441 0.096 0.678-0.045 0.26-0.097 0.479-0.161 0.693l0.011-0.042c-0.125 0.364-0.184 0.748-0.343 1.166-0.018-0.136-0.029-0.222-0.040-0.31-0.138-0.215-0.396-0.181-0.602-0.252-0.309-0.108-0.646-0.133-0.955-0.241-0.355-0.124-0.733-0.168-1.078-0.301-0.188-0.069-0.424-0.137-0.666-0.191l-0.040-0.007c-0.431-0.111-0.855-0.255-1.292-0.33-0.099-0.135 0.008-0.248 0.063-0.331 0.296-0.452 0.539-0.934 0.821-1.392 0.324-0.527 0.593-1.092 0.95-1.604 0.165-0.236 0.275-0.511 0.404-0.772 0.091-0.184 0.087-0.186-0.007-0.428 0.075 0.035 0.127 0.052 0.172 0.075 0.416 0.238 0.828 0.479 1.246 0.716 0.046 0.021 0.101 0.039 0.158 0.052l0.006 0.001z"></path>
<path d="M10.375 7.003l0.075-0.075c0.025 0 0.057 0.010 0.075 0 0.221-0.155 0.489-0.236 0.703-0.386 0.265-0.185 0.569-0.279 0.847-0.42 0.224-0.114 0.485-0.212 0.758-0.28l0.026-0.006c0.202-0.052 0.404-0.109 0.602-0.177 0.221-0.075 0.447 0.053 0.669 0.096 0.356 0.070 0.694 0.214 1.054 0.275 0.086 0.025 0.161 0.058 0.23 0.1l-0.005-0.003c-0.071 0.053-0.163 0.093-0.203 0.162-0.036 0.065-0.063 0.141-0.075 0.222l-0 0.004c-0.075 0.552-0.27 1.074-0.406 1.607-0.123 0.483-0.236 0.974-0.397 1.451-0.105 0.308-0.158 0.635-0.262 0.946-0.015 0.045 0 0.102-0.014 0.145-0.038 0.076-0.076 0.14-0.118 0.201l0.004-0.005c-0.255-0.139-0.513-0.273-0.764-0.419-0.233-0.136-0.452-0.29-0.691-0.423-0.468-0.267-0.947-0.514-1.392-0.821-0.238-0.163-0.516-0.268-0.771-0.406-0.093-0.051-0.168-0.143-0.264-0.18-0.151-0.058-0.309-0.226-0.52-0.054 0.067-0.142 0.124-0.289 0.203-0.424 0.208-0.354 0.425-0.703 0.636-1.054 0.010-0.016 0-0.047 0-0.074z"></path>
<path d="M21.821 24.398l-0.075 0.075c-0.501 0.323-1.081 0.63-1.687 0.889l-0.077 0.029c-0.367 0.151-0.745 0.26-1.111 0.406-0.204 0.076-0.446 0.139-0.695 0.179l-0.022 0.003c-0.218 0.041-0.421-0.065-0.628-0.115-0.377-0.091-0.747-0.196-1.116-0.294l0.413-0.169c0.116-0.546 0.294-1.066 0.412-1.605 0.066-0.305 0.178-0.602 0.259-0.904 0.115-0.429 0.221-0.861 0.337-1.291 0.075-0.27 0.157-0.536 0.246-0.835 0.157 0.075 0.306 0.139 0.44 0.226 0.226 0.145 0.459 0.28 0.697 0.405 0.28 0.151 0.537 0.337 0.812 0.495 0.385 0.221 0.779 0.422 1.163 0.642 0.265 0.151 0.527 0.315 0.78 0.478 0.203 0.129 0.283 0.143 0.548 0.050-0.070 0.155-0.108 0.308-0.197 0.42-0.194 0.242-0.288 0.54-0.472 0.785-0.023 0.029-0.017 0.086-0.026 0.13z"></path>
<path d="M17.834 20.606c-0.024 0.151-0.024 0.338-0.084 0.501-0.209 0.571-0.292 1.175-0.504 1.747-0.079 0.213-0.111 0.452-0.169 0.683-0.087 0.34-0.169 0.678-0.272 1.017-0.037 0.123 0.005 0.268-0.104 0.37-0.016 0.337-0.258 0.412-0.527 0.456-0.068 0.011-0.133 0.035-0.23 0.061l-0.559-0.151-1.242-4.639 1.878-1.089z"></path>
<path d="M11.183 17.696l-4.633-1.242-0.151-0.568 0.166-0.615c0.151-0.063 0.316-0.166 0.494-0.2 0.339-0.065 0.625-0.14 0.904-0.231l-0.052 0.015c0.278-0.089 0.563-0.165 0.844-0.226 0.367-0.083 0.725-0.194 1.090-0.283 0.352-0.087 0.7-0.191 1.054-0.267 0.114-0.024 0.221-0.080 0.325-0.065 0.352 0.607 0.697 1.205 1.045 1.807z"></path>
<path d="M18.772 13.246c-0.179-0.081-0.226-0.278-0.253-0.439-0.046-0.276-0.108-0.518-0.188-0.751l0.010 0.032c-0.075-0.221-0.081-0.459-0.192-0.672-0.045-0.085-0.008-0.214-0.008-0.311 0.285-0.158 0.562-0.308 0.834-0.465 0.233-0.133 0.458-0.278 0.696-0.404 0.452-0.241 0.884-0.527 1.328-0.788 0.413-0.241 0.833-0.471 1.262-0.712 0.39 0.157 0.702 0.408 0.844 0.853-0.317 0.492-0.602 1.015-0.893 1.535-0.237 0.426-0.489 0.847-0.723 1.276-0.275 0.526-0.533 0.959-0.811 1.376l0.034-0.054c-0.651-0.080-1.28-0.334-1.941-0.474z"></path>
<path d="M13.915 11.136l-0.547 2.025-2.050 0.555c-0.311-0.563-0.619-1.13-0.953-1.67-0.404-0.659-0.731-1.364-1.188-1.992-0.1-0.138-0.151-0.314-0.226-0.483 0.11-0.407 0.418-0.653 0.847-0.837 0.413 0.246 0.864 0.517 1.317 0.782 0.211 0.123 0.428 0.236 0.643 0.352 0.587 0.313 1.13 0.703 1.732 0.983 0.152 0.069 0.277 0.183 0.425 0.286z"></path>
<path d="M20.821 17.627l-1.046-1.807 1.038-1.8 4.53 1.218c0.151 0.133 0.123 0.334 0.199 0.486 0.098 0.197 0 0.345-0.028 0.517-0.012 0.086-0.071 0.155-0.149 0.183l-0.002 0c-0.233 0.117-0.49 0.151-0.736 0.221-0.428 0.12-0.861 0.226-1.292 0.333-0.352 0.088-0.704 0.184-1.050 0.285-0.413 0.122-0.841 0.196-1.245 0.35-0.047 0.011-0.102 0.017-0.158 0.017-0.021 0-0.042-0.001-0.063-0.003l0.003 0z"></path>
<path d="M23.098 22.034c-0.122 0.468-0.457 0.682-0.842 0.865-0.448-0.285-0.919-0.546-1.383-0.817-0.43-0.252-0.867-0.5-1.309-0.736-0.392-0.209-0.763-0.458-1.145-0.684-0.089-0.053-0.189-0.088-0.297-0.138 0.182-0.678 0.364-1.352 0.55-2.040 0.156-0.099 0.363-0.091 0.547-0.169 0.168-0.072 0.361-0.075 0.535-0.16 0.116-0.055 0.226 0.045 0.328 0.105 0.392 0.234 0.78 0.476 1.171 0.713 0.018 0.011 0.048 0 0.084 0.006z"></path>
<path d="M9.794 22.898c-0.413-0.172-0.713-0.425-0.848-0.854l1.745-3.029c0.319-0.174 0.657-0.335 0.971-0.535 0.472-0.301 0.498-0.313 1.054-0.143 0.157 0.048 0.318 0.083 0.516 0.135 0.151 0.067 0.194 0.265 0.226 0.425 0.102 0.482 0.246 0.95 0.383 1.422 0.005 0.035 0.008 0.077 0.008 0.118s-0.003 0.083-0.008 0.123l0.001-0.005z"></path>
<path d="M15.47 6.37l0.352-0.12c0.011 0.006 0.021 0.012 0.030 0.018l-0.001-0c0.008 0.008 0.020 0.019 0.020 0.029 0 1.883 0 3.76 0 5.677-0.565-0.297-1.084-0.64-1.663-0.946 0.020-0.199 0.053-0.38 0.101-0.555l-0.005 0.023c0.197-0.574 0.347-1.163 0.495-1.747 0.161-0.636 0.383-1.258 0.477-1.913 0.025-0.163 0.131-0.318 0.194-0.466z"></path>
<path d="M14.086 20.416l-0.532-1.944 2.233-2.233c0.026 0.016 0.048 0.032 0.069 0.050l-0.001-0.001c0.008 0.008 0.014 0.018 0.017 0.030l0 0c0 1.026 0 2.051 0 3.066z"></path>
<path d="M11.471 13.904l1.923-0.506c0.708 0.635 2.033 1.983 2.177 2.219-0.006 0.011-0.013 0.021-0.020 0.030l0-0c-0.008 0.008-0.020 0.018-0.029 0.018h-3.082c-0.312-0.59-0.697-1.139-0.969-1.761z"></path>
<path d="M18.454 18.407c-0.175 0.669-0.34 1.291-0.508 1.932-0.346-0.039-0.593-0.297-0.89-0.452s-0.566-0.325-0.864-0.498v-3.109c0.026-0.007 0.044-0.016 0.048-0.011q1.102 1.066 2.215 2.139z"></path>
<path d="M14.102 11.295c0.348 0.037 0.594 0.296 0.89 0.447s0.566 0.326 0.88 0.51v1.346c0 0.401 0.007 0.802 0 1.205-0.004 0.178-0.040 0.355-0.181 0.486l-2.085-2.088q0.24-0.928 0.495-1.907z"></path>
<path d="M18.617 13.425l1.958 0.536c-0.328 0.574-0.643 1.13-0.965 1.694h-3.032l-0.096-0.096z"></path>
<path d="M16.184 6.294l0.407 0.158 1.231 4.576-1.639 0.954z"></path>
<path d="M16.174 12.248l1.7-0.988c0.186 0.673 0.364 1.319 0.538 1.952l-2.059 2.059c-0.163-0.401-0.192-0.828-0.182-1.267 0.013-0.588 0.003-1.177 0.003-1.756z"></path>
<path d="M11.432 17.738q0.502-0.883 1.003-1.764h2.861c-0.415 0.294-0.896 0.594-1.394 0.865l-0.077 0.038c-0.264 0.151-0.527 0.301-0.791 0.456s-0.532 0.291-0.796 0.438c-0.043 0.027-0.079 0.059-0.109 0.096l-0.001 0.001c-0.071 0.075-0.145 0.062-0.232 0.028-0.155-0.057-0.31-0.106-0.464-0.159z"></path>
<path d="M16.826 15.978h2.786c0.314 0.572 0.686 1.133 0.979 1.766l-0.66 0.119c-0.99-0.645-2.033-1.136-2.986-1.767-0.043-0.036-0.082-0.075-0.117-0.116l-0.001-0.001z"></path>
<path d="M24.758 21.461l-0.075 0.075c-0.215 0.039-0.37 0.197-0.554 0.294-0.277 0.151-0.544 0.315-0.862 0.5 0.018-0.175 0.126-0.306 0.005-0.452-0.087-0.103-0.13-0.244-0.213-0.361-0.098-0.149-0.202-0.327-0.298-0.511l-0.016-0.035c-0.281-0.497-0.572-0.989-0.847-1.489-0.032-0.056-0.056-0.116-0.11-0.226 1.077 0.651 2.13 1.217 3.125 1.849-0.010 0.169-0.209 0.205-0.154 0.355z"></path>
<path d="M24.566 9.759c-0.598-0.276-1.079-0.602-1.581-0.886-0.293-0.504-0.587-1.008-0.892-1.532 0.233 0.081 0.584 0.321 1.323 1.064 0.405 0.411 0.783 0.854 1.127 1.321l0.023 0.033z"></path>
<path d="M16.957 16.486c0.15 0.048 0.278 0.106 0.4 0.175l-0.010-0.005c0.447 0.301 0.922 0.555 1.391 0.818 0.275 0.151 0.538 0.33 0.828 0.508l-0.861 0.252z"></path>
<path d="M7.669 9.654c0.316-0.541 0.697-1.004 1.14-1.397l0.006-0.005c0.337-0.306 0.657-0.657 1.144-0.916-0.322 0.547-0.602 1.025-0.898 1.532-0.425 0.274-0.906 0.532-1.392 0.785z"></path>
<path d="M15.044 16.606l-1.673 1.673-0.904-0.231c0.408-0.327 0.864-0.533 1.28-0.797s0.853-0.473 1.28-0.707z"></path>
<path d="M26.299 14.163c0.009 0.355 0.151 0.69 0.122 1.049-0.013 0.168-0.021 0.365-0.021 0.563s0.007 0.394 0.022 0.588l-0.002-0.026c0.026 0.36-0.139 0.692-0.075 1.054h-0.12c-0.136-0.506-0.268-1.002-0.396-1.477z"></path>
<path d="M22.987 22.758l1.326-0.779c-0.015 0.069-0.011 0.12-0.035 0.151-0.426 0.536-0.923 1.007-1.411 1.484-0.189 0.182-0.403 0.339-0.637 0.465l-0.015 0.008z"></path>
<path d="M9.773 24.021c-0.038 0-0.090 0.016-0.11 0-0.452-0.419-0.898-0.843-1.346-1.265-0.106-0.274-0.425-0.395-0.502-0.69 0.038 0 0.090-0.017 0.11 0 0.226 0.215 0.527 0.301 0.778 0.47 0.114 0.075 0.234 0.151 0.377 0.242z"></path>
<path d="M17.428 26.112c-0.517 0.035-0.968 0.088-1.418 0.088s-0.878-0.057-1.33-0.090l-0.017-0.091c0.385-0.157 0.799-0.187 1.184-0.331 0.176-0.066 0.364 0.081 0.551 0.104 0.258 0.032 0.486 0.175 0.748 0.194 0.076 0.005 0.148 0.064 0.28 0.127z"></path>
<path d="M5.733 14.311c0.123 0.438 0.215 0.788 0.322 1.13 0.038 0.123 0.010 0.26 0.099 0.377 0.030 0.040 0.029 0.16 0 0.178-0.151 0.093-0.028 0.254-0.119 0.373-0.075 0.102-0.075 0.268-0.103 0.405-0.029 0.126-0.061 0.251-0.093 0.377-0.085-0.078-0.138-0.19-0.138-0.314 0-0.016 0.001-0.031 0.002-0.046l-0 0.002c0.005-0.765 0-1.53 0-2.295 0.004-0.032 0.013-0.067 0.029-0.185z"></path>
<path d="M15.866 5.346v0.614c-0.572-0.084-1.099-0.293-1.732-0.428 0.26-0.047 0.433-0.086 0.608-0.108s0.352 0 0.535-0.065c0.165-0.057 0.371-0.012 0.589-0.012z"></path>
<path d="M16.185 5.931v-0.48l0.116-0.117 1.263 0.107 0.075 0.113z"></path>
<path d="M20.962 18.444l-0.671-0.406 0.425-0.128 0.297 0.493z"></path>
<path d="M11.046 18.489c0.019-0.233 0.136-0.367 0.273-0.489h0.226l0.123 0.124z"></path>
<path d="M7.521 21.756l0.062 0.053-0.024 0.023-0.052-0.061z"></path>
<path d="M7.808 22.073l-0.062-0.053 0.024-0.023 0.052 0.062z"></path>
<path d="M10.157 7.163l-0.052 0.061-0.024-0.023 0.062-0.053z"></path>
<path d="M7.356 9.935l0.052-0.062 0.024 0.023-0.062 0.053z"></path>
<path d="M15.037 16.562l0.052-0.062 0.024 0.023-0.062 0.053z"></path>
<path d="M7.672 9.648l-0.052 0.061-0.024-0.023 0.062-0.053z"></path>
<path d="M11.061 18.458l-0.052 0.061-0.024-0.023 0.062-0.053z"></path>
<path d="M9.78 24.015l0.062 0.053-0.024 0.023-0.052-0.061z"></path>
<path d="M16.945 0.873c0 0.482-0.391 0.873-0.873 0.873s-0.873-0.391-0.873-0.873c0-0.482 0.391-0.873 0.873-0.873s0.873 0.391 0.873 0.873z"></path>
<path d="M31.995 15.937c0 0.478-0.387 0.865-0.865 0.865s-0.865-0.387-0.865-0.865c0-0.478 0.387-0.865 0.865-0.865s0.865 0.387 0.865 0.865z"></path>
<path d="M16.909 31.13c0 0.481-0.39 0.87-0.87 0.87s-0.87-0.39-0.87-0.87c0-0.481 0.39-0.87 0.87-0.87s0.87 0.39 0.87 0.87z"></path>
<path d="M1.728 15.944c0 0.476-0.386 0.861-0.861 0.861s-0.861-0.386-0.861-0.861c0-0.476 0.386-0.861 0.861-0.861s0.861 0.386 0.861 0.861z"></path>
</svg>
