<?xml version="1.0" encoding="utf-8"?>
<!-- Generator: Adobe Illustrator 23.0.4, SVG Export Plug-In . SVG Version: 6.00 Build 0)  -->
<svg version="1.1" id="Layer_1" xmlns="http://www.w3.org/2000/svg" xmlns:xlink="http://www.w3.org/1999/xlink" x="0px" y="0px"
	 width="32px" height="32px" viewBox="0 0 32 32" style="enable-background:new 0 0 32 32;" xml:space="preserve">
<path d="M2.9,7C4,7,7.3,7,8.5,7c1.6,0,1.8-3,0-3C6.8,4,5.1,4,3,4L0.5,0h12.2v20.8c-0.1,3.7-2.6,6-4.2,6.8l-1.3-0.4
	c2.1-2.5,2.9-3,2.7-8.9c-0.1-2.1-0.1-2.8-2.5-2.8c-0.6,0-1.4,0-2.5,0l-1.8-2.8c0.7,0,4.2,0,5.1,0c2.1,0,2-3.1,0.1-3.1
	c-1.2,0-2.4,0-3.7,0L2.9,7z"/>
<path d="M29.1,7c-1.1,0-4.4,0-5.6,0c-1.6,0-1.8-3,0-3c1.7,0,3.4,0,5.5,0l2.5-4H19.3v20.8c0.1,3.7,2.6,6,4.2,6.8l1.3-0.4
	c-2.1-2.5-2.9-3-2.7-8.9c0.1-2.1,0.1-2.8,2.5-2.8c0.6,0,1.4,0,2.5,0l1.8-2.8c-0.7,0-4.2,0-5.1,0c-2.1,0-2-3.1-0.1-3.1
	c1.2,0,2.4,0,3.7,0L29.1,7z"/>
<path d="M16.1,32L16.1,32L16.1,32c0.9-2.9,1.4-5.9,1.4-8.9V0h-2.9v23C14.6,26.1,15.1,29.1,16.1,32z"/>
</svg>
