<!-- Generated by IcoMoon.io -->
<svg version="1.1" xmlns="http://www.w3.org/2000/svg" width="32" height="32" viewBox="0 0 32 32">
<title>forsaken</title>
<path d="M9.545 16.107c-0.378-0.322-0.872-0.518-1.412-0.518-0.038 0-0.076 0.001-0.113 0.003l0.005-0c-1.031 0-2.061 0-3.137 0l-1.752-2.751h4.922c0.059 0.007 0.128 0.011 0.198 0.011 0.411 0 0.791-0.137 1.095-0.368l-0.004 0.003c0.256-0.316 0.412-0.722 0.412-1.165 0-0.075-0.004-0.149-0.013-0.222l0.001 0.009c-0.007-0.745-0.613-1.347-1.359-1.347-0.009 0-0.018 0-0.027 0l0.001-0c-1.205 0-2.416 0-3.666 0l-1.714-2.706c0.186-0.034 0.407-0.060 0.633-0.070l0.011-0c1.572 0 3.144 0 4.716 0 0.065 0.012 0.14 0.020 0.216 0.020 0.467 0 0.872-0.267 1.069-0.657l0.003-0.007c0.109-0.229 0.172-0.497 0.172-0.78 0-0.393-0.122-0.757-0.331-1.056l0.004 0.006c-0.214-0.295-0.558-0.484-0.946-0.484-0.046 0-0.091 0.003-0.136 0.008l0.005-0c-1.211 0-2.422 0-3.627 0h-1.778l-2.538-4.033h12.24v1.868c0 6.313 0 12.627 0 18.933-0.025 1.668-0.58 3.202-1.503 4.446l0.015-0.021c-0.723 1.016-1.659 1.835-2.747 2.402l-0.043 0.020-1.288-0.374c0.406-0.483 0.767-0.895 1.115-1.327 0.735-0.979 1.24-2.17 1.413-3.466l0.004-0.038c0.309-1.862 0.090-3.743 0.135-5.617-0.049-0.271-0.137-0.513-0.258-0.734l0.006 0.013z"></path>
<path d="M19.363 0.002h12.182l-2.506 4.013h-2.757c-0.85 0-1.701 0.045-2.577 0-1.153-0.097-1.688 0.812-1.346 2.023 0.082 0.224 0.18 0.418 0.297 0.598l-0.007-0.011c0.242 0.222 0.566 0.358 0.921 0.358 0.034 0 0.068-0.001 0.101-0.004l-0.004 0c1.495 0 2.989 0 4.509 0h0.818c-0.419 1.089-1.166 1.842-1.623 2.783h-3.601c-0.033-0.003-0.072-0.005-0.111-0.005-0.6 0-1.111 0.386-1.297 0.923l-0.003 0.010c-0.072 0.18-0.114 0.389-0.114 0.607 0 0.486 0.207 0.923 0.538 1.228l0.001 0.001c0.249 0.202 0.571 0.324 0.92 0.324 0.027 0 0.055-0.001 0.082-0.002l-0.004 0c1.392 0 2.783 0 4.168 0h0.85c-0.432 1.031-1.14 1.804-1.591 2.751h-3.962c-0.596 0.254-1.006 0.834-1.006 1.51 0 0.054 0.003 0.107 0.008 0.159l-0.001-0.007c0.039 1.288-0.039 2.525 0.032 3.788-0 0.017-0 0.036-0 0.056 0 1.429 0.358 2.774 0.988 3.95l-0.022-0.045c0.43 0.667 0.842 1.234 1.28 1.779l-0.031-0.039c0.116 0.155 0.271 0.29 0.477 0.515l-1.327 0.399c-1.345-0.754-2.435-1.818-3.199-3.098l-0.022-0.039c-0.557-0.882-0.91-1.944-0.966-3.084l-0.001-0.015c0-0.644-0.103-1.288-0.122-1.933 0-0.303 0.077-0.606 0.097-0.908 0-0.2 0-0.406 0-0.612 0-0.709 0-1.417 0-2.126 0-0.103 0.032-0.2 0.032-0.303l-0.116-2.789c0-0.155 0-0.309 0-0.464 0-1.83-0.032-3.659 0-5.489 0-0.728-0.052-1.462 0-2.19 0-0.354 0.090-0.709 0.11-1.063 0-0.022 0-0.049 0-0.075 0-0.241-0.014-0.479-0.042-0.713l0.003 0.028c0-0.129-0.090-0.258-0.071-0.374 0.11-0.754-0.071-1.533 0.013-2.416z"></path>
<path d="M15.601 29.7c0.374-0.155 0-0.464 0.11-0.728l-0.786 0.599c-0.154-0.814-0.242-1.751-0.242-2.709 0-0.196 0.004-0.391 0.011-0.585l-0.001 0.028-0.348-0.38c0.064-0.457 0.11-0.941 0.206-1.404 0.102-0.758 0.161-1.634 0.161-2.524 0-0.436-0.014-0.868-0.042-1.296l0.003 0.058c0-0.644-0.116-1.288-0.122-1.984 0-0.38 0.122-0.754 0.122-1.134 0-2.757 0-5.508 0-8.265q0-4.323 0-8.652v-0.644c0.381-0.051 0.822-0.079 1.269-0.079 0.073 0 0.145 0.001 0.217 0.002l-0.011-0h1.424c0 0.174 0.032 0.296 0.032 0.419 0 8.265 0 16.524 0 24.789 0 1.288-0.18 2.641-0.296 3.962 0 0.11-0.116 0.206-0.238 0.406l-0.064-0.767h-0.129v1.52l-0.496 0.206 0.116 0.374-0.644 1.089c-0.135-0.812 0.116-1.591-0.206-2.319zM15.948 31.369h0.090v-0.709h-0.090z"></path>
<path d="M15.613 29.687v0 0z"></path>
</svg>
