<?xml version="1.0" encoding="utf-8"?>
<!-- Generator: Adobe Illustrator 23.0.4, SVG Export Plug-In . SVG Version: 6.00 Build 0)  -->
<svg version="1.1" id="Layer_1" xmlns="http://www.w3.org/2000/svg" xmlns:xlink="http://www.w3.org/1999/xlink" x="0px" y="0px"
	 width="32px" height="32px" viewBox="0 0 32 32" style="enable-background:new 0 0 32 32;" xml:space="preserve">
<path d="M15.8,22.9v8.3L14.2,32l-5.5-8.3l4.4-4.4L15.8,22.9z M9.1,16.2H0.8L0,17.8l8.3,5.6l4.3-4.3L9.1,16.2z M15.8,9.1V0.8L14.2,0
	L8.7,8.3l4.4,4.4L15.8,9.1z M9.1,15.8H0.8L0,14.2l8.3-5.6l4.4,4.3L9.1,15.8z M16.2,22.9v8.3l1.6,0.8l5.5-8.3L19,19.3L16.2,22.9z
	 M22.9,16.2h8.3l0.8,1.6l-8.3,5.5l-4.3-4.4L22.9,16.2z M16.2,9.1V0.8L17.8,0l5.5,8.3L19,12.7L16.2,9.1z M22.9,15.8h8.3l0.8-1.6
	l-8.3-5.5l-4.4,4.4L22.9,15.8z M16,19.7c-1.9,0-3.5-1.6-3.5-3.5s1.6-3.5,3.5-3.5s3.5,1.6,3.5,3.5C19.5,18.1,17.9,19.7,16,19.7z
	 M16,13.4c-1.6,0-2.8,1.3-2.8,2.8s1.3,2.8,2.8,2.8s2.8-1.3,2.8-2.8S17.6,13.4,16,13.4z M15.7,15l-1.2,0.9v0.5l1.2,0.9v-0.6l-0.5-0.5
	l0.5-0.5V15z M16.3,15v0.6l0.5,0.5l-0.5,0.5v0.6l1.2-0.9v-0.5L16.3,15z M16.3,16.2c0,0.2-0.1,0.3-0.3,0.3s-0.3-0.1-0.3-0.3
	c0-0.2,0.1-0.3,0.3-0.3C16.2,15.9,16.3,16.1,16.3,16.2z"/>
</svg>
