<?xml version="1.0" encoding="utf-8"?>
<!-- Generator: Adobe Illustrator 23.0.4, SVG Export Plug-In . SVG Version: 6.00 Build 0)  -->
<svg version="1.1" id="Layer_1" xmlns="http://www.w3.org/2000/svg" xmlns:xlink="http://www.w3.org/1999/xlink" x="0px" y="0px"
	 width="32px" height="32px" viewBox="0 0 32 32" style="enable-background:new 0 0 32 32;" xml:space="preserve">
<path d="M12,9.2c-0.4,0.2-0.9,0.5-1.2,0.9l-9-8.9V0H3L12,9.2z M29,0l-9.1,9.1c0.5,0.3,0.9,0.6,1.3,0.9l9-8.9V0H29z M3,3H1.8v1.1
	l7.6,7.6c0.3-0.4,0.6-0.8,1-1.2L3,3z M29,3l-7.4,7.4c0.4,0.4,0.7,0.8,1,1.2l7.6-7.5V3H29z M16.8,7.1L16,6.3l-0.8,0.8v1
	c0.3,0,0.5,0,0.8,0c0.3,0,0.5,0,0.8,0L16.8,7.1z M3.5,14l-0.8,0.8l0.8,0.8h4.6c0-0.5,0.1-1.1,0.3-1.6L3.5,14z M28.5,14h-4.9
	c0.1,0.5,0.2,1,0.2,1.5h4.6l0.8-0.8L28.5,14z M8.1,16.5H3.5l-0.8,0.8L3.5,18h4.8C8.2,17.5,8.1,17,8.1,16.5z M28.5,16.5L28.5,16.5
	l-4.6,0c0,0.6-0.1,1.1-0.3,1.6l4.9-0.1l0.8-0.8L28.5,16.5z M9.4,20.4L1.8,28V29H3l7.4-7.4C10,21.2,9.7,20.8,9.4,20.4z M22.6,20.4
	c-0.3,0.4-0.6,0.8-1,1.2L29,29h1.1V28L22.6,20.4z M21.2,22c-0.4,0.3-0.8,0.6-1.3,0.9L29,32h1.1v-1.1L21.2,22z M10.8,22l-9,9V32H3
	l9.1-9.1C11.7,22.6,11.2,22.3,10.8,22z M16,23.9c-0.3,0-0.5,0-0.8,0l0,1l0.8,0.8l0.8-0.8v-1C16.5,23.9,16.3,23.9,16,23.9z M16,14.3
	c-0.9,0-1.7,0.7-1.7,1.7s0.7,1.7,1.7,1.7s1.7-0.7,1.7-1.7S16.9,14.3,16,14.3z M23.1,16c0,3.9-3.2,7.1-7.1,7.1S8.9,19.9,8.9,16
	s3.2-7.1,7.1-7.1S23.1,12.1,23.1,16z M21.6,16c0-3.1-2.5-5.6-5.6-5.6s-5.6,2.5-5.6,5.6s2.5,5.6,5.6,5.6S21.6,19.1,21.6,16z"/>
</svg>
