<!-- Generated by IcoMoon.io -->
<svg version="1.1" xmlns="http://www.w3.org/2000/svg" width="32" height="32" viewBox="0 0 32 32">
<title>leviathan_axes</title>
<path d="M11.944 19.001v0.953c-0.267 0-0.574 0.123-0.786 0.024-2.829-1.336-5.648-2.696-8.467-4.056-0.776-0.353-1.308-1.115-1.322-2.004l-0-0.002c-0.15-2.877-0.277-5.754-0.417-8.713 2.112-1.961 4.65-3.297 7.063-5.204 0.157 1.473 0.936 2.559 0.854 3.837l-1.91 0.516c-0.342 0.861 0 1.438 0.4 1.995q2.136 3.020 4.278 6.034 1.312 1.848 2.617 3.697c0.062 0.089 0.058 0.273 0.13 0.304 1.087 0.461 1.415 1.336 1.367 2.429 0 0.044 0.174 0.096 0.379 0.205 0.089-0.174 0.273-0.366 0.243-0.519-0.157-0.844 0.239-1.367 0.864-1.872 0.473-0.379 0.881-0.811 1.224-1.292l0.013-0.020q3.195-4.531 6.328-9.099c0.342-0.506 0.642-1.066 0.301-1.855l-1.896-0.519c-0.116-1.281 0.683-2.361 0.83-3.806l7.011 4.944c-0.058 1.708-0.342 7.227-0.318 8.422 0.024 1.261-0.465 2.129-1.643 2.669-2.638 1.216-5.241 2.498-7.879 3.724-0.365 0.131-0.794 0.236-1.237 0.297l-0.034 0.004 0.198-1.093c0.953-0.711 1.254-1.903 2.016-2.761 0.082-0.092-0.106-0.424-0.232-0.864-0.624 0.929-1.226 1.727-1.867 2.49l0.036-0.044c-0.458 0.495-0.106 0.8 0.044 1.189-0.54 0.102-0.7 0.967-1.421 0.683l-1.23 1.541c1.951 2.774 3.923 5.576 5.897 8.378 0.031 0.044 0.072 0.089 0.099 0.137 0.571 0.916 0.598 1.538 0.092 1.978-0.386 0.342-1.415 0.256-2.002-0.273-0.256-0.259-0.414-0.616-0.414-1.009 0-0.006 0-0.011 0-0.017v0.001c0.051-0.683-0.28-1.059-0.772-1.398-1.216-0.834-1.216-0.834-1.309-2.31-0.24-0.174-0.513-0.33-0.803-0.454l-0.028-0.011c-0.507-0.113-0.88-0.559-0.88-1.092 0-0.066 0.006-0.13 0.017-0.193l-0.001 0.007c0.041-0.485 0-1.025-0.516-1.124-0.194-0.024-0.42-0.037-0.648-0.037-0.414 0-0.818 0.045-1.207 0.13l0.037-0.007c-0.192 0.103-0.324 0.296-0.342 0.521l-0 0.002c0.198 1.305-0.56 1.845-1.726 2.187 0.126 1.175-0.215 2.081-1.425 2.532-0.499 0.188-0.629 0.683-0.639 1.274 0 0.885-1.087 1.647-1.978 1.531-0.451-0.081-0.79-0.47-0.79-0.939 0-0.064 0.006-0.127 0.018-0.188l-0.001 0.006c0.109-0.461 0.295-0.867 0.544-1.224l-0.008 0.012c1.954-2.812 3.933-5.607 5.87-8.361-0.359-0.506-0.629-1.295-1.090-1.428-0.618-0.178-1.025-0.605-1.544-0.837 0.099-0.253 0.342-0.605 0.273-0.745-0.583-1.057-1.284-1.963-2.104-2.747l-0.004-0.004c-0.13 0.902-0.123 0.899 0.065 1.172 0.372 0.55 0.721 1.117 1.114 1.654 0.204 0.234 0.422 0.444 0.657 0.635l0.010 0.008zM4.267 8.023c0.909 1.664 1.944 2.894 3.075 4.462 0.072-0.574 0.215-0.899 0.113-1.052-0.762-1.097-1.565-2.166-2.392-3.225-0.075-0.113-0.352-0.089-0.796-0.184zM27.914 8.067c-0.536 0.099-0.864 0.065-0.97 0.198q-1.213 1.589-2.341 3.249c-0.089 0.126 0.085 0.434 0.202 0.923z"></path>
</svg>
