<!-- Generated by IcoMoon.io -->
<svg version="1.1" xmlns="http://www.w3.org/2000/svg" width="32" height="32" viewBox="0 0 32 32">
<title>leviathan_dogs</title>
<path d="M29.93 7.007c0.077-0.175 0.242-0.36 0.222-0.521-0.068-0.268-0.107-0.577-0.107-0.894 0-0.2 0.016-0.397 0.045-0.59l-0.003 0.021 1.22 1.321-0.054-0.040c0.77 1.344 0.763 2.82 0.739 4.308-0.016 1.233-0.509 2.347-1.302 3.17l0.001-0.001c-0.528 0.578-1.112 1.106-1.643 1.68-1.203 1.287-1.038 2.336 0.497 3.246 0.286 0.168 0.595 0.299 0.981 0.491 0.632 2.258 0.487 4.554 0.047 6.805-0.934 0.867-2.010 0.729-3.085 0.763-0.033 0.005-0.070 0.007-0.109 0.007-0.431 0-0.787-0.327-0.832-0.746l-0-0.004c-0.087-0.454 0.259-0.696 0.649-0.85 0.287-0.078 0.539-0.186 0.77-0.324l-0.014 0.008c0.585-0.45 1.106-0.951 1.008-1.808s-0.739-1.196-1.344-1.573c-0.099-0.042-0.214-0.068-0.334-0.074l-0.002-0c-1.437-0.261-2.706-0.842-3.777-1.668l0.020 0.015c-0.491 0.447-0.373 0.864-0.178 1.27 0.467 0.971 0.393 1.832-0.474 2.551-0.046 0.032-0.084 0.074-0.11 0.122l-0.001 0.002c-0.988 2.282-2.809 1.637-4.665 1.385 0.457-0.608 1.092-1.061 1.826-1.284l0.025-0.007c0.299-0.087 0.555-0.19 0.798-0.314l-0.025 0.012c0.759-0.42 0.971-1.008 0.581-1.798-0.276-0.541-0.639-1.035-1.045-1.68-0.847 0.148-1.717 0.255-2.554 0.484-0.277 0.159-0.464 0.448-0.477 0.781l-0 0.002c0.356 1.916-0.591 3.32-1.721 4.675-0.136 0.163-0.258 0.346-0.359 0.541l-0.008 0.017c-0.618 1.186-1.344 2.114-2.91 2.077-0.558 0-1.129 0.41-1.68 0.622l-1.801-1.297c0.141-0.289 0.279-0.639 0.47-0.961 0.376-0.632 0.911-0.854 1.68-0.807 1.751 0.101 2.769-0.901 2.907-2.645 0.074-0.934-0.518-1.411-1.176-1.973-0.44 1.237-1.61 1.217-2.557 1.563-0.246 0.037-0.534 0.062-0.827 0.067l-0.006 0c-0.773 0.158-0.961 0.491-0.968 1.401-0.050 0.48-0.136 0.916-0.258 1.337l0.013-0.053c-1.112-0.615-1.159-0.81-0.874-3.25 0.833-0.8 2.151-1.136 2.665-2.326-0.336-1.008-1.122-0.991-1.808-0.753-1.099 0.383-2.141 0.924-3.199 1.415-0.591 0.272-1.17 0.581-1.741 0.864-0.833-1.223-0.833-1.223-0.047-2.016 0.676-0.26 1.179-0.83 1.341-1.531l0.003-0.015c-1.68 0.4-1.68 0.43-1.304 1.586h-1.196l-0.635 1.257c-1.371-1.297-1.485-1.68-0.884-3.23 0.847-2.171 2.016-4.103 4.177-5.219 0.206-0.144 0.386-0.303 0.545-0.481l0.003-0.003c-0.018-0.131-0.028-0.282-0.028-0.436 0-0.827 0.292-1.585 0.779-2.178l-0.005 0.006c0.228-0.354 0.382-0.777 0.429-1.231l0.001-0.012c0.286-1.989 1.401-3.478 2.826-4.802 0.279-0.291 0.614-0.525 0.989-0.685l0.020-0.007c-0.425 0.689-0.862 1.513-1.251 2.364l-0.060 0.147c-0.272 0.769-0.553 1.764-0.781 2.779l-0.036 0.191c1.062 0 1.59-0.514 2.107-1.089 1.63-1.805 3.845-2.688 5.999-3.72l-3.025 3.23c1.959 0.877 2.352 0.833 3.734-0.561 1.006-0.966 2.251-1.691 3.636-2.079l0.061-0.014c-0.975 1.358-2.638 2.080-3.199 3.848l0.672 0.733c0.313-0.174 0.695-0.355 1.088-0.512l0.071-0.025c0.108-0.037 0.299 0.181 0.454 0.279l-0.353 0.336-0.269 0.104 0.151 0.118 0.074-0.262 0.336-0.336c0.965-0.736 1.942-1.442 3.458-1.6-1.008 1.099-2.245 1.791-2.779 3.183l0.702 0.145-0.037-0.050 0.413 0.702c0.83-0.602 1.371-1.64 2.645-1.647l-1.193 1.469 2.252 0.833c0.231-0.142 0.509-0.29 0.795-0.422l0.052-0.021c0.264-0.092 0.61-0.19 0.962-0.269l0.070-0.013-0.82 1.143c0.108 0.104 0.171 0.215 0.245 0.222 0.316 0.037 0.682 0.058 1.053 0.058 0.039 0 0.077-0 0.116-0.001l-0.006 0c2.289-0.074 4.369-2.426 2.537-5.061z"></path>
<path d="M31.308 6.345l0.108-0.262-0.148 0.222z"></path>
<path d="M29.957 6.98l-0.242-0.111 0.141-0.104 0.074 0.242z"></path>
<path d="M20.886 10.038l0.131-0.245-0.171 0.205z"></path>
</svg>
