<?xml version="1.0" encoding="utf-8"?>
<!-- Generator: Adobe Illustrator 23.0.4, SVG Export Plug-In . SVG Version: 6.00 Build 0)  -->
<svg version="1.1" id="Layer_1" xmlns="http://www.w3.org/2000/svg" xmlns:xlink="http://www.w3.org/1999/xlink" x="0px" y="0px"
	 width="32px" height="32px" viewBox="0 0 32 32" style="enable-background:new 0 0 32 32;" xml:space="preserve">
<path d="M11.9,19v1c-0.3,0-0.6,0.1-0.8,0c-2.8-1.3-5.6-2.7-8.5-4.1c-0.8-0.4-1.3-1.1-1.3-2v0C1.2,11,1.1,8.2,1,5.2
	C3.1,3.2,5.6,1.9,8,0C8.2,1.5,9,2.6,8.9,3.8L7,4.4c-0.3,0.9,0,1.4,0.4,2c1.4,2,2.8,4,4.3,6c0.9,1.2,1.7,2.5,2.6,3.7
	c0.1,0.1,0.1,0.3,0.1,0.3c1.1,0.5,1.4,1.3,1.4,2.4c0,0,0.2,0.1,0.4,0.2c0.1-0.2,0.3-0.4,0.2-0.5c-0.2-0.8,0.2-1.4,0.9-1.9
	c0.5-0.4,0.9-0.8,1.2-1.3l0,0c2.1-3,4.2-6.1,6.3-9.1c0.3-0.5,0.6-1.1,0.3-1.9l-1.9-0.5C23.1,2.6,23.9,1.5,24,0L31,5
	c-0.1,1.7-0.3,7.2-0.3,8.4c0,1.3-0.5,2.1-1.6,2.7c-2.6,1.2-5.2,2.5-7.9,3.7c-0.4,0.1-0.8,0.2-1.2,0.3l0,0l0.2-1.1
	c1-0.7,1.3-1.9,2-2.8c0.1-0.1-0.1-0.4-0.2-0.9c-0.6,0.9-1.2,1.7-1.9,2.5l0,0c-0.5,0.5-0.1,0.8,0,1.2c-0.5,0.1-0.7,1-1.4,0.7
	l-1.2,1.5c2,2.8,3.9,5.6,5.9,8.4c0,0,0.1,0.1,0.1,0.1c0.6,0.9,0.6,1.5,0.1,2c-0.4,0.3-1.4,0.3-2-0.3c-0.3-0.3-0.4-0.6-0.4-1
	c0,0,0,0,0,0v0c0.1-0.7-0.3-1.1-0.8-1.4c-1.2-0.8-1.2-0.8-1.3-2.3c-0.2-0.2-0.5-0.3-0.8-0.5l0,0c-0.5-0.1-0.9-0.6-0.9-1.1
	c0-0.1,0-0.1,0-0.2l0,0c0-0.5,0-1-0.5-1.1c-0.2,0-0.4,0-0.6,0c-0.4,0-0.8,0-1.2,0.1l0,0c-0.2,0.1-0.3,0.3-0.3,0.5v0
	c0.2,1.3-0.6,1.8-1.7,2.2c0.1,1.2-0.2,2.1-1.4,2.5c-0.5,0.2-0.6,0.7-0.6,1.3c0,0.9-1.1,1.6-2,1.5c-0.5-0.1-0.8-0.5-0.8-0.9
	c0-0.1,0-0.1,0-0.2l0,0c0.1-0.5,0.3-0.9,0.5-1.2l0,0c2-2.8,3.9-5.6,5.9-8.4c-0.4-0.5-0.6-1.3-1.1-1.4C12.9,19.7,12.5,19.3,11.9,19
	c0.1-0.2,0.3-0.6,0.3-0.7c-0.6-1.1-1.3-2-2.1-2.7l0,0c-0.1,0.9-0.1,0.9,0.1,1.2c0.4,0.5,0.7,1.1,1.1,1.7
	C11.5,18.6,11.7,18.8,11.9,19L11.9,19L11.9,19z M4.3,8c0.9,1.7,1.9,2.9,3.1,4.5c0.1-0.6,0.2-0.9,0.1-1.1c-0.8-1.1-1.6-2.2-2.4-3.2
	C5,8.1,4.7,8.1,4.3,8L4.3,8z M27.9,8.1c-0.5,0.1-0.9,0.1-1,0.2c-0.8,1.1-1.6,2.1-2.3,3.2c-0.1,0.1,0.1,0.4,0.2,0.9L27.9,8.1z"/>
</svg>
