<?xml version="1.0" encoding="utf-8"?>
<!-- Generator: Adobe Illustrator 23.0.6, SVG Export Plug-In . SVG Version: 6.00 Build 0)  -->
<svg version="1.1" id="Layer_1" xmlns="http://www.w3.org/2000/svg" xmlns:xlink="http://www.w3.org/1999/xlink" x="0px" y="0px"
	 width="32px" height="32px" viewBox="0 0 32 32" style="enable-background:new 0 0 32 32;" xml:space="preserve">
<path d="M17.3,12.1l-0.2,0.8c1.1,0.5,1.8,1.5,1.8,2.7c0,1.2-0.8,2.3-1.9,2.7c0,0,0,0,0,0c0,0,0,0,0,0h0.2c0.2,0,0.4,0.2,0.4,0.4
	c0,0.2-0.2,0.4-0.4,0.4h-0.1l0,0l0,0c1.2,3.1,2.7,7.4-0.1,8.2l1.4,0.9v0.7l4.9,1.6l1.4-0.1l0.9,1.3H6.3l0.9-1.3l1.4,0.1l4.9-1.6
	v-0.7l1.4-0.9c-2.8-0.8-1.3-5.2-0.1-8.2c0,0,0,0,0,0s0,0,0,0h-0.1c-0.2,0-0.4-0.2-0.4-0.4c0-0.2,0.2-0.4,0.4-0.4h0.1c0,0,0,0,0,0
	s0,0,0,0C13.7,18,13,16.9,13,15.7c0-1.3,0.8-2.3,1.9-2.8l-0.2-0.8c-2.7-0.2-5.2-0.9-7.3-2c-0.1,2.1-0.2,4-0.4,4.9c0,0,0,0-0.1,0
	c0,0-0.1,0-0.1,0c-0.3-0.6-0.4-3.2-0.6-5.5C2.1,7.1-0.4,3.2,0,0H6c0,0.1,0,4.5,0.2,8.9C6.6,9.1,7,9.3,7.4,9.5C7.5,6.6,7.6,2.1,7.6,2
	c0-0.5,0-2,1.9-2H32C32.6,4.9,26.4,11.5,17.3,12.1z M6.9,19.4c1,0,0.2-2.3,0-2.8c0,0,0,0,0,0s0,0,0,0C6.6,17.1,5.8,19.4,6.9,19.4z"
	/>
</svg>
