<?xml version="1.0" encoding="utf-8"?>
<!-- Generator: Adobe Illustrator 23.0.6, SVG Export Plug-In . SVG Version: 6.00 Build 0)  -->
<svg version="1.1" id="Layer_1" xmlns="http://www.w3.org/2000/svg" xmlns:xlink="http://www.w3.org/1999/xlink" x="0px" y="0px"
	 width="32px" height="32px" viewBox="0 0 32 32" style="enable-background:new 0 0 32 32;" xml:space="preserve">
<style type="text/css">
	.st0{fill:#010101;}
</style>
<path class="st0" d="M20.9,20c-0.1,0.2,0.1,0.4,0.4,0.3c1.7-0.8,6.7-3.3,9.2-4.4c0.8-0.4,1.3-1.2,1.4-2.1L32,4.9
	c0-0.1-0.1-0.2-0.2-0.3l-6.5-4.5C25.3,0,25.1,0,25,0s-0.2,0.1-0.2,0.3l-0.9,3.4c0,0.1,0,0.2,0.1,0.3c0.1,0.1,0.2,0.1,0.3,0.1h1.1
	c0.4,0,0.8,0.3,0.8,0.8l0,0c0,0.2,0,0.4-0.1,0.5l-7.7,11.1c-0.2-0.1-0.5-0.1-0.6,0.1l-0.6,0.8c-0.1,0.1-0.1,0.3,0.1,0.4l0.3,0.2
	L9.1,30.6c-0.3,0.4-0.2,1,0.2,1.3c0.3,0.2,1.8,0.3,2.4-0.5c0.2-0.3,0.3-0.7,0.2-1.1c0-0.2,0-0.5,0.1-0.7c0.1-0.2,0.3-0.3,0.6-0.4
	c0.4-0.1,0.7-0.3,0.9-0.6c0.2-0.3,0.3-0.7,0.2-1.1c0-0.2,0-0.5,0.1-0.7c0.1-0.2,0.3-0.3,0.6-0.4c0.4-0.1,0.7-0.3,0.9-0.6
	c0.2-0.3,0.3-0.7,0.2-1.1c0-0.2,0-0.5,0.1-0.7l0,0c0.1-0.2,0.3-0.3,0.6-0.4c0.4-0.1,0.7-0.3,0.9-0.6c0.2-0.3,0.3-0.7,0.2-1.1
	c0-0.2,0-0.5,0.1-0.7l0,0c0.1-0.2,0.3-0.3,0.6-0.4c0.4-0.1,0.7-0.3,0.9-0.6c0.2-0.3,0.3-0.7,0.2-1c0,0,0-0.1,0-0.1c0,0,0.1,0,0.1,0
	l0.4,0.3c0.1,0.1,0.3,0.1,0.4-0.1l0.6-0.8c0.1-0.2,0.1-0.5-0.1-0.6l1.6-2.3c0.1-0.2,0.3-0.2,0.5-0.1c0.2,0.1,0.2,0.3,0.1,0.5
	C22.5,17,21.3,18.9,20.9,20z M25.4,11.9c-0.1-0.1-0.1-0.2-0.1-0.3L28,7.7c0.1-0.1,0.2-0.1,0.3-0.1l0.2,0.1c0.1,0.1,0.1,0.2,0.1,0.3
	L25.9,12c-0.1,0.1-0.2,0.1-0.3,0.1L25.4,11.9z M9,16.3c-0.1-0.2-0.1-0.4,0.1-0.5c0.2-0.1,0.4-0.1,0.5,0.1l1.6,2.3
	c-0.2,0.1-0.3,0.4-0.1,0.6l0.6,0.8c0.1,0.1,0.3,0.2,0.4,0.1l0.4-0.3c0,0,0.1,0,0.1,0c0,0,0,0,0,0.1c0,0.3,0,0.7,0.2,1
	c0.2,0.3,0.6,0.5,0.9,0.6c0.2,0,0.4,0.2,0.6,0.4c0.1,0.2,0.2,0.4,0.1,0.7c-0.1,0.4,0,0.8,0.2,1.1c0.2,0.3,0.6,0.5,0.9,0.6
	c0.2,0,0.4,0.2,0.6,0.4c0.1,0.2,0.2,0.4,0.1,0.7c-0.1,0.4,0,0.8,0.2,1.1c0.2,0.3,0.6,0.5,0.9,0.6c0.2,0,0.4,0.2,0.6,0.4
	c0.1,0.2,0.2,0.4,0.1,0.7c-0.1,0.4,0,0.8,0.2,1.1c0.2,0.3,0.6,0.5,0.9,0.6c0.2,0,0.4,0.2,0.6,0.4c0.1,0.2,0.2,0.4,0.1,0.7
	c-0.1,0.4,0,0.8,0.2,1.1c0.6,0.8,2,0.8,2.4,0.5c0.4-0.3,0.5-0.9,0.2-1.3l-8.6-12.3l0.3-0.2c0.1-0.1,0.2-0.3,0.1-0.4l-0.6-0.8
	c-0.1-0.2-0.4-0.3-0.6-0.1L5.9,5.5C5.8,5.3,5.7,5.1,5.7,5c0-0.4,0.4-0.8,0.8-0.8h1.1C7.8,4.2,7.9,4.1,8,4c0.1-0.1,0.1-0.2,0.1-0.3
	L7.2,0.3C7.2,0.2,7.1,0.1,7,0c-0.1,0-0.2,0-0.3,0L0.2,4.6C0.1,4.6,0,4.7,0,4.9l0.2,8.9c0,0.9,0.6,1.7,1.4,2.1
	c2.4,1.2,7.5,3.6,9.2,4.4c0.2,0.1,0.5-0.1,0.4-0.3C10.7,18.9,9.5,17,9,16.3z M6.4,12.1c-0.1,0.1-0.2,0-0.3-0.1L3.4,8.1
	C3.3,8,3.4,7.9,3.5,7.8l0.2-0.1c0.1-0.1,0.2,0,0.3,0.1l2.7,3.9c0.1,0.1,0,0.2-0.1,0.3L6.4,12.1z"/>
</svg>
