<!-- Generated by IcoMoon.io -->
<svg version="1.1" xmlns="http://www.w3.org/2000/svg" width="32" height="32" viewBox="0 0 32 32">
<title>leviathan_sun</title>
<path d="M27.272 4.76c-0.143 1.128-1.047 1.822-1.594 2.719-0.721 1.103-1.407 2.040-2.138 2.94l0.051-0.065c-0.34 0.428-0.561 0.846-0.272 1.492 0.792 0.816 1.56 0.211 2.43-0.167l1.149-2.57 1.094-0.585 1.577 0.472-1.546 0.659c-0.462 1.258-0.632 2.325-1.203 3.096-0.51 0.68-1.458 1.064-2.379 1.679 2.563 0.656 5.098 0.931 7.559 1.543-2.488 0.806-5.098 0.999-7.651 1.597l-0.177 1.020 1.145 1.020c1.587 0.503 2.671-1.149 4.361-0.367l1.125 1.618-1.798-0.867c-1.081 0.523-1.954 1.186-2.906 1.329-0.87 0.136-1.825-0.289-2.879-0.496 0.062 0.258 0.15 0.484 0.266 0.694l-0.007-0.014c1.169 1.659 2.379 3.304 3.531 4.962 0.113 0.22 0.203 0.474 0.258 0.742l0.003 0.019 0.034-0.037c-0.285-0.064-0.535-0.155-0.77-0.274l0.019 0.009c-1.801-1.254-3.589-2.525-5.533-3.898l-1.264 0.574 0.564 2.022c0.551 0.218 1.128 0.408 1.672 0.68s1.020 0.598 1.652 0.962c-0.153 0.809-0.282 1.499-0.415 2.189l-0.255-0.020c-0.019-0.333-0.055-0.64-0.109-0.941l0.007 0.047c-0.093-0.322-0.192-0.59-0.309-0.849l0.016 0.041c-2.080-0.34-4.317-0.476-4.684-3.399-0.7 1.322-0.71 2.604-1.020 3.797s-0.418 2.515-0.748 3.786c-0.547-1.142-0.602-2.379-0.853-3.586-0.265-1.258-0.459-2.532-0.7-3.885l-0.948-0.411-1.162 1.251c-0.394 1.492 1.057 2.362 0.877 3.678-0.387 0.734-1.116 1.242-1.969 1.315l-0.009 0.001 1.020-1.36c-0.34-0.517-0.71-1.020-1.020-1.529-0.625-1.057-1.020-2.138-0.235-3.317 0.132-0.299 0.238-0.649 0.302-1.012l0.004-0.028c-0.404 0.173-0.739 0.344-1.061 0.536l0.041-0.023c-1.611 1.135-3.208 2.294-4.823 3.423-0.221 0.109-0.478 0.188-0.749 0.223l-0.013 0.001 0.041 0.041c1.2-1.825 2.379-3.657 3.613-5.465 0.292-0.432 0.632-0.809 0.37-1.506l-0.867-0.472-1.23 0.394c-1.145 0.843-0.775 2.478-2.039 3.215-0.195 0.063-0.42 0.1-0.654 0.1-0.589 0-1.125-0.232-1.519-0.61l0.001 0.001 1.529-0.167c0.168-0.38 0.321-0.834 0.434-1.303l0.012-0.057c0.248-1.642 0.982-2.848 2.675-3.307 0.212-0.105 0.395-0.225 0.562-0.364l-0.005 0.004c-1.322-0.551-2.587-0.571-3.803-0.792s-2.519-0.483-3.953-0.755c1.329-0.741 2.682-0.71 3.97-0.941s2.522-0.472 3.868-0.727l0.139-1.108-1.699-1.19-2.93 1.122c-0.843-0.34-1.591-0.68-1.512-1.75l-0.037 0.034 1.21 0.561 3.47-1.699 2.559 1.071c-0.103-0.398-0.236-0.744-0.401-1.070l0.014 0.030c-1.047-1.54-2.128-3.059-3.175-4.592-0.115-0.218-0.207-0.472-0.265-0.738l-0.004-0.020c1.502 0.54 2.654 1.645 3.973 2.481 0.619 0.391 1.186 0.86 1.699 1.241 0.741 0.173 1.2 0 1.431-0.795l-0.411-1.36c-0.897-1.145-2.488-0.877-3.202-2.039-0.078-0.216-0.123-0.466-0.123-0.726 0-0.568 0.214-1.086 0.566-1.478l-0.002 0.002 0.231 1.36c0.277 0.212 0.59 0.405 0.922 0.567l0.033 0.014c0.836 0.316 1.832 0.381 2.502 0.891s0.999 1.434 1.543 2.281c0.826-1.149 0.585-2.553 0.925-3.78s0.408-2.471 0.595-3.712h0.34l1.36 7.556 1.020 0.323 1.105-1.295c0.231-1.312-0.792-2.097-0.924-3.134 0.282-0.904 1.020-1.186 1.961-1.516l-0.697 1.431c0.53 1.020 1.2 1.815 1.36 2.719 0.126 0.802-0.34 1.699-0.564 2.719 0.29-0.072 0.543-0.168 0.781-0.291l-0.020 0.009c1.662-1.166 3.307-2.355 4.969-3.521 0.217-0.117 0.468-0.214 0.733-0.278l0.022-0.004z"></path>
<path d="M27.306 4.798l0.037-0.075-0.071 0.037z"></path>
<path d="M5.193 5.124c-0.092-0.051-0.184-0.099 0.024 0-0.126-0.201-0.071-0.112 0-0.024z"></path>
<path d="M1.822 11.558l-0.075-0.037c-0.054-0.105 0 0 0.037 0.071z"></path>
<path d="M4.837 27.186c-0.037 0.078-0.078 0.156-0.044 0.085-0.082 0.048 0 0 0.085-0.044z"></path>
<path d="M27.272 27.23l0.258 0.122-0.224-0.16z"></path>
</svg>
