<?xml version="1.0" encoding="utf-8"?>
<!-- Generator: Adobe Illustrator 23.0.6, SVG Export Plug-In . SVG Version: 6.00 Build 0)  -->
<svg version="1.1" id="Layer_1" xmlns="http://www.w3.org/2000/svg" xmlns:xlink="http://www.w3.org/1999/xlink" x="0px" y="0px"
	 width="32px" height="32px" viewBox="0 0 32 32" style="enable-background:new 0 0 32 32;" xml:space="preserve">
<path d="M29.3,18.9c-1.3-0.7-2.1,0.8-3.3,0.8c-0.7,0-1.5-0.6-1.9-1.1c-0.2-0.2-0.2-0.4-0.1-0.6c0,0,0-0.1,0-0.1
	c0.1-0.2,0.3-0.4,0.5-0.5c1.8-0.3,5.9-0.9,7.5-1.4c0,0,0.1,0,0.1-0.1s0-0.1-0.1-0.1c-1.7-0.5-6.3-1.2-7.9-1.5c0,0-0.1,0-0.1-0.1
	c0,0,0,0,0-0.1c0,0,0-0.1,0.1-0.1c0.9-0.3,2-0.6,2.6-1.2c1-1,0.6-2.9,1.3-3.5c0.3-0.3,0.9-0.4,1.3-0.4c0,0,0.1,0,0.1-0.1
	c0,0,0-0.1,0-0.1c-0.5-0.3-1.5-0.8-2.1-0.1c-0.9,0.9-0.6,1.7-1.5,2.6c-0.5,0.5-1.4,0.6-2,0.7c-0.2,0-0.4-0.1-0.5-0.3c0,0,0,0,0-0.1
	c-0.1-0.2-0.1-0.5,0-0.7c1.1-1.5,3.5-4.9,4.3-6.3c0,0,0-0.1,0-0.1c0,0-0.1,0-0.1,0c-1.6,0.9-5.3,3.6-6.6,4.5c0,0-0.1,0-0.1,0
	c0,0,0,0-0.1,0c0,0-0.1-0.1,0-0.1c0.5-0.8,1-1.9,1-2.7c0-1.4-1.5-2.1-1.5-3c0-0.4,0.4-0.8,0.6-1.1c0,0,0-0.1,0-0.1
	c0,0-0.1-0.1-0.1,0c-0.6,0.1-1.7,0.5-1.7,1.4c0,1,0.9,1.2,0.9,2.4c0,0.7-0.6,1.5-1.1,1.9c-0.2,0.2-0.4,0.2-0.6,0.1c0,0-0.1,0-0.1,0
	c-0.2-0.1-0.4-0.3-0.5-0.5c-0.3-1.8-0.9-5.9-1.4-7.5C16.1,0,16,0,16,0c0,0-0.1,0-0.1,0.1c-0.5,1.7-1.2,6.3-1.5,7.9
	c0,0,0,0.1-0.1,0.1c0,0-0.1,0-0.1,0c0,0,0,0-0.1,0s0,0,0-0.1C14,7.1,13.6,6,13,5.4c-1-1-3-0.6-3.6-1.3c-0.3-0.3-0.3-1-0.2-1.4
	c0,0,0-0.1-0.1-0.1c0,0-0.1,0-0.1,0C8.8,3,8.4,3.7,8.7,4.5c0.5,1.4,2,0.9,2.9,1.8c0.5,0.5,0.6,1.5,0.6,2.1c0,0.2-0.1,0.4-0.3,0.5
	c0,0-0.1,0-0.1,0.1c-0.2,0.1-0.5,0.1-0.7,0C9.6,7.9,6.2,5.5,4.8,4.7c0,0-0.1,0-0.1,0c0,0,0,0.1,0,0.1c0.9,1.6,3.6,5.3,4.5,6.6
	c0,0,0,0.1,0,0.1c0,0,0,0.1-0.1,0.1c0,0,0,0-0.1,0c0,0,0,0-0.1,0c-0.8-0.5-1.8-1-2.6-1c-1.4,0-2.6,1.5-3.4,1.5
	c-0.5,0-0.9-0.5-1.2-0.8c0,0-0.1,0-0.1,0c0,0-0.1,0.1-0.1,0.1c0,0.4,0.2,1.2,1.1,1.6C4,13.7,4.8,12.3,6,12.3c0.7,0,1.5,0.6,1.9,1.1
	c0.2,0.2,0.2,0.4,0.1,0.6c0,0,0,0.1,0,0.1c-0.1,0.2-0.3,0.4-0.5,0.5c-1.8,0.3-5.9,0.9-7.5,1.4C0,15.9,0,16,0,16s0,0.1,0.1,0.1
	c1.7,0.5,6.3,1.2,7.9,1.5c0,0,0.1,0,0.1,0.1c0,0,0,0,0,0.1c0,0,0,0.1-0.1,0.1C7,18,5.9,18.4,5.4,19c-1,1-0.6,2.9-1.3,3.5
	c-0.3,0.3-0.8,0.4-1.2,0.4c0,0-0.1,0-0.1,0.1s0,0.1,0,0.1c0.5,0.3,1.5,0.6,2,0.1c0.9-0.9,0.6-1.7,1.5-2.6c0.7-0.7,1.5-0.8,2-0.8
	c0.2,0,0.4,0.1,0.5,0.3C9,20.1,9,20.1,9,20.2c0.1,0.2,0.1,0.5,0,0.7c-1.1,1.5-3.5,4.9-4.3,6.3c0,0,0,0.1,0,0.1c0,0,0.1,0,0.1,0
	c1.6-0.9,5.3-3.6,6.6-4.5c0,0,0.1,0,0.1,0c0,0,0,0,0.1,0c0,0,0.1,0.1,0,0.1c-0.5,0.8-1,1.9-1,2.7c0,1.4,1.5,2.1,1.5,3
	c0,0.5-0.3,0.9-0.4,1.2c0,0,0,0.1,0,0.1c0,0,0.1,0,0.1,0c0.5-0.1,1.5-0.5,1.5-1.5c0-1-0.9-1.2-0.9-2.4c0-0.7,0.6-1.5,1.1-1.9
	c0.2-0.2,0.4-0.2,0.6-0.1c0,0,0.1,0,0.1,0c0.2,0.1,0.4,0.3,0.5,0.5c0.3,1.8,0.9,5.9,1.4,7.5c0,0,0,0.1,0.1,0.1s0.1,0,0.1-0.1
	c0.5-1.7,1.2-6.3,1.5-7.9c0,0,0-0.1,0.1-0.1c0.1,0,0.1,0,0.2-0.1c0,0,0.1,0,0.1,0.1c0.2,0.8,0.6,1.8,1.2,2.4c1,1,2.9,0.5,3.5,1.2
	c0.3,0.3,0.3,1,0.2,1.4c0,0,0,0.1,0.1,0.1c0,0,0.1,0,0.1,0c0.3-0.3,0.7-1,0.4-1.9c-0.5-1.4-2-0.8-2.8-1.7c-0.5-0.5-0.7-1.3-0.7-1.9
	c0-0.2,0.1-0.5,0.3-0.6c0,0,0,0,0,0c0.2-0.1,0.5-0.1,0.7,0c1.5,1.1,4.9,3.5,6.3,4.3c0,0,0.1,0,0.1,0c0,0,0-0.1,0-0.1
	c-0.9-1.6-3.6-5.3-4.5-6.6c0,0,0-0.1,0-0.1c0-0.1,0.1-0.1,0.1-0.2c0,0,0.1-0.1,0.1,0c0.8,0.4,1.7,0.9,2.6,0.9c1.4,0,2.6-1.3,3.4-1.3
	c0.5,0,0.9,0.5,1.2,0.8c0,0,0.1,0,0.1,0c0,0,0.1-0.1,0.1-0.1C30.3,20.1,30.1,19.3,29.3,18.9z"/>
</svg>
