<?xml version="1.0" encoding="utf-8"?>
<!-- Generator: Adobe Illustrator 23.0.6, SVG Export Plug-In . SVG Version: 6.00 Build 0)  -->
<svg version="1.1" id="Layer_1" xmlns="http://www.w3.org/2000/svg" xmlns:xlink="http://www.w3.org/1999/xlink" x="0px" y="0px"
	 width="32px" height="32px" viewBox="0 0 32 32" style="enable-background:new 0 0 32 32;" xml:space="preserve">
<path d="M22.4,22.5c-1.2,0.4-2.5,0.7-3.8,0.6c3-1.6,4.1-4,4.4-4.3C23.1,19.9,22.9,21.2,22.4,22.5z M18.6,9c1.3-0.1,2.5,0.2,3.8,0.6
	c0.5,1.2,0.7,2.5,0.6,3.7C22.7,12.9,21.7,10.6,18.6,9z M23.8,16c0-0.4,0-0.8,0.1-1.3c0.2-2.3-0.4-5.2-0.8-6
	c-4.2-1.3-5.9-0.6-7.1-0.6c-1.2,0-2.9-0.7-7.1,0.6c-0.4,0.8-1,3.6-0.8,6c0,0.4,0.1,0.8,0.1,1.3c0,0.4,0,0.9-0.1,1.3
	c-0.2,2.3,0.4,5.1,0.8,6c4.2,1.3,5.9,0.6,7.1,0.6c1.2,0,2.9,0.6,7.1-0.6c0.4-0.8,1-3.7,0.8-6C23.9,16.8,23.8,16.4,23.8,16z M9.6,9.6
	c1.2-0.4,2.5-0.7,3.8-0.6c-3,1.6-4.1,4-4.4,4.3C8.9,12.1,9.1,10.8,9.6,9.6z M9.6,22.5c-0.5-1.2-0.7-2.5-0.6-3.7
	c0.3,0.4,1.4,2.7,4.4,4.3C12.1,23.1,10.9,22.9,9.6,22.5z M16,23c-3.1-0.3-6.9-3.8-6.9-7c0-3.1,3.8-6.7,6.9-7c3.1,0.3,6.9,3.9,6.9,7
	C22.9,19.2,19.1,22.7,16,23z M25.2,7.7C23.9,6.8,22.1,3,16,0C9.9,3,8.1,6.8,6.8,7.7C3.9,9.9,1.7,12.8,0,16c3.2,6.2,6.7,7.8,7.7,9.2
	l0,0c2.2,2.9,5,5.1,8.2,6.8c3.2-1.7,6-3.9,8.2-6.8l0,0c1-1.4,4.6-2.9,7.7-9.2C30.3,12.8,28.1,9.9,25.2,7.7z M16,1.9
	c1.5,0.6,4.3,2.6,4.8,3.5c-3.4-1.1-6.2-1.1-9.6,0C11.7,4.5,14.5,2.5,16,1.9z M5.3,20.8c-0.9-0.5-2.9-3.3-3.5-4.8
	c0.6-1.5,2.6-4.3,3.5-4.8C4.2,14.6,4.2,17.4,5.3,20.8z M16,30.1c-1.5-0.6-4.3-2.6-4.8-3.5c3.4,1.1,6.2,1.1,9.6,0
	C20.3,27.5,17.5,29.5,16,30.1z M23.8,23.4c-0.1,0.2-0.3,0.4-0.6,0.5c-4.7,3-9.9,3-14.6,0c-0.2-0.1-0.4-0.3-0.6-0.5
	C5.1,18.9,5,13.5,8,8.8C8.2,8.5,8.5,8.2,8.7,8c4.8-3.1,9.9-3,14.6,0c0.3,0.2,0.5,0.4,0.7,0.7C26.9,13.4,26.9,18.8,23.8,23.4z
	 M26.7,20.8c1.1-3.4,1.1-6.2,0-9.6c0.9,0.5,2.9,3.3,3.5,4.8C29.5,17.5,27.5,20.3,26.7,20.8z"/>
</svg>
