<!-- Generated by IcoMoon.io -->
<svg version="1.1" xmlns="http://www.w3.org/2000/svg" width="32" height="32" viewBox="0 0 32 32">
<title>lost_prophecies</title>
<path d="M0 15.986c1.397-2.645 3.114-5.014 5.307-7.010 0.234-0.222 0.485-0.436 0.746-0.637l0.023-0.017c0.865-0.656 1.615-1.395 2.26-2.221l0.020-0.027c2.081-2.584 4.696-4.526 7.66-6.071 1.172 0.577 2.169 1.177 3.111 1.851l-0.066-0.045c2.081 1.43 3.849 3.131 5.306 5.079l0.042 0.058c0.232 0.308 0.499 0.572 0.8 0.794l0.011 0.007c2.914 2.196 5.084 5.005 6.781 8.242-0.845 1.667-1.779 3.103-2.847 4.426l0.037-0.047c-1.185 1.488-2.515 2.782-3.99 3.894l-0.056 0.040c-0.322 0.251-0.599 0.538-0.832 0.86l-0.008 0.012c-2.209 2.934-5.034 5.12-8.264 6.823-3.299-1.721-6.146-3.953-8.367-6.94-0.138-0.199-0.299-0.37-0.483-0.514l-0.005-0.004c-2.962-2.134-5.198-4.888-6.936-8.077-0.069-0.126-0.143-0.248-0.215-0.371-0.012-0.029-0.024-0.063-0.033-0.099l-0.001-0.005zM27.023 20.633c1.235-1.339 2.288-2.873 3.105-4.543l0.050-0.113c-0.93-1.841-2.029-3.426-3.314-4.839l0.016 0.017c-0.029 0.067-0.045 0.145-0.045 0.226 0 0.099 0.024 0.191 0.067 0.273l-0.002-0.003c0.37 1.239 0.599 2.666 0.631 4.141l0 0.018c0.026 1.586-0.257 3.128-0.664 4.653-0.034 0.062-0.066 0.125-0.024 0.185 0.065 0.063 0.12 0.019 0.181-0.016zM16.004 26.166c2.779 0.046 5.261-0.885 7.343-2.243 0.225-0.142 0.412-0.323 0.557-0.536l0.004-0.006c1.467-2.223 2.302-4.65 2.313-7.326 0.011-2.648-0.762-5.070-2.191-7.291-0.18-0.285-0.414-0.519-0.688-0.696l-0.009-0.005q-6.811-4.295-13.889-0.457c-0.688 0.363-1.249 0.886-1.648 1.521l-0.010 0.018c-1.001 1.592-1.676 3.486-1.884 5.518l-0.005 0.055c-0.287 3.131 0.486 6.005 2.233 8.621 0.157 0.243 0.355 0.445 0.588 0.601l0.007 0.005c2.217 1.426 4.612 2.253 7.279 2.223zM11.216 5.198c1.425-0.407 3.068-0.656 4.763-0.688l0.019-0c1.641-0.007 3.24 0.304 4.876 0.836-0.508-0.896-3.431-2.95-4.902-3.488-1.828 0.903-3.396 2.019-4.76 3.345l0.004-0.004zM20.796 26.8c-0.065-0.053-0.086-0.083-0.102-0.080-0.092 0.019-0.182 0.042-0.273 0.067-1.005 0.322-2.174 0.55-3.381 0.64l-0.051 0.003c-0.284 0.019-0.616 0.030-0.95 0.030-1.502 0-2.952-0.221-4.32-0.631l0.106 0.027c-0.143-0.044-0.343-0.231-0.536 0.070 1.46 1.258 3.012 2.372 4.713 3.187 1.456-0.601 4.119-2.448 4.793-3.313zM5.243 20.645c-0.295-1.123-0.541-2.151-0.627-3.205-0.039-0.426-0.062-0.922-0.062-1.423 0-0.63 0.035-1.252 0.104-1.864l-0.007 0.075c0.119-1.057 0.416-2.078 0.676-3.197-1.245 1.203-3.056 3.872-3.413 4.998 0.587 1.456 2.468 4.133 3.329 4.617z"></path>
<path d="M27.023 20.633c-0.059 0.034-0.116 0.079-0.191 0.011-0.042-0.060-0.010-0.123 0.024-0.185z"></path>
<path d="M8.932 8.81c2.17-0.66 4.35-0.952 6.597-0.651 0.17 0.020 0.367 0.032 0.567 0.032 0.255 0 0.506-0.019 0.751-0.055l-0.028 0.003c2.19-0.26 4.324 0.016 6.428 0.686 0.318 0.933 0.561 2.027 0.684 3.156l0.006 0.070c0.105 0.876 0.176 1.75 0.024 2.637-0.143 0.849-0.077 1.711 0 2.567 0.186 1.905-0.106 3.758-0.617 5.593-0.053 0.141-0.106 0.258-0.166 0.371l0.008-0.016c-2.041 0.608-4.118 0.952-6.265 0.675-0.26-0.039-0.56-0.061-0.865-0.061-0.275 0-0.546 0.018-0.811 0.053l0.031-0.003c-2.171 0.297-4.273-0.046-6.378-0.665-0.352-0.913-0.605-1.972-0.713-3.075l-0.004-0.050c-0.060-0.505-0.094-1.090-0.094-1.682 0-0.771 0.057-1.528 0.168-2.268l-0.010 0.083c0.008-0.076 0.013-0.165 0.013-0.255 0-0.136-0.011-0.269-0.032-0.399l0.002 0.014c-0.074-0.569-0.116-1.227-0.116-1.896 0-1.646 0.255-3.233 0.728-4.723l-0.030 0.11c0.041-0.101 0.081-0.184 0.125-0.263l-0.006 0.012zM16.050 9.051c-0.128 0.008-0.245 0.023-0.36 0.044l0.018-0.003c-3.418 0.815-5.593 2.911-6.501 6.31-0.047 0.173-0.073 0.371-0.073 0.575 0 0.224 0.032 0.44 0.092 0.644l-0.004-0.016c0.906 3.411 3.121 5.464 6.517 6.3 0.092 0.025 0.197 0.040 0.305 0.040 0.092 0 0.181-0.010 0.266-0.030l-0.008 0.002c3.452-0.792 5.661-2.884 6.597-6.311 0.054-0.185 0.085-0.398 0.085-0.618 0-0.209-0.028-0.411-0.080-0.603l0.004 0.016c-0.795-3.012-2.619-5.076-5.593-6.067-0.37-0.142-0.799-0.243-1.246-0.284l-0.019-0.001zM23.078 18.754c-0.47 0.539-0.802 1.147-1.241 1.675-0.421 0.526-0.889 0.985-1.407 1.384l-0.019 0.014c-0.538 0.397-1.101 0.759-1.654 1.137 0.134 0.007 0.29 0.011 0.448 0.011 1.172 0 2.293-0.22 3.324-0.62l-0.063 0.021c0.389-1.078 0.614-2.322 0.614-3.619 0-0.001 0-0.003 0-0.004v0zM9.056 13.246c0.595-0.861 1.156-1.721 1.899-2.447s1.621-1.276 2.5-1.837c-0.071-0.002-0.155-0.003-0.239-0.003-1.28 0-2.505 0.233-3.635 0.66l0.071-0.023c-0.373 1.196-0.654 2.375-0.595 3.65zM9.638 22.356c1.291 0.513 3.228 0.822 3.753 0.574-1.845-0.966-3.323-2.418-4.292-4.189l-0.027-0.053c-0.125 1.286 0.179 2.481 0.565 3.669zM18.689 8.971c1.86 1.003 3.353 2.478 4.351 4.267l0.028 0.055c0.006-0.121 0.009-0.263 0.009-0.405 0-1.195-0.239-2.335-0.672-3.373l0.021 0.058c-1.241-0.406-2.46-0.658-3.738-0.601z"></path>
</svg>
