<!-- Generated by IcoMoon.io -->
<svg version="1.1" xmlns="http://www.w3.org/2000/svg" width="32" height="32" viewBox="0 0 32 32">
<title>lostsector</title>
<path d="M29.872 29.589v-0.262l-0.137-0.24-0.157 0.122c-0.015-0.062-0.029-0.115-0.046-0.182l-0.076 0.133c0.013 0.071 0.027 0.144 0.040 0.216l-0.039 0.019-0.204-0.232-0.159-0.067c-0.131-0.645-0.087-1.264-0.101-1.881-0.024-0.845-0.244-1.632-0.615-2.327l0.014 0.028c-0.008 0.214-0.051 0.425 0.021 0.637 0.012 0.055 0.019 0.119 0.019 0.184 0 0.021-0.001 0.043-0.002 0.064l0-0.003c0.023 0.556 0.044 1.112 0.071 1.668 0.007 0.141 0.044 0.28 0.053 0.422 0.020 0.339-0.047 0.667-0.147 1.012l-0.141-0.050-0.083 0.072 0.111 0.129-0.219 0.153-0.069-0.076 0.037-0.072-0.181-0.092 0.019-0.044 0.131 0.041 0.093-0.076c-0.088-0.265-0.43-0.137-0.562-0.37l0.205-0.119c0.006 0.037 0.013 0.074 0.020 0.111l0.042-0.022-0.068-0.084c-0.055-0.115-0.145-0.205-0.257-0.258l-0.003-0.001c-0.062-0.194-0.119-0.375-0.171-0.557-0.142-0.513-0.312-1.019-0.387-1.551-0.034-0.239-0.125-0.471-0.114-0.718 0.004-0.091 0.021-0.182 0.034-0.292h0.463c-0.081-0.152-0.171-0.157-0.284-0.069l-0.052-0.106-0.164 0.125c0-0.085 0-0.146 0-0.206 0.005-0.106 0.037-0.217 0.013-0.316-0.030-0.125 0.023-0.215 0.046-0.322 0.016-0.080 0.033-0.187-0.004-0.245-0.101-0.166-0.046-0.312 0.016-0.457-0.027-0.059-0.047-0.106-0.087-0.196l0.166-0.14 0.041 0.024c-0.014 0.043-0.028 0.086-0.046 0.139l0.082 0.145h0.237c0.073-0.069 0.156-0.147 0.232-0.22l0.523-0.175-0.147-0.208-0.25-0.102 0.062-0.109-0.172-0.161 0.047-0.106-0.334-0.131c-0.066-0.158-0.192-0.291-0.177-0.479l0.181 0.046 0.069-0.076-0.076-0.073-0.175 0.057v-0.11l-0.187 0.039c0-0.128-0.007-0.241 0-0.352 0.012-0.163-0.042-0.332 0.046-0.487-0.091-0.165-0.036-0.344-0.046-0.516s-0.003-0.333-0.004-0.5c0.004-0.062 0.006-0.135 0.006-0.208 0-0.102-0.004-0.204-0.012-0.304l0.001 0.013c-0.058-0.41-0.026-0.826-0.068-1.234-0.040-0.386-0.058-0.776-0.119-1.159-0.112-0.71-0.236-1.417-0.415-2.116-0.165-0.639-0.355-1.182-0.584-1.705l0.028 0.071c-0.266-0.603-0.561-1.12-0.903-1.603l0.019 0.028c-0.169-0.244-0.312-0.506-0.521-0.721-0.052-0.067-0.098-0.144-0.133-0.225l-0.003-0.007c-0.239-0.169-0.438-0.376-0.592-0.616l-0.005-0.009 0.076-0.037c-0.015-0.118 0.107-0.242-0.017-0.382l-0.253 0.219c-0.312-0.241-0.649-0.471-0.933-0.822-0.152-0.081-0.391-0.125-0.445-0.387l0.106 0.056c0.023-0.052 0.046-0.102 0.079-0.177l-0.177 0.019v0.11l-0.169-0.17c0.007 0.082 0.010 0.119 0.014 0.173-0.364-0.215-0.72-0.423-1.072-0.638-0.047-0.029-0.074-0.093-0.116-0.148l-0.257-0.132c-0.040 0.009-0.107 0.048-0.15 0.030-0.334-0.14-0.663-0.291-0.994-0.437l0.062-0.152c-0.146 0.045-0.226-0.062-0.354-0.092l-0.149 0.049v-0.25l0.206-0.157h-0.374l0.046 0.139-0.106 0.055 0.049 0.152-0.187 0.016c0.023-0.047 0.036-0.072 0.062-0.131-0.085 0.029-0.146 0.049-0.206 0.068l-0.237-0.191-0.25-0.303c0.012-0.041 0.025-0.082 0.038-0.125l-0.036-0.019c-0.046 0.062-0.093 0.131-0.138 0.196 0.092 0.076 0.167 0.143 0.25 0.2 0.040 0.021 0.086 0.038 0.134 0.049l0.004 0.001c0 0.031-0.006 0.062-0.009 0.102-0.151 0.068-0.269-0.020-0.394-0.069-0.383-0.045-0.771-0.054-1.147-0.169l0.055-0.143-0.037-0.024-0.146 0.179-0.301-0.179-0.028 0.036 0.112 0.111c-0.006 0.008-0.016 0.031-0.027 0.032-0.39 0.023-0.784 0.020-1.17 0.072-0.462 0.062-0.923 0.125-1.381 0.22-0.448 0.090-0.874 0.242-1.321 0.342-0.22 0.060-0.409 0.131-0.589 0.218l0.020-0.009c-0.788 0.339-1.555 0.718-2.257 1.218-0.691 0.497-1.297 1.038-1.841 1.636l-0.008 0.009c-0.27 0.296-0.53 0.617-0.771 0.952l-0.022 0.032c-0.196 0.274-0.393 0.59-0.569 0.918l-0.023 0.048c-0.245 0.457-0.488 0.919-0.687 1.396-0.179 0.427-0.307 0.874-0.446 1.32-0.085 0.27-0.153 0.545-0.222 0.819-0.031 0.118-0.062 0.269-0.084 0.422l-0.003 0.023c-0.030 0.213-0.024 0.434-0.079 0.64-0.080 0.301-0.004 0.615-0.104 0.913-0.026 0.075-0.006 0.166-0.006 0.25 0 2.081 0.003 4.161-0.011 6.242 0 0.017 0 0.036 0 0.056 0 0.53-0.062 1.046-0.18 1.541l0.009-0.045c-0.051 0.207-0.050 0.426-0.074 0.64-0.007 0.062-0.016 0.121-0.029 0.18-0.018 0.074-0.028 0.16-0.028 0.247 0 0.095 0.012 0.188 0.035 0.276l-0.002-0.008c0.062 0.256 0.009 0.512-0.047 0.764-0.191 0.091-0.158 0.309-0.26 0.452-0.263-0.107-0.487-0.262-0.67-0.455l-0.001-0.001c-0.052-0.054-0.101-0.107-0.187-0.085l-0.013-0.161-0.141 0.143 0.159 0.011c-0.036 0.031-0.071 0.062-0.111 0.096l0.033 0.069-0.229 0.082 0.062 0.18-0.171 0.191-0.181-0.167c-0.052 0.094-0.082 0.206-0.082 0.325 0 0.092 0.018 0.179 0.051 0.259l-0.002-0.005-0.184 0.096c-0.106-0.45-0.062-0.918-0.233-1.37l-0.16 0.091 0.074 0.148-0.087 0.444c-0.069-0.046-0.069-0.046-0.033-0.166l-0.169-0.187-0.212 0.133c0.021 0.062 0.035 0.106 0.050 0.153l-0.082-0.006-0.049-0.177-0.155 0.009c-0.011 0.147 0.12 0.176 0.166 0.264l-0.048 0.102-0.062 0.062c-0.167-0.096-0.142-0.287-0.175-0.428-0.114-0.486-0.098-0.989-0.059-1.481 0.018-0.224 0.041-0.448 0.041-0.673 0.003-0.988 0-1.977 0-2.966 0.001-0.015 0.002-0.032 0.002-0.050 0-0.094-0.019-0.183-0.052-0.264l0.002 0.005c-0.024 0.259-0.066 0.517-0.069 0.776-0.010 0.781-0.004 1.561-0.008 2.342 0 0.099-0.020 0.199-0.034 0.329 0.074 0.13 0.036 0.309 0.031 0.48 0 0.084-0.053 0.166-0.085 0.256-0.24-0.042-0.359-0.212-0.459-0.37-0.112-0.177-0.178-0.385-0.254-0.583-0.015-0.039 0.017-0.095 0.032-0.162-0.104-0.196-0.165-0.429-0.165-0.676 0-0.032 0.001-0.064 0.003-0.096l-0 0.004 0.312-0.102c-0.036-0.080-0.071-0.159-0.111-0.245l-0.187-0.047c-0.006-0.024-0.015-0.052-0.021-0.081-0.026-0.094-0.047-0.206-0.056-0.32l-0.001-0.007c-0.004-1.114-0.034-2.229 0.013-3.34 0.024-0.568 0.003-1.138 0.059-1.703 0.031-0.319 0.019-0.639 0.057-0.954 0.056-0.458 0.074-0.919 0.125-1.378 0.042-0.404 0.138-0.803 0.17-1.208 0.034-0.43 0.134-0.845 0.206-1.267 0.049-0.287 0.142-0.566 0.214-0.849 0.033-0.097 0.063-0.215 0.084-0.336l0.002-0.014c0.040-0.408 0.187-0.787 0.319-1.168 0.326-0.95 0.764-1.843 1.378-2.646 0.279-0.366 0.527-0.756 0.806-1.124 0.242-0.319 0.5-0.625 0.763-0.928 0.23-0.264 0.465-0.528 0.716-0.774 0.856-0.838 1.807-1.585 2.834-2.221l0.070-0.040c0.435-0.271 0.958-0.554 1.498-0.807l0.098-0.041c0.356-0.164 0.816-0.342 1.287-0.497l0.102-0.029c0.338-0.126 0.775-0.257 1.221-0.364l0.087-0.018c0.276-0.062 0.548-0.142 0.833-0.174 0.332-0.037 0.66-0.114 0.989-0.174 0.021-0.004 0.042 0 0.062 0 0.879-0.087 1.761-0.069 2.641-0.064 0.325 0.119 0.672 0.016 1.004 0.109 0.192 0.054 0.405 0.024 0.609 0.066 0.408 0.084 0.829 0.109 1.234 0.205 0.763 0.17 1.404 0.361 2.027 0.59l-0.109-0.035c0.975 0.36 1.808 0.766 2.593 1.242l-0.067-0.038c0.496 0.301 0.916 0.593 1.319 0.907l-0.030-0.023c0.407 0.316 0.784 0.671 1.162 1.021 0.29 0.269 0.562 0.556 0.841 0.837 0.356 0.359 0.661 0.761 0.981 1.153 0.37 0.455 0.706 0.932 1.029 1.42 0.416 0.63 0.828 1.26 1.145 1.949 0.267 0.573 0.516 1.256 0.708 1.963l0.021 0.092c0.114 0.418 0.219 0.839 0.307 1.264 0.062 0.298 0.070 0.607 0.138 0.903 0.079 0.345 0.049 0.708 0.176 1.045 0.003 0.014 0.004 0.030 0.004 0.047s-0.001 0.033-0.004 0.048l0-0.002c0.002 0.4 0.048 0.787 0.132 1.16l-0.007-0.036c0.001 0.005 0.001 0.010 0.001 0.015s-0 0.011-0.001 0.016l0-0.001c0.023 0.433 0.036 0.866 0.069 1.297 0.045 0.599 0.070 1.297 0.070 2 0 0.422-0.009 0.842-0.027 1.26l0.002-0.060c-0.019 0.557-0.015 1.116-0.062 1.67-0.025 0.298-0.012 0.599-0.059 0.891-0.062 0.391-0.066 0.789-0.172 1.175-0.051 0.164-0.117 0.306-0.2 0.437l0.004-0.007c-0.187 0.077-0.326-0.021-0.494-0.097-0.043 0.066-0.085 0.142-0.121 0.222l-0.004 0.010c-0.064 0.19-0.111 0.412-0.132 0.641l-0.001 0.011c-0.049 0.391-0.016 0.786-0.067 1.171-0.047 0.355-0.032 0.736-0.273 1.052l-0.117-0.107-0.196 0.148-0.215-0.032zM1.697 27.34l-0.101-0.131c-0.041 0.141 0.037 0.128 0.107 0.125-0.003 0.011-0.005 0.024-0.005 0.037 0 0.070 0.050 0.128 0.116 0.141l0.001 0c0-0.034 0.006-0.071-0.009-0.086-0.033-0.031-0.069-0.060-0.107-0.085l-0.003-0.002zM2.134 27.275c0.009-0.131-0.076-0.182-0.199-0.242 0.021 0.111 0.097 0.201 0.198 0.241l0.002 0.001-0.033 0.074 0.244 0.343 0.014-0.237zM2.701 27.028l-0.16-0.141v0.452l0.099 0.085c0.019-0.151 0.071-0.269 0.054-0.403 0.084 0.011 0.147-0.011 0.181-0.125l-0.174 0.021zM2.822 27.766l0.089 0.004c0.125-0.129 0.089-0.28 0.062-0.457l-0.208-0.041 0.044 0.105-0.107 0.046c0.089 0.079 0.146 0.171 0.125 0.292l-0.202-0.066-0.149 0.081 0.056 0.272 0.231-0.075-0.039-0.147zM27.493 24.274c0.12-0.042 0.046-0.1 0.023-0.137 0.026-0.108 0.047-0.202 0.078-0.33l0.148 0.162 0.132-0.069c0.006 0.037 0.012 0.073 0.018 0.11l0.040-0.020-0.066-0.083c-0.053-0.084-0.107-0.167-0.166-0.258l-0.193 0.044-0.1-0.089-0.272 0.212 0.062 0.092-0.187 0.154v0.284l0.418 0.166zM2.493 26.68c-0.089-0.048-0.174-0.119-0.33-0.135l0.26 0.29zM1.845 26.972l0.050-0.054c-0.109-0.049-0.149-0.179-0.285-0.21l-0.034 0.087zM18.62 6.348c-0.111 0.038-0.175-0.144-0.284-0.038 0.067 0.076 0.131 0.147 0.197 0.222 0.021-0.048 0.043-0.092 0.086-0.184zM21.507 8.106l0.223 0.246c0-0.214 0-0.214-0.223-0.245zM15.606 5.944c0.045 0.156 0.083 0.221 0.247 0.21zM23.826 9.715l0.051-0.034-0.097-0.134-0.041 0.027zM27.527 23.306l0.089 0.086 0.101-0.122zM28.244 28.771c-0.039-0.077-0.062-0.125-0.109-0.213v0.201zM30.492 29.043l-0.062 0.003c0.005 0.072 0.011 0.144 0.016 0.216h0.035zM29.058 9.705l-0.042-0.032-0.072 0.085 0.027 0.027zM13.278 4.665l0.029-0.034-0.087-0.082-0.034 0.037zM0.504 20.612l-0.053 0.004 0.025 0.138h0.028zM27.274 21.959c-0.042 0.111 0 0.128 0.111 0.125zM30.978 23.753c0.118 0.031 0.149 0.004 0.122-0.129zM30.772 24.088c0.033-0.036 0.062-0.062 0.114-0.121-0.126-0.003-0.164 0.019-0.116 0.119zM3.055 27.461c0.106-0.011 0.179 0 0.107-0.116zM0.744 20.758v-0.033l-0.089 0.009v0.029zM13.558 4.334l-0.004-0.033-0.095 0.011 0.005 0.036zM10.893 7.179v0.034l0.094-0.009v-0.033zM11.25 7.207l-0.003-0.032-0.097 0.009 0.003 0.033zM1.746 27.718l-0.034 0.004 0.009 0.099 0.039-0.004zM21.105 7.487h-0.024v0.102h0.024zM28.236 9.080v-0.028l-0.102-0.005v0.033zM28.382 9.054v0.027h0.101v-0.027zM2.403 28.015l0.036-0.004-0.012-0.096-0.035 0.004zM30.186 13.951l0.056-0.004c-0.006-0.031-0.012-0.062-0.017-0.094h-0.025zM28.174 9.475c-0.024 0.026-0.047 0.042-0.044 0.049 0.010 0.018 0.023 0.034 0.037 0.047l0 0c-0.001-0.027 0.001-0.054 0.007-0.096zM28.244 27.721c0.030 0.027 0.047 0.049 0.054 0.046 0.019-0.011 0.035-0.023 0.049-0.039l0-0zM29.605 28.658l-0.033 0.004 0.009 0.094 0.036-0.004zM29.303 28.983h-0.053c0.005 0.031 0.009 0.062 0.014 0.094h0.027zM30.167 28.967l-0.034 0.004 0.010 0.097 0.037-0.004zM27.418 24.845l-0.032 0.003 0.009 0.096 0.036-0.004zM0.595 20.946l0.032-0.004-0.011-0.084-0.031 0.004z"></path>
<path d="M7.824 28.776h-0.183l0.040 0.090-0.071 0.139c-0.069-0.049-0.062-0.201-0.213-0.151-0.045 0.156 0.164 0.171 0.169 0.322l-0.177 0.039c-0.209-0.117-0.242-0.308-0.25-0.503-0.009-0.218-0.004-0.437 0-0.655-0.001-0.419-0.061-0.824-0.172-1.207l0.008 0.031c-0.037-0.129-0.066-0.281-0.080-0.438l-0.001-0.010c-0.029-0.307-0.045-0.615-0.069-0.922-0.046-0.626-0.072-1.355-0.072-2.091 0-0.412 0.008-0.823 0.024-1.231l-0.002 0.059c0.016-0.526 0.017-1.055 0.062-1.578 0.027-0.309 0.011-0.62 0.057-0.923 0.074-0.481 0.125-0.965 0.222-1.445 0.173-0.806 0.373-1.489 0.617-2.152l-0.035 0.109c0.141-0.405 0.342-0.783 0.528-1.167 0.335-0.681 0.71-1.267 1.14-1.806l-0.015 0.020c0.649-0.816 1.413-1.505 2.274-2.055l0.037-0.022c0.603-0.364 1.24-0.661 1.932-0.812 0.395-0.087 0.793-0.184 1.202-0.187s0.816-0.036 1.215 0.014c0.491 0.050 0.93 0.127 1.359 0.231l-0.068-0.014c0.382 0.1 0.762 0.201 1.137 0.324 0.147 0.048 0.214 0.16 0.291 0.269 0.013 0.019-0.011 0.062-0.019 0.105 0.131 0.106 0.274 0.179 0.458 0.153 0.011 0.044 0.023 0.092 0.037 0.154h0.206l0.195-0.179 0.289 0.181-0.137 0.121 0.125 0.087 0.105-0.152 0.103 0.125 0.072-0.038c0.22 0.158 0.455 0.316 0.678 0.489 0.407 0.312 0.812 0.632 1.121 1.054 0.164 0.224 0.355 0.427 0.517 0.652 0.157 0.211 0.318 0.453 0.465 0.704l0.021 0.038c0.343 0.586 0.638 1.263 0.85 1.976l0.017 0.066c0.104 0.322 0.205 0.729 0.281 1.145l0.010 0.065c0.076 0.462 0.159 0.921 0.191 1.389 0.010 0.149 0.047 0.297 0.076 0.465-0.154-0.032-0.187-0.207-0.333-0.177-0.031-0.039-0.062-0.079-0.101-0.131-0.044 0.136 0.030 0.131 0.102 0.129l0.301 0.345c0.062 0.485 0.113 0.996 0.039 1.511l-0.224 0.083 0.101 0.125 0.145-0.062v0.914c-0.041 0.005-0.077 0.012-0.112 0.021l0.006-0.001c-0.034 0.016-0.063 0.033-0.089 0.053l0.001-0.001 0.206 0.156c-0.021 0.154 0.045 0.312-0.056 0.454 0.111 0.187-0.026 0.375-0.006 0.566 0.007 0.084 0.011 0.182 0.011 0.281s-0.004 0.197-0.011 0.294l0.001-0.013c-0.014 0.287-0.043 0.574-0.054 0.861s0.023 0.587-0.015 0.874c-0.066 0.5-0.125 1.004-0.277 1.493-0.076 0.241-0.176 0.472-0.237 0.712l-0.103 0.012c-0.044-0.104-0.089-0.208-0.132-0.308l-0.096 0.042c-0.299-0.299-0.299-0.299-0.558-0.393l0.478 0.538c-0.104 0.152-0.066 0.283-0.040 0.447l0.161-0.369 0.187 0.039c0 0.031-0.005 0.062-0.008 0.099l-0.106 0.051 0.036 0.078-0.090 0.038 0.042 0.134-0.071 0.075c-0.085 0.055-0.157-0.074-0.239 0.014-0.014 0.016-0.117-0.049-0.179-0.076l0.062-0.105c-0.221-0.266-0.404-0.574-0.729-0.741l-0.062 0.052c-0.154-0.143-0.271-0.324-0.337-0.528l-0.002-0.009c-0.010-0.041-0.030-0.076-0.057-0.104l0 0c-0.23-0.21-0.263-0.505-0.307-0.779-0.075-0.463-0.103-0.937-0.151-1.403-0.082-0.788-0.004-1.573-0.056-2.36 0.041-0.053 0.079-0.101 0.121-0.153-0.033-0.020-0.066-0.039-0.082-0.048 0.011-0.062 0.020-0.137 0.025-0.213l0-0.005c0.004-0.738 0.008-1.477 0-2.215 0-0.182-0.042-0.363-0.056-0.547-0.004-0.186-0.023-0.365-0.055-0.539l0.003 0.021c-0.046-0.196-0.037-0.404-0.067-0.608-0.125-0.871-0.317-1.719-0.759-2.49-0.126-0.215-0.263-0.402-0.418-0.572l0.002 0.003c-0.489-0.537-1.034-1.008-1.63-1.409l-0.032-0.020c-0.567-0.379-1.196-0.601-1.834-0.805-0.191-0.062-0.405-0.051-0.608-0.077-0.131-0.016-0.263-0.062-0.392-0.051-0.468 0.032-0.937 0.052-1.394 0.179-0.405 0.104-0.756 0.235-1.089 0.396l0.034-0.015c-0.492 0.25-0.972 0.525-1.385 0.899-0.183 0.167-0.378 0.322-0.551 0.5-0.514 0.519-0.949 1.118-1.284 1.776l-0.019 0.040c-0.149 0.31-0.264 0.67-0.326 1.047l-0.003 0.023c-0.151 0.849-0.117 1.707-0.119 2.561 0 2.153 0 4.307-0.008 6.459-0.011 0.45-0.114 0.874-0.293 1.256l0.008-0.019c-0.011 0.026-0.043 0.042-0.079 0.076l-0.144-0.115 0.057-0.122-0.759-0.468-0.094 0.102 0.18 0.089 0.303 0.352-0.111 0.047c0.016 0.044 0.028 0.094 0.034 0.147l0 0.003c-0.006 0.053-0.018 0.102-0.035 0.148l0.001-0.004-0.132-0.057c0.023-0.057 0.044-0.114 0.072-0.187-0.125 0.029-0.125 0.029-0.192 0.121-0.147-0.179-0.287-0.365-0.5-0.487l0.045-0.128-0.086-0.079-0.1 0.262 0.353 0.232c0.031 0.052 0.063 0.115 0.091 0.18l0.005 0.012c0.016 0.048 0.029 0.107 0.039 0.167l0.001 0.007-0.093 0.045 0.148 0.077-0.217 0.080c0.002-0.010 0.004-0.022 0.004-0.034 0-0.076-0.055-0.14-0.128-0.153l-0.001-0c-0.021-0.177-0.136-0.26-0.324-0.329 0.104 0.156 0.167 0.292 0.327 0.327-0.002 0.010-0.004 0.022-0.004 0.034 0 0.076 0.055 0.14 0.128 0.153l0.001 0c0.036 0.062 0.072 0.131 0.109 0.196l0.062-0.040-0.032-0.054 0.159-0.155c0.096-0.014 0.062 0.191 0.187 0.091l-0.039-0.076 0.11-0.057v-0.153l0.125 0.194 0.006-0.007-0.254 0.403-0.403 0.212-0.222-0.24h0.234l-0.154-0.083c0.017-0.044 0.034-0.087 0.056-0.143l-0.129-0.017zM23.933 19.845c-0.019-0.067-0.048-0.094-0.121-0.007h0.125c0 0.052-0.023 0.116 0.062 0.125l0.125 0.164c-0.014-0.083-0.009-0.125-0.023-0.131-0.031-0.013-0.068-0.022-0.105-0.026l-0.002-0c-0.005-0.050 0.022-0.114-0.061-0.125zM7.137 26.898c0.018 0.068 0.049 0.092 0.119 0.014l-0.125-0.007-0.019-0.109-0.041 0.021zM23.807 20.908c-0.011-0.204-0.010-0.204-0.211-0.234l0.217 0.228c-0.016 0.034-0.032 0.069-0.050 0.107l0.086 0.073 0.049-0.1 0.219 0.096c0.004-0.079 0.008-0.139 0.011-0.199l0.109-0.077-0.101-0.046 0.040-0.105-0.121 0.008-0.043-0.094-0.17 0.148h0.16q-0.098 0.096-0.195 0.192zM22.665 19.733c0.051-0.154 0.089-0.268 0.125-0.382l-0.051-0.017-0.116 0.225c-0.169-0.145-0.312-0.271-0.463-0.393-0.039-0.027-0.084-0.052-0.131-0.072l-0.005-0.002-0.025 0.039zM24.125 21.6c0.044 0.080 0.079 0.146 0.116 0.213l-0.046 0.074 0.101 0.009v-0.295zM23.578 21.139c-0.159 0.032-0.147 0.125-0.144 0.212zM7.855 25.086l-0.036 0.036 0.067 0.082 0.052-0.052zM24.344 21.023l-0.106 0.122c0.117 0.006 0.153-0.020 0.108-0.119zM20.389 12.048v0.030h0.157v-0.030zM24.11 20.361l-0.050 0.004c0.007 0.047 0.014 0.095 0.022 0.142h0.028zM21.913 19.035c0.007-0.039 0.024-0.080 0.014-0.089-0.042-0.024-0.090-0.044-0.141-0.058l-0.004-0.001zM7.906 27.28v0.055l0.093-0.013v-0.027zM8.33 27.728l0.004 0.035 0.094-0.011-0.004-0.036zM22.888 19.835c-0.041-0.032-0.058-0.052-0.067-0.050-0.018 0.006-0.032 0.025-0.047 0.039zM8.739 19.824l-0.006-0.038-0.084 0.016 0.005 0.032zM24.292 22.010l-0.007-0.039-0.082 0.018 0.007 0.034zM7.532 28.341v0.056l0.092-0.014v-0.026zM8.174 24.899v-0.055l-0.094 0.016v0.026z"></path>
<path d="M18.409 19.911l0.087 0.167v0.413l-0.14 0.088c0 0.116 0.022 0.218-0.006 0.305s-0.070 0.199-0.211 0.221c0 0.005 0 0.011 0 0.017 0 0.152-0.060 0.291-0.157 0.393l0-0c-0.395 0.424-0.827 0.798-1.358 1.048-0.423 0.2-0.86 0.332-1.33 0.271-0.659-0.075-1.244-0.343-1.709-0.745l0.004 0.003c-0.464-0.402-0.712-0.918-0.821-1.499-0.051-0.272-0.019-0.562-0.017-0.84 0-0.625 0.219-1.177 0.601-1.667 0.489-0.629 1.154-0.999 1.893-1.233 0.365-0.117 0.749-0.175 1.124-0.254 0.045-0.004 0.098-0.006 0.151-0.006s0.106 0.002 0.158 0.007l-0.007-0c-0.363 0.236-0.503 0.554-0.631 0.908 0.687 0.054 1.201 0.395 1.658 0.83 0.338 0.312 0.585 0.717 0.703 1.174l0.004 0.017c0.026 0.111 0.004 0.233 0.004 0.384zM15.569 18.528c-0.006 0.071 0 0.136 0.135 0.116l-0.142-0.108c-0.043-0.085-0.109-0.153-0.189-0.199l-0.002-0.001c0.031 0.149 0.088 0.204 0.199 0.192zM17.818 19.090c-0.011 0.137 0.083 0.197 0.187 0.25 0.031 0.086 0.062 0.172 0.096 0.269l0.109-0.067c-0.059-0.086-0.111-0.164-0.208-0.2 0.003-0.132-0.085-0.197-0.187-0.25-0.049-0.101-0.108-0.187-0.268-0.183 0.096 0.089 0.14 0.201 0.27 0.181zM16.256 19.215c0.019 0.062 0.046 0.094 0.114 0.015l-0.121-0.008c0-0.131-0.018-0.266 0.062-0.387 0.004-0.006-0.017-0.028-0.034-0.054l-0.142 0.205c-0.109-0.062-0.178-0.187-0.321-0.149 0.179 0.091 0.248 0.303 0.441 0.378zM17.499 20.158l0.059-0.125c-0.132 0.044-0.132 0.044-0.053 0.119-0.031 0.059-0.062 0.118-0.092 0.174l-0.086-0.032v0.165c0.116-0.062 0.192 0.008 0.267 0.054l0.153-0.317-0.066-0.086zM17.762 21.575l0.035-0.010c0.015-0.107 0.030-0.214 0.050-0.351-0.028-0.038-0.077-0.112-0.134-0.179-0.007-0.009-0.052 0.014-0.106 0.031l0.121 0.125c0.012 0.147 0.023 0.263 0.034 0.382zM17.941 20.931l-0.031-0.169-0.207 0.106c0.051 0.096 0.119 0.132 0.237 0.061zM16.945 20.802l0.207-0.219c-0.155 0.027-0.217 0.065-0.208 0.217zM17.82 20.654l0.197-0.109h-0.197zM17.32 20.204c-0.043-0.045-0.071-0.075-0.107-0.114l-0.125 0.114zM17.632 20.736v0.026h0.102v-0.026zM17.978 19.662l-0.032 0.003 0.009 0.097 0.036-0.004c0.002-0.034-0.004-0.066-0.008-0.098zM17.453 19.396l0.034-0.004-0.012-0.093-0.036 0.004zM13.83 18.674l0.004 0.036 0.087-0.012-0.003-0.029z"></path>
<path d="M1.327 28.459l0.062-0.062 0.103 0.049 0.042-0.1 0.222 0.125v0.34l-0.22 0.031-0.209-0.223z"></path>
<path d="M22.876 28.334c-0.039-0.008-0.093-0.003-0.114-0.027-0.111-0.127-0.22-0.266-0.322-0.412l-0.010-0.016c0.264 0.151 0.298 0.187 0.437 0.46z"></path>
<path d="M29.865 29.583l0.23 0.257c-0.239-0.027-0.344-0.129-0.408-0.32l0.187 0.070z"></path>
<path d="M29.678 29.958c-0.14 0.090-0.14 0.092-0.299-0.026v-0.262c0.071 0.135 0.112 0.292 0.307 0.292z"></path>
<path d="M8.824 28.214v-0.297l0.242 0.187-0.015 0.036-0.144-0.033-0.091 0.103z"></path>
<path d="M29.685 29.963l-0.099-0.266 0.312 0.259h-0.222z"></path>
<path d="M8.816 28.209l0.072 0.145-0.145 0.13-0.046-0.087-0.006 0.007c0.022-0.037 0.042-0.074 0.067-0.109s0.043-0.053 0.062-0.079z"></path>
<path d="M27.618 22.963c-0.003 0.038-0.006 0.076-0.011 0.162l-0.144-0.147 0.16-0.008z"></path>
<path d="M27.623 22.967c0.030-0.112 0.102-0.062 0.178-0.042l-0.073 0.089-0.11-0.051z"></path>
<path d="M29.11 29.287c0.112-0.021 0.138 0.011 0.114 0.121z"></path>
<path d="M29.744 29.346l-0.197 0.131c0.007-0.048 0.021-0.091 0.041-0.131l-0.001 0.003c0.010-0.014 0.049-0.002 0.157-0.002z"></path>
<path d="M1.841 28.453l-0.011-0.096 0.036-0.004 0.009 0.097z"></path>
<path d="M0.079 24.752l0.014-0.092h0.028l0.014 0.091z"></path>
<path d="M2.444 29.172l-0.012 0.092h-0.026l-0.016-0.092z"></path>
<path d="M22.87 28.338l0.069 0.081-0.041 0.023c-0.008-0.036-0.014-0.073-0.022-0.109z"></path>
<path d="M27.498 24.279c-0.177-0.035-0.182-0.042-0.196-0.254 0.066 0.085 0.131 0.169 0.196 0.254z"></path>
</svg>
