<!-- Generated by IcoMoon.io -->
<svg version="1.1" xmlns="http://www.w3.org/2000/svg" width="32" height="32" viewBox="0 0 32 32">
<title>lost_memory_fragments</title>
<path d="M15.943 1.171l-7.861 10.758 2.067 2.676 5.794-7.861 5.914 7.861 2.061-2.676-7.975-10.758z"></path>
<path d="M4.349 9.086h-4.349l15.943 21.744 16.057-21.744h-4.456l-11.601 15.615-11.594-15.615z"></path>
<path d="M15.943 12.825l-2.174 2.73 2.174 2.897 2.121-2.73-2.121-2.897z"></path>
<path d="M4.235 17.007l2.174 3.118-2.007 2.455h-4.068l3.9-5.573z"></path>
<path d="M7.58 21.964l1.9 2.569-1.733 2.174h-3.847l3.68-4.743z"></path>
<path d="M24.085 21.964l-1.786 2.455 1.733 2.121h3.619l-3.566-4.576z"></path>
<path d="M25.872 19.79l1.947-2.616 3.847 5.406-3.68-0.167-2.114-2.623z"></path>
<path d="M27.819 5.071l-3.512 4.743-1.84-2.288 1.84-2.455h3.512z"></path>
<path d="M7.58 5.071l1.9 2.455-1.9 2.455-3.68-4.911h3.68z"></path>
</svg>
