<?xml version="1.0" encoding="utf-8"?>
<!-- Generator: Adobe Illustrator 23.0.6, SVG Export Plug-In . SVG Version: 6.00 Build 0)  -->
<svg version="1.1" id="Layer_1" xmlns="http://www.w3.org/2000/svg" xmlns:xlink="http://www.w3.org/1999/xlink" x="0px" y="0px"
	 width="32px" height="32px" viewBox="0 0 32 32" style="enable-background:new 0 0 32 32;" xml:space="preserve">
<path d="M16,1.2L8.1,11.9l2.1,2.7L16,6.7l5.8,7.9l2.1-2.7L16,1.2z M16,24.7L4.4,9.1H0.1L16,30.8L31.9,9.1h-4.3L16,24.7z M16,12.8
	l-2.2,2.7l2.2,2.9l2.2-2.9L16,12.8z M4.3,17l2.2,3.1l-2,2.5H0.4L4.3,17z M27.7,17l3.9,5.6h-4.1l-2-2.5L27.7,17z M7.6,22l1.9,2.6
	l-1.7,2.2H4L7.6,22z M28,26.7h-3.8l-1.7-2.2l1.9-2.6L28,26.7z M7.6,5.1l1.9,2.5L7.6,10L4,5.1H7.6z M24.4,5.1H28L24.4,10l-1.9-2.5
	L24.4,5.1z"/>
</svg>
