<?xml version="1.0" encoding="utf-8"?>
<!-- Generator: Adobe Illustrator 23.0.6, SVG Export Plug-In . SVG Version: 6.00 Build 0)  -->
<svg version="1.1" id="Layer_1" xmlns="http://www.w3.org/2000/svg" xmlns:xlink="http://www.w3.org/1999/xlink" x="0px" y="0px"
	 width="32px" height="32px" viewBox="0 0 32 32" style="enable-background:new 0 0 32 32;" xml:space="preserve">
<path d="M29.3,15.4c0.3,0,0.6,0.3,0.6,0.6s-0.3,0.6-0.6,0.6s-0.6-0.3-0.6-0.6S29,15.4,29.3,15.4z M3.3,16c0-0.3-0.3-0.6-0.6-0.6
	c-0.3,0-0.6,0.3-0.6,0.6s0.3,0.6,0.6,0.6C3,16.6,3.3,16.3,3.3,16z M27.7,11.1c0.1,0.3,0.5,0.4,0.8,0.3c0.3-0.1,0.4-0.5,0.3-0.8
	c-0.1-0.3-0.5-0.4-0.8-0.3C27.7,10.5,27.6,10.8,27.7,11.1z M4.3,20.9c-0.1-0.3-0.5-0.5-0.8-0.3S3,21,3.2,21.3s0.5,0.5,0.8,0.3
	S4.4,21.2,4.3,20.9z M25,7c0.2,0.2,0.6,0.2,0.8,0c0.2-0.2,0.2-0.6,0-0.8c-0.2-0.2-0.6-0.2-0.8,0C24.7,6.4,24.7,6.8,25,7z M7,25
	c-0.2-0.2-0.6-0.2-0.8,0s-0.2,0.6,0,0.8s0.6,0.2,0.8,0C7.3,25.6,7.3,25.2,7,25z M7,7c0.2-0.2,0.2-0.6,0-0.8c-0.2-0.2-0.6-0.2-0.8,0
	C5.9,6.4,5.9,6.8,6.2,7C6.4,7.3,6.8,7.3,7,7z M4.3,11.1c0.1-0.3,0-0.7-0.3-0.8c-0.3-0.1-0.7,0-0.8,0.3c-0.1,0.3,0,0.7,0.3,0.8
	S4.1,11.4,4.3,11.1z M27.7,20.8c-0.1,0.3,0,0.7,0.3,0.8c0.3,0.1,0.7,0,0.8-0.3c0.1-0.3,0-0.7-0.3-0.8S27.9,20.5,27.7,20.8z
	 M23.6,24.2v3.1c-0.9,0.5-1.8,0.8-2.7,1.3v1.1L16,32l-4.9-2.3v-1.1l-2.7-1.3v-3.2c-2.2-2-3.6-5-3.6-8.2s1.4-6.2,3.6-8.2V4.6l2.7-1.3
	V2.3L16,0l4.9,2.3v1.1c0.9,0.5,1.8,0.8,2.7,1.3v3.1c2.2,2,3.6,5,3.6,8.2S25.8,22.2,23.6,24.2z M8.8,7.5c1.9-1.6,4.5-2.6,7.2-2.6
	c2.7,0,5.3,1,7.2,2.6V4.8L16,1.5L8.8,4.8V7.5z M16,26.5c5.8,0,10.5-4.7,10.5-10.5S21.8,5.5,16,5.5S5.5,10.2,5.5,16
	S10.2,26.5,16,26.5z M23.2,24.6c-1.9,1.6-4.5,2.6-7.2,2.6c-2.8,0-5.3-1-7.2-2.6v2.6l7.2,3.4l7.2-3.4V24.6z M25.5,16
	c0,5.2-4.2,9.5-9.5,9.5S6.5,21.2,6.5,16s4.2-9.5,9.5-9.5S25.5,10.8,25.5,16z M17.6,13.6L17,15.4l1.9,0.4l4.9-4.3L17.6,13.6z
	 M14.7,13.4l1.3,1.5l1.3-1.5L16,7L14.7,13.4z M8.2,11.5l4.9,4.3l1.9-0.4l-0.6-1.8L8.2,11.5z M14.4,18.4l0.6-1.8l-1.9-0.4l-4.9,4.3
	L14.4,18.4z M17.3,18.6L16,17.2l-1.3,1.5L16,25L17.3,18.6z M23.8,20.5l-4.9-4.3L17,16.6l0.6,1.8L23.8,20.5z"/>
</svg>
