<?xml version="1.0" encoding="utf-8"?>
<!-- Generator: Adobe Illustrator 23.0.6, SVG Export Plug-In . SVG Version: 6.00 Build 0)  -->
<svg version="1.1" id="Layer_1" xmlns="http://www.w3.org/2000/svg" xmlns:xlink="http://www.w3.org/1999/xlink" x="0px" y="0px"
	 width="32px" height="32px" viewBox="0 0 32 32" style="enable-background:new 0 0 32 32;" xml:space="preserve">
<path d="M21.9,10.3l-6.3,13.4l-2-5l-5-1.7L21.9,10.3z M29.3,7.1c0,0.3,0,0.5,0,0.7c0,1.1,0.2,2.1,0.6,3.1c0.6,1.6,0.9,3.3,0.9,5.1
	c0,8.2-6.6,14.8-14.8,14.8c-1.7,0-3.4-0.3-5-0.9c-1-0.3-2-0.5-3-0.5c-0.2,0-0.5,0-0.8,0C9.7,31,12.8,32,16,32c8.8,0,16-7.2,16-16
	C32,12.7,31,9.6,29.3,7.1z M1.2,16C1.2,7.8,7.8,1.2,16,1.2c1.8,0,3.5,0.3,5.1,0.9c1,0.4,2,0.5,3.1,0.5c0.2,0,0.5,0,0.7,0
	C22.3,1,19.3,0,16,0C7.2,0,0,7.2,0,16c0,3.2,1,6.2,2.6,8.8c0,0,0-0.4,0-0.9c0-1-0.2-2-0.5-3C1.5,19.4,1.2,17.7,1.2,16z M28.7,12.2
	c-0.3-0.8-0.4-1.7-0.4-2.6v-6h-6.1c-0.9,0-1.7-0.1-2.5-0.4c-1.2-0.3-2.4-0.5-3.7-0.5C8.7,2.7,2.7,8.7,2.7,16c0,1.2,0.2,2.4,0.5,3.6
	c0.2,0.8,0.3,1.6,0.3,2.4v6.4h6.3c0.8,0,1.7,0.1,2.5,0.3c1.2,0.3,2.4,0.5,3.6,0.5c7.3,0,13.3-5.9,13.3-13.3
	C29.3,14.7,29.1,13.4,28.7,12.2z M16,28C9.4,28,4,22.6,4,16S9.4,4,16,4s12,5.4,12,12S22.6,28,16,28z"/>
</svg>
