<svg xmlns="http://www.w3.org/2000/svg" viewBox="0 0 1557 885">
  <title>Asset 1</title>
  <g id="Layer_2" data-name="Layer 2">
    <g id="Layer_1-2" data-name="Layer 1">
      <path d="M158,885V812H0v73Zm1099,0V812H300v73Zm300,0V812H1399v73ZM1240,394a238.81563,238.81563,0,0,1,14.5,24q7.5,14,8.5,21,2.00005,12-5.5,32T1240,498q-51.99995,30-147,28T935,498q-26-11-45.5-37.5T870,393q0-64,51-130L779,0,636,263l13,19q13,18,25.5,50.5T687,393q0,41-19.5,67.5T622,498q-63,26-158,28T317,498q-10-7-18-27t-6-32q3-15,31-56L239,239,199,391,300,763h957l101-372-40-152-85,144Z"/>
    </g>
  </g>
</svg>
