<!-- Generated by IcoMoon.io -->
<svg version="1.1" xmlns="http://www.w3.org/2000/svg" width="32" height="32" viewBox="0 0 32 32">
<title>regionchest</title>
<path d="M10.856 29.094c-0.074-0.979-0.118-1.582-0.155-2.208-0.294-4.291-1.568-5.483-5.961-5.564-1.472 0-2.944 0-4.666 0-0.074-1.178 0.022-2.186-0.074-3.562 2.797 0 5.152-0.243 7.647 0.059 3.68 0.456 5.674 2.73 6.425 6.381 0.116 0.534 0.193 1.157 0.213 1.794l0 0.017c0.037 0.949 0.191 1.906 0.191 3.084z"></path>
<path d="M17.84 2.944h3.422c0.074 1.222 0.096 2.296 0.221 3.363 0.331 2.885 1.568 4.158 4.482 4.364 1.936 0.147 3.68 0 5.932 0 0.074 1.251-0.052 2.281 0 3.599-2.797 0-4.99 0.25-7.477-0.059-3.717-0.456-5.888-2.708-6.558-6.432-0.069-0.766-0.108-1.656-0.108-2.556 0-0.802 0.031-1.597 0.092-2.384l-0.006 0.104z"></path>
<path d="M0.037 14.617v-3.886c1.855 0 3.547 0.037 5.233 0 3.93-0.096 5.152-1.251 5.601-5.328 0.081-0.736-0.044-1.354 0-2.355 1.111-0.103 2.466-0.037 3.606-0.103 0.076 0.556 0.12 1.198 0.12 1.851 0 1.398-0.2 2.75-0.572 4.028l0.025-0.102c-0.736 2.87-2.554 4.828-5.483 5.277-2.738 0.419-5.535 0.419-8.53 0.618z"></path>
<path d="M32 21.344c-1.891 0-3.481 0-5.071 0-3.952 0.096-5.189 1.295-5.483 5.262-0.052 0.736-0.081 1.472-0.14 2.488-1.052 0.088-2.458 0-3.452 0.066-0.096-7.904 1.921-11.408 8.876-11.533 1.693 0 3.393 0 5.27 0z"></path>
<path d="M16.228 19.872c-0.102 0.010-0.221 0.016-0.341 0.016-1.948 0-3.536-1.545-3.604-3.476l-0-0.006c-0.023-0.155-0.036-0.334-0.036-0.516 0-2.014 1.618-3.65 3.625-3.679l0.003-0c0.097-0.009 0.209-0.014 0.323-0.014 2.008 0 3.636 1.628 3.636 3.636 0 0.078-0.002 0.155-0.007 0.231l0-0.010c0.004 0.064 0.006 0.138 0.006 0.213 0 1.991-1.614 3.606-3.605 3.606h-0z"></path>
</svg>
