<!-- Generated by IcoMoon.io -->
<svg version="1.1" xmlns="http://www.w3.org/2000/svg" width="32" height="32" viewBox="0 0 32 32">
<title>strike</title>
<path d="M16.010 32l-0.13-0.042c-0.383-0.13-9.712-3.213-11.661-8.008l-0.027-0.069v-23.881h23.617v23.897l-0.038 0.077c-2.133 4.389-11.251 7.835-11.638 7.981zM4.957 23.743c1.758 4.132 9.915 7.058 11.033 7.445 1.103-0.433 9.111-3.657 11.052-7.472v-22.951h-22.085zM27.426 23.82v0z"></path>
<path d="M6.171 1.915h19.657v8.299l-9.831-4.852-9.827 4.852v-8.299z"></path>
<path d="M6.171 13.66l9.827-5.109 9.831 5.109v1.084l-9.831-5.105-9.827 5.105v-1.084z"></path>
<path d="M6.171 23.774v-1.34l9.827-5.17 9.831 5.17v1.31c-3.749 4.147-9.861 6.127-9.861 6.127s-6.48-1.658-9.796-6.097z"></path>
<path d="M6.171 18.064l9.827-5.109 9.831 5.109v1.084l-9.831-5.105-9.827 5.105v-1.084z"></path>
</svg>
