<?xml version="1.0" encoding="utf-8"?>
<!-- Generator: Adobe Illustrator 23.0.4, SVG Export Plug-In . SVG Version: 6.00 Build 0)  -->
<svg version="1.1" id="Layer_1" xmlns="http://www.w3.org/2000/svg" xmlns:xlink="http://www.w3.org/1999/xlink" x="0px" y="0px"
	 width="32px" height="32px" viewBox="0 0 32 32" style="enable-background:new 0 0 32 32;" xml:space="preserve">
<path d="M16,17.4l9.6,5.1c0.1,0.7-0.1,1.5-0.6,2.1c-2,2.4-8.5,5.3-9,5.5c-0.5-0.2-6.9-3.1-9-5.5c-0.5-0.6-0.7-1.4-0.6-2.1L16,17.4z
	 M16,32c-2.7-1.1-7.5-3.5-10-6c-1-1-1.4-1.7-1.4-2.7V0h22.8v23.3c0,1-0.4,1.8-1.4,2.7C23.6,28.5,18.7,30.9,16,32z M16,31.3
	c2.5-1.3,6.9-3.1,9.7-5.9c0.7-0.7,1.1-1.4,1.1-2.4c0,0,0-22.3,0-22.4H5.2c0,0.1,0,22.4,0,22.4c0,1,0.4,1.8,1.1,2.4
	C9.1,28.3,13.6,30.1,16,31.3z M25.6,1.8v8.6c-3.2-1.7-6.4-3.3-9.6-5c-3.2,1.7-6.4,3.3-9.6,5V1.8H25.6z M16,13l9.6,5.1v1l-9.6-5
	l-9.6,5v-1L16,13z M16,8.6l9.6,5.1v1l-9.6-5l-9.6,5v-1L16,8.6z"/>
</svg>
