<?xml version="1.0" encoding="utf-8"?>
<!-- Generator: Adobe Illustrator 23.0.4, SVG Export Plug-In . SVG Version: 6.00 Build 0)  -->
<svg version="1.1" id="Layer_1" xmlns="http://www.w3.org/2000/svg" xmlns:xlink="http://www.w3.org/1999/xlink" x="0px" y="0px"
	 width="32px" height="32px" viewBox="0 0 32 32" style="enable-background:new 0 0 32 32;" xml:space="preserve">
<path d="M23.3,16.1l-7.1-7V5.3L27,16.1L16.2,26.9v-3.7L23.3,16.1z M8.7,16.1l7.1-7V5.3L5,16.1l10.8,10.8v-3.7L8.7,16.1z M18.9,16.1
	l-2.7,2.7v3.6l6.3-6.3l-6.3-6.3l0,3.7L18.9,16.1z M15.8,13.4l0-3.7l-6.3,6.3l6.3,6.3v-3.6l-2.7-2.7L15.8,13.4z M32,5.1H16.7l2.6,2.6
	h10L32,5.1z M2.7,7.7h10l2.6-2.6H0L2.7,7.7z M22.4,10.8h3.8l2.6-2.6h-9L22.4,10.8z M12.2,8.2h-9l2.6,2.6h3.8L12.2,8.2z"/>
</svg>
