<!-- Generated by IcoMoon.io -->
<svg version="1.1" xmlns="http://www.w3.org/2000/svg" width="32" height="32" viewBox="0 0 32 32">
<title>warmind</title>
<path d="M15.763 26.92l-10.798-10.799 10.798-10.799v0.108c0 1.169 0 2.337 0.002 3.506 0 0.003 0 0.006 0 0.010 0 0.085-0.037 0.162-0.096 0.215l-0 0q-3.419 3.414-6.834 6.831c-0.037 0.037-0.079 0.070-0.129 0.114 0.050 0.051 0.090 0.091 0.129 0.131q3.412 3.411 6.825 6.82c0.066 0.059 0.107 0.144 0.107 0.239 0 0.004-0 0.008-0 0.012l0-0.001c-0.004 1.159-0.003 2.318-0.003 3.477z"></path>
<path d="M16.234 5.323l10.79 10.79-10.79 10.79v-0.087c0-1.168 0.001-2.337-0.002-3.506-0-0.004-0-0.008-0-0.013 0-0.095 0.041-0.18 0.106-0.239l0-0q3.413-3.408 6.823-6.819c0.037-0.037 0.078-0.071 0.127-0.116-0.047-0.050-0.084-0.092-0.124-0.131q-3.405-3.406-6.813-6.809c-0.074-0.068-0.12-0.164-0.12-0.272 0-0.006 0-0.013 0-0.019l-0 0.001c0.004-1.19 0.003-2.382 0.003-3.569z"></path>
<path d="M16.234 9.768q3.187 3.186 6.346 6.346l-6.346 6.346v-0.114c0-1.125 0.001-2.25-0.002-3.375-0-0.005-0-0.012-0-0.018 0-0.098 0.041-0.185 0.108-0.247l0-0q1.239-1.229 2.471-2.466c0.046-0.039 0.096-0.078 0.149-0.112l0.006-0.003c-0.061-0.044-0.115-0.087-0.166-0.132l0.002 0.002q-1.235-1.233-2.47-2.466c-0.061-0.056-0.099-0.136-0.099-0.226 0-0.005 0-0.010 0-0.014l-0 0.001q0.005-1.762 0.002-3.521z"></path>
<path d="M15.763 9.758v2.062c0 0.488-0.003 0.976 0.002 1.463 0 0.005 0.001 0.011 0.001 0.018 0 0.088-0.037 0.167-0.097 0.222l-0 0q-1.244 1.236-2.481 2.477c-0.034 0.034-0.074 0.063-0.12 0.102 0.047 0.050 0.082 0.087 0.118 0.123q1.239 1.24 2.48 2.478c0.062 0.056 0.101 0.136 0.101 0.226 0 0.004-0 0.009-0 0.013l0-0.001c-0.004 1.13-0.002 2.26-0.002 3.39v0.129c-0.004 0.002-0.009 0.005-0.014 0.007l-0.001 0c-0.004 0.001-0.011 0.004-0.014 0.002-0.015-0.012-0.029-0.025-0.043-0.038l-6.299-6.3z"></path>
<path d="M16.73 5.080h15.27c-0.021 0.031-0.042 0.057-0.064 0.083l0.001-0.001q-1.266 1.253-2.532 2.506c-0.036 0.038-0.086 0.061-0.142 0.061-0.004 0-0.007-0-0.011-0l0 0c-0.227-0.003-0.454 0-0.681 0q-4.534 0-9.069 0.003c-0.004 0-0.009 0-0.015 0-0.103 0-0.196-0.045-0.26-0.116l-0-0q-1.2-1.208-2.405-2.408c-0.033-0.029-0.070-0.058-0.108-0.084l-0.004-0.003c0.006-0.016 0.013-0.028 0.021-0.040z"></path>
<path d="M0 5.080h15.28c-0.020 0.030-0.040 0.056-0.062 0.081l0.001-0.001q-1.249 1.251-2.497 2.502c-0.060 0.060-0.121 0.066-0.194 0.066q-1.854 0-3.709 0-3.006 0-6.012 0.002c-0.004 0-0.009 0-0.013 0-0.099 0-0.188-0.042-0.25-0.11l-0-0q-1.123-1.12-2.252-2.234c-0.095-0.094-0.185-0.194-0.291-0.306z"></path>
<path d="M19.833 8.209h9.011c-0.039 0.043-0.064 0.075-0.092 0.103q-1.217 1.207-2.436 2.416c-0.042 0.045-0.101 0.073-0.166 0.073-0.004 0-0.007-0-0.011-0l0 0q-1.81-0.003-3.62 0c-0.005 0-0.011 0.001-0.018 0.001-0.058 0-0.111-0.024-0.149-0.062l-0-0q-1.232-1.236-2.467-2.468c-0.013-0.013-0.024-0.028-0.054-0.061z"></path>
<path d="M12.114 8.215c-0.844 0.844-1.699 1.699-2.554 2.554l0.023 0.029h-0.13c-1.188 0-2.376-0.001-3.564 0.002-0.003 0-0.006 0-0.009 0-0.091 0-0.172-0.039-0.228-0.102l-0-0c-0.614-0.615-1.233-1.225-1.848-1.838-0.21-0.21-0.413-0.429-0.62-0.645z"></path>
</svg>
