<svg xmlns="http://www.w3.org/2000/svg" viewBox="0 0 857 857.35"><path d="M22,310v-1c7.24-6.76,15-12.49,24.93-14.92a688,688,0,0,1,122.83-18.42c11.75-.71,23.53-1,35.9-1.46,0-3.11-.22-5.92,0-8.69,1.95-20.7,3.28-41.49,6.22-62.05,2.39-16.7,7.88-32.72,17.84-46.73,13.86-19.5,35.47-24.09,54-11.31a68,68,0,0,1,13,11.52c6.74,7.88,12.8,16.35,19.17,24.61.08-1,.15-2.32.27-3.58,1.47-15.57,2.37-31.23,4.54-46.7,3.18-22.67,8.82-44.78,19.1-65.42,7.47-15,17.06-28.41,32.29-36.38,21.18-11.09,41.94-7.64,62,3.28,23.09,12.55,41.18,30.94,57.75,50.85,31.26,37.55,56.23,79.17,78.21,122.67,1.39,2.76,2.67,4.77,6.34,5.29,17.47,2.48,35,4.93,52.28,8.23,32.93,6.28,65.24,14.94,96,28.66,4.69,2.1,7.05,1.41,9.42-2.78,7-12.31,14.38-24.37,21.13-36.79,18.69-34.39,36.84-69.05,49.93-106.08,1.91-5.4,3.34-11,5.13-16.93,3.09,6.54,3.65,18.74.29,28.94-7,21.17-13.7,42.48-22.1,63.09-8.85,21.71-19.52,42.68-29.4,64-2.71,5.84-5.46,11.66-8.08,17.25a7.73,7.73,0,0,0,1.07,1.19c1.28.77,2.6,1.49,3.89,2.24,22.79,13.34,44.35,28.34,62.51,47.69,12.33,13.14,22.72,27.5,25.44,46,2.06,14.1-2.56,25.22-14.76,32.9-10.4,6.55-22.06,9.15-34.06,10.49-6.13.69-12.3,1-18.85,1.46,12,8.73,23.61,16.74,34.73,25.39,18.08,14.06,34.39,30,47.84,48.61,10.8,15,17.85,31.48,20.16,49.89v5c-1.31,13.13-5.92,24.72-15.21,34.4-11.85,12.34-26.53,20-42.22,25.85-36.29,13.49-74.24,18.45-112.62,19.9-27.78,1-55.62.58-83.44.62a7.82,7.82,0,0,0-7,3.41c-10.14,13-20.17,26.06-30.91,38.53-22.52,26.16-46.44,50.91-75.47,70.08-3,2-3,3.54-1.31,6.4,5.9,10.23,11.39,20.71,17.32,30.93,23.65,40.8,49.21,80.28,80.67,115.64,1,1.15,1.47,2.81,2.18,4.24h-1c-6.29-3.65-13.36-6.41-18.69-11.13a305,305,0,0,1-27.36-27.66c-21.62-24.72-40.46-51.56-58.44-79-5-7.62-9.83-15.33-14.81-23.11-1,.56-1.56.86-2.1,1.2-21.12,13.19-43.19,24.36-67.25,31.21-16,4.54-32.1,7.39-48.8,4.88-22.23-3.35-35.55-20.94-32.3-43.06a118.17,118.17,0,0,1,11.77-37c.7-1.37,1.27-2.81,1.68-3.72-16.69,7-33.17,14.68-50.15,21-24.51,9.1-49.76,14.7-76.24,12.74-37.46-2.78-60-26.87-60.22-64.31-.13-26.57,6.57-51.78,15.37-76.49,16-44.77,38.41-86.32,64.28-126,3.36-5.16,3.85-9,1.42-14.8C232.53,407.53,219.5,369.44,212,329.67c-2-10.58-3.21-21.31-4.82-32.17a53.45,53.45,0,0,0-5.49-.61c-23.3-.21-46.62-1.14-69.89-.37A560.81,560.81,0,0,0,30.25,308.7C27.54,309.29,24.75,309.57,22,310Zm684.78-23.18c-2.82-1.49-5-2.75-7.19-3.78a530.42,530.42,0,0,0-173.28-46.62c-50.13-4.78-98,2.14-143.25,24.8-4.85,2.42-6.6,5.12-6.57,10.57.18,40.48,5.73,80.34,13.45,119.95A1305.58,1305.58,0,0,0,425.64,531c2.56,8.21,5.2,16.4,7.94,25-9.7,4.2-19,8.17-28.27,12.28-3,1.33-3.7-.65-4.69-2.68-13.37-27.46-24-56-33.18-85.07-14.62-46.43-25.79-93.72-35.19-141.46-1.45-7.37-3-14.72-4.73-23.25-22.2,29-31.21,61.21-34.14,95.69C284,373.15,296.9,339,314.55,305.25l-64.8-6.14c.11,2.43.12,4.07.27,5.69a551.34,551.34,0,0,0,14.41,83.08c11.48,46,27.58,90.09,53.14,130.3,19.28,30.33,43.14,56.15,74.28,74.77,3.49,2.09,6.11,2.11,9.42-.1,12.46-8.31,25.3-16.07,37.53-24.7,34.76-24.51,66.91-52.21,97.8-81.4,27.86-26.32,54.75-53.58,79.72-82.7,1.89-2.21,3.49-2.76,5.88-1,7.29,5.24,14.57,10.5,21.94,15.62,3.13,2.17,2.91,4.12.63,6.88-17.93,21.67-35.15,44-53.74,65-34.19,38.76-71.62,74.33-110.19,108.7-4.92,4.38-9.74,8.87-15.62,14.24,34.28,3,65.37-4.53,95.9-15.91-28.27,25-62.8,29.94-100.06,30.46l28.61,58.78c3.19-2,5.32-3.34,7.37-4.74a512.09,512.09,0,0,0,96.48-86.41c22.29-25.62,41.51-53.31,56-84.14,13.78-29.43,22.34-60.17,23.28-92.85.1-3.49-1-5.45-4.12-7-18.08-8.85-35.77-18.6-54.18-26.7-62.86-27.65-128.32-47.35-195.2-62.51-8.24-1.87-16.5-3.61-25.57-5.59.93-10.19,1.91-19.93,2.66-29.7.31-4.09,2.08-4.8,5.89-4.12,27.2,4.87,54.56,8.91,81.63,14.4,56.2,11.4,111.5,26.17,165.22,46.5,1.75.66,3.56,1.16,6.23,2-13.73-32.55-37.49-55.25-63.11-76.54,35.83,11.7,57.37,39.36,77.21,69.51Zm-173.7-78.44c-1.11-1.91-1.67-3.09-2.42-4.13-10.09-14.05-19.79-28.41-30.43-42-11.18-14.33-23.74-27.44-39.25-37.35-15.73-10.05-30.69-9.47-45.3,2-10.26,8-16.68,18.92-21.73,30.63-11.12,25.75-15.2,53-16.5,80.77a21,21,0,0,0,.52,3.59c23.71-13.43,48.57-22.14,74.68-27.44A332.47,332.47,0,0,1,533.08,208.38ZM376.45,605.85c-25-13.15-44.92-30.65-62.69-50.71S281.41,513,268.65,489a29.44,29.44,0,0,0-2,2.82c-11,20.63-20.41,41.9-26.93,64.38-3.72,12.83-6.49,25.87-6.07,39.32s4.55,24.91,16.75,32.12c8.57,5.06,18.1,6.49,27.85,6.66a165.52,165.52,0,0,0,73.11-15.66C359.56,614.85,367.51,610.43,376.45,605.85ZM692.33,424.36c-.62,56.35-18.31,106.07-48.85,152.44,27.52-.52,53.59-2.93,79.1-10,12.75-3.51,25-8.09,35.62-16.29,12.64-9.78,17.62-22.63,13.2-38a97,97,0,0,0-11-24.91c-13.77-21.67-33.12-38-53.5-53.18C702.44,431.2,697.79,428.16,692.33,424.36Zm-442-151.16,70.2,2.59c0-2.07.09-3.39,0-4.69-1.2-14.93-2.35-29.86-3.71-44.77-.36-3.91-.34-8.4-2.28-11.5a98.53,98.53,0,0,0-14.37-18.25c-6.75-6.55-15.05-6.84-22.89-1.63a38,38,0,0,0-9.76,9.13C252.71,224.59,250.8,248.36,250.31,273.2Zm478.64,26.14-37.56,59.81c14.87,7.27,29.64,14.12,44,21.69a27.55,27.55,0,0,0,17.16,3.31c3.3-.44,6.65-.4,9.95-.84,6.09-.8,11.64-2.75,15.57-7.89,5.56-7.27,6.25-15.46,3.19-23.62a59.42,59.42,0,0,0-8.74-15.55C760.62,321,745.32,309.66,728.95,299.35ZM433.74,638.26c-16.05,11.07-31.52,21.72-46.94,32.42a7.56,7.56,0,0,0-2.67,2.87c-2.84,6.54-6.35,13-7.9,19.81A23.11,23.11,0,0,0,378,707.68c4.91,9.87,14.48,12.74,24.76,12.95,23.52.48,43.8-9.4,64.29-20.13Z" transform="translate(-22 -22.65)"/></svg>