<!-- Generated by IcoMoon.io -->
<svg version="1.1" xmlns="http://www.w3.org/2000/svg" width="32" height="32" viewBox="0 0 32 32">
<title>platform_xbox</title>
<path d="M8.238 4.376c-0.013 0.008-0.026 0.021-0.038 0.034 0.081-0.085 0.196-0.174 0.268-0.225 2.193-1.424 4.727-2.185 7.537-2.185 2.627 0 5.088 0.727 7.188 1.989 0.153 0.089 0.57 0.374 0.782 0.633-2.028-2.236-7.987 2.563-7.987 2.563-2.057-1.59-3.953-2.674-5.364-3.061-1.182-0.323-1.998-0.051-2.385 0.251zM26.27 6.489c-0.060-0.068-0.127-0.132-0.191-0.204-0.51-0.561-1.139-0.697-1.709-0.663-0.519 0.166-2.908 1.024-5.849 3.804 0 0 3.311 3.222 5.343 6.517 2.028 3.294 3.239 5.883 2.495 9.475 2.261-2.487 3.639-5.79 3.639-9.42 0-3.668-1.411-7.014-3.728-9.509zM21.211 17.35c-0.897-1.012-2.236-2.453-4-4.213-0.387-0.383-0.795-0.782-1.224-1.199 0 0-0.646 0.646-1.484 1.496v-0.004c-1.075 1.088-2.47 2.504-3.243 3.333-1.377 1.471-5.326 6.087-5.547 8.676 0 0-0.88-2.053 1.050-6.789 1.258-3.099 5.063-7.745 6.652-9.262 0 0-1.454-1.594-3.273-2.699l-0.013-0.004c0 0-0.021-0.017-0.051-0.034-0.876-0.523-1.836-0.927-2.755-0.982-0.939 0.068-1.534 0.757-1.534 0.757-2.351 2.504-3.787 5.87-3.787 9.577 0 7.732 6.266 13.998 14.002 13.998 4.102 0 7.792-1.768 10.355-4.582 0-0.004-0.293-1.849-2.176-4.497-0.446-0.621-2.062-2.555-2.971-3.571z"></path>
</svg>
