<!-- Generated by IcoMoon.io -->
<svg version="1.1" xmlns="http://www.w3.org/2000/svg" width="32" height="32" viewBox="0 0 32 32">
<title>arc_warlock_super</title>
<path d="M31.952 5.041l-4.609 8.738 4.657-0.48-10.779 14.236 6.314-11.811-4.321 0.72zM0.024 5.041l4.609 8.738-4.633-0.48 10.779 14.236-6.314-11.811 4.321 0.72zM18.629 11.163q-0.48 0.72-1.080 1.584 0.216 0.144 0.384 0.312l0.888-0.576-0.72 0.768q0.192 0.24 0.264 0.384 0.168-0.072 0.792-0.336t0.912-0.384q0.072-0.048 0.216-0.096 0.024-0.024 0.072-0.024-0.528-1.080-1.56-1.848l-0.024 0.024q-0.024 0.048-0.072 0.108t-0.072 0.084zM18.461 10.707q-1.152-0.696-2.449-0.72v2.257q0.576 0 1.2 0.288 0.168-0.24 0.54-0.78t0.564-0.804q0.024-0.096 0.12-0.192 0-0.024 0.024-0.048zM15.604 9.987q-1.32 0.072-2.449 0.792 0.024 0 0.024 0.024 0.048 0.048 0.144 0.192 0.576 0.816 1.176 1.656 0.528-0.336 1.128-0.408zM12.843 10.995q-1.008 0.792-1.536 1.872 0.024 0.024 0.072 0.024 0.072 0.048 0.216 0.096 0.264 0.12 0.9 0.36t0.972 0.384q0.024-0.048 0.096-0.156t0.12-0.156l-0.864-0.864 1.056 0.624q0.144-0.168 0.288-0.288-0.168-0.24-0.576-0.816t-0.6-0.864q-0.048-0.048-0.144-0.192v-0.024zM11.115 16.684q0.096-0.048 0.144-0.048 0.024-0.024 0.096-0.048t0.12-0.048q0.912-0.36 1.801-0.768-0.096-0.312-0.096-0.768t0.144-0.888q-0.504-0.216-1.872-0.744-0.072-0.048-0.216-0.096l-0.024-0.024h-0.048q-0.336 0.864-0.336 1.752 0 0.768 0.288 1.68zM13.059 18.653q0.624-0.912 1.056-1.56-0.12-0.096-0.312-0.336l-0.936 0.576 0.768-0.792q-0.048-0.072-0.12-0.216t-0.096-0.168q-0.336 0.144-0.936 0.396t-0.84 0.348q-0.072 0.048-0.216 0.096l-0.144 0.072q0.504 1.128 1.536 1.945 0.024-0.072 0.12-0.168 0-0.024 0.12-0.192zM13.155 19.229q1.176 0.768 2.545 0.792v-0.096l-0.024-2.161q-0.696-0.072-1.224-0.432-0.312 0.432-1.056 1.536-0.096 0.144-0.144 0.192-0.048 0.096-0.096 0.168zM15.988 16.060q0.096-0.096 0.216-0.024l0.096 0.288v0.024q-0.024-0.048 0.024-0.060t0.072 0.036l-0.096-0.336q0.072-0.096 0.192-0.096l0.192 0.288q-0.024-0.048 0.024-0.084t0.072 0.012q-0.024-0.024-0.084-0.108t-0.096-0.132-0.012-0.048q0-0.12 0.144-0.144l0.192 0.12q0.072 0.048 0.096 0.072-0.096-0.048-0.024-0.096 0.048 0 0.072 0.024l-0.264-0.216q-0.048-0.12 0.096-0.192 0.264 0.096 0.312 0.12-0.072-0.048-0.024-0.096 0.024-0.048 0.072-0.024-0.288-0.072-0.336-0.096-0.072-0.096 0.024-0.216v0h0.36q-0.072 0-0.072-0.048t0.072-0.072h-0.36q-0.096-0.096-0.024-0.216l0.288-0.096h0.024q-0.048 0.024-0.060-0.024t0.036-0.072l-0.336 0.096q-0.096-0.072-0.096-0.192l0.192-0.12q0.072-0.048 0.096-0.072-0.048 0.024-0.084-0.012t0.012-0.084q-0.168 0.168-0.264 0.216-0.144-0.024-0.168-0.168l0.12-0.192q0.048-0.072 0.072-0.096-0.048 0.096-0.096 0.024l0.024-0.072-0.216 0.288q-0.144 0-0.192-0.12l0.12-0.288v-0.024q-0.024 0.072-0.096 0.024-0.048-0.024-0.024-0.072-0.072 0.288-0.096 0.336-0.096 0.048-0.216-0.024v0-0.36q0 0.072-0.048 0.072t-0.072-0.072q0.024 0.096 0.024 0.36-0.12 0.072-0.216 0.024l-0.096-0.264-0.024-0.048q0.024 0.048-0.024 0.060t-0.072-0.036l0.096 0.336q-0.024 0.096-0.192 0.096l-0.12-0.192-0.072-0.096q0.024 0.048-0.024 0.084t-0.072-0.012q0.024 0.024 0.084 0.108t0.084 0.132l0.048 0.048q-0.048 0.12-0.168 0.144l-0.24-0.168-0.024-0.024q0.072 0.072 0 0.096-0.048 0-0.072-0.024l0.288 0.216q0 0.12-0.096 0.192l-0.336-0.12q0.096 0.072-0.024 0.12l0.312 0.096q0.072 0.12-0.024 0.216v0h-0.36q0.048 0 0.072 0.024 0.024 0.072-0.048 0.096h0.336q0.096 0.072 0.024 0.216l-0.288 0.096h-0.024q0.048-0.024 0.060 0.024t-0.036 0.072l0.336-0.096q0.096 0.072 0.096 0.192l-0.192 0.12q-0.072 0.048-0.096 0.072 0.048-0.048 0.084 0t-0.012 0.096l0.288-0.216q0.12 0.048 0.144 0.168l-0.12 0.192-0.072 0.096q0.048-0.096 0.096-0.024l-0.024 0.072 0.216-0.288q0.144 0 0.192 0.12l-0.096 0.288v0.024q0.024-0.048 0.072-0.036t0.024 0.084q0.048-0.192 0.096-0.336 0.096-0.048 0.216 0.024v0 0.36q0-0.072 0.060-0.072t0.060 0.072v-0.36zM16.108 20.021q1.368-0.072 2.521-0.84-0.024-0.024-0.12-0.168-0.024-0.048-0.12-0.192-0.168-0.24-0.528-0.744t-0.504-0.696q-0.624 0.384-1.272 0.384l0.024 2.161v0.096zM18.965 18.941q0.984-0.768 1.512-1.969-0.024-0.024-0.072-0.024t-0.072-0.024q-0.072-0.048-0.216-0.096-0.768-0.288-1.656-0.648-0.144 0.288-0.24 0.432l0.648 0.648-0.792-0.48q-0.168 0.216-0.384 0.384 0.168 0.24 0.516 0.732t0.492 0.708q0.048 0.048 0.144 0.192 0.024 0.024 0.060 0.072t0.060 0.072zM20.477 16.54q0.024 0.024 0.072 0.024t0.072 0.024q0.24-0.72 0.24-1.584 0-0.96-0.336-1.848h-0.024l-0.048 0.024q-0.024 0.024-0.096 0.048t-0.12 0.048q-0.288 0.12-0.924 0.384t-0.78 0.336q0.192 0.504 0.192 1.008 0 0.384-0.12 0.792 0.888 0.36 1.656 0.648 0.072 0.048 0.216 0.096zM6.169 11.475l-0.864-0.48q0.336 0.096 0.96 0.24 0.168 0.048 0.564 0.156t0.516 0.156q0.096 0.024 0.456 0.12 0.864-2.088 2.689-3.505-0.144-0.24-0.192-0.36-0.504-0.888-0.552-0.984l-0.456-0.864q0.24 0.264 0.672 0.72 0.096 0.12 0.36 0.408t0.384 0.432q0.048 0.048 0.132 0.144t0.132 0.144q2.017-1.344 4.465-1.488v-0.048q-0.024-0.288 0-0.528 0.024-0.192 0.048-0.396t0.024-0.348q0.024-0.36 0.060-0.78t0.036-0.564q0.024-0.24 0.060-0.468t0.036-0.324l0.024-0.36q0.024 0.12 0.048 0.36 0 0.096 0.036 0.324t0.060 0.468q0.12 1.2 0.144 1.344 0 0.12 0.024 0.324t0.048 0.396 0.024 0.552v0.048q2.449 0.072 4.489 1.392 0.048-0.048 0.132-0.144t0.132-0.144q0.432-0.504 0.72-0.864l0.672-0.744q-0.168 0.336-0.456 0.888-0.312 0.624-0.528 1.008-0.12 0.24-0.192 0.36 1.849 1.368 2.761 3.433 0.264-0.096 0.456-0.12 0.072-0.024 1.080-0.336l0.936-0.24q-0.288 0.168-0.84 0.48-0.312 0.192-0.984 0.576-0.12 0.072-0.408 0.216 0.528 1.464 0.528 2.977 0 1.56-0.576 3.097 0.072 0.024 0.18 0.084t0.192 0.108 0.156 0.072q0.144 0.072 0.348 0.192t0.36 0.204 0.276 0.156l0.864 0.48q-0.36-0.096-0.96-0.24-0.168-0.048-0.564-0.156t-0.516-0.156q-0.384-0.096-0.576-0.168-0.96 2.017-2.689 3.313 0.312 0.552 0.336 0.6 0.216 0.36 0.528 0.984l0.456 0.864q-0.24-0.264-0.672-0.72-0.096-0.12-0.36-0.408t-0.384-0.432q-0.288-0.336-0.456-0.504-1.992 1.272-4.273 1.368l0.048 1.152q0 0.36 0.024 0.552v0.528q-0.024 0.168-0.048 0.384t-0.024 0.36q-0.072 0.936-0.12 1.344 0 0.192-0.036 0.552t-0.036 0.48l-0.048 0.36q0-0.144-0.024-0.36-0.024-0.12-0.060-0.468t-0.060-0.564-0.072-0.636-0.072-0.708q0-0.144-0.024-0.36t-0.048-0.384-0.024-0.528v-0.552l-0.048-1.152q-2.353-0.072-4.297-1.272-0.264 0.24-0.432 0.504-0.072 0.096-0.348 0.408t-0.396 0.456l-0.672 0.72q0.168-0.312 0.456-0.864 0.312-0.624 0.528-1.008 0.192-0.384 0.312-0.6-1.776-1.272-2.761-3.241-0.096 0.024-0.288 0.084t-0.288 0.084q-0.96 0.288-1.080 0.312l-0.96 0.264q0.312-0.168 0.864-0.48 0.312-0.192 0.984-0.576 0.216-0.096 0.528-0.288-0.648-1.608-0.648-3.241 0-1.44 0.48-2.809l-0.432-0.216q-0.144-0.072-0.348-0.192t-0.36-0.204-0.276-0.156zM8.114 12.483q-0.12-0.024-0.312-0.12-0.456 1.32-0.456 2.689 0 1.608 0.6 3.145 0.072-0.048 0.216-0.096l0.36-0.144q0.096-0.048 0.852-0.36t1.188-0.504q0.096 0.288 0.288 0.6-0.408 0.168-1.104 0.468t-0.96 0.42l-0.36 0.144q-0.024 0.024-0.084 0.060t-0.108 0.036q0.888 1.849 2.641 3.121 0.048-0.096 0.096-0.12 0.024-0.048 0.096-0.168t0.12-0.168q0.216-0.312 0.672-0.972t0.624-0.924l0.18 0.12t0.204 0.132 0.192 0.108q-0.12 0.192-0.6 0.888t-0.72 1.032q-0.024 0.048-0.096 0.156t-0.12 0.156l-0.072 0.144q1.848 1.152 4.153 1.224l-0.024-2.881q0.096 0.024 0.264 0.024 0.072 0 0.204-0.012t0.204-0.012l0.024 2.881q2.233-0.096 4.129-1.32 0-0.024-0.024-0.060t-0.048-0.060q-0.096-0.144-0.24-0.336t-0.408-0.564-0.492-0.696-0.444-0.636q0.096-0.048 0.192-0.108t0.204-0.132l0.18-0.12q0.264 0.384 0.72 1.032t0.6 0.84q0.048 0.072 0.144 0.18t0.096 0.132q0.048 0.096 0.096 0.144 1.728-1.344 2.569-3.169-0.072-0.048-0.216-0.096l-0.36-0.144q-0.312-0.144-1.008-0.408t-1.056-0.432q0.072-0.12 0.288-0.6l2.401 0.96 0.216 0.072q0.552-1.392 0.552-2.977 0-1.416-0.504-2.857-0.048 0.024-0.156 0.072t-0.156 0.072l-0.36 0.144q-1.728 0.72-1.896 0.792-0.144-0.432-0.24-0.624 1.008-0.432 1.872-0.792l0.36-0.144q0.264-0.12 0.336-0.144-0.888-1.969-2.641-3.313l-0.024 0.048q-0.072 0.168-0.216 0.312-0.024 0.048-0.096 0.168t-0.12 0.168q-0.168 0.24-0.528 0.78t-0.552 0.804q-0.168-0.144-0.552-0.384 0.576-0.864 1.080-1.584 0.024-0.048 0.096-0.168t0.12-0.168l0.216-0.288 0.048-0.048q-1.992-1.272-4.345-1.344v0.264l0.024 2.473q-0.096-0.024-0.288-0.024-0.048 0-0.18 0.012t-0.204 0.012l-0.024-2.473v-0.264q-2.401 0.144-4.297 1.44 0.024 0.024 0.024 0.048 0.144 0.12 0.216 0.288 0.024 0.048 0.12 0.156t0.12 0.156q0.888 1.248 1.104 1.56-0.408 0.312-0.528 0.408-0.672-0.912-1.128-1.56-0.096-0.144-0.24-0.336t-0.192-0.312l-0.024-0.024q-1.728 1.32-2.569 3.361 0.144 0.024 0.312 0.12l0.36 0.144q0.312 0.12 0.948 0.372t0.924 0.372l-0.216 0.648q-0.384-0.168-1.032-0.42t-0.864-0.348zM10.875 19.277l0.6-0.648q0.048 0.072 0.144 0.168zM20.837 11.163l-0.408 0.432q-0.048-0.096-0.072-0.12zM20.165 18.725q0.024-0.048 0.072-0.096t0.072-0.096l0.6 0.648zM11.283 11.547q-0.048 0.096-0.072 0.12l-0.408-0.408zM16.612 14.644l0.168-0.216q0.48-0.216 1.128-0.48 0.024 0 0.12-0.048 0.024 0 0.096-0.024 0.024 0 0.084-0.024t0.108-0.048q0.12-0.024 0.312-0.072l0.288-0.072q-0.096 0.048-0.264 0.144-0.024 0-0.12 0.060t-0.168 0.084l-0.072 0.024q-0.048 0.048-0.096 0.072 0 0.024-0.048 0.024t-0.048 0.024q-0.048 0-0.096 0.048-0.456 0.168-1.368 0.552l-0.024-0.024v-0.024zM17.452 17.068q0.072 0.096 0.168 0.288l0.12 0.24q-0.072-0.072-0.192-0.216-0.024-0.024-0.096-0.108t-0.12-0.132q-0.024-0.024-0.060-0.072t-0.060-0.072q-0.048-0.048-0.072-0.096-0.048-0.048-0.072-0.096-0.096-0.144-0.384-0.552t-0.456-0.648l0.048-0.024 0.288 0.168q0.48 0.672 0.672 0.96 0.048 0.048 0.072 0.096 0.048 0.048 0.048 0.072 0.072 0.096 0.096 0.192zM16.372 14.332l-0.072-0.096q-0.024-0.024-0.072-0.024 0.768-1.152 0.84-1.224 0.048-0.048 0.072-0.096l0.072-0.072q0.096-0.144 0.12-0.168 0.168-0.168 0.216-0.24l0.192-0.216q-0.048 0.096-0.12 0.264-0.024 0.048-0.084 0.144t-0.084 0.144q-0.072 0.144-0.096 0.168 0 0.048-0.048 0.096t-0.072 0.096q-0.072 0.12-0.396 0.576t-0.468 0.648zM18.364 15.844q0.048 0.024 0.144 0.084t0.144 0.084l0.264 0.144q-0.12-0.024-0.288-0.072-0.192-0.048-0.312-0.096-0.024-0.024-0.096-0.036t-0.096-0.012-0.048-0.024-0.048-0.024-0.060-0.024-0.060-0.024q-0.936-0.384-1.032-0.432l-0.264-0.264q0-0.024 0.012-0.024t0.012-0.024q0.744 0.312 1.368 0.576l0.096 0.048q0.024 0 0.096 0.024 0.072 0.048 0.168 0.096zM15.196 14.596l-0.096 0.12q0 0.024-0.024 0.024-0.264-0.096-0.708-0.288t-0.636-0.264q-0.024-0.024-0.060-0.024t-0.060-0.024q-0.048 0-0.096-0.048-0.12-0.024-0.168-0.096-0.192-0.072-0.288-0.144l-0.24-0.144q0.096 0.024 0.264 0.072 0.192 0.048 0.312 0.096 0.048 0 0.192 0.048 0.048 0 0.096 0.048 0.024 0 0.060 0.012t0.060 0.012q0.144 0.072 0.684 0.3t0.708 0.3zM14.163 17.404q0.096-0.192 0.168-0.288 0.072-0.144 0.096-0.168 0-0.048 0.048-0.096 0.024-0.024 0.072-0.096 0.384-0.576 0.744-1.080l0.192-0.048q0.024 0 0.072 0.024-0.144 0.216-0.444 0.624t-0.42 0.6q0 0.024-0.048 0.072-0.024 0.048-0.072 0.096-0.096 0.096-0.12 0.144-0.12 0.12-0.216 0.264l-0.192 0.192q0.048-0.072 0.12-0.24zM15.484 14.284l-0.288-0.168q-0.552-0.816-0.648-0.96-0.024-0.024-0.072-0.096-0.048-0.048-0.048-0.096-0.024-0.024-0.096-0.168-0.024-0.048-0.084-0.144t-0.084-0.144l-0.12-0.264q0.072 0.096 0.192 0.216 0.096 0.144 0.216 0.24 0.048 0.096 0.12 0.168l0.072 0.072 0.048 0.096q0.12 0.192 0.42 0.6t0.444 0.624h-0.024q-0.024 0.024-0.048 0.024zM13.059 16.060q0.096-0.072 0.288-0.144 0.048-0.072 0.168-0.096 0.048-0.048 0.096-0.048 0.024-0.024 0.060-0.024t0.060-0.024q0.696-0.312 1.344-0.552l0.024 0.024 0.024 0.168-1.32 0.528q-0.096 0.048-0.12 0.048-0.048 0.048-0.096 0.048-0.144 0.048-0.192 0.048-0.12 0.048-0.312 0.096l-0.264 0.072q0.072-0.048 0.24-0.144z"></path>
</svg>
