<?xml version="1.0" standalone="no"?>
<!DOCTYPE svg PUBLIC "-//W3C//DTD SVG 1.1//EN" "http://www.w3.org/Graphics/SVG/1.1/DTD/svg11.dtd" >
<svg xmlns="http://www.w3.org/2000/svg" xmlns:xlink="http://www.w3.org/1999/xlink" version="1.1" viewBox="-10 0 1357 1000">
  <g transform="matrix(1 0 0 -1 0 800)">
   <path fill="currentColor"
d="M831.1 554.2l108.5 56.7002l126 137.899l-168.699 -98.7002zM930.5 741.8l-42.7002 -21.7002l-59.5 -98.6992l87.5 70.6992zM493 554.2l-109.2 56.7002l-125.3 137.899l168.7 -98.7002zM393.6 741.8l42.7002 -21.7002l59.5 -98.6992l-87.5 70.6992zM831.1 251.8
l108.5 -56.7002l126 -137.899l-168.699 98.7002zM930.5 64.2002l-42.7002 21.7002l-59.5 98.6992l87.5 -70.6992zM493 251.8l-109.2 -56.7002l-125.3 -137.899l168.7 98.7002zM393.6 64.2002l42.7002 21.7002l59.5 98.6992l-87.5 -70.6992zM334.8 514.3h-4.2002
c46.2002 138.601 177.101 238.7 331.101 238.7c154.7 0 285.6 -100.1 331.8 -238.7h-4.2002c-51.0996 112 -177.8 191.8 -327.6 191.8c-149.101 0 -275.8 -79.7998 -326.9 -191.8zM334.8 291.7h-4.2002c46.2002 -138.601 177.101 -238.7 331.101 -238.7
c154.7 0 285.6 100.1 331.8 238.7h-4.2002c-51.0996 -112 -177.8 -191.8 -327.6 -191.8c-149.101 0 -275.8 79.7998 -326.9 191.8zM1217.5 398.1c0.700195 -0.699219 40.5996 -9.7998 39.9004 -8.39941l-4.2002 -4.90039l-93.7998 -0.700195l-92.4004 -8.39941
l-35.7002 -4.2002h-46.8994v0c-12.6006 0 -56 -0.700195 -70.7002 -0.700195l30.7998 -59.5l-63.7002 38.5l-22.3994 18.2002c-15.4004 -1.40039 -28.7002 -2.7998 -37.1006 -5.59961c-39.2002 -9.80078 -34.2998 -9.10059 -34.2998 -9.10059l12.5996 -6.2998
s48.3008 -35 44.1006 -45.5c-17.5 5.59961 -64.4004 28.7002 -64.4004 28.7002s-41.2998 9.09961 -61.5996 9.09961c-11.9004 0 -46.2002 -0.700195 -72.7998 -2.09961c23.0996 -18.2002 42.6992 -35.7002 42.6992 -35.7002s44.8008 -14.7002 65.1006 -10.5
c14 3.5 32.8994 -2.09961 42.7002 -5.59961c4.89941 -1.40039 17.5 -30.1006 16.7998 -30.1006l-44.7998 7.7002l-86.8008 -11.2002l-99.3994 55.2998l-38.5 53.9004l-2.10059 -11.2002l24.5 -45.5l-9.7998 -74.8994l-8.39941 6.2998s-36.4004 87.5 -39.9004 89.5996
c-4.2002 2.7998 -30.0996 37.7998 -47.5996 38.5c-16.8008 0.700195 -30.8008 1.40039 -38.5 2.10059c-3.5 0 -21.7002 8.39941 -36.4004 8.39941c-18.9004 0 -30.0996 -1.39941 -37.7998 -4.2002c-2.7998 -1.39941 -5.60059 -2.09961 -9.10059 -2.09961
c-13.2998 -0.700195 -41.2998 -1.40039 -72.7998 -2.7998v0c-60.2002 -2.10059 -107.8 -5.60059 -108.5 -4.90039l-72.0996 9.10059l-47.6006 11.8994l82.6006 0.700195l93.0996 6.2998l-130.899 10.5l30.0996 9.10059l72.7998 6.2998s-86.7998 10.5 -88.2002 10.5
c-0.699219 0 -23.0996 3.5 -23.0996 3.5l5.59961 8.39941l72.8008 9.10059v0c0.699219 0.700195 53.1992 -2.7998 113.399 -4.90039c31.5 -1.39941 59.5 -2.09961 72.7998 -2.7998c3.5 0 6.30078 -0.700195 9.10059 -2.09961
c7.7002 -2.80078 18.8994 -4.2002 37.7998 -4.2002c14.7002 0 32.9004 8.39941 36.4004 8.39941c7.69922 0.700195 21.6992 1.40039 38.5 2.10059c17.5 0.700195 43.3994 35.7002 47.5996 38.5c3.5 2.09961 39.9004 89.5996 39.9004 89.5996l8.39941 6.2998l9.7998 -74.8994
l-24.5 -45.5l2.10059 -11.2002l38.5 53.9004l99.3994 55.2998l86.8008 -11.2002l44.7998 7.7002c0.700195 0 -11.9004 -28.7002 -16.7998 -30.1006c-9.80078 -3.5 -28.7002 -9.09961 -42.7002 -5.59961c-20.2998 4.2002 -65.1006 -10.5 -65.1006 -10.5
s-19.5996 -17.5 -42.6992 -35.7002c26.5996 -1.39941 60.8994 -2.09961 72.7998 -2.09961c20.2998 0 61.5996 9.09961 61.5996 9.09961s46.9004 23.1006 64.4004 28.7002c4.2002 -10.5 -44.1006 -45.5 -44.1006 -45.5l-12.5996 -6.2998s-4.90039 0.700195 34.2998 -9.10059
c8.40039 -2.7998 21.7002 -4.19922 37.1006 -5.59961l22.3994 18.2002l63.7002 38.5l-30.7998 -59.5c14.7002 0 58.0996 -0.700195 70.7002 -0.700195h46.8994l77.7002 -4.90039s-53.2002 -20.2998 -53.9004 -19.5996l-43.3994 1.40039l-20.2998 4.89941l21 -12.5996
l54.5996 -0.700195s149.8 -4.90039 150.5 -4.90039zM788.4 657.1l-32.9004 -7l-16.0996 -65.0996zM628.8 172.7l-9.7998 2.09961l-39.9004 -72.7998l21 -28.7002l22.4004 16.7998zM546.9 711l-17.5 -9.09961l65.7998 -123.9z" />
  </g>

</svg>
