<svg xmlns="http://www.w3.org/2000/svg" viewBox="99 -119 1118 1036">
  <path d="M 758 214 L 726 239 L 726 381 L 770 432 L 726 483 L 726 917 C 711 917 726 917 715 917 C 658 733 708 845 690 751 C 605 917 626 751 608 845 C 590 917 602 917 590 917 L 590 483 L 546 432 L 590 381 L 590 239 L 558 214 L 430 295 L 495 167 L 565 123 L 658 202 L 752 123 L 821 167 L 886 295 L 758 214 Z M 534 440 L 573 490 L 533 810 L 507 734 L 534 440 Z M 294 824 L 315 592 L 424 364 L 474 325 L 482 404 L 299 905 L 294 824 Z M 194 630 L 238 426 L 315 321 L 358 318 C 360 320 359 318 360 319 L 356 364 L 273 515 L 235 571 L 194 630 Z M 192 88 L 118 141 L 99 202 L 246 163 L 253 116 L 192 88 Z M 292 121 L 412 57 L 360 30 L 292 121 Z M 284 56 C 319 -36 282 55 319 -36 L 162 35 L 284 56 Z M 412 -71 L 320 11 L 427 -4 L 562 -119 L 412 -71 Z M 1027 279 L 935 194 L 658 21 L 382 194 L 289 279 L 286 278 L 286 242 L 658 -119 L 1030 242 L 1030 278 L 1027 279 Z M 782 440 L 743 490 L 784 810 L 809 734 L 782 440 Z M 1017 905 L 834 404 L 842 325 L 892 364 L 1002 592 L 1022 824 L 1017 905 Z M 1081 571 L 1043 515 L 960 364 L 956 320 C 958 318 956 319 957 318 L 1002 321 L 1078 426 L 1122 630 L 1081 571 Z M 1124 88 L 1198 141 L 1217 202 L 1070 163 L 1063 116 L 1124 88 Z M 1024 121 L 905 57 L 956 30 L 1024 121 Z M 1032 56 C 997 -36 1034 55 997 -36 L 1155 35 L 1032 56 Z M 905 -71 L 996 11 L 889 -4 L 754 -119 L 905 -71 Z" fill="#000000"/>
</svg>