<svg xmlns="http://www.w3.org/2000/svg" viewBox="100 -119 1744 1000">
  <path d="M 1235 597 L 1329 734 L 1570 875 L 1390 678 L 1235 597 Z M 1377 865 L 1356 794 L 1231 693 L 1316 834 L 1377 865 Z M 752 597 L 658 734 L 417 875 L 596 678 L 752 597 Z M 610 865 L 631 794 L 756 693 L 671 834 L 610 865 Z M 1235 165 L 1329 28 L 1570 -113 L 1390 84 L 1235 165 Z M 1377 -103 L 1356 -32 L 1231 69 L 1316 -72 L 1377 -103 Z M 752 165 L 658 28 L 417 -113 L 596 84 L 752 165 Z M 610 -103 L 631 -32 L 756 69 L 671 -72 L 610 -103 Z M 526 540 C 993 814 599 700 780 814 C 1461 540 1207 814 1388 700 L 1467 540 C 993 881 1401 738 1214 881 C 520 540 773 881 586 738 L 526 540 Z M 526 222 C 993 -52 599 62 780 -52 C 1461 222 1207 -52 1388 62 L 1467 222 C 993 -119 1401 24 1214 -119 C 520 222 773 -119 586 24 L 526 222 Z M 1787 374 C 1572 381 1786 374 1572 381 L 1494 382 L 1464 400 L 1493 393 C 1555 391 1493 393 1555 391 C 1632 419 1556 390 1632 419 L 1521 426 C 1454 426 1521 426 1492 426 C 1353 427 1436 426 1374 427 L 1397 512 L 1306 457 L 1274 431 C 1221 439 1252 433 1233 435 C 1172 452 1165 453 1172 452 L 1190 461 C 1253 526 1190 461 1259 511 C 1161 485 1228 518 1161 485 C 1073 472 1161 485 1102 472 C 969 475 1056 472 1007 473 C 1030 526 1002 501 1030 526 C 1123 541 1030 526 1094 547 C 1184 549 1143 536 1170 544 C 1208 592 1191 551 1209 592 L 1144 581 L 1020 597 L 878 518 L 823 441 L 820 457 L 855 522 L 841 629 L 829 620 C 772 492 829 620 777 495 C 704 437 766 488 729 438 C 649 434 680 436 660 435 C 597 422 644 434 618 422 C 543 428 570 422 554 424 C 530 431 539 430 535 431 C 426 435 511 432 471 433 C 264 442 340 438 265 443 C 264 442 264 442 264 442 L 160 429 L 152 417 C 185 412 152 417 184 412 C 311 397 187 412 311 397 L 207 388 L 164 375 L 351 360 L 218 351 L 100 350 L 168 333 L 271 320 C 426 327 272 319 340 324 L 426 327 C 530 331 471 329 511 330 C 543 334 535 331 539 332 C 597 340 554 338 570 340 C 649 328 618 340 644 328 C 704 325 660 327 680 326 C 772 270 729 324 766 274 C 829 142 777 267 829 142 L 841 133 L 855 240 L 820 305 L 823 321 L 878 244 L 1020 165 L 1144 181 L 1208 170 C 1184 213 1209 170 1191 211 C 1123 221 1170 218 1143 226 C 1030 236 1094 215 1030 236 C 969 287 1030 236 1002 261 C 1073 290 1007 289 1056 290 C 1161 277 1102 290 1161 277 C 1253 236 1161 277 1228 244 C 1190 301 1259 251 1190 301 L 1172 310 C 1221 323 1172 310 1165 309 C 1274 331 1233 327 1252 329 L 1306 305 L 1397 250 L 1353 335 C 1454 336 1374 335 1436 336 L 1454 336 C 1521 336 1492 336 1521 336 L 1572 342 L 1704 354 L 1838 355 L 1844 362 C 1787 374 1845 360 1788 373 Z M 1174 744 L 1104 641 L 1127 734 L 1174 744 Z M 946 52 L 937 -66 L 905 -90 L 875 -49 L 932 55 L 946 52 Z M 829 821 L 898 631 L 804 808 L 829 821 Z" fill="#000000"/>
</svg>