<svg xmlns="http://www.w3.org/2000/svg" viewBox="86 -938 1140 1102">
  <path d="M 740 -811 L 763 -764 L 799 -787 L 794 -842 L 747 -894 L 752 -840 L 740 -811 Z M 352 -540 L 380 -493 L 331 -467 L 249 -545 L 238 -573 L 352 -540 Z M 678 -248 L 676 -189 L 706 -202 L 716 -221 L 737 -198 L 747 -275 L 678 -248 Z M 493 66 C 564 6 494 63 564 6 L 558 47 L 558 80 L 525 74 L 493 66 Z M 1137 -405 L 1097 -432 L 1072 -484 L 1036 -506 C 1030 -525 1036 -506 1038 -518 C 664 -772 937 -620 664 -772 L 595 -840 L 342 -938 C 324 -927 341 -939 323 -927 L 537 -774 L 539 -760 L 364 -826 L 263 -850 L 189 -862 L 107 -870 L 86 -866 L 548 -663 L 300 -673 L 583 -558 L 585 -534 L 534 -402 L 519 -481 C 511 -499 519 -487 516 -493 L 509 -502 L 492 -370 C 486 -351 491 -363 489 -357 L 326 -51 L 268 28 L 319 9 C 332 -2 324 6 328 2 L 390 -69 L 307 99 C 304 139 305 106 304 131 L 314 164 L 406 -6 L 586 -293 C 599 -307 590 -298 594 -303 L 704 -390 L 700 -390 C 681 -389 693 -392 687 -391 L 605 -361 L 674 -437 L 710 -459 L 717 -519 L 750 -471 C 848 -479 750 -471 833 -480 C 937 -400 872 -479 919 -479 C 1063 -347 1019 -423 1062 -357 C 1235 -204 1174 -309 1226 -211 C 1137 -405 1248 -275 1137 -405 Z" fill="#000000"/>
</svg>