<?xml version="1.0" standalone="no"?>
<!DOCTYPE svg PUBLIC "-//W3C//DTD SVG 1.1//EN" "http://www.w3.org/Graphics/SVG/1.1/DTD/svg11.dtd" >
<svg xmlns="http://www.w3.org/2000/svg" xmlns:xlink="http://www.w3.org/1999/xlink" version="1.1" viewBox="-10 0 1167 1000">
  <g transform="matrix(1 0 0 -1 0 800)">
   <path fill="currentColor"
d="M716.15 693.8l8.39941 20.2998l-3.5 37.8008l32.9004 -36.4004l3.5 -38.5l-25.2002 -16.0996zM444.55 504.1l-79.7998 23.1006l7.7002 -19.6006l57.3994 -54.5996l34.3008 18.2002zM672.75 299.7l48.2998 18.8994l-7 -53.8994l-14.7002 16.0996l-7 -13.2998l-21 -9.09961
zM543.25 79.9004l22.4004 -5.60059l23.0996 -4.2002v23.1006l4.2002 28.7002s-49 -39.9004 -49.7002 -42zM994.05 409.6c0 0 77.7002 -91 68.6006 -140.699c-6.30078 4.89941 -42.7002 73.5 -120.4 100.1c-0.700195 7 -30.7998 53.2002 -88.2002 37.0996
c-12.5996 55.3008 -45.5 55.3008 -62.2998 55.3008c-10.5 0.699219 -68.5996 -5.60059 -68.5996 -5.60059l-23.1006 33.6006l-4.89941 -42l-25.2002 -15.4004l-48.2998 -53.2002l53.1992 19.6006c4.2002 1.39941 8.40039 2.09961 13.3008 0.699219h2.7998l-73.5 -58.0996
c-3.5 -2.7998 -6.2998 -6.2998 -9.10059 -9.7998l-126 -200.9l-64.3994 -119l-7 17.5c0 5.60059 0.700195 23.1006 2.09961 28l58.1006 117.601l-40.6006 -46.9004c-2.7998 -2.7998 -5.59961 -5.59961 -9.09961 -7.7002l-35.7002 -13.2998l40.5996 55.2998l112 210
c2.10059 4.2002 3.5 8.40039 4.2002 13.2998l11.9004 92.4004l1.39941 -2.09961c3.5 -4.2002 5.60059 -8.40039 5.60059 -12.6006l10.5 -55.2998l35.7002 92.4004l-1.40039 16.7998l-198.1 80.5l173.6 -7l-323.4 142.1l14.7002 2.7998l57.4004 -5.59961l51.7998 -8.40039
l70.7002 -16.7998l122.5 -46.2002l-1.40039 9.80078l-149.1 107.1c-0.700195 0 11.8994 8.40039 12.5996 7.7002l177.101 -68.6006l48.2998 -47.5996s191.1 -106.4 256.2 -172.9c5.59961 -4.89941 4.19922 -13.2998 4.19922 -13.2998l25.2002 -15.3994l17.5 -36.4004z" />
  </g>

</svg>
