<?xml version="1.0" standalone="no"?>
<!DOCTYPE svg PUBLIC "-//W3C//DTD SVG 1.1//EN" "http://www.w3.org/Graphics/SVG/1.1/DTD/svg11.dtd" >
<svg xmlns="http://www.w3.org/2000/svg" xmlns:xlink="http://www.w3.org/1999/xlink" version="1.1" viewBox="-10 0 1130 1000">
  <g transform="matrix(1 0 0 -1 0 800)">
   <path fill="currentColor"
d="M728 269.5l89.5996 56.7002l-45.5 -89.6006l-48.2998 -30.7998l-65.7998 55.2998l-65.0996 -55.2998l-49 30.7998l-45.5 89.6006l89.5996 -56.7002l22.4004 17.5v99.4004l-30.8008 35.6992l30.8008 35.7002v303.8h10.5c2.09961 -50.3994 14.6992 -116.199 37.0996 -128.8
c22.4004 12.6006 35 78.4004 37.0996 128.8h10.5v-303.8l30.8008 -35.7002l-30.8008 -35.6992v-99.4004zM571.2 427.7l-18.9004 205.8l18.2002 53.2002l28 -224zM403.2 696.5l3.5 56.7002l128.1 -350.7l-5.59961 -55.2998l-35 27.2998l-76.2998 159.6zM333.2 560.7
l28.7002 -41.2998l26.5996 -39.2002l58.0996 -105.7l2.80078 -30.7998c0 -0.700195 -0.700195 -1.40039 -1.40039 -1.40039l-30.0996 2.10059l-53.9004 73.5zM331.8 181.3l42.7002 19.6006l-4.90039 32.8994l-102.899 27.2998l13.2998 -42.6992zM401.8 204.4
l47.6006 -63.7002l36.3994 18.8994zM396.2 158.9l-85.4004 -14.7002l109.9 -49.7002s-25.9004 63.7002 -24.5 64.4004zM485.8 70l105 -33.5996l-94.5 80.5l-74.8994 10.5zM916.3 315l2.10059 -0.700195v-25.2002l-260.4 -252.699l-260.4 252.699v25.2002l2.10059 0.700195
l65.0996 -59.5l193.2 -121.1l193.9 121.1zM744.8 427.7l18.9004 205.8l-17.5 53.2002l-28.7002 -224zM909.3 753.2l3.5 -56.7002l-14 -162.4l-77 -159.6l-35 -27.2998l-5.59961 55.2998zM954.1 519.4l28.7002 41.2998l-30.7998 -142.8l-53.2002 -73.5l-30.7998 -2.10059
c-0.700195 0 -1.40039 0.700195 -1.40039 1.40039l2.80078 30.7998l58.0996 105.7zM984.2 181.3l-42.7002 19.6006l4.90039 32.8994l102.899 27.2998l-13.2998 -42.6992zM914.2 204.4l-47.6006 -63.7002l-35.6992 18.8994zM919.8 158.9l86.1006 -14.7002l-110.601 -49.7002
s25.9004 63.7002 24.5 64.4004zM830.9 70l-105.7 -33.5996l94.5 80.5l74.8994 10.5z" />
  </g>

</svg>
