<!-- Generated by IcoMoon.io -->
<svg version="1.1" xmlns="http://www.w3.org/2000/svg" width="32" height="32" viewBox="0 0 32 32">
<title>void_hunter_super</title>
<path d="M17.413 9.097q0.471-0.471 0.648-1.001t0.015-1.089-0.324-0.913-0.559-0.927-0.456-0.692h-0.736q-0.029 0-0.883-0.427t-1.869-0.913-1.398-0.603q-0.677-0.206-1.325-0.324t-1.325-0.088-1.075 0.029-1.119 0.177-0.913 0.235-0.957 0.309-0.795 0.25q-0.824 0.294-1.207 0.353-0.589 0.088-1.369-0.133t-1.251-0.486l-0.501-0.265q0.235 0.029 0.647 0.029 2.061-0.088 4.327-1.089 3.797-1.707 6.064-1.325 0.235 0.059 0.412 0.059 1.707 0.265 1.913 0.206l0.412-0.324 0.059 0.088q1.413 1.354 1.737 1.237 0.088-0.029 0.206-0.088-0.059-0.353-0.441-0.795l-0.53-0.589q1.825 0.618 2.443 1.207 0.736 0.677 1.251 2.002t0.765 2.414 0.397 1.207q0.088 0.059 0.206 0.059 0.088-0.118 0.177-0.295 0.029-0.029 0.118-0.103t0.177-0.133l0.059-0.118q0.206-0.206 0.441-0.324 0.206-0.088 0.412-0.162t0.397-0.118 0.368-0.059 0.324-0.015h0.25t0.162 0.029h0.088l1.177 0.295-0.883 0.265q-1.148 0.324-3.474 2.429t-4.416 5.019l-0.942 0.883q0.088-0.235 0.088-0.324t-0.235-0.647-0.206-0.883q0.088-1.030 0.883-1.766 0.029-0.029 0.059-0.073t0.073-0.073 0.073-0.059q0.677-0.53 1.413-0.942t0.883-0.559zM29.365 31.323l0.059 0.677q-0.118-0.206-0.294-0.545t-0.441-1.163-0.147-1.413q0.088-0.471 0.353-1.207 0-0.029 0.221-0.692t0.265-0.824 0.206-0.795 0.191-0.927 0.088-0.913 0.015-1.075-0.133-1.075-0.265-1.207q-0.118-0.383-0.603-1.413t-0.927-1.913l-0.441-0.854 0.029-0.707q-0.059-0.029-0.692-0.456t-0.957-0.574-0.898-0.324-1.104 0-1.001 0.677h-0.029q-0.147 0.147-0.559 0.898t-0.942 1.428q-0.059 0.059-0.118 0.133t-0.088 0.103q-0.795 0.795-1.766 0.854-0.353 0.029-0.898-0.191t-0.633-0.221l-0.324 0.088 0.854-0.942q0.029-0.029 0.073-0.059t0.073-0.029q2.885-2.090 4.931-4.386t2.399-3.444l0.235-0.883q0.265 0.883 0.294 1.207 0.029 0.059 0.059 0.309t-0.044 0.751-0.309 0.942q-0.147 0.265-0.353 0.412l-0.088 0.088q-0.118 0.177-0.265 0.265-0.029 0.059-0.265 0.177-0.029 0.118 0.059 0.206 0.118 0.147 1.207 0.397t2.414 0.765 2.002 1.251q0.235 0.294 0.53 0.913t0.471 1.089l0.177 0.471q-0.147-0.206-0.559-0.559-0.471-0.353-0.824-0.412-0.059 0.118-0.088 0.206-0.088 0.294 1.266 1.707l0.059 0.088-0.324 0.412q0 0.648 0.206 1.913 0.059 0.294 0.059 0.412 0.235 1.207-0.059 2.576t-1.237 3.489q-0.441 1.001-0.721 2.075t-0.339 1.663l-0.029 0.589zM4.284 24.17l-0.029-0.059q0 0.029 0.029 0.059zM7.581 16.369q-1.913 0.883-2.973 2.767-0.059 0.029-0.206 0.029 1.001-2.061 3.091-3.032 1.59-0.707 3.209-0.545t2.973 1.104l-0.059 0.059q-1.295-0.824-2.885-0.942t-3.15 0.559zM7.846 15.957v0zM9.465 27.113h-0.059q-0.029 0-0.073-0.015t-0.073-0.015h-0.029q-1.030-0.177-1.825-0.677-0.118-0.059-0.147-0.059v-0.029q-0.824-0.53-1.354-1.177-1.383-1.678-1.060-4.386l0.059-0.294q0.265-1.030 0.883-1.855 0.029 0 0.029-0.029l0.088-0.088q0.618-0.795 1.472-1.295 0.029 0 0.029-0.029 0.059 0 0.118-0.059 0.029 0 0.029-0.029l0.618-0.265q0.029 0 0.059-0.029h0.059q0.029 0 0.073-0.029t0.073-0.029q0.942-0.324 2.090-0.235h0.029q0.177 0 0.235 0.029h0.029q0.059 0 0.177 0.015t0.206 0.015l0.294 0.059q1.030 0.265 1.855 0.883v0.029q0.059 0.029 0.118 0.088 0.177 0.118 0.265 0.206l4.533-4.533 1.207-2.090-1.707 0.324 11.245-8.507-8.537 11.245 0.324-1.707-2.061 1.207-4.533 4.533q0.265 0.294 0.559 0.795 0 0.029 0.029 0.029 0 0.059 0.059 0.118 0 0.029 0.029 0.059v0.029l0.265 0.53v0.029l0.029 0.029v0.088q0.383 1.089 0.294 2.237v0.029q0 0.147-0.029 0.235v0.118q-0.029 0.059-0.029 0.177 0 0.029-0.029 0.088t-0.029 0.088v0.088q-0.059 0.177-0.088 0.235v0.059q0 0.029-0.029 0.088-0.206 0.618-0.471 1.030-0.059 0.118-0.177 0.294-0.559 0.913-1.383 1.443-1.472 0.971-3.091 0.942h-0.353q-0.118 0-0.177-0.029h-0.118zM11.497 25.171q0.059-0.029 0.162-0.088t0.162-0.088l-0.647-1.295q0.029 0 0.059 0.029 0.118 0.059 0.177 0.118l0.235 0.118q0.059 0.029 0.294 0.118 0.383 0.118 0.618 0.147h0.265q0.029-0.059 0.103-0.147t0.103-0.118l-1.089-0.854h0.059q0.118 0 0.206 0.029h0.412q0.059-0.029 0.177-0.029 0.353-0.059 0.589-0.147 0.177-0.059 0.206-0.059 0.059-0.147 0.118-0.383l-1.354-0.294q0.029 0 0.059-0.029 0.059 0 0.177-0.059 0.177-0.059 0.265-0.118 0.088-0.029 0.265-0.147 0.118-0.088 0.501-0.383 0.059-0.088 0.147-0.177 0-0.059-0.029-0.177t-0.029-0.177l-1.354 0.294 0.177-0.177q0.118-0.118 0.177-0.206 0.059-0.059 0.088-0.118 0.029-0.029 0.088-0.147 0.147-0.235 0.265-0.559 0.059-0.177 0.059-0.206t0.029-0.029q-0.059-0.059-0.235-0.294l-0.324 0.294-1.295 1.266q0.501 0.913-0.206 1.619-0.383 0.383-0.927 0.383t-0.957-0.383-0.412-0.942 0.412-0.942q0.736-0.736 1.619-0.206l1.207-1.207q0-0.029 0.015-0.073t0.015-0.073q0-0.059-0.015-0.162t-0.015-0.133v-0.118l-0.029-0.088v-0.029q-0.059-0.029-0.162-0.073t-0.162-0.073l-0.589 1.237v-0.059q-0.029-0.059-0.029-0.206l-0.029-0.059v-0.059q0-0.029-0.015-0.073t-0.015-0.073q-0.029-0.029-0.059-0.147t-0.029-0.147q-0.177-0.412-0.294-0.559-0.029-0.088-0.118-0.177v-0.029q-0.059 0-0.177-0.015t-0.177-0.015v1.413q0-0.029-0.029-0.059-0.029 0-0.029-0.029t-0.029-0.059-0.059-0.088q0-0.029-0.059-0.088l-0.059-0.059t-0.029-0.059q-0.029-0.029-0.059-0.073t-0.088-0.088-0.088-0.073q-0.059-0.088-0.235-0.206-0.029-0.029-0.118-0.088t-0.118-0.088q-0.088-0.059-0.206-0.118l-0.059-0.029v-0.029q0.029-0.029 0.029-0.059l-0.353 0.177 0.648 1.325q-0.029 0-0.059-0.029t-0.147-0.088q-0.029-0.029-0.118-0.088-0.059 0-0.118-0.059-0.177-0.059-0.324-0.118-0.412-0.118-0.589-0.118-0.088-0.029-0.235-0.029h-0.088q-0.029 0.029-0.088 0.103t-0.118 0.133l1.148 0.913q-0.029 0-0.088-0.029h-0.177q-0.088-0.029-0.265-0.029h-0.088l-0.059 0.029h-0.177q-0.295 0.029-0.618 0.147-0.088 0.029-0.206 0.088-0.029 0-0.029 0.029-0.088 0.118-0.088 0.324l1.383 0.294q-0.029 0-0.059 0.029-0.029 0-0.206 0.059l-0.235 0.118q-0.088 0.029-0.265 0.147-0.206 0.118-0.501 0.412l-0.206 0.206v0.029q0 0.118 0.059 0.294l1.413-0.324q-0.029 0-0.059 0.029-0.029 0.059-0.118 0.147-0.118 0.118-0.177 0.206-0.029 0.029-0.088 0.118-0.029 0.029-0.088 0.147-0.147 0.235-0.265 0.559-0.059 0.177-0.088 0.206v0.059q0.177 0.265 0.206 0.294l1.089-0.913q0 0.029-0.029 0.059 0 0.059-0.059 0.177l-0.118 0.589v0.324q0 0.206 0.029 0.294 0 0.177 0.029 0.235v0.088l0.147 0.073t0.118 0.073l0.648-1.325v0.088q0 0.118 0.029 0.177v0.118q0 0.029 0.015 0.073t0.044 0.073q0 0.147 0.088 0.324 0.059 0.235 0.265 0.559 0.059 0.059 0.118 0.177l0.059 0.059-0.059 0.059h0.383v-1.501q0 0.029 0.029 0.088 0.029 0.029 0.029 0.059 0.059 0.059 0.059 0.088 0.059 0.059 0.088 0.118l0.088 0.088q0.059 0.088 0.206 0.235 0.059 0.029 0.147 0.103t0.118 0.133q0.177 0.118 0.235 0.147l0.177 0.118 0.088 0.029q0 0.029-0.029 0.059zM6.492 22.315v0zM3.931 21.226q-0.235 1.354 0.265 2.708-0.501-1.383-0.353-2.738v-0.029l0.029-0.118v-0.029q0.088-0.618 0.324-1.354 0.029 0 0.088-0.029t0.088-0.029q-0.324 0.707-0.441 1.501v0.118zM15.912 19.489q0 0.059 0.029 0.059-0.029 0-0.029-0.059zM12.585 27.261q0.589-0.235 1.177-0.677 0.147-0.029 0.441-0.029-0.677 0.589-1.501 0.971-2.061 0.942-4.18 0.383 0.118-0.118 0.177-0.147 2.002 0.383 3.886-0.501zM15.471 18.606q0.235 0.412 0.324 0.618-0.088-0.206-0.324-0.618zM15.941 23.699l0.059-0.029h0.088q-0.441 1.383-1.413 2.443-0.059 0-0.191 0.015t-0.221 0.015q1.119-0.971 1.678-2.443zM16.177 23.316q-0.029 0.029-0.059 0.029t-0.044 0.015-0.044 0.015q0.118-0.324 0.235-1.030l0.029 0.029q0 0.059 0.029 0.059-0.029 0.294-0.147 0.883zM14.941 17.899v-0.029q0.029 0.029 0.206 0.294-0.118-0.177-0.206-0.265zM15.471 18.606q-0.147-0.177-0.206-0.324 0.059 0.147 0.206 0.324zM15.265 18.282l-0.118-0.118z"></path>
</svg>
