<svg xmlns="http://www.w3.org/2000/svg" viewBox="0 0 29.55558 23.23461">
  <title>cabal</title>
  <g id="Layer_2" data-name="Layer 2">
    <g id="Layer_1-2" data-name="Layer 1">
      <path d="M29.20922,16.91364q.17319.17318.11546.2309,0,.05774-.23091.05773h-5.253a.71783.71783,0,0,1-.51953-.2309q-.51954-.51954-4.27171-4.44488Q15.2396,8.54341,15.12414,8.428a.47045.47045,0,0,1-.11545-.34636V0l.17318.17318Q16.7982,1.674,16.85592,1.7895a.33922.33922,0,0,1,.17317.28863V4.0408a.47045.47045,0,0,0,.11545.34636q.635.635,2.13586,2.22244t2.309,2.45334q.80815.80816,4.90668,5.07987Q28.632,16.33638,29.20922,16.91364Zm-23.09029.11545a.62415.62415,0,0,1-.46181.17318H.2309q-.17317-.05772-.05772-.17318l.05772-.05772q4.67578-4.90669,4.849-5.02214.75042-.75043,6.98481-7.158a1.71946,1.71946,0,0,1,.17318-.23091.39161.39161,0,0,0,.11545-.28863V2.19358a.33259.33259,0,0,1,.11545-.2309q.11546-.11546,1.84722-1.7895l.11545-.11545h.05773V8.0816a.55381.55381,0,0,1-.17318.40408Q10.04428,12.87284,6.11893,17.02909ZM29.32468,19.7422q-.05774-.05772-.34636-.28863.28863-.23089.34636-.28862Zm-29.1515,0V19.165a2.29307,2.29307,0,0,1,.34635.28862,1.6865,1.6865,0,0,1-.17318.14432A1.68743,1.68743,0,0,0,.17318,19.7422Zm28.74742,0a3.37424,3.37424,0,0,1-.34636-.28863q.28863-.23089.34636-.28862Zm-28.34334,0V19.165a3.37648,3.37648,0,0,1,.34635.28862.67145.67145,0,0,1-.17318.11546ZM20.204,17.66408h.11545v.17317L20.204,17.895q-.57726.635-1.61632,1.64518t-1.93381,1.87609q-.89475.86589-1.64519,1.674a.051.051,0,0,0-.05772.05772.27818.27818,0,0,1-.40408,0q-.57726-.635-1.7895-1.84722L9.29384,17.83725q-.11544-.11544-.11545-.17317ZM15.29732,9.52475q.69272.6927,2.39562,2.4822t2.68425,2.77084a.47044.47044,0,0,1,.11545.34635v1.96268q0,.11546-.17318.11545H17.08682a.62074.62074,0,0,1-.34636-.11545q-.86587-.92361-1.61632-1.73177a.62079.62079,0,0,1-.11545-.34636V9.6402a.45662.45662,0,0,1,.05773-.28863Q15.12414,9.35157,15.29732,9.52475Zm-2.944,7.67752H9.12067q-.11546,0-.11545-.17318v-.05772a16.32139,16.32139,0,0,0-.05773-1.90495.3916.3916,0,0,1,.11545-.28863q.98134-.98135,2.7997-2.88629t2.28017-2.36675q.17317-.17317.2309-.11545.05772,0,.05772.2309v5.42622a.3916.3916,0,0,1-.11545.28863l-1.61632,1.73177A.47038.47038,0,0,1,12.35331,17.20227ZM29.3824,14.43143l.17318.17318-.17318.05773H28.28561l-.4618-.23091q-.635-.635-2.0204-2.07812-2.2513-2.309-6.75392-6.86936,0-.05774-.11545-.14432t-.11545-.14431a.33923.33923,0,0,1-.17318-.28863v-1.27l.05773-.05772,1.21224,1.21224q.635.635,1.84722,1.87608t1.7895,1.87609Q24.64889,9.64019,29.3824,14.43143ZM1.27,14.66234A4.02389,4.02389,0,0,0,.2309,14.60461H0l.11545-.11545Q7.158,7.33117,9.00522,5.42622l1.674-1.674.05773-.11545.05772.17318V4.90669a.55381.55381,0,0,1-.17317.40408q-5.71485,5.83029-8.94749,9.12066A.49932.49932,0,0,1,1.27,14.66234Zm24.12936,3.69445a.93022.93022,0,0,1,.28862.80816.23521.23521,0,0,1-.05772.17317l-.46181.46181a.44309.44309,0,0,1-.17317.05772H23.26347v-.2309h1.5586a.3916.3916,0,0,0,.28863-.11545.051.051,0,0,1,.05772-.05773.78317.78317,0,0,0,.23091-.57725.67145.67145,0,0,0-.11546-.17318l-.11545-.11545a.23269.23269,0,0,0-.2309-.11545h-1.674v-.23091h.17318q1.61632-.05772,1.67405-.05772a.33263.33263,0,0,1,.2309.11545Zm-20.89672.11545q-.40408,0-.40408.4618v.11545a.234.234,0,0,0,.11545.28863.88266.88266,0,0,0,.635.28863H6.17665v.2309h-1.674L4.2717,19.7422a2.79919,2.79919,0,0,1-.40408-.34635.33267.33267,0,0,1-.11545-.2309v-.40408a.18492.18492,0,0,1,.11545-.17318q0-.05773.11546-.11545l.17317-.17318a.23523.23523,0,0,1,.17318-.05773,14.08788,14.08788,0,0,1,1.84722,0h.05773v.23091Zm23.26347-.23091v.98134a.33424.33424,0,0,1-.05773.2309l-.34635.34636-.11545.05772h-1.27v-.2309h.98134a.23269.23269,0,0,0,.2309-.11545.60835.60835,0,0,0,.28863-.635v-.635Zm-25.053,1.38542h.75043v.2309H2.2513l-.17317-.05772-.34636-.34636a.443.443,0,0,1-.05772-.17317V18.24133h.28863v.80816l.11545.28863A.60836.60836,0,0,0,2.71311,19.62675Zm4.73351-1.15451v-.23091h.635Q7.96616,18.47224,7.44662,18.47224Zm-.86589,0v-.23091h.635Q7.10027,18.47224,6.58073,18.47224Zm15.41278,0a.74952.74952,0,0,1-.635-.23091h.635Zm.86588,0a.7495.7495,0,0,1-.635-.23091h.635Z"/>
    </g>
  </g>
</svg>
