<svg xmlns="http://www.w3.org/2000/svg" viewBox="0 0 1024.0137 854.27664">
  <title>Asset 1</title>
  <g id="Layer_2" data-name="Layer 2">
    <g id="Layer_1-2" data-name="Layer 1">
      <path d="M102.03574,620.92716c0-1.657,1.754-1.657,3.411-1.657h1.754v1.657c0,1.657-1.657,0-1.657,0h-3.508Zm5.165,6.626c0-1.657-1.657-1.657-3.313-1.657,0,0-1.754,0,0-1.657a1.65717,1.65717,0,0,1,1.657-1.657h0s3.313,3.313,1.657,4.97h0Zm30.112-337.957c-1.657,0-1.657,0-1.657-1.657s0-1.754,1.657-1.754,1.657,0,1.657,1.754a1.65719,1.65719,0,0,1-1.657,1.657Zm190.71,560.533c0,1.657,0,1.657-1.754,3.411-1.657,0-4.97,1.657-6.626,0s0-3.411,1.657-3.411a3.60931,3.60931,0,0,0,3.312-3.301l.001-.013c0-1.657-1.657-3.313-4.97-3.313s-5.067-3.411-5.067-6.724c0-1.657,0-1.657-1.657-3.313l9.745,4.97a8.66735,8.66735,0,0,1,3.313,6.719v.005c1.754,0,1.754,1.657,1.754,4.97Zm-13.741-55.157h0c1.657-1.754,1.657-3.411,3.411-3.411s1.657,1.657,1.657,3.411l-1.657,1.657c-3.411-1.657-1.754,0-1.754,1.657h0c1.754,0,1.754,0,1.754,1.657,0,0,0,1.657-1.754,0-1.657,0-1.657-1.657-1.657-3.313h0c-1.657,1.657-1.657,0,0-1.657Zm-1.656-53.597a1.65717,1.65717,0,0,1,1.657,1.657h0c-1.657,1.657-3.313,0-1.657-1.657Zm0-8.38,1.657,1.657v3.411c-1.657,0-1.657,0-1.657-1.657v-1.754S310.96871,732.99516,312.62573,732.99516Zm3.313,50.186c1.754,0,1.754,1.754,1.754,3.411,0,0,0,1.657-1.754,0,0,0-1.657,0,0-3.411Zm-1.657-55.157h0c1.657-1.657,1.657,0,1.657,0,1.754,1.657,1.754,1.657-1.657,0C315.93875,729.68113,314.28173,729.68113,314.28173,728.02415Zm1.657-6.724c1.754,0,1.754,1.657,1.754,3.313a1.75492,1.75492,0,0,1-1.754,1.754h0c0-3.411-1.657-3.411,0-5.067C314.28173,721.30015,314.28173,719.64317,315.93875,721.30015Zm-1.657-6.724c0-1.657,0-1.657,1.657-1.657a1.657,1.657,0,1,1,0,3.314h0a1.65718,1.65718,0,0,0-1.657-1.657Zm401.885,112.165c-1.657,0-1.657-1.657,0-3.411Zm36.836-36.836c-1.657,0-1.657,1.657-3.313,1.657h-1.657v-1.657a5.74821,5.74821,0,0,1,1.656-3.312l.001-.001h1.657c1.657,1.657,3.313,1.657,1.657,3.313h-.001Zm115.479-58.47h0a6.01977,6.01977,0,0,0-4.207-1.705,6.12289,6.12289,0,0,0-.794.052l.031-.003c-1.754,0-1.754-1.657,0-1.657,0-1.657,1.657-1.657,3.313,0,1.657,0,1.657,1.657,1.657,3.313Zm-1.17-431.802c-1.657,0-1.657,1.657-3.313,1.657-3.411,0-3.411,1.657,0,3.313a13.83463,13.83463,0,0,0-4.191-.636,14.14634,14.14634,0,0,0-4.291.663l.1-.028c-1.657,0-1.657,0-1.657-1.657v-.003a1.65718,1.65718,0,0,0-1.657-1.657q-.051,0-.102.003h.005c-1.657-1.657-1.657-1.657-3.313-1.657s-1.657,1.657-1.657,3.313v20.075c-1.657,6.724,1.657,13.448,0,20.075a44.93558,44.93558,0,0,1,.621,7.552,46.51674,46.51674,0,0,1-.66,7.826l.038-.274v4.97c.042.661.065,1.434.065,2.212a37.48917,37.48917,0,0,1-1.796,11.501l.074-.265c-1.657,1.657,0,3.313,0,4.97,1.657,1.657,1.657,1.657,0,3.313s-1.657,3.411-3.411,5.067v1.657h1.754c1.657,0,1.657-1.657,3.313,0s0,1.657,0,3.411v3.313c0,3.313,1.657,4.97,1.657,8.381a13.835,13.835,0,0,0-.636,4.191,14.14479,14.14479,0,0,0,.663,4.291l-.028-.1c-1.657-1.754-1.657-1.754-3.313-1.754a1.65718,1.65718,0,0,0-1.657-1.657h0l-1.754,1.657c1.754,1.754-1.657,5.067,1.754,6.724,1.657,0,0,1.657-1.754,3.313s-1.657-1.657-1.657-1.657h0c-1.657,1.657,3.411,3.411,0,5.067,1.657,1.657,1.657,3.313,5.067,3.313v1.657h-1.657c-1.754,0-1.754,0-1.754,1.657s1.754,1.754,3.411,1.754a3.60931,3.60931,0,0,1,3.312,3.301l.001.013v13.35s0,1.754-1.657,1.754c-3.313,0-3.313,1.657-5.067,3.313h1.754c1.657-1.657,3.313,0,3.313,1.657v5.067c-1.657,0-1.657-1.754-1.657-1.754s-1.657-1.657-1.657,0v1.754c1.657,1.657,1.657,1.657,0,3.313,0,0-1.754,1.657,0,1.657s1.657,0,1.657-1.657a1.65718,1.65718,0,0,1,1.657-1.657h0c1.657,0,0,1.657,0,1.657v21.732a1.65717,1.65717,0,0,1-1.657,1.657h0c-1.657,0-1.657,0-1.657-1.657,0,0-1.754-1.657-1.754,0-1.657,0,0,1.657,0,3.313s0,1.754,1.754,0,3.313,1.754,3.313,1.754c0,1.657,0,3.313-1.657,3.313-1.657,1.657-1.657,0-3.411-1.657,0,0,0-1.657-1.657,0v1.657c0,1.657,0,3.313,3.411,1.657,1.657,0,1.657,0,1.657,1.657,0,5.067,1.657,8.381,1.657,13.448v38.98a31.10764,31.10764,0,0,1-3.395,11.867l.082-.173s-1.754,0-1.754-1.657h-2.144v1.657c1.657,1.657,1.657,1.657,0,3.313,0,0-1.657,0,0,1.657,1.657,3.411,0,5.067,0,8.381,0,1.657,0,3.411,3.411,1.657,1.657,0,1.657,0,1.657,1.754,1.657,4.97,1.657,9.745,3.313,13.35v1.657c-3.313,1.657-1.657,3.313-1.657,5.067s-1.657,1.657,0,3.313v1.657c-3.313,1.657-1.657,5.067,0,6.724,0,1.657-1.657,1.657-1.657,3.313s0,1.657-1.657,1.657-1.754,0-1.754,1.754v3.313c1.754,0,1.754,1.657,3.411,3.313,0,0,1.657,1.657,0,1.657h-1.657v-.003a1.65718,1.65718,0,0,0-1.657-1.657q-.051,0-.102.003h.005c-1.657,1.657,0,3.411,0,5.067,1.754,3.313,0,4.97,0,8.381v1.657c1.754,1.657,1.754,0,1.754,0h3.313c1.657,1.657,0,1.657,0,3.313-3.313,1.657,0,5.067,0,8.381v1.657h-1.657c-3.411-1.657-3.411,0-3.411,1.657v15.104c0,1.657,0,1.657-1.657,3.313-1.657,0-3.313,1.657-1.657,3.411v1.657c-1.657,3.313,0,4.97,0,8.381a1.65717,1.65717,0,0,0,1.657,1.657h0a1.657,1.657,0,0,1,0,3.314h0c-3.313,1.657-3.313,1.657,0,3.313,0,0,1.657,1.754,0,1.754-1.657,1.657,0,3.313-1.657,3.313s-3.313,0-3.313,1.657-1.657,3.313-3.411,5.067a1.65717,1.65717,0,0,0-1.657,1.657h1.657c1.754-1.657,3.411-1.657,1.754,1.657a1.65717,1.65717,0,0,0,1.657,1.657h0a1.65717,1.65717,0,0,1,1.657-1.657v1.657c-1.657,1.657,0,8.381,1.657,8.381s1.657,1.657,3.313,1.657c3.411,1.657,6.724,5.067,9.745,6.724v.78h-1.657c-3.313-1.657-6.626,0-9.745-3.313l-6.626-6.432a3.50906,3.50906,0,0,0-6.718-.024l-.007.025c-1.657,1.657-3.411,1.657-5.067,3.313h-1.657c0,1.754,0,1.754-1.657,3.411,0-1.657-1.657-3.411-1.657-5.067a1.65717,1.65717,0,0,0-1.657-1.657h-1.754c-1.657,3.313-4.97,3.313-8.283,1.657l-1.754-1.657h-1.657c-1.657,0,0,1.657,0,1.657,1.657,1.657,1.657,1.657,1.657,3.411,1.754,0,1.754,1.657,0,3.313a2.33936,2.33936,0,0,1-3.314,0h0c-1.657-1.657-3.313,0-3.313,1.657a5.156,5.156,0,0,0-1.655,3.291l-.002.022c0,1.754-1.754,3.411-3.411,1.754-1.657,0-1.657,0-1.657,1.657,1.657,4.97-3.313,6.626-4.97,8.381s-5.067,1.657-5.067,4.97l-1.657,1.657c-1.657,1.657-3.313,3.411-3.313,5.067a3.70606,3.70606,0,0,1-3.398,3.312l-.013.001c-1.657,0-3.313,0-1.657,3.313.002.029.003.063.003.098a1.65717,1.65717,0,0,1-1.657,1.657h-.003l-5.067,4.97c0,1.657,0,1.657-1.657,1.657h-.003a1.65717,1.65717,0,0,0-1.657,1.657q0,.051.003.102v-.005a8.55967,8.55967,0,0,1-3.295,6.612l-.019.014c0,1.657-1.754,1.657-1.754,0-1.657-1.657-3.313,0-4.97,0s-1.657,1.657-3.313,1.657,0,1.754,0,1.754c1.657,1.657,3.313,1.657,3.313,3.313a2.33936,2.33936,0,0,1-3.314,0h0c-1.754,0-1.754,0-1.754-1.657v-1.657h-1.657c0,1.657-3.313,3.313-1.657,4.97v1.657c-1.657,3.411-1.657,8.381-4.97,9.745a20.6248,20.6248,0,0,1-8.273,8.327l-.108.053c-1.657,1.657-5.067,3.313-5.067,6.724a34.98072,34.98072,0,0,1-6.73,9.751l.006-.006c-1.657,0-1.657,1.657-3.313,1.657v-5.067c0-1.657,0-1.657,1.657-1.657,3.411-1.657,5.067-3.313,1.657-6.626a1.75493,1.75493,0,0,1,1.754-1.754h0a1.65718,1.65718,0,0,0,1.657-1.657h0v-1.657c1.657-1.657,0-3.313-1.657-4.97a8.7696,8.7696,0,0,0-6.712-3.411h-.012c4.97,0,3.313-4.97,3.313-6.626v-1.754c3.411-3.313,3.411-8.283,6.724-11.694,1.657-1.657,1.657-4.97,3.313-6.626a5.78881,5.78881,0,0,1-.054-.798,5.92231,5.92231,0,0,1,1.807-4.267l.002-.002v-3.313c0-1.754-1.754-5.067-1.754-6.724v-9.745c0-1.657,1.754-3.313,1.754-6.724v-9.745a9.35265,9.35265,0,0,1-.063-1.099,9.70148,9.70148,0,0,1,1.74-5.559l-.021.032v-5.067c0-3.313-1.657-6.724-1.657-9.745,0-1.657-1.754-3.313-1.754-5.067,0-4.97,1.754-8.283,1.754-11.694v-9.745a35.20331,35.20331,0,0,0,.621-6.676,36.31451,36.31451,0,0,0-.658-6.902l.037.228a55.231,55.231,0,0,0,.621-8.381,57.32326,57.32326,0,0,0-.661-8.697l.04.317c.046-1.075.072-2.336.072-3.603a91.33717,91.33717,0,0,0-1.929-18.72l.103.591c0-3.313-1.657-5.067,0-8.381v-3.313c-1.657-3.411,0-5.067,0-8.381v-5.067a16.62008,16.62008,0,0,0,5.128-12.026c0-.5-.022-.997-.065-1.486l.004.063c0-1.657,0-3.313-1.657-1.657v-8.381s1.657,1.657,1.657,0v-1.657c-1.657,0-1.657-3.411-1.657-5.067a1.65718,1.65718,0,0,1,1.657-1.657h0a1.6595,1.6595,0,0,0,1.322-1.622,1.63835,1.63835,0,0,0-.058-.435l.003.012v-13.35c0-1.754,0-1.754-3.313-1.754-1.657,0-3.411-3.313-3.411-4.97s-1.657-5.067,0-6.724a7.312,7.312,0,0,0-.016-8.404l.015.023c0-3.313,0-6.626,3.411-8.381-3.411,0-3.411-1.657-3.411-4.97v-5.067c0-1.657,1.754-1.657,1.754-1.657a1.65717,1.65717,0,0,0,1.657-1.657h0c0-1.657,0-1.657-1.657-3.313-1.754,0-1.754,0-1.754,1.657a1.65718,1.65718,0,0,1-1.657,1.657h0c-1.657,0,0-1.657,0-1.657,0-3.313,1.657-5.067,3.411-8.381v-1.657a5.931,5.931,0,0,1-1.808-4.269,5.81955,5.81955,0,0,1,.058-.829l-.003.032a34.44421,34.44421,0,0,0,2.157-12.111c0-.333-.005-.666-.014-.996l.001.048v-8.381c.047-1.249.073-2.714.073-4.187a120.65167,120.65167,0,0,0-1.938-21.59l.11.732v-1.754a74.53109,74.53109,0,0,0,.658-10.037,77.57953,77.57953,0,0,0-.702-10.435l.044.397v-11.986c0-1.657,0-3.313-1.657-1.657-1.657,0-1.657,0-1.657-1.657v-3.411c-1.657,0-1.657,0-1.657,1.754v1.657a1.65718,1.65718,0,0,1-1.657,1.657h0c-1.754,0-1.754-1.657,0-1.657h0c3.313-1.657,3.313-5.067,3.313-8.381,0-1.657,1.657-5.067,1.657-6.724v-2.046c1.657-3.313,0-6.724,0-9.745v-8.381c1.657-3.313,0-6.724,0-9.745,0-1.657-1.657-1.657,0-3.313v-1.657c-1.657,0-1.657-1.754,0-3.411a6.01977,6.01977,0,0,0,1.705-4.207,6.12093,6.12093,0,0,0-.052-.794l.003.031c-3.313,0-1.657-1.657-1.657-3.411v-1.657c-1.657-1.657-1.657-1.657,0-1.657v-1.657s0-1.657-1.657,0h-1.657s-1.657-1.657,0-1.657,1.657,0,1.657-1.657,0-1.754-1.657-3.411l-1.657-2.144c1.657-1.657,1.657,1.657,3.313,1.657v-34.79c0-1.754,0-1.754-1.657-1.754a35.71765,35.71765,0,0,0-6.724-.621,36.96987,36.96987,0,0,0-6.954.657l.23-.037c-1.657,1.754-4.97,0-6.626,0-5.067-1.657-9.745,0-15.104-3.313-1.657,1.657,1.657,1.657,0,3.313h-11.986a10.00569,10.00569,0,0,1-1.033.052,10.28324,10.28324,0,0,1-5.728-1.732l.038.023a13.92237,13.92237,0,0,0-10.785-5.112,14.075,14.075,0,0,0-2.056.151l.076-.009h-282.605c-.402-.038-.869-.059-1.341-.059a15.2335,15.2335,0,0,0-7.123,1.756l.083-.04a9.66081,9.66081,0,0,1-5.541,1.728,9.81534,9.81534,0,0,1-1.231-.077l.048.005c-4.97,0-9.745,1.657-15.008,1.657v-1.657c-1.657,0-1.657,1.657-3.313,1.657a41.64637,41.64637,0,0,1-11.865,1.686q-.8355,0-1.663-.032l.079.003h-3.8a35.71773,35.71773,0,0,0-6.724-.621,36.97082,36.97082,0,0,0-6.954.657l.23-.037c-1.657,0-1.657,1.754-1.657,1.754v33.133c1.657,0,1.657-1.657,3.411-1.657,1.657,1.657-1.754,1.657-1.754,1.657a2.33943,2.33943,0,0,0,0,3.314h0a1.75492,1.75492,0,0,0,1.754,1.754h1.657a1.65719,1.65719,0,0,1-1.657,1.657h-1.754c0,1.657,0,0,1.754,0s0,1.657,0,1.657a2.21063,2.21063,0,0,0,0,3.313s1.657,1.657,0,1.657c-1.754,1.754-3.411,3.411-1.754,5.067s3.411,3.313,0,3.313v1.657c1.754,0,1.754,1.754,0,1.754s-1.657,1.657-1.657,3.313v6.724a9.66355,9.66355,0,0,1,1.719,5.527,9.82775,9.82775,0,0,1-.067,1.145l.004-.046v5.067c0,1.657-1.657,3.313,0,3.313,1.754,3.411,0,6.724,0,9.745,0,1.657,1.754,3.411,1.754,6.724a1.65718,1.65718,0,0,0,1.657,1.657h0a1.65718,1.65718,0,0,1,1.657,1.657h0v1.657h-1.657a1.65719,1.65719,0,0,0-1.657-1.657h0c-1.754,0,0,1.657,0,1.657,1.657,1.754,1.657,3.411-1.754,3.411a1.65718,1.65718,0,0,0-1.657,1.657h0v28.456a19.01262,19.01262,0,0,1,.509,4.423,19.41108,19.41108,0,0,1-2.216,9.035l.051-.107v14.033c0,3.313,1.657,4.97,0,8.283a54.828,54.828,0,0,0-.625,8.381,56.93621,56.93621,0,0,0,.665,8.697l-.04-.316v1.657c-1.657,3.411,0,8.381-1.657,11.791a123.02838,123.02838,0,0,0-1.727,20.843q0,2.21549.075,4.415l-.006-.213a178.08562,178.08562,0,0,0-1.725,25.107q0,2.64.074,5.262l-.006-.257v55.255c-.043.992-.068,2.155-.068,3.324a82.56976,82.56976,0,0,0,1.821,17.291l-.097-.54v13.35c0,3.411-1.657,6.724,1.657,9.745,0,0,1.657,1.754,0,1.754s0,1.657,0,3.313,1.657,4.97,0,6.724v1.657c3.313,4.97,1.657,8.381,1.657,13.35v1.657c1.657,0,1.657,1.657,1.657,3.411,1.657,1.657,1.657,4.97,3.411,8.283v1.754s-1.754,0-1.754,1.657c0,0,1.754,0,1.754,1.657h1.657a1.65718,1.65718,0,0,1,1.657-1.657h0v3.313a1.65718,1.65718,0,0,1-1.657,1.657h0c-1.657,0-3.411,1.657-3.411,5.067.003.112.005.243.005.375a12.893,12.893,0,0,1-1.696,6.414l.033-.063v1.657a1.65718,1.65718,0,0,1-1.657-1.657h0a5.84312,5.84312,0,0,0-1.657-3.411h0v-3.313a1.65718,1.65718,0,0,0-1.657-1.657h0l-1.657,1.657c0,3.313-1.754,4.97,0,8.381v1.657c-1.754,1.657,1.657,3.313,0,4.97h3.313v1.754c-1.657,1.657-1.657,1.657,1.657,1.657,1.657,0,1.657,1.657,3.313,0,0,0,1.754,0,1.754,1.657v1.657s-1.754,0-1.754,1.657l-1.657,1.657c1.657,1.754,1.657,0,3.411,0,0,1.754,0,1.754-1.754,1.754a1.657,1.657,0,1,0,0,3.314h3.411c0,1.657,0,1.657-1.657,3.313,0,1.657-1.754,0-1.754,0s-1.657-1.657-1.657,0a2.43759,2.43759,0,0,0,0,3.411h0c1.657,0,1.657,0,0,1.657h0c1.657,1.657,1.657,3.313,3.411,4.97v1.657h-1.754s-1.657-1.657-1.657,0v3.411h-1.657s0-1.657-1.657,0a5.72872,5.72872,0,0,0-1.653,3.283l-.003.03s0,1.657,1.657,0c3.313-1.657,1.657,1.657,3.313,1.657,0,1.754-1.657,1.754-1.657,0h-3.316a1.65718,1.65718,0,0,0-1.657,1.657q0,.051.003.102v-.005c1.657,1.657,1.657,3.313,3.313,4.97,3.313,1.657,3.313,5.067,3.313,8.381v3.313a45.98587,45.98587,0,0,1,1.722,12.617q0,1.3125-.071,2.608l.005-.12c0,1.657,1.754,1.657,3.411,1.657h0v-1.657s-1.657-1.657,0-1.657h3.313a1.65718,1.65718,0,0,0,1.657,1.657h0v1.657h-3.313c0,1.657,0,3.313-3.313,3.313,0,0-1.754,0-1.754,1.657a5.79057,5.79057,0,0,1,.798-.054,5.92218,5.92218,0,0,1,4.267,1.807l.002.002v1.657h-3.313c-1.754,0-3.411,0-1.754,3.313,0,1.657,1.754,3.313-1.657,3.313-1.657,0-1.657,5.067,0,5.067,3.411,0,3.411,3.313,3.411,5.067,1.657,0,0-1.754,1.657-1.754h1.657c0,1.754,0,1.754-1.657,3.411,0,1.657-1.657,0-1.657,0a13.04551,13.04551,0,0,1-6.691-6.641l-.033-.083c-1.657-1.657-3.313-3.313-3.313-5.067s-1.754-3.313-3.411-4.97l-4.97-5.067a16.872,16.872,0,0,0-6.843-7.948l-.075-.043v-1.754c0-3.313-1.657-6.626-1.657-11.694,0-1.657,0-3.313-1.657-3.313v6.724l1.657,1.657a1.657,1.657,0,0,1-3.314,0h0c0-1.657-1.754-3.411-3.411-1.657h-1.365a5.84316,5.84316,0,0,0-1.657-3.411h0s-1.657-3.313,1.657-1.657a1.65717,1.65717,0,0,0,1.657-1.657h0c0-3.313-3.313-5.067-6.724-3.313-1.657,1.657-1.657,0-3.313,0-1.657-1.754-1.657-3.411-3.313-5.067-1.657-3.313-5.067-4.97-5.067-8.381,0-1.657-1.657-1.657-3.313-1.657s-3.313,0-1.657-3.313h0a4.38,4.38,0,0,1-.629.044,4.48287,4.48287,0,0,1-4.483-4.483,4.39478,4.39478,0,0,1,.048-.653l-.003.024c0-1.657-1.657-1.657-1.657-3.313-1.657-1.657-3.313-3.411-3.313-5.067h0c-1.657,0-3.411-1.657-5.067-1.657a9.17454,9.17454,0,0,1-4.973-8.147c0-.082.001-.164.003-.245v.012c0-1.657,0-3.313-1.657-1.657-1.754,0-1.754,0-3.411-1.657,0-1.657-1.657-3.313-3.313-5.067a3.21584,3.21584,0,0,0-5.062-.006l-.005.007c0,1.754-1.657,1.754-1.657,0s-1.657-1.657,0-3.313l3.313-3.313s1.754-1.657,0-1.657c0,0-1.657-1.754-1.657,0-1.657,3.313-4.97,1.657-8.381,1.657-1.657,0-3.313,0-3.313,3.313,0,1.657-1.657,1.657-3.313,0l-6.724-6.724a3.11841,3.11841,0,0,0-4.965,1.733l-.004.021v.003a1.65718,1.65718,0,0,1-1.657,1.657q-.051,0-.102-.003h.005s-1.657,1.657,0,1.657h1.754s0-1.657,1.657,0v1.267c-1.657,1.657-1.657,1.657-3.411,1.657a6.01973,6.01973,0,0,1-1.705-4.207,6.12128,6.12128,0,0,1,.052-.794l-.003.031s1.657-1.657,0-1.657c0-1.754,1.657-5.067,0-6.724,0,0,0-3.411,1.657-3.411s1.754-1.657,1.754-3.313-1.754-1.657-3.411-3.313h-1.657c0-1.657-1.657-3.411,0-5.067s1.657-1.657,0-3.313c-1.657,0-3.313-1.657,0-3.313v-1.754a5.82285,5.82285,0,0,0,.048-.763,6.02317,6.02317,0,0,0-1.707-4.208l.002.002a58.91393,58.91393,0,0,1-5.067-23.348v-.039s1.754-3.411-1.657-1.754c-1.657,0-1.657,0,0-1.657s0-3.313,1.657-4.97c0-1.754,0-3.411-1.657-3.411s-1.657-1.657,0-3.313c1.657,0,1.657-1.657,3.411,0s1.657,1.657,1.657,0v-12.961a1.65718,1.65718,0,0,0-1.657,1.657h0s-1.754,1.657-1.754,0v-1.657l3.411-3.411c1.657-1.657,1.657-1.657,0-3.313a1.65717,1.65717,0,0,0-1.657-1.657h0c-1.754,0-3.411-3.411-3.411-5.067s1.657-3.313,1.657-4.97a108.655,108.655,0,0,1-1.657-18.376v-.043c-3.313-3.411,0-5.067,0-8.381a73.96023,73.96023,0,0,1,1.773-8.899l-.117.518c0-1.657,0-1.657,1.754-1.657,3.313,0,4.97-1.657,3.313-3.313.04-.414.063-.895.063-1.38a15.04087,15.04087,0,0,0-1.759-7.082l.039.082v-3.411s1.657-1.657,0-1.657h-3.411a9.34784,9.34784,0,0,0,.063-1.099,9.70144,9.70144,0,0,0-1.74-5.559l.021.032a63.16666,63.16666,0,0,1-2.436-17.573,65.35494,65.35494,0,0,1,.417-7.378l-.028.296v-8.381a44.352,44.352,0,0,0,.621-7.504,45.87861,45.87861,0,0,0-.66-7.774l.038.27a69.65806,69.65806,0,0,1,1.768-8.87l-.112.49h1.657c1.754,0,1.754,0,1.754-1.657,0,0,1.657-1.754,0-1.754a1.75492,1.75492,0,0,0-1.754,1.754h0s-1.657,1.657-1.657,0v-5.554c0-1.657,1.657-3.313,3.411-1.657h1.657v-3.411h-1.657a2.33848,2.33848,0,0,1-3.409.001l-.001-.001c0-1.657-1.657-1.657,0-3.313v-1.365c-1.657-6.724,0-11.694-1.657-18.418v-1.657h1.657s1.657,1.657,1.657,0v-1.657a1.65717,1.65717,0,0,0-1.657-1.657h0c-1.657,0,0-1.754,0-1.754l1.657-1.657s0-1.657-1.657,0a1.65717,1.65717,0,0,0-1.657,1.657h0v-6.626c0-1.657,1.657-3.411,3.313-1.657h1.754v-1.754c0-1.657-1.754-1.657-1.754-1.657-1.657,0-1.657,0-1.657-1.657v-13.643c0-1.754,0-3.411,3.411-3.411a1.657,1.657,0,1,0,0-3.314h0s-1.754,0-1.754-1.657l1.754-1.657a6.40337,6.40337,0,0,0,1.697-4.352,6.33046,6.33046,0,0,0-.043-.745l.003.03c0-1.657,0-1.657-1.657-1.657,0,0-1.754,0,0-1.657v-3.411c1.657,0,0,1.754,1.657,1.754v-8.381c-3.411,1.657-1.657-1.657-1.657-1.657,0-3.411-1.754-5.067,0-8.381a10.73191,10.73191,0,0,0-.028-9.804l.028.059a3.60886,3.60886,0,0,1,3.301-3.41l.013-.001c-1.657-1.657-1.657-3.313-3.313-4.97v-1.657a3.21583,3.21583,0,0,0,.006-5.062l-.007-.005a26.6977,26.6977,0,0,1-1.821-9.784q0-1.008.073-1.999l-.005.088v-22.024a132.05107,132.05107,0,0,0,.66-13.399,137.944,137.944,0,0,0-.707-13.977l.048.577v-8.381c0-1.657-1.657-3.313,0-6.724v-1.657c-3.313-1.657-1.657-3.313-1.657-4.97v-5.067a5.82239,5.82239,0,0,1-.048-.763,6.02321,6.02321,0,0,1,1.707-4.208l-.002.002c1.754-1.657,3.411-3.411,1.754-5.067v-11.304c0-1.657,0-1.657-1.754-1.657l-3.313-3.8v-3.313c3.313-1.657,3.313-4.97,3.313-8.381v-9.748a1.65718,1.65718,0,0,1,1.657-1.657q.051,0,.102.003h-.005c3.313,0,0-1.657,0-1.657-1.754,0-1.754-6.724,0-6.724h1.657a6.01979,6.01979,0,0,1-1.705-4.207,6.12077,6.12077,0,0,1,.052-.794l-.003.031v-45.801c0-1.657,0-1.657,1.657-1.657h3.313c1.657,0,3.313-1.657,1.657-5.067,0-1.657,0-3.313,1.657-3.313h84.1c.666.043,1.444.068,2.228.068a36.70448,36.70448,0,0,0,11.383-1.798l-.26.073h18.418c6.724,0,13.448-1.657,20.075-1.657a5.81805,5.81805,0,0,0,.762.048,6.02408,6.02408,0,0,0,4.304-1.802l.001-.001a2.33943,2.33943,0,0,1,3.314,0h0c1.657,0,0,1.754,0,3.411,5.067-1.657,11.694,1.657,16.761-1.657h1.657c1.657,1.657,3.313,0,6.724,0,1.657,0,0-3.411,1.657-1.754,1.657,0,0,1.754,1.657,1.754h33.523a1.75492,1.75492,0,0,1-1.754-1.754h0c0-1.657,1.754,0,1.754,0,1.657,0,1.657-1.657,3.313-1.657h1.169v1.657c-1.657,3.411-1.657,3.411,1.657,3.411,5.067,0,8.381,1.657,13.448-1.657h1.657c1.657,0,1.657,1.657,3.313,0,0-1.754,1.657,1.657,1.657,0,0,0,0-1.754,1.657-1.754h1.754c1.657,1.754,4.97,3.411,6.626,1.754h177.847c3.313,0,4.97,1.657,6.626-1.754,1.657,3.411,5.067,1.754,6.724,1.754h66.948c1.657,0,1.657,0,1.657-1.754s1.657-1.657,3.313-1.657a1.65718,1.65718,0,0,1,1.657,1.657h0v1.754c1.754,0,5.067-1.754,6.724,0s5.067,0,8.381,1.657h122.203c1.657,0,3.313,3.313,3.313,4.97-1.657,3.411,0,3.411,1.657,3.411s1.657,1.657,1.657,3.313v53.598c0,1.657-1.657,3.313-1.657,4.97s3.313,1.657,1.657,3.313v8.381c0,1.657,1.657,5.067,1.657,6.724v.003a1.65718,1.65718,0,0,0,1.657,1.657q.051,0,.102-.003h-.005c3.313,0,3.313,3.313,1.657,3.313-3.411,3.411-1.657,6.724-1.657,9.745v6.724a6.23486,6.23486,0,0,0,1.659,3.413l1.654,1.654v-3.411c0-1.657,0-1.657,1.657-3.313h3.313c3.411,1.657,5.067,5.067,8.381,8.381l1.657,1.657c1.754,1.657,1.754,1.657,3.411,0,0-1.657,1.657-1.657,3.313,0s1.657,1.657,0,3.313-1.657,1.754,0,3.411,1.657,0,3.313,0l1.754-1.657c0-1.754,1.657-1.754,3.313,0s0,1.657,0,1.657c-1.657,1.657,0,1.657,0,3.313,0,0,1.657,1.657,0,1.657H875.19a34.94424,34.94424,0,0,0-8.441,5.116l.061-.048Zm-20.562,120.449h0c-1.657,1.657-1.657,0-1.657-1.657a1.65717,1.65717,0,0,1,1.657-1.657h0c1.657,0,0,1.657,0,3.313Zm3.313,147.247c-1.657,1.657,0,5.067-1.657,6.724a1.65717,1.65717,0,0,1-1.657,1.657h0c-1.657,0-1.657-1.657-1.657-3.313s0-1.657,1.657-3.411,3.313,0,3.313-1.657Zm-671.041,3.41h0c1.754-1.754,1.754,0,1.754,0a5.74849,5.74849,0,0,0,1.656,3.312l.001.001c0,1.657,0,1.657-1.657,1.657s-1.754,0-1.754-1.657v-3.313Zm-1.657-289.523h0c1.657-1.657,1.657,0,1.657,0a1.65719,1.65719,0,0,1-1.657,1.657h0Zm95.501-140.621a1.65717,1.65717,0,0,1,1.657-1.657h5.067c-1.657,0-1.657,1.657-3.411,1.657a2.24126,2.24126,0,0,1-3.312.002l-.002-.002Zm116.94,23.485c1.657,0,3.313-1.657,5.067-1.657h1.657C393.11874,164.08015,391.46276,165.73612,389.80575,164.08015Zm18.516,1.657c1.657-1.657,1.657-1.657,3.313-1.657h1.657v1.657C411.63473,164.08015,411.63473,165.73716,408.32174,165.73716Zm470.197,568.914a2.24128,2.24128,0,0,1-3.312.002l-1.658-1.658c-1.754,0-1.754,0-1.754-1.657s1.754,0,1.754,0h1.657c1.657,0,1.657-1.657,3.313,0s0,1.657,0,3.313Zm9.745-446.711c-.002-.029-.003-.063-.003-.098a1.65717,1.65717,0,0,1,1.657-1.657h.003c1.754,0,1.754,0,1.754,1.754a1.61242,1.61242,0,0,1-1.754,1.657,1.65718,1.65718,0,0,1-1.657-1.657h0Zm133.896,85.269v3.411c1.657,1.657,0,3.313,0,4.97s1.657,3.313,0,5.067c1.657,3.313-1.657,4.97-1.657,8.381,0,1.657-1.657,3.313-3.411,1.657-1.657,0-1.657,0-1.657,1.657v33.425a1.65717,1.65717,0,0,0,1.657,1.657h0c.029.002.063.003.098.003a1.65717,1.65717,0,0,0,1.657-1.657v-.003h0a5.82127,5.82127,0,0,1-.048-.763,6.02328,6.02328,0,0,1,1.707-4.208l-.002.002a1.65717,1.65717,0,0,1,1.657-1.657h0c1.657,0,0,1.657,0,1.657v2.046a4.67822,4.67822,0,0,1-2.825,8.407,4.51356,4.51356,0,0,1-.51-.028l.021.002c1.657,1.657,1.657,1.657,3.313,0-1.657,1.657-1.657,4.97-5.067,3.313-1.657,0-1.657,0-1.657,1.657,0,0,1.657,1.754,0,1.754a8.39515,8.39515,0,0,0-1.639,8.342l-.018-.058v13.448a9.35027,9.35027,0,0,0-.063,1.099,9.70155,9.70155,0,0,0,1.74,5.559l-.021-.032c0,1.754,1.657,3.411,0,5.067a1.65717,1.65717,0,0,0,1.657,1.657h0c1.754,0,1.754,1.657,0,1.657-3.313,3.411-1.657,8.381-1.657,13.448,0,1.657,0,1.657,1.657,1.657s3.411,1.657,1.754,4.97c-1.754,6.724-6.724,9.745-9.745,16.761l-1.754,1.657c0,1.657,0,1.657,1.754,1.657s1.657-1.657,3.313,0c0,1.754,0,3.411-1.657,3.411h-1.657c0,1.657,1.657,0,1.657,1.657,1.657,0,3.313,0,3.313,1.657s-1.657,3.313-3.313,1.657h0c0,3.411-3.411,5.067-5.067,6.724s-3.313,4.97-6.626,8.381c-1.754,1.657-1.754,1.657-3.411,0q-2.534-5.165-4.97,0l-5.067,4.97c-1.657,1.657-1.657,1.657-3.313,0h-1.657c-1.754,3.411-5.067,3.411-6.724,5.067-1.657,0-1.657,1.657-3.313,3.313v1.657h1.657c1.657-1.657,3.313-1.657,4.97-3.313h1.657v1.657c-1.657,1.657-3.313,5.067-6.626,6.724,0,0-1.657,1.657-1.657,0v-3.313s-1.754,0-1.754,1.657v2.534c0,1.657,0,1.657-1.657,3.313s-3.313,5.067-8.381,3.411v1.657c0,1.657,0,1.657-1.657,1.657a1.65717,1.65717,0,0,0-1.657,1.657h0a1.65717,1.65717,0,0,1-1.657,1.657h0c-1.657,0,0-1.657,0-1.657s0-1.657-1.657,0-3.411,0-3.411,1.657-1.657,1.754-1.657,3.411c-3.313,1.657-4.97,4.97-8.381,8.381-1.657,1.657-3.313,3.313-4.97,3.313s-1.657,0-1.657,1.657l-9.745,15.104a62.209,62.209,0,0,0-6.564,11.295l-.16.399h-1.657a1.65717,1.65717,0,0,0-1.657-1.657h0s-1.754,1.657,0,1.657c0,1.657,0,1.657-1.754,3.313-3.313,1.657-1.657,6.724-4.97,8.381-1.657,1.657-1.657,3.313-3.313,3.313l-1.754,1.754a3.60929,3.60929,0,0,1-3.301,3.312l-.013.001a1.65717,1.65717,0,0,1-1.657,1.657h0c0,1.657,0,1.657-1.657,3.313,0,0,0,1.754-1.657,1.754a1.75493,1.75493,0,0,1-1.754-1.754h0c0-1.657,0-1.657,1.754-1.657,1.657-1.657,1.657-1.657,1.657-3.313-1.657-3.313-1.657-6.724-3.411-8.381v-1.657a8.47442,8.47442,0,0,0,3.411-6.72v-.004c0-3.313,1.657-6.626,1.657-11.694v-1.657a23.631,23.631,0,0,0,3.303-9.634l.01-.111c0-1.657,1.657-1.657,1.657-3.411s1.754-1.657,0-3.313c-1.657,0-1.657-1.657-1.657-3.313v-18.321c-.074-.825-.117-1.784-.117-2.753a32.52241,32.52241,0,0,1,1.843-10.825l-.07.228c1.754-8.381,1.754-15.104,3.411-23.486v-35.082c.042-1.069.066-2.326.066-3.587a97.97531,97.97531,0,0,0-1.823-18.859l.101.616c0-3.313-1.754-4.97-1.754-8.381,0-4.97-1.657-8.283-1.657-11.694v-1.657a5.165,5.165,0,0,0-.006-6.731l.006.007v-1.657c1.657-1.657,0-4.97,1.657-8.381h0c-3.313-1.657,0-4.97,0-6.626v-9.745c-1.657,0-1.657-1.754-1.657-3.411s0-1.657,1.657-1.657a3.02107,3.02107,0,0,0,.01-4.963l-.01-.007c-1.657-1.754-3.313-3.411,0-5.067V396.697a5.92,5.92,0,0,0,.049-.782,6.21521,6.21521,0,0,0-1.708-4.288l.003.003V380.131c1.657-1.657,0-3.313,0-5.067v-6.626a67.34172,67.34172,0,0,0,1.611-7.984l.047-.396a6.303,6.303,0,0,0,.04-.715,6.40816,6.40816,0,0,0-1.701-4.357l.004.004v-9.745a5.06593,5.06593,0,0,1,.005-6.633l-.005.007v-1.657a3.21585,3.21585,0,0,1-.006-5.062l.007-.005a24.5174,24.5174,0,0,0,1.777-9.247,25.01711,25.01711,0,0,0-.129-2.552l.008.105c-1.657-9.745,0-18.418-1.657-28.456v-38.98c0-3.313-1.657-6.724-1.657-9.745v-1.657c-3.313,0-1.657-1.657-1.657-3.411a35.85936,35.85936,0,0,0,1.229-9.423,37.25243,37.25243,0,0,0-.272-4.494l.018.177c0-3.313-1.657-6.724-1.657-9.745v-6.724c0-1.657-1.657-3.313,0-4.97v-1.657c0-1.754-1.657-3.411,0-5.067s-3.313-3.313-1.657-4.97,0-3.411,1.657-5.067c0-1.657,0-1.657-3.313-1.657a8.58641,8.58641,0,0,0,2.029-8.927l.018.06v-38.98c0-1.657,0-3.313-3.411-3.313s-4.97-1.657-8.381-1.657c-6.626,0-11.694-3.411-16.664-3.411s-8.381-3.313-11.694-3.313c-1.754,0-3.411-1.657-1.754,1.657,0,1.657,0,1.657-1.657,0a85.71067,85.71067,0,0,1-20.681-3.468l.606.155c-3.313-1.657-8.381,0-11.694,0h-158.941c-23.486-1.657-46.873,0-70.359,0h-40.149c-.401.027-.87.042-1.343.042a21.55816,21.55816,0,0,1-8.543-1.753l.141.054a5.83229,5.83229,0,0,0-4.222-1.802,6.02534,6.02534,0,0,0-.777.051l.03-.003h-48.725a5.8181,5.8181,0,0,0-.762-.048,6.024,6.024,0,0,0-4.304,1.802l-.001.001c3.411,6.626,1.657,6.626-1.657,6.626h-162.45c-4.97,0-9.745,1.657-15.008,1.657H184.282c-.571-.043-1.238-.068-1.91-.068a27.11287,27.11287,0,0,0-9.968,1.885l.184-.064a80.48338,80.48338,0,0,1-16.784,1.722q-1.737,0-3.456-.071l.164.005H138.869c1.657,3.313-1.657,3.313-3.313,4.97-1.657,0-3.313,1.657-1.657,3.411v43.462c0,1.657,1.657,3.313,1.657,5.067-1.657,0-1.657,0-1.657,1.657s-1.657,3.313,1.657,4.97v1.657c-1.657,0-1.657,0-1.657,1.754v20.075c1.657,4.97-1.657,8.381,0,13.35,0,3.313,1.657,6.724,1.657,9.745v1.657c-3.313,0-1.657,1.657-1.657,3.411,0,4.97-1.657,9.745-1.657,15.008v26.799c.046,1.075.072,2.336.072,3.603a91.33955,91.33955,0,0,1-1.929,18.72l.103-.591v3.313c0,3.411-1.657,6.724,0,9.745-.026.39-.041.843-.041,1.301a20.68049,20.68049,0,0,0,1.848,8.574l-.053-.13c1.657,1.657,0,3.313,0,4.97,0,0-1.754,1.657,0,1.657a5.165,5.165,0,0,1-.006,6.731l.006-.007c0,1.657-1.754,3.313,0,4.97s0,3.411,0,5.067a41.97424,41.97424,0,0,0-.657,7.504,43.48509,43.48509,0,0,0,.696,7.767l-.04-.264v18.418a51.876,51.876,0,0,0-.661,8.381,53.74759,53.74759,0,0,0,.703,8.689l-.042-.309V419.99c0,1.657,1.657,3.411,0,5.067s0,4.97,0,6.626-1.754,5.067,1.657,6.724v1.657c-3.411,0-1.657,1.754-1.657,1.754v3.313c0,1.657,0,3.313,3.313,1.657h3.313v1.657c-1.657,1.657-1.657,3.411-3.313,1.657-1.657,0-1.657,1.754-1.657,3.411s0,3.313,1.657,3.313,1.657,0,1.657-1.657,1.657-1.657,3.313,0v1.657c-1.657,0-1.657,3.313-4.97,3.313-8.381,0-8.381,1.754-8.381,1.754,0,1.657-1.657,4.97-1.657,6.626v5.067a35.20484,35.20484,0,0,0-.621,6.676,36.31525,36.31525,0,0,0,.658,6.902l-.037-.228v26.799c0,1.657,1.657,3.313,1.657,4.97,0,3.411,1.657,6.724,0,9.745v13.448c-1.657,4.97,0,9.745-1.657,15.008a6.14413,6.14413,0,0,0,1.659,5.069l-.002-.002v9.745c0,6.724,1.657,13.35,1.657,21.732v5.067c0,1.657,0,1.657-1.657,1.657s-1.657,1.657,0,3.313,1.657,5.067,3.313,6.724a132.034,132.034,0,0,0,5.414,14.213l-.346-.862c1.657,1.657,0,5.067,0,6.724-1.657,6.724-1.657,11.694-3.313,18.418,0,1.657,0,1.657,1.657,1.657s3.313,0,1.657,3.313v9.063h-1.657c-1.657,0-1.657-1.657-1.657-3.313-1.754-3.411-1.754-5.067-3.411-8.381,0-1.657-3.313-1.657-4.97-3.411a28.178,28.178,0,0,1-6.847-8.141l-.073-.143-1.657-1.754a1.65718,1.65718,0,0,1-1.657-1.657h0c0-1.657-1.657-4.97-1.657-6.626v-1.754c1.657-1.657,0-3.313-1.754-4.97s-3.313-3.313-4.97-3.313-1.657-1.754-1.657-1.754c-1.754-1.657-3.411-1.657-6.724-1.657H95.403a6.01968,6.01968,0,0,1-1.705-4.207,6.12128,6.12128,0,0,1,.052-.794l-.003.031c-1.754-3.411-5.067-5.067-6.724-8.381,0-1.657-1.657-1.657-3.313-1.657a1.75492,1.75492,0,0,1-1.754-1.754h0a1.65716,1.65716,0,0,0-1.657-1.657h0c-1.657,0-3.313-1.657-3.313-4.97,0-1.657,0-5.067-3.313-5.067,0,0-1.754,0-1.754-1.657,0-3.313-3.313-4.97-6.626-6.724-1.657,0,0-1.657,0-1.657v-1.657H63.636s-1.754,1.657-1.754,0V565.285s-1.657-1.657-1.657,0c-1.657,0,0,1.657,0,1.657v1.657c-1.657,0-1.657,0-1.657-1.657-1.657-1.657-1.657-4.97-5.067-6.626,0,0-1.657-1.754,0-1.754,0,0,1.754-1.657,1.754,0,1.657,1.754,3.313,1.754,4.97,3.411h1.657v-1.657c.002-.029.003-.063.003-.098a1.65718,1.65718,0,0,0-1.657-1.657h-.003a8.66161,8.66161,0,0,0-6.58-3.022c-.051,0-.102.001-.152.002h.008c-1.657-3.313-3.313-1.657-4.97,0,0,0-1.657,1.657-1.657,0-1.657-1.657-1.657-1.657-3.411,0s-3.313,1.657-3.313,0a1.65657,1.65657,0,0,0-1.158-1.556l-.012-.003-2.144,1.559c0,1.657-1.657,3.313-1.657,5.067a1.75492,1.75492,0,0,1-1.754-1.754h0c0-1.657,0-1.657-3.313-3.313-1.657,0-1.657-1.657,0-3.313h0a1.65718,1.65718,0,0,0,1.657,1.657h0v-3.411a7.71464,7.71464,0,0,0-7.124-4.781,7.87246,7.87246,0,0,0-1.302.109l.046-.007c1.754,0,1.754-1.657,3.411-1.657v-1.657c0-1.754-1.657,0-1.657,0H23.389v-1.754c0-1.657,0-1.657-1.657-3.313s-4.97-1.657-6.626-4.97c0-1.754,0-3.411,1.657-3.411h3.313a1.657,1.657,0,1,0,0-3.314h0c-1.657,0-1.657,0-1.657-1.657,0,0-1.657-1.657,0-1.657h1.657c1.657,0,3.313,0,3.313-1.754s-1.657-3.313,1.754-3.313h0c-1.754-1.657,0-3.313,1.657-4.97s1.657-1.754,3.313,0c0,0,1.657,1.657,1.657,0s0-1.754-1.657-1.754a1.65717,1.65717,0,0,1-1.657-1.657h0c0-1.657-1.657-1.657-1.657,0-1.657,1.657-1.657,0-3.411,0,0,0,1.754,0,1.754-1.657,1.657,0,1.657-1.657,0-1.657-1.754-1.657-1.754-3.313,0-3.313,0,0,1.657-1.754,0-1.754H23.388c-1.657,1.754-3.313,3.411-4.97,3.411v-1.657s1.657-1.754,0-1.754h-.003a1.65717,1.65717,0,0,0-1.657,1.657q0,.051.003.102v-.005a1.65718,1.65718,0,0,1-1.657,1.657h0c-1.754,0,0-1.657-1.754-1.657,0-1.754-1.657-1.754-1.657-3.411s0-1.657,1.657-1.657,1.754-1.657,0-1.657c-3.313-1.657-1.657-3.411-3.313-5.067l1.657-1.657s1.657-1.657,0-1.657a1.56853,1.56853,0,0,0,.015-.224,1.65607,1.65607,0,0,0-1.975-1.626l.011-.002c-3.313,1.657-3.313,0-4.97-1.657v-1.754H8.381c1.657,0,4.97,3.411,6.724-1.657a5.16558,5.16558,0,0,0,3.31-1.652l.003-.004c-1.657,0-3.313,0-3.313,1.657a6.011,6.011,0,0,1-1.067.093,6.118,6.118,0,0,1-4.293-1.751l.001.001c-1.657-1.657-1.657-1.657-3.313-1.657,1.657-3.313,0-6.724,1.657-9.745v-18.906c0-1.657-1.657-3.313,0-4.97,0,0-1.657-1.754-1.657,0-3.411,0-3.411-1.754-3.411-3.411H6.725c-5.067-1.365-5.067-4.775-3.411-8.186v-2.924a5.83225,5.83225,0,0,1,1.802,4.222,6.02355,6.02355,0,0,1-.051.777l.003-.03v1.754l1.657,1.657v-37.616c0-1.657,0-1.657-1.657-1.657s-1.754,0-1.754-1.657,0-3.411,1.754-3.411a1.65718,1.65718,0,0,0,1.657-1.657h0c0-1.657,0-1.657-1.657-1.657s-1.754,0-1.754-1.657v-11.694c0-3.411,1.754-5.067,0-8.381v-1.657c3.411,0,1.754-1.754,1.754-1.754,0-3.313-1.754-6.626,0-9.745v-1.657c0-1.657-1.754-1.657,0-3.313,1.657,0,0-1.657,0-1.657-1.754-1.657-3.411-3.411,0-3.411,1.657,0,0-1.657,0-1.657a5.64064,5.64064,0,0,1-1.75-3.281l-.004-.032v-1.657c1.754,0,1.754-1.657,3.411-3.411v-1.657c-1.657,0-1.657-1.657,0-3.313s0-3.411,1.657-3.411a1.65718,1.65718,0,0,0-1.657-1.657h0c-1.657,0-1.657-1.657,0-1.657,0,0,1.657-1.657,0-1.657-3.411-3.313,0-6.724-3.411-9.745v-3.508s1.754-1.754,0-1.754c-1.657-1.657,0-1.657,0-1.657,1.754,0,1.754-1.657,0-3.313v-1.657c1.754-1.657,0-3.411,0-6.724a1.65718,1.65718,0,0,0-1.657,1.657H0a3.60929,3.60929,0,0,1,3.301-3.312l.013-.001c1.754,0,1.754,0,1.754-1.657v-5.067H3.314c-1.657,0,0,1.657,0,1.657-3.313,0-3.313-3.508-3.313-4.97v-9.745c0-1.657,0-3.411,3.313-1.657,1.754,1.657,3.411-1.754,1.754-1.754v-32.062H1.657v-2.046a1.65718,1.65718,0,0,0,1.657-1.657h0c1.754-1.657,1.754-1.657,0-3.313,0,0-1.657,0,0-1.754,0-1.657,0-3.313,1.754-3.313s1.657-1.657,1.657-3.313,0-3.411-3.411-5.067v-1.072c3.411-1.657,1.754-3.313,1.754-5.067a34.09946,34.09946,0,0,1-1.826-11.121q0-1.176.077-2.334l-.006.105V179.081c-.044-.9-.069-1.955-.069-3.016A66.12028,66.12028,0,0,1,5.162,160.21l-.094.453V128.894c0-1.657,0-3.313,1.657-3.313s1.657,0,0-1.657v-1.657s-1.657-1.754,0-1.754,1.657,0,1.657,1.754a1.65717,1.65717,0,0,0,1.657,1.657H9.747v-1.657a24.93862,24.93862,0,0,1-3.172-12.25,25.46737,25.46737,0,0,1,.162-2.873l-.011.115v-1.657c-1.657-3.411,0-6.724,0-9.745V77.049c0-1.657,1.657-1.657,0-3.313V71.982c3.021-1.657,1.657-1.657,0-3.703s0-3.313,0-4.97,3.313,0,1.657-1.754c0-1.267-1.657-1.267-1.657-3.021a1.65718,1.65718,0,0,1,1.657-1.657h0A1.65717,1.65717,0,0,1,6.726,55.22h0c0-1.754,0-1.754,1.657-1.754s1.365.098,1.365-1.559,0,0-1.657,0A1.65717,1.65717,0,0,1,6.434,50.25h0V20.138c0-3.313,0-3.313,3.313-3.313,1.657,0,1.657-1.657,1.657-3.411,0,1.754,1.657,1.754,3.411,0,5.263-1.657,8.576-3.606,13.643-4.97h4.97c.572.04,1.24.063,1.913.063a29.17828,29.17828,0,0,0,10.08-1.784l-.203.065c3.313-1.657,6.626,0,9.745,0a34.87135,34.87135,0,0,0,6.626.617,35.97725,35.97725,0,0,0,6.852-.654l-.225.037h1.657c3.411,3.313,6.724,1.657,9.745,0A41.10393,41.10393,0,0,0,92.077,0l-.083.063H558.877c1.754,0,3.411,1.657,5.067,1.657,4.756.395,10.294.621,15.884.621s11.128-.225,16.605-.668l-.721.047a35.71666,35.71666,0,0,1,6.724-.621,36.97,36.97,0,0,1,6.954.657l-.23-.037c3.313,0,4.97,1.657,8.283,0h46.873a79.00131,79.00131,0,0,1,10.037-.621,82.158,82.158,0,0,1,10.442.664l-.405-.043h60.224c8.381,0,15.495-1.657,23.486-1.657H928.698a31.5736,31.5736,0,0,1,11.969,3.397l-.178-.083h3.313A88.50433,88.50433,0,0,0,961.93,5.202q1.90054,0,3.784-.078l-.18.006h16.761a17.85462,17.85462,0,0,0,7.606,1.673q.408,0,.812-.018l-.038.002h9.745c1.657,0,3.313,3.313,3.313,6.626V45.279c0,1.657,0,3.313-1.657,1.657h-1.657a1.65718,1.65718,0,0,0,1.657,1.657h0c1.657,0,3.313-1.657,3.313,1.657a6.30057,6.30057,0,0,1,.04.715,6.40816,6.40816,0,0,1-1.701,4.357l.004-.004c-1.657,1.657-1.657,1.657,0,1.657s1.657,4.97,0,4.97c-1.657,1.754-3.313,3.411,0,3.411,0,0,1.657,1.657,0,1.657s-1.657,1.657,0,1.657,1.657,1.657,1.657,3.313v6.724a18.18676,18.18676,0,0,0-1.245,6.676,18.46331,18.46331,0,0,0,1.289,6.801l-.043-.125v1.754c-1.657,3.313,0,8.283-1.657,11.694,0,1.657-1.657,3.313-1.657,4.97,0,0,0,1.754-1.657,1.754l-1.657,1.657v1.657h1.657v-1.657a1.65718,1.65718,0,0,1,1.657-1.657h0c1.657,0,0,1.657,0,1.657-1.657,1.657-1.657,3.313,1.657,3.313a1.65718,1.65718,0,0,1,1.657,1.657h0v33.523c1.657,4.97,0,8.283,1.657,13.35a74.53109,74.53109,0,0,1,.658,10.037,77.57788,77.57788,0,0,1-.702,10.435l.044-.397c.041.573.064,1.241.064,1.914a28.60143,28.60143,0,0,1-1.785,9.978l.064-.199c-1.657,1.657-3.313,3.411,1.657,5.067,1.754,0,0,1.657,0,1.657,6.724,15.008,6.724,16.761,6.724,21.732,1.657,0,0-1.657,1.657-1.657s1.657,1.657,1.657,3.313c0,0,0,1.754-1.657,0s-1.657,0-1.657,1.754c0,3.313-1.657,8.283,0,11.694v1.657a10.732,10.732,0,0,0,.028,9.804l-.028-.059v1.657a35.20288,35.20288,0,0,0-.621,6.676,36.31514,36.31514,0,0,0,.658,6.902l-.037-.228c0,1.754,1.657,1.754,3.313,1.754,1.754-1.754,1.754,0,3.411,1.657v13.35c0,1.657-1.657,1.657-3.411,1.657v-1.657c0-1.657,0-1.657-1.657-1.657a1.65718,1.65718,0,0,0-1.657,1.657h0v5.067c0,1.657,0,1.657,1.657,0,1.657,0,5.067,1.657,5.067,3.313s0,1.657-1.657,0l-1.754-1.657c-1.657,1.657-1.657,3.313,0,6.724v1.657s-1.657,1.657,0,1.657c1.754,1.657,1.754,0,3.411,0h1.657c0,3.313,1.657,6.724-1.657,9.745a2.33944,2.33944,0,0,0,0,3.314h0c0,1.657,0,1.657-1.657,1.657a1.75493,1.75493,0,0,0-1.754,1.754h0v1.657c1.754,0,1.754,0,1.754-1.657,0,0,0-1.754,1.657-1.754s0,1.754,0,1.754v1.657c0,1.657,1.657,4.97-3.411,1.657a1.65718,1.65718,0,0,0-1.657,1.657h0c0,1.657,1.657,5.067,3.411,5.067-1.754,1.657-1.754,3.313-3.411,3.313-1.657,1.657,0,1.657,0,3.313s0,1.754,1.657,1.754h1.754c0,1.657,0,1.657-1.754,1.657h-1.657l-1.657,1.657c0,1.657,1.657,0,1.657,0,1.657,0,3.411,3.313,3.411,4.97V357.61a30.1936,30.1936,0,0,1,3.334,13.889q0,.58952-.023,1.174l.002-.056Zm-1002.079,133.603c0,1.657,3.313,1.657,1.657,5.067a2.33941,2.33941,0,0,1-3.314,0h0C16.76674,508.46818,18.42374,506.81217,20.08074,506.81217Zm997.304-272.86h0c-3.313,0-3.313,0-3.313-1.657h0C1015.72872,232.29514,1017.38473,232.29514,1017.38473,233.95216Z"/>
    </g>
  </g>
</svg>
