<?xml version="1.0" encoding="UTF-8" standalone="no"?>
<svg
   xmlns:dc="http://purl.org/dc/elements/1.1/"
   xmlns:cc="http://creativecommons.org/ns#"
   xmlns:rdf="http://www.w3.org/1999/02/22-rdf-syntax-ns#"
   xmlns:svg="http://www.w3.org/2000/svg"
   xmlns="http://www.w3.org/2000/svg"
   xmlns:sodipodi="http://sodipodi.sourceforge.net/DTD/sodipodi-0.dtd"
   xmlns:inkscape="http://www.inkscape.org/namespaces/inkscape"
   width="32"
   height="32"
   viewBox="0 0 8.466666 8.466666"
   version="1.1"
   id="svg8"
   inkscape:version="1.0.2-2 (e86c870879, 2021-01-15)"
   sodipodi:docname="fallen_house_of_light.svg">
  <defs
     id="defs2" />
  <sodipodi:namedview
     id="base"
     pagecolor="#ffffff"
     bordercolor="#666666"
     borderopacity="1.0"
     inkscape:pageopacity="0.0"
     inkscape:pageshadow="2"
     inkscape:zoom="11.2"
     inkscape:cx="15.532635"
     inkscape:cy="28.706703"
     inkscape:document-units="px"
     inkscape:current-layer="layer1"
     inkscape:document-rotation="0"
     showgrid="false"
     units="px"
     inkscape:window-width="1920"
     inkscape:window-height="1121"
     inkscape:window-x="-9"
     inkscape:window-y="-9"
     inkscape:window-maximized="1" />
  <metadata
     id="metadata5">
    <rdf:RDF>
      <cc:Work
         rdf:about="">
        <dc:format>image/svg+xml</dc:format>
        <dc:type
           rdf:resource="http://purl.org/dc/dcmitype/StillImage" />
        <dc:title></dc:title>
      </cc:Work>
    </rdf:RDF>
  </metadata>
  <g
     inkscape:label="Layer 1"
     inkscape:groupmode="layer"
     id="layer1">
    <path
       style="fill:#000000;stroke-width:0.999998"
       d="M 2.913443,8.2819396 2.900084,8.2675176 2.903874,6.7406567 c 0.00306,-1.2400332 0.00248,-1.5284121 -0.0031,-1.5351437 -0.004,-0.00483 -0.015398,-0.00828 -0.027323,-0.00828 -0.022796,0 -0.00805,-0.016731 -0.4344771,0.4930548 -0.090164,0.1077931 -0.1683122,0.1974782 -0.1736626,0.1993038 -0.00536,0.00174 -0.020086,0.01172 -0.032721,0.022003 -0.027057,0.022003 -0.058851,0.031762 -0.091311,0.028102 -0.045953,-0.00519 -0.04235,0.029323 -0.044358,-0.4266667 l -0.00174,-0.4041192 0.022787,-0.056201 c 0.034505,-0.08505 0.050025,-0.1109387 0.1019691,-0.1700898 0.019956,-0.022743 0.070759,-0.082282 0.112869,-0.1323275 0.078401,-0.093171 0.088849,-0.1051177 0.1137751,-0.1301096 0.00789,-0.00793 0.020478,-0.023398 0.027886,-0.034421 0.00745,-0.011023 0.097441,-0.1194524 0.2000008,-0.2409875 0.1025603,-0.1215306 0.1882926,-0.2239166 0.1905192,-0.2275199 0.00223,-0.00349 0.00988,-0.026447 0.017015,-0.050729 0.012126,-0.041304 0.012976,-0.052581 0.01308,-0.1734055 1.185e-4,-0.1460125 8.674e-4,-0.1436598 -0.039616,-0.1257524 -0.018958,0.00837 -0.070043,0.065203 -0.3128473,0.347944 -0.1596068,0.1858536 -0.2934068,0.3379184 -0.2973326,0.3379184 -0.00393,0 -0.010283,0.00393 -0.014117,0.00841 -0.019781,0.023876 -0.074048,0.038952 -0.1042201,0.028975 -0.035815,-0.011807 -0.034639,0.00349 -0.034639,-0.4434239 0,-0.3452992 0.00131,-0.4031301 0.00797,-0.4163319 0.00439,-0.00845 0.00801,-0.018954 0.00806,-0.023354 2.18e-5,-0.00439 0.00766,-0.022483 0.01695,-0.040129 C 2.1417165,3.5362241 2.1792525,3.4903931 2.518116,3.0880205 2.606267,2.9833428 2.7163958,2.8520698 2.7628417,2.7963042 l 0.084443,-0.1013925 0.034487,-0.085637 0.034487,-0.085642 4.3e-6,-0.2703059 4.9e-6,-0.2703016 -0.034172,0.03747 C 2.5968736,2.3332204 2.4828283,2.455287 2.4702365,2.4613215 c -0.039954,0.019171 -0.080326,0.00924 -0.103497,-0.025445 l -0.012156,-0.018168 0.00306,-0.418066 0.00306,-0.4180659 0.013115,-0.03551 c 0.00723,-0.019519 0.018212,-0.039998 0.024487,-0.045496 0.00623,-0.00549 0.1241667,-0.1455118 0.262045,-0.3111531 L 2.9110108,0.88825604 V 0.72452309 c 0,-0.17474752 0.00306,-0.20165221 0.028508,-0.25172757 0.013171,-0.0259246 0.2925957,-0.30161559 0.3056803,-0.30161559 0.013036,0 0.034312,0.01159 0.038185,0.0207828 0.00201,0.004752 0.00313,0.438104 0.00253,0.96300436 -8.289e-4,0.7371707 3.702e-4,0.9561247 0.00534,0.9621199 0.015638,0.018822 0.029937,0.00932 0.086979,-0.057809 C 3.567843,1.836089 3.7482201,1.6153268 3.7595554,1.5925787 l 0.013206,-0.026491 V 1.236352 c 0,-0.24932679 0.00157,-0.3313044 0.00643,-0.33615816 0.00352,-0.003488 0.017847,-0.006451 0.031811,-0.006451 0.023297,0 0.028386,0.002618 0.061822,0.0315883 0.05068,0.0439367 0.2318206,0.23352386 0.2426801,0.25399756 0.00828,0.015599 0.00916,0.1728957 0.012144,2.1592276 0.00349,2.3276487 0.00507,2.1902018 -0.026129,2.2678442 -0.013281,0.033029 -0.03688,0.063041 -0.2105097,0.2676337 C 3.7834522,6.000763 3.6113467,6.2044107 3.5085491,6.3265819 3.4057515,6.4487532 3.314755,6.5560537 3.3063358,6.5650249 l -0.015306,0.016295 -4.791e-4,0.4413324 C 3.290278,7.2653827 3.2881907,7.5567157 3.2859407,7.6700552 3.2804107,7.9464784 3.2942207,7.9075134 3.13011,8.1097495 3.0278761,8.235733 2.9975186,8.2697528 2.9768872,8.2814557 c -0.032521,0.01843 -0.0469,0.018561 -0.063688,4.313e-4 z M 3.5056378,6.0696957 C 3.7123241,5.8206738 3.7094764,5.8249481 3.7509418,5.701618 L 3.7730188,5.635962 V 4.9034009 4.1708443 l -0.014718,-0.00566 c -0.034691,-0.013289 -0.03514,-0.013159 -0.059753,0.018342 -0.012884,0.016513 -0.1077429,0.1313079 -0.2107923,0.2551348 -0.1433032,0.1721943 -0.1887488,0.2302691 -0.1932522,0.246961 -0.00418,0.015511 -0.00548,0.2548995 -0.0045,0.8298839 l 0.00139,0.808064 0.012719,-0.013202 c 0.007,-0.00728 0.097684,-0.1155716 0.2015287,-0.2406882 z M 2.7755795,5.0205963 C 2.9372372,4.8336622 3.153668,4.5831633 3.2565354,4.4639332 3.3594031,4.3447073 3.5145406,4.1654284 3.6012852,4.0655348 l 0.1577171,-0.1816185 0.00681,-0.035161 c 0.00484,-0.025009 0.00687,-0.1018804 0.00701,-0.2659882 l 2.021e-4,-0.230831 -0.016618,-0.00806 c -0.00914,-0.00444 -0.020945,-0.00693 -0.026225,-0.00553 -0.00527,0.00131 -0.073263,0.078766 -0.1510701,0.171972 C 3.5013081,3.6035154 3.2812763,3.8652813 3.0901559,4.0920169 2.8990355,4.3187482 2.688471,4.5691512 2.6222312,4.6484622 2.5559958,4.7277735 2.4961778,4.7984923 2.4893068,4.8056204 c -0.00876,0.00907 -0.016775,0.030848 -0.026752,0.072474 l -0.014291,0.059526 0.00174,0.2110764 c 8.7e-4,0.1321618 0.00393,0.2149498 0.00723,0.2214418 0.0054,0.010109 0.00575,0.010152 0.015032,3.485e-4 0.00523,-0.00549 0.1417343,-0.162966 0.3033931,-0.3499046 z M 2.4967513,3.9465529 C 2.5018068,3.9448098 2.7351855,3.6754411 3.0153358,3.3484065 3.2954881,3.021372 3.5720259,2.6991085 3.6298655,2.6322629 3.6877049,2.5654218 3.7384924,2.5040005 3.7427257,2.4957744 c 0.00422,-0.00823 0.012779,-0.032068 0.018992,-0.053003 0.010749,-0.036207 0.011298,-0.049509 0.011298,-0.2737002 v -0.235659 l -0.012823,-0.00841 c -0.026543,-0.017384 -0.039227,-0.016818 -0.055303,0.00262 -0.0392,0.047021 -0.9028551,1.0703529 -1.0532808,1.2480109 l -0.1712313,0.2022317 -0.022483,0.068074 -0.022483,0.06807 0.00262,0.1900145 c 0.00131,0.1045121 0.00393,0.1952516 0.00505,0.2016478 0.00306,0.014771 0.027798,0.044573 0.037166,0.044573 0.00393,0 0.011241,-0.00174 0.016339,-0.00349 z M 3.5149436,3.3492649 C 3.6177172,3.22783 3.7130081,3.115375 3.7267001,3.0993629 c 0.042978,-0.050258 0.046317,-0.065887 0.046317,-0.2167319 0,-0.1439607 0.00183,-0.1368631 -0.03507,-0.1368631 -0.017289,0 -0.028451,0.011981 -0.2390886,0.2566989 C 3.236576,3.3071803 3.2535083,3.278768 3.2496719,3.4206374 c -0.00209,0.076654 -0.00114,0.091263 0.00685,0.1070479 0.015872,0.03137 0.029223,0.042394 0.051416,0.042394 0.019938,0 0.021998,-0.00218 0.2070018,-0.2207926 z M 2.771436,1.8790844 C 2.790933,1.8646194 2.813167,1.8459274 2.820852,1.8376064 2.844101,1.8123794 2.879372,1.7565654 2.899307,1.7134136 L 2.918142,1.6726316 2.914262,1.4559694 C 2.912132,1.3368046 2.908082,1.2350243 2.905282,1.2297915 2.892969,1.2067865 2.845226,1.2284915 2.808742,1.2739855 2.787719,1.3000835 2.736099,1.4294314 2.726286,1.4805568 2.715655,1.5359698 2.697181,1.734354 2.697181,1.7931434 c 0,0.060633 0.01538,0.1122633 0.033462,0.1122633 0.00306,0 0.02135,-0.011851 0.040826,-0.026316 z M 5.4895406,8.2815083 C 5.4689101,8.2697877 5.4385521,8.2357856 5.3363195,8.1098019 5.1722083,7.9075659 5.1860171,7.9465308 5.1804894,7.6701076 5.1782236,7.5567682 5.1761323,7.2654352 5.1758752,7.0227049 L 5.175396,6.5813725 5.1600854,6.5650772 C 5.1516677,6.5561016 5.0606701,6.4488054 4.9578724,6.3266342 4.8550747,6.2044629 4.6829695,6.0008153 4.5754165,5.8740867 4.4017857,5.6694936 4.3781898,5.6394953 4.364913,5.606456 4.3337078,5.5288136 4.3352936,5.6662604 4.3387842,3.3386119 4.3417442,1.35228 4.3426642,1.1949956 4.3509282,1.1793843 4.3617862,1.1589059 4.5429274,0.96932305 4.593608,0.92538667 4.627044,0.89641237 4.632133,0.89379837 4.65543,0.89379837 c 0.013964,0 0.028277,0.003053 0.031811,0.006451 0.00486,0.004834 0.00643,0.0868313 0.00643,0.33615813 v 0.3297356 l 0.013206,0.026491 c 0.011337,0.022743 0.1917125,0.2435103 0.3813209,0.4666992 0.057043,0.067142 0.071343,0.076649 0.086979,0.057809 0.00498,-0.00602 0.00619,-0.2249492 0.00534,-0.9621198 -6.099e-4,-0.52490045 5.229e-4,-0.9582509 0.00253,-0.96300445 0.00388,-0.009194 0.025149,-0.0207828 0.038185,-0.0207828 0.013084,0 0.2925089,0.27570864 0.3056807,0.3016155 0.025458,0.0500757 0.028508,0.0769801 0.028508,0.25172759 V 0.88831101 L 5.8061041,1.1894734 c 0.1378757,0.1656413 0.2557954,0.3056589 0.2620441,0.3111531 0.00625,0.00549 0.017263,0.025968 0.024478,0.045496 l 0.013115,0.03551 0.00318,0.418066 0.00313,0.4180659 -0.012134,0.018169 c -0.023167,0.034682 -0.063522,0.044599 -0.103497,0.025446 C 5.983838,2.4553604 5.869788,2.3332775 5.5845588,2.0205472 l -0.034172,-0.03747 4.8e-6,0.2703016 4.3e-6,0.270306 0.034487,0.085642 0.034482,0.085637 0.084447,0.1013925 c 0.046446,0.055765 0.1565726,0.1870386 0.2447263,0.2917164 0.3388621,0.4023719 0.3764062,0.4481905 0.3928253,0.4793563 0.0093,0.017646 0.01694,0.035728 0.016962,0.040128 0,0.00439 0.00366,0.014944 0.00803,0.023354 0.00689,0.013202 0.008,0.071033 0.008,0.4163319 0,0.4469181 0.00117,0.4316032 -0.03462,0.4434238 -0.030169,0.00998 -0.084419,-0.00514 -0.1042189,-0.028975 -0.00383,-0.00461 -0.010204,-0.00841 -0.014134,-0.00841 -0.00393,0 -0.1377292,-0.1520647 -0.297333,-0.3379183 C 5.6812396,3.832624 5.6301564,3.7758082 5.6111991,3.767421 5.5707131,3.749514 5.5714541,3.747161 5.5715841,3.893178 c 1.012e-4,0.1208249 9.648e-4,0.1320966 0.01308,0.1734056 0.00714,0.024312 0.014788,0.047126 0.017014,0.050729 0.00223,0.00349 0.08796,0.1059891 0.1905196,0.2275199 0.1025597,0.1215351 0.1925598,0.2299773 0.2000012,0.2409875 0.00744,0.011023 0.019994,0.026491 0.027898,0.034421 0.024926,0.025009 0.035375,0.036947 0.1137739,0.1301098 0.042111,0.050044 0.092903,0.1095924 0.1128675,0.1323274 0.051947,0.059151 0.067468,0.085041 0.1019716,0.1700899 l 0.022801,0.056201 -0.00179,0.4041191 c -0.00201,0.4560069 0.0016,0.4214862 -0.044358,0.4266667 -0.032464,0.00349 -0.064238,-0.00614 -0.091312,-0.028102 -0.012636,-0.010283 -0.02735,-0.020173 -0.032699,-0.022003 -0.00535,-0.00175 -0.0835,-0.091514 -0.1736666,-0.1993068 -0.4264252,-0.5097915 -0.4116778,-0.493056 -0.4344751,-0.493056 -0.01193,0 -0.023315,0.00349 -0.027323,0.00828 -0.00559,0.00675 -0.00616,0.2951105 -0.0031,1.5351437 l 0.00379,1.526861 -0.013359,0.014422 c -0.016788,0.018126 -0.031171,0.017995 -0.063688,-4.313e-4 z M 5.1721713,4.6856494 C 5.1676657,4.668962 5.1222229,4.6108827 4.9789195,4.4386884 4.8758696,4.3148616 4.7810131,4.2000495 4.7681267,4.1835537 4.7435137,4.1520524 4.7430647,4.1518784 4.7083741,4.1652108 l -0.014718,0.00566 V 4.903427 5.635988 l 0.022077,0.065656 c 0.04168,0.1239664 0.037449,0.1176835 0.2567412,0.3813712 l 0.2002361,0.2407738 0.00266,-0.8081466 c 0.00192,-0.5787447 10e-4,-0.8143381 -0.00323,-0.8299668 z m 0.8456098,0.4889549 c 0.00388,-0.1960534 0.00201,-0.228108 -0.018042,-0.3127957 -0.00657,-0.027755 -0.014823,-0.048346 -0.022604,-0.056419 C 5.9704001,4.7983779 5.9106893,4.7277865 5.8444517,4.6484752 5.7782137,4.5691642 5.5676478,4.3187612 5.3765271,4.0920299 5.1854067,3.8652943 4.9653752,3.6035282 4.8875691,3.5103269 4.809763,3.4171213 4.7417815,3.339736 4.736499,3.3383548 c -0.00527,-0.00131 -0.017084,0.00131 -0.026225,0.00553 l -0.016622,0.00806 2.021e-4,0.2308312 c 1.421e-4,0.1646435 0.00218,0.2409569 0.00703,0.2661494 l 0.00684,0.035336 0.1044573,0.1199055 c 0.057452,0.065948 0.251192,0.2897732 0.4305331,0.4973901 0.7498082,0.8680342 0.7591053,0.8786 0.7654239,0.8699601 0.00388,-0.00532 0.00719,-0.073229 0.00964,-0.1968901 z M 6.0072284,3.9336169 c 0.00762,-0.00907 0.01491,-0.021698 0.016191,-0.028103 0.00126,-0.0064 0.00357,-0.097136 0.00506,-0.2016477 l 0.00274,-0.190015 -0.02246,-0.06807 -0.02246,-0.068075 L 5.8150718,3.1754758 C 5.6646489,2.9978179 4.8009923,1.974486 4.7617942,1.9274649 4.7457168,1.9081635 4.7330336,1.907597 4.7064911,1.9248475 l -0.012823,0.00841 v 0.2356589 c 0,0.2241911 5.665e-4,0.2375062 0.011298,0.2737001 0.00621,0.020913 0.014761,0.044777 0.018992,0.053003 0.00422,0.00823 0.05502,0.069647 0.1128598,0.1364884 0.057839,0.066846 0.3344667,0.3892093 0.6147267,0.7163746 0.2802605,0.3271609 0.5128249,0.5961335 0.5168099,0.5977238 0.015746,0.00628 0.02561,0.00306 0.038887,-0.012722 z M 5.1898805,3.5580145 c 0.02717,-0.029715 0.029684,-0.042437 0.027118,-0.1373771 C 5.2131657,3.278768 5.2300953,3.3071803 4.967812,3.0024668 4.7571764,2.757754 4.7460119,2.7457679 4.7287237,2.7457679 c -0.036887,0 -0.03507,-0.0071 -0.03507,0.1368631 0,0.1508449 0.00335,0.1664735 0.046318,0.2167319 0.013689,0.015989 0.1089825,0.1284671 0.2117562,0.249902 0.1850013,0.2185966 0.1870626,0.2207925 0.2070022,0.2207925 0.014055,0 0.023467,-0.00349 0.031153,-0.012026 z M 5.7559696,1.8813327 c 0.00778,-0.015773 0.011045,-0.035466 0.012457,-0.074936 0.00209,-0.05848 -0.015123,-0.2586464 -0.028025,-0.3258276 -0.00982,-0.05113 -0.061441,-0.1804551 -0.082458,-0.2065712 -0.036485,-0.045343 -0.084229,-0.067195 -0.096541,-0.044193 -0.00279,0.00523 -0.00684,0.1070131 -0.00898,0.2261779 l -0.00388,0.2166622 0.018748,0.040564 c 0.02036,0.044067 0.064902,0.1128557 0.085313,0.1317565 0.02812,0.026055 0.077246,0.060232 0.084808,0.059033 0.00441,-8.699e-4 0.01277,-0.010892 0.01857,-0.0227 z"
       id="path24" />
  </g>
</svg>
