<svg xmlns="http://www.w3.org/2000/svg" viewBox="0 0 14.248 31.998">
  <title>fallen_dusk</title>
  <g id="Layer_2" data-name="Layer 2">
    <g id="Layer_1-2" data-name="Layer 1">
      <g id="Layer_1-2-2" data-name="Layer 1-2">
        <path d="M11.795,20.581c.004.075.023.153-.04.216-.031-.004-.078-.023-.09-.01-.203.217-.407.109-.608,0a.38742.38742,0,0,0-.414-.024c-.107-.035-.068-.226-.226-.174a.60932.60932,0,0,0,.249.346c.195.156.45.174.647.315.044.052.13.065.137.15a3.82977,3.82977,0,0,1-.998-.472l.014.009a.36692.36692,0,0,0-.406-.065c.007.178.135.28.216.406s.248.172.285.384c-.267-.113-.382-.37-.619-.451L9.89,21.16l-.006-.009.009.006.052.051a.24614.24614,0,0,0,.09.238,9.3892,9.3892,0,0,0,.84.57.03506.03506,0,0,0,.023.016h0a.77524.77524,0,0,0,.299.212l.005.002c.065.096.218.102.24.24-.069.071-.114-.016-.17-.02a3.55511,3.55511,0,0,0-.84-.572,1.43941,1.43941,0,0,1-.317-.223l.001.001a2.35458,2.35458,0,0,0-.94-.521c-.031-.01-.061.016-.08.049-.031.174.16.264.195.479-.21-.176-.335-.378-.571-.428-.053-.011-.044-.093-.04-.152.021-.307-.124-.387-.417-.285-.322.113-.542.387-.882.486a1.63609,1.63609,0,0,1-.441.121H6.918a.5383.5383,0,0,0-.241.057l.003-.001a.9006.9006,0,0,1-.797.027c-.061-.023-.137-.065-.186-.025-.279.24-.539-.018-.807-.027a.46.46,0,0,1-.25-.139,1.80423,1.80423,0,0,0-.865-.54.24652.24652,0,0,1-.111-.047h.001a12.11141,12.11141,0,0,1-1.373-.998.43756.43756,0,0,0-.242-.15l-.003-.001a.28829.28829,0,0,1-.23-.193l-.001-.002a.31769.31769,0,0,0-.374-.24889l-.017.00389c-.113-.156,0-.336-.096-.484-.217-.339-.486-.637-.688-.994a2.31361,2.31361,0,0,1-.345-.943,11.26891,11.26891,0,0,0-.225-1.69A2.42985,2.42985,0,0,1,0,14.501v-.004a9.9237,9.9237,0,0,1,.264-1.88,1.30462,1.30462,0,0,1,.25-.521c.156-.223.398-.391.456-.678a1.73748,1.73748,0,0,1,.22-.484A9.56449,9.56449,0,0,1,2.238,9.752a.6011.6011,0,0,1,.404-.239h.003c.13-.02.274-.059.305-.228a.36747.36747,0,0,0-.253-.184c-.101-.012-.22.016-.23-.153.173-.201.561-.279.425-.677l.022-.044c.26-.074.536-.126.794-.208a1.396,1.396,0,0,1,.495-.138c.027.001.058.002.09.002a2.21,2.21,0,0,0,.827-.159l-.015.005.095-.01c.291-.052.616-.036.728-.391a.48052.48052,0,0,1,.229.143.18453.18453,0,0,0,.281-.004c.118-.13.209-.079.303.025.042.047.07.112.155.13.274-.195.465-.029.645.212.195-.309-.032-.738.356-.981.098.309-.253.574-.033.852.065.007.095-.09.17-.065.069.007.033.113.085.13.13-.13-.071-.3.089-.418.104.036.105.243.26.137.035.104-.027.201.052.286.145-.006.279-.149.46-.069-.076.162-.26.296-.113.486a.59834.59834,0,0,0,.54.158c-.145-.217-.141-.227.107-.36.054-.029.061-.092.091-.139.061-.039.12-.085.199-.036.117.148-.035.245-.072.365-.074.029-.141-.031-.24-.025.267.14.033.307.051.468.13.042.223.176.391.166l.223-.348c.027-.012.041-.07.094-.022l-.048.141a.40752.40752,0,0,0-.098.238v.001c.219.134.326.372.516.529a.562.562,0,0,1,.181.218l.001.003c.109.309.384.456.604.656.01.009.013.028.018.037.003.079-.105.111-.079.184.048.056.122-.027.155.05-.109.266-.109.266.101.408a.48775.48775,0,0,0,.018.516.49011.49011,0,0,0,.089.008.46727.46727,0,0,0,.229-.059l-.002.001c.094.174-.105.119-.147.188-.156.065-.358.062-.425.26a.36931.36931,0,0,0,.387.191c-.057.28.201.475.159.726-.079.082-.176-.05-.237.061-.051.143.141.174.154.272-.026.115-.148.13-.166.251.216.326.573.186.883.204-.061.225-.268.147-.378.233.035.112.176.07.203.162.016.125-.171.139-.13.28.203.127.473.034.682.171-.044.178-.183.065-.275.113l-.123.303c.119.141.333.151.421.331a.42636.42636,0,0,0,.1014.59439l.0096.00661a.32494.32494,0,0,1,.107.241l-.001.02v-.001c.006.162-.048.212-.195.169-.044-.012-.074-.069-.125-.042a1.0653,1.0653,0,0,0-.155.878l-.002-.007a.80419.80419,0,0,1,.018.175.8452.8452,0,0,1-.177.519l.001-.002a4.98218,4.98218,0,0,0-.272.483l-.014.031c.093.08.251-.003.267.195-.283.081-.506.314-.826.344-.096.287.303.265.272.521-.158.072.02.224-.036.391-.242-.163-.491-.049-.716-.081-.1.072-.003.176-.074.232-.103.052-.195-.041-.291-.025.19.212.439.126.675.143.004.075.008.137.012.214.155.018.236.163.376.21.086.111.221.18.288.347-.171-.023-.249-.179-.391-.189-.174-.326-.446-.176-.695-.14.1.307.218.341.534.143ZM3.893,17.814c.253.111.467.307.787.195-.065.14-.188.055-.225.149a.97026.97026,0,0,0,.831.456c.03-.048,0-.094-.004-.141a.5045.5045,0,0,1,.201-.443c.137-.122.228.036.338.089a1.2544,1.2544,0,0,0,1.09.18.39432.39432,0,0,1,.16-.033.4053.4053,0,0,1,.257.092l-.001-.001a.19826.19826,0,0,0,.131.051.23171.23171,0,0,0,.046-.005H7.503c.054-.079.104-.189.232-.206s.169-.106.191-.218c.018-.088,0-.203.141-.229.048.151-.065.285-.032.467.24-.044.505.091.689-.184a.26035.26035,0,0,1,.195-.091h0a.23562.23562,0,0,0,.19-.16c.135-.268.465-.283.658-.481.186.07.249-.039.285-.195a.52611.52611,0,0,1,.099-.196l-.001.001a2.58508,2.58508,0,0,0,.604-1.481c.005-.192.111-.295.326-.253a.38113.38113,0,0,0-.174-.28l-.002-.001c-.004-.083.102-.105.065-.188-.106-.035-.26.097-.329-.085a.14611.14611,0,0,1,.136-.096h0c.247-.04.251-.057.195-.29a10.60489,10.60489,0,0,0-.635-1.526,2.50083,2.50083,0,0,1-.26-.722.56606.56606,0,0,0-.894-.44c-.085.059-.174.089-.24,0-.018-.119.097-.167.09-.275a2.54526,2.54526,0,0,0-.414-.356,5.19347,5.19347,0,0,0-1.42-.537l-.035-.006a3.996,3.996,0,0,0-2.511.226,3.29271,3.29271,0,0,0-1.924,1.903,5.96007,5.96007,0,0,0-.189,2.845.35488.35488,0,0,0,.066.155l-.001-.001a1.56538,1.56538,0,0,0,.621.593c.025.287-.228.383-.378.586.347.391.887.568,1.145,1.055-.004.038-.085.003-.1.078Z"/>
        <path d="M11.45,4.544a2.97824,2.97824,0,0,0,1.172-.117c.195-.012.354-.141.547-.156a.129.129,0,0,0,.018.045h0a.27087.27087,0,0,1-.287.3,1.83434,1.83434,0,0,0-.289.064l.013-.003c-.399.065-.772.22-1.163.314a.10884.10884,0,0,0-.069.059c-.006.157-.13.134-.227.16-.256-.046-.302.139-.35.32l-.005.005a.32758.32758,0,0,0-.152.07h.001a.65038.65038,0,0,1-.604.096,2.36409,2.36409,0,0,0-.861-.159,2.44664,2.44664,0,0,0-.323.021l.012-.001c-1.022.13-2.049.195-3.077.26a1.69192,1.69192,0,0,0-.552.065H5.108a.61253.61253,0,0,0-.117-.011.64617.64617,0,0,0-.221.039l.005-.001a6.39434,6.39434,0,0,1-1.005.16,5.34558,5.34558,0,0,0-.957.145,1.42515,1.42515,0,0,1-.811.077.24318.24318,0,0,0-.073-.011.26528.26528,0,0,0-.139.04l.001-.001c-.221.007-.428-.089-.665-.065.065-.163.271-.15.299-.311.055-.04.13-.065.099-.161a.16846.16846,0,0,0-.127-.057.176.176,0,0,0-.046.006h.001c-.079-.05-.126-.107-.048-.195.061-.033.092-.076.051-.145l.045-.1c.079-.016.184-.027.175-.13-.021-.227.13-.26.293-.304.15-.04.307-.096.341-.274s.172-.253.32-.326a3.25774,3.25774,0,0,1,1.209-.229c.456-.047.918-.083,1.377-.124l.053.022c.01.03.019.023.026,0l.012-.008a6.19476,6.19476,0,0,1,1.53-.245.782.782,0,0,0,.472-.174l-.001.001a.25259.25259,0,0,1,.384.009.30788.30788,0,0,0,.098.064l.002.001a10.28589,10.28589,0,0,0,1.849.733c.33.07.663.124.996.186l.195.01a.1772.1772,0,0,0,.104.034.173.173,0,0,0,.088-.024h-.001l.447.025c.023.045.052.04.083.003Z"/>
        <path d="M6.713,30.788c.005-.18-.195-.223-.249-.367.141-.161.222.081.358.041a1.20225,1.20225,0,0,0,.006-.125,1.37125,1.37125,0,0,0-.058-.397l.002.01c-.034-.138-.016-.241.13-.292a.12281.12281,0,0,0,.065-.038h0c.26-.432.664-.272,1.026-.234a1.88807,1.88807,0,0,0,.912-.07.251.251,0,0,1,.367.16c.05.114.092.229.26.251-.109.481.205.803.395,1.157-.057.112-.135.088-.218.076-.206-.03-.24,0-.245.216a1.20209,1.20209,0,0,1-.046.508,1.381,1.381,0,0,1-.706.314.36077.36077,0,0,0-.55-.053c-.11-.003-.141-.109-.226-.119l-.139-.073a.282.282,0,0,0-.042-.083l.001.001a2.544,2.544,0,0,0-1.071-.578l-.018-.004c-.044-.033-.095-.059-.098-.114.017-.094.137-.093.143-.188Z"/>
        <path d="M13.438,13.238c.215-.456.384-.478.677-.09.036.115-.195.203-.02.315a.68735.68735,0,0,1-.776.285c.024-.248.26-.156.411-.256-.094-.094-.276-.091-.291-.253Z"/>
        <path d="M12.583,8.672a.12494.12494,0,0,1,.105-.055.13221.13221,0,0,1,.053.011H12.74c.047.098-.046.13-.071.187a.9022.9022,0,0,0-.236.331.5658.5658,0,0,1-.339.297l-.004.001c-.211-.148-.191-.451-.412-.622a.41959.41959,0,0,1,.382.002l-.002-.001a.3639.3639,0,0,0,.525-.149Z"/>
        <path d="M13.459,15.36c-.111-.06-.249-.073-.333-.202.094-.279.336-.166.521-.195.053.033.116.055.136.13a.28591.28591,0,0,1-.30172.26915Z"/>
        <path d="M14.248,14.156c-.169.199-.361.222-.678.094-.049-.201.124-.214.238-.26a.32738.32738,0,0,1,.43572.15653Z"/>
        <path d="M12.503,10.392c.113-.073.207-.07.26.069.343-.091.391-.068.358.162-.146.126-.364.145-.467.356-.121-.186.195-.253.025-.432-.059-.012-.204.016-.176-.154Z"/>
        <path d="M13.16,10.777c.122-.069.214-.051.266.089s-.035.195-.13.251a.49566.49566,0,0,1-.209.057h-.001c-.05-.048-.125-.076-.12-.165.033-.103.148-.137.195-.232Z"/>
        <path d="M12.611,11.885c.069.133.195.099.273.173a.29889.29889,0,0,1-.354.085.52982.52982,0,0,0-.333-.075h.002C12.279,11.852,12.527,12.114,12.611,11.885Z"/>
        <path d="M12.404,12.695c-.083.03-.104.12-.158.175-.247-.107-.256-.165-.059-.347.093,0,.191-.021.267.049.026.062-.016.09-.05.124Z"/>
        <path d="M13.405,12.147a.19456.19456,0,0,1,.225.079v.001a.39768.39768,0,0,1-.047.084l.001-.001c-.062.065-.136.13-.225.055-.109-.091.01-.148.046-.217Z"/>
        <path d="M13.248,11.827c-.037-.03-.089-.046-.095-.115.036-.079.098-.152.195-.089.09.056.024.126-.021.185Z"/>
        <path d="M12.373,9.445l-.102.245c-.048,0-.083.053-.154.021a.36805.36805,0,0,1,.253-.266l.003-.001Z"/>
        <path d="M11.059,9.201c-.081.022-.104.144-.229.122.033-.126.089-.213.229-.218Z"/>
        <path d="M11.261,9.451c-.038-.079.025-.133.048-.195.048-.021.106-.037.087.043a.1852.1852,0,0,1-.133.152Z"/>
        <path d="M13.065,11.899l.056-.016c.058.083.045.13-.057.138C13.024,11.971,13.067,11.936,13.065,11.899Z"/>
        <path d="M5.192,3.924c-.007.025-.016.031-.026,0A.01939.01939,0,0,1,5.192,3.924Z"/>
        <path d="M13.188,4.315a.10935.10935,0,0,1-.018-.043V4.271a.35719.35719,0,0,1,.029.026h0l-.01.018Z"/>
        <path d="M3.26,2.212a2.67477,2.67477,0,0,1-.32-.805.25174.25174,0,0,1,.036-.206A.24634.24634,0,0,0,2.951.828.91273.91273,0,0,0,3.186.409L3.187.403A.41817.41817,0,0,1,3.555.061h.002A4.59182,4.59182,0,0,1,4.201,0h.006A17.60153,17.60153,0,0,0,6.03.012c.012-.001.027-.001.041-.001a1.06163,1.06163,0,0,1,.375.068L6.439.077a3.84976,3.84976,0,0,0,1.16.118,2.72339,2.72339,0,0,0,.57.359c.107.041.2.107.158.231-.047.137-.07.346-.247.348-.275,0-.391.195-.537.356a.139.139,0,0,0-.097.132v.008h0c-.087.08-.143.207-.29.199a.50553.50553,0,0,0-.391-.093,11.58711,11.58711,0,0,0-2.398.378,2.82516,2.82516,0,0,1-.813.117,2.84954,2.84954,0,0,1-.308-.016l.013.001Z"/>
        <path d="M9.894,21.161l-.009-.006.006.009Z"/>
        <path d="M9.946,21.213l-.052-.051v.003l.052.051Z"/>
        <path d="M1.768,23.826c.065-.104.13-.212.203-.326-.115-.097-.275-.06-.4-.113,0-.168.144-.189.272-.26-.18-.102-.171-.223-.079-.341-.06-.087-.178-.088-.203-.21.102-.195.304-.109.47-.14.07-.049-.046-.121.016-.152a7.73179,7.73179,0,0,1,2.8.125c1.007.125,2.014.243,3.032.277.912.031,1.816.126,2.724.195.206.016.27.106.212.309a1.288,1.288,0,0,0-.006.408.84329.84329,0,0,0-.594.293.52193.52193,0,0,1-.267.111c-.065.016-.146.016-.176.072-.12.218-.319.183-.513.18-.252-.005-.504,0-.756-.006l-.042-.001a1.47436,1.47436,0,0,0-.754.206l.007-.004a.43175.43175,0,0,1-.442.03l.002.001a1.64506,1.64506,0,0,0-.423-.115.37464.37464,0,0,0-.38.134.7005.7005,0,0,1-.725.278c-.187-.053-.4-.025-.6-.065l-.023-.002a.13565.13565,0,0,0-.07.019h.001a1.51464,1.51464,0,0,1-1.354.065c-.375-.117-.645-.443-1.052-.464a.11371.11371,0,0,1-.101-.092v-.001a.24351.24351,0,0,0-.329-.169c-.23.059-.351-.047-.448-.242Z"/>
        <path d="M4.986,26.473a.4154.4154,0,0,0,.232-.346c.088-.074.18-.036.266-.035.146,0,.297.025.369-.156.023-.058.085-.065.143-.078a.72365.72365,0,0,0,.364-.176l-.001.001a.50751.50751,0,0,1,.438-.073c.039.007.088.05.111.037.238-.13.408.027.616.103a2.32123,2.32123,0,0,0,.966.027c.205.086.319.279.472.427a2.03347,2.03347,0,0,0,.509.346l.012.005a2.56183,2.56183,0,0,1,.712.651.134.134,0,0,1,.035.091l-.002.022v-.001c-.115.232.052.352.195.466a.41772.41772,0,0,1,.13.503c-.065.185-.247.195-.41.203h-.007a1.56946,1.56946,0,0,1-.511-.085l.011.003a6.58434,6.58434,0,0,0-1.443-.243l-.018-.001a2.28033,2.28033,0,0,1-.276-.049l.016.003a.87867.87867,0,0,0-.596.025,2.40144,2.40144,0,0,1-1.318.045,6.73123,6.73123,0,0,1-.767-.123l.045.008a.4684.4684,0,0,1-.426-.475c-.009-.191-.099-.377-.021-.575.035-.087.02-.195.112-.26.102-.072.016-.18.04-.29Z"/>
        <path d="M9.508,21.919c.065.016.072.074.112.111-.065.051-.079,0-.098-.029S9.478,21.952,9.508,21.919Z"/>
        <path d="M9.391,21.814c-.035-.014-.065-.03-.049-.078.052-.014.06.023.07.058Z"/>
        <path d="M9.411,21.794l.024.028c-.019.028-.031.008-.044-.008Z"/>
        <path d="M5.968,7.06a.07669.07669,0,0,1-.027-.059.08041.08041,0,0,1,.018-.05h0c.057.051.057.051.01.109Z"/>
        <path d="M12.858,14.619a.08817.08817,0,0,1-.087.075h-.015a.07811.07811,0,0,1-.078-.078.06879.06879,0,0,1,.003-.02v.001a.09008.09008,0,0,1,.088-.076l.02.002h-.001c.042.006.074.032.068.096Z"/>
        <path d="M10.704,15.019c-.07.253-.115.275-.377.209A.356.356,0,0,1,10.704,15.019Z"/>
        <path d="M7.62,17.862a.12661.12661,0,0,1,.121.123h0l.002.017a.0892.0892,0,0,1-.089.089l-.015-.001H7.636a.12163.12163,0,0,1-.122-.121h0a.09775.09775,0,0,1,.107-.107Z"/>
        <path d="M10.289,13.979c-.158-.113-.13-.195.04-.257C10.505,13.837,10.382,13.906,10.289,13.979Z"/>
        <path d="M10.694,13.882v.007a.08049.08049,0,0,1-.065.079h0a.07505.07505,0,0,1-.026.005.06658.06658,0,0,1-.065-.056h0c-.008-.051.008-.098.069-.103h.002a.08794.08794,0,0,1,.085.067Z"/>
        <path d="M7.88,11.905l.014-.001a.11607.11607,0,0,1,.116.116h0c.009.121-.079.171-.182.189-.076.013-.121-.038-.13-.11A.22506.22506,0,0,1,7.88,11.905Z"/>
        <path d="M9.573,13.516c-.049-.124.034-.181.112-.247.11.02.189.081.143.195-.052.122-.157.117-.255.051Z"/>
        <path d="M7.936,12.898c.117-.073.203-.096.27.018a.10487.10487,0,0,1,.023.065.10373.10373,0,0,1-.07.098H8.158C8.015,13.127,7.985,13.015,7.936,12.898Z"/>
        <path d="M7.417,12.533c-.044-.156,0-.212.115-.23C7.653,12.455,7.555,12.488,7.417,12.533Z"/>
        <path d="M8.026,12.695a.06487.06487,0,0,1-.065-.06474V12.63h0l-.001-.007a.04013.04013,0,0,1,.04-.04h.008a.05378.05378,0,0,1,.054.05356V12.641h0c.001.02-.023.037-.035.054Z"/>
      </g>
    </g>
  </g>
</svg>
