<svg xmlns="http://www.w3.org/2000/svg" viewBox="0 0 24.757 32">
  <title>fallen_wolves</title>
  <g id="Layer_2" data-name="Layer 2">
    <g id="Layer_1-2" data-name="Layer 1">
      <path d="M23.162,7.234a1.63093,1.63093,0,0,1-.797.398,2.76074,2.76074,0,0,0-.766.307,8.99212,8.99212,0,0,0-1.471.797,2.014,2.014,0,0,1-.643.398l-1.349.705a3.32738,3.32738,0,0,1-.994.306l-.018.002a2.45743,2.45743,0,0,0-1.104.521s-1.471,1.715-1.87,2.359a1.752,1.752,0,0,0,0,1.624,22.28919,22.28919,0,0,1,.064,2.881,4.27377,4.27377,0,0,1-.276,1.288,4.87609,4.87609,0,0,0-.031,1.134,4.03632,4.03632,0,0,1-.674,1.931,3.38214,3.38214,0,0,0-.579,1.9v7.939c0,.264.103.276.103.276a15.0059,15.0059,0,0,1,5.058-9.011c1.84-1.701,1.839-2.575,1.839-2.575A31.46882,31.46882,0,0,1,24.757,6.486a2.5313,2.5313,0,0,0-1.596.749Zm-2.329,3.372a47.19951,47.19951,0,0,0-4.873,8.636,23.62061,23.62061,0,0,1-.306-2.812c.062-.46.276-.797.276-1.134s-.031-1.073.154-1.134.431.031.705-.214,1.41-1.716,2.054-1.992a2.48036,2.48036,0,0,0-1.165.061,6.81944,6.81944,0,0,1-1.042.245c-.123,0,.644-.705.95-.858a9.42413,9.42413,0,0,0,1.257-.582c.276-.214,1.287-1.073,1.808-1.042s.889.123.184.828Z"/>
      <path d="M13.661,9.986c-.368.56.26,1.11.628,1.156s.72-.69.889-1.18a7.10541,7.10541,0,0,1,.569-1.134c.46-.628-.123-.291-.123-.291A6.485,6.485,0,0,0,13.661,9.986Z"/>
      <path d="M13.921,7.096a.889.889,0,1,0-.889-.889h0a.889.889,0,0,0,.889.889Z"/>
      <path d="M13.921,4.437a.889.889,0,1,0-.889-.889h0a.88791.88791,0,0,0,.888.888h0Z"/>
      <path d="M13.921,1.778a.889.889,0,1,0-.889-.889h0a.88791.88791,0,0,0,.888.888h0Z"/>
      <path d="M10.849,19.954a4.76584,4.76584,0,0,0-.031-1.134,4.1858,4.1858,0,0,1-.276-1.288,22.46946,22.46946,0,0,1,.061-2.881,1.75811,1.75811,0,0,0,0-1.624c-.398-.643-1.87-2.36-1.87-2.36a2.43466,2.43466,0,0,0-1.104-.521A3.38113,3.38113,0,0,1,6.598,9.83l.02.009L5.269,9.134a2.00338,2.00338,0,0,1-.643-.398,8.94219,8.94219,0,0,0-1.469-.797,2.77436,2.77436,0,0,0-.766-.307,1.64385,1.64385,0,0,1-.797-.398A2.55066,2.55066,0,0,0,0,6.483,31.49022,31.49022,0,0,1,5.103,20.414s0,.874,1.839,2.575A15.01089,15.01089,0,0,1,12,32s.103-.012.103-.276V23.785a3.38214,3.38214,0,0,0-.579-1.9,4.05747,4.05747,0,0,1-.677-1.931Zm-2.053-.713a47.32964,47.32964,0,0,0-4.872-8.636c-.705-.705-.335-.797.184-.828s1.532.828,1.808,1.042a9.12488,9.12488,0,0,0,1.257.582c.307.151,1.073.858.95.858a6.87782,6.87782,0,0,1-1.042-.245,2.47852,2.47852,0,0,0-1.165-.061c.644.276,1.778,1.747,2.054,1.992s.521.153.705.214.154.797.154,1.134.214.674.276,1.134a23.55756,23.55756,0,0,1-.308,2.812Z"/>
      <path d="M9.578,9.962c.168.491.521,1.226.889,1.18s.996-.596.628-1.156A6.49466,6.49466,0,0,0,9.133,8.537s-.582-.337-.123.291A7.04668,7.04668,0,0,1,9.578,9.962Z"/>
      <path d="M10.834,7.096a.889.889,0,1,0-.889-.889h0a.889.889,0,0,0,.889.889Z"/>
      <path d="M10.834,4.437a.889.889,0,1,0-.889-.889h0a.88791.88791,0,0,0,.888.888h.001Z"/>
      <path d="M10.834,1.778A.889.889,0,1,0,9.945.889h0a.88791.88791,0,0,0,.888.888h.001Z"/>
    </g>
  </g>
</svg>
