<svg xmlns="http://www.w3.org/2000/svg" viewBox="0 0 20.90519 28.70483">
  <title>fallen_kings</title>
  <g id="Layer_2" data-name="Layer 2">
    <g id="Layer_1-2" data-name="Layer 1">
      <path d="M20.027,0H.87819L0,4.17207,2.0201,1.4487H4.84932V24.75164c0,2.56908,3.82133,3.95319,3.82133,3.95319C6.43078,26.465,6.43078,25.08174,6.43078,25.08174V6.29084a4.12872,4.12872,0,0,0,8.03915.02781l.00538-.02781v18.7909s0,1.38321-2.23988,3.62309c0,0,3.82134-1.38322,3.82134-3.9532V1.44869h2.82832l2.0201,2.72338ZM6.42988,4.425V1.4487H9.121a4.15676,4.15676,0,0,0-2.6857,2.94762l-.00538.02781ZM10.45215,7.9934a2.63547,2.63547,0,1,1,2.63546-2.63546h0A2.63559,2.63559,0,0,1,10.45215,7.9934Zm1.33208-6.54381h2.69018V4.425a4.15424,4.15424,0,0,0-2.66147-2.96647Z"/>
    </g>
  </g>
</svg>
