<!-- Generated by IcoMoon.io -->
<svg version="1.1" xmlns="http://www.w3.org/2000/svg" width="32" height="32" viewBox="0 0 32 32">
<title>fallen_wolves</title>
<path d="M26.782 7.234c-0.092 0.123-0.582 0.398-0.797 0.398s-0.766 0.307-0.766 0.307-1.348 0.613-1.471 0.797-0.643 0.398-0.643 0.398l-1.349 0.705c-0.294 0.146-0.635 0.254-0.994 0.306l-0.018 0.002c-0.613 0.092-1.104 0.521-1.104 0.521s-1.471 1.715-1.87 2.359-0.123 1.287 0 1.624 0.064 2.484 0.064 2.881-0.184 1.104-0.276 1.288-0.031 1.134-0.031 1.134-0.061 1.104-0.674 1.931-0.579 1.9-0.579 1.9v7.939c0 0.264 0.103 0.276 0.103 0.276 0.92-4.919 3.218-7.31 5.058-9.011s1.839-2.575 1.839-2.575c0.69-7.77 5.103-13.928 5.103-13.928-0.738-0.018-1.504 0.626-1.596 0.749zM24.453 10.606s-3.188 4.398-4.873 8.636c0 0-0.368-2.352-0.306-2.812s0.276-0.797 0.276-1.134-0.031-1.073 0.154-1.134 0.431 0.031 0.705-0.214 1.41-1.716 2.054-1.992c0 0-0.46-0.123-1.165 0.061s-0.919 0.245-1.042 0.245 0.644-0.705 0.95-0.858 0.981-0.368 1.257-0.582 1.287-1.073 1.808-1.042 0.889 0.123 0.184 0.828z"></path>
<path d="M17.281 9.986c-0.368 0.56 0.26 1.11 0.628 1.156s0.72-0.69 0.889-1.18 0.569-1.134 0.569-1.134c0.46-0.628-0.123-0.291-0.123-0.291-0.247 0.092-1.595 0.889-1.963 1.449z"></path>
<path d="M17.541 7.096c0.491 0 0.889-0.398 0.889-0.889s-0.398-0.889-0.889-0.889c-0.491 0-0.889 0.398-0.889 0.889v0c0 0.491 0.398 0.889 0.889 0.889v0z"></path>
<path d="M17.541 4.437c0.491 0 0.889-0.398 0.889-0.889s-0.398-0.889-0.889-0.889c-0.491 0-0.889 0.398-0.889 0.889v0c0 0 0 0 0 0 0 0.491 0.398 0.888 0.888 0.888 0 0 0 0 0 0h-0z"></path>
<path d="M17.541 1.778c0.491 0 0.889-0.398 0.889-0.889s-0.398-0.889-0.889-0.889c-0.491 0-0.889 0.398-0.889 0.889v0c0 0 0 0 0 0 0 0.491 0.398 0.888 0.888 0.888 0 0 0 0 0 0h-0z"></path>
<path d="M14.469 19.954s0.063-0.952-0.031-1.134-0.276-0.889-0.276-1.288-0.061-2.544 0.061-2.881 0.398-0.981 0-1.624-1.87-2.36-1.87-2.36-0.491-0.431-1.104-0.521c-0.377-0.054-0.718-0.161-1.031-0.316l0.020 0.009-1.349-0.705s-0.521-0.214-0.643-0.398-1.469-0.797-1.469-0.797-0.552-0.307-0.766-0.307-0.705-0.276-0.797-0.398-0.858-0.766-1.594-0.751c0 0 4.413 6.161 5.103 13.931 0 0 0 0.874 1.839 2.575s4.138 4.092 5.058 9.011c0 0 0.103-0.012 0.103-0.276v-7.939s0.034-1.073-0.579-1.9-0.677-1.931-0.677-1.931zM12.416 19.241c-1.686-4.237-4.872-8.636-4.872-8.636-0.705-0.705-0.335-0.797 0.184-0.828s1.532 0.828 1.808 1.042 0.95 0.431 1.257 0.582 1.073 0.858 0.95 0.858-0.335-0.061-1.042-0.245-1.165-0.061-1.165-0.061c0.644 0.276 1.778 1.747 2.054 1.992s0.521 0.153 0.705 0.214 0.154 0.797 0.154 1.134 0.214 0.674 0.276 1.134-0.308 2.812-0.308 2.812z"></path>
<path d="M13.198 9.962c0.168 0.491 0.521 1.226 0.889 1.18s0.996-0.596 0.628-1.156-1.716-1.357-1.962-1.449c0 0-0.582-0.337-0.123 0.291 0.001 0 0.399 0.644 0.568 1.134z"></path>
<path d="M14.454 7.096c0.491 0 0.889-0.398 0.889-0.889s-0.398-0.889-0.889-0.889c-0.491 0-0.889 0.398-0.889 0.889v0c0 0.491 0.398 0.889 0.889 0.889v0z"></path>
<path d="M14.454 4.437c0.491 0 0.889-0.398 0.889-0.889s-0.398-0.889-0.889-0.889c-0.491 0-0.889 0.398-0.889 0.889v0c0 0 0 0 0 0 0 0.491 0.398 0.888 0.888 0.888 0 0 0 0 0.001 0h-0z"></path>
<path d="M14.454 1.778c0.491 0 0.889-0.398 0.889-0.889s-0.398-0.889-0.889-0.889c-0.491 0-0.889 0.398-0.889 0.889v0c0 0 0 0 0 0 0 0.491 0.398 0.888 0.888 0.888 0 0 0 0 0.001 0h-0z"></path>
</svg>
