<svg xmlns="http://www.w3.org/2000/svg" viewBox="0 0 32 31.651">
  <title>fallen_judgement</title>
  <g id="Layer_2" data-name="Layer 2">
    <g id="Layer_1-2" data-name="Layer 1">
      <g>
        <path d="M25.547,22.665H6.452s-1.331,0-1.999,2.613a3.9568,3.9568,0,0,1,2.613-1.307h4.58l1.268,1.308a3.89243,3.89243,0,1,0,6.069.082l.006.009,1.357-1.399h4.581a3.96046,3.96046,0,0,1,2.614,1.307c-.664-2.613-1.995-2.613-1.995-2.613ZM12.54,23.971h2.476a3.89991,3.89991,0,0,0-1.655.854l.004-.004Zm3.379,6.213a2.426,2.426,0,1,1,2.426-2.426h0a2.4258,2.4258,0,0,1-2.426,2.426Zm2.64-5.286a3.87165,3.87165,0,0,0-1.709-.92l-.027-.005h2.636Z"/>
        <path d="M23.224,25.678c0,.933,1.093,1.76,3.414,2.267a9.96,9.96,0,0,1-1.733-2.32C24.66,24.733,23.224,24.745,23.224,25.678Z"/>
        <path d="M7.094,25.625a9.96,9.96,0,0,1-1.733,2.32c2.32-.507,3.414-1.331,3.414-2.267S7.338,24.733,7.094,25.625Z"/>
        <path d="M6.452,8.987H25.547s1.331,0,2-2.613a3.96046,3.96046,0,0,1-2.614,1.307H20.35L19.082,6.373a3.89284,3.89284,0,1,0-6.069-.083l-.006-.009L11.65,7.68H7.07A3.9568,3.9568,0,0,1,4.457,6.373c.666,2.613,1.997,2.613,1.997,2.613ZM19.458,7.68H16.983a3.89409,3.89409,0,0,0,1.655-.854l-.004.004ZM16.079,1.468a2.426,2.426,0,1,1-2.426,2.426h0a2.4258,2.4258,0,0,1,2.426-2.426Zm-2.64,5.286a3.87165,3.87165,0,0,0,1.709.92l.027.005H12.54Z"/>
        <path d="M8.774,5.974c0-.933-1.093-1.76-3.414-2.266A9.9492,9.9492,0,0,1,7.093,6.027C7.338,6.919,8.774,6.907,8.774,5.974Z"/>
        <path d="M24.904,6.027a9.9492,9.9492,0,0,1,1.733-2.319c-2.32.506-3.414,1.331-3.414,2.266S24.66,6.919,24.904,6.027Z"/>
        <path d="M28.077,11.685v-.004l-24.155.004a4.05012,4.05012,0,0,0-.006,8.096h.007v.004l24.155-.004a4.05012,4.05012,0,0,0,.006-8.096ZM15.919,12.963h9.044a4.03277,4.03277,0,0,0-.998,1.871l-.005.027H8.039a4.04827,4.04827,0,0,0-1.005-1.9l.002.002ZM4.079,18.186a2.453,2.453,0,1,1,2.453-2.453h0a2.45269,2.45269,0,0,1-2.453,2.453Zm11.998.32H7.036a4.03429,4.03429,0,0,0,.998-1.87l.005-.027H23.96a4.04827,4.04827,0,0,0,1.005,1.9l-.002-.002Zm11.842-.32a2.453,2.453,0,1,1,2.453-2.453h0a2.45269,2.45269,0,0,1-2.453,2.453Z"/>
      </g>
    </g>
  </g>
</svg>
