<!-- Generated by IcoMoon.io -->
<svg version="1.1" xmlns="http://www.w3.org/2000/svg" width="32" height="32" viewBox="0 0 32 32">
<title>fallen_winter</title>
<path d="M22.54 19.366v0.327l0.801 0.801v-0.356l3.233 3.232v-0.167l-7.607-7.974s-0.015-0.371-0.015-0.845l-0.964-0.964c-0.212-0.371-0.338-0.816-0.341-1.289v-3.569l1.453 1.789v1.097l2.017 2.195-1.513-2.521v-0.564h0.534l-2.491-3.161v-7.397h-1.416v11.744s-0.496 0.815 2.541 3.856z"></path>
<path d="M19.365 20.79l-0.208-1.127-1.068-0.949-0.029-2.165 5.931 6.006v-0.178l-6.821-7.637v4.389l10.262 10.499v-0.118l-8.067-8.72z"></path>
<path d="M19.721 26.899l0.089 0.682 2.017 2.046-1.72-2.165v-0.563h0.296l-1.868-2.313v-1.957h0.593l-1.957-2.254v8.452l3.143 3.173-1.097-1.568 0.282-0.27-1.112-1.602v-2.936l1.335 1.275z"></path>
<path d="M21.322 21.056s2.743 2.981 2.773 3.040 0-0.163 0-0.163l-2.773-3.188z"></path>
<path d="M21.011 26.751l-0.934-1.275v0.311l0.934 1.082v-0.118z"></path>
<path d="M24.881 28.174l2.551 2.58v-0.118l-2.551-2.743v0.282z"></path>
<path d="M9.461 19.366v0.327l-0.801 0.801v-0.356l-3.233 3.232v-0.167l7.607-7.974s0.015-0.371 0.015-0.845l0.964-0.964c0.212-0.371 0.338-0.816 0.341-1.289v-3.569l-1.453 1.789v1.097l-2.017 2.195 1.513-2.521v-0.564h-0.534l2.491-3.161v-7.397h1.414v11.744s0.499 0.815-2.541 3.856z"></path>
<path d="M12.635 20.79l0.208-1.127 1.068-0.949 0.030-2.165-5.932 6.006v-0.178l6.821-7.637v4.389l-10.262 10.499v-0.118l8.067-8.72z"></path>
<path d="M12.279 26.899l-0.089 0.682-2.017 2.046 1.72-2.165v-0.563h-0.297l1.868-2.313v-1.957h-0.593l1.957-2.254v8.452l-3.144 3.173 1.097-1.568-0.282-0.27 1.112-1.602v-2.936l-1.335 1.275z"></path>
<path d="M10.677 21.056s-2.743 2.981-2.773 3.040 0-0.163 0-0.163l2.773-3.188z"></path>
<path d="M10.989 26.751l0.934-1.275v0.311l-0.934 1.082v-0.118z"></path>
<path d="M7.118 28.174l-2.55 2.58v-0.118l2.55-2.743v0.282z"></path>
</svg>
