<svg xmlns="http://www.w3.org/2000/svg" viewBox="0 0 38.50833 39.63614">
  <title>fallen_scorn</title>
  <g id="Layer_2" data-name="Layer 2">
    <g id="Layer_1-2" data-name="Layer 1">
      <g>
        <path d="M11.25881,19.95107a2.6908,2.6908,0,0,0-1.74917-.64165q-.07066,0-.14043.0036l.00654-.00027h-3.886L3.3194,15.90556H9.41562a2.168,2.168,0,0,0,.2454.01347,2.23247,2.23247,0,0,0,1.356-.45636l-.00553.004a2.28438,2.28438,0,0,0,.51-1.44351,2.31957,2.31957,0,0,0-.01629-.275l.001.01087a1.68385,1.68385,0,0,0-1.68356-1.668l-.03368.00035.00167,0H5.25038L3.12788,8.74006a5.97218,5.97218,0,0,1,.78378-.08724l.01417-.00055H9.76669a1.44438,1.44438,0,0,0,.2675.02431,1.48416,1.48416,0,0,0,1.32452-.81378l.00391-.00847a2.256,2.256,0,0,0,.21359-.96567,2.27994,2.27994,0,0,0-.41-1.30795l.00492.00747a1.44431,1.44431,0,0,0-1.17143-.59949,1.4674,1.4674,0,0,0-.16784.00963l.0067-.00062H3.14387L0,.00263H15.16075V25.768a9.44859,9.44859,0,0,1-1.8613,5.50736l.01811-.02554a9.64482,9.64482,0,0,1-3.40212,2.9751l-.053.02512L8.2666,33.78719c.50272-.59845.94952-1.10915,1.38045-1.64377A9.182,9.182,0,0,0,11.39734,27.85l.00519-.04738a49.38092,49.38092,0,0,0,.1676-6.958,3.00226,3.00226,0,0,0-.31906-.90942l.00785.01572Z"/>
        <path d="M23.41938.00271h15.089l-3.104,4.97111H31.9892c-1.05329,0-2.10651.05586-3.19174,0-1.4283-.11968-2.09057,1.00542-1.6677,2.50551a3.61283,3.61283,0,0,0,.3676.74016l-.00855-.014a1.68433,1.68433,0,0,0,1.14135.44308q.063,0,.12487-.00453l-.00553.00031h6.5989a39.67611,39.67611,0,0,1-2.01079,3.44706H28.87712c-.04123-.00356-.08918-.00558-.13761-.00558a1.70035,1.70035,0,0,0-1.60626,1.14268l-.0036.01192a2.02986,2.02986,0,0,0-.14175.75227,2.061,2.061,0,0,0,.667,1.52049l.00144.00132a1.80819,1.80819,0,0,0,1.14007.40151q.051,0,.10138-.00279l-.00468.00019H35.109c-.53462,1.27668-1.41234,2.23422-1.97089,3.4072H28.23083a2.03077,2.03077,0,0,0-1.24556,1.87017q0,.09957.00945.19674l-.00066-.00824c.04788,1.59589-.04788,3.12792.0399,4.69184l-.00023.06964A10.3276,10.3276,0,0,0,28.258,31.034l-.02718-.05554a25.151,25.151,0,0,0,1.58587,2.20293l-.03781-.04849c.14364.19152.33512.359.59047.63835l-1.64377.49472a10.65728,10.65728,0,0,1-3.96295-3.83758L24.73593,30.38a7.88618,7.88618,0,0,1-1.19617-3.81947L23.539,26.542c0-.798-.12766-1.5959-.15162-2.3938,0-.375.09572-.75007.11968-1.1251V19.63185c0-.12766.03991-.24738.03991-.375l-.14364-3.45508v-.57452c0-2.26615-.03991-4.5323,0-6.79844,0-.90164-.06383-1.8113,0-2.713,0-.4389.11171-.87772.13563-1.31662.00039-.02779.00058-.06062.00058-.09348a7.52523,7.52523,0,0,0-.05183-.88318l.00337.03507c0-.15959-.11171-.31918-.08775-.46282.13563-.93358-.08775-1.89909.01594-2.99225Z"/>
        <path d="M18.75939,36.78749c.46282-.19152,0-.57453.13563-.90164l-.97348.74209a18.39615,18.39615,0,0,1-.29987-3.35505q0-.36427.01363-.72522l-.001.03468-.43088-.47079c.07977-.56652.13563-1.165.25535-1.7395a23.857,23.857,0,0,0,.19945-3.12656q0-.80925-.05155-1.60577l.00371.07235c0-.798-.14364-1.5959-.15161-2.45767,0-.4708.15161-.93358.15161-1.40437V.09832A12.2251,12.2251,0,0,1,19.182,0q.13482,0,.269.00283L19.43762.00259H21.201c0,.21545.0399.367.0399.51868V31.22582c0,1.5959-.22341,3.27153-.367,4.90729,0,.13563-.14364.25535-.29522.50273l-.07977-.94953h-.15959v1.88314l-.6144.25535.14365.46282-.798,1.34852c-.1676-1.00542.14364-1.97089-.25535-2.87257Zm.43093,2.06665H19.302v-.87772h-.11171Z"/>
      </g>
    </g>
  </g>
</svg>
