<svg xmlns="http://www.w3.org/2000/svg" viewBox="0 0 13.424 32.001">
  <title>fallen_devils</title>
  <g id="Layer_2" data-name="Layer 2">
    <g id="Layer_1-2" data-name="Layer 1">
      <g>
        <path d="M11.148,6.939a5.10381,5.10381,0,0,1,.197-1.375l-.009.036s.907-1.132,1.351-1.577.2-2.19.2-2.19a2.899,2.899,0,0,1-.2,1.301l-2.54,2.853.688,1.489c.374-.538.313-.538.313-.538Z"/>
        <path d="M11.691,8.801c.002-.157.005-.318.006-.486C11.697,8.315,11.691,8.505,11.691,8.801Z"/>
        <path d="M12.129,12.013a8.11145,8.11145,0,0,1-.438-3.211c-.064,4.32-.256,4.356-.256,4.356L9.896,14.96l.713.751,1.652-1.896c.413-.525,1.032.15,1.032.15h.131A8.99791,8.99791,0,0,0,12.129,12.013Z"/>
        <path d="M8.282,13.664l1.239.957V8.957l.901-1.017L9.746,6.401,8.094,8.503v2.065l.188-.212Z"/>
        <path d="M8.282,14.227s-.019,6.644-.019,8.671a8.25841,8.25841,0,0,1-.169,2.483,9.57877,9.57877,0,0,0-.13,1.011l-.002.034V32l.319-.807V28.002a2.71724,2.71724,0,0,1,.713-1.595,2.78569,2.78569,0,0,0,.732-1.558V16.704l.526-.601v-.225l-.638-.676Z"/>
        <path d="M2.089,5.6a5.02471,5.02471,0,0,1,.188,1.337v.002s-.063,0,.313.538l.688-1.489L.738,3.135a2.899,2.899,0,0,1-.2-1.301s-.244,1.745.2,2.19S2.089,5.601,2.089,5.601Z"/>
        <path d="M1.733,8.801c0-.296-.006-.486-.006-.486C1.729,8.484,1.731,8.645,1.733,8.801Z"/>
        <path d="M1.989,13.158s-.192-.036-.256-4.354a8.14237,8.14237,0,0,1-.438,3.211A8.94778,8.94778,0,0,0,0,13.965H.131s.619-.676,1.032-.15l1.652,1.896.713-.751Z"/>
        <path d="M3.903,8.957v5.664l1.239-.957V10.356l.188.212V8.503L3.678,6.401,3.002,7.94Z"/>
        <path d="M5.161,22.898c0-2.027-.019-8.671-.019-8.671l-1.333.976-.638.676v.225l.525.601V24.85a2.78839,2.78839,0,0,0,.732,1.558,2.7195,2.7195,0,0,1,.713,1.595v3.191l.319.807V26.427a10.028,10.028,0,0,0-.141-1.107l.009.062a8.25841,8.25841,0,0,1-.169-2.483Z"/>
        <path d="M6.161,20.327a2.89927,2.89927,0,0,0,.582,1.595,2.60367,2.60367,0,0,0,.469-1.633V0H6.161Z"/>
      </g>
    </g>
  </g>
</svg>
