<svg xmlns="http://www.w3.org/2000/svg" viewBox="0 0 22.864 32">
  <title>fallen_winter</title>
  <g id="Layer_2" data-name="Layer 2">
    <g id="Layer_1-2" data-name="Layer 1">
      <path d="M17.972,19.366v.327l.801.801v-.356l3.233,3.232v-.167l-7.607-7.974s-.015-.371-.015-.845l-.964-.964a2.63873,2.63873,0,0,1-.341-1.289V8.562l1.453,1.789v1.097l2.017,2.195-1.513-2.521v-.564h.534L13.079,7.397V0H11.663V11.744s-.496.815,2.541,3.856Z"/>
      <path d="M14.797,20.79l-.208-1.127-1.068-.949-.029-2.165,5.931,6.006v-.178L12.602,14.74v4.389L22.864,29.628V29.51Z"/>
      <path d="M15.153,26.899l.089.682,2.017,2.046-1.72-2.165v-.563h.296l-1.868-2.313V22.629h.593l-1.957-2.254v8.452L15.746,32l-1.097-1.568.282-.27L13.819,28.56V25.624l1.335,1.275Z"/>
      <path d="M16.754,21.056s2.743,2.981,2.773,3.04,0-.163,0-.163l-2.773-3.188Z"/>
      <path d="M16.443,26.751l-.934-1.275v.311l.934,1.082Z"/>
      <path d="M20.313,28.174l2.551,2.58v-.118l-2.551-2.743v.281Z"/>
      <path d="M4.893,19.366v.327l-.801.801v-.356L.859,23.37v-.167l7.607-7.974s.015-.371.015-.845l.964-.964a2.63873,2.63873,0,0,0,.341-1.289V8.562L8.333,10.351v1.097L6.316,13.643l1.513-2.521v-.564H7.295L9.786,7.397V0H11.2V11.744s.499.815-2.541,3.856Z"/>
      <path d="M8.067,20.79l.208-1.127,1.068-.949.03-2.165L3.441,22.555v-.178l6.821-7.637v4.389L0,29.628V29.51Z"/>
      <path d="M7.711,26.899l-.089.682L5.605,29.627l1.72-2.165v-.563H7.028l1.868-2.313V22.629H8.303l1.957-2.254v8.452L7.116,32l1.097-1.568-.282-.27L9.043,28.56V25.624L7.708,26.899Z"/>
      <path d="M6.109,21.056s-2.743,2.981-2.773,3.04,0-.163,0-.163l2.773-3.188Z"/>
      <path d="M6.421,26.751l.934-1.275v.311l-.934,1.082Z"/>
      <path d="M2.55,28.174,0,30.754v-.118l2.55-2.743v.281Z"/>
    </g>
  </g>
</svg>
