<svg xmlns="http://www.w3.org/2000/svg" viewBox="0 0 29.55558 24.72586">
  <title>fallen</title>
  <g id="Layer_2" data-name="Layer 2">
    <g id="Layer_1-2" data-name="Layer 1">
      <path d="M29.55558,23.39817a.23521.23521,0,0,0-.05773.17317q-.23089-.17318-.635-.51953a7.21634,7.21634,0,0,0-.57726-.4618,2.25817,2.25817,0,0,0-.37522-.40408q-.25975-.23091-.37521-.34636-.23091-.17317-.69271-.60612t-.69271-.66384v.40408a.94468.94468,0,0,1-.11545-.51954q-.46181-.40407-.75044-.635v.17318a2.43075,2.43075,0,0,1-.57725-.46181,6.2906,6.2906,0,0,1-.80816-.80816L22.513,17.337l-.75044-.80816q-.17318-.17317-.4618-.43294t-.40408-.37522q0-.05772-.17318-.2309a1.23808,1.23808,0,0,0-.28863-.2309,1.1419,1.1419,0,0,0-.80816-.05773q-.05772,0-.2309-.17318a4.61251,4.61251,0,0,0-.86589-.86588q-.2309-.34635-.4618-.34636a.37757.37757,0,0,1-.17318.17318.51234.51234,0,0,1-.2309-.05772H17.26a.80406.80406,0,0,0-.34636.05772,4.3754,4.3754,0,0,1-.75043-.11545l.51953.51953q.46181.51954.75043.80816a.16627.16627,0,0,1,.11545.05773l.05773.05772.11545.05773.05773.11545a.051.051,0,0,1,.05772.05773v.02886l.05773.08659h.05772a.051.051,0,0,0,.05773.05772l.05773.11545h.05772a.16631.16631,0,0,1,.05773.11546l.05772.05772a.67163.67163,0,0,0,.17318.11545l.05773.11545a.051.051,0,0,1,.05772.05773l.17318.2309a.051.051,0,0,1-.05773.05773.16634.16634,0,0,0-.11545.05772q0,.05774-.11545,0v.75044q-.11545.11546-.17318,0V17.337a2.02561,2.02561,0,0,0-.05772-.57725l-.14432-.14432L17.895,16.5288a6.29714,6.29714,0,0,1-.46181-.51953l-.05772-.05772v.05772H17.26v-.11545h.05772l-.37522-.37522-.31749-.25976-.14431-.14432-.14432-.11545q-.1443-.11545-.08658-.11545t-.05773-.11545q-.11545-.11545-.08659-.05773T15.99,14.62385q-.11546-.11544-.11545-.17317a.76967.76967,0,0,1-.34636-.28863q-.17317-.23091-.17317,0l.2309.2309-.05773.2309.11546.11546V14.797a.3775.3775,0,0,0,.17317.17318l.05773-.05773.08659-.05772q.08658-.05774.02886.05772a.102.102,0,0,1,.11545.11545h-.05772l-.11546-.05772v.2309a1.11617,1.11617,0,0,1,.14432.202,1.11623,1.11623,0,0,0,.14431.202.94471.94471,0,0,1,.23091-.05772l-.11546-.11546a.443.443,0,0,1-.05772-.17317,1.23808,1.23808,0,0,1,.2309.28863.23519.23519,0,0,1,.05773.17317,1.43212,1.43212,0,0,0,.17317.40408.94122.94122,0,0,0,.34636.28863.11763.11763,0,0,1,.08659.02886.08319.08319,0,0,1,.02886.05773v.202a.051.051,0,0,1,.05773.05773.16634.16634,0,0,0,.05772.11545.051.051,0,0,0,.05773.05772.33429.33429,0,0,1,.2309.05773l.2309.28863a.23518.23518,0,0,1,.05773.17318l.11545-.05773.05773.2309a.3659.3659,0,0,0,.17317.08659.28021.28021,0,0,1,.17318.11545,1.39877,1.39877,0,0,0,.17318.202.67188.67188,0,0,1,.17318.11545.6712.6712,0,0,0,.11545.17318.16632.16632,0,0,0,.11545.05773l.05772.05772H18.934a.67137.67137,0,0,1-.17317-.11545,1.01292,1.01292,0,0,1,.11545.28863.71133.71133,0,0,1,.40408-.11545.39685.39685,0,0,1,.08659.202.39677.39677,0,0,0,.08658.202l.11546.11545-.11546.11545q-.05772.11545.05773.11545a.07216.07216,0,0,1,0-.11545l.11545.11545a.051.051,0,0,1,.05773.05773l-.05773.05772v.11546h.11545v-.17318l.11545.11545h.17318l.05773-.05773-.11545-.11545a.67145.67145,0,0,1-.17318-.11545l-.05773-.05772-.05772-.11546-.17318-.17317a.16632.16632,0,0,1,.11545.05772q.11545,0,.11545.05773h.05773l.11545.05772V19.011a.051.051,0,0,1,.05773.05773l.05772.05772a.67145.67145,0,0,0,.17318.11545h.05772l.08659.08659-.02886.08659q0,.11545-.05773.11545v-.05772h-.17317a.16632.16632,0,0,1,.11545.05772v.17318q.05772.11546,0,.11545a.16629.16629,0,0,1-.11545-.05773h-.11545l.05772.17318a.051.051,0,0,1,.05773.05773v.05772a.11756.11756,0,0,1-.02887.08659.11762.11762,0,0,0-.02886.08659h-.05772q-.05774,0-.05773-.11545a2.53144,2.53144,0,0,0-.46181-.46181,1.72023,1.72023,0,0,1-.17317-.2309.11763.11763,0,0,0,.08659-.02886l.02886-.02887-.2309-.2309-.28863-.2309q-.05774,0-.28863-.2309v.05772l.05772.05773v.11545q-.05772,0-.05772-.11545a2.82256,2.82256,0,0,1-.17318-.28863q0-.11546-.17318-.2309v-.11546l-.05772.05773q-.23091-.28863-.34636-.28863-.2309-.05772-.28863-.40408l-.11545.17318a.23522.23522,0,0,1,.05773-.17318q-.28863-.28863-.34636-.28863-.34635-.2309-.4618-.28863-.05772-.11544-.2309-.43294a1.20968,1.20968,0,0,0-.34636-.43294h-.05772v.11545q.05772.05772,0,.05772-.05773.05774-.05773,0l-.11545-.11545a.16629.16629,0,0,1-.11545.05773l-.02887-.02886L15.7014,16.067v-.11545l-.40408-.40408q0-.05774-.11545-.08659t-.11545-.08659q-.05774,0-.05773-.11545a.1663.1663,0,0,0-.05772-.11545,1.23845,1.23845,0,0,1-.28863-.23091,1.23808,1.23808,0,0,0-.28863-.2309V16.2979q0,.11546-.05773.11545h-.11545a.16632.16632,0,0,1-.05772-.11545q0-.23089.02886-.75043t.02886-.80816a.50209.50209,0,0,0-.08659-.202.50229.50229,0,0,1-.08659-.202q0-.11545-.40408-.28863a.66194.66194,0,0,1-.202-.05773.66176.66176,0,0,0-.202-.05772h-.05772q-.05773.75043-.05773,1.09678-.05772.57726-.05772.69271a.44312.44312,0,0,1,.05772.17318.16632.16632,0,0,1-.05772.11545h.05772a.051.051,0,0,1,.05773.05773H13.046a.56333.56333,0,0,0,.11545.40408.051.051,0,0,0,.05772.05772q.05774,0,.02887.02887a.11762.11762,0,0,1-.08659.02886H13.046V16.702h.11545q.05772.23091,0,.28863a.44307.44307,0,0,1,.05772.17318l.05773.05772v.05773q-.23091.40407-.28863.40408a.94478.94478,0,0,1-.05772.2309V17.972q-.11545.05772-.11546-.11545a.62683.62683,0,0,1-.11545-.23091.47461.47461,0,0,1,.02887-.14431l.05772-.17318.02886-.14431v-.69271l.05773-1.38542v-.635l.05773-.51953h-.69271a.44307.44307,0,0,0-.17318.05772.16633.16633,0,0,1-.11545.05773q0,.34635-.02886.98133t-.02887.86589v.2309l-.02886.08659-.02886.14432h-.11545a.16631.16631,0,0,1-.05773-.11546.64242.64242,0,0,0-.05773-.28862h-.05772l-.05773-.05773.05773-.05773.05772.05773h.11546V13.93115q-.28863,0-1.09679-.05773,0,.40409-.05773,1.38542V15.432l-.05773.05773-.05772-.02886-.05773-.08659v-.05773a8.59758,8.59758,0,0,0,0-1.44314H9.69792q-.05772.17318-.11545.11545-.05772,0-.11545-.11545a5.92324,5.92324,0,0,1-1.32769-.40408l-.05773.05772a1.57927,1.57927,0,0,0,.05773.34636,2.45425,2.45425,0,0,0-.2309.34635,1.623,1.623,0,0,0-.05773.49067v.49067a1.81435,1.81435,0,0,1-.02886.28863,1.77172,1.77172,0,0,0-.02887.2309q0,.05774-.02886.46181t.02886.40408a2.2777,2.2777,0,0,1,.02887.66385q-.02886.43293-.02887.60612a1.77172,1.77172,0,0,0,.02887.2309A.46614.46614,0,0,1,7.793,18.376q0,.11545.02887.49067a1.51579,1.51579,0,0,1-.02887.54839v.46181a.09245.09245,0,0,1-.05772.08658l-.05773.02887-.02886-.02887L7.6198,19.8769q-.05773-.05774-.02887-.37522t.02887-.40408V18.174L7.56207,17.741q0-.05772.02886-.31749a4.04455,4.04455,0,0,0,.02887-.43294q0-.11546-.02887-.37522a4.047,4.047,0,0,1-.02886-.43294A.52614.52614,0,0,0,7.6198,15.865v-.37522a.89441.89441,0,0,0,.05772-.37522v-.37521a1.92361,1.92361,0,0,0-.05772-.69271.38388.38388,0,0,1,.05772-.57726H4.90669a1.97572,1.97572,0,0,0-.37522.05772,1.97513,1.97513,0,0,1-.37522.05773,1.46113,1.46113,0,0,0-.69271.2309l-.202.11546-.31749.2309-.05772.11545a.16629.16629,0,0,0-.05773.11545.45248.45248,0,0,0-.08659.11545.33564.33564,0,0,1-.05772.08659.3133.3133,0,0,0-.05773.11545.47491.47491,0,0,0-.02886.14432l-.11545.17317-.05773-.05772a.09245.09245,0,0,0,.08659-.05773.22149.22149,0,0,0,.02886-.08659.22139.22139,0,0,1,.02887-.08658.22158.22158,0,0,0,.02886-.08659v-.02887l.05772-.05772V14.5084l-.11545.11545a2.25157,2.25157,0,0,1-.2309.40408A3.20362,3.20362,0,0,0,1.905,16.24017a2.43285,2.43285,0,0,0-.05773.40408v.34636a4.51926,4.51926,0,0,1,.11546.635,1.21453,1.21453,0,0,1-.635-.51953l-.28863-.51953a.13077.13077,0,0,1-.02886-.14432.47486.47486,0,0,0,.02886-.14431q0-.05772-.11545-.11545H.80816l-.05773-.05773v-.11545a.51226.51226,0,0,0,.05773-.2309.6425.6425,0,0,0-.05773-.28863.47486.47486,0,0,0-.02886-.14431.475.475,0,0,1-.02886-.14432.16632.16632,0,0,1,.05772-.11545q0-.05772.11546-.02886a.13641.13641,0,0,1,.11545.14431.16629.16629,0,0,1,.11545.05773V14.797l-.05773-.11545a.051.051,0,0,0-.05772-.05773L.80816,14.5084q-.05772-.17317,0-.17317.05772-.11545.11545,0l.05773.17317h.11545q.17318.05773.17318.11545l-.05773.11546a.07216.07216,0,0,1,0,.11545V15.23l-.02886.23091a1.50684,1.50684,0,0,1-.02887.202q0-.02887.02887.14431t.02886.14432h.11545a2.58455,2.58455,0,0,1,.05773-.75044v-.4618a1.21612,1.21612,0,0,1,.02886-.202,1.33788,1.33788,0,0,0,.02886-.25977.56116.56116,0,0,1-.11545-.28863q-.34635-.05772-.28863-.28863a1.00438,1.00438,0,0,1,.17318-.40408A.051.051,0,0,1,1.27,13.23844a1.34282,1.34282,0,0,1,.2309-.34636.051.051,0,0,1,.05772-.05772l-.05772.05772v.05773a.67155.67155,0,0,0-.11545.17317v.11546H1.32769q0,.11544.05773.11545v-.05773q.05772-.05772.05772-.08659V13.123a.44292.44292,0,0,0,.05773-.17317l.08659-.17318.08659-.11545A1.30506,1.30506,0,0,0,1.7895,12.488q.05772,0,.17318-.11545.40407-.17318.57725-.2309a.47466.47466,0,0,0,.14432-.02887.47486.47486,0,0,1,.14431-.02886.44307.44307,0,0,0,.17318-.05772h1.905l.11545.11545.08659.08659.02886.05772v.08659q.05772,0,.05773.02886T5.253,12.488l.05773.11545.05772.05773v.11545l.05773.05773a.44292.44292,0,0,0,.05773.17317v-.08659l-.05773-.08658v-.05773l-.05773-.05773a.16634.16634,0,0,0-.05772-.11545A.16631.16631,0,0,0,5.253,12.488a.16632.16632,0,0,0-.05772-.11545.11758.11758,0,0,0-.02887-.08659l-.02886-.02886a.16634.16634,0,0,1-.05772-.11545l-.05773-.05773.05773-.05772H5.5994l.11545-.05773h.08659l.14431-.05773a.92118.92118,0,0,0,.51953-.40408V11.218a.11763.11763,0,0,0-.08659.02886l-.02886.02886a.16632.16632,0,0,1-.11545-.05772q-.05772,0-.05773-.02887v-.02886l-.11545-.11545v-.05773a.051.051,0,0,0-.05772-.05772l-.05773-.05773L5.8303,10.814l-.05773-.05773H5.71485v-.11545a.051.051,0,0,1-.05773-.05773H5.5994l-.05773-.05772V10.4676l-.17318-.17318a5.2538,5.2538,0,0,0-.34635-.51953.07216.07216,0,0,0-.11545,0H4.849a.16629.16629,0,0,1,.05773-.11545l.05772-.05773H4.849a.94448.94448,0,0,1-.2309.05773.051.051,0,0,1,.05772-.05773l.11546-.11545A.051.051,0,0,1,4.849,9.42854l.11545-.05773-.05772-.05772.2309-.23091H5.07987a.16631.16631,0,0,1-.11546.05773l.05773-.05773V9.02446a.051.051,0,0,0,.05773-.05773H4.96441a.16627.16627,0,0,1-.11545.05773V8.96673L4.73351,8.909H4.67578l-.11545.05772V8.909h.11545a.051.051,0,0,1,.05773-.05773h.05773a.16632.16632,0,0,1,.11545-.05773.23523.23523,0,0,0,.17318-.05772.16632.16632,0,0,0-.05773-.11545l-.05773.05772H4.79124A.1663.1663,0,0,0,4.849,8.56265H4.73351a.16629.16629,0,0,1-.11545.05773q-.05772.05772-.05773,0l.05773-.05773a.051.051,0,0,0,.05772-.05772V8.4472q.05774-.05772,0-.05773H4.61806a.051.051,0,0,1,.05772-.05772.16631.16631,0,0,0,.05773-.11545V8.15857H4.67578a.051.051,0,0,0,.05773-.05772A.16633.16633,0,0,0,4.849,8.04312l-.05772-.05773H4.73351l-.05773-.05772H4.56033l-.05772.02886-.11545.02886V7.92767a.44292.44292,0,0,0,.17317-.05773q0-.05772.11545-.05772l.11546-.05773h.11545A.16629.16629,0,0,1,4.849,7.639l-.11545-.11545-.11545-.05773-.05773-.05772H4.50261q-.05773-.05774,0-.05773h.11545l.05772-.05772h.46181a.16632.16632,0,0,1,.11545.05772h.28863a.62653.62653,0,0,0,.11545.2309.19426.19426,0,0,0,.08659.17318.51542.51542,0,0,1,.14432.14432.94535.94535,0,0,0,.11545.14431,1.42066,1.42066,0,0,1,.28863.51953q0,.05773.635.34636v.17317h.05772l.05773.05773a.33259.33259,0,0,1,.2309.11545q.11545.11546.17318.11545h.11545q-.05772-.05772-.02886-.08659a.1176.1176,0,0,1,.08659-.02886v.11545H7.56207q-.05772.05773,0,.05773l.08659.05772L7.793,9.544l.05773.05772h.05773a.16627.16627,0,0,0,.11545.05773.051.051,0,0,0,.05772.05773h.05773a1.77108,1.77108,0,0,1,.2309.02886,1.81435,1.81435,0,0,0,.28863.02886.48562.48562,0,0,1,.40408.05773h.05773q0-.11546.11545-.05773h.28863A11.71728,11.71728,0,0,1,10.67926,8.6781a.99091.99091,0,0,1,.28863-.28863,2.61151,2.61151,0,0,1,.34635-.2309q.11545-.05772.05773-.28863a.16632.16632,0,0,0,.05773-.11545H11.372l-.05773.05773h-.05772a.16635.16635,0,0,1-.05773-.11545.051.051,0,0,1,.05773-.05773h.17318v-.2309a.051.051,0,0,1-.05773-.05773.23522.23522,0,0,1-.05773-.17318V7.11951l-.17317-.11545A.52593.52593,0,0,0,11.08334,6.6a.67163.67163,0,0,1-.11545-.17318.51242.51242,0,0,1-.05773-.2309l-.11545-.17318a1.59139,1.59139,0,0,0-.17317-.46181,1.79784,1.79784,0,0,0-.635-.4618H9.8711l-.05772-.05773q-.05774,0,0-.05772H9.69792L9.6402,4.92593H9.58247l.05773.05773a.16632.16632,0,0,1,.11545.05772H9.58247l-.05772-.05772A.051.051,0,0,1,9.467,4.92593L9.4093,4.8682a1.81435,1.81435,0,0,1-.28863-.02886.95971.95971,0,0,1-.23091-.05772.36092.36092,0,0,0-.2309.02886H8.37023a3.03071,3.03071,0,0,0-.69271.17318l-.34635.2309a1.33559,1.33559,0,0,0-.28863.17318,1.91939,1.91939,0,0,1-.46181.11545h-.635a.67155.67155,0,0,1-.11545.17317.051.051,0,0,0-.05773.05773H5.8303a.16633.16633,0,0,1,.05773.11545.23519.23519,0,0,1-.17318.05773.16629.16629,0,0,0-.05773.11545v.05772a.22837.22837,0,0,1-.02886.14432.11762.11762,0,0,1-.08659.02886q-.05772,0-.11545.11545H5.36849l-.05772-.05772V6.25362q-.17318,0-.46181.02886a1.13907,1.13907,0,0,1-.4618-.02886l.2309-1.21224A2.60916,2.60916,0,0,1,4.849,4.695a2.61111,2.61111,0,0,0,.23091-.34636V4.23322l.05772-.05772h.28863A.16631.16631,0,0,0,5.36849,4.06H5.28191l-.14432.05773q0-.05772.28863-.11545l-.05773-.05773H5.31077a.16634.16634,0,0,0-.11545-.05772H5.253l-.05772-.05773a.07216.07216,0,0,1-.11545,0H5.02214l-.05773-.05773H5.253A.16631.16631,0,0,1,5.31077,3.656a.67188.67188,0,0,0-.17318-.11545H5.02214V3.42506q0-.05772.05773,0h.05772a.051.051,0,0,1,.05773.05773v.05772a.45666.45666,0,0,1,.28863.05773,1.71935,1.71935,0,0,0,.17317.2309.1176.1176,0,0,0,.08659-.02886l.02886-.02887V3.71369A.4431.4431,0,0,0,5.5994,3.656H5.54167V3.59824A.16634.16634,0,0,1,5.484,3.48279q-.05774-.11546-.11546-.11546H5.5994a.16635.16635,0,0,1,.11545.05773.1849.1849,0,0,0,.17318.11545.67162.67162,0,0,0-.11546-.17318.87146.87146,0,0,1-.34635-.28862l-.2309-.17318A.28052.28052,0,0,1,5.051,2.8478a.28055.28055,0,0,0-.14431-.05772V2.73235h.11545V2.67463l.05773-.05773h.11545l.2309.2309q.05772.05773.08659.05773a.02551.02551,0,0,1,.02886.02886q0,.02886.05773.08659a1.89929,1.89929,0,0,0,.57725.11545V3.07871h-.2309L5.888,2.99212l-.11546-.08659H5.65712L5.5994,2.8478A3.37685,3.37685,0,0,0,5.253,2.55917a.443.443,0,0,1-.17317-.05772.443.443,0,0,0-.17318-.05773A.051.051,0,0,1,4.849,2.386H4.79124V2.32827H4.67578V2.27055a.16634.16634,0,0,1,.11546.05772.16629.16629,0,0,1-.05773-.11545q-.23089-.17317-.2309-.2309a.051.051,0,0,1-.05773-.05773V1.80874l.11545.05773q0,.05772.11545.11545l.11546.11545a.70089.70089,0,0,0,.34635.17318,1.614,1.614,0,0,1,.28863.202,1.6145,1.6145,0,0,0,.28863.202,2.02574,2.02574,0,0,1,.57726.05772q0-.05772.02886-.05772a.08316.08316,0,0,0,.05772-.02887.11763.11763,0,0,1,.08659-.02886.051.051,0,0,1,.05773.05773.16632.16632,0,0,0,.11545.05772V2.6169l-.05773-.05773a.59514.59514,0,0,0-.2309-.11545H6.23438l.02886.02887.05773.08658q.05772.08659.02886.11546,0-.05773-.11545-.11546V2.50145L6.11893,2.386a.23518.23518,0,0,1-.17318-.05773V2.21282l.05773-.11545q.11544,0,.11545.05772.05772.05773,0,.05773v.11545a.23519.23519,0,0,1,.17318.05773h.17317a.051.051,0,0,0,.05773.05772h.02886l.02886.05773a.62651.62651,0,0,1,.11546-.2309h.05772a.051.051,0,0,1,.05773.05772l.05772.05773v.17317a.23522.23522,0,0,0,.17318-.05772,1.401,1.401,0,0,0-.34635-.46181.16631.16631,0,0,1,.11545.05773.88559.88559,0,0,0,.40408.2309V2.27055l-.17318-.17318a.71046.71046,0,0,1-.25977-.14432,2.60217,2.60217,0,0,0-.31749-.202l-.34635-.2309a2.115,2.115,0,0,1,.37522.17318q.202.11546.31749.17318a.62637.62637,0,0,1,.2309.11545.67171.67171,0,0,0,.17318.11545.67137.67137,0,0,1,.17317.11545h.11546a.23517.23517,0,0,1,.17317.05773.44313.44313,0,0,0,.17318-.05773,1.8872,1.8872,0,0,0-.11545-.202,1.88549,1.88549,0,0,1-.11545-.202.67188.67188,0,0,0-.11545-.17318,3.4962,3.4962,0,0,1,.2309.28863q.17317.23091.28863.2309V2.09737h.02886l.02886.05772a.25617.25617,0,0,1,.11545.02887l.17318.08659.17318.05772h.17318V2.15509q-.05773,0-.05773-.17317a.67129.67129,0,0,1,.11545.17317.443.443,0,0,1,.05773.17318h.05772l.11546.05773V2.27055l-.11546-.11546L8.832,2.03964h.05772l.17318.17318.05773-.05773V2.09737q.11544.11545.11545.17318a.24535.24535,0,0,1,0,.2309h0v.2309a.051.051,0,0,1,.05772.05773.051.051,0,0,0,.05773.05772l.05773.05773-.05773.05772h.02886l.02887-.05772L9.467,2.8478l.11545.05773A.16629.16629,0,0,0,9.6402,3.021q0,.11545.05772.11545.05773-.05772,0-.17318a.88615.88615,0,0,1,.11546-.34635q0-.11545.05772-.11545t.05773.11545a.33263.33263,0,0,1-.11545.2309l-.05773.05773v.17318a.4704.4704,0,0,0,.11545.34635h.05773a.22634.22634,0,0,0,.17317-.2309V3.07871a.051.051,0,0,0,.05773-.05773A.44313.44313,0,0,1,10.102,2.8478a.16631.16631,0,0,1,.11546.05773v.17318q0-.05774.02886-.05773a.02551.02551,0,0,0,.02886-.02886.08317.08317,0,0,1,.02886-.05773.08312.08312,0,0,0,.02887-.05772.02886.02886,0,1,1,.05772,0v.08658a.051.051,0,0,0-.05772.05773v.2309a.051.051,0,0,1,.05772-.05772q.23091-.17318.34636-.05773a.051.051,0,0,1-.05773.05773l-.05772.05772v.23091l-.08659.08658-.08659.14432v.05772h.11545V3.71369q0-.11546.05773-.11545a.64264.64264,0,0,0,.05772-.28863V3.25188h.02886l.08659-.05772q.05773,0,.02887.05772l-.02887.05773a.16632.16632,0,0,1-.05772.11545,1.08965,1.08965,0,0,0,.05772.34635v-.202l.11545.02887h.11546a.33424.33424,0,0,1,.2309-.05773,1.43217,1.43217,0,0,1,.40408-.17318q.23089-.23089.28863-.2309a.09245.09245,0,0,1,.08659.05773l.02886.05772.05773-.05772a.11409.11409,0,0,1,.17317-.05773v.05773h.05773l-.05773-.05773q0-.05772.05773,0h.202l.08659-.05772a.789.789,0,0,0,.17317-.02887l.11546-.02886H13.046a.23517.23517,0,0,0,.17317-.05773h.11546l.11545-.05772a1.73521,1.73521,0,0,0,.28863-.05773.23521.23521,0,0,0,.17317-.05772,1.279,1.279,0,0,1,.40408-.05773,1.72014,1.72014,0,0,0,.23091-.17318q.05772-.11544.11545-.11545l.02886.02887.14431.02886.11546.05772h.17317q.23091-.05772.80816-.17317a6.94182,6.94182,0,0,0,1.15452-.23091,7.86745,7.86745,0,0,0,.86588-.17317q-.17318-.11546-.17317-.17318V1.751a.37755.37755,0,0,0,.17317.17318h.05773a2.04929,2.04929,0,0,0,.75044-.11545,2.09691,2.09691,0,0,1,.98133-.11545,4.73427,4.73427,0,0,1,.98134.17318.945.945,0,0,0,.2309-.05773h.17318a.33424.33424,0,0,0,.2309-.05773.1176.1176,0,0,0,.08659-.02886.16716.16716,0,0,1,.11545-.02886q.08659,0,.08659-.05773a.44307.44307,0,0,0,.17318-.05772v.05772q.11546.17318.28863.40408h.75043l.05773-.05772V1.92419l.05772-.05772h.05773v.11545a5.00871,5.00871,0,0,1,.69271.05772,1.83249,1.83249,0,0,1,.51953.11545l.05773.05773h.17317a.051.051,0,0,0,.05773.05773h.05772l.05773.02886.08659.02886a1.11984,1.11984,0,0,1,.14431.05773h.49067l.08659.05772q.05772-.05772.08659-.02886t-.02886.14431V2.6169a.44292.44292,0,0,1,.17317.05773v.05772l.05773.05773V2.8478a.051.051,0,0,0-.05773.05773l.11546.11545v.02886l.02886.08659.02886.05773v.11545a.67145.67145,0,0,1-.11545-.17318.67163.67163,0,0,0-.11545-.17318.051.051,0,0,1-.05773.05773.443.443,0,0,0,.05773.17318v.05772q.11546,0,.2309.17318V3.36733l.05773-.05772.11545.11545a.051.051,0,0,1-.05773.05773.051.051,0,0,0-.05772.05772v.17318a.23522.23522,0,0,1,.05772.17318v.11545q0,.05772-.14431.02886L25.688,4.00232l-.05772.34635q0,.17318.02886,2.59766a26.511,26.511,0,0,1-.02886,2.65538v.11546l-.05773.05772v.11545l.05773-.05772H25.688v.05772a.44307.44307,0,0,1-.05772.17318.051.051,0,0,1-.05773.05773v.17317h.05773v.05773l.05772.11545h-.05772v.11545l-.05773.11545v.17318h.05773v.05773l.05772.05772v.11545l.05773.05773h.05773v.2309l-.05773.05773H25.688v-.17318h-.17317a.16627.16627,0,0,0-.11545.05773v.11545l-.05773.11545v.05773l-.17318.05772-.11545.05773-.05772.05772a.23518.23518,0,0,0-.17318.05773v.28863a.84172.84172,0,0,0-.11545-.34636,1.81435,1.81435,0,0,0,.02886.28863q.02886.17317.05772.28863a.94852.94852,0,0,1,.02887.2309v.46181l-.05773.4618a1.68861,1.68861,0,0,1-.05772.57726q-.11545-.11545-.11546-.17317,0-.17319.02887-.72158a3.59885,3.59885,0,0,0-.02887-.837.28055.28055,0,0,0-.05772-.14431.29759.29759,0,0,1-.05773-.11546,1.20662,1.20662,0,0,0-.05772-.202q-.17317.05773-.23091-.17317V8.56265A2.10355,2.10355,0,0,1,24.216,8.2163q.02886-.17318.05772-.37522t.05773-.34635a2.17878,2.17878,0,0,0,.02886-.40409V4.695q-.2309-.23091-.34635-.17318a1.05474,1.05474,0,0,0-.75044-.28863.16629.16629,0,0,0-.11545.05773V4.4064a.16634.16634,0,0,1-.05772-.11545V4.23322l-.05773-.05772h-.05773q-.05772-.05774-.2309,0h-.17318l-.05772.05772-.05773-.11545a11.48483,11.48483,0,0,0-1.21224-.17318,1.27933,1.27933,0,0,1-.40408-.05772.44292.44292,0,0,0,.05773.17317,2.54958,2.54958,0,0,1-.46181-.17317q-.40407-.05774-.75043-.11546-.05774,0-.635-.08658a6.40812,6.40812,0,0,0-.86588-.08659q-1.21224.11545-1.73177.17317l-.51954.11546-.11545.11545h-.28863V3.94459h.11546l.11545-.05772h-.11545q-.69271-.05774-.86589-.05773H13.681q-.51952.05772-.635.05773a3.67667,3.67667,0,0,0-.635.40408.16634.16634,0,0,1-.05772.11545l-.17318.11545a.16633.16633,0,0,1-.11545.05773V4.6373q-.05772,0,0,.05773v.08659l.05773.08658a.33431.33431,0,0,1,.2309.05773h.11545l-.08659.08659-.02886.08659h-.05773l.11545-.05773h.05773v.05773l-.05773.11545v.05772a.44313.44313,0,0,0,.05773.17318l.11545.11545v.23091a.051.051,0,0,1,.05773.05772.96365.96365,0,0,1,.40408.28863,3.54218,3.54218,0,0,0,.40408.80816,2.29332,2.29332,0,0,1,.28863.34636.94983.94983,0,0,0,.28862-.05773l-.11545.05773-.05772.05772a.16632.16632,0,0,0,.11545.05773l-.05773.17317V7.639q.05774.05772.05773.08659v.08659l-.05773.05772v.17318a.67163.67163,0,0,0,.17318.11545.1176.1176,0,0,1-.02886.08659l-.02887.02886a.16627.16627,0,0,1-.11545.05773l-.28863.28863.11546.05772a.5123.5123,0,0,0-.23091.05773.33433.33433,0,0,0,.23091.05772.16634.16634,0,0,0,.11545-.05772v.05772h-.05773q-.28863.23091-.40408.34636l.11545.11545v.202l-.05772.202q.05772,0,.17317.11545l.08659.08659v.05773q0,.05772-.08659-.02887-.11544,0-.34635-.2309v.14431l-.02886.14432q-.02886.14432.08659.11545l.05772.05773h-.2309a.1663.1663,0,0,0-.11545.05772.16627.16627,0,0,0,.11545.05773.35045.35045,0,0,1,.17318.08659.35044.35044,0,0,0,.17317.08658,1.73521,1.73521,0,0,0,.28863.05773v.05773a1.76988,1.76988,0,0,1-.2309-.02887,1.77108,1.77108,0,0,0-.2309-.02886h-.69271v.05773l.05772.05772h-.34635v.08659l.05772.02886a.23522.23522,0,0,1,.17318.05773h-.2309a.11762.11762,0,0,1,.08659.02886l.02886.02887a.22834.22834,0,0,1,.14431.02886q.02887.02886-.02886.08659h.11545l.11545.11545-.05772-.02886h-.11545l-.05773.02886v.11545a.16635.16635,0,0,0,.11545.05773,2.43285,2.43285,0,0,1-.40408-.05773h-.05772l-.05773.05773a.51226.51226,0,0,0-.2309-.05773q.2309.23091.28863.2309V11.218h.05772l.05773.05772.17318.11545.17317.11545.28863-.05772q.17318.11545.17318.17318H13.046l-.11545-.11546a.1176.1176,0,0,0-.08659.02887.11762.11762,0,0,1-.08659.02886.90867.90867,0,0,0,.34635.2309,1.23808,1.23808,0,0,1,.28863-.2309.946.946,0,0,0-.11545.14431q-.05772.08659-.11545.08659a1.43162,1.43162,0,0,0,.75043.05773h.08659l.02886.05772H14.951a8.82993,8.82993,0,0,1-.51954-.92361.49562.49562,0,0,1-.08658-.25976,1.84631,1.84631,0,0,0-.05773-.28863,1.84141,1.84141,0,0,1-.05773-.25977.44143.44143,0,0,0-.08658-.2309V9.02446l.02886-.14432.02886-.25976a4.77994,4.77994,0,0,0,.11545-.51953,2.47318,2.47318,0,0,0,.17318-.57726,4.34208,4.34208,0,0,1,.98134-1.27,1.41989,1.41989,0,0,1,.635-.4618h.05773l.05772-.05773h.17318a1.78929,1.78929,0,0,1,.34635-.11545.16631.16631,0,0,0,.11546-.05773h.05772a2.88379,2.88379,0,0,1,.51953-.2309,2.4316,2.4316,0,0,1,.05773.40408q-.05772,0-.02886.2309t.02886.28863l.11545.11545V6.4268q.11545.17318,0,.2309L17.54862,6.6q-.05772,0-.2309-.23091v.46181a.67163.67163,0,0,0-.17318.11545l-.2309.11545-.05772.05773q0-.05774.11545-.05773a.44309.44309,0,0,1,.17317-.05772v.05772l-.11545.05773-.14431.05772h-.05773l-.02886-.05772q-.05772.11546-.11545.11545A2.54241,2.54241,0,0,0,15.75913,8.909a3.304,3.304,0,0,0,.05772,1.15451,2.78543,2.78543,0,0,0,1.5586,1.73177.72209.72209,0,0,0,.4618.05773,3.2431,3.2431,0,0,1,.635-.05773,1.1419,1.1419,0,0,0,.80816.05773,2.74443,2.74443,0,0,0,1.32769-1.0102,2.574,2.574,0,0,0,.51953-1.52973,2.77826,2.77826,0,0,0-.75043-1.84723l-.05773-.05772V7.35041q-.05772,0,0-.05772a.051.051,0,0,1,.05773-.05773q.05772-.05772,0-.05773a.07216.07216,0,0,0,0-.11545.051.051,0,0,1-.05773.05773q0-.05774.11545-.11545l-.05772-.05773a.051.051,0,0,1,.05772-.05773h-.11545V6.83088a.23522.23522,0,0,1,.17318-.05773h-.11545V6.71543l.02886-.02887L20.43491,6.6V6.4268l.05773-.05773a.051.051,0,0,1-.05773-.05772V6.1959l.05773-.23091a.051.051,0,0,0-.05773-.05772l-.02886-.02887-.02886-.08658a.16631.16631,0,0,1-.05773-.11546.945.945,0,0,1,.2309.05773l.05773-.05773q0-.05772.02886-.02886a.66788.66788,0,0,1,.08659.14432v.05772a.16629.16629,0,0,1,.11545.05773,1.78919,1.78919,0,0,1,.34636.11545A4.79343,4.79343,0,0,1,22.33986,7.639a4.12084,4.12084,0,0,1,.34636,1.03906,1.77117,1.77117,0,0,0,.02886.23091,1.77088,1.77088,0,0,1,.02886.2309v.37522l-.05772.31749a4.873,4.873,0,0,1-.46181,1.50087,4.478,4.478,0,0,0-.40408.69271,3.78619,3.78619,0,0,1-.98134.86588,1.50727,1.50727,0,0,1-.31749.2309.78359.78359,0,0,1-.25977.11546l.11546.11545h-.23091v.11545h-.4618q.17318.23089,1.03906,1.15451a2.25851,2.25851,0,0,1,.40408.37522q.23091.25977.34635.37522a.09245.09245,0,0,1,.08659.05772l.02887.05773,2.71311,2.71311q0,.05772.11545.11545t.11545.11545l.51953.51953.11545.05773.17318.11545a.475.475,0,0,0,.02886.14432.3623.3623,0,0,0,.08659.14431l.57726.57726v.05772l.05772.05773.11546.05772.17317.17318.17318.11545V20.483l.05773.02886v.11545h.05772a.67145.67145,0,0,1,.17318.11545h.05772v.11545l.05773.05773.05773-.05773.05772.05773h.05773v.05773l.05772.05772.05773.17318h.05772q0,.05772.11546.11545a.16631.16631,0,0,1,.11545.05773h.05772l.23091.2309v.05772h.11545v.05773l.11545.17318h.05773l.11545.11545v.05772h.05772a.16632.16632,0,0,1,.11545.05773.051.051,0,0,0-.05772.05773l.2309.11545v.05772H28.632l.17317.17318a.16631.16631,0,0,1,.11546.05773v.05772l.11545.05773v.11545a.051.051,0,0,1,.05772.05772.23522.23522,0,0,1,.17318.05773l.05773.05773v.05772l.17317.11545.05773.11545ZM13.62327,8.04312v.05773h.11546a.16635.16635,0,0,0-.05773-.11546Zm-.6927,2.309a.23521.23521,0,0,0,.17317.05772h.28863Q13.046,10.2367,12.93057,10.35215Zm-.86589.57726v-.05773q.05772,0,.2309.17318-.05772.11545-.05772.05772-.05773-.05772-.08659-.05772h-.08659Zm9.00521-9.00522V1.86647h.11546l.11545-.05773A.44315.44315,0,0,1,21.474,1.751h.05773l.05773-.05772a.11763.11763,0,0,0,.08659-.02886l.02886-.02887h.05772q.05774,0,.28863.40408a2.95181,2.95181,0,0,1-.49067-.05772A2.95085,2.95085,0,0,0,21.06989,1.92419Zm-6.0612.92361-.11545-.05772Zm-8.77431.51953H6.11893q-.05773-.05772-.08659-.05772H5.97461l-.02886.02886v.14432l-.17318-.17318a.67137.67137,0,0,0-.11545-.17318h.05773l.05772.05773v.11545a.23518.23518,0,0,0,.17318-.05773.07216.07216,0,0,1,.11545,0Zm.05773-.2309q-.05774.11546.05772.05773A.051.051,0,0,0,6.29211,3.13643Zm.05772-.34635.05773.05772Zm2.77084-.34636H9.06294v.05773a.16627.16627,0,0,0,.11545-.05773Zm1.38541.92361-.05772-.11545.05772-.05772Q10.56382,3.30962,10.50608,3.36733Zm0,1.21225-.05772-.05773V4.46412a.23523.23523,0,0,0-.17318-.05772v.05772l.05773.02887.05772.08659ZM4.90669,7.81222v.05772l-.17318.05773A.6712.6712,0,0,1,4.90669,7.81222Zm6.40755.40408v.17317h-.05772l-.05773.05773v.11545h.11545l-.11545.17318-.05772.05772a.051.051,0,0,0,.05772.05773V8.909l-.17317.05772-.34636.40408a2.44594,2.44594,0,0,1-.69271.2309,1.78894,1.78894,0,0,1-.34635.11546,4.4898,4.4898,0,0,1,1.15451-1.09679Q11.31425,8.274,11.31424,8.2163Zm.86589-3.98308h.05773l.05772-.05772V4.11777h-.11545l-.02886.02886Zm.11545.17318a.16634.16634,0,0,0-.11545.05772A.16634.16634,0,0,1,12.29558,4.4064Zm.34636-.46181a.051.051,0,0,0-.05773-.05772.1663.1663,0,0,0-.05772.11545h.05772Zm-1.21224.05773.11545.05772Zm.34635-.23091H11.6606a1.27928,1.27928,0,0,0-.40408.05773q-.11545,0-.11545-.05773h-.05773a.051.051,0,0,0-.05772.05773,1.32952,1.32952,0,0,1-.34636.17318l-.11545-.11545a.70914.70914,0,0,0,.25977-.05773.6195.6195,0,0,0,.202-.11545h.17317l.11545-.05773a.85639.85639,0,0,1,.40409-.2309v.11545l.28862-.17318.02887.02887.08659.02886a.84426.84426,0,0,1,.51953-.17318.443.443,0,0,0,.17317-.05772.443.443,0,0,1,.17318-.05773l.92361-.2309q.05774,0,.80816-.05773a7.914,7.914,0,0,1-1.03906.635.804.804,0,0,1-.34635.05772h-.34636a.49551.49551,0,0,1-.25976.08659,2.47065,2.47065,0,0,1-.25977.02886q-.23091.05773-.51953.11545h-.11545q.05772,0,.11545-.11545t0-.17317l-.05773.05772q-.05772,0-.11545.11545T11.77605,3.77141Zm.05773.17318h.05772l-.05772-.05772h-.05773Zm.05772.51953a.1176.1176,0,0,0,.08659-.02886q.02886-.02886-.02886-.02886V4.34867q-.05773-.11546-.11545,0V4.4064Zm.23091,6.92709a.5123.5123,0,0,1-.23091.05773q.05773-.05773,0-.2309Q12.06468,11.39122,12.12241,11.39121Zm.17317-.05772h-.05772v.05772h.05772Zm.28863.2309a.051.051,0,0,0-.05772-.05773v.05773Zm7.27344,8.02388v-.05773a.07216.07216,0,0,0,0,.11545Zm-.11545,0,.05773.05772Zm-1.15451-.92361L18.53,18.5492a.11756.11756,0,0,1,.08659.02887Q18.64541,18.60693,18.58769,18.66466Zm1.03906-13.4501a.37762.37762,0,0,1-.17318-.17318Q19.62676,5.0991,19.62675,5.21456Zm2.07813.2309.11545.11545ZM2.88629.76968a.1849.1849,0,0,1,.17317.11545.37752.37752,0,0,1,.17318.17318.443.443,0,0,0,.05773.17317l.11545.11545-.11545.11546V1.40466l-.11545-.2309q0-.05773-.11546-.17318L2.97288.914Zm0,.17317q0,.11545.05772.05773T2.88629.94285ZM.05773,1.116q0,.11546.28862.17318A.3392.3392,0,0,0,.05773,1.116ZM4.849,1.46239l.05773.05772a.051.051,0,0,0,.05772.05773l.05773.05772q.05772.05774.05773,0l-.05773-.05772a.051.051,0,0,0-.05773-.05773l-.05772-.05772H4.849Zm.28863.11545q.05772-.11546-.05772-.05773A.051.051,0,0,0,5.13759,1.57784ZM1.905,1.52011v.05773a.16632.16632,0,0,0,.11545.05772h.05773l-.11545-.11545Zm.28863.17318.2309.2309h.17318a1.38522,1.38522,0,0,0-.51953-.34635.051.051,0,0,0-.05773-.05773H1.96268Q2.07812,1.69329,2.19358,1.69329Zm.4618.11545a.18491.18491,0,0,0,.17318.11545q.05773-.05772-.11545-.17318a.23522.23522,0,0,0-.17318-.05772.16629.16629,0,0,0,.05773.11545Zm6.58074.34635a.443.443,0,0,1,.05772-.17317h.05773q.05772.05772.05773.02886V1.92419q-.05773-.05772-.05773-.08659t-.05773-.02886v.05773H9.23612V1.80874H9.17839v.11545Q9.12067,2.09737,9.23612,2.15509Zm-5.77258-.2309q0,.05773.11546.11545a.28058.28058,0,0,0,.05772.14432.43579.43579,0,0,0,.17318.14431h.05772V2.386h.05773a.52033.52033,0,0,0,.46181.34635,1.00438,1.00438,0,0,0,.40408.17318,1.19021,1.19021,0,0,0-.46181-.34636q-.05772-.23089-.11545-.2309H4.0408q-.05772,0-.17318-.11545a1.25184,1.25184,0,0,0-.40408-.34635Zm2.13586.05773q0-.05773-.11545-.05773v.11545Zm-3.40582.34635.05772-.05772a.67154.67154,0,0,0-.17317-.11546.25616.25616,0,0,1-.11545-.02886q-.05773-.02886-.05773.02886A.72453.72453,0,0,0,2.19358,2.32827Zm2.77083-.2309a.11758.11758,0,0,0,.02887.08659q.02886.02886.02886-.02887Q5.07986,2.09737,4.96441,2.09737Zm.75044.2309a.051.051,0,0,0,.05772.05773l.05773-.05773V2.21282H5.71485ZM3.11719,2.27055a.051.051,0,0,0,.05773.05772l.05772.05773a.44307.44307,0,0,0,.17318.05772.347.347,0,0,0-.2309-.2309A.051.051,0,0,0,3.11719,2.27055Zm-1.03906.2309q0-.11546-.17318-.17318L1.84722,2.386l.05773.05772Zm1.61632.05772-.05773-.05772a.16629.16629,0,0,0-.11545-.05773A.6712.6712,0,0,0,3.69445,2.55917Zm8.37023.40408q0-.05772.28863-.2309a1.152,1.152,0,0,1,.80816-.17318,1.75131,1.75131,0,0,1,.51953-.05772h.40408q-.17317,0-.92361-.05773a5.22823,5.22823,0,0,0-.92361.28863.94546.94546,0,0,1-.14432.11545l-.17317.11545-.14432.05773Zm-.98134,0V2.8478l-.02886.05773Zm-6.75391,0q.05772-.11544-.05773-.05772A.051.051,0,0,0,4.32943,2.96325Zm6.81164.51954q.11546.05772.17317-.11546.05773-.05772-.05772-.17317,0-.05774-.05773.11545v.05772A.16634.16634,0,0,0,11.14107,3.48279Zm-.11545,0,.02886-.05773.02886-.08659q.02886-.08658-.02886-.02886t-.05773.02886q0-.02886-.02886.08659v.05773Zm1.15451.2309q.17317-.05772.05773-.2309h-.05773Q12.007,3.656,12.18013,3.71369ZM3.579,3.656a.051.051,0,0,0-.05773-.05772q-.11545-.05773-.11545.05772l.05772.05773H3.579ZM8.94749,4.8682a.051.051,0,0,0-.05773-.05772H8.71659a.051.051,0,0,0-.05773.05772l.17318.05773h.11545l.05773-.05773Zm-1.50087.86589.05773.05773v.05772h.05772a.051.051,0,0,0,.05773.05773.16627.16627,0,0,0-.05773-.11545V5.73409A.07216.07216,0,0,0,7.44662,5.73409Zm10.96789.46181a.37193.37193,0,0,0,.28863,0l.11545-.11546q.11545-.05772.05773-.11545a.33434.33434,0,0,0-.23091.05773.595.595,0,0,1-.2309.11545Zm-8.48568.17317h.05772q0,.05774.05773,0t0-.17317l-.05773-.05773q0-.05772-.05772,0t0,.17318Zm9.69792-.2309a.3916.3916,0,0,0,.28863.11545V6.1959l-.11545-.05773H19.7422l-.08659-.02886-.02886-.02887H19.5113Q19.5113,6.13818,19.62675,6.13817Zm-1.96267.80816h-.05773a.16633.16633,0,0,1-.11545.05773.44307.44307,0,0,1-.17318.05772q-.11546,0-.08659.05773a.09247.09247,0,0,0,.08659.05772h.11545a.62675.62675,0,0,1,.23091-.11545l.05772-.05772Zm-7.10027.40408H10.737V7.2061l-.11545-.02887h-.05773l-.05773.05773a.051.051,0,0,0,.05773.05773ZM9.6402,7.29269h.11545l.08659-.08659.08659-.02887a.44313.44313,0,0,0-.17318.05773Q9.6402,7.235,9.6402,7.29269Zm.57726.86588.05772-.05772a.1176.1176,0,0,0,.08659-.02887l.05773-.05772.02886-.08659q.11546-.11545.17318-.11545a1.11887,1.11887,0,0,1,.51953-.40408h.05772a.16631.16631,0,0,1,.11545-.05773.051.051,0,0,1-.05772.05773.16632.16632,0,0,0-.11545.05772v.05773a.67145.67145,0,0,0-.17318.11545.67145.67145,0,0,1-.17318.11545.65354.65354,0,0,0-.2309.2309l-.11545.11546q-.11545.11544-.17318.11545a.16632.16632,0,0,1-.11545.05772A.16632.16632,0,0,0,10.21746,8.15857ZM4.67578,8.04312A.11759.11759,0,0,0,4.5892,8.072a.0832.0832,0,0,1-.05773.02887H4.44488l-.05772-.05773H4.30057l-.02887.05773q-.11544.11544-.11545.17317a.94482.94482,0,0,0,.23091-.05772l.2309-.05773A.16632.16632,0,0,0,4.67578,8.04312Zm1.50087,0-.05772.05773h.11545V8.04312Zm2.0204.17318a.25835.25835,0,0,1,.14432.17317.14028.14028,0,0,1-.08659.17318l-.14431-.14431-.05773-.08659L8.02388,8.274q0-.05772.08659-.05772Zm1.09679.98133a3.76945,3.76945,0,0,1,.40408-.34635.67162.67162,0,0,1,.11546-.17318l.28862-.28863h.05773l-.202.202-.202.23091q-.202.2309-.11545.14431a.51229.51229,0,0,0-.05773.2309.84424.84424,0,0,1-.17317.28863H9.23612A.28756.28756,0,0,1,9.29384,9.19763ZM14.02735,8.909l-.11545-.05773ZM4.849,9.19763h.11545V9.08218H4.90669l-.11545.11545v.05773Zm-.34635.17318h.05772l.08659-.08659-.02886-.08659-.05773.05773v.05773H4.50261Zm.17317,0,.11546-.05772V9.25536H4.73351l-.05773.05773ZM8.60114,9.544q-.05773.11545.05772.05772Q8.7166,9.48627,8.60114,9.544ZM4.849,10.40987h.05773q.11545,0,.11545-.17317H4.96441l-.02886.05772Zm.86589.40409q-.05774-.05773-.11545.05772a.051.051,0,0,0,.05772.05773h.05773q.05772,0,0-.05773l.05772-.05772Zm.05772.11545H5.8303l.05773-.05773H5.8303Zm7.21572.40408.05773.05772.11545.05773.05772.05772v-.05772a.1663.1663,0,0,0-.05772-.11545Zm-.51953,2.71311q0-.05773-.02886-.05773h-.08659a.33259.33259,0,0,0-.2309.11545v.08659l.05772.02886a.18855.18855,0,0,0,.2309-.05772q.11545-.05774.11546-.11545Zm.05773.92361a.94448.94448,0,0,0,.2309-.05773v-.17317h-.17318a.23519.23519,0,0,0-.05772.17317Zm.17317.86588a.07216.07216,0,0,1,0,.11546q-.05772.05772-.08659.05772h-.08658q-.05774.05772-.08659.02886l-.02887-.02886a.16633.16633,0,0,1,.05773-.11545.37757.37757,0,0,1,.17318-.17318h.05772Zm2.19358-.05772q.05772,0,.11545.17318v.28862a.16634.16634,0,0,0-.05772-.11545.443.443,0,0,1-.05773-.17317Zm.34636.17318h-.02887l-.02886.02886q-.02886.02886.05773.08659,0,.05772.02886.02886a.11762.11762,0,0,0,.02886-.08659v-.05772ZM17.26,16.067a.051.051,0,0,0-.05773-.05773.16632.16632,0,0,0-.11545-.05772q-.17317.05772-.11545.17317-.05774.05773.11545.17318.2309.05772.2309-.11545A.16632.16632,0,0,0,17.26,16.067Zm-1.5586.28863a.16634.16634,0,0,1-.05772-.11546l-.05773-.05772v.11545q.05772,0,.05773.02886v.02887Zm-.635.17317h-.05773l-.05772.05773v.05772a.16627.16627,0,0,0,.11545.05773q.05772,0,0-.05773Zm2.42448.17318q.11546,0,.05772-.11545l-.05772-.05773-.11545.05773Zm-1.61632.40408v-.05773a.23517.23517,0,0,0-.05773-.17317v-.05773l-.05772-.14431-.05773-.08659-.05772-.05773H15.586l.05773.17318.08658.08659.05773.08659q.05772.08658.02886.11545a.60017.60017,0,0,0,.02887.2309.45209.45209,0,0,0,.08658.11545q0,.17319.05773.17318a.051.051,0,0,0,.05773-.05772A.16635.16635,0,0,0,15.99,17.337Zm-.40408-.2309q.05772-.17318.11545-.11545v.17317a.051.051,0,0,0-.05773.05773.94478.94478,0,0,1-.05772.2309l-.05773.05773q-.17318.4618-.2309.635v.17318a.44313.44313,0,0,0-.05773.17318V18.376q-.11544,0-.11545-.05773a.11759.11759,0,0,1,.02887-.08659l.02886-.02886q.17317-.46181.34635-.98134v-.2309A.16629.16629,0,0,1,15.4705,16.87516Zm-1.32769.05772a.051.051,0,0,0,.05772.05773q.05773-.05772.02886-.08659T14.14281,16.93288Zm5.253.46181a.051.051,0,0,0-.05773.05773.11409.11409,0,0,0,.05773.17317h.11545v-.11545Q19.45358,17.39469,19.39585,17.39469Zm-17.95271.51953v-.11545L1.38542,17.741,1.27,17.68332v-.11545q.05772-.05774.05772-.08659T1.27,17.39469q-.17319-.11546-.17318-.17318-.05772-.05772-.05773-.08659t-.05772-.02886a.23519.23519,0,0,0-.05773-.17318H.86589v.23091a.919.919,0,0,0,.28862.51953.051.051,0,0,0,.05773.05772v.05773L1.27,17.8565l.11545.05772a.051.051,0,0,1,.05772.05773Zm2.53994,1.90495v.05773a.44313.44313,0,0,1-.17318-.05773l-.05773-.05773H3.69445L3.579,19.70372H3.46354a.051.051,0,0,0-.05772-.05773H3.29037a.051.051,0,0,0-.05773-.05772H3.17492l-.11546-.11545L2.944,19.41509a1.23849,1.23849,0,0,1-.28863-.2309,2.453,2.453,0,0,1-.34635-.23091q-.05772-.11544-.202-.34635a2.03031,2.03031,0,0,0-.202-.28863Q1.674,17.8565,1.73177,17.741a.67162.67162,0,0,0,.17318.11546.67137.67137,0,0,1,.17318.11545,3.06759,3.06759,0,0,0,.69271.98133,3.89592,3.89592,0,0,0,.635.46181.94448.94448,0,0,1,.2309.05773l.05773.05772V19.646a.25607.25607,0,0,1,.11545.02887l.05772.02886Q3.98307,19.76144,3.98308,19.81917Zm9.72678-1.93381q-.02886.02886.02887.08659.05772-.05774.02886-.08659A.03609.03609,0,0,0,13.70986,17.88536Zm-.54839.72157q0-.23089.11545-.28863Q13.33464,18.43375,13.16147,18.60693Zm4.38715-.11545q.05774.11546,0,.11545a.07216.07216,0,0,1-.11545,0h-.05772a.23518.23518,0,0,1-.05773-.17318V18.376q0-.05774.05773,0h.05772ZM4.44488,7.58131a.6712.6712,0,0,0,.17318-.11545h-.2309q-.05773-.05772-.17318,0l-.05773.05773q-.11544.05772-.05772.11545,0,.05772.11545.05773l.08659-.08659.08659-.02887Zm.837,2.742-.08659.08658-.05773.11546L5.253,10.4676q0-.05772.11545-.11545v-.05773H5.33963ZM9.8711,3.25188a.051.051,0,0,0,.05773.05773l.05772-.11545a.07215.07215,0,0,0,0-.11545H9.92883Zm4.27171,5.3685h-.11546V8.6781h.11546ZM4.56033,8.6781q-.05772-.05772-.05772,0h0a.05773.05773,0,1,0,.11545,0Zm13.4501,10.15973H17.9527a.051.051,0,0,0,.05773.05773Zm-4.56033.69271q-.11546-.40407.11545-.57726Q13.73872,19.18419,13.4501,19.53054Zm4.67578-.40408q.05774.05772.08659.02886t-.02886-.08658h-.05773Zm-3.23264.51953q.17317-.28863.05773-.4618Q14.77778,19.29964,14.89324,19.646Zm4.15625.14432q0-.02886-.05772-.02887l-.05773.05773v.05773a.16634.16634,0,0,0,.11545.05772Zm3.3481,4.47374.05772.05773.08659.202q.0866.202.02886.202h0a.88559.88559,0,0,1-.2309-.40408Zm-9.06294-7.44662h.05772l.08659-.02886q.08659-.02886-.02886-.08659,0-.11545-.11545-.05773Zm.11545.635q0-.05773-.02887-.05773a.102.102,0,0,0-.08658.08659v.02886Q13.45009,17.56786,13.4501,17.45242Zm1.09679-.98134v-.05773l-.05773-.05772q0-.05774-.05773,0v.05772l.05773.11545q.05772.11546.08659.02887T14.54689,16.47108Zm.17317-.92361h-.05772l-.05773-.11546a.051.051,0,0,0-.05772-.05772q-.05773-.05772-.05773-.08659v-.08659l-.05773-.05772q0-.11545.05773-.11546.11545,0,.11545.23091v.11545Q14.72007,15.48975,14.72006,15.54747Zm1.3277.75043v.05773a.07215.07215,0,0,0,0,.11545.051.051,0,0,0,.05772-.05773Zm5.54167,5.5994a.09246.09246,0,0,0-.05773-.08659.25619.25619,0,0,0-.11545-.02886l.05772.05772v.05773a.051.051,0,0,0,.05773.05772q0,.11546.05773.05773A.07216.07216,0,0,0,21.58943,21.8973Zm-.05773.86588v.11545h.05773v-.05772Zm-.57726.57726v.11545h.02887l.02886-.05772Q21.06989,23.34044,20.95444,23.34044Zm-.202.7793a.1176.1176,0,0,0-.02886.08659h.05773V24.1486Zm4.18512-11.11221v-.05772a.051.051,0,0,1-.05773-.05773V12.7189l.05773-.05772.05773.17318v.05772a.16634.16634,0,0,1,.05772.11545.051.051,0,0,1,.05773.05773v.11545H25.053V13.123ZM4.849,1.86647h.11545l.05773.05772a.051.051,0,0,0,.05773-.05772q0-.05774-.08659-.05773T4.90669,1.751H4.79124A.16634.16634,0,0,0,4.849,1.86647Zm21.3008.80816h.05773a.07216.07216,0,0,0,.11545,0V2.6169q-.05773-.17317-.17318-.11545a.16633.16633,0,0,0-.05773.11545Q26.03431,2.67462,26.14976,2.67463Zm-5.8303-1.03907h.02886l.02887-.05772q.02886-.05773-.05773-.05773-.05772-.05772-.05773,0-.05772,0,0,.05773ZM3.00174,1.98192q.05772.05772.05772-.02887t-.05772-.02886Zm.11545.34635q-.05772-.11545-.11545-.05772-.05774,0,0,.05772A.07215.07215,0,0,0,3.11719,2.32827Zm0,1.03906q0,.05774.11545.05773.05774,0,.05773-.02886a.08314.08314,0,0,0-.02887-.05773Q3.23264,3.30961,3.11719,3.36733Zm.92361-1.674h.05773a.16627.16627,0,0,0-.05773-.11545.16629.16629,0,0,0-.11545-.05773Q3.92535,1.57783,4.0408,1.69329Zm0-.40408q.05774,0,0-.05773a.051.051,0,0,0-.05772-.05772H3.92535a.102.102,0,0,0,.11545.11545ZM1.44314,2.50145q-.17318-.05774-.202-.02886T1.27,2.55917l.11545.11546h.11545V2.6169L1.472,2.55917ZM.75043.65423A1.72073,1.72073,0,0,1,.51953.48105.1663.1663,0,0,0,.46181.3656.16631.16631,0,0,0,.34635.30787.16632.16632,0,0,1,.28863.19242a.595.595,0,0,1,.2309.11545A.28052.28052,0,0,1,.66385.3656,1.41184,1.41184,0,0,0,.80816.45218.61927.61927,0,0,1,.95247.56764a.23644.23644,0,0,0,.14432.08659.1663.1663,0,0,1,.05772.11545q0,.05772-.11545.05772A.84443.84443,0,0,1,.75043.65423Zm.17318.2309H.86589V.94285l.17317.17318a.37762.37762,0,0,0,.17318.17318q.23091.17318.28863.05772a.16631.16631,0,0,0-.05773-.11545L1.21224,1.116q0-.05772-.08659-.08659A.36219.36219,0,0,1,.98134.94285Zm6.23438.635h.05773l.11545.05773q.05772,0,0-.05773a.16632.16632,0,0,1-.11545-.05772.16631.16631,0,0,0-.11545-.05773h0l.05772.05773Zm.28863.635h.05773V2.09737a.051.051,0,0,0-.05773-.05773q-.05772,0-.05773.02887t.05773.02886ZM4.56033,3.54051q.05773,0,0-.02886l-.11545-.05773-.11545.02887q-.05772.11544.11545.17317l.05773-.05772ZM1.905.13469q.05772,0,.05773-.02886T1.87609.01924Q1.7895-.03848,1.7895.077,1.7895.13469,1.905.13469ZM5.77257,2.50145a.07217.07217,0,0,0,.11546,0V2.44372H5.77257ZM21.82033,23.62907v.05772a.44318.44318,0,0,1,.05773.17318.16634.16634,0,0,1-.11546-.05772q-.11544-.11545-.11545-.17318-.11546-.11545-.11545-.17318a.51239.51239,0,0,1-.05773-.2309v-.05773h.05773l.17318.23091A.595.595,0,0,1,21.82033,23.62907Zm.34635-.46181q.11545.11546.11546.17318v.11545q-.05774,0-.11546-.11545a.33265.33265,0,0,1-.11545-.2309.07215.07215,0,0,1,.11545,0ZM21.12762,22.59h-.11545l.05772.05772v.05773h.08659l-.02886-.05773Zm-.57726-.40408q0-.05774-.11545-.11546v.08659l.05773.08659.05772.05773Zm.635-.57726h.05772v.17318q-.11546.05772-.14431,0a.402.402,0,0,1-.02887-.17318v-.202l.05773-.02886h0v.14431Zm.92361.34635-.05773-.05772v-.02887l-.05772-.02886h0a471.2408,471.2408,0,0,0,.11545.11545Zm-.46181.23091a1.71916,1.71916,0,0,1,.17318.2309.9078.9078,0,0,1,.11545.31749q0,.08659-.11545.02886a.608.608,0,0,1-.2309-.51953Zm-1.61632,1.38541q.05772-.05772.11545.05773a.62069.62069,0,0,1,.11545.34635q-.05772,0-.11545-.11545A.56108.56108,0,0,1,20.03083,23.57134Zm-.28863-3.11719.11545.05773v.05773a.16627.16627,0,0,1,.05773.11545q0,.05772-.02886.05772h-.02887l-.11545-.11545a1862.7428,1862.7428,0,0,0-.11545-.2309Q19.7422,20.39643,19.7422,20.45415Zm.40408.57726V20.916l-.17317-.17318v.08659l.02886.05773a.22149.22149,0,0,1,.02886.08659l.05773.05772Zm-.86588-1.32769a.44312.44312,0,0,0,.05772.17318h.05773l.02886-.02887v-.05772l-.05772-.05773Zm-.635-.2309H18.53v.05772l.05773.05773V19.646q.05772.05773.08659.05773t.02886-.05773q.05772,0,0-.11545Zm-.28862-.28863v.05772a.051.051,0,0,0,.05772.05773v-.05773ZM12.007,15.54747v.11545l.05773.05772v.05773l-.11545-.11545v-.05773Zm5.3685.6927.05772.11546.05773.05772a.25619.25619,0,0,0-.02886-.11545q-.02887-.05772-.14432-.05773Zm.11545.05773a.16629.16629,0,0,0-.05773-.11545l-.05772-.05773a.1663.1663,0,0,0,.05772.11545Zm1.38542.57726h0q0,.11545.05772.11545A.16632.16632,0,0,0,18.87632,16.87516Zm.28863-.11545q0,.11544.05772.11545A.1663.1663,0,0,0,19.165,16.75971ZM3.23264,19.18419a.09246.09246,0,0,0,.05773.08659.22149.22149,0,0,0,.08659.02886h.08658l.05773.05772H3.579a.051.051,0,0,0-.05773-.05772.051.051,0,0,0-.05773-.05773H3.34809a.443.443,0,0,0-.17317-.05772Zm-1.09679-.28863a.11763.11763,0,0,1-.08659-.02886.22825.22825,0,0,0-.14431-.02887.16629.16629,0,0,0,.11545.05773q.05772.05772.08659.05772h.02886ZM.69271,16.93288q-.05772,0-.08659-.08659t-.08659-.08658q-.05772-.05774-.05772,0v.17317a.4431.4431,0,0,1,.17317.05773l.11545.05772H.80816Zm3.92535-6.2921H4.56033v.05772l.05773-.02886v-.02886Zm-.17318.05772.08659-.08658-.02886-.02887-.05773.05773Zm.17318-.635q0-.05772-.05773,0a.051.051,0,0,1-.05772.05773h.05772a.16632.16632,0,0,0,.11545-.05773ZM4.50261,8.2163a.051.051,0,0,0-.05773.05772V8.2163a.1663.1663,0,0,0-.05772.11545A.16627.16627,0,0,1,4.50261,8.274Zm-.34636-.80816a.051.051,0,0,0-.05772.05772Zm.51953,1.61632a.051.051,0,0,0-.05772.05772H4.56033l.17318-.05772Zm.28863,1.03906a.07215.07215,0,0,0,0-.11545q-.05772,0-.05772.11545Zm-.28863.2309-.11545.05773h.05773Zm-.28862-.98133q.05772-.05774,0-.05773ZM4.61806,8.274a.11762.11762,0,0,0,.08659-.02886q.02886-.02886-.02887-.08659Zm1.84722.17318V8.38947a.051.051,0,0,0-.05772.05773ZM9.75565,7.11951q-.05772-.05774-.05773,0Zm1.03906-.46181q.11545,0,.11545-.05772Zm-.51953,1.09679-.05772.05773a.051.051,0,0,0-.05773.05772h.05773A.1663.1663,0,0,0,10.27518,7.75449ZM8.88976,9.42854H8.832l.05772.05772a.051.051,0,0,0,.05773-.05772Zm-.635-.69271v.05772a.051.051,0,0,0,.05773-.05772Zm2.13585-1.15452V7.52359h-.05772Zm-1.674-2.53993h.05772V4.98366ZM5.65712,6.25362q0,.05774.05773,0Zm-2.36675.05773L3.377,6.22476,3.34809,6.1959q-.02886-.02887-.17317.05772Q3.17492,6.31136,3.29037,6.31135ZM2.19358,4.57958l.05772-.05773H2.19358Zm16.39411.98133q.05772.05774.17318,0l.05772-.05772V5.47432l-.05772-.02886-.05773.05773A.16632.16632,0,0,0,18.58769,5.56091Zm-.34636.75044q-.05772,0-.17317.17317a.11759.11759,0,0,0,.08658-.02886l.08659-.08659Zm.98134-1.15452H19.165a.09244.09244,0,0,0-.08659.05773q-.02887.05772.05772.02886T19.22267,5.15683Zm2.2513-.92361A.20409.20409,0,0,0,21.3008,4.06v.05773l.05772.05773Zm-.05772.2309.05772.05773V4.4064h-.05772Zm2.19358,0L23.5521,4.4064v.05772q-.05772.05773,0,.05773,0,.05772.05773,0h.05772Zm2.2513,7.158v-.05773l-.11545.2309a1.72014,1.72014,0,0,1-.17318.23091l-.05772.05772a.1176.1176,0,0,0-.08659.02886l-.08659.08659h-.05773a.16634.16634,0,0,0,.11546-.05772l.11545-.17318q.17318-.17317.2309-.17318A.67155.67155,0,0,1,25.86113,11.62212Zm.51953-8.65887a.051.051,0,0,0,.05773-.05772q0-.05774-.02886-.02886A.11755.11755,0,0,0,26.38066,2.96325Zm0,.23091a.051.051,0,0,0-.05772.05772l-.05773.05773a.102.102,0,0,0,.11545-.11545ZM4.96441,3.07871l-.05772.05772Zm.11546.17317.11545.05773A.11758.11758,0,0,0,5.16645,3.223a.22834.22834,0,0,0-.14431-.02886Zm.2309.11545.05772.05773V3.36733l-.05772-.05772q-.05773,0,0,.05772ZM4.849,3.48279,4.76237,3.3962l-.08659-.02887H4.61806l.11545.05773h.05773A.051.051,0,0,0,4.849,3.48279Zm-.11545-.17318q-.05772.05772,0,.05772H4.849V3.30961Zm0,.40408v.05772h.05773q.05772-.05772,0-.05772Zm-.2309.17318-.05773-.05773a.05773.05773,0,0,0,0,.11545V3.88687ZM4.2717,3.19416a.16633.16633,0,0,0,.05773.11545V3.25188A.051.051,0,0,0,4.2717,3.19416ZM2.77084.712h.05772A.16634.16634,0,0,1,2.944.65423.16631.16631,0,0,1,3.05946.5965H2.88629q-.11545,0-.11545.05773Zm-1.03907.28863L1.67405.94285A.051.051,0,0,0,1.73177,1.00058ZM.46181.94285v.05773H.57726L.51953.94285Q.51953.88513.46181.94285ZM1.61632.3656Q1.5586.25015,1.55859.30787Zm1.7895.86588A.25619.25619,0,0,0,3.377,1.116q-.02887-.05772-.08659,0l.05772.05773Zm1.21224.23091a.443.443,0,0,0-.17318-.05773v.05773a.23523.23523,0,0,0,.17318.05772Zm.34635-.11546V1.28921l-.05772.05772Zm-1.27,1.50087a.11759.11759,0,0,0-.02887-.08659q-.02886-.02886-.02886.02887A.051.051,0,0,0,3.69445,2.8478ZM1.96268,1.751H2.0204A.16632.16632,0,0,0,1.905,1.69329ZM5.253,3.13643l.05773.05773h.05772Q5.36849,3.07871,5.253,3.13643ZM4.0408,3.19416V2.96325a.23521.23521,0,0,0-.05772-.17317.051.051,0,0,0-.05773.05772v.11545l.11545.17318Zm-.98134-1.5586q.05773-.05772-.05772-.05772Zm-1.21224.635q.05773,0,0-.05773H1.7895v.05773Zm.28863-.23091.05773.11545-.05773-.05772Zm-1.674-.635a.051.051,0,0,0-.05773-.05773q-.05772,0,0,.05773Zm2.944,1.21224q0-.05772-.02886-.02886a.03606.03606,0,0,0,0,.05772q.02886.02886.02886-.02886Zm.2309-.2309H3.579a.07216.07216,0,0,0,.11545,0Zm1.44315.69271H4.96441a.051.051,0,0,0,.05773.05772h.11545ZM4.73351,3.021H4.67578v.05773A.051.051,0,0,0,4.73351,3.021Zm6.63846-.2309V2.73235q.05772,0,0-.05772t-.05773.05772Zm-1.674-.46181h.08659l-.02886-.05772L9.69792,2.386Zm-.05772.46181h.05772V2.73235a.051.051,0,0,0-.05772-.05772Q9.58247,2.67463,9.6402,2.79008Zm-.2309-.11545H9.467v.11545H9.4093q.17317.05772.17317,0l-.05772-.05773V2.70349L9.467,2.6169H9.4093Zm2.309.92361a.051.051,0,0,0-.05773.05772q-.05772.05773-.02886.08659l.02886.02886a.11759.11759,0,0,1,.02886-.08658l.02887-.02887Q11.77605,3.59824,11.71833,3.59824Zm5.42621-2.19358a.1176.1176,0,0,1,.08659.02886.11763.11763,0,0,0,.08659.02887L17.26,1.43352Zm.51954.28863V1.751h.05772l-.11545-.11545v.05773Zm2.71311,3.69445V5.30115l-.05773-.02887V5.33Zm.17317.28862q0,.05774.02887.02887a.11762.11762,0,0,0,.02886-.08659l-.11545-.11545q-.11546-.05774-.11545,0v.05772l.05772.11545Zm-.17317.40408h.05772L20.37719,5.965q-.05774,0-.05773.11545Zm-4.04081-.40408a4.094,4.094,0,0,0,.51954-.17317q.17317-.11546.17317-.17318t-.05772-.02886l-.46181.2309-.08659.05773-.02886.02886h-.05773Zm.86589-.4618a.102.102,0,0,0-.11545.11545h.11545L17.26,5.27228V5.15683ZM14.54689,7.03292q0-.02886-.05773.02886a.102.102,0,0,0-.11545.11545V7.235q.05772.05772.17318-.11545Zm-.34636.66385a.23523.23523,0,0,0,.17318-.05773q.11545-.05772.11545-.11545a.16629.16629,0,0,1-.11545-.05773L14.316,7.40814a.28754.28754,0,0,0-.28863.05772.44312.44312,0,0,0-.05772.17318A.18857.18857,0,0,0,14.20053,7.69677Zm.34636-.34636a.07217.07217,0,0,0-.11546,0,.09429.09429,0,0,0-.02886.11545q.02886.05773.08659,0A.16633.16633,0,0,0,14.54689,7.35041Zm-.23091,0,.05773-.05772a.07215.07215,0,0,0-.11545,0l-.05773.05772.05773.05773Zm-.2309.05773q.05772-.05774,0-.05773l-.05773.05773Zm-.28863,2.07812V9.544h.05773l.02886-.02886V9.48626Zm0,.40408.02886-.05772-.02886-.05773q-.02886-.05772-.05772.05773T13.79645,9.89034Zm-.05772.34636-.05773.05772a.47461.47461,0,0,1,.14431.02887.47491.47491,0,0,0,.14432.02886q.11545.05772.11545.02886t-.11545-.08659A.33432.33432,0,0,0,13.73873,10.2367Zm-.69271.86588a.11763.11763,0,0,0,.08659-.02886.03607.03607,0,0,0,0-.05772q-.02887-.02887-.08659.02886Zm-.05773-.17317h-.05772l-.05773.05772.05773.05773ZM3.98308,3.59824V3.656l.05772-.05772Zm-.92362-.46181v.05773l.05773-.05773Zm.17318-1.21224-.05772-.05772q-.05774.05772,0,.05772Zm.11545-.11545-.05772.05773h.05772Zm.05773-.57726q0,.05774.02886.05773h.02886A.051.051,0,0,1,3.40582,1.23148Zm-.86589.34636h.05773a.051.051,0,0,0-.05773-.05773Zm23.37893,1.674h.05772V3.19416q0-.05774-.11545-.05773A.16627.16627,0,0,0,25.91886,3.25188Zm.11545.05773V3.25188a.051.051,0,0,0-.05773.05773ZM1.61632,17.741l-.05773-.05772a.051.051,0,0,1-.05772-.05773v-.05772a.07215.07215,0,0,0-.11545,0v.11545a.051.051,0,0,0,.05772.05772h.05773a.11758.11758,0,0,1,.08659.02887.08315.08315,0,0,0,.05772.02886q.02887,0,.02887-.05773ZM0,16.41335l.05773.05773v.05772l.05772-.05772Zm2.07813,2.88629a.051.051,0,0,0,.05772.05772v-.05772Zm.17317.40408q-.05772-.05772-.05772,0T2.2513,19.70372Zm.11546-.34636H2.309a.051.051,0,0,0,.05773.05773h0Zm.2309.11546q-.05773-.05774-.05773,0Zm-.46181-.05773v.05773h.05773Zm.23091.28863.11545.05772a.051.051,0,0,0-.05773-.05772Zm.34635-.11545v-.05773l-.05773.05773ZM24.87979,14.0466h-.05772l.05772.11545Zm-.2309.2309v.05773h.05773Zm-9.92883,1.674-.05772-.05773v.11545h.05772Zm.05773.2309-.05773.05772h.05773Zm1.09679.34635.05772.05773q0,.05772.05773,0H15.9323V16.5288l-.05772-.05772Zm-.28863-.51953V16.067q.05772-.11545-.05773-.11545ZM15.9323,14.797l-.05772-.05772Zm-.2309,0,.05773.05773a.051.051,0,0,0,.05772-.05773A.07216.07216,0,0,0,15.7014,14.797Zm6.23438.40408q0,.05772-.05772.02886a.25623.25623,0,0,0-.11546-.02886h.05773l.05773.05773h.11545Zm-2.2513,2.65539.05772.05772V17.8565Zm-.05773,2.36675H19.569V20.281h.05772Z"/>
    </g>
  </g>
</svg>
