<svg xmlns="http://www.w3.org/2000/svg" viewBox="0 0 14.95097 29.55558">
  <title>hive</title>
  <g id="Layer_2" data-name="Layer 2">
    <g id="Layer_1-2" data-name="Layer 1">
      <path d="M1.84722,11.6606l.05773-.05773h.05773v-.05772q-.34636-.51954-.40409-.57726a.41348.41348,0,0,1-.05772-.46181q.11545.11545.11545.14432t.17318-.08659l.17318.2309a1.33666,1.33666,0,0,1,.17317.28863l.17318.17318v-.05773a.6425.6425,0,0,1,.05773-.28863q.05772-.11544-.11546-.28862-.05772,0-.11545-.17318-.05772,0-.08659-.08659a.36222.36222,0,0,0-.08658-.14431.49932.49932,0,0,0-.40409-.23091q0-.11544-.17317-.2309a.051.051,0,0,1-.05773-.05773q0-.05772-.40408-.34635l-.2309-.2309a.4465.4465,0,0,1,.40408.11545L1.27,9.4093a.32909.32909,0,0,0,.34635.11545H1.7895q0,.05772.28863.2309.11544-.11545.11545-.17318a.41689.41689,0,0,1,.34635.14432q.11545.14432.17318-.02887Q2.944,8.60113,2.944,8.54341a3.67118,3.67118,0,0,1,.28863-.92361,7.68119,7.68119,0,0,1,.28863-.80816,3.66443,3.66443,0,0,1,.202-.49067l.08659-.08659.28863-.86589a.26147.26147,0,0,0,.05772-.28862q-.05772,0-.11545-.23091.11545-.05772,0-.2309A.59965.59965,0,0,0,3.8099,4.214q-.05772-.05772-.17318-.202a1.44308,1.44308,0,0,1-.14431-.202.49542.49542,0,0,0-.14432-.14432L3.23264,3.579a.67163.67163,0,0,1-.11545-.17318.47486.47486,0,0,1,.14431.02886.63971.63971,0,0,0,.202.02886.39164.39164,0,0,1,.28863-.11545l-.11545.11545q-.11545.05774,0,.11546.05773,0,.17318.28862.05772.05773.17318,0l.05772.05773h.11545A.16629.16629,0,0,0,4.214,3.8099a.33424.33424,0,0,0-.05773-.2309q-.05772,0-.05772-.11546l.2309.17318.11545.11545a.18855.18855,0,0,0,.2309-.05772,1.31093,1.31093,0,0,0,.40409-.69271A.33922.33922,0,0,1,5.253,2.71311l.23091-.2309a2.39432,2.39432,0,0,0,.51953-.635,5.13792,5.13792,0,0,0,.28863-.51953A.90867.90867,0,0,1,6.523.98134,3.14718,3.14718,0,0,0,7.10027.46181q.11544-.11545.11545-.17318Q7.50435.17317,7.50435,0q.17317.23091.2309.2309A.33263.33263,0,0,1,7.8507.46181V.51953q.05772,0,.25977.202l.31749.31749a.55633.55633,0,0,1,.2309.28863,2.62446,2.62446,0,0,0,.34636.635q.05772,0,.05772.11545a.73579.73579,0,0,0,.34636.34635.39677.39677,0,0,1,.08658.202q.02887.14431.25977.14432.05772.23089.11545.2309a.919.919,0,0,0,.28863.51953l.05773.11545a.25141.25141,0,0,0,.34635.05773L10.737,3.579a.94448.94448,0,0,0-.05773.2309q0,.17318.17318.11545a.30941.30941,0,0,0,.34635-.2309.16632.16632,0,0,1,.05773-.11545l.17318-.11546a.87156.87156,0,0,0,.51953-.2309q0,.05774-.17318.2309l-.86589.86589-.05772.11545a.51229.51229,0,0,0-.05773.2309.1849.1849,0,0,1-.11545.17318v.23091h.17318v.05772l.11545.92361a.23518.23518,0,0,0,.05773.17318.96367.96367,0,0,1,.28862.40408q.17319.40408.46181,1.03906a.71027.71027,0,0,1,.11545.28863v.05773a10.462,10.462,0,0,0,.28863,1.03906,1.79026,1.79026,0,0,0,.11545.40408l.11545.17318h.05773q.17318-.11545.28863,0a.25141.25141,0,0,0,.34635-.05773l.11545-.05772a.07216.07216,0,0,1,.11546,0,.18857.18857,0,0,0,.2309-.05773l.14431-.14431.14432-.08659a.56108.56108,0,0,1,.28863-.11545.18491.18491,0,0,1-.11546.17317.9048.9048,0,0,0-.2309.17318.09245.09245,0,0,0-.08659.05773.09245.09245,0,0,1-.08659.05772q-.11544.11545-.11545.17318a.22634.22634,0,0,0-.17317.2309.234.234,0,0,0-.28863.11545q0,.05773-.08659.11546t-.08659.11545a1.68743,1.68743,0,0,0-.14431.17317,1.6865,1.6865,0,0,1-.14432.17318.25142.25142,0,0,0,.05773.34636l.05772.11545A.73.73,0,0,1,13.046,10.737l.11545-.23091a.67145.67145,0,0,0,.11545.17318.3623.3623,0,0,0,.08659-.14431q.02886-.08659.08659-.08659,0,.05772.11545.17318l.05772.05772a.34694.34694,0,0,1-.2309.2309,1.4898,1.4898,0,0,0-.51953.635,1.42038,1.42038,0,0,0,.57726-.23091v.11546h-.05773v.05772q.05773.11545-.2309.46181-.86589,1.03907-.92361,1.15451t-.57726.98134l-.05773.05773a1.25184,1.25184,0,0,0-.34635.40408,3.13149,3.13149,0,0,1-.34636.57725l-.02886.05773-.02886.08659q-.02886.08658-.28863.66384a3.16578,3.16578,0,0,1-.17318.40408.88625.88625,0,0,0-.11545.34636,7.16764,7.16764,0,0,0-.34635.92361q-.05773,0-.11545.08659a.946.946,0,0,1-.11546.14431q-.17317.4618-.40408.98134a2.56167,2.56167,0,0,1-.2309.46181q-.05772,0-.11545.11545l-.02886.17318-.08659.2309a6.77928,6.77928,0,0,0-.28863.80816q-.05772.2309-.17318.635a2.47655,2.47655,0,0,0-.11545.635,3.99353,3.99353,0,0,0-.11545.4618,2.88139,2.88139,0,0,0-.05773.34636.66183.66183,0,0,1-.05772.202.6615.6615,0,0,0-.05773.202v.17317q-.11545.75043-.11545.86589v1.03906A3.47219,3.47219,0,0,1,7.793,25.688a3.74851,3.74851,0,0,0-.05772.60612,2.01678,2.01678,0,0,1-.05773.49067v.51953a5.59522,5.59522,0,0,0-.05772,1.03907v.17318l-.05773.17317v.69271a.23522.23522,0,0,1-.05772.17318v-.11545a4.71132,4.71132,0,0,0-.11546-.80816v-.69271l-.05772-.23091a1.81435,1.81435,0,0,0-.02886-.28862,2.28509,2.28509,0,0,1-.02887-.37522.71993.71993,0,0,0-.05772-.31749v-.46181l-.05773-.2309q-.05772-1.3277-.05772-1.38542-.11546-.92361-.17318-1.27a1.62194,1.62194,0,0,0-.02886-.31749q-.02887-.14432-.05773-.25976T6.75391,22.513a.94977.94977,0,0,1-.05772-.28863q0-.05772-.17318-.86589-.23091-.86587-.40408-1.38541a6.02632,6.02632,0,0,1-.40408-.89475q-.23091-.60612-.34636-.89475-.05772-.17318-.14431-.37522T5.051,17.43317Q4.96442,17.26,4.849,17.058a2.11571,2.11571,0,0,1-.17318-.37522,3.11514,3.11514,0,0,0-.202-.51953q-.202-.4618-.31749-.69271a.36246.36246,0,0,1-.08659-.14432L4.0408,15.2396a8.35326,8.35326,0,0,0-.4618-.80817q-.17319-.2309-.92362-1.61632A6.19515,6.19515,0,0,0,1.84722,11.6606Zm7.793-4.38716q0,.11545-.05773.11545a9.54606,9.54606,0,0,0-.4618,1.27q-.05774.11545-.25977.5484a4.06971,4.06971,0,0,0-.25976.66384.52666.52666,0,0,0-.02887.28863,1.9171,1.9171,0,0,0,.14432.34635.90461.90461,0,0,1,.17317.23091.50229.50229,0,0,0,.08659.202,1.11654,1.11654,0,0,0,.14432.202.71141.71141,0,0,1,.11545.40408,3.99353,3.99353,0,0,0,.11545.4618v.11546l.05773.05772.05772.17318a1.79026,1.79026,0,0,0,.11545.40408.5564.5564,0,0,0,.23091-.28863l.2309-.46181.11545-.11545q.17318,0,.28863-.28863a1.03473,1.03473,0,0,1,.34635-.51953.1849.1849,0,0,0,.11545-.17318,2.1421,2.1421,0,0,0-.2309-.86588.84157.84157,0,0,1-.11545-.34636L10.535,9.61134,10.50608,9.467q-.2309-.75043-.28862-.98134A1.32351,1.32351,0,0,1,10.102,8.0816a.16634.16634,0,0,0-.05772-.11545Q9.98655,7.8507,9.6402,7.27344Zm-4.38716,0-.11545.28863a3.82165,3.82165,0,0,0-.17318.51953,2.19775,2.19775,0,0,1-.2309.57726q-.05772.17317-.17318.5484t-.17317.54839L4.0408,10.79471a.33267.33267,0,0,0,.11545.23091,3.03325,3.03325,0,0,1,.28863.4618,1.54089,1.54089,0,0,0,.28863.40408.90466.90466,0,0,1,.17318.23091,2.85494,2.85494,0,0,0,.40408.57725l.05772-.05772q.11545-.4618.17318-.46181.05772-.17318.17318-.75043a1.78919,1.78919,0,0,1,.11545-.34636l.11545-.11545a4.96958,4.96958,0,0,1,.34636-.75043.37192.37192,0,0,0,0-.28863,3.80866,3.80866,0,0,0-.23091-.635l-.05772-.17317a5.24955,5.24955,0,0,1-.23091-.5484l-.2309-.635-.2309-.5484Zm2.0204-.34635q.17317,0,.17318-.11545a1.82713,1.82713,0,0,0,.17318-.40408,1.1166,1.1166,0,0,0,.14431-.202q.08659-.14432.14432-.25977a2.262,2.262,0,0,1,.2309-.51953V5.36849a.366.366,0,0,0,.08659-.17317,1.12763,1.12763,0,0,1,.08659-.23091l.11545-.2309A.78671.78671,0,0,0,8.48568,4.214,3.30841,3.30841,0,0,0,8.0816,3.17492.09248.09248,0,0,1,7.995,3.11719a.25619.25619,0,0,1-.02886-.11545L7.6198,2.309,7.38889,1.905a2.17753,2.17753,0,0,0-.2309.46181q-.28863.635-.51953,1.03906a.62653.62653,0,0,0-.11545.2309l-.2309.635a.24531.24531,0,0,0,0,.23091q.23089.635.34635.86588a.62668.62668,0,0,1,.11545.23091.47486.47486,0,0,0,.02886.14431.47466.47466,0,0,1,.02887.14432q.05772.11544.17317.40408Zm.17318,10.102.11545-.2309q.40408-.75044.75044-1.44314l.11545-.34636a.307.307,0,0,0-.02886-.37522,1.45085,1.45085,0,0,1-.202-.37521,2.0518,2.0518,0,0,1-.17317-.57726,1.73651,1.73651,0,0,0-.46181-.75043q-.05772-.05773-.17318,0a1.6897,1.6897,0,0,0-.28862.4618,5.3434,5.3434,0,0,1-.28863.75044,1.33612,1.33612,0,0,1-.17318.28862.75851.75851,0,0,0-.05773.75044q.05774.05772.75044,1.55859Zm5.13759-6.58073q-.2309,0-.2309.17318.05772,0,.11545-.08659T12.58421,10.44836Zm1.84722.11545a.62069.62069,0,0,1-.11545.34635l-.05772-.05772a.56108.56108,0,0,1,.11545-.28863ZM.40408,8.832A.72652.72652,0,0,1,0,8.54341.8443.8443,0,0,1,.40408,8.832Zm14.20053,1.27a.45243.45243,0,0,1,.11545-.08658l.05773-.02887q.05772.05774,0,.14432l-.05773.08659Zm.05773-1.38541a.47276.47276,0,0,1,.28863-.17318A.47279.47279,0,0,1,14.66234,8.71659ZM2.0204,10.62154a.18491.18491,0,0,1-.11545-.17318v-.11545A.234.234,0,0,1,2.0204,10.62154Zm11.6606,0q-.11545-.17319,0-.23091l.05773.05773Zm.34635-.57726v.17318q0-.05774-.11545-.17318l.05773-.05773A.051.051,0,0,0,14.02735,10.04428ZM.40408,8.832a.11409.11409,0,0,1,.17318.05772A.11409.11409,0,0,1,.40408,8.832Zm13.96963.05772a.11409.11409,0,0,1,.17318-.05772A.23523.23523,0,0,1,14.37371,8.88976ZM3.40582,4.09853q.05772.11546,0,.11545-.05773.05772-.05773,0A.16629.16629,0,0,1,3.40582,4.09853Zm11.19879,5.8303h-.11545V9.8711q.11545-.05772.11545,0Zm-.2309.05772a.18491.18491,0,0,1,.11545.17318A.1849.1849,0,0,1,14.37371,9.98655ZM1.27,10.50608q-.11546,0-.05773-.05772L1.27,10.39063A.07216.07216,0,0,1,1.27,10.50608ZM3.92535,4.79124q-.05772.05772-.08659.05772T3.8099,4.79124q0-.05774.02886-.05773T3.92535,4.79124ZM1.7895,10.27518a.102.102,0,0,1-.11545-.11545A.102.102,0,0,1,1.7895,10.27518ZM12.29558,2.88629l-.05772.05772-.05773-.05772a.051.051,0,0,0,.05773-.05773ZM11.14107,4.73351v.05773l-.05773.05772V4.73351Zm2.77083,5.54167-.05772.05773h-.05773a.16631.16631,0,0,0,.05773-.11545l.02886.02886Zm.23091.28863.05772.05773-.05772.05772q-.05774,0-.05773-.02886T14.14281,10.56381ZM3.00174,3.34809V3.29037h.05772A.051.051,0,0,1,3.00174,3.34809ZM1.15451,10.27518l-.05772.05773a.051.051,0,0,1-.05773-.05773l.05773-.05772A.051.051,0,0,0,1.15451,10.27518Z"/>
    </g>
  </g>
</svg>
