<svg xmlns="http://www.w3.org/2000/svg" viewBox="0 0 13.388 31.999">
  <title>fallen_exile</title>
  <g id="Layer_2" data-name="Layer 2">
    <g id="Layer_1-2" data-name="Layer 1">
      <g>
        <path d="M5.927,7.38l.796-.848.795.848-.795.848Z"/>
        <path d="M5.605,4.114,6.723,2.923,7.84,4.114,6.723,5.305Z"/>
        <path d="M5.927.848l.796.848L7.518.848,6.723,0Z"/>
        <path d="M7.201,11.879A7.07541,7.07541,0,0,1,8.27,9.415l3.499-4.262-.7-.636S8.588,7.38,7.952,8.334A9.80505,9.80505,0,0,0,7.201,11.879Z"/>
        <path d="M7.952,15.282a9.80505,9.80505,0,0,0-.751,3.545c.016-.142-.012.208-.012.208V31.999l.254-13.042a6.56268,6.56268,0,0,1,.442-1.958c.064-.117.127-.223.181-.313l.127-.204c.049-.077.078-.12.078-.12l3.944-4.708-.7-.636S8.587,14.326,7.951,15.28Z"/>
        <path d="M7.952,11.964a9.80505,9.80505,0,0,0-.751,3.545A7.07541,7.07541,0,0,1,8.27,13.045l5.118-6.167-.7-.636S8.587,11.01,7.951,11.964Z"/>
        <path d="M12.7,4.031,12,3.395l-.668.779.717.65Z"/>
        <path d="M7.793,7.041l2.534-2.927L7.793,1.187l-.774.825L8.874,4.114,7.019,6.216Z"/>
        <path d="M6.187,11.879A7.07541,7.07541,0,0,0,5.118,9.415L1.619,5.153l.7-.636S4.8,7.38,5.436,8.334A9.78408,9.78408,0,0,1,6.187,11.879Z"/>
        <path d="M5.436,15.282a9.78408,9.78408,0,0,1,.751,3.545c-.016-.142.012.208.012.208V31.999L5.945,18.957a6.56268,6.56268,0,0,0-.442-1.958c-.064-.117-.127-.223-.181-.313l-.127-.204c-.049-.077-.078-.12-.078-.12L1.173,11.654l.7-.636s2.928,3.308,3.564,4.262Z"/>
        <path d="M5.436,11.964a9.78408,9.78408,0,0,1,.751,3.545,7.07541,7.07541,0,0,0-1.069-2.464L0,6.878l.7-.636S4.8,11.01,5.436,11.964Z"/>
        <path d="M.688,4.031l.7-.636.668.779-.717.65Z"/>
        <path d="M5.594,7.041,3.06,4.114,5.594,1.187l.774.825L4.513,4.114,6.368,6.216Z"/>
      </g>
    </g>
  </g>
</svg>
