<svg xmlns="http://www.w3.org/2000/svg" viewBox="0 0 29.58925 20.58335">
  <title>vex</title>
  <g id="Layer_2" data-name="Layer 2">
    <g id="Layer_1-2" data-name="Layer 1">
      <path d="M29.57482,10.04428q-2.0204.51952-2.36675.635-2.36676.57726-4.38716,1.15452a5.66484,5.66484,0,0,1-1.21224.17317q-.23091-.05772-.28863.05773-.23091.11546-1.38542.86589.34635.05772.75044.6927a.39263.39263,0,0,1-.05773.51954,6.46452,6.46452,0,0,0-.69271.80816.29222.29222,0,0,1-.34635.11545h-.635a1.195,1.195,0,0,0-.08658.37522.61634.61634,0,0,1-.14432.37521q-.46181.28863-.69271.17318l-.11545.28863q-.34635,1.15452-.51953,1.674a1.03467,1.03467,0,0,1-.34636.51954,1.23828,1.23828,0,0,0-.28862.2309l-.23091.2309a3.13572,3.13572,0,0,0-.86588,1.09679.879.879,0,0,1-.635.51953,1.0074,1.0074,0,0,1-.86588-.17317,2.29431,2.29431,0,0,1-.28863-.34636,2.695,2.695,0,0,0-.86589-1.15451,3.14767,3.14767,0,0,0-.25976-.23091,1.444,1.444,0,0,0-.202-.14431.32665.32665,0,0,1-.11545-.11545.86012.86012,0,0,0-.08659-.11545.66815.66815,0,0,1-.08659-.14432.443.443,0,0,1-.05773-.17318,1.3,1.3,0,0,0-.05772-.25976q-.05773-.202-.11545-.37522t-.17318-.54839a3.95888,3.95888,0,0,0-.17318-.49067L11.56439,15.99a.73253.73253,0,0,1-.69271-.17318.61628.61628,0,0,1-.14431-.37521q-.02888-.25977-.02887-.3175-.11544,0-.69271-.05772a.55384.55384,0,0,1-.40408-.17318,4.33348,4.33348,0,0,1-.31749-.37522,4.32938,4.32938,0,0,0-.31749-.37521.57439.57439,0,0,1,0-.69271q.05773,0,.17318-.17318.28863-.34635.51953-.34635Q8.50492,12.18014,8.274,12.007H7.98539q-1.039-.17317-1.09679-.17317Q5.67636,11.54515.19242,10.102l-.17318-.05772A.93236.93236,0,0,1,.077,9.467Q2.21282,6.23439,2.21282,6.17665A14.04438,14.04438,0,0,1,4.8682,3.29037a16.76266,16.76266,0,0,1,2.309-1.44315A.051.051,0,0,0,7.235,1.7895,16.77066,16.77066,0,0,1,12.19937.2309,14.17224,14.17224,0,0,1,14.73931,0a16.35974,16.35974,0,0,1,2.82856.28863,22.6508,22.6508,0,0,1,3.17491.80816,8.7018,8.7018,0,0,1,1.38542.635,11.64215,11.64215,0,0,1,3.75217,2.71311,16.37468,16.37468,0,0,1,2.25131,2.88629q.86587,1.3277,1.32769,2.13585A.79253.79253,0,0,1,29.57482,10.04428ZM14.76817,15.7014a1.35368,1.35368,0,0,0,.95247-.37522,1.21087,1.21087,0,0,0,.40408-.92361,1.28147,1.28147,0,0,0-1.29883-1.29883,1.35375,1.35375,0,0,0-.95247.37522,1.21088,1.21088,0,0,0-.40408.92361,1.28149,1.28149,0,0,0,1.29883,1.29883Z"/>
    </g>
  </g>
</svg>
