<!-- Generated by IcoMoon.io -->
<svg version="1.1" xmlns="http://www.w3.org/2000/svg" width="32" height="32" viewBox="0 0 32 32">
<title>A_Button</title>
<path d="M15.984 9.918q0.321 1.091 0.674 2.086l1.541 4.461h-4.493l1.605-4.461q0.321-0.802 0.674-2.086zM16.080 0.128q4.333 0 7.992 2.102t5.793 5.729 2.134 7.96q0 4.237-2.134 7.928t-5.809 5.858-7.976 2.166q-6.548 0-11.33-4.782-2.215-2.215-3.482-5.103t-1.268-6.066 1.284-6.114 3.466-5.023q4.814-4.654 11.33-4.654zM21.216 25.099h4.14l-7.511-19.9h-3.755l-7.414 19.9h3.948l1.958-5.456h6.708z"></path>
</svg>
