<!-- Generated by IcoMoon.io -->
<svg version="1.1" xmlns="http://www.w3.org/2000/svg" width="32" height="32" viewBox="0 0 32 32">
<title>ace_of_spades</title>
<path d="M23.504 8.78c-2.015-0.745-3.967-0.522-5.879 0.371-0.18 0.084-0.343 0.215-0.634 0.229 0.718-1.897 1.157-3.838 2.633-5.38h-7.211c0.619 0.864 1.222 1.65 1.569 2.582s0.673 1.841 1.021 2.802c-0.301-0.029-0.458-0.151-0.624-0.229-1.47-0.675-2.989-0.999-4.613-0.72-2.32 0.398-4.014 1.795-4.37 4.007-0.157 0.969 0.015 1.897 0.357 2.802 0.687 1.831 1.879 3.297 3.298 4.607 2.172 2.015 4.109 4.226 5.803 6.621l0.089 0.132c0.322 0.458 1.030 1.395 1.030 1.395l0.631-0.874c0.937-1.461 2.097-2.833 3.225-4.131 1.103-1.269 2.331-2.449 3.573-3.602 1.449-1.344 2.543-2.943 3.069-4.875 0.686-2.515-0.523-4.835-2.967-5.738z"></path>
</svg>
