<!-- Generated by IcoMoon.io -->
<svg version="1.1" xmlns="http://www.w3.org/2000/svg" width="32" height="32" viewBox="0 0 32 32">
<title>adventure2</title>
<path fill="#fff" d="M1.615 4.123l14.385-4.123 14.385 4.128v0.491c0 4.325-0.011 8.65 0 12.975 0.022 6.834-4.718 12.498-10.953 14.021-1.361 0.333-2.735 0.415-4.131 0.375-2.306-0.063-4.449-0.705-6.306-1.785l0.063 0.034c-3.863-2.197-6.279-5.473-7.18-9.84-0.168-0.797-0.264-1.713-0.264-2.651 0-0.033 0-0.066 0-0.1l-0 0.005q0.006-6.487 0-12.975zM3.52 5.574v0.527c0 3.778-0.006 7.555 0.005 11.333-0 0.027-0 0.058-0 0.090 0 0.873 0.083 1.727 0.242 2.553l-0.014-0.084c0.59 2.999 2.062 5.475 4.443 7.372 2.961 2.355 6.342 3.186 10.062 2.53 3.024-0.532 5.504-2.037 7.44-4.413 1.919-2.354 2.785-5.084 2.784-8.105q0-5.666 0-11.333c0-0.154-0.012-0.306-0.021-0.478l-12.464-3.576z"></path>
<path fill="#e67419" d="M3.52 5.574l12.48-3.582 12.464 3.576c0.008 0.171 0.021 0.324 0.021 0.478q0 5.667 0 11.333c0 3.021-0.865 5.751-2.784 8.105-1.936 2.376-4.416 3.881-7.44 4.413-3.72 0.656-7.101-0.177-10.062-2.53-2.385-1.898-3.853-4.375-4.443-7.372-0.147-0.745-0.231-1.602-0.231-2.479 0-0.030 0-0.060 0-0.090l-0 0.005c-0.010-3.778-0.005-7.555-0.005-11.333zM10.061 24.718c0.893-0.723 7.698-7.136 7.912-7.459l-1.976-1.052-6.852 6.841-0.38-0.124c-0.022-0.135-0.041-0.253-0.068-0.418l6.808-6.812-1.074-1.989-7.439 7.927c0.22 0.82 0.434 1.616 0.656 2.437zM22.794 18.688l-8.944-8.954c0.233-0.52 0.46-1.024 0.69-1.534-0.063-0.012-0.094-0.030-0.117-0.021-0.583 0.26-1.17 0.511-1.745 0.789-0.375 0.187-0.639 0.486-0.75 0.994 0.562 0.587 1.177 1.184 1.781 1.787s1.193 1.192 1.789 1.788l1.822 1.822q0.894 0.894 1.791 1.786 0.909 0.908 1.822 1.822c-0.23 0.513-0.449 1.003-0.703 1.572 0.708-0.313 1.345-0.557 1.944-0.873 0.354-0.186 0.649-0.487 0.621-0.977zM23.721 10.535l-2.54-2.554-3.909 3.92 2.556 2.561zM25.544 9.651l-3.448-3.45c-0.355 0.172-0.638 0.445-0.818 0.781l-0.005 0.010 3.478 3.477c0.353-0.215 0.614-0.441 0.796-0.822z"></path>
<path fill="#fff" d="M10.061 24.718l-2.417-0.651c-0.219-0.82-0.433-1.616-0.656-2.437l7.439-7.93 1.074 1.989-6.805 6.813c0.027 0.165 0.047 0.281 0.068 0.418l0.38 0.124 6.852-6.841 1.976 1.052c-0.215 0.326-7.019 6.74-7.912 7.462z"></path>
<path fill="#fff" d="M22.794 18.688c0.025 0.49-0.27 0.791-0.623 0.977-0.599 0.317-1.236 0.562-1.944 0.873 0.254-0.569 0.473-1.059 0.703-1.572q-0.914-0.916-1.822-1.822t-1.788-1.786l-1.822-1.822q-0.894-0.894-1.789-1.788c-0.604-0.604-1.218-1.2-1.781-1.787 0.113-0.508 0.375-0.81 0.75-0.994 0.574-0.281 1.162-0.529 1.745-0.789 0.022-0.009 0.054 0.008 0.117 0.021-0.23 0.51-0.456 1.014-0.69 1.534z"></path>
<path fill="#fff" d="M23.724 10.53l-3.896 3.931-2.556-2.56 3.912-3.924z"></path>
<path fill="#fff" d="M25.547 9.647c-0.182 0.381-0.442 0.607-0.796 0.822l-3.478-3.477c0.185-0.346 0.468-0.619 0.812-0.786l0.011-0.005z"></path>
</svg>
