<!-- Generated by IcoMoon.io -->
<svg version="1.1" xmlns="http://www.w3.org/2000/svg" width="32" height="32" viewBox="0 0 32 32">
<title>ammo_primary</title>
<path d="M32 8.533l-3.962-3.962-0.076 0.076v-0.076h-23.924v0.076l-3.962 3.886h-0.076v14.857h0.076l3.962 4.038h23.924v-0.076l0.076 0.076 3.962-4.038v-14.857zM26.057 24.381h-20.038l-2.895-2.895v-10.895l2.895-2.971h19.962l2.895 2.895v10.971l-2.819 2.895z"></path>
<path d="M16 9.752c-0.305 0-1.6 0.99-1.676 2.21v2.514h3.429v-2.514c-0.152-1.219-1.448-2.21-1.752-2.21z"></path>
<path d="M14.324 15.433h3.429v6.781h-3.429v-6.781z"></path>
</svg>
