<!-- Generated by IcoMoon.io -->
<svg version="1.1" xmlns="http://www.w3.org/2000/svg" width="79" height="32" viewBox="0 0 79 32">
<title>beam_weapon</title>
<path d="M59.776 13.824q0.544 0 0.944 0.4t0.4 0.976q0 0.544-0.4 0.944t-0.944 0.4h-55.68v-2.72h55.68zM67.744 15.232l6.24 4.448-7.648-0.064 2.4 7.264-6.144-4.544-2.304 7.296-2.304-7.296-6.176 4.544 2.432-7.264 0.256-0.768h5.376q1.504 0 2.576-1.072t1.072-2.576-1.072-2.576-2.576-1.072h-5.376l-0.256-0.704-2.432-7.296 6.176 4.576 2.304-7.328 2.304 7.328 6.144-4.576-2.4 7.296 7.648-0.064zM40.768 19.616v-0.768h13.728v0.768h-13.728zM48.96 11.552v-0.768h5.536v0.768h-5.536zM34.304 11.552v-0.768h10.208v0.768h-10.208zM26.848 11.552v-0.768h2.56v0.768h-2.56zM19.52 11.552v-0.768h1.056v0.768h-1.056zM13.6 11.552v-0.768h1.056v0.768h-1.056zM31.36 19.616v-0.768h4.096v0.768h-4.096zM22.752 19.616v-0.768h0.928v0.768h-0.928z"></path>
</svg>
