<!-- Generated by IcoMoon.io -->
<svg version="1.1" xmlns="http://www.w3.org/2000/svg" width="32" height="32" viewBox="0 0 32 32">
<title>clan</title>
<path d="M16.932 0c3.487 0.065 7.285 1.591 10.382 4.7 3.125 3.137 4.697 6.964 4.685 11.403-0.024 8.724-7.181 15.982-16.129 15.896-4.363-0.042-8.126-1.624-11.197-4.709-3.135-3.149-4.701-6.994-4.672-11.447 0.057-8.686 7.168-15.862 16.931-15.843zM31.097 16.048c-0.060-4.162-1.488-7.735-4.406-10.669s-6.491-4.421-10.647-4.455c-8.313-0.068-15.149 6.778-15.123 15.045 0.015 4.142 1.469 7.708 4.377 10.643 2.929 2.952 6.508 4.458 10.679 4.466 4.142 0.008 7.703-1.472 10.643-4.377 2.957-2.929 4.407-6.525 4.477-10.653z"></path>
<path d="M16.544 30.225v-20.894c0.285 0.023 0.489-0.126 0.654-0.332 0.145-0.18 0.328-0.214 0.544-0.213 2.020 0.007 4.040 0.004 6.060 0.004h0.336l0.815-1.010h-7.545c-0.047-0.033-0.078-0.043-0.089-0.063-0.267-0.381-0.639-0.472-1.082-0.424-0.128 0.012-0.277 0.018-0.427 0.018s-0.299-0.007-0.446-0.020l0.019 0.001c-0.018-0.002-0.039-0.003-0.059-0.003-0.168 0-0.318 0.079-0.414 0.202l-0.001 0.001c-0.092 0.099-0.187 0.191-0.287 0.278l-0.005 0.004h-7.574l0.816 1.018h0.406c1.981 0 3.962 0.005 5.942-0.005 0.266 0 0.474 0.054 0.646 0.262 0.143 0.173 0.311 0.311 0.549 0.269 0.015 0.013 0.029 0.026 0.042 0.040l0 0c0.008 0.009 0.013 0.021 0.015 0.033l0 0q0 10.388 0 20.777c-0.733 0.102-2.663-0.219-4.029-0.69-2.498-0.863-4.603-2.322-6.219-4.211l-0.016-0.019c-1.732-2.020-2.84-4.35-3.24-6.98-1.294-8.512 4.805-15.549 12.4-16.393 4.158-0.466 7.872 0.683 11.017 3.442 3.041 2.669 4.685 6.078 4.831 10.131 0.155 4.305-1.368 7.973-4.501 10.936-2.549 2.413-5.62 3.638-9.157 3.841zM8.716 9.42c-0.056 0.487-0.042 14.195 0.013 14.496h4.928v-14.492c-1.819 0.637-3.291 0.598-4.941-0.003zM18.349 9.412v14.503h4.947v-14.501c-1.655 0.629-3.287 0.627-4.948-0.002z"></path>
<path d="M13.668 8.161v0.294h-5.029c-0.005-0.086-0.009-0.172-0.014-0.255 0.33-0.074 3.65-0.099 5.043-0.040z"></path>
<path d="M23.369 8.166v0.266c-0.031 0.017-0.066 0.031-0.104 0.038l-0.002 0q-1.203 0-2.408 0h-2.508c-0.009-0.101-0.017-0.194-0.026-0.311z"></path>
</svg>
