<!-- Generated by IcoMoon.io -->
<svg version="1.1" xmlns="http://www.w3.org/2000/svg" width="32" height="32" viewBox="0 0 32 32">
<title>class_warlock</title>
<path d="M30.728 22.608l1.272 2.203h-5.087l2.544-4.405 1.272 2.203z"></path>
<path d="M28.185 18.203l1.272 2.203h-5.087l2.543-4.405 1.272 2.203z"></path>
<path d="M29.457 20.405l-2.544 4.405-2.543-4.405h5.087z"></path>
<path d="M25.641 13.797l1.272 2.203h-5.087l2.543-4.405 1.272 2.203z"></path>
<path d="M26.913 16l-2.543 4.405-2.543-4.405h5.087z"></path>
<path d="M25.215 22.636l1.255 2.175h-5.022l2.511-4.349 1.256 2.174z"></path>
<path d="M23.098 9.392l1.272 2.203h-5.087l2.543-4.405 1.272 2.203z"></path>
<path d="M24.369 11.595l-2.543 4.405-2.543-4.405h5.087z"></path>
<path d="M22.703 18.287l1.255 2.175h-5.022l2.511-4.35 1.255 2.175z"></path>
<path d="M23.959 20.462l-2.511 4.349-2.511-4.349h5.022z"></path>
<path d="M20.193 13.937l1.255 2.175h-5.022l2.511-4.35 1.255 2.175z"></path>
<path d="M21.448 16.112l-2.511 4.35-2.511-4.35h5.022z"></path>
<path d="M19.695 22.683l1.229 2.128h-4.915l2.457-4.256 1.229 2.128z"></path>
<path d="M17.281 9.392l1.272 2.203-2.543 4.405-2.543-4.405 2.543-4.405 1.272 2.203z"></path>
<path d="M17.238 18.427l1.228 2.128h-4.914l2.457-4.256 1.229 2.128z"></path>
<path d="M18.466 20.555l-2.457 4.256-2.457-4.256h4.914z"></path>
<path d="M14.78 22.683l1.229 2.128h-4.914l2.457-4.256 1.228 2.128z"></path>
<path d="M14.342 13.937l1.255 2.175h-5.022l2.511-4.35 1.255 2.175z"></path>
<path d="M15.597 16.112l-2.511 4.35-2.511-4.35h5.022z"></path>
<path d="M11.83 18.287l1.256 2.175h-5.022l2.511-4.35 1.255 2.175z"></path>
<path d="M13.086 20.462l-2.511 4.349-2.511-4.349h5.022z"></path>
<path d="M11.445 9.392l1.272 2.203h-5.087l2.544-4.405 1.272 2.203z"></path>
<path d="M12.717 11.595l-2.543 4.405-2.544-4.405h5.087z"></path>
<path d="M9.319 22.636l1.255 2.175h-5.022l2.511-4.349 1.255 2.174z"></path>
<path d="M8.902 13.797l1.272 2.203h-5.087l2.543-4.405 1.272 2.203z"></path>
<path d="M10.174 16l-2.544 4.405-2.543-4.405h5.087z"></path>
<path d="M6.358 18.203l1.272 2.203h-5.087l2.543-4.405 1.272 2.203z"></path>
<path d="M7.63 20.405l-2.543 4.405-2.543-4.405h5.087z"></path>
<path d="M3.815 22.608l1.272 2.203h-5.087l2.543-4.405 1.272 2.203z"></path>
</svg>
