<!-- Generated by IcoMoon.io -->
<svg version="1.1" xmlns="http://www.w3.org/2000/svg" width="32" height="32" viewBox="0 0 32 32">
<title>clovis_bray_device</title>
<path d="M16.469 0.007c3.895 0.171 7.308 1.527 10.219 4.101 3.676 3.25 5.293 7.986 5.276 11.403-7.976 0.096-15.466-6.728-15.495-15.504z"></path>
<path d="M0.060 15.541c0.141-8.424 7.192-15.376 15.478-15.501 0.023 7.694-6.318 15.3-15.478 15.501z"></path>
<path d="M16.469 31.993c0.052-7.887 6.444-15.253 15.531-15.48-0.184 3.793-1.475 7.146-3.97 9.99-3.044 3.466-6.939 5.217-11.561 5.49z"></path>
<path d="M0 16.509c7.886 0.209 15.127 6.125 15.581 15.382-1.492 0.513-6.753-1.274-9.006-2.993-4.088-3.119-6.207-7.255-6.575-12.389z"></path>
</svg>
