<!-- Generated by IcoMoon.io -->
<svg version="1.1" xmlns="http://www.w3.org/2000/svg" width="32" height="32" viewBox="0 0 32 32">
<title>cosmodrome</title>
<path fill="#fefefd" d="M16.003 0.003c8.758-0.025 16.010 7.104 15.997 16.026-0.013 8.798-7.169 16.049-16.154 15.968-8.768-0.079-15.852-7.194-15.845-16.006 0.006-8.971 7.306-16.018 16.003-15.988zM16.003 12.717q-4.974 0-9.947 0c-0.425 0-0.849 0.038-1.257 0.151-1.816 0.499-3.034 1.625-3.588 3.439-0.101 0.33-0.173 0.67-0.145 1.020 0.049 0.615 0.131 1.172 0.246 1.717l-0.015-0.087c0.304 1.499 0.791 2.829 1.446 4.057l-0.039-0.080q1.794 3.412 4.998 5.554c2.335 1.568 5.209 2.503 8.302 2.503 0.21 0 0.419-0.004 0.627-0.013l-0.030 0.001c0.819-0.036 1.59-0.128 2.342-0.274l-0.099 0.016c1.558-0.301 2.946-0.805 4.221-1.491l-0.078 0.039c3.63-1.943 6.327-5.231 7.448-9.181l0.026-0.106c0.198-0.691 0.359-1.517 0.452-2.364l0.006-0.069c0.023-0.213 0.036-0.426 0.004-0.641-0.16-1.053-0.609-1.965-1.364-2.714-0.987-0.98-2.19-1.47-3.576-1.474-3.326-0.010-6.653-0.003-9.979-0.003zM1.207 13.558l0.031 0.024 14.761-10.176 14.808 10.233c-0.294-1.833-0.887-3.52-1.795-5.094-1.391-2.409-3.3-4.299-5.729-5.655-2.478-1.382-5.146-1.996-7.977-1.87-2.598 0.114-5.010 0.863-7.217 2.24q-3.489 2.177-5.399 5.829c-0.694 1.293-1.212 2.796-1.472 4.385l-0.011 0.084z"></path>
<path fill="#d2622a" d="M16.002 12.717c3.326 0 6.652-0.007 9.978 0.003 1.386 0.004 2.589 0.494 3.576 1.474 0.754 0.749 1.203 1.661 1.364 2.714 0.031 0.215 0.020 0.428-0.004 0.641-0.099 0.915-0.26 1.741-0.484 2.541l0.026-0.108c-1.147 4.056-3.843 7.344-7.392 9.247l-0.080 0.039c-1.196 0.648-2.584 1.151-4.049 1.437l-0.093 0.015c-0.653 0.13-1.423 0.222-2.209 0.257l-0.033 0.001c-0.179 0.008-0.388 0.012-0.599 0.012-3.093 0-5.967-0.935-8.356-2.537l0.054 0.034q-3.206-2.136-4.998-5.554c-0.616-1.148-1.103-2.479-1.391-3.882l-0.016-0.095c-0.1-0.458-0.181-1.015-0.228-1.582l-0.003-0.048c-0.028-0.35 0.044-0.69 0.145-1.020 0.554-1.813 1.772-2.939 3.586-3.438 0.41-0.113 0.834-0.15 1.257-0.151q4.975-0.002 9.948-0.001zM12.904 19.889c0.043-0.007 0.063-0.011 0.083-0.013 0.599-0.063 1.138-0.273 1.597-0.665 0.526-0.45 0.831-1.016 0.854-1.717 0.009-0.283 0.004-0.566 0-0.849-0.002-0.282-0.061-0.549-0.165-0.792l0.005 0.013c-0.291-0.698-0.814-1.152-1.504-1.43-0.273-0.11-0.56-0.163-0.857-0.197-0.025-0.176 0.008-0.349-0.020-0.52h-1.242c-0.022 0.179 0.011 0.352-0.020 0.517-0.031 0.005-0.045 0.008-0.061 0.010-0.7 0.077-1.314 0.339-1.806 0.852-0.43 0.45-0.665 0.983-0.66 1.613q0.003 0.369 0 0.739c-0 0.006-0 0.012-0 0.018 0 0.336 0.080 0.653 0.223 0.934l-0.005-0.012c0.381 0.771 1.020 1.211 1.836 1.421 0.156 0.040 0.316 0.054 0.477 0.080 0.023 0.179-0.008 0.351 0.020 0.519h1.246zM15.79 19.87c0.046 0.003 0.077 0.006 0.108 0.007q1.603 0 3.206 0c0 0 0.001 0 0.002 0 0.292 0 0.575-0.036 0.846-0.105l-0.024 0.005c0.82-0.203 1.372-0.994 1.247-1.82-0.107-0.7-0.534-1.139-1.199-1.352-0.377-0.121-0.771-0.135-1.165-0.136-0.513 0-1.026 0-1.54 0-0.056 0-0.115 0.017-0.164-0.017v-1.299h3.502v-0.952h-4.819zM28.363 19.87l-2.978-5.67h-1.599l-2.896 5.668h1.603l0.609-1.273h2.973l0.644 1.273zM5.029 17.74h0.192c0.586-0.003 1.172 0.009 1.758-0.031 0.424-0.031 0.828-0.12 1.189-0.352 0.35-0.226 0.601-0.531 0.709-0.942 0.035-0.139 0.055-0.298 0.055-0.462 0-0.079-0.005-0.157-0.014-0.234l0.001 0.009c-0.031-0.337-0.153-0.639-0.388-0.889-0.33-0.351-0.74-0.537-1.214-0.592-0.432-0.050-0.867-0.045-1.301-0.052-0.738-0.013-1.477-0.004-2.215-0.003-0.051 0-0.105-0.013-0.153 0.015-0.029 0.157-0.024 5.543 0.006 5.662h1.374v-2.129zM18.731 21.2c0.052-0.011 0.076-0.007 0.086 0.023s0.017 0.071 0.029 0.105c0.046 0.128 0.143 0.191 0.273 0.202 0.005 0 0.011 0 0.016 0 0.127 0 0.235-0.079 0.279-0.19l0.001-0.002c0.027-0.061 0.043-0.133 0.043-0.208 0-0.074-0.015-0.144-0.043-0.207l0.001 0.003c-0.040-0.11-0.144-0.186-0.265-0.187h-0c-0.007-0.001-0.014-0.001-0.022-0.001-0.119 0-0.222 0.071-0.268 0.173l-0.001 0.002c-0.013 0.028-0.025 0.062-0.036 0.097l-0.001 0.006c-0.014 0.043-0.041 0.055-0.085 0.031-0.021-0.094 0.012-0.196-0.023-0.291-0.041 0-0.078-0.011-0.119 0.014v0.723c0.019 0.011 0.041 0.017 0.065 0.017 0.026 0 0.050-0.007 0.070-0.020l-0.001 0zM11.202 21.139c0.002-0.097-0.017-0.186-0.087-0.259-0.080-0.083-0.204-0.086-0.289-0.159-0.094 0.057-0.203 0.087-0.286 0.164-0.070 0.066-0.089 0.151-0.091 0.241-0.002 0.096 0.013 0.19 0.088 0.257 0.084 0.074 0.195 0.144 0.289 0.146s0.198-0.087 0.286-0.151c0.077-0.055 0.089-0.149 0.089-0.24zM11.929 21.686c0.031-0.049-0.011-0.115 0.041-0.168 0.051-0.005 0.11-0.007 0.17-0.007 0.078 0 0.154 0.004 0.23 0.013l-0.009-0.001c0.036 0.058 0 0.123 0.038 0.173 0.031 0.003 0.063 0.012 0.1-0.025 0-0.076 0.034-0.189-0.008-0.245-0.060-0.080-0.047-0.153-0.052-0.231-0.009-0.144 0.013-0.29-0.015-0.443-0.15 0.009-0.294-0.015-0.437 0.013-0.031 0.234 0.040 0.485-0.173 0.669 0.013 0.082-0.007 0.171 0.021 0.254 0.035 0.011 0.065 0.020 0.094-0.003zM6.825 21.495v-0.726c-0.021-0.011-0.046-0.017-0.073-0.017-0.030 0-0.058 0.008-0.082 0.021l0.001-0-0.275 0.48-0.026-0.009v-0.479c-0.049-0.012-0.089-0.022-0.133 0.016 0 0.115 0 0.235 0 0.355s0 0.246 0.002 0.363c0.025 0.008 0.054 0.013 0.083 0.013s0.058-0.005 0.085-0.014l-0.002 0.001c0.087-0.15 0.177-0.303 0.28-0.479 0.015 0.182-0.007 0.333 0.015 0.48 0.017 0.007 0.037 0.011 0.058 0.011 0.024 0 0.047-0.006 0.068-0.016l-0.001 0zM27.791 20.763v0.742c0.020 0.004 0.042 0.007 0.065 0.007 0.033 0 0.065-0.005 0.095-0.015l-0.002 0.001c0.040-0.068 0.080-0.146 0.13-0.22s0.063-0.159 0.161-0.22v0.432c0.053 0.026 0.091 0.031 0.126 0.002v-0.729c-0.022-0.007-0.047-0.011-0.073-0.011s-0.051 0.004-0.075 0.011l0.002-0c-0.094 0.163-0.19 0.334-0.298 0.52-0.018-0.189 0.010-0.358-0.018-0.521-0.017-0.006-0.036-0.010-0.056-0.010s-0.040 0.004-0.058 0.010l0.001-0zM26.59 21.503l0.264-0.453 0.024 0.007v0.43c0.049 0.031 0.087 0.034 0.124 0.005v-0.728c-0.020-0.007-0.042-0.011-0.066-0.011-0.028 0-0.054 0.006-0.078 0.016l0.001-0-0.299 0.52c-0.012-0.198 0.009-0.365-0.015-0.528-0.045-0.004-0.081-0.018-0.109 0.012v0.731c0.023 0.006 0.050 0.010 0.077 0.010s0.054-0.004 0.079-0.010l-0.002 0zM7.108 21.288c-0.018-0.191 0.016-0.361-0.017-0.533-0.042 0.004-0.079-0.014-0.112 0.018v0.725c0.023 0.008 0.050 0.013 0.079 0.013s0.055-0.005 0.080-0.014l-0.002 0.001c0.085-0.146 0.174-0.297 0.262-0.449l0.023 0.003v0.435c0.019 0.013 0.042 0.021 0.067 0.021 0.022 0 0.042-0.006 0.059-0.016l-0.001 0v-0.732c-0.051-0.010-0.094-0.020-0.15 0.013zM25.674 21.137c-0.019-0.052-0.003-0.063 0.005-0.074 0.096-0.157 0.034-0.292-0.146-0.31-0.033-0.005-0.071-0.008-0.11-0.008-0.061 0-0.121 0.007-0.179 0.020l0.005-0.001v0.735c0.052 0.017 0.111 0.027 0.173 0.027 0.057 0 0.111-0.008 0.163-0.024l-0.004 0.001c0.171-0.041 0.225-0.212 0.116-0.353-0.011-0.015-0.036-0.020-0.024-0.014zM17.079 21.141c0-0.365-0.291-0.471-0.507-0.362-0.175 0.088-0.242 0.349-0.149 0.553 0.054 0.118 0.172 0.199 0.308 0.199 0.079 0 0.151-0.027 0.209-0.072l-0.001 0.001c0.109-0.085 0.138-0.205 0.14-0.319zM20.808 21.13c0.024-0.266-0.189-0.466-0.469-0.366-0.154 0.055-0.215 0.192-0.22 0.35s0.034 0.293 0.18 0.374c0.045 0.026 0.098 0.042 0.155 0.042 0.020 0 0.039-0.002 0.058-0.005l-0.002 0c0.199-0.036 0.298-0.164 0.298-0.394zM16.147 20.765c-0.023 0.094 0.006 0.185-0.026 0.277-0.043 0.008-0.092 0.012-0.142 0.012s-0.1-0.004-0.147-0.013l0.005 0.001v-0.271c-0.019-0.011-0.041-0.017-0.065-0.017s-0.046 0.006-0.065 0.018l0.001-0v0.729c0.049 0.014 0.089 0.025 0.123-0.008 0.021-0.099-0.011-0.2 0.023-0.299 0.096 0 0.189-0.023 0.287 0.021v0.277c0.020 0.014 0.044 0.022 0.071 0.022 0.022 0 0.043-0.006 0.061-0.016l-0.001 0v-0.73c-0.019-0.008-0.040-0.013-0.063-0.013-0.021 0-0.041 0.004-0.060 0.012l0.001-0zM24.267 21.043c-0.11 0.010-0.197 0.019-0.281-0.003-0.029-0.096 0.003-0.189-0.025-0.272-0.048-0.019-0.091-0.025-0.131 0.002v0.733c0.051 0.008 0.091 0.019 0.144-0.022v-0.289c0.106-0.002 0.197-0.021 0.295 0.018v0.279c0.053 0.027 0.094 0.035 0.135-0.003v-0.716c-0.019-0.011-0.041-0.017-0.064-0.017-0.027 0-0.053 0.009-0.074 0.023l0-0zM23.031 21.135c0 0.189 0.072 0.317 0.208 0.37 0.038 0.016 0.083 0.025 0.129 0.025 0.152 0 0.281-0.098 0.327-0.234l0.001-0.002c0.079-0.232-0.017-0.482-0.209-0.54-0.010-0.003-0.021-0.004-0.031-0.006-0.244-0.051-0.424 0.113-0.425 0.387zM9.598 21.107c-0.002-0.046-0.009-0.089-0.021-0.13l0.001 0.004c-0.038-0.115-0.108-0.203-0.234-0.229-0.131-0.027-0.251-0.006-0.343 0.099-0.119 0.135-0.131 0.396-0.025 0.542 0.042 0.059 0.103 0.103 0.174 0.122l0.002 0.001c0.244 0.065 0.444-0.105 0.447-0.409zM4.192 21.123c-0.006 0.192 0.083 0.341 0.231 0.387 0.259 0.080 0.487-0.119 0.466-0.406-0.013-0.197-0.112-0.325-0.269-0.356-0.24-0.046-0.42 0.111-0.428 0.375zM14.777 20.887c0.023 0.21-0.008 0.413 0.020 0.621 0.047-0.006 0.089 0.022 0.117-0.015v-0.741c-0.084 0-0.157-0.003-0.229 0s-0.155-0.018-0.234 0.021c0 0.133 0.003 0.264 0 0.394-0.002 0.084-0.009 0.167-0.094 0.22-0.051 0.031-0.036 0.079-0.010 0.122 0.157-0.020 0.216-0.075 0.234-0.238 0.014-0.128 0.017-0.257 0.025-0.391 0.023-0.006 0.050-0.009 0.077-0.009 0.035 0 0.068 0.005 0.099 0.015l-0.002-0.001zM8.873 21.496c-0.054-0.155-0.065-0.324-0.235-0.414l0.239-0.317c-0.026-0.008-0.055-0.012-0.085-0.012s-0.060 0.004-0.088 0.013l0.002-0.001-0.227 0.318v-0.317c-0.056-0.014-0.1-0.026-0.141 0.011v0.715c0.022 0.013 0.049 0.021 0.077 0.021 0.025 0 0.049-0.006 0.070-0.017l-0.001 0v-0.295c0.012-0.005 0.026-0.008 0.040-0.008 0.022 0 0.043 0.006 0.060 0.017l-0-0c0.1 0.069 0.086 0.197 0.148 0.285 0.040 0.023 0.080 0.019 0.141-0zM27.164 20.767v0.737c0.047 0.007 0.083 0.015 0.117-0.009 0.038-0.096-0.018-0.206 0.038-0.305 0.201 0.015 0.152 0.216 0.238 0.311 0.046 0.010 0.091 0.023 0.134-0.016-0.025-0.075-0.051-0.148-0.073-0.223-0.025-0.084-0.094-0.131-0.159-0.185l0.235-0.309c-0.026-0.010-0.057-0.016-0.088-0.016-0.027 0-0.052 0.004-0.076 0.012l0.002-0c-0.080 0.084-0.123 0.194-0.209 0.273-0.044-0.047-0.023-0.094-0.028-0.14s0.013-0.094-0.022-0.14c-0.033-0.002-0.068-0.013-0.108 0.009zM21.814 21.493c0.229 0.063 0.389 0.022 0.482-0.121 0.097-0.15 0.081-0.403-0.031-0.529-0.102-0.113-0.27-0.134-0.447-0.054-0.002 0.009-0.003 0.020-0.003 0.030 0 0.005 0 0.009 0.001 0.014l-0-0.001c0.005 0.015 0.012 0.028 0.020 0.040l-0-0.001c0.291-0.008 0.324 0.010 0.353 0.198h-0.289c-0.024 0.049-0.025 0.082 0.008 0.11 0.092 0.022 0.189-0.010 0.292 0.025-0.055 0.212-0.21 0.212-0.369 0.18-0.015 0.018-0.024 0.042-0.024 0.068 0 0.015 0.003 0.029 0.008 0.041l-0-0.001zM18.118 20.874h0.273c0.035-0.046 0.036-0.078 0.011-0.113h-0.422v0.741c0.047 0.015 0.101 0.023 0.157 0.023 0.068 0 0.132-0.012 0.192-0.035l-0.004 0.001c0.115-0.039 0.165-0.124 0.16-0.242-0.005-0.112-0.072-0.189-0.192-0.216-0.055-0.012-0.113-0.017-0.164-0.024-0.029-0.040-0.024-0.075-0.011-0.136zM14.277 21.493l-0.232-0.733c-0.025-0.005-0.054-0.007-0.084-0.007-0.036 0-0.071 0.004-0.105 0.011l0.003-0.001c-0.075 0.24-0.15 0.486-0.231 0.747 0.067-0.003 0.113 0.018 0.153-0.022 0.028-0.056 0.028-0.123 0.071-0.176 0.070-0.009 0.142-0.022 0.211 0.010 0.023 0.063 0.044 0.121 0.063 0.176 0.020 0.009 0.044 0.015 0.069 0.015 0.030 0 0.058-0.008 0.082-0.021l-0.001 0zM25.146 21.493c-0.079-0.249-0.155-0.49-0.233-0.736-0.065 0-0.121-0.012-0.186 0.013l-0.223 0.721c0.056 0.031 0.099 0.031 0.145 0.002 0.034-0.055 0.021-0.134 0.087-0.184 0.060 0.004 0.126-0.018 0.189 0.015 0.041 0.058 0.034 0.134 0.080 0.184 0.015 0.004 0.033 0.007 0.051 0.007 0.033 0 0.063-0.008 0.090-0.023l-0.001 0zM21.317 20.77c-0.075 0.246-0.15 0.487-0.224 0.73 0.058 0.019 0.103 0.023 0.146 0 0.021-0.060 0.042-0.118 0.063-0.177 0.034-0.011 0.073-0.018 0.114-0.018 0.033 0 0.065 0.004 0.096 0.012l-0.003-0.001c0.053 0.063 0.039 0.142 0.094 0.189 0.015 0.005 0.032 0.009 0.050 0.009 0.031 0 0.060-0.009 0.084-0.026l-0.001 0-0.229-0.726c-0.026-0.006-0.055-0.009-0.085-0.009-0.037 0-0.073 0.005-0.107 0.015l0.003-0.001zM15.074 21.503c0.157 0.028 0.27 0.024 0.355-0.010 0.114-0.045 0.163-0.12 0.157-0.243 0-0.001 0-0.002 0-0.003 0-0.104-0.074-0.19-0.172-0.21l-0.001-0c-0.060-0.016-0.122-0.021-0.186-0.031-0.036-0.076 0.008-0.165-0.030-0.241-0.043-0.008-0.084-0.020-0.123 0.015zM12.604 21.509c0.155 0 0.294 0.015 0.429-0.009 0.006-0.013 0.009-0.028 0.009-0.043 0-0.023-0.007-0.043-0.019-0.061l0 0c-0.083-0.027-0.181 0.012-0.27-0.025-0.009-0.024-0.014-0.052-0.014-0.081 0-0.031 0.006-0.061 0.016-0.088l-0.001 0.002c0.080-0.037 0.169 0.007 0.245-0.031 0.012-0.038 0.023-0.073-0.013-0.103-0.075-0.018-0.157 0.010-0.231-0.021-0.010-0.024-0.016-0.052-0.016-0.082s0.006-0.058 0.016-0.083l-0.001 0.002c0.094-0.026 0.185 0.008 0.265-0.026 0.007-0.012 0.011-0.027 0.011-0.043 0-0.024-0.010-0.046-0.026-0.062v0c-0.127 0.007-0.265-0.018-0.401 0.013zM17.191 21.513c0.157-0.008 0.296 0.014 0.432-0.013 0.011-0.043 0.019-0.079-0.016-0.105-0.087-0.023-0.178 0.011-0.263-0.024-0.009-0.024-0.014-0.053-0.014-0.082 0-0.031 0.006-0.061 0.016-0.088l-0.001 0.002c0.081-0.037 0.17 0.007 0.245-0.031 0.011-0.038 0.023-0.074-0.013-0.102-0.076-0.020-0.157 0.011-0.237-0.025-0.010-0.055-0.022-0.109 0.008-0.161 0.091-0.025 0.183 0.009 0.264-0.027 0.009-0.036 0.020-0.067-0.008-0.092h-0.413zM11.316 21.503h0.433c0.007-0.042 0.014-0.073-0.014-0.103-0.084-0.031-0.183 0.015-0.275-0.031 0-0.056-0.021-0.112 0.015-0.166 0.078-0.031 0.167 0.012 0.244-0.031 0.004-0.034 0.015-0.063-0.012-0.094-0.074-0.031-0.163 0.014-0.238-0.028-0.009-0.023-0.015-0.049-0.015-0.076 0-0.029 0.006-0.057 0.017-0.082l-0.001 0.001c0.083-0.034 0.175 0.004 0.257-0.026 0.024-0.037 0.028-0.070-0.003-0.102h-0.409zM9.716 20.761v0.748c0.055 0.004 0.12 0.006 0.184 0.006 0.085 0 0.168-0.004 0.251-0.011l-0.011 0.001c0.015-0.044 0.022-0.078-0.016-0.11-0.082-0.017-0.173 0.010-0.259-0.018-0.010-0.026-0.015-0.055-0.015-0.086s0.006-0.061 0.016-0.088l-0.001 0.002c0.079-0.035 0.168 0.007 0.244-0.031 0.015-0.037 0.024-0.071-0.008-0.101-0.076-0.024-0.157 0.010-0.234-0.025-0.010-0.025-0.016-0.054-0.016-0.084 0-0.027 0.005-0.053 0.014-0.077l-0.001 0.002c0.094-0.031 0.187 0.009 0.268-0.031 0.012-0.034 0.020-0.063-0.010-0.097zM3.639 20.764v0.735c0.050 0.013 0.091 0.024 0.126-0.009 0.024-0.082-0.011-0.168 0.027-0.255 0.046-0.004 0.094-0.004 0.138-0.012 0.132-0.023 0.206-0.121 0.199-0.259-0.006-0.123-0.077-0.2-0.208-0.212-0.033-0.004-0.072-0.007-0.11-0.007-0.061 0-0.12 0.006-0.178 0.017l0.006-0.001zM19.563 20.764v0.738c0.053 0.007 0.098 0.025 0.137-0.014 0.018-0.083-0.009-0.168 0.020-0.251 0.052-0.002 0.101-0.006 0.149-0.013l-0.008 0.001c0.133-0.026 0.202-0.121 0.194-0.261-0.008-0.124-0.077-0.198-0.209-0.21-0.034-0.005-0.074-0.008-0.114-0.008-0.060 0-0.119 0.006-0.176 0.018l0.006-0.001zM13.303 21.236c0.057-0.001 0.111-0.005 0.164-0.012l-0.007 0.001c0.131-0.025 0.201-0.122 0.193-0.261-0.007-0.121-0.079-0.199-0.209-0.21-0.032-0.004-0.069-0.007-0.106-0.007-0.063 0-0.123 0.007-0.182 0.019l0.006-0.001v0.733c0.048 0.016 0.087 0.024 0.13-0.006 0.002-0.081 0.006-0.162 0.010-0.257zM5.495 21.388c-0.27 0.026-0.385-0.049-0.389-0.246-0.004-0.202 0.101-0.275 0.391-0.27 0.021-0.031 0.041-0.061 0.018-0.099-0.246-0.072-0.436-0.007-0.521 0.178s-0.031 0.427 0.12 0.521c0.103 0.063 0.354 0.072 0.403 0.012 0.001-0.007 0.001-0.015 0.001-0.023s-0-0.016-0.001-0.024l0 0.001c-0.007-0.020-0.014-0.036-0.023-0.052l0.001 0.001zM6.123 20.771c-0.234-0.060-0.4-0.013-0.495 0.135s-0.084 0.377 0.023 0.501 0.289 0.153 0.471 0.076c0.003-0.008 0.004-0.018 0.004-0.027 0-0.026-0.011-0.050-0.028-0.067v0c-0.146 0.014-0.321 0.040-0.365-0.157-0.069-0.306 0.101-0.394 0.369-0.355 0.017-0.018 0.027-0.043 0.027-0.070 0-0.013-0.002-0.025-0.007-0.036l0 0.001zM8.221 20.774c-0.242-0.074-0.433-0.009-0.52 0.177s-0.031 0.422 0.121 0.519c0.102 0.065 0.349 0.074 0.403 0.013 0.006-0.037 0.006-0.072-0.031-0.094-0.263 0.024-0.372-0.047-0.377-0.246-0.005-0.208 0.094-0.278 0.386-0.272 0.017-0.014 0.028-0.036 0.028-0.060 0-0.014-0.004-0.028-0.011-0.039l0 0zM22.475 20.764v0.744c0.048-0.003 0.089 0.020 0.135-0.028 0-0.031 0-0.072 0-0.113s-0.009-0.084 0.021-0.126c0.039-0.022 0.088-0.007 0.133-0.017 0.131-0.028 0.211-0.13 0.201-0.259-0.010-0.124-0.091-0.205-0.227-0.214-0.029-0.003-0.062-0.005-0.095-0.005-0.060 0-0.118 0.006-0.175 0.017l0.006-0.001zM25.8 20.759c-0.014 0.052-0.023 0.087 0.009 0.114 0.060 0.023 0.128-0.014 0.191 0.037v0.58c0.020 0.014 0.044 0.022 0.071 0.022s0.051-0.008 0.071-0.022l-0 0v-0.603l0.192-0.013c0.011-0.016 0.017-0.035 0.017-0.056 0-0.023-0.007-0.043-0.020-0.060l0 0zM7.261 20.651c-0.042-0.029-0.077-0.107-0.148-0.046 0.054 0.109 0.080 0.126 0.171 0.119 0.076-0.007 0.124-0.041 0.133-0.123-0.081-0.007-0.081-0.007-0.155 0.050z"></path>
<path fill="#8bb594" d="M1.207 13.558c0.272-1.673 0.79-3.176 1.521-4.547l-0.038 0.078q1.907-3.646 5.399-5.829c2.208-1.377 4.621-2.124 7.217-2.24 2.831-0.126 5.499 0.488 7.977 1.87 2.429 1.356 4.338 3.246 5.73 5.655 0.908 1.573 1.502 3.261 1.795 5.094l-14.809-10.233-14.76 10.176z"></path>
<path fill="#fefdfd" d="M12.904 19.889v0.52h-1.246c-0.028-0.168 0.003-0.34-0.020-0.519-0.161-0.025-0.322-0.040-0.477-0.080-0.817-0.21-1.455-0.65-1.836-1.421-0.137-0.268-0.217-0.585-0.217-0.921 0-0.006 0-0.012 0-0.019v0.001q0.002-0.369 0-0.739c-0.005-0.629 0.229-1.163 0.66-1.613 0.492-0.513 1.106-0.775 1.806-0.852 0.015 0 0.031-0.005 0.061-0.010 0.031-0.166 0-0.339 0.020-0.517h1.243c0.027 0.171-0.005 0.343 0.020 0.52 0.298 0.033 0.585 0.087 0.857 0.197 0.69 0.278 1.213 0.732 1.504 1.43 0.099 0.23 0.158 0.497 0.16 0.778v0.001c0.003 0.283 0.008 0.566 0 0.849-0.023 0.701-0.328 1.267-0.854 1.717-0.459 0.393-0.998 0.604-1.597 0.665-0.021 0.002-0.041 0.006-0.084 0.013zM11.641 15.237c-0.636 0.205-1.32 0.962-1.232 2.002 0.063 0.757 0.688 1.577 1.232 1.634zM12.915 18.88c0.607-0.181 1.31-0.945 1.221-2.005-0.061-0.726-0.684-1.556-1.221-1.616z"></path>
<path fill="#fefdfd" d="M15.79 19.87v-5.671h4.819v0.954h-3.503v1.298c0.049 0.034 0.109 0.017 0.164 0.017 0.513 0.002 1.026 0 1.54 0 0.393 0 0.786 0.015 1.165 0.136 0.664 0.213 1.093 0.653 1.199 1.352 0.126 0.826-0.427 1.617-1.247 1.82-0.246 0.063-0.529 0.099-0.82 0.099-0.001 0-0.003 0-0.004 0h0q-1.603 0.002-3.206 0c-0.031 0.001-0.062-0.003-0.108-0.005zM17.104 18.906c0.036 0.028 0.068 0.020 0.098 0.020 0.471 0 0.943 0.004 1.414 0 0.011 0 0.024 0 0.037 0 0.208 0 0.41-0.021 0.606-0.062l-0.019 0.003c0.273-0.063 0.605-0.312 0.588-0.715-0.012-0.285-0.161-0.498-0.445-0.602-0.264-0.096-0.541-0.119-0.817-0.122-0.44-0.006-0.88-0.002-1.32 0-0.045 0-0.094-0.014-0.14 0.019z"></path>
<path fill="#fefdfd" d="M28.364 19.868h-1.644l-0.644-1.273h-2.973l-0.61 1.273h-1.603l2.896-5.67h1.6zM25.586 17.621c-0.341-0.7-0.674-1.383-1.017-2.089l-0.995 2.087c0.157 0.014 1.828 0.017 2.012 0.002z"></path>
<path fill="#fefefd" d="M5.029 17.74v2.129h-1.374c-0.031-0.119-0.036-5.505-0.006-5.662 0.048-0.028 0.102-0.015 0.153-0.015 0.738 0 1.477-0.010 2.215 0.003 0.433 0.008 0.869 0.002 1.301 0.052 0.475 0.055 0.885 0.241 1.214 0.592 0.235 0.25 0.357 0.553 0.388 0.889 0.008 0.067 0.013 0.145 0.013 0.225 0 0.164-0.020 0.323-0.057 0.475l0.003-0.014c-0.108 0.411-0.358 0.716-0.71 0.941-0.361 0.232-0.765 0.322-1.189 0.352-0.586 0.041-1.172 0.029-1.758 0.031zM5.037 16.753c0.035 0.011 0.075 0.017 0.116 0.017 0.015 0 0.031-0.001 0.046-0.003l-0.002 0c0.283 0 0.566 0.003 0.847 0 0.245-0.003 0.491-0.004 0.735-0.038 0.227-0.031 0.434-0.104 0.608-0.263 0.136-0.127 0.22-0.306 0.22-0.506 0-0.224-0.107-0.424-0.273-0.55l-0.002-0.001c-0.115-0.087-0.252-0.153-0.401-0.187l-0.007-0.001c-0.143-0.031-0.306-0.049-0.474-0.049-0.003 0-0.006 0-0.009 0h0c-0.44-0.009-0.878-0.007-1.317-0.009-0.031 0-0.063-0.005-0.087 0.025z"></path>
<path fill="#fdf7f4" d="M18.73 21.2v0.292c-0.020 0.013-0.044 0.020-0.070 0.020-0.024 0-0.047-0.006-0.066-0.018l0.001 0v-0.723c0.041-0.025 0.078-0.014 0.119-0.014 0.035 0.094 0 0.196 0.023 0.291 0.044 0.024 0.071 0.012 0.085-0.031 0.012-0.041 0.024-0.075 0.039-0.108l-0.002 0.005c0.047-0.104 0.15-0.175 0.269-0.175 0.008 0 0.015 0 0.023 0.001l-0.001-0c0.121 0 0.225 0.077 0.265 0.185l0.001 0.002c0.026 0.060 0.041 0.13 0.041 0.204 0 0.075-0.016 0.147-0.044 0.211l0.001-0.003c-0.044 0.113-0.153 0.192-0.28 0.192-0.006 0-0.011-0-0.017-0l0.001 0c-0.13-0.011-0.227-0.074-0.273-0.202-0.012-0.034-0.018-0.070-0.029-0.105s-0.035-0.036-0.086-0.024zM19.303 21.125c0-0.006 0.001-0.013 0.001-0.020 0-0.059-0.015-0.114-0.042-0.162l0.001 0.002c-0.067-0.106-0.183-0.111-0.255-0.009s-0.072 0.296 0.003 0.399 0.189 0.094 0.253-0.014c0.036-0.062 0.038-0.13 0.039-0.196z"></path>
<path fill="#fdf7f4" d="M11.201 21.139c0 0.091-0.013 0.185-0.089 0.24-0.089 0.063-0.192 0.154-0.286 0.151s-0.206-0.072-0.289-0.146c-0.075-0.067-0.091-0.161-0.088-0.257 0.002-0.090 0.020-0.176 0.091-0.241 0.083-0.077 0.192-0.107 0.286-0.164 0.085 0.073 0.209 0.076 0.289 0.159 0.071 0.072 0.089 0.162 0.087 0.259zM10.741 20.914c-0.117 0.050-0.153 0.103-0.147 0.225 0.005 0.094 0.028 0.183 0.155 0.214 0.001-0.151 0.013-0.294-0.008-0.439zM10.908 21.357c0.133-0.077 0.167-0.148 0.147-0.278-0.016-0.103-0.049-0.139-0.157-0.157 0.004 0.141-0.010 0.281 0.010 0.435z"></path>
<path fill="#fdf7f4" d="M11.929 21.686c-0.029 0.023-0.059 0.014-0.094 0.003-0.028-0.083-0.008-0.172-0.021-0.254 0.213-0.184 0.14-0.435 0.173-0.669 0.143-0.028 0.287-0.004 0.437-0.013 0.028 0.153 0.006 0.299 0.015 0.443 0.005 0.079-0.008 0.151 0.052 0.231 0.042 0.056 0.008 0.168 0.008 0.245-0.038 0.036-0.069 0.027-0.1 0.025-0.037-0.050-0.002-0.114-0.038-0.173-0.066-0.008-0.143-0.012-0.221-0.012-0.060 0-0.119 0.003-0.178 0.008l0.008-0.001c-0.052 0.053-0.008 0.119-0.041 0.168zM12.115 20.891c-0.007 0.165-0.009 0.328-0.072 0.49h0.234v-0.499c-0.020-0.005-0.042-0.008-0.065-0.008-0.035 0-0.068 0.006-0.099 0.018l0.002-0.001z"></path>
<path fill="#fefdfd" d="M6.825 21.495c-0.020 0.010-0.043 0.016-0.068 0.016-0.021 0-0.041-0.004-0.059-0.012l0.001 0c-0.022-0.147 0-0.298-0.015-0.48-0.103 0.176-0.193 0.329-0.28 0.479-0.025 0.008-0.054 0.013-0.083 0.013s-0.058-0.005-0.085-0.014l0.002 0.001c0-0.118 0-0.24-0.002-0.363s0-0.24 0-0.355c0.044-0.038 0.084-0.028 0.133-0.016v0.479l0.026 0.009 0.275-0.48c0.023-0.013 0.051-0.021 0.081-0.021 0.027 0 0.052 0.006 0.074 0.017l-0.001-0z"></path>
<path fill="#fdf7f4" d="M27.791 20.763c0.016-0.006 0.035-0.010 0.055-0.010s0.039 0.004 0.056 0.010l-0.001-0c0.028 0.163 0 0.333 0.018 0.521 0.107-0.189 0.205-0.358 0.298-0.52 0.022-0.007 0.047-0.011 0.073-0.011s0.051 0.004 0.075 0.011l-0.002-0v0.729c-0.034 0.029-0.072 0.024-0.126-0.002v-0.433c-0.096 0.063-0.115 0.152-0.161 0.22s-0.090 0.152-0.13 0.22c-0.028 0.009-0.059 0.014-0.092 0.014-0.023 0-0.045-0.003-0.067-0.007l0.002 0z"></path>
<path fill="#fdf7f4" d="M26.59 21.503c-0.023 0.006-0.049 0.010-0.077 0.010s-0.054-0.004-0.079-0.010l0.002 0v-0.731c0.028-0.030 0.065-0.016 0.109-0.012 0.025 0.163 0.004 0.33 0.015 0.528l0.298-0.52c0.023-0.010 0.049-0.015 0.076-0.015 0.024 0 0.046 0.004 0.067 0.012l-0.001-0v0.728c-0.037 0.028-0.075 0.026-0.124-0.005v-0.43l-0.024-0.007z"></path>
<path fill="#fdf7f4" d="M7.108 21.288l0.29-0.512c0.054-0.033 0.099-0.023 0.15-0.013v0.732c-0.017 0.010-0.037 0.015-0.059 0.015-0.025 0-0.048-0.008-0.068-0.021l0 0v-0.435l-0.023-0.003c-0.089 0.152-0.178 0.303-0.262 0.449-0.023 0.008-0.050 0.013-0.079 0.013s-0.055-0.005-0.080-0.014l0.002 0.001v-0.727c0.034-0.031 0.070-0.014 0.112-0.018 0.032 0.171-0.001 0.341 0.016 0.533z"></path>
<path fill="#fdf7f4" d="M25.674 21.137c-0.012-0.007 0.012 0 0.024 0.014 0.109 0.141 0.055 0.312-0.116 0.353-0.048 0.015-0.102 0.023-0.159 0.023-0.062 0-0.121-0.010-0.177-0.028l0.004 0.001v-0.735c0.052-0.012 0.112-0.019 0.173-0.019 0.039 0 0.077 0.003 0.114 0.008l-0.004-0c0.181 0.018 0.243 0.153 0.146 0.31-0.008 0.013-0.024 0.022-0.006 0.074zM25.399 21.401c0.081 0.016 0.146 0.005 0.191-0.065 0.010-0.013 0.016-0.030 0.016-0.048 0-0.020-0.007-0.039-0.019-0.053l0 0c-0.049-0.063-0.113-0.079-0.197-0.054-0.001 0.076-0.012 0.146 0.009 0.22zM25.399 20.866c-0.013 0.071-0.022 0.132 0.007 0.189 0.135-0.008 0.179-0.036 0.174-0.107-0.004-0.064-0.045-0.084-0.181-0.083z"></path>
<path fill="#fdf7f4" d="M17.079 21.141c-0.002 0.114-0.031 0.234-0.14 0.319-0.057 0.044-0.129 0.071-0.208 0.071-0.136 0-0.254-0.081-0.307-0.197l-0.001-0.002c-0.094-0.204-0.026-0.465 0.149-0.553 0.217-0.109 0.508-0.003 0.507 0.362zM16.534 21.13c0 0.152 0.089 0.278 0.198 0.277s0.202-0.132 0.199-0.279-0.090-0.264-0.193-0.268c-0.114-0.005-0.201 0.111-0.204 0.27z"></path>
<path fill="#fdf7f4" d="M20.808 21.13c0 0.231-0.099 0.359-0.298 0.394-0.017 0.003-0.036 0.005-0.056 0.005-0.057 0-0.111-0.015-0.157-0.042l0.001 0.001c-0.146-0.082-0.185-0.22-0.18-0.374s0.067-0.294 0.22-0.35c0.281-0.101 0.494 0.1 0.47 0.366zM20.27 21.14c0 0.009 0 0.030 0.003 0.051 0.016 0.123 0.097 0.214 0.191 0.217 0.089 0.002 0.162-0.074 0.189-0.198 0.007-0.026 0.011-0.056 0.011-0.087 0-0.002-0-0.004-0-0.006v0c-0.009-0.15-0.098-0.26-0.204-0.255s-0.186 0.116-0.189 0.279z"></path>
<path fill="#fefdfd" d="M16.148 20.765c0.018-0.007 0.038-0.012 0.059-0.012 0.023 0 0.045 0.005 0.065 0.014l-0.001-0v0.729c-0.017 0.010-0.038 0.015-0.060 0.015-0.026 0-0.051-0.008-0.071-0.022l0 0v-0.277c-0.098-0.045-0.191-0.021-0.287-0.021-0.034 0.099-0.002 0.2-0.023 0.299-0.034 0.031-0.074 0.022-0.123 0.008v-0.729c0.019-0.011 0.041-0.017 0.065-0.017s0.046 0.006 0.065 0.018l-0.001-0v0.271c0.043 0.008 0.092 0.012 0.142 0.012s0.1-0.004 0.147-0.013l-0.005 0.001c0.032-0.091 0.003-0.182 0.026-0.276z"></path>
<path fill="#fdf7f4" d="M24.268 21.043v-0.267c0.021-0.014 0.046-0.023 0.074-0.023 0.024 0 0.046 0.006 0.065 0.017l-0.001-0v0.717c-0.040 0.038-0.082 0.031-0.135 0.003v-0.279c-0.099-0.039-0.189-0.020-0.295-0.018v0.289c-0.053 0.041-0.094 0.030-0.144 0.022v-0.734c0.040-0.027 0.083-0.021 0.131-0.002 0.028 0.085-0.004 0.176 0.025 0.272 0.084 0.023 0.17 0.013 0.281 0.003z"></path>
<path fill="#fdf7f4" d="M23.031 21.135c0-0.275 0.18-0.438 0.426-0.387 0.010 0.002 0.021 0.003 0.031 0.006 0.191 0.058 0.288 0.308 0.209 0.54-0.047 0.139-0.176 0.236-0.328 0.236-0.047 0-0.091-0.009-0.132-0.026l0.002 0.001c-0.137-0.053-0.209-0.181-0.209-0.37zM23.57 21.147c0-0.094-0.017-0.164-0.069-0.222-0.031-0.039-0.078-0.063-0.13-0.063-0.058 0-0.109 0.030-0.139 0.075l-0 0.001c-0.069 0.094-0.071 0.292-0.003 0.388 0.078 0.108 0.212 0.108 0.289-0.003 0.033-0.047 0.052-0.105 0.052-0.168 0-0.003-0-0.006-0-0.009v0z"></path>
<path fill="#fdf7f4" d="M9.599 21.107c-0.002 0.305-0.202 0.474-0.446 0.409-0.073-0.020-0.134-0.064-0.175-0.122l-0.001-0.001c-0.106-0.146-0.094-0.407 0.025-0.542 0.093-0.105 0.212-0.126 0.343-0.099 0.126 0.026 0.196 0.115 0.234 0.229 0.010 0.037 0.018 0.080 0.020 0.125l0 0.001zM9.452 21.127c-0.003-0.15-0.097-0.271-0.207-0.266s-0.189 0.115-0.191 0.264c-0.004 0.157 0.090 0.288 0.205 0.283 0.109-0.006 0.196-0.132 0.194-0.282z"></path>
<path fill="#fdf7f4" d="M4.193 21.123c0.008-0.264 0.189-0.421 0.426-0.375 0.16 0.031 0.258 0.159 0.272 0.357 0.020 0.287-0.208 0.486-0.466 0.406-0.149-0.046-0.237-0.195-0.231-0.387zM4.738 21.125c-0.002-0.060-0.018-0.116-0.045-0.165l0.001 0.002c-0.025-0.058-0.081-0.098-0.146-0.1h-0c-0.075-0.004-0.128 0.038-0.163 0.1-0.026 0.047-0.042 0.104-0.044 0.163v0c-0.007 0.147 0.082 0.275 0.191 0.283 0.114 0.005 0.21-0.126 0.207-0.283z"></path>
<path fill="#fefdfd" d="M14.778 20.887c-0.029-0.009-0.063-0.015-0.097-0.015-0.027 0-0.053 0.003-0.079 0.009l0.002-0c-0.008 0.134-0.011 0.263-0.025 0.391-0.018 0.163-0.075 0.217-0.234 0.238-0.026-0.043-0.041-0.091 0.010-0.122 0.085-0.052 0.092-0.135 0.094-0.22 0.004-0.13 0-0.261 0-0.394 0.080-0.039 0.157-0.018 0.234-0.021s0.146 0 0.229 0v0.741c-0.028 0.037-0.070 0.009-0.117 0.015-0.027-0.208 0.004-0.411-0.019-0.621z"></path>
<path fill="#fdf7f4" d="M8.873 21.496c-0.061 0.020-0.101 0.024-0.141 0-0.063-0.088-0.048-0.217-0.148-0.285-0.017-0.011-0.037-0.017-0.059-0.017-0.014 0-0.028 0.003-0.041 0.008l0.001-0v0.295c-0.020 0.010-0.044 0.016-0.069 0.016-0.029 0-0.055-0.008-0.078-0.021l0.001 0v-0.715c0.042-0.036 0.086-0.024 0.141-0.011v0.316l0.227-0.318c0.026-0.008 0.055-0.012 0.085-0.012s0.060 0.004 0.088 0.013l-0.002-0.001-0.239 0.317c0.169 0.091 0.18 0.26 0.234 0.415z"></path>
<path fill="#fefdfd" d="M27.164 20.767c0.040-0.021 0.075-0.011 0.108-0.009 0.035 0.046 0.016 0.094 0.022 0.14s-0.016 0.094 0.028 0.14c0.086-0.079 0.129-0.189 0.209-0.273 0.022-0.007 0.048-0.011 0.074-0.011 0.032 0 0.062 0.006 0.090 0.017l-0.002-0.001-0.235 0.309c0.066 0.054 0.135 0.102 0.159 0.185 0.022 0.075 0.048 0.148 0.073 0.223-0.043 0.039-0.088 0.026-0.134 0.016-0.086-0.094-0.037-0.296-0.238-0.311-0.056 0.099 0 0.209-0.038 0.305-0.034 0.024-0.070 0.015-0.117 0.009z"></path>
<path fill="#fdf7f4" d="M21.814 21.493c-0.005-0.012-0.008-0.027-0.008-0.042 0-0.025 0.009-0.048 0.023-0.067l-0 0c0.159 0.031 0.314 0.031 0.369-0.18-0.104-0.034-0.2-0.003-0.292-0.025-0.033-0.028-0.031-0.063-0.008-0.11h0.289c-0.029-0.189-0.063-0.205-0.353-0.198-0.008-0.011-0.015-0.024-0.020-0.038l-0-0.001c-0-0.004-0.001-0.009-0.001-0.013 0-0.011 0.001-0.021 0.003-0.031l-0 0.001c0.178-0.080 0.346-0.059 0.447 0.054 0.114 0.126 0.13 0.379 0.031 0.529-0.091 0.143-0.252 0.184-0.481 0.121z"></path>
<path fill="#fdf7f4" d="M18.118 20.874c-0.014 0.063-0.018 0.097 0.008 0.136 0.052 0.008 0.109 0.012 0.164 0.024 0.12 0.027 0.186 0.104 0.192 0.216 0.006 0.118-0.045 0.202-0.16 0.242-0.056 0.021-0.121 0.033-0.189 0.033-0.056 0-0.11-0.008-0.161-0.024l0.004 0.001v-0.741h0.423c0.025 0.035 0.024 0.067-0.011 0.113zM18.113 21.148c-0.006 0.038-0.009 0.081-0.009 0.126s0.003 0.088 0.009 0.131l-0.001-0.005c0.083 0.016 0.15 0.004 0.195-0.063 0.013-0.019 0.021-0.042 0.021-0.067s-0.008-0.048-0.021-0.067l0 0c-0.044-0.068-0.112-0.080-0.195-0.056z"></path>
<path fill="#fdf7f4" d="M14.277 21.492c-0.024 0.013-0.051 0.020-0.081 0.020-0.025 0-0.049-0.005-0.071-0.015l0.001 0c-0.020-0.055-0.041-0.113-0.063-0.176-0.069-0.031-0.14-0.020-0.211-0.010-0.043 0.053-0.043 0.12-0.071 0.176-0.040 0.040-0.086 0.018-0.153 0.022 0.080-0.261 0.157-0.506 0.231-0.747 0.031-0.007 0.066-0.011 0.102-0.011 0.030 0 0.059 0.003 0.087 0.008l-0.003-0zM14.015 21.169c0-0.001 0-0.003 0-0.004 0-0.085-0.029-0.163-0.078-0.225l0.001 0.001c-0.020 0.089-0.061 0.157-0.055 0.236 0.017 0.008 0.037 0.012 0.059 0.012 0.027 0 0.053-0.007 0.074-0.020l-0.001 0z"></path>
<path fill="#fdf7f4" d="M25.146 21.491c-0.025 0.013-0.055 0.021-0.087 0.021-0.019 0-0.037-0.003-0.053-0.008l0.001 0c-0.047-0.051-0.039-0.126-0.080-0.184-0.063-0.033-0.13-0.011-0.189-0.015-0.066 0.051-0.053 0.13-0.087 0.184-0.046 0.031-0.089 0.030-0.145-0.002l0.223-0.721c0.065-0.024 0.121-0.011 0.186-0.013 0.076 0.245 0.153 0.488 0.231 0.736zM24.811 20.921c-0.026 0.094-0.047 0.174-0.070 0.261 0.055 0.003 0.099 0.020 0.153-0.018-0.021-0.073-0.033-0.153-0.083-0.243z"></path>
<path fill="#fdf7f4" d="M21.317 20.767c0.032-0.010 0.069-0.015 0.107-0.015 0.029 0 0.057 0.003 0.084 0.009l-0.003-0 0.229 0.726c-0.023 0.016-0.052 0.025-0.083 0.025-0.018 0-0.035-0.003-0.051-0.009l0.001 0c-0.054-0.048-0.040-0.128-0.094-0.189-0.028-0.007-0.060-0.012-0.093-0.012-0.041 0-0.080 0.006-0.116 0.018l0.003-0.001c-0.021 0.058-0.041 0.117-0.063 0.177-0.043 0.024-0.087 0.020-0.146 0 0.076-0.243 0.15-0.484 0.225-0.73zM21.487 21.171c-0.022-0.077-0.045-0.154-0.073-0.251-0.039 0.075-0.065 0.162-0.073 0.255l-0 0.003c0.049 0.011 0.092 0.021 0.146-0.006z"></path>
<path fill="#fefdfd" d="M15.074 21.501v-0.723c0.039-0.035 0.080-0.023 0.123-0.015 0.038 0.076-0.006 0.165 0.030 0.241 0.063 0.010 0.126 0.016 0.186 0.031 0.1 0.020 0.174 0.106 0.174 0.21 0 0.001 0 0.002-0 0.003v-0c0.006 0.123-0.042 0.198-0.157 0.243-0.085 0.033-0.199 0.037-0.355 0.009zM15.219 21.401c0.091 0.016 0.16 0.004 0.201-0.069 0.011-0.018 0.018-0.040 0.018-0.063 0-0.032-0.012-0.061-0.033-0.083l0 0c-0.050-0.054-0.113-0.063-0.186-0.035z"></path>
<path fill="#fdf7f4" d="M12.604 21.509v-0.742c0.136-0.031 0.274-0.006 0.401-0.013 0.016 0.016 0.026 0.038 0.026 0.062 0 0.016-0.004 0.030-0.011 0.043l0-0c-0.080 0.034-0.171 0-0.265 0.026-0.010 0.024-0.016 0.052-0.016 0.082s0.006 0.058 0.016 0.083l-0.001-0.002c0.075 0.031 0.156 0.003 0.231 0.021 0.036 0.030 0.025 0.065 0.013 0.103-0.076 0.038-0.164-0.006-0.245 0.031-0.010 0.026-0.015 0.056-0.015 0.087 0 0.029 0.005 0.057 0.014 0.083l-0.001-0.002c0.089 0.037 0.186-0.002 0.27 0.025 0.012 0.017 0.019 0.038 0.019 0.060 0 0.016-0.003 0.030-0.010 0.044l0-0.001c-0.133 0.024-0.27 0.009-0.428 0.009z"></path>
<path fill="#fdf7f4" d="M17.191 21.513v-0.749h0.414c0.027 0.025 0.017 0.056 0.008 0.092-0.080 0.036-0.173 0.002-0.264 0.027-0.031 0.052-0.019 0.106-0.008 0.161 0.080 0.036 0.161 0.005 0.237 0.025 0.035 0.028 0.024 0.063 0.013 0.102-0.075 0.039-0.164-0.005-0.245 0.031-0.010 0.026-0.015 0.055-0.015 0.086 0 0.029 0.005 0.057 0.014 0.084l-0.001-0.002c0.085 0.035 0.176 0 0.263 0.024 0.036 0.026 0.027 0.063 0.016 0.105-0.136 0.027-0.276 0.006-0.432 0.013z"></path>
<path fill="#fdf7f4" d="M11.316 21.503v-0.742h0.409c0.031 0.031 0.026 0.063 0.003 0.102-0.082 0.030-0.174-0.009-0.257 0.026-0.011 0.024-0.017 0.052-0.017 0.081 0 0.028 0.005 0.054 0.015 0.078l-0.001-0.001c0.075 0.042 0.164-0.002 0.238 0.028 0.027 0.031 0.016 0.061 0.012 0.094-0.077 0.043-0.165 0-0.244 0.031-0.036 0.054-0.015 0.11-0.015 0.166 0.092 0.046 0.191 0 0.275 0.031 0.029 0.031 0.021 0.063 0.014 0.103z"></path>
<path fill="#fdf7f4" d="M9.715 20.759h0.406c0.031 0.034 0.022 0.063 0.010 0.097-0.081 0.039-0.174 0-0.268 0.031-0.008 0.023-0.013 0.049-0.013 0.076 0 0.030 0.006 0.059 0.017 0.086l-0.001-0.002c0.076 0.035 0.157 0 0.234 0.025 0.031 0.030 0.023 0.063 0.008 0.101-0.076 0.037-0.165-0.005-0.244 0.031-0.010 0.026-0.015 0.055-0.015 0.086s0.006 0.061 0.016 0.088l-0.001-0.002c0.086 0.028 0.176 0.002 0.259 0.018 0.038 0.031 0.031 0.066 0.016 0.11-0.072 0.007-0.156 0.011-0.241 0.011-0.065 0-0.129-0.002-0.193-0.007l0.009 0z"></path>
<path fill="#fefdfd" d="M3.638 20.763c0.051-0.010 0.111-0.016 0.171-0.016 0.039 0 0.077 0.002 0.114 0.007l-0.005-0c0.131 0.013 0.202 0.089 0.208 0.212 0.007 0.138-0.067 0.235-0.199 0.259-0.045 0.008-0.092 0.008-0.138 0.012-0.037 0.086-0.003 0.172-0.027 0.255-0.035 0.031-0.075 0.022-0.126 0.009zM3.773 20.878c0.006 0.077-0.019 0.157 0.017 0.233 0.144-0.004 0.205-0.048 0.196-0.139-0.009-0.085-0.070-0.115-0.214-0.094z"></path>
<path fill="#fdf7f4" d="M19.562 20.764c0.053-0.012 0.113-0.018 0.175-0.018 0.038 0 0.075 0.003 0.112 0.007l-0.004-0c0.132 0.012 0.201 0.087 0.209 0.21 0.008 0.14-0.061 0.235-0.194 0.261-0.041 0.006-0.090 0.010-0.139 0.012l-0.003 0c-0.029 0.085-0.002 0.17-0.020 0.251-0.039 0.038-0.083 0.021-0.137 0.014zM19.712 21.113c0.146-0.012 0.207-0.055 0.202-0.133-0.005-0.084-0.069-0.118-0.203-0.104-0.005 0.035-0.008 0.076-0.008 0.118s0.003 0.084 0.009 0.125l-0.001-0.005z"></path>
<path fill="#fefdfd" d="M13.302 21.235c-0.004 0.094-0.008 0.176-0.012 0.256-0.043 0.030-0.083 0.022-0.13 0.006v-0.733c0.053-0.012 0.114-0.018 0.177-0.018 0.037 0 0.074 0.002 0.111 0.007l-0.004-0c0.13 0.011 0.202 0.088 0.209 0.21 0.008 0.139-0.063 0.235-0.193 0.261-0.046 0.006-0.1 0.011-0.155 0.012l-0.001 0zM13.3 21.104c0.074 0.027 0.138 0.016 0.189-0.049 0.016-0.019 0.025-0.043 0.025-0.069 0-0.023-0.007-0.044-0.020-0.062l0 0c-0.047-0.069-0.113-0.078-0.189-0.053-0.007 0.042-0.011 0.090-0.011 0.139 0 0.033 0.002 0.065 0.005 0.097l-0-0.004z"></path>
<path fill="#fdf7f4" d="M5.494 21.387c0.008 0.014 0.015 0.031 0.020 0.048l0.001 0.002c0.001 0.007 0.001 0.015 0.001 0.023s-0 0.016-0.001 0.024l0-0.001c-0.048 0.060-0.3 0.052-0.403-0.012-0.15-0.094-0.206-0.334-0.12-0.521s0.274-0.25 0.521-0.178c0.023 0.038 0.004 0.069-0.018 0.099-0.29-0.005-0.395 0.068-0.391 0.27 0.005 0.197 0.119 0.272 0.389 0.246z"></path>
<path fill="#fdf7f4" d="M6.123 20.77c0.004 0.011 0.006 0.023 0.006 0.036 0 0.027-0.010 0.051-0.027 0.069l0-0c-0.267-0.039-0.438 0.049-0.369 0.355 0.044 0.197 0.22 0.171 0.365 0.157 0.017 0.017 0.028 0.041 0.028 0.067 0 0.010-0.001 0.019-0.004 0.028l0-0.001c-0.183 0.077-0.363 0.048-0.471-0.076s-0.118-0.353-0.023-0.501 0.26-0.195 0.494-0.135z"></path>
<path fill="#fdf7f4" d="M8.221 20.773c0.007 0.011 0.010 0.024 0.010 0.039 0 0.024-0.011 0.045-0.027 0.059l-0 0c-0.291-0.007-0.391 0.063-0.386 0.272 0.004 0.199 0.113 0.27 0.377 0.246 0.037 0.022 0.038 0.057 0.031 0.094-0.054 0.060-0.3 0.052-0.403-0.013-0.153-0.098-0.208-0.332-0.121-0.519s0.277-0.251 0.519-0.177z"></path>
<path fill="#fefdfd" d="M22.474 20.764c0.051-0.011 0.11-0.017 0.171-0.017 0.033 0 0.065 0.002 0.097 0.005l-0.004-0c0.136 0.009 0.218 0.090 0.227 0.214 0.010 0.129-0.070 0.23-0.201 0.259-0.045 0.010-0.094-0.005-0.133 0.017-0.031 0.042-0.020 0.085-0.021 0.126s0 0.082 0 0.113c-0.046 0.047-0.087 0.025-0.135 0.028zM22.618 21.121c0.082-0.005 0.151-0.007 0.186-0.079 0.010-0.016 0.016-0.036 0.016-0.057 0-0.029-0.011-0.055-0.029-0.075l0 0c-0.050-0.052-0.111-0.072-0.181-0.029-0.003 0.028-0.005 0.060-0.005 0.092 0 0.052 0.005 0.103 0.015 0.152l-0.001-0.005z"></path>
<path fill="#fdf7f4" d="M25.8 20.758h0.531c0.012 0.017 0.020 0.037 0.020 0.060 0 0.021-0.006 0.040-0.017 0.056l0-0-0.192 0.013v0.602c-0.020 0.014-0.044 0.022-0.071 0.022s-0.051-0.008-0.071-0.022l0 0v-0.579c-0.063-0.052-0.132-0.014-0.191-0.037-0.032-0.027-0.024-0.061-0.009-0.114z"></path>
<path fill="#fdf7f4" d="M7.261 20.651c0.074-0.057 0.074-0.057 0.155-0.050-0.009 0.081-0.057 0.116-0.133 0.123-0.091 0.008-0.117-0.009-0.171-0.119 0.071-0.061 0.106 0.017 0.148 0.046z"></path>
<path fill="#d2622a" d="M11.641 15.237v3.638c-0.544-0.059-1.168-0.88-1.232-1.634-0.088-1.042 0.596-1.798 1.232-2.004z"></path>
<path fill="#d2622a" d="M12.915 18.88v-3.621c0.537 0.060 1.161 0.89 1.221 1.616 0.089 1.060-0.615 1.824-1.221 2.005z"></path>
<path fill="#d2622a" d="M17.104 18.906v-1.462c0.046-0.031 0.094-0.019 0.14-0.019 0.44 0 0.88-0.005 1.32 0 0.278 0.003 0.554 0.026 0.817 0.122 0.285 0.104 0.433 0.317 0.445 0.602 0.017 0.403-0.314 0.653-0.588 0.715-0.178 0.038-0.383 0.060-0.592 0.060-0.011 0-0.021-0-0.032-0h0.002c-0.471 0.005-0.943 0.002-1.414 0-0.030 0-0.063 0.009-0.098-0.019z"></path>
<path fill="#d2622a" d="M25.586 17.621c-0.183 0.014-1.855 0.013-2.012 0l0.995-2.087c0.343 0.703 0.676 1.387 1.017 2.087z"></path>
<path fill="#d2622a" d="M5.037 16.753v-1.565c0.023-0.031 0.056-0.025 0.087-0.025 0.44 0.002 0.878 0 1.317 0.009 0.002 0 0.005 0 0.008 0 0.168 0 0.332 0.018 0.489 0.051l-0.015-0.003c0.156 0.036 0.293 0.101 0.411 0.191l-0.003-0.002c0.168 0.128 0.275 0.327 0.275 0.552 0 0.199-0.084 0.379-0.22 0.505l-0 0c-0.174 0.157-0.38 0.231-0.608 0.263-0.244 0.034-0.49 0.035-0.735 0.038-0.283 0.003-0.566 0-0.847 0-0.013 0.002-0.029 0.002-0.045 0.002-0.041 0-0.081-0.006-0.118-0.017l0.003 0.001z"></path>
<path fill="#d2622a" d="M19.303 21.125c0 0.068-0.003 0.135-0.040 0.196-0.066 0.108-0.179 0.114-0.253 0.014s-0.076-0.296-0.003-0.399 0.189-0.097 0.255 0.009c0.026 0.047 0.041 0.102 0.041 0.162 0 0.006-0 0.013-0.001 0.019l0-0.001z"></path>
<path fill="#d2622a" d="M10.741 20.914c0.021 0.145 0.008 0.288 0.008 0.44-0.126-0.031-0.149-0.119-0.155-0.214-0.007-0.123 0.030-0.176 0.147-0.226z"></path>
<path fill="#d2622a" d="M10.907 21.357c-0.020-0.153-0.006-0.293-0.010-0.435 0.107 0.019 0.141 0.054 0.157 0.157 0.020 0.13-0.014 0.2-0.147 0.278z"></path>
<path fill="#d2622a" d="M12.115 20.891c0.029-0.011 0.062-0.017 0.097-0.017 0.023 0 0.046 0.003 0.067 0.008l-0.002-0v0.499h-0.234c0.063-0.161 0.065-0.325 0.072-0.49z"></path>
<path fill="#d2622a" d="M25.399 21.401c-0.020-0.075-0.009-0.145-0.009-0.22 0.084-0.024 0.147-0.009 0.197 0.054 0.012 0.014 0.019 0.033 0.019 0.053 0 0.018-0.006 0.035-0.016 0.048l0-0c-0.045 0.070-0.11 0.081-0.191 0.065z"></path>
<path fill="#d2622a" d="M25.399 20.865c0.136 0 0.177 0.019 0.181 0.083 0.004 0.071-0.040 0.098-0.174 0.107-0.029-0.058-0.020-0.118-0.007-0.19z"></path>
<path fill="#d2622a" d="M16.534 21.13c0.002-0.157 0.089-0.274 0.204-0.27 0.104 0.004 0.189 0.123 0.193 0.268s-0.090 0.278-0.199 0.279-0.198-0.125-0.198-0.277z"></path>
<path fill="#d2622a" d="M20.271 21.14c0.003-0.163 0.081-0.274 0.189-0.279s0.195 0.105 0.204 0.255c0 0.002 0 0.004 0 0.006 0 0.031-0.004 0.061-0.011 0.089l0.001-0.002c-0.026 0.126-0.099 0.201-0.189 0.198-0.094-0.002-0.175-0.094-0.191-0.217-0.002-0.021-0.001-0.042-0.002-0.051z"></path>
<path fill="#d2622a" d="M23.57 21.147c0 0.002 0 0.005 0 0.008 0 0.063-0.020 0.121-0.053 0.169l0.001-0.001c-0.077 0.111-0.211 0.111-0.289 0.003-0.068-0.094-0.067-0.292 0.003-0.388 0.030-0.046 0.081-0.075 0.139-0.075 0.053 0 0.1 0.025 0.13 0.063l0 0c0.051 0.058 0.067 0.129 0.069 0.222z"></path>
<path fill="#d2622a" d="M9.452 21.125c0.003 0.148-0.085 0.275-0.194 0.28-0.114 0.006-0.209-0.126-0.205-0.283 0.004-0.149 0.084-0.259 0.191-0.264s0.204 0.118 0.207 0.267z"></path>
<path fill="#d2622a" d="M4.738 21.125c0.003 0.157-0.092 0.288-0.207 0.283-0.109-0.007-0.198-0.135-0.191-0.283 0.001-0.060 0.017-0.116 0.045-0.166l-0.001 0.002c0.036-0.063 0.089-0.104 0.163-0.1 0.066 0.002 0.121 0.043 0.146 0.099l0 0.001c0.026 0.047 0.042 0.103 0.044 0.163l0 0.001z"></path>
<path fill="#d2622a" d="M18.113 21.147c0.083-0.024 0.151-0.012 0.197 0.055 0.013 0.019 0.021 0.042 0.021 0.067s-0.008 0.048-0.021 0.067l0-0c-0.045 0.069-0.112 0.081-0.195 0.063-0.006-0.040-0.010-0.086-0.010-0.132 0-0.042 0.003-0.083 0.008-0.124l-0.001 0.005z"></path>
<path fill="#d2622a" d="M14.015 21.169c-0.021 0.012-0.047 0.020-0.074 0.020-0.021 0-0.041-0.004-0.060-0.013l0.001 0c-0.006-0.079 0.036-0.147 0.055-0.236 0.048 0.061 0.077 0.139 0.077 0.224 0 0.002 0 0.003-0 0.005v-0z"></path>
<path fill="#d2622a" d="M24.811 20.921c0.050 0.090 0.063 0.17 0.083 0.243-0.054 0.037-0.098 0.020-0.153 0.018 0.023-0.088 0.044-0.165 0.070-0.261z"></path>
<path fill="#d2622a" d="M21.487 21.171c-0.053 0.027-0.097 0.017-0.146 0.006 0.008-0.095 0.034-0.183 0.075-0.262l-0.002 0.004c0.028 0.097 0.051 0.175 0.073 0.251z"></path>
<path fill="#d2622a" d="M15.219 21.401v-0.251c0.073-0.029 0.136-0.019 0.186 0.035 0.020 0.022 0.033 0.051 0.033 0.083 0 0.023-0.007 0.045-0.018 0.064l0-0.001c-0.041 0.075-0.11 0.086-0.201 0.070z"></path>
<path fill="#d2622a" d="M3.772 20.878c0.142-0.021 0.204 0.009 0.212 0.094 0.009 0.090-0.052 0.135-0.196 0.139-0.034-0.077-0.009-0.156-0.017-0.233z"></path>
<path fill="#d2622a" d="M19.712 21.113c-0.005-0.036-0.008-0.077-0.008-0.119s0.003-0.083 0.009-0.123l-0.001 0.005c0.134-0.014 0.198 0.020 0.203 0.104 0.004 0.079-0.057 0.121-0.203 0.133z"></path>
<path fill="#d2622a" d="M13.3 21.104c-0.003-0.030-0.005-0.064-0.005-0.099 0-0.047 0.004-0.093 0.010-0.138l-0.001 0.005c0.077-0.025 0.143-0.016 0.189 0.053 0.012 0.017 0.019 0.038 0.019 0.061 0 0.026-0.010 0.051-0.025 0.069l0-0c-0.049 0.065-0.113 0.076-0.187 0.049z"></path>
<path fill="#d2622a" d="M22.619 21.121c-0.008-0.043-0.013-0.093-0.013-0.144 0-0.034 0.002-0.067 0.006-0.099l-0 0.004c0.070-0.044 0.131-0.024 0.181 0.029 0.018 0.020 0.029 0.046 0.029 0.075 0 0.021-0.006 0.041-0.016 0.058l0-0c-0.036 0.072-0.104 0.074-0.186 0.079z"></path>
</svg>
