<!-- Generated by IcoMoon.io -->
<svg version="1.1" xmlns="http://www.w3.org/2000/svg" width="32" height="32" viewBox="0 0 32 32">
<title>damage_void</title>
<path d="M30.744 9.787q1.256 2.962 1.256 6.213t-1.256 6.245q-1.223 2.833-3.412 5.054-2.221 2.254-5.087 3.445-2.994 1.256-6.245 1.256t-6.213-1.256q-2.833-1.191-5.087-3.445-2.157-2.125-3.412-5.054-1.288-3.058-1.288-6.245t1.288-6.213q1.256-2.994 3.412-5.087 2.254-2.254 5.087-3.445 3.058-1.256 6.213-1.256 3.123 0 6.245 1.256 2.865 1.191 5.087 3.445 2.189 2.189 3.412 5.087zM15.839 2.221q-5.473-0.032-9.288 3.622t-4.298 8.998h0.032v-0.193l0.032-0.097v-0.064l0.064-0.354 0.064-0.193 0.032-0.161q0.064-0.258 0.097-0.354 0-0.032 0.016-0.097t0.016-0.097l0.064-0.161 0.032-0.193q0.032-0.032 0.032-0.064 0.032-0.064 0.032-0.097 0.515-1.449 1.223-2.672 0.676-1.127 1.835-2.318 0.998-0.998 2.35-1.835 1.159-0.74 2.704-1.288 0.064-0.032 0.177-0.064t0.177-0.032q0.032 0 0.097-0.032t0.097-0.032l0.193-0.032q0.097-0.032 0.354-0.097l0.386-0.097q0.097 0 0.161-0.032l0.193-0.032q0.064 0 0.193-0.016t0.193-0.016l0.386-0.032q0.032 0 0.097-0.032h0.258q0.064 0 0.193-0.016t0.193-0.016h0.386q0.064 0 0.193 0.016t0.193 0.016h0.161q0.129 0 0.193 0.032 0.29 0 0.74 0.064 0.064 0.032 0.193 0.032l0.097 0.032h0.097q0.064 0.032 0.177 0.064t0.177 0.032h0.129q0.032 0.032 0.064 0.032t0.080 0.016 0.080 0.016 0.097 0.032 0.097 0.032h0.097l0.064 0.032q0.258 0.064 0.354 0.129h0.097l0.097 0.032q0.129 0.064 0.161 0.064 0.129 0.064 0.193 0.064l0.064 0.032 0.097 0.032q0.032 0.032 0.145 0.080t0.177 0.080l0.193 0.064q0.064 0.064 0.161 0.064 0.032 0.032 0.161 0.097l0.064 0.032 0.097 0.032q2.575 1.352 4.185 3.67 0.773 1.095 1.223 2.318 0.064 0.129 0.064 0.161 0.032 0.032 0.032 0.064t0.032 0.064q0.032 0.129 0.097 0.322 0 0.032 0.032 0.064l0.032 0.064v0.097l0.032 0.064q0.032 0.032 0.064 0.161t0.032 0.161q0.064 0.193 0.064 0.29 0.032 0.129 0.097 0.322 0 0.032 0.016 0.145t0.016 0.177l0.032 0.064v0.064q0 0.032 0.032 0.097v0.064q0.161 1.384 0.032 2.414-0.097 1.062-0.451 2.157-0.29 0.837-0.805 1.803-0.579 0.901-0.998 1.416-0.064 0.097-0.258 0.29-0.032 0.064-0.129 0.161t-0.129 0.161-0.129 0.145-0.161 0.113l-0.161 0.129q-0.032 0.032-0.064 0.080t-0.064 0.080l-0.161 0.129q-0.064 0.032-0.161 0.129-0.064 0.032-0.161 0.113t-0.129 0.113q-0.129 0.097-0.322 0.225t-0.354 0.225q-0.064 0.064-0.129 0.064 0.515-0.161 1.223-0.515 1.062-0.547 1.899-1.256 0.934-0.837 1.577-1.706 0.612-0.837 1.159-2.028l0.032-0.064v-0.064l0.129-0.258q0-0.032 0.016-0.080t0.016-0.080q0.032-0.032 0.064-0.129t0.032-0.129l0.032-0.161 0.064-0.129q0.032-0.064 0.032-0.161t0.032-0.129 0.032-0.064v-0.064l0.032-0.161q0.064-0.129 0.064-0.258 0.032-0.032 0.032-0.129t0.032-0.161l0.032-0.161v-0.129q0-0.032 0.032-0.129t0.032-0.161v-0.29q0.032-0.097 0.032-0.29v-0.29l0.032-0.161v-0.129q0-0.193-0.032-0.29v-0.29q0-0.097-0.016-0.29t-0.016-0.29q-0.032-0.097-0.032-0.29-0.032-0.032-0.032-0.129l-0.032-0.161q0-0.032-0.016-0.129t-0.016-0.161q-0.064-0.129-0.064-0.258-0.064-0.193-0.064-0.29l-0.097-0.29q-0.032-0.097-0.080-0.258t-0.048-0.193q-0.258-0.773-0.579-1.417-0.515-1.062-1.159-1.899-0.032-0.097-0.161-0.225-0.064-0.129-0.161-0.225-0.032-0.032-0.080-0.097t-0.080-0.097-0.080-0.113-0.080-0.113q-0.129-0.129-0.37-0.386t-0.37-0.386q-0.258-0.258-0.773-0.708-0.032-0.032-0.338-0.258t-0.467-0.354q-1.513-1.062-3.316-1.706h-0.064l-0.064-0.032q-0.032-0.032-0.097-0.032-0.129-0.064-0.193-0.064-0.032 0-0.097-0.032t-0.097-0.032h-0.032q-0.064-0.032-0.097-0.032t-0.097-0.032q-0.064 0-0.193-0.064-0.032 0-0.097-0.016t-0.097-0.016l-0.386-0.097q-1.191-0.225-1.61-0.225zM22.181 16q0-2.479-1.755-4.217t-4.201-1.738q-2.479 0-4.233 1.738t-1.755 4.217 1.755 4.217 4.233 1.738q2.447 0 4.201-1.738t1.755-4.217zM16.193 29.779q2.704 0.097 5.151-0.869t4.201-2.704 2.865-4.089 1.336-4.958v0.032l-0.032 0.161v0.097l-0.032 0.032v0.064q0 0.097-0.064 0.354l-0.032 0.161-0.032 0.193q-0.032 0.097-0.097 0.354 0 0.032-0.064 0.161l-0.097 0.354v0.097l-0.032 0.064q-0.483 1.449-1.256 2.672-0.773 1.256-1.835 2.318-1.159 1.159-2.35 1.867-1.223 0.773-2.672 1.256-0.258 0.064-0.386 0.129-0.032 0-0.080 0.016t-0.080 0.016l-0.193 0.064q-0.258 0.064-0.354 0.097-0.129 0-0.386 0.064-0.032 0-0.097 0.016t-0.097 0.016l-0.193 0.032q-0.097 0-0.354 0.064-0.258 0-0.386 0.032h-0.386q-0.129 0.032-0.386 0.032h-0.354q-0.258 0-0.386-0.032h-0.386q-0.225-0.032-0.74-0.097-0.032 0-0.097-0.016t-0.097-0.016h-0.097q-0.032-0.032-0.064-0.032-0.064-0.032-0.193-0.032t-0.193-0.032l-0.064-0.032h-0.097q-0.032 0-0.097-0.032t-0.097-0.032-0.080-0.016-0.080-0.016l-0.193-0.064q-0.064-0.032-0.177-0.064t-0.177-0.032l-0.097-0.032-0.064-0.032q-0.032 0-0.097-0.032t-0.097-0.032q-0.032-0.032-0.064-0.032t-0.048-0.016-0.048-0.016l-0.097-0.032-0.064-0.032q-0.064 0-0.177-0.048t-0.177-0.080l-0.064-0.032-0.097-0.064q-0.032 0-0.161-0.064t-0.161-0.064l-0.097-0.064-0.064-0.032q-2.575-1.288-4.185-3.67-0.773-1.095-1.256-2.318l-0.064-0.129q0-0.032-0.032-0.097v-0.064q-0.064-0.097-0.129-0.29 0-0.032-0.016-0.080t-0.016-0.080q-0.032-0.032-0.032-0.064v-0.032q-0.064-0.129-0.064-0.161t-0.016-0.080-0.016-0.080l-0.097-0.29q-0.032-0.129-0.097-0.322 0-0.064-0.064-0.322 0-0.097-0.064-0.29v-0.161q-0.032-0.064-0.032-0.161-0.161-1.384-0.032-2.382 0.097-1.127 0.451-2.157 0.354-1.095 0.805-1.803 0.515-0.869 0.998-1.449 0.064-0.097 0.258-0.29 0.032-0.032 0.113-0.129t0.145-0.161l0.29-0.29 0.161-0.129 0.129-0.129 0.161-0.129q0.032-0.064 0.161-0.129 0.064-0.032 0.161-0.113t0.129-0.145q0.193-0.097 0.322-0.225 0.064-0.032 0.177-0.097t0.177-0.097q0.064-0.064 0.129-0.097-0.837 0.322-1.223 0.515-1.095 0.579-1.899 1.288-0.901 0.74-1.577 1.674-0.676 0.966-1.159 2.028 0 0.032-0.032 0.064v0.064l-0.064 0.161-0.064 0.129q0 0.032-0.016 0.064t-0.016 0.064l-0.097 0.29-0.064 0.129-0.032 0.129q-0.064 0.193-0.064 0.29l-0.032 0.064v0.097l-0.032 0.129q-0.064 0.193-0.064 0.29-0.064 0.193-0.064 0.29l-0.032 0.129q0 0.097-0.032 0.161 0 0.193-0.032 0.29 0 0.193-0.032 0.29v0.29q0 0.193-0.032 0.29v0.708q0 0.032 0.016 0.080t0.016 0.080q0 0.386 0.032 0.547 0.032 0.097 0.032 0.29 0 0.032 0.016 0.080t0.016 0.080l0.032 0.129q0 0.032 0.016 0.129t0.016 0.161q0.064 0.193 0.064 0.29 0 0.032 0.032 0.129t0.032 0.129q0.064 0.193 0.064 0.29 0.386 1.256 0.837 2.125 0.386 0.837 1.127 1.932 0.032 0.032 0.161 0.225 0.129 0.129 0.161 0.193 0.032 0.032 0.097 0.113t0.097 0.113q0.032 0.064 0.161 0.193 0.29 0.386 0.74 0.773 0.29 0.322 0.773 0.708 0.258 0.225 0.773 0.612 1.642 1.159 3.348 1.706 0.032 0 0.032 0.032l0.064 0.032q0.064 0 0.097 0.032 0.097 0 0.225 0.064 0.032 0 0.097 0.016t0.097 0.016q0.032 0.032 0.097 0.032 0.032 0.032 0.097 0.032 0.032 0 0.097 0.032t0.097 0.032 0.113 0.016 0.113 0.016l0.386 0.097q0.676 0.161 1.481 0.225h0.129z"></path>
</svg>
