<!-- Generated by IcoMoon.io -->
<svg version="1.1" xmlns="http://www.w3.org/2000/svg" width="32" height="32" viewBox="0 0 32 32">
<title>destiny</title>
<path d="M13.451 15.025q0.475 0.56 1.337 0.906c0.314 0.163 0.685 0.259 1.078 0.259h0c0.416-0.003 0.817-0.066 1.195-0.18l-0.030 0.008c0.262-0.070 0.492-0.173 0.7-0.308l-0.009 0.006c0.228-0.142 0.426-0.299 0.604-0.475l-0 0c0.306-0.295 0.565-0.637 0.766-1.013l0.011-0.022c0.164-0.336 0.259-0.731 0.259-1.148 0-0.021-0-0.042-0.001-0.063l0 0.003v-6.082c0-0.005 0-0.012 0-0.019 0-0.254-0.031-0.5-0.091-0.736l0.004 0.021c-0.218-0.676-0.607-1.246-1.116-1.678l-0.005-0.004q-0.776-0.647-1.898-0.733c-0.123-0.028-0.265-0.043-0.41-0.043s-0.287 0.016-0.423 0.046l0.013-0.002c-0.319 0.074-0.592 0.163-0.855 0.272l0.036-0.013c-0.604 0.264-1.102 0.678-1.459 1.196l-0.007 0.011c-0.325 0.492-0.518 1.095-0.518 1.744 0 0.024 0 0.048 0.001 0.072l-0-0.004v5.694c-0 0.005-0 0.011-0 0.017 0 0.162 0.016 0.32 0.046 0.473l-0.003-0.015c0.025 0.116 0.041 0.25 0.043 0.387l0 0.002c0.154 0.547 0.406 1.023 0.739 1.431l-0.006-0.007z"></path>
<path d="M31.957 7.131c0.028-0.194 0.043-0.419 0.043-0.647s-0.016-0.453-0.046-0.672l0.003 0.025c-0.058-0.23-0.115-0.489-0.173-0.776-0.057-0.293-0.147-0.553-0.267-0.795l0.008 0.018c-0.229-0.463-0.473-0.858-0.748-1.229l0.015 0.021c-0.282-0.367-0.61-0.68-0.978-0.94l-0.014-0.009c-0.273-0.22-0.586-0.409-0.923-0.551l-0.026-0.010c-0.325-0.138-0.703-0.244-1.097-0.299l-0.024-0.003c-0.273-0.055-0.588-0.086-0.909-0.086-0.014 0-0.028 0-0.042 0h0.002c-0.366 0-0.724 0.031-1.073 0.092l0.037-0.005c-0.494 0.124-0.925 0.286-1.33 0.491l0.036-0.017c-0.44 0.219-0.807 0.434-1.159 0.67l0.037-0.023q-0.518 0.345-1.035 0.647c-0.307 0.182-0.675 0.37-1.056 0.535l-0.066 0.026-0.086 0.043v9.102c0 0.006 0 0.013 0 0.020 0 0.344-0.031 0.68-0.091 1.006l0.005-0.034c-0.063 0.344-0.153 0.648-0.27 0.938l0.011-0.032c-0.284 0.631-0.645 1.172-1.082 1.643l0.004-0.004c-0.444 0.465-0.973 0.843-1.565 1.109l-0.031 0.013c-0.201 0.103-0.443 0.205-0.694 0.29l-0.040 0.012c-0.241 0.082-0.518 0.129-0.806 0.129-0.005 0-0.009 0-0.014-0h0.001c-0.111 0.037-0.238 0.058-0.37 0.058-0.067 0-0.133-0.005-0.197-0.016l0.007 0.001c-0.189-0.027-0.408-0.043-0.63-0.043-0.006 0-0.012 0-0.018 0h0.001c-0.372-0.061-0.692-0.136-1.004-0.23l0.055 0.014c-0.329-0.102-0.615-0.234-0.879-0.398l0.016 0.009c-0.525-0.294-0.969-0.669-1.331-1.113l-0.007-0.008c-0.363-0.446-0.668-0.959-0.892-1.513l-0.014-0.040c-0.058-0.173-0.115-0.33-0.173-0.475-0.055-0.136-0.086-0.294-0.086-0.459 0-0.005 0-0.011 0-0.016v0.001q-0.086-0.647-0.086-0.647v-9.318c0-0.028-0.028-0.043-0.086-0.043q-0.431-0.259-0.776-0.431c-0.264-0.135-0.49-0.278-0.701-0.439l0.011 0.008q-0.518-0.259-0.992-0.518t-0.906-0.518c-0.399-0.208-0.861-0.372-1.347-0.469l-0.033-0.006c-0.264-0.050-0.567-0.078-0.877-0.078-0.208 0-0.412 0.013-0.614 0.038l0.024-0.002c-0.483 0.059-0.92 0.165-1.337 0.315l0.042-0.013c-0.431 0.158-0.803 0.377-1.127 0.652l0.005-0.004c-0.348 0.233-0.646 0.504-0.9 0.813l-0.006 0.007c-0.24 0.289-0.455 0.615-0.633 0.962l-0.014 0.030c-0.148 0.284-0.293 0.626-0.415 0.98l-0.017 0.055c-0.11 0.326-0.173 0.701-0.173 1.092 0 0.011 0 0.021 0 0.031v-0.002c-0.022 0.141-0.035 0.303-0.035 0.468 0 0.247 0.028 0.487 0.082 0.718l-0.004-0.021q0.129 0.561 0.302 1.078c0.195 0.445 0.426 0.828 0.699 1.177l-0.009-0.012c0.297 0.381 0.638 0.709 1.021 0.982l0.015 0.010 2.071 1.38c0.225 0.226 0.465 0.437 0.716 0.634l0.017 0.013c0.269 0.21 0.508 0.421 0.733 0.647l0.863 0.863c0.283 0.283 0.538 0.594 0.762 0.927l0.014 0.022q0.345 0.431 0.604 0.82t0.518 0.82c0.27 0.374 0.515 0.799 0.715 1.249l0.018 0.046q0.302 0.69 0.561 1.38 0.345 0.949 0.604 1.855c0.16 0.536 0.282 1.166 0.342 1.815l0.003 0.040c0.054 0.154 0.086 0.332 0.086 0.517v0c0 0.185 0.032 0.363 0.090 0.529l-0.003-0.011c0 0.244 0.016 0.483 0.046 0.718l-0.003-0.028c0.027 0.207 0.043 0.447 0.043 0.69v0l0.173 1.035c0.068 0.399 0.158 0.747 0.273 1.084l-0.014-0.048c0.129 0.443 0.306 0.83 0.529 1.184l-0.011-0.019c0.239 0.384 0.525 0.711 0.856 0.987l0.007 0.005c0.671 0.604 1.531 1.011 2.481 1.12l0.021 0.002c0.232 0.052 0.5 0.083 0.774 0.086l0.003 0c0.245-0 0.483-0.032 0.71-0.091l-0.020 0.004c0.009 0 0.019 0 0.029 0 0.331 0 0.647-0.063 0.937-0.179l-0.017 0.006q0.431-0.173 0.949-0.431c0.601-0.373 1.093-0.866 1.456-1.448l0.011-0.019c0.276-0.329 0.496-0.717 0.64-1.14l0.007-0.025c0.133-0.384 0.239-0.836 0.298-1.303l0.004-0.035c0.001-0.199 0.017-0.393 0.046-0.583l-0.003 0.022c0.026-0.168 0.042-0.362 0.043-0.559v-0.001q0.086-0.518 0.129-1.035c0.028-0.359 0.074-0.684 0.138-1.002l-0.009 0.053q0.086-0.518 0.173-1.078c0.064-0.411 0.154-0.775 0.273-1.125l-0.014 0.047q0.431-1.38 0.431-1.38l0.518-1.38q0.345-0.69 0.69-1.337c0.261-0.485 0.518-0.894 0.8-1.285l-0.023 0.034q0.518-0.604 0.992-1.165t0.992-1.165q0.345-0.259 0.647-0.518t0.561-0.518l0.69-0.518c0.2-0.154 0.427-0.297 0.665-0.42l0.025-0.012 0.863-0.604 0.863-0.69c0.232-0.234 0.445-0.487 0.635-0.758l0.012-0.018c0.193-0.273 0.354-0.587 0.467-0.923l0.008-0.026v0.086c0.157-0.35 0.277-0.756 0.342-1.181l0.003-0.027z"></path>
</svg>
