<!-- Generated by IcoMoon.io -->
<svg version="1.1" xmlns="http://www.w3.org/2000/svg" width="55" height="32" viewBox="0 0 55 32">
<title>environment_hazard</title>
<path d="M32.352 25.12h-9.696v-0.064q0-2.048 1.44-3.424 1.408-1.408 3.424-1.408t3.424 1.408q1.408 1.344 1.408 3.424v0.064zM42.88 21.12q0.448 0.192 8.288 4h-10.304l-1.184-0.576q-0.032-0.032-0.864-0.448t-1.872-0.928-1.52-0.704q-0.064 0-0.064-0.032l-0.16-0.064 0.128-0.224q0.608-1.024 1.6-2.96t1.744-3.456 0.752-1.552l0.96-1.984-1.984 0.992q-0.16 0.064-1.584 0.784t-3.392 1.76-3.024 1.648l-0.128 0.064-0.064-0.16-2.048-4.48-0.672-1.536-2.784 6.176-0.128-0.096q-1.76-1.024-7.968-4.032l-2.016-0.928 0.992 1.952q2.592 5.184 4.128 7.872l0.096 0.128-0.16 0.064q-0.512 0.256-4.32 2.048l-1.408 0.672h-10.432q0.096-0.032 2.064-0.976t4.032-1.92 2.704-1.264q0.928-0.416 1.088-0.928 0.192-0.448-0.32-1.312-0.896-1.536-3.024-5.568t-3.616-6.928-1.712-3.344l-0.192-0.384 0.416 0.192q0.128 0.032 3.024 1.424t6.88 3.392 6.064 3.216q0.928 0.544 1.44 0.384 0.48-0.16 0.928-1.088l4.192-9.344 0.128 0.288q0.032 0.064 1.968 4.384t2.16 4.768q0.192 0.448 0.48 0.736 0.544 0.64 1.728-0.032 2.080-1.216 6.080-3.312t6.96-3.584 3.056-1.52q-5.248 11.456-7.968 16.096-0.832 1.376-0.256 1.952 0.352 0.352 1.088 0.672z"></path>
</svg>
