<!-- Generated by IcoMoon.io -->
<svg version="1.1" xmlns="http://www.w3.org/2000/svg" width="32" height="32" viewBox="0 0 32 32">
<title>faction_crucible_glory</title>
<path d="M21.737 16.574c0.014 0.079 0.022 0.17 0.022 0.263s-0.008 0.184-0.023 0.272l0.001-0.010c-0.649-0.262-1.208-0.685-1.82-1.015-0.037-0.020-0.052-0.078-0.078-0.119 0.27-0.126 0.551-0.047 0.829-0.044 0.306 0.298 0.699 0.455 1.069 0.651z"></path>
<path d="M25.437 17.385c0.178 0.017 0.36-0.031 0.56 0.044v8.754h-20.536v-8.59h0.55c0.006 0.181 0.019 0.361 0.019 0.543q0 3.31 0 6.623v0.574c0.342-0.342 0.631-0.629 0.917-0.918l2.848-2.871c0.050-0.011 0.088-0.049 0.099-0.098l0-0.001c0.046-0.023 0.085-0.049 0.121-0.079l-0.001 0.001q2.124-2.124 4.246-4.251c0.088-0.089 0.21-0.158 0.227-0.31-0.093-0.154-0.256-0.109-0.396-0.136-0.121-0.108-0.273-0.099-0.418-0.11-0.326-0.107-0.66-0.074-0.99-0.070-0.066-0.014-0.142-0.022-0.22-0.022-0.098 0-0.193 0.013-0.283 0.037l0.008-0.002c-0.488-0.070-0.877 0.21-1.3 0.368l-0.293-0.062c-0.099-0.035-0.18-0.107-0.291-0.091-0.226-0.084-0.448-0.178-0.693-0.182-1.188-0.047-2.376-0.023-3.564-0.012-1.367-0.007-2.736-0.025-4.104-0.013-0.004 0-0.009 0-0.013 0-0.513 0-0.993-0.143-1.402-0.391l0.012 0.007c-0.169-0.103-0.314-0.226-0.438-0.367l-0.002-0.002c0-0.179 0.131-0.246 0.233-0.32 0.439-0.333 0.995-0.534 1.597-0.534 0.018 0 0.036 0 0.054 0.001l-0.003-0c0.972 0.017 1.946 0 2.918 0h0.528v-9.085h20.589v9.261h1.056l0.506-0.333c0.053-0.014 0.115-0.021 0.178-0.021 0.082 0 0.161 0.013 0.236 0.038l-0.005-0.002v1.868c-0.406 0.198-0.653-0.132-0.952-0.328-0.536 0.027-1.079-0.042-1.62 0.039h-3.492c-0.080 0.114-0.047 0.228-0.031 0.34v0.505c0 0.099 0 0.19 0 0.285l-0.006 0.594c0 0.071 0 0.143 0 0.213q0 0.342 0 0.683c-0.007 0.094-0.013 0.188-0.019 0.281-0.068 0.144-0.14 0.267-0.221 0.383l0.006-0.009c-0.118 0.147-0.232 0.334-0.477 0.234l0.011 0.009c0.065-0.23 0.103-0.494 0.103-0.766 0-0.11-0.006-0.219-0.018-0.326l0.001 0.013v-0.898c0-0.094 0-0.189 0-0.283 0.014-0.079 0.022-0.17 0.022-0.263s-0.008-0.184-0.023-0.272l0.001 0.010c0.039-0.212 0-0.417-0.013-0.653h-1.058c-0.277 0-0.558-0.081-0.829 0.045-0.003-0-0.007-0-0.010-0-0.136 0-0.252 0.085-0.298 0.205l-0.001 0.002c-0.142 0.123-0.242 0.291-0.279 0.481l-0.001 0.005c-0.053 0.047-0.086 0.115-0.086 0.19 0 0.010 0.001 0.019 0.002 0.029l-0-0.001c-0.114 0.040-0.043 0.198-0.169 0.252-0.009-0.154-0.017-0.297-0.026-0.441 0.012-0.076 0.018-0.163 0.018-0.252 0-0.151-0.019-0.298-0.056-0.438l0.003 0.012c-0.426 0.013-0.831-0.043-1.235 0.017-0.347-0.007-0.693-0.007-1.038-0.022-0.618-0.026-1.117 0.225-1.543 0.648q-1.42 1.414-2.834 2.837c-0.099 0.099-0.247 0.173-0.259 0.343v0c-0.006-0.001-0.013-0.001-0.020-0.001-0.079 0-0.145 0.059-0.156 0.135l-0 0.001c-0.189 0.166-0.418 0.297-0.52 0.543l0.012 0.020c-0.106-0.025-0.152 0.045-0.191 0.124-0.33 0.247-0.594 0.565-0.879 0.852-0.123 0.121-0.304 0.206-0.326 0.41v0c-0.007-0.001-0.015-0.002-0.024-0.002-0.076 0-0.138 0.057-0.147 0.13l-0 0.001c-0.055 0-0.099 0.044-0.099 0.099v0c-0.111 0.099-0.228 0.188-0.332 0.292q-1.21 1.203-2.414 2.41c-0.099 0.099-0.237 0.17-0.26 0.321h19.208v-0.515q0-3.611 0-7.222c-0.002-0.18-0.028-0.362 0.027-0.541zM17.525 14.891h0.783c0.018 0.006 0.038 0.009 0.060 0.009 0.060 0 0.113-0.027 0.15-0.068l0-0v-1.024c0.198 0.198 0.174 0.513 0.386 0.702 0.060 0.21 0.204 0.378 0.392 0.47l0.004 0.002h1.994c-0.055-1.17 0.067-2.314-0.091-3.465 0.483 0.216 0.651 0.461 0.659 1.013 0.013 0.726 0 1.451 0.007 2.178 0 0.125-0.047 0.262 0.049 0.374h3.433c0.083-0.113 0.051-0.216 0.051-0.311q-0.006-4.18-0.018-8.363c0-0.014-0.018-0.028-0.028-0.040s-0.022-0.024-0.034-0.036c-1.222-0.083-18.904-0.045-19.275 0.042v8.49c0.142 0.074 0.275 0.040 0.403 0.041 0.726 0 1.453-0.015 2.178 0.007 0.7 0.021 1.381-0.029 2.035-0.297 0.066-0.022 0.142-0.038 0.221-0.045l0.004-0c0.52 0.222 1.014 0.457 1.584 0.383 0.169 0.035 0.34 0.073 0.502-0.029h0.211c0.198-0.007 0.389 0.018 0.575-0.054l0.198-0.062c0.182 0 0.341-0.077 0.505-0.137l0.278-0.080c0.024-0.003 0.052-0.004 0.080-0.004 0.142 0 0.276 0.038 0.39 0.105l-0.004-0.002c0.26 0.145 0.571 0.23 0.901 0.23 0.137 0 0.27-0.015 0.398-0.042l-0.012 0.002c0.073-0.099 0.198-0.157 0.244-0.29 0.123-0.064 0.221-0.16 0.285-0.278l0.002-0.004c0.2-0.136 0.366-0.304 0.497-0.498l0.004-0.007c0.091-0.035 0.163-0.103 0.202-0.19l0.001-0.002c0.222-0.17 0.414-0.363 0.576-0.58l0.005-0.008c0.092-0.037 0.165-0.108 0.205-0.196l0.001-0.002c0.163-0.104 0.296-0.24 0.393-0.401l0.003-0.005c0.898-0.801 1.705-1.691 2.581-2.537v-2.761c0.731-0.075 2.649-0.056 3.036 0.032 0 0.487 0.007 0.98 0 1.473s0.042 0.979-0.040 1.5h-2.826c-0.927 0.962-1.881 1.844-2.762 2.807-0.164 0.102-0.297 0.238-0.393 0.399l-0.003 0.005c-0.093 0.036-0.166 0.106-0.204 0.196l-0.001 0.002c-0.221 0.168-0.413 0.359-0.576 0.573l-0.005 0.007c-0.093 0.041-0.165 0.113-0.205 0.202l-0.001 0.002c-0.219 0.163-0.408 0.352-0.566 0.563l-0.005 0.007zM23.555 8.035h-1.123v1.112c0.177 0.018 0.383 0.029 0.591 0.029s0.413-0.010 0.616-0.031l-0.026 0.002c-0.063-0.381 0.045-0.751-0.060-1.112z"></path>
<path d="M21.866 19.243c0.376 0.089 0.666 0.342 0.996 0.519 0.431 0.231 0.849 0.484 1.276 0.73v1.115c-0.282 0.291-0.677 0.42-1.023 0.677l-7.348-4.241c-0.511 0.17-0.919 0.478-1.355 0.725-0.867 0.489-1.723 0.999-2.583 1.502-0.085 0.051-0.166 0.11-0.273 0.061 0.013-0.169 0.159-0.242 0.259-0.343q1.414-1.423 2.834-2.837c0.426-0.423 0.925-0.673 1.543-0.648 0.346 0.015 0.693 0.015 1.038 0.022 0.318 0.282 0.717 0.432 1.075 0.649 0.049 0.030 0.129 0.010 0.198 0.013 0.009 0.143 0.017 0.286 0.026 0.441 0.127-0.049 0.055-0.212 0.169-0.252 0.53 0.308 1.050 0.631 1.591 0.917 0.324 0.17 0.605 0.433 0.99 0.487 0.011 0.094 0.017 0.203 0.017 0.313 0 0.273-0.038 0.536-0.108 0.787l0.005-0.020-0.061 0.051c0.058 0.014 0.082 0 0.051-0.059 0.246 0.099 0.359-0.087 0.477-0.234 0.072-0.107 0.141-0.23 0.2-0.358l0.007-0.016z"></path>
<path d="M14.741 14.586v-6.739l0.959-0.56 1.033 0.56v6.742c-0.044 0.133-0.17 0.192-0.244 0.29-0.116 0.025-0.249 0.040-0.386 0.040-0.331 0-0.641-0.085-0.911-0.235l0.010 0.005c-0.112-0.067-0.247-0.106-0.392-0.106-0.024 0-0.049 0.001-0.073 0.003l0.003-0z"></path>
<path d="M9.796 21.538c-0.341-0.008-0.55 0.263-0.827 0.396-0.205 0.099-0.396 0.221-0.582 0.326-0.391-0.129-0.678-0.385-1.041-0.558-0.058-0.377-0.020-0.769-0.024-1.188 0.717-0.413 1.437-0.83 2.158-1.244q1.592-0.917 3.188-1.829c0.468-0.266 0.946-0.518 1.419-0.776 0.137 0.027 0.297-0.018 0.396 0.136-0.017 0.151-0.139 0.221-0.227 0.31q-2.124 2.128-4.249 4.253c-0.035 0.029-0.074 0.055-0.116 0.076l-0.004 0.002c-0.050 0.011-0.088 0.049-0.099 0.098l-0 0.001z"></path>
<path d="M10.864 21.007c0.28 0.061 0.448-0.167 0.646-0.28 1.31-0.742 2.606-1.508 3.902-2.277 0.082-0.054 0.183-0.086 0.291-0.086 0.113 0 0.218 0.035 0.305 0.095l-0.002-0.001c0.509 0.297 1.023 0.585 1.533 0.88q1.466 0.849 2.93 1.699c0.763 0.442 1.53 0.879 2.319 1.334-0.129 0.198-0.302 0.271-0.469 0.373l-6.508-3.777c-0.193-0.051-0.341 0.075-0.495 0.162q-1.948 1.127-3.907 2.258c-0.495 0.286-0.983 0.587-1.48 0.871-0.137 0.078-0.261 0.211-0.448 0.155 0.022-0.204 0.203-0.289 0.326-0.41 0.29-0.287 0.55-0.606 0.879-0.852 0.080-0.016 0.186 0.010 0.191-0.124z"></path>
<path d="M13.182 14.92v-6.177c0.108-0.148 0.272-0.25 0.46-0.273l0.003-0c0.025 0.013 0.047 0.026 0.067 0.041l-0.002-0.001c0.013 0.010 0.022 0.024 0.027 0.040l0 0.001c0.008 0.058 0.013 0.127 0.014 0.196l0 0.002q0 3.060 0.006 6.12c-0.186 0.070-0.382 0.046-0.575 0.053z"></path>
<path d="M13.67 16.554c-0.857 0.506-1.712 1.016-2.574 1.516q-1.59 0.916-3.183 1.827c-0.167 0.099-0.328 0.213-0.542 0.252-0.099-0.172-0.035-0.35-0.051-0.553 0.32-0.185 0.641-0.374 0.964-0.559l4.337-2.475c0.025-0.015 0.038-0.051 0.055-0.077 0.334-0.004 0.668-0.037 0.994 0.070z"></path>
<path d="M13.961 14.803v-6.436c0.091-0.212 0.278-0.207 0.378-0.297 0.030 0.009 0.056 0.020 0.080 0.034l-0.001-0.001c0.013 0.010 0.023 0.024 0.027 0.040l0 0.001c0.007 0.081 0.016 0.163 0.016 0.245q0 3.137 0.006 6.274c-0.167 0.065-0.326 0.144-0.505 0.14z"></path>
<path d="M12.469 14.953v-5.769c0.099-0.226 0.287-0.226 0.396-0.318 0.026 0.014 0.049 0.028 0.070 0.044l-0.001-0.001c0.012 0.010 0.021 0.024 0.026 0.040l0 0.001c0 0.099 0.009 0.198 0.010 0.297l0.001 5.679c-0.162 0.099-0.333 0.061-0.502 0.027z"></path>
<path d="M17.024 14.308v-6.231c0.203 0.022 0.379 0.123 0.5 0.27l0.001 0.001v5.455c-0.135 0.201-0.302 0.369-0.495 0.501l-0.006 0.004z"></path>
<path d="M17.728 13.611v-5.113c0.242-0.005 0.384 0.133 0.581 0.239v4.286c-0.168 0.225-0.359 0.418-0.574 0.583l-0.007 0.005z"></path>
<path d="M12.179 16.497c-0.639 0.45-1.344 0.792-2.012 1.188-0.841 0.502-1.691 0.984-2.539 1.473-0.068 0.040-0.145 0.066-0.245 0.111-0.109-0.172-0.049-0.349-0.059-0.527 0.964-0.555 1.924-1.105 2.881-1.66 0.139-0.080 0.314-0.11 0.396-0.277l0.281 0.061c0.418-0.157 0.807-0.44 1.296-0.369z"></path>
<path d="M10.305 16.709c-0.207 0.249-0.52 0.33-0.783 0.482-0.701 0.405-1.386 0.84-2.137 1.195-0.106-0.171-0.070-0.327-0.051-0.459 0.113-0.186 0.289-0.248 0.445-0.333 0.543-0.297 1.089-0.584 1.636-0.872 0.087-0.046 0.18-0.079 0.198-0.198 0.244 0.011 0.466 0.105 0.692 0.185z"></path>
<path d="M18.515 12.821v-3.905c0.171 0.005 0.319 0.101 0.395 0.242l0.001 0.002v3.255c-0.1 0.166-0.233 0.302-0.391 0.403l-0.005 0.003z"></path>
<path d="M21.269 17.882v0.684c-0.278-0.164-0.555-0.333-0.837-0.495-0.55-0.309-1.103-0.612-1.654-0.917 0.038-0.196 0.138-0.363 0.279-0.485l0.001-0.001c0.335 0.198 0.656 0.423 1.008 0.586 0.41 0.195 0.754 0.513 1.203 0.628z"></path>
<path d="M21.887 18.278l2.241 1.287c0.018 0.083 0.029 0.178 0.029 0.275 0 0.11-0.013 0.217-0.039 0.319l0.002-0.009c-0.422-0.126-0.747-0.405-1.116-0.594s-0.709-0.467-1.119-0.594z"></path>
<path d="M21.891 17.469c0.641 0.253 1.197 0.66 1.798 0.99 0.143 0.078 0.278 0.169 0.437 0.265 0.020 0.078 0.032 0.168 0.032 0.261 0 0.105-0.015 0.206-0.043 0.302l0.002-0.008c-0.54-0.305-1.060-0.594-1.577-0.891-0.211-0.121-0.408-0.271-0.655-0.32z"></path>
<path d="M21.89 16.679c0.594 0.229 1.119 0.608 1.691 0.885 0.19 0.092 0.364 0.215 0.536 0.318 0.025 0.075 0.039 0.161 0.039 0.251s-0.014 0.176-0.041 0.257l0.002-0.006c-0.792-0.33-1.466-0.849-2.228-1.2z"></path>
<path d="M21.267 17.073c0.014 0.079 0.022 0.17 0.022 0.263s-0.008 0.184-0.023 0.272l0.001-0.010c-0.649-0.262-1.208-0.685-1.82-1.015-0.037-0.020-0.052-0.078-0.078-0.119 0.27-0.126 0.551-0.049 0.829-0.045 0.306 0.299 0.699 0.456 1.069 0.653z"></path>
<path d="M18.307 14.893h-0.583q0-0.389-0.005-0.778c0.168-0.223 0.359-0.416 0.573-0.58l0.007-0.005q0.006 0.683 0.008 1.363z"></path>
<path d="M18.504 16.993c-0.046 0-0.099 0.013-0.135-0.009-0.25-0.155-0.527-0.263-0.747-0.466 0.281-0.043 0.562 0 0.858-0.012 0.023 0.092 0.037 0.197 0.037 0.305 0 0.064-0.005 0.127-0.014 0.189l0.001-0.007z"></path>
<path d="M18.906 12.934v1.576c-0.212-0.189-0.192-0.504-0.386-0.702 0-0.156-0.007-0.314-0.010-0.47 0.099-0.166 0.232-0.302 0.391-0.401l0.005-0.003z"></path>
<path d="M17.525 14.891h-0.579c0.164-0.219 0.352-0.407 0.564-0.565l0.007-0.005z"></path>
<path d="M9.901 23.145c-0.193-0.043-0.36-0.132-0.496-0.255l0.001 0.001c0.379-0.342 0.835-0.524 1.248-0.769 1.379-0.82 2.767-1.623 4.153-2.431 0.213-0.124 0.43-0.239 0.642-0.361 0.074-0.045 0.165-0.072 0.261-0.072 0.111 0 0.213 0.036 0.297 0.096l-0.002-0.001c0.522 0.308 1.049 0.605 1.572 0.909l4.481 2.608c-0.131 0.177-0.304 0.233-0.508 0.277-0.661-0.375-1.331-0.752-1.995-1.135s-1.287-0.777-1.953-1.134-1.264-0.881-1.972-1.054z"></path>
<path d="M10.657 23.519c-0.223 0.020-0.345-0.077-0.536-0.22 1.881-1.129 3.74-2.178 5.593-3.256l5.581 3.237c-0.109 0.175-0.252 0.229-0.478 0.259l-5.105-2.894z"></path>
<path d="M21.174 19.851c0.032 0.060 0.008 0.073-0.051 0.059l0.061-0.051z"></path>
</svg>
