<!-- Generated by IcoMoon.io -->
<svg version="1.1" xmlns="http://www.w3.org/2000/svg" width="32" height="32" viewBox="0 0 32 32">
<title>faction_new_monarchy2</title>
<path fill="#9c3a3b" d="M28.35 22.39l0.7 1.19q1.39 2.4 2.8 4.8c0.092 0.129 0.147 0.289 0.147 0.463 0 0.107-0.021 0.209-0.059 0.303l0.002-0.005c-0.106 0.252-0.339 0.432-0.617 0.46l-0.003 0h-30.6c-0.399-0.019-0.716-0.347-0.716-0.749 0-0.149 0.043-0.287 0.118-0.404l-0.002 0.003c0.43-0.77 0.89-1.53 1.33-2.29l13.84-23.68c0.119-0.282 0.392-0.476 0.712-0.476 0.181 0 0.348 0.063 0.48 0.168l-0.002-0.001c0.078 0.071 0.145 0.154 0.197 0.245l0.003 0.005 9.81 16.78c0.014 0.034 0.031 0.064 0.051 0.091l-0.001-0.001-0.54 0.71-4.51 5.34c-0.139 0.125-0.226 0.305-0.226 0.506 0 0.24 0.125 0.452 0.313 0.573l0.003 0.002 1.42 1.19c0.12 0.116 0.284 0.187 0.465 0.187 0.218 0 0.412-0.104 0.534-0.266l0.001-0.002 3.37-4zM18 27.8c0.294-0.008 0.549-0.169 0.688-0.406l0.002-0.004 3.45-4.090c0.75-0.88 1.5-1.76 2.24-2.65 0.135-0.125 0.219-0.302 0.219-0.5 0-0.238-0.122-0.447-0.307-0.568l-0.003-0.002-1.4-1.18c-0.127-0.144-0.312-0.235-0.518-0.235-0.25 0-0.469 0.133-0.59 0.332l-0.002 0.003-3.65 4.32c-0.7 0.84-1.41 1.67-2.11 2.5-0.138 0.123-0.224 0.302-0.224 0.5s0.086 0.377 0.223 0.499l0.001 0.001 1.53 1.29c0.103 0.105 0.247 0.17 0.406 0.17 0.005 0 0.010-0 0.014-0h-0.001zM12.56 27.8c0.007 0 0.014 0 0.022 0 0.252 0 0.476-0.121 0.616-0.308l0.001-0.002q1.5-1.8 3-3.59l2.8-3.24c0.143-0.125 0.232-0.308 0.232-0.512 0-0.243-0.128-0.456-0.319-0.577l-0.003-0.002-1.4-1.19c-0.125-0.135-0.302-0.219-0.5-0.219-0.238 0-0.447 0.122-0.568 0.307l-0.002 0.003-0.91 1.080-4.89 5.79c-0.128 0.124-0.207 0.297-0.207 0.488 0 0.232 0.117 0.438 0.294 0.56l0.002 0.002 1.47 1.24c0.106 0.111 0.255 0.18 0.42 0.18v0z"></path>
</svg>
