<!-- Generated by IcoMoon.io -->
<svg version="1.1" xmlns="http://www.w3.org/2000/svg" width="32" height="32" viewBox="0 0 32 32">
<title>faction_fwc2</title>
<path fill="#fdfdfd" d="M12.036 12.312h1.914c0.039 0.057 0.019 0.12 0.019 0.179q0.002 1.81 0 3.62c-0 0.009-0 0.020-0 0.031 0 0.33 0.063 0.645 0.176 0.935l-0.006-0.017c0.194 0.492 0.566 0.776 1.079 0.838 0.498 0.061 1.002 0.011 1.517 0.022v-5.601h1.926v5.586h3.083v-5.589h1.918c0.024 0.15 0.026 7.364 0 7.537h-8.152c-1.685 0-2.971-1.022-3.348-2.661-0.079-0.333-0.125-0.715-0.125-1.107 0-0.001 0-0.003 0-0.004v0q-0.003-1.784 0-3.569z"></path>
<path fill="#fdfdfd" d="M6.75 12.312h4.584v1.901c-0.065 0.034-0.134 0.017-0.198 0.018q-2.035 0.011-4.069 0.020c-0.002 0-0.004 0-0.006 0-0.268 0-0.523 0.056-0.754 0.158l0.012-0.005c-0.383 0.168-0.593 0.469-0.623 0.879-0.022 0.299-0.004 0.6-0.004 0.921h5.646v1.937h-5.655v3.83h-1.932q0-3.264-0.002-6.527c0-1.482 0.913-2.65 2.351-3.001 0.215-0.053 0.434-0.089 0.651-0.133z"></path>
<path fill="#fdfdfd" d="M31.995 14.232h-0.186c-1.134 0-2.268 0-3.401 0-0.006-0-0.014-0-0.022-0-0.374 0-0.727 0.091-1.038 0.253l0.012-0.006c-0.599 0.312-0.861 0.846-0.914 1.483-0.033 0.352-0.052 0.762-0.052 1.176 0 0.422 0.020 0.839 0.058 1.251l-0.004-0.053c0.101 1.035 0.728 1.672 1.873 1.705 1.161 0.034 2.323 0.007 3.486 0.007h0.19v1.912c-0.015 0.005-0.034 0.008-0.053 0.011l-0.002 0c-1.296-0.002-2.594 0.046-3.888-0.018-1.68-0.083-3.176-1.179-3.499-3.156-0.096-0.589-0.060-1.18-0.065-1.771-0.004-0.574-0.017-1.148 0.097-1.718 0.309-1.547 1.486-2.686 3.050-2.937 0.245-0.042 0.527-0.067 0.816-0.067h0q1.676 0.004 3.351 0h0.19z"></path>
<path fill="#fab65a" d="M1.877 21.973h-1.848c-0.041-0.080-0.026-0.148-0.026-0.213q0-3.156 0-6.312c0-1.536 0.987-2.732 2.498-3.039 0.519-0.106 1.042-0.104 1.566-0.101 0.296 0 0.591 0.004 0.887 0.007-0.197 0.034-0.395 0.058-0.591 0.101-1.51 0.312-2.471 1.465-2.486 2.978-0.021 2.193-0.003 4.386 0 6.58z"></path>
<path fill="#ee4c4a" d="M1.877 21.973c0-2.193-0.019-4.387 0-6.58 0.014-1.514 0.976-2.666 2.485-2.98 0.195-0.041 0.393-0.067 0.591-0.101 0.599-0.018 1.198-0.021 1.797-0.002-0.217 0.044-0.436 0.080-0.651 0.134-1.438 0.351-2.351 1.519-2.351 3.001q0 3.263 0.002 6.527z"></path>
<path fill="#fab65a" d="M29.91 11.827h-1.751v-1.807c0.429 0.008 0.864-0.034 1.293 0.022 0.268 0.036 0.44 0.245 0.453 0.546 0.018 0.406 0.004 0.813 0.004 1.239z"></path>
<path fill="#ee4c4a" d="M30.259 10.033c0.429 0 0.847-0.017 1.262 0.006 0.255 0.015 0.457 0.22 0.467 0.475l0 0.001c0.021 0.433 0.006 0.867 0.006 1.312h-1.735z"></path>
</svg>
