<!-- Generated by IcoMoon.io -->
<svg version="1.1" xmlns="http://www.w3.org/2000/svg" width="32" height="32" viewBox="0 0 32 32">
<title>faction_red_legion</title>
<path d="M7.111 26.244v0zM3.188 23.056c0-0.052 0.055-0.052 0.107-0.052h0.055v0.052c0 0.052-0.052 0-0.052 0h-0.107zM3.35 23.263c0-0.052-0.052-0.052-0.104-0.052 0 0-0.055 0 0-0.052 0-0.029 0.023-0.052 0.052-0.052v0s0.104 0.104 0.052 0.155v0zM4.291 12.702c-0.052 0-0.052 0-0.052-0.052s0-0.055 0.052-0.055 0.052 0 0.052 0.055c0 0.029-0.023 0.052-0.052 0.052v0zM10.251 30.218c0 0.052 0 0.052-0.055 0.107-0.052 0-0.155 0.052-0.207 0s0-0.107 0.052-0.107c0.055-0.004 0.099-0.048 0.104-0.103l0-0c0-0.052-0.052-0.104-0.155-0.104s-0.158-0.107-0.158-0.21c0-0.052 0-0.052-0.052-0.104l0.305 0.155c0.063 0.049 0.103 0.125 0.104 0.21v0c0.055 0 0.055 0.052 0.055 0.155zM9.821 28.495v0c0.052-0.055 0.052-0.107 0.107-0.107s0.052 0.052 0.052 0.107l-0.052 0.052c-0.107-0.052-0.055 0-0.055 0.052v0c0.055 0 0.055 0 0.055 0.052 0 0 0 0.052-0.055 0-0.052 0-0.052-0.052-0.052-0.104v0c-0.052 0.052-0.052 0 0-0.052zM9.769 26.82c0.029 0 0.052 0.023 0.052 0.052v0c-0.052 0.052-0.104 0-0.052-0.052v0zM9.769 26.558l0.052 0.052v0.107c-0.052 0-0.052 0-0.052-0.052v-0.055s-0.052-0.052 0-0.052zM9.873 28.126c0.055 0 0.055 0.055 0.055 0.107 0 0 0 0.052-0.055 0 0 0-0.052 0 0-0.107v0zM9.821 26.403v0c0.052-0.052 0.052 0 0.052 0 0.055 0.052 0.055 0.052-0.052 0 0.052 0.052 0 0.052 0 0zM9.873 26.193c0.055 0 0.055 0.052 0.055 0.104 0 0.030-0.025 0.055-0.055 0.055v0c0-0.107-0.052-0.107 0-0.158-0.052 0-0.052-0.052 0 0zM9.821 25.982c0-0.052 0-0.052 0.052-0.052 0.029 0 0.052 0.023 0.052 0.052s-0.023 0.052-0.052 0.052v0c0-0.029-0.023-0.052-0.052-0.052v0zM22.38 29.488c-0.052 0-0.052-0.052 0-0.107v0.107zM23.531 28.336c-0.052 0-0.052 0.052-0.104 0.052h-0.052v-0.052c0.006-0.041 0.024-0.077 0.052-0.104l0-0h0.052c0.052 0.052 0.104 0.052 0.052 0.104v0zM27.14 26.509v0c-0.034-0.033-0.080-0.053-0.131-0.053-0.008 0-0.017 0.001-0.025 0.002l0.001-0c-0.055 0-0.055-0.052 0-0.052 0-0.052 0.052-0.052 0.104 0 0.052 0 0.052 0.052 0.052 0.104v0zM27.103 13.015c-0.052 0-0.052 0.052-0.104 0.052-0.107 0-0.107 0.052 0 0.104-0.039-0.013-0.084-0.020-0.131-0.020s-0.092 0.007-0.134 0.021l0.003-0.001c-0.052 0-0.052 0-0.052-0.052 0-0 0-0 0-0 0-0.029-0.023-0.052-0.052-0.052-0.001 0-0.002 0-0.003 0h0c-0.052-0.052-0.052-0.052-0.104-0.052s-0.052 0.052-0.052 0.104v0.627c-0.052 0.21 0.052 0.42 0 0.627 0.012 0.071 0.019 0.153 0.019 0.236s-0.007 0.165-0.021 0.245l0.001-0.009v0.155c0.001 0.021 0.002 0.045 0.002 0.069 0 0.125-0.020 0.246-0.056 0.359l0.002-0.008c-0.052 0.052 0 0.104 0 0.155 0.052 0.052 0.052 0.052 0 0.104s-0.052 0.107-0.107 0.158v0.052h0.055c0.052 0 0.052-0.052 0.104 0s0 0.052 0 0.107v0.104c0 0.104 0.052 0.155 0.052 0.262-0.013 0.039-0.020 0.084-0.020 0.131s0.007 0.092 0.021 0.134l-0.001-0.003c-0.052-0.055-0.052-0.055-0.104-0.055 0-0.029-0.023-0.052-0.052-0.052v0l-0.055 0.052c0.055 0.055-0.052 0.158 0.055 0.21 0.052 0 0 0.052-0.055 0.104s-0.052-0.052-0.052-0.052v0c-0.052 0.052 0.107 0.107 0 0.158 0.052 0.052 0.052 0.104 0.158 0.104v0.052h-0.052c-0.055 0-0.055 0-0.055 0.052s0.055 0.055 0.107 0.055c0.055 0.004 0.099 0.048 0.104 0.103l0 0v0.417s0 0.055-0.052 0.055c-0.104 0-0.104 0.052-0.158 0.104h0.055c0.052-0.052 0.104 0 0.104 0.052v0.158c-0.052 0-0.052-0.055-0.052-0.055s-0.052-0.052-0.052 0v0.055c0.052 0.052 0.052 0.052 0 0.104 0 0-0.055 0.052 0 0.052s0.052 0 0.052-0.052c0-0.029 0.023-0.052 0.052-0.052v0c0.052 0 0 0.052 0 0.052v0.679c0 0.029-0.023 0.052-0.052 0.052v0c-0.052 0-0.052 0-0.052-0.052 0 0-0.055-0.052-0.055 0-0.052 0 0 0.052 0 0.104s0 0.055 0.055 0 0.104 0.055 0.104 0.055c0 0.052 0 0.104-0.052 0.104-0.052 0.052-0.052 0-0.107-0.052 0 0 0-0.052-0.052 0v0.052c0 0.052 0 0.104 0.107 0.052 0.052 0 0.052 0 0.052 0.052 0 0.158 0.052 0.262 0.052 0.42v1.218c-0.011 0.135-0.048 0.259-0.106 0.371l0.003-0.005s-0.055 0-0.055-0.052h-0.067v0.052c0.052 0.052 0.052 0.052 0 0.104 0 0-0.052 0 0 0.052 0.052 0.107 0 0.158 0 0.262 0 0.052 0 0.107 0.107 0.052 0.052 0 0.052 0 0.052 0.055 0.052 0.155 0.052 0.305 0.104 0.417v0.052c-0.104 0.052-0.052 0.104-0.052 0.158s-0.052 0.052 0 0.104v0.052c-0.104 0.052-0.052 0.158 0 0.21 0 0.052-0.052 0.052-0.052 0.104s0 0.052-0.052 0.052-0.055 0-0.055 0.055v0.104c0.055 0 0.055 0.052 0.107 0.104 0 0 0.052 0.052 0 0.052h-0.052c0-0 0-0 0-0 0-0.029-0.023-0.052-0.052-0.052-0.001 0-0.002 0-0.003 0h0c-0.052 0.052 0 0.107 0 0.158 0.055 0.104 0 0.155 0 0.262v0.052c0.055 0.052 0.055 0 0.055 0h0.104c0.052 0.052 0 0.052 0 0.104-0.104 0.052 0 0.158 0 0.262v0.052h-0.052c-0.107-0.052-0.107 0-0.107 0.052v0.472c0 0.052 0 0.052-0.052 0.104-0.052 0-0.104 0.052-0.052 0.107v0.052c-0.052 0.104 0 0.155 0 0.262 0 0.029 0.023 0.052 0.052 0.052v0c0.029 0 0.052 0.023 0.052 0.052s-0.023 0.052-0.052 0.052v0c-0.104 0.052-0.104 0.052 0 0.104 0 0 0.052 0.055 0 0.055-0.052 0.052 0 0.104-0.052 0.104s-0.104 0-0.104 0.052-0.052 0.104-0.107 0.158c-0.029 0-0.052 0.023-0.052 0.052v0h0.052c0.055-0.052 0.107-0.052 0.055 0.052 0 0.029 0.023 0.052 0.052 0.052v0c0-0.029 0.023-0.052 0.052-0.052v0.052c-0.052 0.052 0 0.262 0.052 0.262s0.052 0.052 0.104 0.052c0.107 0.052 0.21 0.158 0.305 0.21v0.024h-0.052c-0.104-0.052-0.207 0-0.305-0.104l-0.207-0.201c-0.014-0.046-0.056-0.078-0.105-0.078s-0.091 0.033-0.105 0.078l-0 0.001c-0.052 0.052-0.107 0.052-0.158 0.104h-0.052c0 0.055 0 0.055-0.052 0.107 0-0.052-0.052-0.107-0.052-0.158 0-0.029-0.023-0.052-0.052-0.052h-0.055c-0.052 0.104-0.155 0.104-0.259 0.052l-0.055-0.052h-0.052c-0.052 0 0 0.052 0 0.052 0.052 0.052 0.052 0.052 0.052 0.107 0.055 0 0.055 0.052 0 0.104-0.013 0.013-0.032 0.021-0.052 0.021s-0.039-0.008-0.052-0.021v0c-0.052-0.052-0.104 0-0.104 0.052-0.029 0.026-0.048 0.062-0.052 0.103l-0 0.001c0 0.055-0.055 0.107-0.107 0.055-0.052 0-0.052 0-0.052 0.052 0.052 0.155-0.104 0.207-0.155 0.262s-0.158 0.052-0.158 0.155l-0.052 0.052c-0.052 0.052-0.104 0.107-0.104 0.158-0.006 0.056-0.051 0.099-0.106 0.104l-0 0c-0.052 0-0.104 0-0.052 0.104 0 0.001 0 0.002 0 0.003 0 0.029-0.023 0.052-0.052 0.052-0 0-0 0-0 0v0l-0.158 0.155c0 0.052 0 0.052-0.052 0.052-0 0-0 0-0 0-0.029 0-0.052 0.023-0.052 0.052 0 0.001 0 0.002 0 0.003v-0c-0.001 0.084-0.041 0.159-0.103 0.207l-0.001 0c0 0.052-0.055 0.052-0.055 0-0.052-0.052-0.104 0-0.155 0s-0.052 0.052-0.104 0.052 0 0.055 0 0.055c0.052 0.052 0.104 0.052 0.104 0.104-0.013 0.013-0.032 0.021-0.052 0.021s-0.039-0.008-0.052-0.021v0c-0.055 0-0.055 0-0.055-0.052v-0.052h-0.052c0 0.052-0.104 0.104-0.052 0.155v0.052c-0.052 0.107-0.052 0.262-0.155 0.305-0.061 0.112-0.15 0.201-0.259 0.26l-0.003 0.002c-0.052 0.052-0.158 0.104-0.158 0.21-0.055 0.118-0.125 0.218-0.21 0.305l0-0c-0.052 0-0.052 0.052-0.104 0.052v-0.158c0-0.052 0-0.052 0.052-0.052 0.107-0.052 0.158-0.104 0.052-0.207 0-0.030 0.025-0.055 0.055-0.055v0c0.029 0 0.052-0.023 0.052-0.052v0-0.052c0.052-0.052 0-0.104-0.052-0.155-0.049-0.063-0.125-0.104-0.21-0.107h-0c0.155 0 0.104-0.155 0.104-0.207v-0.055c0.107-0.104 0.107-0.259 0.21-0.365 0.052-0.052 0.052-0.155 0.104-0.207-0.001-0.007-0.002-0.016-0.002-0.025 0-0.052 0.022-0.1 0.056-0.133l0-0v-0.104c0-0.055-0.055-0.158-0.055-0.21v-0.305c0-0.052 0.055-0.104 0.055-0.21v-0.305c-0.001-0.010-0.002-0.022-0.002-0.034 0-0.065 0.020-0.124 0.054-0.174l-0.001 0.001v-0.158c0-0.104-0.052-0.21-0.052-0.305 0-0.052-0.055-0.104-0.055-0.158 0-0.155 0.055-0.259 0.055-0.365v-0.305c0.012-0.063 0.019-0.135 0.019-0.209s-0.007-0.146-0.021-0.216l0.001 0.007c0.012-0.079 0.019-0.169 0.019-0.262s-0.007-0.183-0.021-0.272l0.001 0.010c0.001-0.034 0.002-0.073 0.002-0.113 0-0.201-0.021-0.396-0.060-0.585l0.003 0.018c0-0.104-0.052-0.158 0-0.262v-0.104c-0.052-0.107 0-0.158 0-0.262v-0.158c0.099-0.095 0.16-0.228 0.16-0.376 0-0.016-0.001-0.031-0.002-0.046l0 0.002c0-0.052 0-0.104-0.052-0.052v-0.262s0.052 0.052 0.052 0v-0.052c-0.052 0-0.052-0.107-0.052-0.158 0-0.029 0.023-0.052 0.052-0.052v0c0.024-0.005 0.041-0.026 0.041-0.051 0-0.005-0.001-0.009-0.002-0.014l0 0v-0.417c0-0.055 0-0.055-0.104-0.055-0.052 0-0.107-0.104-0.107-0.155s-0.052-0.158 0-0.21c0.026-0.037 0.041-0.082 0.041-0.131s-0.015-0.094-0.042-0.132l0 0.001c0-0.104 0-0.207 0.107-0.262-0.107 0-0.107-0.052-0.107-0.155v-0.158c0-0.052 0.055-0.052 0.055-0.052 0.029 0 0.052-0.023 0.052-0.052v0c0-0.052 0-0.052-0.052-0.104-0.055 0-0.055 0-0.055 0.052 0 0.029-0.023 0.052-0.052 0.052v0c-0.052 0 0-0.052 0-0.052 0-0.104 0.052-0.158 0.107-0.262v-0.052c-0.035-0.034-0.056-0.081-0.056-0.133 0-0.009 0.001-0.017 0.002-0.026l-0 0.001c0.043-0.113 0.067-0.243 0.067-0.378 0-0.010-0-0.021-0-0.031l0 0.002v-0.262c0.001-0.039 0.002-0.085 0.002-0.131 0-0.23-0.021-0.456-0.061-0.675l0.003 0.023v-0.055c0.013-0.094 0.021-0.203 0.021-0.314s-0.007-0.219-0.022-0.326l0.001 0.012v-0.375c0-0.052 0-0.104-0.052-0.052-0.052 0-0.052 0-0.052-0.052v-0.107c-0.052 0-0.052 0-0.052 0.055v0.052c0 0.029-0.023 0.052-0.052 0.052v0c-0.055 0-0.055-0.052 0-0.052v0c0.104-0.052 0.104-0.158 0.104-0.262 0-0.052 0.052-0.158 0.052-0.21v-0.064c0.052-0.104 0-0.21 0-0.305v-0.262c0.052-0.104 0-0.21 0-0.305 0-0.052-0.052-0.052 0-0.104v-0.052c-0.052 0-0.052-0.055 0-0.107 0.033-0.034 0.053-0.080 0.053-0.131 0-0.008-0.001-0.017-0.002-0.025l0 0.001c-0.104 0-0.052-0.052-0.052-0.107v-0.052c-0.052-0.052-0.052-0.052 0-0.052v-0.052s0-0.052-0.052 0h-0.052s-0.052-0.052 0-0.052 0.052 0 0.052-0.052 0-0.055-0.052-0.107l-0.052-0.067c0.052-0.052 0.052 0.052 0.104 0.052v-1.087c0-0.055 0-0.055-0.052-0.055-0.063-0.012-0.136-0.019-0.21-0.019s-0.147 0.007-0.217 0.021l0.007-0.001c-0.052 0.055-0.155 0-0.207 0-0.158-0.052-0.305 0-0.472-0.104-0.052 0.052 0.052 0.052 0 0.104h-0.375c-0.010 0.001-0.021 0.002-0.032 0.002-0.066 0-0.128-0.020-0.179-0.054l0.001 0.001c-0.080-0.098-0.202-0.16-0.337-0.16-0.022 0-0.043 0.002-0.064 0.005l0.002-0h-8.831c-0.013-0.001-0.027-0.002-0.042-0.002-0.080 0-0.156 0.020-0.223 0.055l0.003-0.001c-0.048 0.034-0.108 0.054-0.173 0.054-0.013 0-0.026-0.001-0.038-0.002l0.002 0c-0.155 0-0.305 0.052-0.469 0.052v-0.052c-0.052 0-0.052 0.052-0.104 0.052-0.111 0.033-0.239 0.053-0.371 0.053-0.017 0-0.035-0-0.052-0.001l0.002 0h-0.119c-0.063-0.012-0.136-0.019-0.21-0.019s-0.147 0.007-0.217 0.021l0.007-0.001c-0.052 0-0.052 0.055-0.052 0.055v1.035c0.052 0 0.052-0.052 0.107-0.052 0.052 0.052-0.055 0.052-0.055 0.052-0.013 0.013-0.021 0.032-0.021 0.052s0.008 0.039 0.021 0.052v0c0 0.030 0.025 0.055 0.055 0.055v0h0.052c0 0.029-0.023 0.052-0.052 0.052v0h-0.055c0 0.052 0 0 0.055 0s0 0.052 0 0.052-0.055 0.052 0 0.104c0 0 0.052 0.052 0 0.052-0.055 0.055-0.107 0.107-0.055 0.158s0.107 0.104 0 0.104v0.052c0.055 0 0.055 0.055 0 0.055s-0.052 0.052-0.052 0.104v0.21c0.034 0.048 0.054 0.108 0.054 0.173 0 0.012-0.001 0.024-0.002 0.036l0-0.001v0.158c0 0.052-0.052 0.104 0 0.104 0.055 0.107 0 0.21 0 0.305 0 0.052 0.055 0.107 0.055 0.21 0 0.029 0.023 0.052 0.052 0.052v0c0.029 0 0.052 0.023 0.052 0.052v0 0.052h-0.052c0-0.029-0.023-0.052-0.052-0.052v0c-0.055 0 0 0.052 0 0.052 0.052 0.055 0.052 0.107-0.055 0.107-0.029 0-0.052 0.023-0.052 0.052v0 0.889c0.010 0.042 0.016 0.089 0.016 0.138 0 0.102-0.025 0.198-0.069 0.282l0.002-0.003v0.439c0 0.104 0.052 0.155 0 0.259-0.012 0.079-0.020 0.169-0.020 0.262s0.007 0.183 0.021 0.272l-0.001-0.010v0.052c-0.052 0.107 0 0.262-0.052 0.368-0.034 0.196-0.054 0.421-0.054 0.651 0 0.046 0.001 0.092 0.002 0.138l-0-0.007c-0.034 0.236-0.054 0.508-0.054 0.785 0 0.055 0.001 0.11 0.002 0.164l-0-0.008v1.727c-0.001 0.031-0.002 0.067-0.002 0.104 0 0.185 0.020 0.366 0.057 0.54l-0.003-0.017v0.417c0 0.107-0.052 0.21 0.052 0.305 0 0 0.052 0.055 0 0.055s0 0.052 0 0.104 0.052 0.155 0 0.21v0.052c0.104 0.155 0.052 0.262 0.052 0.417v0.052c0.052 0 0.052 0.052 0.052 0.107 0.052 0.052 0.052 0.155 0.107 0.259v0.055s-0.055 0-0.055 0.052c0 0 0.055 0 0.055 0.052h0.052c0-0.029 0.023-0.052 0.052-0.052v0 0.104c0 0.029-0.023 0.052-0.052 0.052v0c-0.052 0-0.107 0.052-0.107 0.158 0 0.003 0 0.008 0 0.012 0 0.073-0.019 0.141-0.053 0.2l0.001-0.002v0.052c-0.029 0-0.052-0.023-0.052-0.052v0c-0.005-0.042-0.024-0.079-0.052-0.107v0-0.104c0-0.029-0.023-0.052-0.052-0.052v0l-0.052 0.052c0 0.104-0.055 0.155 0 0.262v0.052c-0.055 0.052 0.052 0.104 0 0.155h0.104v0.055c-0.052 0.052-0.052 0.052 0.052 0.052 0.052 0 0.052 0.052 0.104 0 0 0 0.055 0 0.055 0.052v0.052s-0.055 0-0.055 0.052l-0.052 0.052c0.052 0.055 0.052 0 0.107 0 0 0.055 0 0.055-0.055 0.055-0.029 0-0.052 0.023-0.052 0.052s0.023 0.052 0.052 0.052v0h0.107c0 0.052 0 0.052-0.052 0.104 0 0.052-0.055 0-0.055 0s-0.052-0.052-0.052 0c-0.013 0.014-0.022 0.033-0.022 0.053s0.008 0.040 0.022 0.053v0c0.052 0 0.052 0 0 0.052v0c0.052 0.052 0.052 0.104 0.107 0.155v0.052h-0.055s-0.052-0.052-0.052 0v0.107h-0.052s0-0.052-0.052 0c-0.027 0.027-0.046 0.063-0.052 0.103l-0 0.001s0 0.052 0.052 0c0.104-0.052 0.052 0.052 0.104 0.052 0 0.055-0.052 0.055-0.052 0h-0.104c-0 0-0 0-0 0-0.029 0-0.052 0.023-0.052 0.052 0 0.001 0 0.002 0 0.003v-0c0.052 0.052 0.052 0.104 0.104 0.155 0.104 0.052 0.104 0.158 0.104 0.262v0.104c0.034 0.118 0.054 0.254 0.054 0.394 0 0.027-0.001 0.055-0.002 0.081l0-0.004c0 0.052 0.055 0.052 0.107 0.052v0-0.052s-0.052-0.052 0-0.052h0.104c0 0.029 0.023 0.052 0.052 0.052v0 0.052h-0.104c0 0.052 0 0.104-0.104 0.104 0 0-0.055 0-0.055 0.052 0.007-0.001 0.016-0.002 0.025-0.002 0.052 0 0.1 0.022 0.133 0.056l0 0v0.052h-0.104c-0.055 0-0.107 0-0.055 0.104 0 0.052 0.055 0.104-0.052 0.104-0.052 0-0.052 0.158 0 0.158 0.107 0 0.107 0.104 0.107 0.158 0.052 0 0-0.055 0.052-0.055h0.052c0 0.055 0 0.055-0.052 0.107 0 0.052-0.052 0-0.052 0-0.094-0.042-0.168-0.116-0.209-0.208l-0.001-0.003c-0.052-0.052-0.104-0.104-0.104-0.158s-0.055-0.104-0.107-0.155l-0.155-0.158c-0.045-0.106-0.12-0.192-0.214-0.248l-0.002-0.001v-0.055c0-0.104-0.052-0.207-0.052-0.365 0-0.052 0-0.104-0.052-0.104v0.21l0.052 0.052c0 0.029-0.023 0.052-0.052 0.052s-0.052-0.023-0.052-0.052v0c0-0.052-0.055-0.107-0.107-0.052h-0.043c-0.005-0.042-0.024-0.079-0.052-0.107v0s-0.052-0.104 0.052-0.052c0.029 0 0.052-0.023 0.052-0.052v0c0-0.104-0.104-0.158-0.21-0.104-0.052 0.052-0.052 0-0.104 0-0.052-0.055-0.052-0.107-0.104-0.158-0.052-0.104-0.158-0.155-0.158-0.262 0-0.052-0.052-0.052-0.104-0.052s-0.104 0-0.052-0.104v0c-0.006 0.001-0.013 0.001-0.020 0.001-0.077 0-0.14-0.063-0.14-0.14 0-0.007 0-0.014 0.002-0.020l-0 0.001c0-0.052-0.052-0.052-0.052-0.104-0.052-0.052-0.104-0.107-0.104-0.158v0c-0.052 0-0.107-0.052-0.158-0.052-0.093-0.049-0.155-0.144-0.155-0.255 0-0.003 0-0.005 0-0.008v0c0-0.052 0-0.104-0.052-0.052-0.055 0-0.055 0-0.107-0.052 0-0.052-0.052-0.104-0.104-0.158-0.019-0.024-0.047-0.039-0.079-0.039s-0.061 0.015-0.079 0.038l-0 0c0 0.055-0.052 0.055-0.052 0s-0.052-0.052 0-0.104l0.104-0.104s0.055-0.052 0-0.052c0 0-0.052-0.055-0.052 0-0.052 0.104-0.155 0.052-0.262 0.052-0.052 0-0.104 0-0.104 0.104 0 0.052-0.052 0.052-0.104 0l-0.21-0.21c-0.016-0.013-0.037-0.021-0.060-0.021-0.046 0-0.085 0.032-0.095 0.075l-0 0.001c0 0 0 0 0 0 0 0.029-0.023 0.052-0.052 0.052-0.001 0-0.002-0-0.003-0h0s-0.052 0.052 0 0.052h0.055s0-0.052 0.052 0v0.040c-0.052 0.052-0.052 0.052-0.107 0.052-0.033-0.034-0.053-0.080-0.053-0.131 0-0.008 0.001-0.017 0.002-0.025l-0 0.001s0.052-0.052 0-0.052c0-0.055 0.052-0.158 0-0.21 0 0 0-0.107 0.052-0.107s0.055-0.052 0.055-0.104-0.055-0.052-0.107-0.104h-0.052c0-0.052-0.052-0.107 0-0.158s0.052-0.052 0-0.104c-0.052 0-0.104-0.052 0-0.104v-0.055c0.001-0.007 0.002-0.015 0.002-0.024 0-0.051-0.020-0.098-0.053-0.131l0 0c-0.097-0.215-0.155-0.466-0.158-0.73v-0.001s0.055-0.107-0.052-0.055c-0.052 0-0.052 0 0-0.052s0-0.104 0.052-0.155c0-0.055 0-0.107-0.052-0.107s-0.052-0.052 0-0.104c0.052 0 0.052-0.052 0.107 0s0.052 0.052 0.052 0v-0.405c-0.029 0-0.052 0.023-0.052 0.052v0s-0.055 0.052-0.055 0v-0.052l0.107-0.107c0.052-0.052 0.052-0.052 0-0.104 0-0.029-0.023-0.052-0.052-0.052v0c-0.055 0-0.107-0.107-0.107-0.158s0.052-0.104 0.052-0.155c-0.032-0.172-0.050-0.371-0.052-0.574v-0.001c-0.104-0.107 0-0.158 0-0.262 0.014-0.103 0.032-0.191 0.055-0.278l-0.004 0.016c0-0.052 0-0.052 0.055-0.052 0.104 0 0.155-0.052 0.104-0.104 0.001-0.013 0.002-0.028 0.002-0.043 0-0.080-0.020-0.155-0.055-0.221l0.001 0.003v-0.107s0.052-0.052 0-0.052h-0.107c0.001-0.010 0.002-0.022 0.002-0.034 0-0.065-0.020-0.124-0.054-0.174l0.001 0.001c-0.048-0.165-0.076-0.354-0.076-0.549 0-0.078 0.004-0.155 0.013-0.231l-0.001 0.009v-0.262c0.012-0.070 0.019-0.152 0.019-0.235s-0.007-0.164-0.021-0.243l0.001 0.008c0.014-0.102 0.032-0.191 0.055-0.277l-0.003 0.015h0.052c0.055 0 0.055 0 0.055-0.052 0 0 0.052-0.055 0-0.055-0.030 0-0.055 0.025-0.055 0.055v0s-0.052 0.052-0.052 0v-0.174c0-0.052 0.052-0.104 0.107-0.052h0.052v-0.107h-0.052c-0.013 0.014-0.032 0.023-0.053 0.023s-0.040-0.009-0.053-0.023l-0-0c0-0.052-0.052-0.052 0-0.104v-0.043c-0.052-0.21 0-0.365-0.052-0.576v-0.052h0.052s0.052 0.052 0.052 0v-0.052c0-0.029-0.023-0.052-0.052-0.052v0c-0.052 0 0-0.055 0-0.055l0.052-0.052s0-0.052-0.052 0c-0.029 0-0.052 0.023-0.052 0.052v0 0-0.207c0-0.052 0.052-0.107 0.104-0.052h0.055v-0.055c0-0.052-0.055-0.052-0.055-0.052-0.052 0-0.052 0-0.052-0.052v-0.426c0-0.055 0-0.107 0.107-0.107 0.029 0 0.052-0.023 0.052-0.052s-0.023-0.052-0.052-0.052v0s-0.055 0-0.055-0.052l0.055-0.052c0.033-0.036 0.053-0.084 0.053-0.136 0-0.008-0-0.016-0.001-0.023l0 0.001c0-0.052 0-0.052-0.052-0.052 0 0-0.055 0 0-0.052v-0.107c0.052 0 0 0.055 0.052 0.055v-0.262c-0.107 0.052-0.052-0.052-0.052-0.052 0-0.107-0.055-0.158 0-0.262 0.023-0.044 0.037-0.097 0.037-0.152s-0.014-0.108-0.037-0.154l0.001 0.002c0.003-0.057 0.047-0.102 0.103-0.107l0-0c-0.052-0.052-0.052-0.104-0.104-0.155v-0.052c0.024-0.019 0.039-0.047 0.039-0.079s-0.015-0.061-0.038-0.079l-0-0c-0.036-0.091-0.057-0.196-0.057-0.306 0-0.021 0.001-0.042 0.002-0.062l-0 0.003v-0.688c0.013-0.126 0.021-0.271 0.021-0.419s-0.007-0.293-0.022-0.437l0.002 0.018v-0.262c0-0.052-0.052-0.104 0-0.21v-0.052c-0.104-0.052-0.052-0.104-0.052-0.155v-0.158c-0.001-0.007-0.002-0.015-0.002-0.024 0-0.051 0.020-0.098 0.053-0.132l-0 0c0.055-0.052 0.107-0.107 0.055-0.158v-0.353c0-0.052 0-0.052-0.055-0.052l-0.104-0.119v-0.104c0.104-0.052 0.104-0.155 0.104-0.262v-0.305c0-0 0-0 0-0 0-0.029 0.023-0.052 0.052-0.052 0.001 0 0.002 0 0.003 0h-0c0.104 0 0-0.052 0-0.052-0.055 0-0.055-0.21 0-0.21h0.052c-0.033-0.034-0.053-0.080-0.053-0.131 0-0.008 0.001-0.017 0.002-0.025l-0 0.001v-1.431c0-0.052 0-0.052 0.052-0.052h0.104c0.052 0 0.104-0.052 0.052-0.158 0-0.052 0-0.104 0.052-0.104h2.628c0.021 0.001 0.045 0.002 0.070 0.002 0.124 0 0.244-0.020 0.356-0.056l-0.008 0.002h0.576c0.21 0 0.42-0.052 0.627-0.052 0.007 0.001 0.015 0.002 0.024 0.002 0.053 0 0.1-0.022 0.134-0.056l0-0c0.013-0.013 0.032-0.021 0.052-0.021s0.039 0.008 0.052 0.021v0c0.052 0 0 0.055 0 0.107 0.158-0.052 0.365 0.052 0.524-0.052h0.052c0.052 0.052 0.104 0 0.21 0 0.052 0 0-0.107 0.052-0.055 0.052 0 0 0.055 0.052 0.055h1.048c-0.030 0-0.055-0.025-0.055-0.055v0c0-0.052 0.055 0 0.055 0 0.052 0 0.052-0.052 0.104-0.052h0.037v0.052c-0.052 0.107-0.052 0.107 0.052 0.107 0.158 0 0.262 0.052 0.42-0.052h0.052c0.052 0 0.052 0.052 0.104 0 0-0.055 0.052 0.052 0.052 0 0 0 0-0.055 0.052-0.055h0.055c0.052 0.055 0.155 0.107 0.207 0.055h5.558c0.104 0 0.155 0.052 0.207-0.055 0.052 0.107 0.158 0.055 0.21 0.055h2.092c0.052 0 0.052 0 0.052-0.055s0.052-0.052 0.104-0.052c0.029 0 0.052 0.023 0.052 0.052v0 0.055c0.055 0 0.158-0.055 0.21 0s0.158 0 0.262 0.052h3.819c0.052 0 0.104 0.104 0.104 0.155-0.052 0.107 0 0.107 0.052 0.107s0.052 0.052 0.052 0.104v1.675c0 0.052-0.052 0.104-0.052 0.155s0.104 0.052 0.052 0.104v0.262c0 0.052 0.052 0.158 0.052 0.21 0 0 0 0 0 0 0 0.029 0.023 0.052 0.052 0.052 0.001 0 0.002-0 0.003-0h-0c0.104 0 0.104 0.104 0.052 0.104-0.107 0.107-0.052 0.21-0.052 0.305v0.21c0.006 0.042 0.025 0.078 0.052 0.107l0.052 0.052v-0.107c0-0.052 0-0.052 0.052-0.104h0.104c0.107 0.052 0.158 0.158 0.262 0.262l0.052 0.052c0.055 0.052 0.055 0.052 0.107 0 0-0.052 0.052-0.052 0.104 0s0.052 0.052 0 0.104-0.052 0.055 0 0.107 0.052 0 0.104 0l0.055-0.052c0-0.055 0.052-0.055 0.104 0s0 0.052 0 0.052c-0.052 0.052 0 0.052 0 0.104 0 0 0.052 0.052 0 0.052h-0.052c-0.1 0.043-0.186 0.096-0.264 0.16l0.002-0.002zM26.461 16.779v0c-0.052 0.052-0.052 0-0.052-0.052 0-0.029 0.023-0.052 0.052-0.052v0c0.052 0 0 0.052 0 0.104zM26.564 21.381c-0.052 0.052 0 0.158-0.052 0.21 0 0.029-0.023 0.052-0.052 0.052v0c-0.052 0-0.052-0.052-0.052-0.104s0-0.052 0.052-0.107 0.104 0 0.104-0.052zM5.594 21.488v0c0.055-0.055 0.055 0 0.055 0 0.006 0.041 0.024 0.077 0.052 0.104l0 0c0 0.052 0 0.052-0.052 0.052s-0.055 0-0.055-0.052v-0.104zM5.542 12.44v0c0.052-0.052 0.052 0 0.052 0 0 0.029-0.023 0.052-0.052 0.052v0-0.052zM8.527 8.046c0-0.029 0.023-0.052 0.052-0.052v0h0.158c-0.052 0-0.052 0.052-0.107 0.052-0.013 0.014-0.031 0.023-0.052 0.023s-0.039-0.009-0.052-0.023l-0-0zM12.181 8.779c0.052 0 0.104-0.052 0.158-0.052h0.052c-0.107 0.052-0.158 0.104-0.21 0.052zM12.76 8.831c0.052-0.052 0.052-0.052 0.104-0.052h0.052v0.052c-0.052-0.052-0.052 0-0.155 0zM27.453 26.61c-0.013 0.014-0.031 0.023-0.052 0.023s-0.039-0.009-0.052-0.023l-0.052-0.052c-0.055 0-0.055 0-0.055-0.052s0.055 0 0.055 0h0.052c0.052 0 0.052-0.052 0.104 0s0 0.052 0 0.104zM27.758 12.65c-0-0.001-0-0.002-0-0.003 0-0.029 0.023-0.052 0.052-0.052 0 0 0 0 0 0v0c0.055 0 0.055 0 0.055 0.055s-0.055 0.052-0.055 0.052c-0.029 0-0.052-0.023-0.052-0.052v0zM31.942 15.315v0.107c0.052 0.052 0 0.104 0 0.155s0.052 0.104 0 0.158c0.052 0.104-0.052 0.155-0.052 0.262 0 0.052-0.052 0.104-0.107 0.052-0.052 0-0.052 0-0.052 0.052v1.045c0 0.029 0.023 0.052 0.052 0.052v0c0.001 0 0.002 0 0.003 0 0.029 0 0.052-0.023 0.052-0.052 0-0 0-0 0-0v0c-0.001-0.007-0.002-0.015-0.002-0.024 0-0.051 0.020-0.098 0.053-0.131l-0 0c0-0.029 0.023-0.052 0.052-0.052v0c0.052 0 0 0.052 0 0.052v0.064c0.035 0.027 0.058 0.069 0.058 0.117 0 0.081-0.065 0.146-0.146 0.146-0.005 0-0.011-0-0.016-0.001l0.001 0c0.052 0.052 0.052 0.052 0.104 0-0.052 0.052-0.052 0.155-0.158 0.104-0.052 0-0.052 0-0.052 0.052 0 0 0.052 0.055 0 0.055-0.041 0.046-0.066 0.107-0.066 0.174 0 0.030 0.005 0.060 0.015 0.087l-0.001-0.002v0.42c-0.001 0.010-0.002 0.022-0.002 0.034 0 0.065 0.020 0.124 0.054 0.174l-0.001-0.001c0 0.055 0.052 0.107 0 0.158 0 0.029 0.023 0.052 0.052 0.052v0c0.055 0 0.055 0.052 0 0.052-0.104 0.107-0.052 0.262-0.052 0.42 0 0.052 0 0.052 0.052 0.052s0.107 0.052 0.055 0.155c-0.055 0.21-0.21 0.305-0.305 0.524l-0.055 0.052c0 0.052 0 0.052 0.055 0.052s0.052-0.052 0.104 0c0 0.055 0 0.107-0.052 0.107h-0.052c0 0.052 0.052 0 0.052 0.052 0.052 0 0.104 0 0.104 0.052s-0.052 0.104-0.104 0.052v0c0 0.107-0.107 0.158-0.158 0.21s-0.104 0.155-0.207 0.262c-0.055 0.052-0.055 0.052-0.107 0q-0.079-0.161-0.155 0l-0.158 0.155c-0.052 0.052-0.052 0.052-0.104 0h-0.052c-0.055 0.107-0.158 0.107-0.21 0.158-0.052 0-0.052 0.052-0.104 0.104v0.052h0.052c0.052-0.052 0.104-0.052 0.155-0.104h0.052v0.052c-0.052 0.052-0.104 0.158-0.207 0.21 0 0-0.052 0.052-0.052 0v-0.104s-0.055 0-0.055 0.052v0.079c0 0.052 0 0.052-0.052 0.104s-0.104 0.158-0.262 0.107v0.052c0 0.052 0 0.052-0.052 0.052-0.029 0-0.052 0.023-0.052 0.052v0c0 0.029-0.023 0.052-0.052 0.052v0c-0.052 0 0-0.052 0-0.052s0-0.052-0.052 0-0.107 0-0.107 0.052-0.052 0.055-0.052 0.107c-0.104 0.052-0.155 0.155-0.262 0.262-0.052 0.052-0.104 0.104-0.155 0.104s-0.052 0-0.052 0.052l-0.305 0.472c-0.078 0.106-0.148 0.226-0.205 0.353l-0.005 0.012h-0.052c0-0.029-0.023-0.052-0.052-0.052v0s-0.055 0.052 0 0.052c0 0.052 0 0.052-0.055 0.104-0.104 0.052-0.052 0.21-0.155 0.262-0.052 0.052-0.052 0.104-0.104 0.104l-0.055 0.055c-0.004 0.055-0.048 0.099-0.103 0.104l-0 0c0 0.029-0.023 0.052-0.052 0.052v0c0 0.052 0 0.052-0.052 0.104 0 0 0 0.055-0.052 0.055-0.030 0-0.055-0.025-0.055-0.055v0c0-0.052 0-0.052 0.055-0.052 0.052-0.052 0.052-0.052 0.052-0.104-0.052-0.104-0.052-0.21-0.107-0.262v-0.052c0.064-0.048 0.106-0.124 0.107-0.21v-0c0-0.104 0.052-0.207 0.052-0.365v-0.052c0.054-0.087 0.090-0.191 0.103-0.301l0-0.003c0-0.052 0.052-0.052 0.052-0.107s0.055-0.052 0-0.104c-0.052 0-0.052-0.052-0.052-0.104v-0.573c-0.002-0.026-0.004-0.056-0.004-0.086 0-0.119 0.020-0.232 0.058-0.338l-0.002 0.007c0.055-0.262 0.055-0.472 0.107-0.734v-1.096c0.001-0.033 0.002-0.073 0.002-0.112 0-0.202-0.020-0.399-0.057-0.589l0.003 0.019c0-0.104-0.055-0.155-0.055-0.262 0-0.155-0.052-0.259-0.052-0.365v-0.052c0.024-0.028 0.039-0.065 0.039-0.105s-0.015-0.077-0.039-0.105l0 0v-0.052c0.052-0.052 0-0.155 0.052-0.262v0c-0.104-0.052 0-0.155 0-0.207v-0.305c-0.052 0-0.052-0.055-0.052-0.107s0-0.052 0.052-0.052c0.025-0.017 0.041-0.046 0.041-0.078s-0.016-0.060-0.040-0.077l-0-0c-0.052-0.055-0.104-0.107 0-0.158v-0.426c0.001-0.007 0.002-0.016 0.002-0.024 0-0.052-0.020-0.099-0.053-0.134l0 0v-0.359c0.052-0.052 0-0.104 0-0.158v-0.207c0.019-0.070 0.037-0.159 0.050-0.249l0.001-0.012c0.001-0.007 0.001-0.014 0.001-0.022 0-0.053-0.020-0.1-0.053-0.136l0 0v-0.305c-0.024-0.028-0.039-0.064-0.039-0.104s0.015-0.076 0.039-0.104l-0 0v-0.052c-0.024-0.019-0.039-0.047-0.039-0.079s0.015-0.061 0.038-0.079l0-0c0.035-0.086 0.056-0.185 0.056-0.289 0-0.027-0.001-0.054-0.004-0.080l0 0.003c-0.052-0.305 0-0.576-0.052-0.889v-1.218c0-0.104-0.052-0.21-0.052-0.305v-0.052c-0.104 0-0.052-0.052-0.052-0.107 0.024-0.088 0.038-0.19 0.038-0.294 0-0.048-0.003-0.094-0.009-0.14l0.001 0.006c0-0.104-0.052-0.21-0.052-0.305v-0.21c0-0.052-0.052-0.104 0-0.155v-0.052c0-0.055-0.052-0.107 0-0.158s-0.104-0.104-0.052-0.155 0-0.107 0.052-0.158c0-0.052 0-0.052-0.104-0.052 0.049-0.049 0.079-0.116 0.079-0.19 0-0.031-0.005-0.061-0.015-0.089l0.001 0.002v-1.218c0-0.052 0-0.104-0.107-0.104s-0.155-0.052-0.262-0.052c-0.207 0-0.365-0.107-0.521-0.107s-0.262-0.104-0.365-0.104c-0.055 0-0.107-0.052-0.055 0.052 0 0.052 0 0.052-0.052 0-0.227-0.010-0.442-0.048-0.646-0.108l0.019 0.005c-0.104-0.052-0.262 0-0.365 0h-4.967c-0.734-0.052-1.465 0-2.199 0h-1.255c-0.013 0.001-0.027 0.001-0.042 0.001-0.095 0-0.185-0.020-0.267-0.055l0.004 0.002c-0.033-0.035-0.080-0.056-0.132-0.056-0.008 0-0.016 0.001-0.024 0.002l0.001-0h-1.523c-0.007-0.001-0.015-0.002-0.024-0.002-0.053 0-0.1 0.022-0.134 0.056l-0 0c0.107 0.207 0.052 0.207-0.052 0.207h-5.077c-0.155 0-0.305 0.052-0.469 0.052h-3.654c-0.018-0.001-0.039-0.002-0.060-0.002-0.11 0-0.215 0.021-0.311 0.059l0.006-0.002c-0.158 0.034-0.339 0.054-0.524 0.054-0.036 0-0.072-0.001-0.108-0.002l0.005 0h-0.426c0.052 0.104-0.052 0.104-0.104 0.155-0.052 0-0.104 0.052-0.052 0.107v1.358c0 0.052 0.052 0.104 0.052 0.158-0.052 0-0.052 0-0.052 0.052s-0.052 0.104 0.052 0.155v0.052c-0.052 0-0.052 0-0.052 0.055v0.627c0.052 0.155-0.052 0.262 0 0.417 0 0.104 0.052 0.21 0.052 0.305v0.052c-0.104 0-0.052 0.052-0.052 0.107 0 0.155-0.052 0.305-0.052 0.469v0.837c0.001 0.034 0.002 0.073 0.002 0.113 0 0.201-0.021 0.396-0.060 0.585l0.003-0.018v0.104c0 0.107-0.052 0.21 0 0.305-0.001 0.012-0.001 0.026-0.001 0.041 0 0.096 0.021 0.186 0.058 0.268l-0.002-0.004c0.052 0.052 0 0.104 0 0.155 0 0-0.055 0.052 0 0.052 0.024 0.028 0.039 0.065 0.039 0.105s-0.015 0.077-0.039 0.105l0-0c0 0.052-0.055 0.104 0 0.155s0 0.107 0 0.158c-0.013 0.070-0.021 0.152-0.021 0.235s0.007 0.164 0.022 0.243l-0.001-0.008v0.576c-0.013 0.079-0.021 0.169-0.021 0.262s0.008 0.183 0.022 0.272l-0.001-0.010v0.365c0 0.052 0.052 0.107 0 0.158s0 0.155 0 0.207-0.055 0.158 0.052 0.21v0.052c-0.107 0-0.052 0.055-0.052 0.055v0.104c0 0.052 0 0.104 0.104 0.052h0.104v0.052c-0.052 0.052-0.052 0.107-0.104 0.052-0.052 0-0.052 0.055-0.052 0.107s0 0.104 0.052 0.104 0.052 0 0.052-0.052 0.052-0.052 0.104 0v0.052c-0.052 0-0.052 0.104-0.155 0.104-0.262 0-0.262 0.055-0.262 0.055 0 0.052-0.052 0.155-0.052 0.207v0.158c-0.012 0.063-0.019 0.135-0.019 0.209s0.007 0.146 0.021 0.216l-0.001-0.007v0.837c0 0.052 0.052 0.104 0.052 0.155 0 0.107 0.052 0.21 0 0.305v0.42c-0.052 0.155 0 0.305-0.052 0.469-0.001 0.008-0.002 0.017-0.002 0.025 0 0.052 0.020 0.098 0.054 0.133l-0-0v0.305c0 0.21 0.052 0.417 0.052 0.679v0.158c0 0.052 0 0.052-0.052 0.052s-0.052 0.052 0 0.104 0.052 0.158 0.104 0.21c0.055 0.172 0.109 0.31 0.169 0.444l-0.011-0.027c0.052 0.052 0 0.158 0 0.21-0.052 0.21-0.052 0.365-0.104 0.576 0 0.052 0 0.052 0.052 0.052s0.104 0 0.052 0.104v0.283h-0.052c-0.052 0-0.052-0.052-0.052-0.104-0.055-0.107-0.055-0.158-0.107-0.262 0-0.052-0.104-0.052-0.155-0.107-0.087-0.071-0.16-0.157-0.214-0.254l-0.002-0.004-0.052-0.055c-0.029 0-0.052-0.023-0.052-0.052v0c0-0.052-0.052-0.155-0.052-0.207v-0.055c0.052-0.052 0-0.104-0.055-0.155s-0.104-0.104-0.155-0.104-0.052-0.055-0.052-0.055c-0.055-0.052-0.107-0.052-0.21-0.052h-0.046c-0.033-0.034-0.053-0.080-0.053-0.131 0-0.008 0.001-0.017 0.002-0.025l-0 0.001c-0.055-0.107-0.158-0.158-0.21-0.262 0-0.052-0.052-0.052-0.104-0.052-0.030 0-0.055-0.025-0.055-0.055v0c0-0.029-0.023-0.052-0.052-0.052v0c-0.052 0-0.104-0.052-0.104-0.155 0-0.052 0-0.158-0.104-0.158 0 0-0.055 0-0.055-0.052 0-0.104-0.104-0.155-0.207-0.21-0.052 0 0-0.052 0-0.052v-0.052h-0.052s-0.055 0.052-0.055 0v-0.326s-0.052-0.052-0.052 0c-0.052 0 0 0.052 0 0.052v0.052c-0.052 0-0.052 0-0.052-0.052-0.052-0.052-0.052-0.155-0.158-0.207 0 0-0.052-0.055 0-0.055 0 0 0.055-0.052 0.055 0 0.052 0.055 0.104 0.055 0.155 0.107h0.052v-0.052c0-0.001 0-0.002 0-0.003 0-0.029-0.023-0.052-0.052-0.052-0 0-0 0-0 0v0c-0.050-0.058-0.124-0.094-0.206-0.094-0.002 0-0.003 0-0.005 0h0c-0.052-0.104-0.104-0.052-0.155 0 0 0-0.052 0.052-0.052 0-0.052-0.052-0.052-0.052-0.107 0s-0.104 0.052-0.104 0c-0-0.023-0.015-0.042-0.036-0.049l-0-0-0.067 0.049c0 0.052-0.052 0.104-0.052 0.158-0.030 0-0.055-0.025-0.055-0.055v0c0-0.052 0-0.052-0.104-0.104-0.052 0-0.052-0.052 0-0.104v0c0 0.029 0.023 0.052 0.052 0.052v0-0.107c-0.037-0.088-0.123-0.149-0.223-0.149-0.014 0-0.027 0.001-0.041 0.003l0.001-0c0.055 0 0.055-0.052 0.107-0.052v-0.052c0-0.055-0.052 0-0.052 0h-0.055v-0.055c0-0.052 0-0.052-0.052-0.104s-0.155-0.052-0.207-0.155c0-0.055 0-0.107 0.052-0.107h0.104c0.029 0 0.052-0.023 0.052-0.052s-0.023-0.052-0.052-0.052v0c-0.052 0-0.052 0-0.052-0.052 0 0-0.052-0.052 0-0.052h0.052c0.052 0 0.104 0 0.104-0.055s-0.052-0.104 0.055-0.104v0c-0.055-0.052 0-0.104 0.052-0.155s0.052-0.055 0.104 0c0 0 0.052 0.052 0.052 0s0-0.055-0.052-0.055c-0.029 0-0.052-0.023-0.052-0.052v0c0-0.052-0.052-0.052-0.052 0-0.052 0.052-0.052 0-0.107 0 0 0 0.055 0 0.055-0.052 0.052 0 0.052-0.052 0-0.052-0.055-0.052-0.055-0.104 0-0.104 0 0 0.052-0.055 0-0.055h-0.055c-0.052 0.055-0.104 0.107-0.155 0.107v-0.052s0.052-0.055 0-0.055c-0 0-0 0-0 0-0.029 0-0.052 0.023-0.052 0.052 0 0.001 0 0.002 0 0.003v-0c0 0.029-0.023 0.052-0.052 0.052v0c-0.055 0 0-0.052-0.055-0.052 0-0.055-0.052-0.055-0.052-0.107s0-0.052 0.052-0.052 0.055-0.052 0-0.052c-0.104-0.052-0.052-0.107-0.104-0.158l0.052-0.052s0.052-0.052 0-0.052c0-0.002 0-0.005 0-0.007 0-0.029-0.023-0.052-0.052-0.052-0.003 0-0.007 0-0.010 0.001l0-0c-0.104 0.052-0.104 0-0.155-0.052v-0.055h0.113c0.052 0 0.155 0.107 0.21-0.052 0.041-0.004 0.077-0.023 0.103-0.052l0-0c-0.052 0-0.104 0-0.104 0.052-0.010 0.002-0.022 0.003-0.033 0.003-0.052 0-0.1-0.021-0.134-0.055l0 0c-0.052-0.052-0.052-0.052-0.104-0.052 0.052-0.104 0-0.21 0.052-0.305v-0.591c0-0.052-0.052-0.104 0-0.155 0 0-0.052-0.055-0.052 0-0.107 0-0.107-0.055-0.107-0.107h0.116c-0.158-0.043-0.158-0.149-0.107-0.256v-0.091c0.035 0.033 0.056 0.080 0.056 0.132 0 0.008-0.001 0.016-0.002 0.024l0-0.001v0.055l0.052 0.052v-1.175c0-0.052 0-0.052-0.052-0.052s-0.055 0-0.055-0.052 0-0.107 0.055-0.107c0.029 0 0.052-0.023 0.052-0.052v0c0-0.052 0-0.052-0.052-0.052s-0.055 0-0.055-0.052v-0.365c0-0.107 0.055-0.158 0-0.262v-0.052c0.107 0 0.055-0.055 0.055-0.055 0-0.104-0.055-0.207 0-0.305v-0.052c0-0.052-0.055-0.052 0-0.104 0.052 0 0-0.052 0-0.052-0.055-0.052-0.107-0.107 0-0.107 0.052 0 0-0.052 0-0.052-0.029-0.027-0.048-0.062-0.055-0.103l-0-0.001v-0.052c0.055 0 0.055-0.052 0.107-0.107v-0.052c-0.052 0-0.052-0.052 0-0.104s0-0.107 0.052-0.107c0-0.029-0.023-0.052-0.052-0.052v0c-0.052 0-0.052-0.052 0-0.052 0 0 0.052-0.052 0-0.052-0.107-0.104 0-0.21-0.107-0.305v-0.11s0.055-0.055 0-0.055c-0.052-0.052 0-0.052 0-0.052 0.055 0 0.055-0.052 0-0.104v-0.052c0.055-0.052 0-0.107 0-0.21-0.029 0-0.052 0.023-0.052 0.052v0h-0.052c0.004-0.055 0.048-0.099 0.103-0.104l0-0c0.055 0 0.055 0 0.055-0.052v-0.158h-0.055c-0.052 0 0 0.052 0 0.052-0.104 0-0.104-0.11-0.104-0.155v-0.305c0-0.052 0-0.107 0.104-0.052 0.055 0.052 0.107-0.055 0.055-0.055v-1.002h-0.107v-0.064c0.029 0 0.052-0.023 0.052-0.052v0c0.055-0.052 0.055-0.052 0-0.104 0 0-0.052 0 0-0.055 0-0.052 0-0.104 0.055-0.104s0.052-0.052 0.052-0.104 0-0.107-0.107-0.158v-0.034c0.107-0.052 0.055-0.104 0.055-0.158-0.036-0.104-0.057-0.223-0.057-0.348 0-0.024 0.001-0.049 0.002-0.073l-0 0.003v-0.53c-0.001-0.028-0.002-0.061-0.002-0.094 0-0.171 0.021-0.337 0.060-0.495l-0.003 0.014v-0.993c0-0.052 0-0.104 0.052-0.104s0.052 0 0-0.052v-0.052s-0.052-0.055 0-0.055 0.052 0 0.052 0.055c0 0.029 0.023 0.052 0.052 0.052v0h-0.009v-0.052c-0.062-0.11-0.099-0.242-0.099-0.383 0-0.030 0.002-0.060 0.005-0.090l-0 0.004v-0.052c-0.052-0.107 0-0.21 0-0.305v-0.588c0-0.052 0.052-0.052 0-0.104v-0.055c0.094-0.052 0.052-0.052 0-0.116s0-0.104 0-0.155 0.104 0 0.052-0.055c0-0.040-0.052-0.040-0.052-0.094 0-0.029 0.023-0.052 0.052-0.052v0c-0.029 0-0.052-0.023-0.052-0.052v0c0-0.055 0-0.055 0.052-0.055s0.043 0.003 0.043-0.049 0 0-0.052 0c-0.029 0-0.052-0.023-0.052-0.052v0-0.941c0-0.104 0-0.104 0.104-0.104 0.052 0 0.052-0.052 0.052-0.107 0 0.055 0.052 0.055 0.107 0 0.164-0.052 0.268-0.113 0.426-0.155h0.155c0.018 0.001 0.039 0.002 0.060 0.002 0.111 0 0.217-0.020 0.315-0.056l-0.006 0.002c0.104-0.052 0.207 0 0.305 0 0.062 0.012 0.134 0.019 0.207 0.019s0.145-0.007 0.214-0.020l-0.007 0.001h0.052c0.107 0.104 0.21 0.052 0.305 0 0.148-0.051 0.277-0.122 0.389-0.212l-0.003 0.002h14.59c0.055 0 0.107 0.052 0.158 0.052 0.149 0.012 0.322 0.019 0.496 0.019s0.348-0.007 0.519-0.021l-0.023 0.001c0.063-0.012 0.136-0.019 0.21-0.019s0.147 0.007 0.217 0.021l-0.007-0.001c0.104 0 0.155 0.052 0.259 0h1.465c0.094-0.012 0.203-0.019 0.314-0.019s0.219 0.007 0.326 0.021l-0.013-0.001h1.882c0.262 0 0.484-0.052 0.734-0.052h5.019c0.136 0.011 0.261 0.048 0.374 0.106l-0.006-0.003h0.104c0.17 0.036 0.366 0.057 0.567 0.057 0.040 0 0.079-0.001 0.118-0.002l-0.006 0h0.524c0.070 0.033 0.151 0.052 0.238 0.052 0.009 0 0.017-0 0.025-0.001l-0.001 0h0.305c0.052 0 0.104 0.104 0.104 0.207v0.996c0 0.052 0 0.104-0.052 0.052h-0.052c0 0.029 0.023 0.052 0.052 0.052v0c0.052 0 0.104-0.052 0.104 0.052 0.001 0.007 0.001 0.014 0.001 0.022 0 0.053-0.020 0.1-0.053 0.136l0-0c-0.052 0.052-0.052 0.052 0 0.052s0.052 0.155 0 0.155c-0.052 0.055-0.104 0.107 0 0.107 0 0 0.052 0.052 0 0.052s-0.052 0.052 0 0.052 0.052 0.052 0.052 0.104v0.21c-0.025 0.062-0.039 0.134-0.039 0.209s0.014 0.147 0.040 0.213l-0.001-0.004v0.055c-0.052 0.104 0 0.259-0.052 0.365 0 0.052-0.052 0.104-0.052 0.155 0 0 0 0.055-0.052 0.055l-0.052 0.052v0.052h0.052v-0.052c0-0.029 0.023-0.052 0.052-0.052v0c0.052 0 0 0.052 0 0.052-0.052 0.052-0.052 0.104 0.052 0.104 0.029 0 0.052 0.023 0.052 0.052v0 1.048c0.052 0.155 0 0.259 0.052 0.417 0.013 0.094 0.021 0.203 0.021 0.314s-0.007 0.219-0.022 0.326l0.001-0.012c0.001 0.018 0.002 0.039 0.002 0.060 0 0.11-0.020 0.215-0.056 0.312l0.002-0.006c-0.052 0.052-0.104 0.107 0.052 0.158 0.055 0 0 0.052 0 0.052 0.21 0.469 0.21 0.524 0.21 0.679 0.052 0 0-0.052 0.052-0.052s0.052 0.052 0.052 0.104c0 0 0 0.055-0.052 0s-0.052 0-0.052 0.055c0 0.104-0.052 0.259 0 0.365v0.052c-0.023 0.044-0.037 0.097-0.037 0.152s0.014 0.108 0.037 0.154l-0.001-0.002v0.052c-0.012 0.063-0.019 0.135-0.019 0.209s0.007 0.146 0.021 0.216l-0.001-0.007c0 0.055 0.052 0.055 0.104 0.055 0.055-0.055 0.055 0 0.107 0.052v0.417c0 0.052-0.052 0.052-0.107 0.052v-0.052c0-0.052 0-0.052-0.052-0.052-0.029 0-0.052 0.023-0.052 0.052v0 0.158c0 0.052 0 0.052 0.052 0 0.052 0 0.158 0.052 0.158 0.104s0 0.052-0.052 0l-0.055-0.052c-0.052 0.052-0.052 0.104 0 0.21v0.052s-0.052 0.052 0 0.052c0.055 0.052 0.055 0 0.107 0h0.052c0 0.104 0.052 0.21-0.052 0.305-0.013 0.013-0.021 0.032-0.021 0.052s0.008 0.039 0.021 0.052v0c0 0.052 0 0.052-0.052 0.052-0.030 0-0.055 0.025-0.055 0.055v0 0.052c0.055 0 0.055 0 0.055-0.052 0 0 0-0.055 0.052-0.055s0 0.055 0 0.055v0.052c0 0.052 0.052 0.155-0.107 0.052-0.029 0-0.052 0.023-0.052 0.052v0c0 0.052 0.052 0.158 0.107 0.158-0.055 0.052-0.055 0.104-0.107 0.104-0.052 0.052 0 0.052 0 0.104s0 0.055 0.052 0.055h0.055c0 0.052 0 0.052-0.055 0.052h-0.052l-0.052 0.052c0 0.052 0.052 0 0.052 0 0.052 0 0.107 0.104 0.107 0.155v0.42c0.066 0.126 0.104 0.276 0.104 0.434 0 0.012-0 0.025-0.001 0.037l0-0.002zM0.627 19.49c0 0.052 0.104 0.052 0.052 0.158-0.013 0.013-0.032 0.021-0.052 0.021s-0.039-0.008-0.052-0.021v0c-0.052-0.107 0-0.158 0.052-0.158zM31.793 10.963v0c-0.104 0-0.104 0-0.104-0.052v0c0.052 0 0.104 0 0.104 0.052z"></path>
</svg>
