<!-- Generated by IcoMoon.io -->
<svg version="1.1" xmlns="http://www.w3.org/2000/svg" width="32" height="32" viewBox="0 0 32 32">
<title>faction_new_monarchy</title>
<path d="M28.35 22.591c0.237 0.405 0.468 0.797 0.695 1.19q1.401 2.397 2.803 4.794c0.143 0.245 0.208 0.491 0.094 0.758s-0.333 0.424-0.626 0.46c-0.062 0.006-0.134 0.010-0.207 0.010-0.020 0-0.041-0-0.061-0.001l0.003 0h-30.124c-0.068 0-0.137 0.002-0.205-0.004-0.597-0.056-0.906-0.63-0.607-1.152 0.439-0.768 0.89-1.529 1.336-2.293l13.834-23.671c0.292-0.499 0.798-0.63 1.194-0.311 0.081 0.071 0.149 0.155 0.2 0.25l0.002 0.005q4.904 8.39 9.807 16.78c0.014 0.023 0.025 0.048 0.049 0.093-0.187 0.223-0.377 0.452-0.569 0.679q-2.254 2.671-4.509 5.341c-0.327 0.386-0.296 0.754 0.092 1.082q0.718 0.607 1.438 1.211c0.345 0.286 0.731 0.257 1.023-0.087q1.684-1.989 3.363-3.982zM18.017 28.002c0.327 0.014 0.513-0.193 0.695-0.411q1.723-2.045 3.451-4.090 1.12-1.326 2.24-2.653c0.315-0.374 0.279-0.759-0.091-1.069q-0.704-0.59-1.405-1.186c-0.401-0.339-0.769-0.301-1.11 0.104q-1.822 2.163-3.649 4.324-1.054 1.249-2.108 2.495c-0.308 0.368-0.3 0.744 0.030 1.027 0.506 0.435 1.018 0.863 1.528 1.293 0.123 0.107 0.258 0.182 0.418 0.167zM12.584 28.002c0.284 0.004 0.47-0.128 0.631-0.319q1.513-1.797 3.030-3.59 1.364-1.616 2.727-3.231c0.34-0.405 0.306-0.756-0.092-1.095q-0.701-0.595-1.403-1.186c-0.376-0.318-0.743-0.291-1.067 0.086-0.306 0.356-0.607 0.717-0.91 1.076q-2.444 2.895-4.888 5.791c-0.31 0.368-0.277 0.744 0.087 1.053 0.488 0.414 0.978 0.825 1.467 1.238 0.128 0.108 0.266 0.191 0.419 0.179z"></path>
</svg>
