<!-- Generated by IcoMoon.io -->
<svg version="1.1" xmlns="http://www.w3.org/2000/svg" width="32" height="32" viewBox="0 0 32 32">
<title>faction_dead_orbit</title>
<path d="M24.456 6.522c2.829-1.229 5.936 0.085 7.086 2.752 0.636 1.474 0.609 2.964-0.078 4.415-0.683 1.444-1.831 2.375-3.346 2.847-0.18 3.546-1.455 6.624-3.903 9.185-2.21 2.312-4.914 3.718-8.081 4.183-6.888 1.012-13.125-3.047-15.307-9.155-2.189-6.13 0.057-12.975 5.638-16.579 5.554-3.586 13.186-2.871 17.99 2.353zM22.462 16.006c0.011-4.599-3.707-8.399-8.396-8.406-4.634-0.005-8.393 3.756-8.402 8.384-0.008 4.578 3.674 8.418 8.41 8.416 0.001 0 0.002 0 0.002 0 4.631 0 8.386-3.754 8.386-8.386 0-0.003 0-0.006 0-0.009v0zM23.856 6.832c-3.945-4.339-10.855-5.735-16.513-2.455-4.042 2.358-6.715 6.673-6.715 11.613 0 1.854 0.377 3.62 1.058 5.226l-0.033-0.088c2.562 6.195 9.281 9.613 15.895 7.836 6.506-1.746 9.817-7.582 9.9-12.275-0.321-0.012-0.733 0.054-1.135 0.198-1.019 0.364-1.712 1.051-2.023 2.093-0.611 2.050-1.714 3.785-3.357 5.15-2.572 2.135-5.527 2.909-8.813 2.335-2.233-0.389-4.136-1.443-5.718-3.069-0.758-0.774-1.395-1.669-1.88-2.654l-0.027-0.060q-1.613-3.344-0.829-6.977c0.466-2.155 1.513-3.996 3.135-5.487 2.371-2.183 5.184-3.107 8.39-2.805 1.693 0.161 3.252 0.734 4.682 1.656 0.152 0.101 0.327 0.194 0.51 0.27l0.021 0.008c1.248 0.502 2.403 0.348 3.452-0.515zM26.628 8.031c-1.853 0.010-3.351 1.514-3.351 3.368 0 1.86 1.508 3.368 3.368 3.368s3.368-1.508 3.368-3.368c0-0.001 0-0.001 0-0.002v0c0.002-1.923-1.581-3.399-3.384-3.366z"></path>
<path d="M11.878 14.683l1.067-1.031h-1.057c-0.004-0.084-0.009-0.143-0.009-0.201q0-0.995 0-1.989c0-0.288 0.070-0.359 0.352-0.359q2.421 0 4.842 0c0.285 0 0.356 0.071 0.357 0.355q0 1.356 0 2.712c0 0.292-0.064 0.355-0.354 0.356-0.415 0-0.83 0.004-1.246 0-0.365-0.004-0.626 0.159-0.804 0.471-0.108 0.179-0.172 0.396-0.172 0.627 0 0.007 0 0.014 0 0.021v-0.001c0.010 0.415 0.003 0.83 0.002 1.246 0 0.053 0.003 0.108-0.002 0.161-0.018 0.192-0.104 0.278-0.297 0.278q-1.196 0.004-2.391 0c-0.197 0-0.287-0.089-0.287-0.281-0.003-0.783-0.001-1.564-0.001-2.365z"></path>
<path d="M12.679 19.623h-0.753c-0.016-0.069-0.045-0.136-0.046-0.203q-0.006-0.752 0-1.503c0.008-0.079 0.022-0.15 0.042-0.219l-0.002 0.008h0.743c0.020 0.061 0.059 0.126 0.060 0.192 0.005 0.508 0.004 1.016 0 1.523 0.002 0.062-0.023 0.125-0.044 0.202z"></path>
<path d="M12.989 19.618c-0.019-0.053-0.034-0.115-0.042-0.179l-0-0.004q-0.006-0.772 0-1.543c0-0.066 0.034-0.13 0.051-0.19h0.74c0.017 0.074 0.048 0.147 0.049 0.22 0.004 0.494 0.004 0.989 0 1.483-0.008 0.079-0.022 0.152-0.042 0.222l0.002-0.009z"></path>
<path d="M14.054 19.618c-0.019-0.053-0.034-0.115-0.042-0.179l-0-0.004q-0.006-0.772 0-1.543c0-0.066 0.034-0.13 0.051-0.19h0.74c0.017 0.074 0.048 0.147 0.049 0.22 0.004 0.494 0.004 0.989 0 1.483-0.008 0.079-0.022 0.152-0.042 0.222l0.002-0.009z"></path>
</svg>
