<!-- Generated by IcoMoon.io -->
<svg version="1.1" xmlns="http://www.w3.org/2000/svg" width="32" height="32" viewBox="0 0 32 32">
<title>fallen_exile</title>
<path d="M15.233 7.38l0.796-0.848 0.795 0.848-0.795 0.848-0.796-0.848z"></path>
<path d="M14.911 4.114l1.118-1.191 1.117 1.191-1.117 1.191-1.118-1.191z"></path>
<path d="M15.233 0.848l0.796 0.848 0.795-0.848-0.795-0.848-0.796 0.848z"></path>
<path d="M16.507 11.879c0.119-1.066 1.069-2.464 1.069-2.464l3.499-4.262-0.7-0.636s-2.481 2.863-3.117 3.817c-0.531 0.797-0.707 2.879-0.751 3.545z"></path>
<path d="M17.258 15.282c-0.531 0.797-0.707 2.879-0.751 3.545 0.016-0.142-0.012 0.208-0.012 0.208v12.964l0.254-13.042s0.064-1.111 0.442-1.958c0.064-0.117 0.127-0.223 0.181-0.313l0.127-0.204c0.049-0.077 0.078-0.12 0.078-0.12l3.944-4.708-0.7-0.636s-2.928 3.308-3.564 4.262z"></path>
<path d="M17.258 11.964c-0.531 0.797-0.707 2.879-0.751 3.545 0.119-1.066 1.069-2.464 1.069-2.464l5.118-6.167-0.7-0.636s-4.101 4.768-4.737 5.722z"></path>
<path d="M22.006 4.031l-0.7-0.636-0.668 0.779 0.717 0.65 0.651-0.793z"></path>
<path d="M17.099 7.041l2.534-2.927-2.534-2.927-0.774 0.825 1.855 2.102-1.855 2.102 0.774 0.825z"></path>
<path d="M15.493 11.879c-0.119-1.066-1.069-2.464-1.069-2.464l-3.499-4.262 0.7-0.636s2.481 2.863 3.117 3.817c0.531 0.797 0.708 2.879 0.751 3.545z"></path>
<path d="M14.742 15.282c0.531 0.797 0.708 2.879 0.751 3.545-0.016-0.142 0.012 0.208 0.012 0.208v12.964l-0.254-13.042s-0.064-1.111-0.442-1.958c-0.064-0.117-0.127-0.223-0.181-0.313l-0.127-0.204c-0.049-0.077-0.078-0.12-0.078-0.12l-3.944-4.708 0.7-0.636s2.928 3.308 3.564 4.262z"></path>
<path d="M14.742 11.964c0.531 0.797 0.708 2.879 0.751 3.545-0.119-1.066-1.069-2.464-1.069-2.464l-5.118-6.167 0.7-0.636s4.1 4.768 4.736 5.722z"></path>
<path d="M9.994 4.031l0.7-0.636 0.668 0.779-0.717 0.65-0.651-0.793z"></path>
<path d="M14.9 7.041l-2.534-2.927 2.534-2.927 0.774 0.825-1.855 2.102 1.855 2.102-0.774 0.825z"></path>
</svg>
