<!-- Generated by IcoMoon.io -->
<svg version="1.1" xmlns="http://www.w3.org/2000/svg" width="32" height="32" viewBox="0 0 32 32">
<title>fallen_devils</title>
<path d="M20.436 6.938c0.003-0.478 0.072-0.938 0.197-1.375l-0.009 0.036s0.907-1.132 1.351-1.577 0.2-2.19 0.2-2.19c0 0.951-0.2 1.301-0.2 1.301l-2.54 2.853 0.688 1.489c0.374-0.538 0.313-0.538 0.313-0.538z"></path>
<path d="M20.979 8.8c0.002-0.157 0.005-0.318 0.006-0.486 0 0-0.006 0.19-0.006 0.486z"></path>
<path d="M21.417 12.012c-0.392-0.547-0.44-2.339-0.438-3.211-0.064 4.32-0.256 4.356-0.256 4.356l-1.539 1.802 0.713 0.751 1.652-1.896c0.413-0.525 1.032 0.15 1.032 0.15h0.131c-0.075-0.413-0.77-1.22-1.295-1.952z"></path>
<path d="M17.57 13.663l1.239 0.957v-5.664l0.901-1.017-0.676-1.539-1.652 2.102v2.065l0.188-0.212v3.308z"></path>
<path d="M17.57 14.226s-0.019 6.644-0.019 8.671-0.075 1.995-0.169 2.483c-0.055 0.29-0.102 0.648-0.13 1.011l-0.002 0.034v5.574l0.319-0.807v-3.191s0-0.751 0.713-1.595 0.732-1.558 0.732-1.558v-8.145l0.526-0.601v-0.225l-0.638-0.676z"></path>
<path d="M11.377 5.599c0.116 0.401 0.184 0.861 0.188 1.337v0.002s-0.063 0 0.313 0.538l0.688-1.489-2.54-2.853s-0.2-0.35-0.2-1.301c0 0-0.244 1.745 0.2 2.19s1.351 1.577 1.351 1.577z"></path>
<path d="M11.021 8.8c0-0.296-0.006-0.486-0.006-0.486 0.002 0.169 0.004 0.33 0.006 0.486z"></path>
<path d="M11.277 13.157s-0.192-0.036-0.256-4.354c0 0.873-0.046 2.665-0.438 3.211-0.525 0.73-1.22 1.537-1.295 1.95h0.131s0.619-0.676 1.032-0.15l1.652 1.896 0.713-0.751z"></path>
<path d="M13.191 8.956v5.664l1.239-0.957v-3.308l0.188 0.212v-2.065l-1.652-2.102-0.676 1.539 0.901 1.017z"></path>
<path d="M14.449 22.897c0-2.027-0.019-8.671-0.019-8.671l-1.333 0.976-0.638 0.676v0.225l0.525 0.601v8.145s0.019 0.713 0.732 1.558 0.713 1.595 0.713 1.595v3.191l0.319 0.807v-5.574c-0.029-0.397-0.076-0.755-0.141-1.107l0.009 0.062c-0.094-0.488-0.169-0.456-0.169-2.483z"></path>
<path d="M15.449 20.326s-0.005 0.807 0.582 1.595c0 0 0.469-0.544 0.469-1.633v-20.289h-1.051z"></path>
</svg>
