<!-- Generated by IcoMoon.io -->
<svg version="1.1" xmlns="http://www.w3.org/2000/svg" width="32" height="32" viewBox="0 0 32 32">
<title>fallen_dusk</title>
<path d="M20.671 20.583c0.004 0.075 0.023 0.153-0.040 0.216-0.031-0.004-0.078-0.023-0.090-0.010-0.203 0.217-0.407 0.109-0.608 0-0.141-0.076-0.281-0.109-0.414-0.024-0.107-0.035-0.068-0.226-0.226-0.174 0.035 0.154 0.13 0.251 0.249 0.346 0.195 0.156 0.45 0.174 0.647 0.315 0.044 0.052 0.13 0.065 0.137 0.15-0.375-0.117-0.701-0.274-0.998-0.472l0.014 0.009c-0.12-0.079-0.248-0.15-0.406-0.065 0.007 0.178 0.135 0.28 0.216 0.406s0.248 0.172 0.285 0.384c-0.267-0.113-0.382-0.37-0.619-0.451l-0.052-0.051-0.006-0.009 0.009 0.006 0.052 0.051c-0.005 0.093 0.008 0.182 0.090 0.238 0.281 0.188 0.538 0.412 0.84 0.57 0.005 0.008 0.013 0.014 0.023 0.016l0 0c0.081 0.093 0.183 0.166 0.299 0.212l0.005 0.002c0.065 0.096 0.218 0.102 0.24 0.24-0.069 0.071-0.114-0.016-0.17-0.020-0.245-0.242-0.541-0.411-0.84-0.572-0.121-0.063-0.224-0.137-0.317-0.223l0.001 0.001c-0.265-0.257-0.593-0.408-0.94-0.521-0.031-0.010-0.061 0.016-0.080 0.049-0.031 0.174 0.16 0.264 0.195 0.479-0.21-0.176-0.335-0.378-0.571-0.428-0.053-0.011-0.044-0.093-0.040-0.152 0.021-0.307-0.124-0.387-0.417-0.285-0.322 0.113-0.542 0.387-0.882 0.486-0.143 0.041-0.282 0.12-0.441 0.121-0.007-0-0.014-0-0.022-0-0.087 0-0.169 0.021-0.241 0.057l0.003-0.001c-0.26 0.145-0.527 0.13-0.797 0.027-0.061-0.023-0.137-0.065-0.186-0.025-0.279 0.24-0.539-0.018-0.807-0.027-0.078 0-0.174-0.071-0.25-0.139-0.255-0.23-0.504-0.475-0.865-0.54-0.042-0.007-0.080-0.023-0.111-0.047l0.001 0c-0.435-0.364-0.985-0.57-1.373-0.998-0.061-0.075-0.146-0.128-0.242-0.15l-0.003-0.001c-0.109-0.017-0.197-0.093-0.23-0.193l-0.001-0.002c-0.065-0.215-0.208-0.268-0.391-0.245-0.113-0.156 0-0.336-0.096-0.484-0.217-0.339-0.486-0.637-0.688-0.994-0.173-0.305-0.315-0.601-0.345-0.943-0.051-0.57-0.089-1.134-0.225-1.69-0.040-0.157-0.066-0.339-0.071-0.525l-0-0.004c-0.017-0.643 0.161-1.255 0.264-1.88 0.033-0.195 0.137-0.359 0.25-0.521 0.156-0.223 0.398-0.391 0.456-0.678 0.035-0.182 0.136-0.326 0.22-0.484 0.257-0.477 0.726-0.763 1.048-1.182 0.096-0.129 0.239-0.217 0.404-0.239l0.003-0c0.13-0.020 0.274-0.059 0.305-0.228-0.065-0.094-0.141-0.171-0.253-0.184-0.101-0.012-0.22 0.016-0.23-0.153 0.173-0.201 0.561-0.279 0.425-0.677l0.022-0.044c0.26-0.074 0.536-0.126 0.794-0.208 0.164-0.052 0.313-0.147 0.495-0.138 0.027 0.001 0.058 0.002 0.090 0.002 0.292 0 0.571-0.056 0.827-0.159l-0.015 0.005 0.095-0.010c0.291-0.052 0.616-0.036 0.728-0.391 0.117 0.024 0.167 0.093 0.229 0.143 0.095 0.077 0.195 0.092 0.281-0.004 0.118-0.13 0.209-0.079 0.303 0.025 0.042 0.047 0.070 0.112 0.155 0.13 0.274-0.195 0.465-0.029 0.645 0.212 0.195-0.309-0.032-0.738 0.356-0.981 0.098 0.309-0.253 0.574-0.033 0.852 0.065 0.007 0.095-0.090 0.17-0.065 0.069 0.007 0.033 0.113 0.085 0.13 0.13-0.13-0.071-0.3 0.089-0.418 0.104 0.036 0.105 0.243 0.26 0.137 0.035 0.104-0.027 0.201 0.052 0.286 0.145-0.006 0.279-0.149 0.46-0.069-0.076 0.162-0.26 0.296-0.113 0.486 0.101 0.13 0.387 0.208 0.54 0.158-0.145-0.217-0.141-0.227 0.107-0.36 0.054-0.029 0.061-0.092 0.091-0.139 0.061-0.039 0.12-0.085 0.199-0.036 0.117 0.148-0.035 0.245-0.072 0.365-0.074 0.029-0.141-0.031-0.24-0.025 0.267 0.14 0.033 0.307 0.051 0.468 0.13 0.042 0.223 0.176 0.391 0.166l0.223-0.348c0.027-0.012 0.041-0.070 0.094-0.022l-0.048 0.141c-0.055 0.064-0.092 0.147-0.098 0.238l-0 0.001c0.219 0.134 0.326 0.372 0.516 0.529 0.078 0.057 0.141 0.131 0.181 0.218l0.001 0.003c0.109 0.309 0.384 0.456 0.604 0.656 0.010 0.009 0.013 0.028 0.018 0.037 0.003 0.079-0.105 0.111-0.079 0.184 0.048 0.056 0.122-0.027 0.155 0.050-0.109 0.266-0.109 0.266 0.101 0.408-0.101 0.175-0.078 0.348 0.018 0.516 0.027 0.005 0.057 0.008 0.089 0.008 0.083 0 0.161-0.021 0.229-0.059l-0.002 0.001c0.094 0.174-0.105 0.119-0.147 0.188-0.156 0.065-0.358 0.062-0.425 0.26 0.081 0.158 0.215 0.195 0.387 0.191-0.057 0.28 0.201 0.475 0.159 0.726-0.079 0.082-0.176-0.050-0.237 0.061-0.051 0.143 0.141 0.174 0.154 0.272-0.026 0.115-0.148 0.13-0.166 0.251 0.216 0.326 0.573 0.186 0.883 0.204-0.061 0.225-0.268 0.147-0.378 0.233 0.035 0.112 0.176 0.070 0.203 0.162 0.016 0.125-0.171 0.139-0.13 0.28 0.203 0.127 0.473 0.034 0.682 0.171-0.044 0.178-0.183 0.065-0.275 0.113l-0.123 0.303c0.119 0.141 0.333 0.151 0.421 0.331-0.117 0.228-0.111 0.432 0.111 0.601 0.066 0.060 0.107 0.146 0.107 0.241 0 0.007-0 0.014-0.001 0.020l0-0.001c0.006 0.162-0.048 0.212-0.195 0.169-0.044-0.012-0.074-0.069-0.125-0.042-0.119 0.169-0.19 0.38-0.19 0.607 0 0.094 0.012 0.185 0.035 0.271l-0.002-0.007c0.012 0.053 0.018 0.113 0.018 0.175 0 0.195-0.066 0.376-0.177 0.519l0.001-0.002c-0.091 0.141-0.186 0.309-0.272 0.483l-0.014 0.031c0.093 0.080 0.251-0.003 0.267 0.195-0.283 0.081-0.506 0.314-0.826 0.344-0.096 0.287 0.303 0.265 0.272 0.521-0.158 0.072 0.020 0.224-0.036 0.391-0.242-0.163-0.491-0.049-0.716-0.081-0.1 0.072-0.003 0.176-0.074 0.232-0.103 0.052-0.195-0.041-0.291-0.025 0.19 0.212 0.439 0.126 0.675 0.143 0.004 0.075 0.008 0.137 0.012 0.214 0.155 0.018 0.236 0.163 0.376 0.21 0.086 0.111 0.221 0.18 0.288 0.347-0.171-0.023-0.249-0.179-0.391-0.189-0.174-0.326-0.446-0.176-0.695-0.14 0.1 0.307 0.218 0.341 0.534 0.143zM12.769 17.816c0.253 0.111 0.467 0.307 0.787 0.195-0.065 0.14-0.188 0.055-0.225 0.149 0.081 0.233 0.595 0.514 0.831 0.456 0.030-0.048 0-0.094-0.004-0.141-0.022-0.187 0.074-0.331 0.201-0.443 0.137-0.122 0.228 0.036 0.338 0.089 0.344 0.166 0.683 0.35 1.090 0.18 0.047-0.021 0.102-0.033 0.16-0.033 0.098 0 0.187 0.035 0.257 0.092l-0.001-0.001c0.035 0.031 0.081 0.051 0.131 0.051 0.016 0 0.031-0.002 0.046-0.005l-0.001 0c0.054-0.079 0.104-0.189 0.232-0.206s0.169-0.106 0.191-0.218c0.018-0.088 0-0.203 0.141-0.229 0.048 0.151-0.065 0.285-0.032 0.467 0.24-0.044 0.505 0.091 0.689-0.184 0.047-0.055 0.117-0.090 0.195-0.091h0c0.1-0.014 0.145-0.069 0.19-0.16 0.135-0.268 0.465-0.283 0.658-0.481 0.186 0.070 0.249-0.039 0.285-0.195 0.020-0.075 0.054-0.14 0.099-0.196l-0.001 0.001c0.326-0.441 0.591-0.912 0.604-1.481 0.005-0.192 0.111-0.295 0.326-0.253-0.013-0.119-0.080-0.22-0.174-0.28l-0.002-0.001c-0.004-0.083 0.102-0.105 0.065-0.188-0.106-0.035-0.26 0.097-0.329-0.085 0.021-0.056 0.074-0.096 0.136-0.096h0c0.247-0.040 0.251-0.057 0.195-0.29-0.13-0.544-0.426-1.016-0.635-1.526-0.096-0.238-0.24-0.462-0.26-0.722-0.038-0.435-0.499-0.713-0.894-0.44-0.085 0.059-0.174 0.089-0.24 0-0.018-0.119 0.097-0.167 0.090-0.275-0.134-0.117-0.256-0.27-0.414-0.356-0.419-0.236-0.906-0.424-1.42-0.537l-0.035-0.006c-0.852-0.178-1.707-0.138-2.511 0.226-0.872 0.391-1.614 0.977-1.924 1.903-0.307 0.912-0.341 1.882-0.189 2.845 0.010 0.059 0.033 0.111 0.066 0.155l-0.001-0.001c0.171 0.24 0.346 0.475 0.621 0.593 0.025 0.287-0.228 0.383-0.378 0.586 0.347 0.391 0.887 0.568 1.145 1.055-0.004 0.038-0.085 0.003-0.1 0.078z"></path>
<path d="M20.326 4.546c0.396 0.013 0.792 0.026 1.172-0.117 0.195-0.012 0.354-0.141 0.547-0.156 0.003 0.017 0.010 0.032 0.018 0.045l-0-0c-0.005 0.187-0.092 0.288-0.287 0.3-0.105 0.015-0.199 0.036-0.289 0.064l0.013-0.003c-0.399 0.065-0.772 0.22-1.163 0.314-0.027 0.006-0.065 0.038-0.069 0.059-0.006 0.157-0.13 0.134-0.227 0.16-0.256-0.046-0.302 0.139-0.35 0.32l-0.005 0.005c-0.058 0.010-0.109 0.035-0.152 0.070l0.001-0c-0.188 0.106-0.365 0.188-0.604 0.096-0.256-0.101-0.552-0.159-0.861-0.159-0.11 0-0.218 0.007-0.323 0.021l0.012-0.001c-1.022 0.13-2.049 0.195-3.077 0.26-0.184 0.012-0.374-0.008-0.552 0.065h-0.146c-0.035-0.007-0.076-0.011-0.117-0.011-0.078 0-0.152 0.014-0.221 0.039l0.005-0.001c-0.326 0.092-0.668 0.121-1.005 0.16-0.32 0.037-0.645 0.050-0.957 0.145-0.267 0.085-0.531 0.15-0.811 0.077-0.022-0.007-0.047-0.011-0.073-0.011-0.051 0-0.098 0.015-0.139 0.040l0.001-0.001c-0.221 0.007-0.428-0.089-0.665-0.065 0.065-0.163 0.271-0.15 0.299-0.311 0.055-0.040 0.13-0.065 0.099-0.161-0.031-0.035-0.076-0.057-0.127-0.057-0.016 0-0.031 0.002-0.046 0.006l0.001-0c-0.079-0.050-0.126-0.107-0.048-0.195 0.061-0.033 0.092-0.076 0.051-0.145l0.045-0.1c0.079-0.016 0.184-0.027 0.175-0.13-0.021-0.227 0.13-0.26 0.293-0.304 0.15-0.040 0.307-0.096 0.341-0.274s0.172-0.253 0.32-0.326c0.382-0.195 0.8-0.188 1.209-0.229 0.456-0.047 0.918-0.083 1.377-0.124l0.053 0.022c0.010 0.030 0.019 0.023 0.026 0l0.012-0.008c0.497-0.162 1.012-0.211 1.53-0.245 0.179-0.005 0.342-0.069 0.472-0.174l-0.001 0.001c0.13-0.11 0.26-0.117 0.384 0.009 0.028 0.027 0.061 0.049 0.098 0.064l0.002 0.001c0.611 0.26 1.192 0.593 1.849 0.733 0.33 0.070 0.663 0.124 0.996 0.186l0.195 0.010c0.029 0.021 0.065 0.034 0.104 0.034 0.032 0 0.063-0.009 0.088-0.024l-0.001 0 0.447 0.025c0.023 0.045 0.052 0.040 0.083 0.003z"></path>
<path d="M15.589 30.79c0.005-0.18-0.195-0.223-0.249-0.367 0.141-0.161 0.222 0.081 0.358 0.041 0.004-0.037 0.006-0.081 0.006-0.125 0-0.138-0.020-0.271-0.058-0.397l0.002 0.010c-0.034-0.138-0.016-0.241 0.13-0.292 0.026-0.006 0.048-0.019 0.065-0.038l0-0c0.26-0.432 0.664-0.272 1.026-0.234 0.312 0.033 0.618 0.046 0.912-0.070 0.189-0.075 0.296-0.003 0.367 0.16 0.050 0.114 0.092 0.229 0.26 0.251-0.109 0.481 0.205 0.803 0.395 1.157-0.057 0.112-0.135 0.088-0.218 0.076-0.206-0.030-0.24 0-0.245 0.216-0.004 0.169 0.031 0.342-0.046 0.508-0.201 0.145-0.409 0.287-0.706 0.314-0.148-0.153-0.344-0.239-0.55-0.053-0.11-0.003-0.141-0.109-0.226-0.119l-0.139-0.073c-0.010-0.031-0.024-0.059-0.042-0.083l0.001 0.001c-0.299-0.271-0.665-0.473-1.071-0.578l-0.018-0.004c-0.044-0.033-0.095-0.059-0.098-0.114 0.017-0.094 0.137-0.093 0.143-0.188z"></path>
<path d="M22.314 13.24c0.215-0.456 0.384-0.478 0.677-0.090 0.036 0.115-0.195 0.203-0.020 0.315-0.237 0.281-0.552 0.395-0.776 0.285 0.024-0.248 0.26-0.156 0.411-0.256-0.094-0.094-0.276-0.091-0.291-0.253z"></path>
<path d="M21.459 8.674c0.023-0.034 0.061-0.055 0.105-0.055 0.019 0 0.037 0.004 0.053 0.011l-0.001-0c0.047 0.098-0.046 0.13-0.071 0.187-0.114 0.085-0.173 0.211-0.236 0.331-0.068 0.142-0.19 0.25-0.339 0.297l-0.004 0.001c-0.211-0.148-0.191-0.451-0.412-0.622 0.055-0.029 0.121-0.045 0.19-0.045s0.135 0.017 0.192 0.047l-0.002-0.001c0.236 0.097 0.392 0.066 0.525-0.149z"></path>
<path d="M22.335 15.362c-0.111-0.060-0.249-0.073-0.333-0.202 0.094-0.279 0.336-0.166 0.521-0.195 0.053 0.033 0.116 0.055 0.136 0.13-0.029 0.182-0.137 0.272-0.324 0.267z"></path>
<path d="M23.124 14.158c-0.169 0.199-0.361 0.222-0.678 0.094-0.049-0.201 0.124-0.214 0.238-0.26 0.184-0.077 0.329-0.013 0.44 0.166z"></path>
<path d="M21.379 10.394c0.113-0.073 0.207-0.070 0.26 0.069 0.343-0.091 0.391-0.068 0.358 0.162-0.146 0.126-0.364 0.145-0.467 0.356-0.121-0.186 0.195-0.253 0.025-0.432-0.059-0.012-0.204 0.016-0.176-0.154z"></path>
<path d="M22.036 10.779c0.122-0.069 0.214-0.051 0.266 0.089s-0.035 0.195-0.13 0.251c-0.061 0.033-0.133 0.053-0.209 0.057l-0.001 0c-0.050-0.048-0.125-0.076-0.12-0.165 0.033-0.103 0.148-0.137 0.195-0.232z"></path>
<path d="M21.487 11.887c0.069 0.133 0.195 0.099 0.273 0.173-0.112 0.1-0.229 0.151-0.354 0.085-0.079-0.049-0.175-0.078-0.277-0.078-0.019 0-0.037 0.001-0.056 0.003l0.002-0c0.080-0.216 0.328 0.046 0.412-0.183z"></path>
<path d="M21.28 12.697c-0.083 0.030-0.104 0.12-0.158 0.175-0.247-0.107-0.256-0.165-0.059-0.347 0.093 0 0.191-0.021 0.267 0.049 0.026 0.062-0.016 0.090-0.050 0.124z"></path>
<path d="M22.281 12.149c0.018-0.006 0.039-0.010 0.061-0.010 0.069 0 0.129 0.035 0.164 0.089l0 0.001c-0.013 0.032-0.029 0.059-0.047 0.084l0.001-0.001c-0.062 0.065-0.136 0.13-0.225 0.055-0.109-0.091 0.010-0.148 0.046-0.217z"></path>
<path d="M22.124 11.829c-0.037-0.030-0.089-0.046-0.095-0.115 0.036-0.079 0.098-0.152 0.195-0.089 0.090 0.056 0.024 0.126-0.021 0.185z"></path>
<path d="M21.249 9.447l-0.102 0.245c-0.048 0-0.083 0.053-0.154 0.021 0.032-0.129 0.129-0.23 0.253-0.266l0.003-0.001z"></path>
<path d="M19.935 9.203c-0.081 0.022-0.104 0.144-0.229 0.122 0.033-0.126 0.089-0.213 0.229-0.218z"></path>
<path d="M20.137 9.453c-0.038-0.079 0.025-0.133 0.048-0.195 0.048-0.021 0.106-0.037 0.087 0.043-0.011 0.074-0.064 0.133-0.133 0.152l-0.001 0z"></path>
<path d="M21.941 11.901l0.056-0.016c0.058 0.083 0.045 0.13-0.057 0.138-0.040-0.050 0.003-0.085 0.001-0.122z"></path>
<path d="M14.068 3.926c-0.007 0.025-0.016 0.031-0.026 0 0.004-0.003 0.008-0.005 0.013-0.005s0.009 0.002 0.013 0.005l-0-0z"></path>
<path d="M22.064 4.317c-0.009-0.013-0.015-0.027-0.018-0.043l-0-0.001c0.010 0.008 0.020 0.017 0.029 0.026l0 0s-0.006 0.012-0.010 0.018z"></path>
<path d="M12.136 2.214c-0.115-0.265-0.292-0.504-0.32-0.805-0.008-0.078-0.014-0.148 0.036-0.206 0.107-0.13 0.097-0.251-0.025-0.373 0.112-0.114 0.195-0.258 0.235-0.419l0.001-0.006c0.033-0.183 0.183-0.323 0.368-0.342l0.002-0c0.191-0.033 0.416-0.055 0.644-0.061l0.006-0c0.609 0.004 1.216 0.071 1.823 0.012 0.012-0.001 0.027-0.001 0.041-0.001 0.132 0 0.258 0.024 0.375 0.068l-0.007-0.002c0.38 0.118 0.77 0.118 1.16 0.118 0.182 0.13 0.358 0.276 0.57 0.359 0.107 0.041 0.2 0.107 0.158 0.231-0.047 0.137-0.070 0.346-0.247 0.348-0.275 0-0.391 0.195-0.537 0.356-0.056 0.018-0.097 0.070-0.097 0.132 0 0.003 0 0.005 0 0.008l-0-0c-0.087 0.080-0.143 0.207-0.29 0.199-0.114-0.099-0.251-0.102-0.391-0.093-0.811 0.053-1.613 0.157-2.398 0.378-0.243 0.074-0.523 0.117-0.813 0.117-0.104 0-0.207-0.005-0.308-0.016l0.013 0.001z"></path>
<path d="M18.77 21.163l-0.009-0.006 0.006 0.009 0.003-0.003z"></path>
<path d="M18.822 21.215l-0.052-0.051v0.003l0.052 0.051z"></path>
<path d="M10.644 23.828c0.065-0.104 0.13-0.212 0.203-0.326-0.115-0.097-0.275-0.060-0.4-0.113 0-0.168 0.144-0.189 0.272-0.26-0.18-0.102-0.171-0.223-0.079-0.341-0.060-0.087-0.178-0.088-0.203-0.21 0.102-0.195 0.304-0.109 0.47-0.14 0.070-0.049-0.046-0.121 0.016-0.152 0.947-0.225 1.872 0.009 2.8 0.125 1.007 0.125 2.014 0.243 3.032 0.277 0.912 0.031 1.816 0.126 2.724 0.195 0.206 0.016 0.27 0.106 0.212 0.309-0.037 0.13-0.012 0.257-0.006 0.408-0.244 0.008-0.432 0.124-0.594 0.293-0.070 0.072-0.173 0.088-0.267 0.111-0.065 0.016-0.146 0.016-0.176 0.072-0.12 0.218-0.319 0.183-0.513 0.18-0.252-0.005-0.504 0-0.756-0.006-0.012-0-0.027-0.001-0.042-0.001-0.275 0-0.533 0.075-0.754 0.206l0.007-0.004c-0.069 0.048-0.154 0.077-0.246 0.077-0.071 0-0.137-0.017-0.196-0.047l0.002 0.001c-0.13-0.069-0.28-0.083-0.423-0.115-0.152-0.034-0.256 0.012-0.38 0.134-0.188 0.184-0.391 0.373-0.725 0.278-0.187-0.053-0.4-0.025-0.6-0.065-0.007-0.001-0.015-0.002-0.023-0.002-0.026 0-0.050 0.007-0.070 0.019l0.001-0c-0.441 0.271-0.864 0.219-1.354 0.065-0.375-0.117-0.645-0.443-1.052-0.464-0.051-0.005-0.092-0.043-0.101-0.092l-0-0.001c-0.049-0.176-0.195-0.204-0.329-0.169-0.23 0.059-0.351-0.047-0.448-0.242z"></path>
<path d="M13.862 26.475c0.135-0.087 0.231-0.191 0.232-0.346 0.088-0.074 0.18-0.036 0.266-0.035 0.146 0 0.297 0.025 0.369-0.156 0.023-0.058 0.085-0.065 0.143-0.078 0.141-0.024 0.265-0.087 0.364-0.176l-0.001 0.001c0.118-0.104 0.283-0.101 0.438-0.073 0.039 0.007 0.088 0.050 0.111 0.037 0.238-0.13 0.408 0.027 0.616 0.103 0.303 0.11 0.641 0.052 0.966 0.027 0.205 0.086 0.319 0.279 0.472 0.427 0.149 0.139 0.321 0.256 0.509 0.346l0.012 0.005c0.288 0.146 0.499 0.408 0.712 0.651 0.022 0.024 0.035 0.056 0.035 0.091 0 0.008-0.001 0.015-0.002 0.022l0-0.001c-0.115 0.232 0.052 0.352 0.195 0.466 0.173 0.141 0.195 0.318 0.13 0.503s-0.247 0.195-0.41 0.203c-0.002 0-0.004 0-0.007 0-0.179 0-0.351-0.030-0.511-0.085l0.011 0.003c-0.43-0.126-0.929-0.213-1.443-0.243l-0.018-0.001c-0.101-0.012-0.19-0.028-0.276-0.049l0.016 0.003c-0.201-0.042-0.401-0.072-0.596 0.025-0.432 0.216-0.878 0.075-1.318 0.045-0.28-0.029-0.526-0.070-0.767-0.123l0.045 0.008c-0.265-0.047-0.413-0.208-0.426-0.475-0.009-0.191-0.099-0.377-0.021-0.575 0.035-0.087 0.020-0.195 0.112-0.26 0.102-0.072 0.016-0.18 0.040-0.29z"></path>
<path d="M18.384 21.921c0.065 0.016 0.072 0.074 0.112 0.111-0.065 0.051-0.079 0-0.098-0.029s-0.044-0.049-0.014-0.082z"></path>
<path d="M18.267 21.816c-0.035-0.014-0.065-0.030-0.049-0.078 0.052-0.014 0.060 0.023 0.070 0.058z"></path>
<path d="M18.287 21.796c0.008 0.010 0.026 0.025 0.024 0.028-0.019 0.028-0.031 0.008-0.044-0.008z"></path>
<path d="M14.844 7.062c-0.017-0.014-0.027-0.036-0.027-0.059 0-0.019 0.007-0.036 0.018-0.050l-0 0c0.057 0.051 0.057 0.051 0.010 0.109z"></path>
<path d="M21.734 14.621c-0.007 0.043-0.043 0.075-0.087 0.075-0.003 0-0.006-0-0.009-0l0 0c-0.002 0-0.004 0-0.006 0-0.043 0-0.078-0.035-0.078-0.078 0-0.007 0.001-0.013 0.003-0.020l-0 0.001c0.007-0.043 0.044-0.076 0.088-0.076 0.007 0 0.014 0.001 0.020 0.002l-0.001-0c0.042 0.006 0.074 0.032 0.068 0.096z"></path>
<path d="M19.58 15.021c-0.070 0.253-0.115 0.275-0.377 0.209 0.069-0.161 0.194-0.206 0.377-0.209z"></path>
<path d="M16.496 17.864c0.066 0.003 0.119 0.056 0.121 0.123v0c0.001 0.005 0.002 0.011 0.002 0.017 0 0.049-0.040 0.089-0.089 0.089-0.005 0-0.010-0-0.015-0.001l0.001 0c-0.001 0-0.003 0-0.004 0-0.067 0-0.122-0.054-0.122-0.121v-0c-0.003-0.064 0.036-0.104 0.107-0.107z"></path>
<path d="M19.165 13.981c-0.158-0.113-0.13-0.195 0.040-0.257 0.176 0.115 0.053 0.184-0.040 0.257z"></path>
<path d="M19.57 13.884c0 0.002 0 0.005 0 0.007 0 0.039-0.028 0.072-0.065 0.079l-0 0c-0.008 0.003-0.017 0.005-0.026 0.005-0.033 0-0.060-0.025-0.065-0.056l-0-0c-0.008-0.051 0.008-0.098 0.069-0.103 0 0 0.001 0 0.002 0 0.041 0 0.076 0.029 0.085 0.067l0 0.001z"></path>
<path d="M16.756 11.907c0.004-0.001 0.009-0.001 0.014-0.001 0.064 0 0.116 0.052 0.116 0.116 0 0 0 0 0 0v0c0.009 0.121-0.079 0.171-0.182 0.189-0.076 0.013-0.121-0.038-0.13-0.11s0.096-0.19 0.182-0.194z"></path>
<path d="M18.449 13.518c-0.049-0.124 0.034-0.181 0.112-0.247 0.11 0.020 0.189 0.081 0.143 0.195-0.052 0.122-0.157 0.117-0.255 0.051z"></path>
<path d="M16.812 12.9c0.117-0.073 0.203-0.096 0.27 0.018 0.014 0.018 0.023 0.040 0.023 0.065 0 0.045-0.029 0.084-0.070 0.098l-0.001 0c-0.143 0.048-0.173-0.064-0.222-0.181z"></path>
<path d="M16.293 12.535c-0.044-0.156 0-0.212 0.115-0.23 0.121 0.152 0.023 0.185-0.115 0.23z"></path>
<path d="M16.902 12.697c-0.036 0-0.065-0.029-0.065-0.065v0c-0-0.002-0.001-0.004-0.001-0.007 0-0.022 0.018-0.040 0.040-0.040 0.001 0 0.002 0 0.003 0h-0c0.001-0 0.003-0 0.005-0 0.030 0 0.054 0.024 0.054 0.054 0 0.001-0 0.002-0 0.004v-0c0.001 0.020-0.023 0.037-0.035 0.054z"></path>
</svg>
