<!-- Generated by IcoMoon.io -->
<svg version="1.1" xmlns="http://www.w3.org/2000/svg" width="32" height="32" viewBox="0 0 32 32">
<title>fallen_kings</title>
<path d="M26.674 0h-21.347l-0.979 4.651 2.252-3.036h3.154v25.978c0 2.864 4.26 4.407 4.26 4.407-2.497-2.497-2.497-4.039-2.497-4.039v-20.948c0.487 2.059 2.31 3.567 4.484 3.567s3.997-1.508 4.478-3.536l0.006-0.031v20.948s0 1.542-2.497 4.039c0 0 4.26-1.542 4.26-4.407v-25.978h3.153l2.252 3.036zM11.516 4.933v-3.318h3c-1.499 0.523-2.627 1.757-2.994 3.286l-0.006 0.031zM16 8.911c-1.622 0-2.938-1.315-2.938-2.938s1.315-2.938 2.938-2.938c1.622 0 2.938 1.315 2.938 2.938v0c0 1.622-1.315 2.938-2.938 2.938v0zM17.485 1.616h2.999v3.317c-0.373-1.561-1.501-2.794-2.967-3.307l-0.032-0.010z"></path>
</svg>
