<!-- Generated by IcoMoon.io -->
<svg version="1.1" xmlns="http://www.w3.org/2000/svg" width="32" height="32" viewBox="0 0 32 32">
<title>fallen_spider</title>
<path d="M17.979 26.906c-0.022 0.105-0.046 0.208-0.072 0.329l0.152 0.283-0.077 0.071-0.707-0.627c-0.227 0.605-0.227 0.605 0.329 1.916-0.159-0.068-0.3-0.083-0.343-0.156-0.203-0.338-0.418-0.655-0.777-0.848l-0.29 0.085c-0.237-0.334-0.479-0.673-0.734-1.032l-1.010 0.516c0.034 0.212 0.064 0.393 0.106 0.655l-0.57 0.181c-0.229-0.701-0.352-1.398-0.876-1.963-0.466-0.131-0.765-0.5-0.969-0.988-0.181-0.434-0.58-0.685-0.959-1.082v4.594c-1.64 1.102-3.335 2.129-5.081 3.129 0.047-0.081 0.095-0.151 0.148-0.217l-0.002 0.003c0.684-0.73 1.385-1.441 2.053-2.189 0.302-0.339 0.582-0.712 0.83-1.108l0.020-0.035c0.194-0.293 0.309-0.652 0.309-1.038 0-0.026-0.001-0.051-0.002-0.076l0 0.004c-0.010-0.217-0.077-0.476 0.013-0.647 0.359-0.688 0.1-1.392 0.131-2.088 0.020-0.517 0.081-1.034 0.119-1.551 0.009-0.131 0-0.254 0-0.393-0.208 0.071-1.5 1.011-1.728 1.185-0.567 0.431-1.157 0.834-1.73 1.258s-1.138 0.855-1.724 1.297c-0.349-0.399-0.604-0.89-0.724-1.431l-0.004-0.022 4.921-3.799 0.206-0.621 0.9 0.042c-0.012-0.62 0.094-1.255-0.075-1.935 0.043-0.131 0.101-0.318 0.164-0.513-0.034-0.175-0.071-0.363-0.105-0.54l-0.227-0.175c-0.045-0.524-0.093-1.048-0.131-1.572s-0.432-0.985-0.38-1.546c0.923 0 2.012 1.37 2.138 2.635l1.103-1.345-0.059-0.246 0.080-0.063c0.021-0.347 0.038-0.637 0.056-0.926h0.054l-0.147-1.065c-0.426 0.452-0.524 1.064-0.274 1.516l-0.461 0.593c-0.262 0-0.313-0.262-0.367-0.439s0.007-0.409 0.021-0.675l-5.3-4.113c0.19-0.371 0.362-0.705 0.562-1.098 0.511 0.335 0.985 0.623 1.433 0.948s0.879 0.702 1.328 1.048c0.131 0.1 0.326 0.12 0.456 0.223 0.524 0.413 1.027 0.844 1.58 1.301 0.232-0.131 0.157-0.423 0.113-0.644-0.047-0.244-0.21-0.465-0.346-0.745l0.314-0.177v-1.632c0.025-0.331 0.052-0.673 0.083-1.073 0.612-1.056 1.267-2.149 1.861-3.277 0.212-0.378 0.339-0.828 0.347-1.308l0-0.002c0-0.538 0.169-1.092 0.088-1.611-0.056-0.465-0.089-1.004-0.090-1.551v-0.002c0.005-0.075 0.013-0.145 0.027-0.213l-0.002 0.010 0.254-0.297c0.423 0.123 0.428 0.393 0.361 0.613-0.149 0.496-0.109 0.969 0 1.467 0.072 0.334 0.026 0.697 0.016 1.048-0.030 0.976-0.069 1.95-0.1 2.777l-1.179 2.292 0.393 0.17-0.249 0.244c0.064 0.020 0.131 0.066 0.165 0.047 0.142-0.083 0.264-0.165 0.379-0.256l-0.007 0.005c0.407-0.309 0.923-0.494 1.481-0.494 0.044 0 0.087 0.001 0.131 0.003l-0.006-0v1.592l-0.417 0.131c-0.030 0.077-0.076 0.195-0.131 0.343-0.489 0.233-0.803 0.672-1.104 1.163v0.946l-0.204 0.262c-0.062 0.513 0.51 0.655 0.627 1.136l0.917-1.263 0.189 0.113-0.83 1.666c0.327 0.14 0.667 0.305 1.020 0.431 0.772 0.274 1.386 0.016 2.007-0.49 0.393-0.316 0.532-0.778 0.892-1.087 0.066-0.056 0.055-0.203 0.094-0.369-0.053-0.038-0.095-0.088-0.121-0.147l-0.001-0.002c-0.014-0.044-0.022-0.094-0.022-0.146 0-0.062 0.011-0.122 0.032-0.177l-0.001 0.003c0.262-0.553-0.031-0.969-0.343-1.364-0.225-0.262-0.452-0.5-0.691-0.725l-0.005-0.004-0.622-0.177c-0.393-1.242 0.050-2.439-0.048-3.645 0.169 0.164 0.181 0.381 0.327 0.561 0.208 0.275 0.334 0.623 0.334 1 0 0.092-0.007 0.182-0.022 0.27l0.001-0.010c1.056 0.347 1.834 1.034 2.414 2.007 0.060-0.169 0.113-0.316 0.185-0.524-0.172-0.367-0.363-0.771-0.524-1.128l-0.638-0.587c-0.166-0.457-0.262-0.786-0.403-1.092-0.166-0.363-0.173-0.745-0.165-1.12 0.008-0.325-0.022-0.638-0.046-0.957-0.017-0.276-0.027-0.599-0.027-0.925 0-0.475 0.021-0.945 0.061-1.41l-0.004 0.060c0.045-0.63 0.093-1.251-0.048-1.91l0.301-0.375 0.32 0.224v1.098l0.458 0.223v1.789l-0.274 0.203c-0.199 0.483 0.36 0.82 0.221 1.278l0.384 0.438c-0.060 0.487 0.225 0.889 0.448 1.31 0.275 0.513 0.612 0.998 0.867 1.521 0.131 0.262 0.131 0.582 0.216 1.009l0.214 0.183c-0.058 0.271-0.11 0.614-0.145 0.962l-0.003 0.042c0.003 0.348 0.029 0.687 0.077 1.019l-0.005-0.041-0.232 0.335c0.050 0.295 0.105 0.631 0.166 0.994l2.799-2.079 0.113-0.487c0.655 0.076 0.829-0.605 1.4-0.816l-0.355-0.317c0.084-0.232 0.293-0.185 0.575-0.199l0.406 0.496q0.085 0.5 0.191 1.138c-0.339 0.262-0.676 0.487-0.984 0.753s-0.549 0.54-0.888 0.878l-0.283 0.041-0.796 0.868-0.5 0.327c-0.077 0.223-0.119 0.343-0.174 0.499l-0.16-0.229c-0.417 0.249-0.829 0.51-1.258 0.743-0.151 0.068-0.328 0.126-0.512 0.166l-0.018 0.003-0.455-0.917-0.080 0.306c-0.499 0.033-0.626 0.49-0.917 0.875l0.667 0.557c0.009 0.189 0.020 0.405 0.033 0.698l0.633 0.516 0.341 0.85c0.062-0.11 0.122-0.24 0.171-0.375l0.006-0.018c0.198-0.807 0.434-1.595 1.127-2.139 0.2-0.157 0.421-0.288 0.644-0.44l0.326 0.244c0 0.093 0.022 0.169 0 0.22-0.372 0.718-0.502 1.512-0.731 2.274-0.021 0.074-0.033 0.158-0.033 0.245 0 0.006 0 0.012 0 0.017v-0.001c0 1.088 0 2.178 0 3.285l0.4-0.081 0.445 0.375 0.422 0.069c0.042 0.043 0.069 0.058 0.071 0.075 0.056 0.508 0.524 0.655 0.833 0.941 0.369 0.333 0.764 0.638 1.166 0.969 0.181 0.449 0.181 0.449 1.31 1.327l0.123-0.166c0.365 0.301 0.732 0.6 1.094 0.897 0.105 0.605-0.179 1.018-0.566 1.416l-5.108-4.041c-0.123 0.367-0.048 0.642 0.193 0.851 0.041 0.655-0.295 1.272 0 1.922-0.322 0.369-0.262 0.775-0.1 1.205 0.068 0.174 0.107 0.375 0.107 0.585 0 0.015-0 0.031-0.001 0.046l0-0.002c-0.001 0.034-0.002 0.073-0.002 0.113 0 0.803 0.32 1.532 0.839 2.066l-0.001-0.001c0.876 0.937 1.747 1.878 2.662 2.863-0.131-0.009-0.262 0.021-0.334-0.028-0.972-0.606-1.937-1.225-2.903-1.842-0.601-0.384-1.2-0.773-1.796-1.158-0.262-0.453-0.216-0.944-0.221-1.425 0-0.8 0-1.599 0-2.388-0.272-0.202-0.318 0.139-0.491 0.182l-0.175-0.072c-0.777 0.53-0.925 0.676-1.2 1.193l1.103 0.917-0.12 0.128-1.553-0.732c-0.021-0.028-0.041-0.054 0 0-0.059-0.031-0.028-0.014 0 0-0.123 0.248-0.348 0.096-0.524 0.131l-0.092-0.056zM11.584 20.678c0.038 0.193 0.072 0.382 0.113 0.571 0.262 1.197 0.737 2.269 1.823 2.949 0.546 0.37 1.197 0.629 1.9 0.728l0.024 0.003c1.572 0.173 3.537-0.848 4.116-2.381 0.181-0.481 0.355-0.963 0.541-1.468l-0.554-0.8v-0.693c-0.305-1.214-1.34-1.87-2.076-2.723l-0.845-0.161c-0.014 0.080-0.028 0.152-0.052 0.292-0.902-0.31-1.806-0.081-2.714 0-1.157 0.804-1.157 0.804-1.323 1.492l-0.233 0.081c-0.494 0.662-0.55 1.409-0.719 2.111zM18.702 1.926l-0.021 0.033h0.034zM15.943 16.518l0.022-0.031h-0.035zM14.502 27.128l0.021-0.033h-0.033z"></path>
</svg>
