<!-- Generated by IcoMoon.io -->
<svg version="1.1" xmlns="http://www.w3.org/2000/svg" width="44" height="32" viewBox="0 0 44 32">
<title>fist_of_havoc</title>
<path d="M17.024 8.096l0.48 0.672 1.216 0.864-1.824-4.512-0.192-2.56 2.4 6.72-0.032-4.8 0.672 0.608 0.576-8.16 1.344 22.432 0.064 4.128q0 1.92-0.64 2.144-0.288 0.096-0.576-0.144t-0.448-0.528l-0.16-0.256q0.384 1.728-0.224 1.92-0.256 0.096-0.784-0.048t-0.912-0.336l-0.384-0.16v0.032q1.472 3.232 4.416 3.232 3.168 0 4.608-3.232v-0.032q-0.192 0.096-0.496 0.208t-0.912 0.272-0.864 0.064-0.304-0.576 0.016-0.896l0.096-0.448q-0.064 0.128-0.176 0.304t-0.432 0.448-0.608 0.176q-0.608-0.224-0.608-2.144l0.064-4.128 1.28-22.432 0.608 8.16 0.704-0.608-0.064 4.8 2.4-6.688-0.192 2.528-1.824 4.512 1.216-0.864 0.48-0.64 2.432-0.96-6.144 8.864-0.256 1.024 2.208-1.856q-0.704 1.952-0.832 2.624-0.16 0.512-0.064 1.616t0.512 1.392q0.288 0.192 0.736-0.096t0.768-0.64l0.288-0.384q-0.224 1.28-0.608 1.856-0.608 1.024-0.128 2t1.568 1.072q0.672 0.096 1.664-0.576t1.632-1.408l0.672-0.704q-0.288 1.216-0.992 2.56t-1.824 2.72-2.864 2.272-3.76 0.896-3.76-0.896-2.864-2.272-1.824-2.72-0.992-2.56q0.288 0.32 0.736 0.8t1.52 1.232 1.744 0.656q1.056-0.096 1.552-1.072t-0.144-2q-0.192-0.288-0.304-0.64t-0.208-0.768-0.096-0.448q0.128 0.16 0.336 0.416t0.688 0.576 0.768 0.128q0.512-0.32 0.624-1.408t-0.080-1.6l-0.832-2.624 2.208 1.856-0.288-1.024-6.176-8.896zM24.16 16.416l9.216-12-0.256 0.48 0.352-0.48-4.64 8.352 2.624-0.704-4.8 3.392zM10.56 4.384l0.352 0.448-0.256-0.448 9.28 12.032-2.496-0.96-4.8-3.424 2.624 0.704zM22.016 3.168l-0.672 1.28 0.672-10.56 0.672 10.56zM28.192 30.496l5.92-6.048-3.136 1.504 3.84-6.752-2.144 5.28 9.216-7.328-7.232 8.224zM15.84 30.496l-5.92-6.048 3.168 1.504-3.84-6.752 2.144 5.28-9.216-7.328 7.2 8.224z"></path>
</svg>
