<!-- Generated by IcoMoon.io -->
<svg version="1.1" xmlns="http://www.w3.org/2000/svg" width="32" height="32" viewBox="0 0 32 32">
<title>golden_gun</title>
<path d="M30.995 7.273q1.133 1.35 0.988 3.182-0.145 1.784-1.53 2.953t-3.194 1.024v-0.024q-0.603-0.024-1.205-0.265l3.543-1.157q0.771-0.313 0.651-1.109-0.024-0.265-0.12-0.675-0.024-0.145-0.12-0.603-0.096-0.217-0.241-0.699l-0.096-0.265q-0.048-0.096-0.145-0.337-0.024-0.024-0.048-0.096t-0.024-0.096q0.169-0.289 0.096-0.627l-0.362-1.253q-0.048-0.145-0.096-0.217l-0.096-0.145q-0.289-0.458-0.844-0.337-0.12-0.289-0.398-0.434t-0.566-0.048l-0.578 0.169q-0.265 0.072-0.627 0.193-0.482 0.12-0.651 0.627 0 0.024-0.072 0.048l-0.096 0.048q-0.241 0.096-0.337 0.145-0.241 0.12-0.362 0.265l-8.484 2.29q-0.627 0.145-0.94 0.241l-0.506 0.145-0.578 0.145q-0.868 0.169-1.663-0.048-0.603-0.145-1.181 0l-0.072 0.024q-0.217 0.096-0.603 0.169l-0.072 0.024q-0.048 0-0.157 0.048t-0.157 0.048q-0.193-0.048-0.265-0.048-0.313-0.41-0.844-0.241l-0.699 0.193q-0.024-0.024-0.048-0.024-2.651-1.205-4.097-2.025-0.169-0.096-0.398-0.229t-0.374-0.205q-1.133-0.675-2.121-1.422l-1.205-0.94 1.494 0.506q2.483 0.892 8.966 2 0.578 0.096 2.29 0.325t2.748 0.47q-1.326-0.699-3.495-1.687-2.217-1.012-3.374-1.591l-1.615-0.819 1.832 0.362q1.253 0.265 4.218 0.771 5.399 0.94 7.737 1.591-1.808-1.085-5.785-2.892l-1.591-0.699q0.241 0.024 0.687 0.084t0.639 0.084l0.458 0.096q6.941 1.229 9.858 2.266 0.024-0.024 0.060-0.048t0.060-0.024q-1.591-1.181-4.314-2.507l-1.759-0.868 1.976 0.41q0.289 0.048 0.386 0.096 0.265 0.048 0.711 0.145t0.566 0.12q3.181 0.747 5.399 1.663l0.651 0.337q1.326 0.337 2.193 1.398zM5.375 12.045q-0.024-0.024-0.048-0.024t-0.048-0.024q-0.265-0.145-0.795-0.47t-0.94-0.591-0.386-0.289q0.072 0 0.458 0.060t0.578 0.084q0.578 0.024 1.723 0.096t1.723 0.096q-0.169 0.048-0.494 0.157t-0.494 0.157l-0.554 0.169-0.072 0.024q-0.386 0.12-0.53 0.458-0.072 0.072-0.12 0.096zM23.885 15.973q2.555 2.217 6.315 1.253-0.988 2.531-3.712 5.568 0.145-1.928 0.241-2.772-0.41 0.53-1.47 1.687t-1.109 1.205l0.229-0.458t0.446-0.928 0.386-0.88q0.241-0.554 0.072-0.554l-0.241 0.072q-0.072 0.024-1.326 0.651t-2.446 1.229-1.217 0.603q2.603-2.169 3.254-2.82-1.711 0.675-4.121 1.253-0.554 0.12-1.591 0.349t-1.47 0.325q-0.337 0.072-1.036 0.072 5.495-4.121 6.242-4.893zM15.546 18.986q-0.072 0.024-0.217 0.024-0.916 0.048-1.326 0.217-0.241 0.096-0.313 0.193-0.096 0.096-0.145 0.12-0.217 0.096-0.482 0.169-0.048 0.024-0.169-0.024-0.024 0-0.108-0.048t-0.108-0.048q-0.241 0.096-0.337 0.193-0.458 0.362-1.374 1.133-0.289 0.241-0.675 0.458-0.289 0.145-0.675 0.313-0.506 0.217-0.844 0.265-0.651 0.12-1.374-0.145-0.289-0.096-0.458 0.072-0.362 0.41-0.434 0.675-0.265 1.229-0.217 1.976 0.048 0.458 0.145 0.892 0.024 0.072 0.289 0.964 0.048 0.12 0.145 0.325t0.096 0.229q0.096 0.241 0.096 0.337-0.072 0.386-0.41 0.41l-0.313 0.12-3.519 1.012-0.145 0.024q-0.145 0.024-0.217 0.048-0.145 0.024-0.217-0.072-0.048-0.096-0.217-0.265l-0.024-0.024q0.024-0.024 0.024-0.048l-0.072-2.314q0-0.892 0.024-1.35 0-1.133 0.121-1.687 0.024-0.145 0.084-0.554t0.108-0.627q0.072-0.265 0.241-0.807t0.241-0.807q0.313-0.964 0.217-1.422-0.145-0.819-0.241-1.229-0.048-0.169-0.024-0.241t0.193-0.145q0.024-0.024 0.084-0.072t0.096-0.060 0.096 0 0.108 0.060q0.072-0.072 0.422-0.386t0.542-0.458q0.386-0.313 0.193-0.795-0.193-0.41-0.554-0.386-0.12 0.024-0.313 0.072-0.12 0.048-0.193-0.072 0-0.024-0.072-0.096l0.072-0.072q0.554-0.289 1.109-0.048 0.337 0.193 0.651-0.048 0.096-0.096 0.048-0.217 0-0.096-0.024-0.181t-0.048-0.181-0.024-0.12q0.145-0.096 0.193-0.145 0.096-0.145 0.301-0.446t0.301-0.446q0.024-0.048 0.181-0.169t0.181-0.265q0.048-0.024 0.096-0.024 1.35-0.434 1.639-0.53 0.337-0.12 0.458-0.386l0.723-0.217q0.024 0.024 0.072 0.096 0.217 0.217 0.41 0.193 0.217 0 0.265 0.072 0.048 0 0.072-0.024l0.578-0.145q0.241-0.048 0.723-0.193 0.386-0.145 0.771-0.024 0.964 0.265 2.049 0.048 0.169-0.024 0.482-0.108t0.41-0.108q0.554-0.169 1.398-0.386 0.482-0.145 1.446-0.386 0.482-0.145 1.398-0.386 1.061-0.289 1.567-0.434 0.53-0.12 1.277-0.337 0.362-0.096 1.494-0.41 0.217-0.048 0.663-0.157t0.663-0.181l0.048-0.048q-0.024-0.12 0.169-0.193 0.12-0.072 0.362-0.169 0.41-0.169 0.53-0.506 0.072-0.145 0.12-0.145 0.386-0.12 1.205-0.362 0.048 0.265 0.096 0.362 0.024 0.048 0.072 0.157t0.072 0.157l0.651-0.169q0.024 0.024 0.048 0.072l0.048 0.048 0.362 1.253-0.096 0.048t-0.096 0.024q-0.145 0.072-0.072 0.193l0.289 0.651q0.096 0.241 0.12 0.362 0.12 0.289 0.313 0.868 0.024 0.096 0.060 0.265t0.060 0.241q0.048 0.217 0.096 0.651 0.024 0.169-0.145 0.217-0.169 0.072-0.506 0.169-0.12 0.048-0.699 0.241-0.241 0.072-0.711 0.229t-0.711 0.229l-0.699 0.217q-0.241 0.072-0.711 0.229t-0.711 0.253q-0.12 0.024-0.349 0.096t-0.349 0.12q-0.241 0.072-0.711 0.229t-0.711 0.229q-0.12 0.024-0.349 0.12t-0.349 0.12q-0.241 0.072-0.723 0.229t-0.723 0.229q-0.434 0.145-0.675 0.217t-0.735 0.229-0.735 0.253q-0.53 0.169-0.747 0.458-0.169 0.241-0.193 0.313-0.024 0.096 0.024 0.386 0.024 0.169 0.108 0.482t0.108 0.362q0.048 0.145-0.096 0.145-0.096 0.024-0.289 0.060t-0.289 0.060q-0.265 0.048-0.362 0.12-0.145 0.096-0.434 0.157t-0.362 0.084zM9.328 21.3l0.048-0.048q-0.145-0.072-0.217-0.096-0.024-0.024-0.096-0.048t-0.096-0.048q-0.193-0.217-0.41-0.53l-0.108-0.217t-0.157-0.241l-0.458-0.386q-0.169 0.096-0.169 0.12-0.024 0.072-0.12 0.217t-0.096 0.217 0.048 0.265l-0.024 0.024v0.024q0.169 0.506 0.289 0.603 0.241 0.145 0.362 0.193 0.482 0.217 1.205-0.048zM10.966 20.119q0.337-0.53 0.12-0.988-0.048-0.145-0.229-0.253t-0.325-0.084q-0.217 0.048-0.615 0.133t-0.566 0.133q-0.072 0.024-0.169 0.024 0 0.048-0.012 0.169t-0.036 0.169q-0.145 0.482-0.145 0.53-0.072 0.482 0.241 0.771 0.072 0.048 0.193 0.169t0.193 0.169q-0.072 0.072-0.12 0.145 0.048 0 0.072-0.024 0.024 0 0.12-0.048 0.819-0.386 1.277-1.012zM14.558 13.539l0.072-0.024-0.313-1.133 1.663 0.771 0.048-0.024-0.313-1.133 1.663 0.771 0.072-0.024-0.313-1.085h0.096l1.543 0.723 0.072-0.024-0.289-1.036 0.048-0.024h0.048l1.518 0.699h0.072l-0.313-1.133 1.639 0.771 0.072-0.024-0.289-1.060q0.024-0.024 0.072-0.024l1.543 0.723 0.072-0.024-0.289-1.133 1.615 0.771 0.096-0.024-0.289-1.036q0.024-0.024 0.096-0.024l1.494 0.699 0.096-0.024-0.289-1.036q0.024-0.024 0.096-0.024l1.494 0.699 0.096-0.024-0.313-1.109 1.229 0.578-0.819-1.446-1.88 0.578-0.53 0.458q-0.386 0.12-0.675 0.193l-1.928 0.53q-0.12 0-0.265 0.048-0.048 0.024-0.181 0.060t-0.205 0.060l-1.109 0.289q-0.048 0-0.072 0.024h-0.048l-1.639 0.458-6.917 1.832-0.747-0.169-1.012 0.289-0.337-0.265-3.133 1.012-0.892 0.747 0.12 0.434 1.663 0.771 0.048-0.024-0.313-1.133 1.663 0.771 0.048-0.024-0.313-1.133 1.663 0.771h0.072l-0.313-1.157 1.639 0.771h0.072l-0.313-1.157 1.639 0.795 0.072-0.024-0.313-1.133z"></path>
</svg>
