<!-- Generated by IcoMoon.io -->
<svg version="1.1" xmlns="http://www.w3.org/2000/svg" width="84" height="32" viewBox="0 0 84 32">
<title>grenade_launcher</title>
<path d="M79.040 7.040h0.736v3.776h-0.576l-0.448 0.736h-8.032l0.352 0.352v1.28l-0.288 0.32h-1.728l-0.928 0.288-0.768 0.672-0.768 1.44-3.488 7.776-0.672 0.832-0.928 0.576-1.056 0.352-1.664 0.16h-29.376l-2.048-0.352-19.424-5.344-0.48-0.512-0.384 0.864-0.448 0.256-1.152 0.128-0.768 0.032-0.224-0.32-0.224-0.8 0.128-3.328 0.128-3.648-0.256-4.16-0.128-2.144 0.128-1.216 0.448-0.672 0.48-0.192h1.824l0.416 0.416 0.16 0.608 1.28-0.864 16.928-0.576 1.344-0.48 0.48-0.672h1.088v0.672h1.152l0.672-1.184 0.416-0.32h3.968l0.256 0.192 1.184 0.992h4.544l0.928 0.928h4.96v-0.928h1.12v1.12h6.752l0.544 0.544h20.288v-0.48h2.336l1.536 1.44v1.12zM27.616 15.584l0.192-1.088-0.192-0.8-0.448-0.544-0.384-0.224-2.24-0.256-1.056 0.128-0.576 0.128-0.352 0.448-0.192 1.12 0.224 0.928 0.64 0.768 1.12 0.48h1.472l1.056-0.288zM53.152 8.032v-0.352h-16.032v0.352h15.328v13.504h-15.328v-7.712l0.192-0.416h-2.208l-0.352 0.448-0.16 0.736 0.128 0.736 0.192 0.64 0.352 0.544-0.224 0.288-0.448-0.384-0.576-0.928-0.416-1.408-0.064-0.576-0.352 0.416-0.256 0.576-0.128 0.608v0.448l0.224 0.32 0.256 0.288 0.224 0.416-0.128 0.704h-0.704l-0.48 0.512-0.384 0.544-0.128 0.416v0.416l-0.128 0.288-0.384 0.224-0.416 0.8-0.32 0.704-0.128 0.864v0.416l0.256 0.192h6.912v-0.032h15.68v-14.592zM62.656 14.592l0.192-0.8-0.096-0.608-0.352-0.256-0.608-0.128h-3.904l-0.48 0.16-0.32 0.448-0.096 0.704v6.304l0.096 0.48 0.288 0.448 0.672 0.128 0.704-0.064 0.544-0.384 0.448-0.736z"></path>
</svg>
