<!-- Generated by IcoMoon.io -->
<svg version="1.1" xmlns="http://www.w3.org/2000/svg" width="32" height="32" viewBox="0 0 32 32">
<title>gunsmith_materials</title>
<path d="M2.090 13.001l3.216-3.146 0.909 0.909-0.28 0.489 0.21 0.419v0.57l-2.657 2.374-0.559-0.556 0.14-0.168-0.28-0.263h-0.419l-0.35-0.35 0.070-0.28z"></path>
<path d="M20.056 2.316l0.909 0.839-2.030 2.162 0.352 0.355 2.097-2.1 0.419 0.42-7.396 7.525-0.853-0.092-3.635 3.476v0.629l-1.538 1.398-1.538-1.608 1.538-1.311 0.579-0.087 3.753-3.521-0.137-1.093 7.131-7.307 0.35 0.316z"></path>
<path d="M27.117 8.468v3.076h-0.839l-0.559-0.28-0.693 0.688 0.383 0.431-2.206 2.237h-0.839l-6.988 6.7 0.699 0.78-0.632 0.629-0.699-0.744-8.179 7.944-0.559-0.559 2.097-2.167-0.28-0.28-2.517 2.447-0.489-0.489 8.599-8.109-0.839-0.839-8.389 8.109-0.559-0.559 8.389-8.109-0.559-0.562 0.979-0.982 1.119-0.117 5.73-5.4 0.422-0.889 0.489-0.506 0.979-0.982 0.789 0.758 0.556 0.559-0.995 1.119-0.419 0.431-0.979 0.408-5.718 5.461 0.545 0.632 8.809-8.434 0.839-0.724-0.419-0.699 0.28-0.839 2.657-0.14z"></path>
<path d="M17.539 24.083l1.398 1.443-3.635 3.708-0.35-0.327-0.979 1.093-1.404-1.328 1.119-1.208 0.361 0.35 3.49-3.73z"></path>
<path d="M20.266 24.267l3.635 3.73 0.909-0.934-1.049-1.119 0.579-0.671 0.4 0.392 3.356-3.495 1.885-1.957-4.332-4.41-5.604 5.481 1.535 1.583-1.314 1.401z"></path>
</svg>
