<!-- Generated by IcoMoon.io -->
<svg version="1.1" xmlns="http://www.w3.org/2000/svg" width="32" height="32" viewBox="0 0 32 32">
<title>hunter_staff</title>
<path d="M20.005 15.404h1.81l0.421-0.491q0.070 0.028 0.175 0.091t0.288 0.33 0.182 0.631-0.161 0.624-0.316 0.344l-0.168 0.084-0.421-0.519h-1.81l-0.224 0.21h-0.617l-0.14-0.14v-1.235l0.14-0.14h0.617zM30.162 15.432l1.838 0.533q-0.926 0.295-1.838 0.533l-1.641 0.393q-0.519-0.309-0.954-0.351-0.351-0.028-1.045-0.028t-0.877 0.042q-0.112 0.028-0.26 0.105t-0.231 0.133l-0.084 0.070-0.295-0.168-0.351 0.393q-0.323-0.309-0.519-0.379-0.14-0.056-0.4-0.070t-0.456 0l-0.196 0.014q0.224-0.295 0.224-0.687 0-0.168-0.056-0.344t-0.112-0.26l-0.056-0.084q0.744 0.056 1.052-0.056 0.084-0.042 0.217-0.14t0.217-0.168l0.084-0.084 0.351 0.407 0.295-0.168q0.309 0.253 0.575 0.295 0.182 0.042 0.877 0.049t1.045-0.021q0.196-0.014 0.435-0.105t0.379-0.175l0.14-0.084q0.744 0.168 1.641 0.407zM28.479 16.175q0.435 0 0.919-0.056t0.751-0.112l0.253-0.042q-0.94-0.21-1.922-0.21h-2.736q-0.098 0-0.161 0.063t-0.063 0.147 0.063 0.147 0.161 0.063h2.736zM12.009 15.432l0.21-0.21h0.617l0.14 0.14v1.235l-0.14 0.14h-0.617l-0.21-0.21h-1.824l-0.421 0.491q-0.070-0.028-0.175-0.091t-0.281-0.33-0.175-0.631 0.154-0.624 0.323-0.344l0.154-0.084 0.421 0.519h1.824zM8.936 15.965q0 0.168 0.056 0.344t0.112 0.26l0.056 0.084q-0.758-0.056-1.052 0.056-0.084 0.028-0.217 0.126t-0.217 0.182l-0.098 0.070-0.337-0.393-0.309 0.168q-0.295-0.253-0.561-0.309-0.182-0.042-0.877-0.042t-1.045 0.028q-0.196 0.014-0.435 0.105t-0.379 0.175l-0.154 0.070q-0.729-0.154-1.641-0.393l-1.838-0.533q0.94-0.295 1.838-0.533l1.641-0.407q0.533 0.323 0.968 0.365 0.351 0.028 1.045 0.021t0.877-0.049q0.112-0.014 0.253-0.091t0.224-0.133l0.084-0.070 0.309 0.168 0.337-0.407q0.337 0.309 0.533 0.393 0.126 0.056 0.393 0.070t0.463 0l0.196-0.014q-0.224 0.295-0.224 0.687zM6.271 16.175q0.084 0 0.154-0.063t0.070-0.147-0.070-0.147-0.154-0.063h-2.736q-0.435 0-0.919 0.056t-0.751 0.112l-0.267 0.042q0.954 0.21 1.936 0.21h2.736zM13.159 16.512v-1.094h5.682v1.094h-5.682zM16.47 14.31h-0.112v-2.301l3.465-3.465-0.014 3.353 3.353-0.028-2.469 2.469h-4.223v-0.028zM20.707 17.662l2.455 2.455-3.353-0.028 0.014 3.367-3.465-3.479v-2.315h4.349zM15.797 17.662v0.014h0.098v2.301l-3.479 3.479 0.028-3.367-3.353 0.028 2.469-2.469h3.676zM11.546 14.324l-2.455-2.455 3.353 0.028-0.028-3.353 3.479 3.465v2.315h-4.349z"></path>
</svg>
