<svg version="1.1" xmlns="http://www.w3.org/2000/svg" x="0px" y="0px" viewBox="0 0 100 100">
<polygon points="50.41,14.3 44.45,20.89 56.37,20.89 "/>
<polygon points="42.02,10.04 49.41,10.04 31.2,29.96 31.2,21.73 "/>
<polygon points="42.02,24.04 49.41,24.04 31.2,43.96 31.2,35.73 "/>
<polygon points="58.8,10.04 51.41,10.04 69.62,29.96 69.62,21.73 "/>
<polygon points="58.8,24.04 51.41,24.04 69.62,43.96 69.62,35.73 "/>
<g>
	<path d="M96.15,45.81L78.96,35.44L78.79,0h-3.85l0.17,46.11c0,0-3.7,10.52-24.85,10.52S26.07,46.41,26.07,46.41L25.9,0h-3.81
		l0.17,35.44L4.74,45.81l11.97,7.09L3.85,61.22l11.69,6.69l2.87,1.64l2.05,1.17l2.81,1.61l1.74,0.99l2.82,1.61l1.68,0.96l2.74,1.57
		l18.01,10.29l17.82-10.43l2.72-1.59l1.66-0.97l2.79-1.63l1.72-1.01l2.77-1.62l2.03-1.19l2.83-1.65l11.11-6.5l-11.7-8.22
		L96.15,45.81z M88.34,60.85l-7.15,4.18c-2.98-2.44-5.01-4.63-5.29-6.16l-2.43,1.43l-0.18,0.1c0.82,1.92,2.73,4.06,5.18,6.22
		l-2.04,1.19c-2.74-2.42-4.54-4.67-4.76-6.46l-2.45,1.44L69,62.93c0.71,2.05,2.45,4.25,4.78,6.44l-1.8,1.06
		c-2.77-2.47-4.56-4.71-4.76-6.45l-2.45,1.44l-0.23,0.14c0.71,2.01,2.43,4.2,4.77,6.44L67.56,73c-2.75-2.52-4.5-4.77-4.69-6.48
		l-2.44,1.43l-0.23,0.13c0.7,1.97,2.41,4.16,4.74,6.44l-14.71,8.61l-14.82-8.48c2.42-2.34,4.18-4.59,4.89-6.61l-0.24-0.14
		l-2.43-1.44c-0.16,1.75-1.98,4.07-4.86,6.68l-1.74-1c2.44-2.31,4.24-4.58,4.96-6.66l-0.24-0.14l-2.44-1.45
		c-0.17,1.78-2.05,4.12-4.98,6.7l-1.82-1.04c2.46-2.29,4.3-4.58,5.02-6.71l-0.25-0.15l-2.45-1.45c-0.16,1.86-2.09,4.23-5.02,6.77
		l-2.05-1.17c2.62-2.26,4.66-4.52,5.48-6.54l-0.2-0.12l-2.43-1.44c-0.21,1.58-2.4,3.92-5.61,6.52l-7.47-4.27l9.01-5.82l4.12,2.44
		l2.9,1.72l1.3,0.77l2.92,1.73l1.55,0.92l2.92,1.73l1.41,0.83l2.91,1.73l9.67,5.73l9.68-5.69l2.91-1.71l1.41-0.83l2.92-1.71
		l1.56-0.91l2.91-1.71l1.33-0.78l2.88-1.69l4.4-2.59L88.34,60.85z"/>
</g>
<g>
	<path d="M0.71,80.43c2.42-1.29,10.07-5.5,16.57-10.24l-2.48-1.42l-0.41-0.23C9.89,71.7,4.6,74.91,0,77.4v3.41L0.71,80.43z"/>
	<path d="M0.66,85.9c1.94-0.95,13.13-6.56,21.5-12.92l-2.45-1.4l-0.4-0.23C13.46,75.61,5.93,79.92,0,82.88v3.35L0.66,85.9z"/>
	<path d="M0.67,91.45c3.74-1.88,16.89-8.69,26.06-15.85l-2.48-1.42l-0.38-0.22C16.93,79.14,7.37,84.68,0,88.43v3.36L0.67,91.45z"/>
	<path d="M28.41,76.55C20.46,82.65,8.83,89.5,0,94.09v3.38l0.69-0.35c2.73-1.4,19.63-10.24,30.49-18.97l-2.41-1.38L28.41,76.55z"/>
	<path d="M85.26,68.29l-0.39,0.23l-2.46,1.44c6.56,4.83,14.42,9.16,16.89,10.47l0.71,0.38V77.4C95.28,74.84,89.83,71.53,85.26,68.29
		z"/>
	<path d="M80.38,71.14L80,71.36l-2.43,1.42c8.4,6.44,19.8,12.15,21.76,13.12l0.66,0.32v-3.35C93.97,79.87,86.29,75.46,80.38,71.14z"
		/>
	<path d="M75.87,73.78l-0.36,0.21l-2.46,1.44c9.19,7.22,22.51,14.12,26.28,16.02l0.67,0.34v-3.36
		C92.54,84.63,82.84,79.01,75.87,73.78z"/>
	<path d="M71.4,76.4l-0.35,0.2L68.66,78c10.85,8.78,27.92,17.7,30.66,19.11l0.69,0.35v-3.38C91.1,89.46,79.34,82.54,71.4,76.4z"/>
</g>
</svg>
