<!-- Generated by IcoMoon.io -->
<svg version="1.1" xmlns="http://www.w3.org/2000/svg" width="81" height="32" viewBox="0 0 81 32">
<title>interceptor</title>
<path d="M77.024 8.448q0.224 0.416 0.096 1.040t-0.384 0.848q-0.192 0-2.912 0.096-2.848 0.096-3.456 0.224 0.128 0.224 0.576 0.784t0.592 1.008 0.112 1.216q1.664 0.096 1.984 0.256 0.064 0.704-0.176 1.296t-0.784 1.328-0.672 0.96q0.16 0 1.104-0.064t1.040 0.064q0.16 0.608 0.56 1.408t0.72 0.896q0.128 0.128 0.384 0.192t0.288 0.096q0.064 0.256-0.128 1.28-0.384 0.224-0.512 0.224h-2.048q-2.112 0.512-5.984 1.552t-4.608 1.232q-0.416 0.096-2.144 0.48t-2.688 0.64q-0.096 0.064-0.192 0.336t-0.224 0.304q-0.32 0-1.056 0.064t-1.152 0.064q-0.832 0.16-2.080 0.208t-2.080-0.208q-0.128-0.064-0.304-0.224t-0.272-0.256q-1.056 0-1.312 0.064-0.512-0.384-0.64-0.448v-1.088h-1.088q-0.8 1.056-2.64 1.92t-3.472 0.416q-0.16-0.096-0.928-0.384-0.256-0.032-0.608 0t-0.544-0.128q-0.192 0.224-1.248 0.464t-2.368 0.464-1.632 0.288q-0.64 0.16-1.664 0.48-0.384-0.064-0.656-0.384t-0.4-0.592-0.304-0.912-0.24-0.8l0.352-0.128v-0.256h-0.608q-0.16-0.64-0.432-1.376t-0.352-1.024 0-0.688 0.528-0.736 1.376-0.848h-0.064v-0.032q-0.736-0.064-1.984-0.4t-1.856-0.4q-0.704 0.32-1.216 0.832-0.096 0.096-0.448 0.512t-0.64 0.544q-0.256 0.064-0.624-0.048t-0.432 0.048l-1.536 1.024q-0.16 0.16-0.4 0.496t-0.48 0.576-0.496 0.368h-1.024l-1.632-1.664v-0.16l0.544-0.544-0.064-0.128-0.8 0.544-2.080-2.208q0-0.352 0.144-0.704t0.288-0.576 0.432-0.592 0.416-0.528q-0.32 0-0.56-0.112t-0.512-0.256-0.496-0.24v-0.32q-0.16 0-0.512 0.096t-0.512 0.128q-0.416 0-1.184 0.048t-1.12 0.048q-1.376 2.688-1.856 3.904-0.608-0.288-1.744-0.752t-1.552-0.656q-0.384-0.288-0.992-1.648t-0.704-1.52q-0.512 0-0.544-0.128 0-0.16 0.048-0.304t0.112-0.256 0.064-0.144q-0.576-0.768-0.896-2.304-0.064-0.352-0.448-2.208-0.32-1.568-0.288-1.792t0.256-0.32q0.16-0.16 1.216-0.352t1.088-0.224q0-0.128 0.032-0.304t0.032-0.24q2.464 0 2.88-0.224-0.384-0.032-0.72-0.352t-0.4-0.704l0.256-0.192q1.6 0.864 2.4 1.056 0.672 0.096 3.584 0.192 0.064-0.224 0.32-0.224 0-0.032-0.016-0.032t-0.016-0.032q-0.032 0-0.032-0.032-0.448-0.096-0.672-0.192-0.576-0.448-0.928-0.736-0.096-0.064-0.304-0.096t-0.304-0.096q0-0.256 0.128-0.288h0.8q0.064 0 0.384 0.064t0.416 0.080 0.384 0.096 0.4 0.112 0.352 0.112 0.352 0.16 0.304 0.192 0.288 0.24 0.192 0.272 0.16 0.336q0.608 0 0.96 0.032 1.44 3.072 1.76 4.416 1.248 0.256 1.344 0.256 0.256-1.44 1.216-2.592t2.272-1.728l1.088-0.224q0.896-0.16 1.088-0.16 0.096-0.064 0.16-0.144t0.096-0.096 0.112-0.048 0.24-0.032q0.256-0.896 0.224-0.928-0.32-0.32-0.512-0.672-0.16 0.096-0.384 0.32-0.608-0.096-0.8-0.672l1.184-0.736q0.128-0.384 0.192-0.96 0.096 0 0.224-0.064 0.192-0.064 0.256 0.064 0.544 0.16 0.608 0.704 0.384-0.096 1.424-0.304t1.616-0.336l0.384-0.352q1.472-0.096 4.896-0.192 3.456-0.096 3.904 0 0.448 0.064 0.704 0.256v1.632h5.28q0.8 0.224 3.584 0.48 2.56 0.192 5.152 0.128 0.096-0.64 1.504-0.352v0.672q1.184 0.064 1.568-0.224 0.16-0.384 0.896-0.448 0.352-0.064 1.632 0 2.688 0.064 3.2 2.080 1.376 0 1.76 0.224 0.032 0.128 0.416 0.208t0.976 0.096 1.12 0.016 1.12-0.016 0.72-0.016v0.544h-0.352v0.096q0.064 0.16 0.16 0.16 0.448 0.064 0.96 0.064 0.48-0.032 3.264 0.064 2.656 0.032 2.88 0.32z"></path>
</svg>
