<!-- Generated by IcoMoon.io -->
<svg version="1.1" xmlns="http://www.w3.org/2000/svg" width="32" height="32" viewBox="0 0 32 32">
<title>ishtar</title>
<path d="M16 8.938v0q-1.469 0-2.75 0.563c-0.871 0.384-1.617 0.894-2.251 1.517l0.001-0.001c-0.632 0.622-1.143 1.364-1.498 2.19l-0.017 0.045q-0.547 1.281-0.547 2.75v0c-0 0.013-0 0.029-0 0.044 0 0.982 0.201 1.918 0.564 2.767l-0.017-0.046c0.37 0.877 0.882 1.624 1.515 2.249l0.001 0.001c0.633 0.622 1.379 1.132 2.202 1.497l0.048 0.019q1.281 0.563 2.75 0.563v0q1.469 0 2.75-0.563c0.871-0.384 1.617-0.894 2.251-1.517l-0.001 0.001c0.634-0.626 1.146-1.373 1.499-2.205l0.017-0.045c0.346-0.804 0.547-1.739 0.547-2.721 0-0.016-0-0.031-0-0.047v0.002q0-1.469-0.547-2.75c-0.372-0.87-0.884-1.612-1.515-2.234l-0.001-0.001c-0.633-0.622-1.379-1.132-2.202-1.497l-0.048-0.019q-1.281-0.563-2.75-0.563zM16 10.375q2.344 0 3.984 1.656t1.641 3.969q0 2.344-1.641 3.984t-3.984 1.641-3.984-1.641-1.641-3.984q0-2.313 1.641-3.969t3.984-1.656zM17.656 16c-0.001 0.912-0.741 1.651-1.654 1.651s-1.654-0.74-1.654-1.654 0.74-1.654 1.654-1.654c0.457 0 0.87 0.185 1.169 0.484v0c0.299 0.29 0.485 0.696 0.485 1.146 0 0.009-0 0.018-0 0.028l0-0.001zM1.844 0v1.094l9.031 9q-0.563 0.438-0.063 0.016t1.313-0.891l-9.156-9.219zM29.031 0l-9.188 9.188q-0.563-0.375 0.016-0.031t1.266 0.938l9.031-9v-1.094zM1.844 3v1.063l7.625 7.625q-0.406 0.594-0.031 0.031t1.031-1.25l-7.5-7.469zM29.031 3l-7.5 7.469q-0.5-0.531-0.031-0.063t1 1.25l7.656-7.594v-1.063zM16 6.313l-0.781 0.781v1.125c0.083 0 0.198-0.005 0.344-0.016s0.292-0.016 0.438-0.016h0.422l0.391 0.031-0.031-1.094zM3.5 13.969l-0.781 0.75 0.813 0.781h4.656q0-0.219 0.078-0.672t0.203-0.922zM28.531 13.969h-4.969q0.063 0.125 0.141 0.563c0.051 0.276 0.090 0.609 0.108 0.947l0.001 0.022h4.688l0.781-0.781zM3.5 16.469l-0.781 0.781 0.813 0.781h4.906q-0.063-0.125-0.141-0.563c-0.051-0.276-0.090-0.609-0.108-0.947l-0.001-0.022zM28.531 16.469l-4.719 0.031q0 0.219-0.078 0.672t-0.203 0.922l4.969-0.063 0.781-0.781-0.75-0.75zM9.469 20.344l-7.625 7.625v1.063h1.125l7.5-7.5q0.5 0.563 0.031 0.094t-1-1.25zM22.531 20.344q0.406-0.594 0.031-0.031t-1.031 1.219l7.5 7.5h1.125v-1.063zM21.125 21.906q0.563-0.438 0.063 0t-1.313 0.906l9.156 9.188h1.125v-1.063zM10.875 21.938l-9.031 9v1.063h1.125l9.188-9.156q0.563 0.344-0.016 0.016t-1.266-0.953zM16.781 23.781c-0.1 0.023-0.218 0.040-0.338 0.047l-0.005 0q-0.219 0.016-0.438 0.016t-0.422-0.016-0.391-0.016l0.031 1.063 0.781 0.781 0.781-0.813z"></path>
</svg>
