<!-- Generated by IcoMoon.io -->
<svg version="1.1" xmlns="http://www.w3.org/2000/svg" width="32" height="32" viewBox="0 0 32 32">
<title>LB</title>
<path d="M20.497 5.821h8.645q1.487 0 2.173 0.871t0.686 1.987v14.71q0 1.232-0.755 2.010t-2.103 0.779h-27.050q-1.139 0-1.615-0.79t-0.476-1.906v-2.882q0-2.626 1.174-5.31t3.381-4.404q2.765-2.254 5.903-3.463 1.627-0.674 3.927-1.162 2.115-0.442 6.112-0.442zM18.777 23.181v-1.743h-6.948v-11.248h-1.999v12.991h8.947zM27.306 13.699q0 0.976-0.651 1.522t-1.766 0.546h-2.789v-3.974h2.975q1.046 0 1.638 0.5t0.593 1.406zM28.352 22.019q0.953-1.023 0.953-2.533 0-1.255-0.732-2.045t-1.987-1.092l0.302-0.070q2.184-0.627 2.184-2.719 0-1.371-0.883-2.254-1.092-1.115-3.091-1.115h-4.81v13.014h4.787q2.068 0 3.277-1.185zM22.1 17.185h2.789q1.162 0 1.894 0.604t0.732 1.743q0 0.93-0.581 1.441-0.674 0.697-1.975 0.697h-2.858v-4.485z"></path>
</svg>
