<!-- Generated by IcoMoon.io -->
<svg version="1.1" xmlns="http://www.w3.org/2000/svg" width="32" height="32" viewBox="0 0 32 32">
<title>left_stick001</title>
<path d="M11.584 19.733h10.725v-1.998h-8.727v-13.95h-1.998v15.947zM31.457 11.882q0 4.837-4.539 8.324t-10.918 3.487-10.918-3.487-4.539-8.324q0-3.26 2.068-5.993t5.625-4.311 7.763-1.577 7.763 1.577 5.625 4.311 2.068 5.993zM16 24.85q2.804 0 5.573-0.736v2.874q0 2.278-1.612 3.645t-3.961 1.367q-2.383 0-3.996-1.367t-1.612-3.645v-2.874q2.769 0.736 5.608 0.736z"></path>
</svg>
