<!-- Generated by IcoMoon.io -->
<svg version="1.1" xmlns="http://www.w3.org/2000/svg" width="32" height="32" viewBox="0 0 32 32">
<title>leviathan_cup</title>
<path d="M14.821 27.615c-1.203-1.027-1.753-2.083-1.119-3.591 0.375-0.88 0.431-1.89 0.757-2.805 0.136-0.416 0.214-0.894 0.214-1.39s-0.078-0.975-0.223-1.423l0.009 0.033c-0.119-0.326-0.307-0.603-0.549-0.823l-0.002-0.002c-1.122-1.171-1.297-2.847 0.431-4.327 0.41-0.351 0.407-0.351 0.33-1.241-2.518 0.147-4.807-0.701-7.114-1.879l-0.543 4.874h-0.147c-0.179-1.753-0.351-3.468-0.561-5.417-0.189-0.161-0.522-0.477-0.88-0.757-2.269-1.771-4.372-3.647-5.074-6.585-0.175-0.656-0.231-1.336-0.351-2.111h6.003c0.021 0.407 0.042 0.849 0.063 1.294 0.123 2.535 0.245 5.070 0.368 7.64l0.743 0.126c0.098-0.112 0.231-0.196 0.231-0.28 0.035-1.694 0.021-3.391 0.084-5.081 0.048-0.936 0.163-1.813 0.342-2.667l-0.019 0.111c0.151-0.806 0.635-1.171 1.434-1.231 0.175 0 0.351 0 0.526 0h21.389c0.224 0 0.452 0.025 0.789 0.042 0.266 2.195-0.642 3.98-1.904 5.568-2.616 3.25-6.091 5.221-10.126 6.206-0.778 0.189-1.616 0.13-2.454 0.186-0.403 0.435-0.238 0.771 0.182 1.14 1.753 1.536 1.774 2.717 0.379 4.576-0.423 0.502-0.68 1.155-0.68 1.869 0 0.276 0.038 0.543 0.11 0.796l-0.005-0.020c0.351 1.143 0.491 2.36 0.922 3.468 0.603 1.553 0.14 2.686-1.052 3.657 0.056 0.102 0.102 0.196 0.158 0.284 0.88 1.301 2.188 1.893 3.657 2.227 1.108 0.249 2.104 0.842 3.306 0.87 0.421 0 0.828 0.508 1.518 0.968h-19.457c0.323-0.701 0.81-0.891 1.543-1.052 2.020-0.473 3.752-1.040 5.418-1.735l-0.225 0.083c0.614-0.256 1.020-1.013 1.578-1.599z"></path>
<path d="M6.9 16.563c0.372 0.54 0.595 1.209 0.595 1.929 0 0.292-0.037 0.576-0.106 0.847l0.005-0.024h-0.835c-0.452-0.957 0.070-1.767 0.34-2.752z"></path>
</svg>
