<!-- Generated by IcoMoon.io -->
<svg version="1.1" xmlns="http://www.w3.org/2000/svg" width="32" height="32" viewBox="0 0 32 32">
<title>melee</title>
<path d="M11.648 15.21h2.579l1.315-5.408h-6.174l-2.13 2.23h-5.541l-1.697 7.522h5.708l1.93 2.38h3.228l-1.331-5.741h-5.458l5.025-0.682 2.346-3.478h1.132zM23.347 20.218l-0.1 0.25 4.193 2.063-4.992-0.483q-0.216 0.366-0.416 0.666-0.2 0.316-0.666 0.915-0.499 0.566-0.799 0.799 0.133-0.25 0.466-1.015l0.2-0.499q0.017-0.067 0.083-0.241t0.1-0.275q0.366-1.015 0.666-2.047 0.349-1.298 0.516-2.080 0.083-0.333 0.216-1.032t0.183-1.048q0.266-1.714 0.383-4.243 0.067-1.797 0.033-4.377 0.216 0.433 0.416 1.032 0.183 0.582 0.3 1.082 0.017 0.050 0.042 0.158t0.042 0.158l4.826-0.133-4.56 1.697q0.017 0.1 0.050 0.333 0.083 0.749 0.083 1.331l2.479 0.050-2.463 0.582q0 0.666-0.050 1.365l7.422 0.998-7.688 0.799q-0.083 0.383-0.116 0.499-0.183 0.782-0.283 1.098v0.017l2.213 0.765-2.413-0.166-0.15 0.466q-0.033 0.083-0.108 0.258t-0.108 0.258zM15.609 15.609l0.666-2.646h2.995q-0.1 0.599-0.15 0.882l-0.266 1.414q-0.017 0.050-0.033 0.166t-0.033 0.183h-3.178zM12.547 22.332l0.516-2.38h4.543q-0.333 1.015-0.865 2.38h-4.193zM16.424 12.164l0.666-2.629h2.529q-0.083 1.281-0.25 2.629h-2.945zM13.196 18.97l0.533-2.513h4.859q-0.017 0.133-0.133 0.532-0.2 0.815-0.532 1.98h-4.726z"></path>
</svg>
