<!-- Generated by IcoMoon.io -->
<svg version="1.1" xmlns="http://www.w3.org/2000/svg" width="32" height="32" viewBox="0 0 32 32">
<title>nova_bomb</title>
<path d="M16 7.13l-0.501-0.056q0.501-0.056 0.974 0-0.362 0.056-0.473 0.056zM16 24.355l2.977 0.056q-0.056 0.028-0.195 0.070t-0.195 0.070l-2.588 0.056-2.588-0.056q-0.056-0.028-0.195-0.070t-0.223-0.070zM16 7.659l-3.005-0.056q0.278-0.111 0.417-0.139l2.588-0.056 2.588 0.056q0.195 0.028 0.39 0.139zM16 24.883l0.473 0.056q-0.473 0.056-0.974 0 0.362-0.056 0.501-0.056zM25.043 16.007v0.028l-1.057 0.028v0.25l1.030 0.028q-0.028 0.083-0.028 0.25l-1.002 0.028q-0.028 0.083-0.028 0.278l0.974 0.028v0.083l-0.028 0.056v0.083l-1.002 0.028q0 0.083-0.056 0.306l0.974 0.028v0.028q0 0.028-0.014 0.083t-0.014 0.083l-0.974 0.028-0.083 0.334 0.946 0.028q-0.028 0.028-0.028 0.083t-0.028 0.083l-0.974 0.028q-0.056 0.223-0.111 0.362l0.946 0.028q0 0.056-0.028 0.083l-0.028 0.056-0.974 0.028q-0.028 0.195-0.139 0.39l0.946 0.028q0 0.028-0.056 0.139l-1.002 0.028q-0.083 0.195-0.195 0.39l1.002 0.028-0.056 0.056t-0.028 0.056l-1.002 0.028-0.25 0.417h1.030q-0.028 0.028-0.028 0.056l-0.056 0.056-1.057 0.028-0.334 0.417h0.25l0.835 0.028-0.056 0.111-1.141 0.028q-0.056 0.083-0.181 0.223t-0.209 0.195l1.169 0.028-0.083 0.083h-0.167l-1.057 0.028q-0.083 0.056-0.25 0.223t-0.25 0.223l1.308 0.028-0.083 0.083-1.391 0.028-0.584 0.417 1.475 0.028q-0.056 0.028-0.111 0.083l-1.642 0.056q-0.501 0.278-0.751 0.39l1.781 0.056q-0.028 0.028-0.139 0.083l-2.115 0.056q-0.751 0.278-1.224 0.362l2.588 0.056q-0.111 0.028-0.195 0.111l-1.308 0.028q-0.445 0-1.377 0.014t-1.322 0.042q-0.417-0.028-1.336-0.042t-1.363-0.014l-1.308-0.028q-0.083-0.056-0.195-0.111l2.532-0.056q-0.473-0.083-1.224-0.362l-2.087-0.056q-0.028-0.028-0.139-0.083l1.781-0.056q-0.278-0.111-0.779-0.39l-1.586-0.056q-0.056-0.028-0.111-0.083l1.447-0.028q-0.334-0.195-0.584-0.417l-1.363-0.028-0.083-0.083 1.252-0.028q-0.167-0.139-0.473-0.445l-1.030-0.028h-0.195q-0.056-0.056-0.056-0.083l1.113-0.028q-0.111-0.139-0.39-0.417l-1.085-0.028-0.028-0.056q-0.028-0.056-0.056-0.056l0.835-0.028h0.223q-0.223-0.278-0.306-0.417l-1.057-0.028q-0.028-0.028-0.028-0.056l-0.028-0.056h1.002l-0.25-0.417-1.002-0.028q-0.056-0.056-0.056-0.111l0.223-0.028h0.723l-0.195-0.39-0.974-0.028q-0.028-0.028-0.028-0.070t-0.028-0.070l0.946-0.028q-0.056-0.111-0.167-0.39l-0.946-0.028q-0.028-0.028-0.028-0.056v-0.028q-0.028-0.028-0.028-0.056l0.918-0.028q0-0.056-0.042-0.167t-0.070-0.195l-0.946-0.028q0-0.028-0.014-0.083t-0.014-0.083l0.918-0.028-0.083-0.334-0.946-0.028q-0.028-0.028-0.028-0.083t-0.028-0.083v-0.028l0.946-0.028q-0.028-0.056-0.028-0.153t-0.028-0.153l-0.946-0.028q0-0.056-0.028-0.083 0-0.083-0.028-0.139l0.974-0.028q-0.028-0.083-0.028-0.278l-0.974-0.028q-0.028-0.083-0.028-0.25l0.974-0.028v-0.25l-1.002-0.028v-0.056l1.030-0.028v-0.25l-1.002-0.028q0-0.167 0.028-0.25l1.002-0.028q0-0.028 0.014-0.139t0.014-0.139l-1.002-0.028q0.028-0.056 0.028-0.167 0.028 0 0.028-0.056l0.974-0.028q0-0.056 0.028-0.153t0.028-0.153l-0.974-0.028 0.028-0.028q0-0.111 0.028-0.167l0.974-0.028 0.083-0.334-0.946-0.028q0-0.028 0.014-0.083t0.014-0.083l0.974-0.028q0.056-0.139 0.111-0.362l-0.946-0.028q0-0.028 0.028-0.083l0.028-0.083h0.974q0.111-0.278 0.167-0.39l-0.974-0.028q0.028-0.028 0.028-0.070t0.028-0.070l1.002-0.028q0.028-0.083 0.097-0.209t0.097-0.181l-0.974-0.028q0.028-0.028 0.028-0.056t0.028-0.056l1.030-0.028 0.25-0.417h-1.030q0-0.028 0.014-0.028t0.014-0.028 0.056-0.083h1.057q0.223-0.334 0.306-0.417-0.056 0-0.139-0.014t-0.111-0.014h-0.835q0.028 0 0.056-0.056l0.028-0.056 1.141-0.028q0.111-0.139 0.39-0.417l-1.169-0.028q0-0.028 0.056-0.083h0.195l1.057-0.028q0.139-0.167 0.473-0.445l-1.28-0.028 0.083-0.083 1.391-0.028 0.584-0.417-1.475-0.028q0.056-0.056 0.111-0.083l1.614-0.056q0.39-0.223 0.779-0.39l-1.809-0.056q0.111-0.056 0.139-0.083l2.115-0.056q0.863-0.278 1.224-0.362l-2.56-0.056 0.056-0.028q0.083-0.056 0.139-0.083l1.308-0.028q1.948-0.056 2.699-0.056t2.699 0.056l1.308 0.028 0.083 0.028q0.056 0.056 0.111 0.083l-2.56 0.056q0.473 0.083 1.224 0.362l2.087 0.056q0.028 0 0.070 0.028t0.070 0.056l-1.753 0.056q0.25 0.111 0.751 0.39l1.614 0.056q0.056 0.056 0.111 0.083l-1.447 0.028 0.584 0.417 1.363 0.028 0.083 0.083-1.252 0.028q0.167 0.139 0.473 0.445l1.030 0.028h0.167l0.083 0.083-1.141 0.028q0.278 0.278 0.39 0.417l1.113 0.028 0.056 0.111h-0.835q-0.028 0-0.097 0.014t-0.125 0.014q0.167 0.167 0.334 0.417h1.030q0.028 0 0.028 0.028t0.028 0.056l0.028 0.056h-1.002l0.25 0.417 0.974 0.028q0 0.028 0.028 0.056l0.056 0.056-0.223 0.028h-0.751q0.056 0.056 0.125 0.195l0.097 0.195 0.946 0.028q0.056 0.111 0.056 0.139l-0.918 0.028q0.056 0.111 0.167 0.39h0.918q0.028 0.028 0.028 0.083 0.028 0.028 0.028 0.083l-0.918 0.028q0.056 0.139 0.111 0.362l0.946 0.028q0.028 0.028 0.028 0.083t0.028 0.083l-0.918 0.028 0.083 0.334 0.946 0.028q0 0.028 0.014 0.083t0.014 0.083v0.028l-0.918 0.028q0 0.056 0.014 0.153t0.014 0.153l0.974 0.028v0.056q0 0.028 0.014 0.083t0.014 0.083l-0.946 0.028q0 0.195 0.028 0.278l0.974 0.028q0 0.167 0.028 0.25l-1.002 0.028q0 0.056 0.014 0.139t0.014 0.111l1.002 0.028v0.028zM15.555 23.52h0.863q-0.306-0.056-0.417-0.056zM13.384 23.075q0.056 0 0.167 0.042t0.195 0.070l2.254 0.056 2.254-0.056q0.223-0.056 0.334-0.111l-2.588-0.056zM16.417 8.494h-0.863q0.334 0.056 0.445 0.056zM18.588 8.939q-0.111-0.056-0.334-0.111l-2.254-0.056-2.254 0.056q-0.223 0.056-0.362 0.111l2.616 0.056zM23.875 16.007v0l-0.028-0.028-0.863-0.028v-0.195l0.863-0.028q-0.028-0.083-0.028-0.223h-0.863v-0.25l0.835-0.028q-0.028-0.028-0.028-0.111-0.028-0.028-0.028-0.083h-0.835q0-0.056-0.014-0.153t-0.014-0.125h0.807v-0.028q0-0.028-0.014-0.083t-0.014-0.083h-0.835q0-0.056-0.014-0.139t-0.042-0.139l0.807-0.028q-0.056-0.111-0.056-0.139l-0.807-0.028q-0.056-0.139-0.111-0.306l0.807-0.028-0.028-0.028v-0.028l-0.028-0.056-0.807-0.028-0.167-0.334h0.835v-0.028l-0.056-0.111h-0.835l-0.167-0.334 0.64-0.028h0.167l-0.056-0.111h-0.863q-0.028-0.056-0.097-0.181t-0.097-0.181h0.863l-0.028-0.056-0.056-0.056h-0.89q-0.111-0.195-0.278-0.362h0.195l0.723-0.028-0.028-0.028q-0.028-0.028-0.028-0.056l-0.974-0.028-0.334-0.334 1.002-0.028-0.083-0.083h-0.139l-0.89-0.028q-0.083-0.056-0.223-0.181t-0.195-0.181l1.085-0.028-0.028-0.028q-0.056 0-0.056-0.028l-1.169-0.028q-0.167-0.139-0.501-0.362l1.252-0.028q-0.056-0.028-0.111-0.083l-1.391-0.028-0.668-0.334 1.53-0.028q-0.056-0.056-0.111-0.083l-1.809-0.028q-0.557-0.223-1.085-0.306l2.226-0.056-0.167-0.083-1.141-0.028q-1.67-0.056-2.337-0.056-0.64 0-2.365 0.056l-1.141 0.028-0.167 0.083 2.254 0.056q-0.501 0.083-1.057 0.306l-1.864 0.028q-0.056 0.056-0.111 0.083l1.558 0.028-0.668 0.334-1.419 0.028-0.083 0.083 1.28 0.028q-0.334 0.223-0.501 0.362l-1.224 0.028-0.056 0.056 1.113 0.028q-0.083 0.056-0.223 0.181t-0.195 0.181l-0.918 0.028h-0.167q-0.056 0.056-0.056 0.083l1.002 0.028-0.334 0.334-0.974 0.028-0.083 0.083 0.751 0.028h0.195q-0.167 0.223-0.278 0.362h-0.918l-0.028 0.056q-0.028 0.028-0.028 0.056h0.89q-0.028 0.056-0.097 0.181t-0.125 0.181h-0.89l-0.056 0.111 0.863 0.028-0.167 0.334h-0.89q0 0.028-0.014 0.070t-0.014 0.070h0.835q-0.028 0.056-0.070 0.167t-0.070 0.167l-0.863 0.028v0.028q-0.028 0.028-0.028 0.083l0.835 0.028q-0.083 0.139-0.111 0.306l-0.835 0.028q-0.028 0.028-0.028 0.056-0.028 0.056-0.028 0.083l0.835 0.028q-0.056 0.167-0.083 0.278h-0.835q-0.028 0.056-0.028 0.167l-0.028 0.028h0.863q-0.028 0.056-0.042 0.139t-0.014 0.139h-0.863v0.083q0 0.028-0.014 0.056t-0.014 0.056l0.863 0.028q0 0.056-0.014 0.139t-0.014 0.111h-0.863q-0.028 0.083-0.028 0.223l0.89 0.028q-0.028 0.056-0.028 0.195l-0.89 0.028v0.056h0.863q0 0.167 0.028 0.223l-0.863 0.028q0 0.139 0.028 0.223h0.835q0 0.028 0.014 0.111t0.014 0.139l-0.835 0.028q0 0.028 0.014 0.056t0.014 0.056v0.083h0.835q0 0.056 0.028 0.139t0.028 0.139h-0.835l0.028 0.028q0 0.111 0.028 0.167h0.807q0.028 0.111 0.083 0.278l-0.807 0.028q0 0.028 0.014 0.070t0.042 0.070l0.807 0.028q0.056 0.167 0.111 0.306l-0.807 0.028q0 0.028 0.028 0.056v0.056l0.835 0.028q0.028 0.056 0.070 0.167t0.070 0.167h-0.807v0.083q0.028 0.028 0.028 0.056h0.863l0.167 0.334-0.64 0.028h-0.195l0.056 0.111h0.863q0.056 0.056 0.125 0.167t0.097 0.167l-0.863 0.028 0.028 0.056q0.028 0.028 0.028 0.056h0.89q0.111 0.139 0.278 0.362h-0.167l-0.751 0.028 0.083 0.083h0.946q0.111 0.139 0.334 0.362l-0.974 0.028q0 0.028 0.056 0.083h0.167l0.89 0.028q0.083 0.056 0.223 0.181t0.195 0.181l-1.085 0.028 0.056 0.056 1.197 0.028q0.167 0.139 0.501 0.362l-1.252 0.028 0.083 0.083v-0.028l1.391 0.056 0.668 0.334-1.53 0.028q0.056 0.028 0.111 0.083l1.837 0.028q0.557 0.223 1.057 0.306l-2.226 0.056 0.167 0.083 1.141 0.028q1.725 0.056 2.365 0.056 0.668 0 2.337-0.056l1.141-0.028 0.167-0.083-2.254-0.056q0.473-0.056 1.085-0.306l1.837-0.028q0.056-0.028 0.111-0.083l-1.558-0.028 0.668-0.334 1.419-0.056 0.111-0.056-1.28-0.028q0.334-0.223 0.501-0.362l1.197-0.028q0.056-0.056 0.083-0.056l-1.113-0.028q0.139-0.139 0.417-0.362l0.918-0.028h0.139l0.083-0.083-1.030-0.028 0.334-0.334 1.002-0.028q0-0.028 0.028-0.028l0.028-0.056-0.723-0.028h-0.223q0.167-0.139 0.278-0.362h0.918q0.028 0 0.028-0.028t0.028-0.056l0.028-0.028-0.89-0.028q0.028-0.056 0.097-0.167t0.097-0.167h0.89l0.056-0.111-0.835-0.028 0.167-0.334h0.863q0-0.028 0.028-0.070t0.028-0.070h-0.863l0.167-0.334 0.835-0.028 0.028-0.028q0-0.056 0.028-0.083l-0.835-0.028q0.028-0.167 0.111-0.306l0.835-0.028q0-0.028 0.056-0.139l-0.835-0.028q0.028-0.056 0.042-0.139t0.014-0.139h0.863q0-0.028 0.014-0.083t0.014-0.083v-0.028h-0.835q0-0.056 0.014-0.139t0.014-0.139h0.863q0-0.056 0.028-0.083 0-0.083 0.028-0.111l-0.863-0.028v-0.25h0.89q0-0.139 0.028-0.223l-0.89-0.028v-0.195l0.89-0.028zM18.226 16.007q-0.111 0.167-0.306 0.39t-0.779 0.612-1.141 0.39-1.127-0.348-0.849-0.682l-0.278-0.362q0.111-0.167 0.306-0.39t0.793-0.612 1.155-0.39 1.113 0.348 0.835 0.682zM32 11.221q-0.278 0.139-1.906 1.030t-3.937 2.143-2.95 1.614h-0.056q6.678 3.617 7.624 4.118h0.028q0.223 0.139 0.487 0.278t0.417 0.237 0.237 0.125h-0.028q0.028 0 0.028 0.014t0.028 0.014l-7.93-2.504q-0.362-0.111-0.64-0.111-0.807 0.056 0.083 1.030l2.087 2.31q0.696 0.723 0.417 0.751-0.306-0.083-0.696-0.334l-3.757-2.449q-1.002-0.584-1.53-0.751-0.557-0.056-0.723 0-0.111 0.028-0.195 0.083t-0.139 0.111l-0.056 0.056q-0.028 0 0.167 0.473t0.612 1.447q0.417 0.89 1.113 2.421l1.363 3.005q0.028 0.083 0.097 0.25t0.125 0.25h0.028l0.25 0.584q-0.028 0-0.028-0.028 0.056 0.167 0.167 0.417t0.139 0.334h0.056q0.028 0.056 0.056 0.125t0.042 0.111l0.028 0.083t0.042 0.070v0.028q0.056 0.056 0.056 0.223h-0.028v0.64h0.056q0 0.139-0.014 0.362t-0.014 0.306v0.083h-0.056l-0.028 0.417q0 0.083-0.083 0.139h0.056q-0.083 0.083-0.195 0l-0.39-0.278q-0.111-0.111-0.668-0.529l-0.111-0.111q-0.417-0.334-0.473-0.529 0-0.111-0.89-2.059-0.557-1.224-1.336-2.977l-0.946-2.115q-0.362-0.779-0.723-0.723-0.39 0.056-0.501 0.918l-0.584 3.673q-0.139 0.835-0.306 0.835t-0.306-0.835l-0.584-3.673q-0.111-0.863-0.501-0.918-0.362-0.056-0.723 0.723-0.306 0.696-0.946 2.115l-1.336 2.977q-0.195 0.39-0.417 0.946h0.028q-0.139 0.362-0.25 0.557h-0.028q-0.223 0.501-0.223 0.557-0.056 0.111-0.111 0.167h0.028q-0.195 0.223-0.362 0.362l-0.111 0.111q-0.056 0.056-0.139 0.125t-0.139 0.097h-0.028q-0.278 0.223-0.39 0.306l-0.39 0.278q-0.223 0.111-0.223-0.139l-0.028-0.501q-0.028-0.223-0.028-0.863v-0.167q0-0.334 0.056-0.501 0.028-0.028 0.167-0.362t0.376-0.877 0.431-0.988q0.557-1.224 1.363-3.005l1.113-2.421q0.223-0.501 0.417-0.96t0.292-0.71 0.070-0.25l-0.056-0.056q-0.056-0.056-0.139-0.111t-0.195-0.083h-0.723q-0.557 0.195-1.503 0.751l-3.784 2.449q-0.501 0.334-0.696 0.334-0.25 0 0.417-0.751l2.087-2.31q0.89-0.974 0.083-1.030-0.278 0-0.64 0.111-2.894 0.918-5.899 1.864h0.028q-0.278 0.083-0.612 0.195l-0.71 0.237t-0.598 0.181h-0.056l-0.056 0.028q0.25-0.139 1.878-1.030t3.951-2.143 2.963-1.614h0.028q-0.584-0.306-3.52-1.906t-4.077-2.24l-0.056 0.028q-0.696-0.417-1.141-0.64h0.056l-0.056-0.028 7.903 2.477q0.334 0.139 0.64 0.139 0.835-0.056-0.056-1.030l-2.115-2.31q-0.668-0.751-0.417-0.751 0.195 0 0.696 0.334l3.784 2.449q1.475 0.946 2.143 0.807 0.056 0 0.167-0.070t0.223-0.153l0.111-0.083q0.056-0.056-0.807-1.92-0.417-0.89-1.113-2.421l-1.336-3.005-0.25-0.501h-0.028l-0.25-0.584h0.056q-0.167-0.334-0.334-0.723h-0.028q-0.028-0.083-0.070-0.153t-0.056-0.125-0.042-0.083l-0.056-0.111q0-0.028-0.014-0.083t-0.014-0.083h0.056q-0.028-0.083-0.028-0.278v-0.362h-0.028q0-0.501 0.028-0.696v-0.056h0.028l0.028-0.417q0-0.056 0.083-0.139h-0.028q0.056-0.111 0.195 0l0.362 0.278q0.111 0.083 0.348 0.278t0.32 0.25l0.111 0.111q0.417 0.278 0.473 0.529 0.139 0.445 0.89 2.059 0.557 1.224 1.363 2.977l0.946 2.115q0.334 0.779 0.696 0.723t0.529-0.918l0.557-3.673q0.111-0.807 0.306-0.863 0.195 0.056 0.306 0.863l0.584 3.673q0.167 0.89 0.529 0.918 0.334 0.056 0.696-0.723 0.306-0.696 0.946-2.115l1.363-2.977q0.278-0.668 0.417-0.946h-0.028q0.028-0.056 0.111-0.278t0.111-0.306h0.056q0.195-0.501 0.223-0.529 0-0.056 0.111-0.167h-0.056l0.473-0.473q0.223-0.167 0.278-0.223h0.056q0.278-0.223 0.39-0.306l0.362-0.278q0.028 0 0.028-0.028h-0.028q0.195-0.056 0.25 0.167l0.028 0.473q0 0.111 0.014 0.417t0.014 0.473v0.167q0 0.39-0.083 0.501-0.139 0.39-0.974 2.226-0.557 1.224-1.336 3.005l-1.113 2.421q-0.863 1.864-0.807 1.92 0.306 0.306 0.501 0.306 0.668 0.139 2.143-0.807l3.784-2.449q0.501-0.334 0.668-0.334 0.278 0-0.39 0.751l-2.115 2.31q-0.89 0.974-0.083 1.030 0.334 0 0.668-0.139 2.866-0.89 5.899-1.837h-0.056q0.362-0.111 1.030-0.32t0.918-0.292h0.056zM20.118 16.007q-0.083-0.111-0.223-0.278t-0.57-0.612-0.89-0.779-1.127-0.612-1.308-0.278q-1.002 0-2.045 0.64t-1.572 1.28l-0.529 0.64q0.223 0.278 0.584 0.71t1.461 1.141 2.101 0.71 2.031-0.64 1.558-1.28zM22.845 25.635v-0.056l0.083-0.083q0.028-0.028 0.056-0.028l0.111-0.083v0.529l-0.028 0.028q-0.083 0.056-0.223 0.139t-0.195 0.139l-0.028-0.111q-0.056-0.083-0.139-0.25 0.056-0.028 0.181-0.111t0.181-0.111zM25.433 20.292l-0.028 0.056-0.056-0.028-0.111-0.028h-0.056l-0.028-0.028-0.056-0.028 0.056-0.056q0.139-0.278 0.362-0.89 0.139 0.083 0.306 0.111-0.056 0.167-0.39 0.89zM8.765 8.995q-0.501 0.529-0.779 0.974l-0.083 0.139-0.056-0.167v-0.083l-0.028-0.056v-0.028h0.028q0.223-0.39 0.64-0.863v-0.028h0.417zM9.266 8.55l-0.028 0.028q-0.056 0-0.056 0.028l-0.139 0.139-0.083-0.028q-0.028 0-0.070-0.014t-0.070-0.014l-0.139-0.028 0.111-0.111q0.64-0.64 1.308-1.085l0.139 0.306q-0.501 0.306-0.974 0.779zM27.214 19.847q0.278 0.083 0.362 0.111-0.306 0.946-1.002 2.17-0.056-0.223-0.195-0.445 0.501-0.863 0.835-1.837zM19.228 25.941l0.083 0.167q-1.113 0.334-1.976 0.445l-0.139 0.028h-0.111v0.056l-0.083-0.028q-0.223 0-0.334 0.028 0.056-0.167 0.056-0.278h0.362l0.167-0.028q0.946-0.083 1.976-0.39zM26.323 16.536h-0.028q-0.028 0.028-0.070 0.083t-0.070 0.083l-0.139 0.111v-0.167q0.028-0.612-0.056-1.252l-0.028-0.167 0.139 0.083q0.028 0 0.028 0.028l0.056 0.028 0.056 0.056q0.056 0.362 0.111 1.085v0.028zM24.376 9.746l0.056 0.111h-0.195q-0.056-0.028-0.083-0.028h-0.056l-0.028-0.028q-0.779-1.391-2.143-2.337l0.139-0.278q1.419 1.057 2.31 2.56zM5.704 14.894q-0.083 0.696-0.028 1.642v0.083q0.028 0.111 0.028 0.39 0 0.028 0.028 0.083-0.056 0.028-0.181 0.083t-0.181 0.083q0-0.028-0.014-0.125t-0.014-0.153q-0.083-1.141 0.083-2.226zM4.174 16.87q0.028 0.39 0.139 0.974l-0.195 0.097t-0.195 0.125q-0.139-0.584-0.167-1.141-0.111-1.447 0.139-3.005l0.39 0.195q-0.195 1.308-0.111 2.755zM6.205 19.374q0.056 0.167 0.125 0.348t0.153 0.403 0.139 0.334l-0.25 0.278q-0.306-0.64-0.501-1.252zM26.323 16.953q0 0.111-0.028 0.167-0.028-0.028-0.111-0.070l-0.139-0.070 0.028-0.028q0.028-0.028 0.070-0.028t0.070-0.028l0.111-0.056v0.111zM19.2 6.212q-0.111-0.028-0.348-0.070t-0.376-0.070h-0.028l-0.083-0.083q-0.083-0.083-0.139-0.111l-0.167-0.167 0.25 0.028q0.751 0.111 1.030 0.195zM27.27 12.167q-0.306-0.918-0.807-1.892 0.139-0.278 0.139-0.473 0.584 1.030 1.030 2.254zM9.433 6.045q-1.948 1.28-3.228 3.228-0.056-0.028-0.139-0.028-0.028-0.028-0.083-0.028-0.195 0.028-0.334 0.111 1.475-2.226 3.617-3.645zM5.203 11.026q-0.167 0.362-0.445 1.141-0.083-0.028-0.195-0.056t-0.195-0.056q0.25-0.835 0.612-1.53l0.083-0.195 0.056 0.223 0.083 0.417v0.056zM26.045 9.217q-0.056 0-0.083 0.028h-0.139q-0.39-0.557-0.918-1.197-0.529-0.668-1.308-1.363l-0.028-0.028v-0.362l0.111 0.083q1.558 1.252 2.616 2.922-0.056-0.028-0.25-0.083zM28.216 14.95q0.111 1.475-0.139 3.033v0.111q-0.139-0.083-0.362-0.195 0.25-1.53 0.139-2.95-0.056-0.557-0.111-0.835 0.223-0.111 0.362-0.167 0.056 0.278 0.111 1.002zM4.814 19.819q0.25 0.779 0.779 1.725v0.056l-0.028 0.083q-0.028 0.028-0.083 0.139l-0.028 0.028v0.056q-0.028 0-0.028 0.028l-0.056 0.111-0.056-0.111q-0.529-0.946-0.918-2.003zM19.979 4.515q-0.918-0.362-1.948-0.529h-0.028l-0.028-0.028 0.028-0.139 0.056 0.028q1.030 0.167 1.976 0.501 0 0.056-0.056 0.167zM19.84 27.277l0.056 0.167q0.028 0 0.028 0.028t0.028 0.056q-2.365 0.835-4.953 0.612h-0.028l-0.028-0.028v-0.111h0.056q2.477 0.167 4.842-0.723zM23.736 24.911q1.030-0.89 2.003-2.17 0.056 0.028 0.167 0.028 0.056 0.028 0.111 0.028 0.056-0.028 0.167-0.028-0.974 1.419-2.31 2.56l-0.111 0.083-0.056-0.473zM15.026 26.637h-0.028l-0.111-0.223-0.056-0.139 0.195 0.028q0.028 0 0.056 0.028h0.056v0.028h0.083q0 0.111 0.056 0.278h-0.25zM7.513 21.99q0.445 0.668 0.946 1.169 0.557 0.612 1.586 1.391-0.028 0.083-0.139 0.306-1.057-0.751-1.725-1.475-0.584-0.668-0.946-1.224zM14.052 26.497q-0.723-0.111-1.447-0.334l0.139-0.306q0.445 0.139 1.224 0.306h0.028l0.056 0.083q0.056 0.111 0.056 0.139l0.083 0.139z"></path>
</svg>
