<!-- Generated by IcoMoon.io -->
<svg version="1.1" xmlns="http://www.w3.org/2000/svg" width="80" height="32" viewBox="0 0 80 32">
<title>pike</title>
<path d="M49.376 23.744v0zM76.096 20.224q-0.16 0.416 0.032 0.752t0.352 0.416-0.064 0.272q-0.192 0.096-1.12 0.192-0.704 0.064-2.048-0.032t-1.504-0.096q-0.704 0-2.224 0.080t-1.52 0.208q0 0.288-0.384 0.288-0.512-0.064-1.344-0.352l-1.152-0.384q-0.48-0.192-1.040-0.272t-1.328-0.096-1.024-0.048q-0.384 0-1.008 0.384t-1.136 0.288q-0.576-0.064-1.168 0.8t-1.136 1.024q-0.128-0.064-0.72-0.384t-1.12-0.576-1.12-0.48-0.992-0.144-0.464 0.464q-0.064 0.32-0.256 0.544t-0.064 0.64-0.064 0.64q-0.416 0.864-1.76 1.024-1.728 0.192-3.2-0.192-0.384-0.096-0.8-0.688t-0.768-0.656q-1.088 0.8-3.12 1.344t-3.248 0.256q0.16-0.224 0.256-0.48t0.128-0.592 0.048-0.576 0-0.656-0.016-0.576q0-0.032 0.064-0.272t0.080-0.4-0.080-0.288q-0.672-0.16-0.768 0.352 0 0.64-1.824 2.144-0.864 0.672-3.488 2.336-2.368 1.472-3.552 2.112-1.088 0.576-2.048 1.472-1.728 1.568-3.168 2.016-0.544 0.192-1.152-0.416-0.608-0.576-0.512-0.928 0.16-0.576 1.12-1.312 3.52-2.976 4.832-4.704 0.16-0.224 0.848-0.576t0.688-0.896q-0.096-0.544-0.704-0.704l-0.096 0.032q0.096-0.224 0.512-1.568 1.056-0.512 1.824-0.96-0.256-0.128-0.768-0.032t-0.768-0.032q0.16-0.448-0.16-0.672-0.128-0.096-0.192-0.736t0.128-0.64q0.224 0 0.224-0.352t0.096-0.448q1.28 0.352 1.952-0.128-0.16-0.128-1.184-0.512-0.96-0.448-1.152-0.288-1.12 0.64-2.016 0.096-0.288-0.192-0.48-0.624t-0.32-0.624q-0.288-0.288-1.008-0.336t-0.944-0.208l-0.24-0.192t-0.208-0.080-0.176 0-0.288 0.064l-0.4 0.080q-0.224 0.064-0.704-0.112t-0.544-0.176q-0.032 0.224-1.392 0.816t-1.488 0.496q1.248-0.992-0.128-2.144-1.12-0.96-1.44-0.992l-4.288-1.376q-3.552-1.216-4.736-1.856-0.512-0.288-0.96-0.832-0.384-0.48-1.056-1.856-0.64-1.344-0.96-1.792-0.384-0.672-1.872-0.912t-1.744-0.88l9.216 1.664q3.392 0.576 3.904 0.736 0.032 0 1.44 0.064 1.28 0.064 1.344 0.16 0.48 0.576 2.912 0.48 2.4-0.128 2.912 0.32 0.384 0.384 1.328 0.768t1.264 0.576q0.128 0.064 1.024 0.656t1.344 0.752q0.512 0.192 2.128 0.128t2.096 0.352q0.512 0.224 1.312 0.064 0.704-0.096 2.4-0.128 1.952-0.096 3.008 0.16 0.128 0.064 0.496 0.16t0.656 0.24 0.416 0.368q0.032 0.416 0.352 0.512 0.064-0.128 0.24-0.192t0.336-0.096 0.288-0.080 0.096-0.144q-0.032 0-0.608-0.544t-1.136-1.168-0.56-0.816q5.216 0.704 9.088 0.672-0.8-0.192-3.52-1.184-2.88-1.088-3.296-1.44-1.152-1.024-0.928-1.184 6.88-0.128 14.496 2.080 0.384 0.128 2.096 0.624t3.104 0.928 1.456 0.624q0.096 0.224 1.248 0.544 0.256 0.064 1.376 0.352 0.416 0.128 0.688 0.432t0.416 0.624 0.4 0.624 0.64 0.432q0.192 0.064 0.256 0.256t0.192 0.256q0.256 0.16 0.928 0.48 0.704 0.256 2.272 1.056 1.664 0.768 1.728 1.024 0.16 0.256 0.416 0.464t0.24 0.288-0.112 0.688q-0.128 0.416-0.544 1.056-0.192 0.224-0.592 1.024t-0.848 1.056-1.248-0.032q-0.096 0.448 0.432 0.688t1.36 0.256 1.552-0.032 1.232-0.144zM22.88 14.112l0.096-0.32q-0.352 0.032-0.736-0.096t-0.448 0-0.064 0.8q0.096 0 0.192-0.032t0.352-0.128 0.608-0.224zM26.656 13.984q0 0.192-0.016 0.288t0.112 0.128 0.208 0.032 0.272-0.016 0.288-0.016q0-0.16-0.4-0.24t-0.464-0.176zM28.128 14.784q0.128 0.608 0.88 0.944t1.424-0.080q-0.48 0-1.024-0.528t-1.28-0.336zM30.752 14.336q0 0.352 0.192 0.48t0.448 0.016 0.416-0.432q-0.16 0-0.384-0.080t-0.32-0.096-0.352 0.112zM33.088 15.648q0.256-0.16 0.416-0.608-0.192 0-0.56-0.096t-0.64-0.080-0.496 0.24q0.96 0.448 1.28 0.544zM33.696 15.904q0-0.064 0.016-0.144l0.032-0.16t0.016-0.144-0.032-0.112-0.096-0.048q-0.16 0.128-0.128 0.336t0.192 0.272zM33.92 15.904q0.224 0.128 0.32-0.192 0.064-0.192-0.096-0.192-0.064 0.16-0.224 0.384zM49.344 23.744h0.032q0.064 0 0.304 0.048t0.352 0.064 0.336 0.032 0.352-0.016 0.288-0.112 0.256-0.208q-0.032-0.064-0.048-0.224t-0.048-0.256-0.112-0.192-0.208-0.096q-0.288 0.32-0.768 0.496t-0.864 0.208-1.024 0.032-0.896 0.032q0.224 0.224 0.56 0.272t0.848-0.016 0.64-0.064zM75.68 20.832v-0.32q-0.384 0.032-1.696 0.032t-1.984 0.128q0 0.032 0.080 0.048t0.288 0.032 0.496 0.032 0.736 0.016 0.928 0.016 1.152 0.016z"></path>
</svg>
