<!-- Generated by IcoMoon.io -->
<svg version="1.1" xmlns="http://www.w3.org/2000/svg" width="32" height="32" viewBox="0 0 32 32">
<title>platform_playstation</title>
<path d="M12.215 3.668v23.127l5.004 1.537v-19.306c0-0.512 0.064-0.886 0.276-1.103 0.212-0.295 0.409-0.325 0.709-0.197 0.724 0.212 1.064 0.867 1.064 1.931v7.762c1.62 0.768 3.073 0.847 4.137 0.039 1.108-0.768 1.694-2.132 1.694-4.176 0-2.132-0.399-3.777-1.34-4.846-0.852-1.147-2.354-2.068-4.57-2.837-2.768-0.896-5.097-1.537-6.974-1.931zM10.679 17.655l-0.985 0.315-6.186 2.206-1.064 0.433c-1.62 0.68-2.487 1.409-2.443 2.049 0.084 0.936 1.152 1.615 3.073 2.128 2.492 0.67 5.019 0.822 7.604 0.433v-2.64l-0.985 0.355-1.103 0.433-1.773 0.355-1.694-0.197c-0.34-0.217-0.453-0.458-0.236-0.67 0.212-0.128 0.527-0.305 0.867-0.433l1.143-0.394 3.782-1.34zM25.020 18.876c-0.463-0.020-0.931 0.020-1.379 0.039-1.655 0.034-3.354 0.305-5.122 0.867v3.113l5.319-1.852c0 0 0.685-0.182 1.182-0.315 0.763-0.202 1.576 0.079 1.576 0.079 0.468 0.039 0.704 0.217 0.788 0.433 0.084 0.256-0.227 0.453-0.867 0.67l-1.576 0.63-6.422 2.285v3.034l10.204-3.625 0.867-0.394c1.709-0.64 2.487-1.315 2.403-2.167-0.044-0.813-1.015-1.453-2.719-2.009-1.438-0.483-2.871-0.734-4.255-0.788z"></path>
</svg>
