<!-- Generated by IcoMoon.io -->
<svg version="1.1" xmlns="http://www.w3.org/2000/svg" width="87" height="32" viewBox="0 0 87 32">
<title>pulse_rifle</title>
<path d="M82.528 9.728l0.256 0.288v2.656l-0.416 0.416h-13.92l0.512 0.512h1.28v1.6l-0.128 0.704-0.416 0.736-0.576 0.448-0.672 0.288h-22.816l-1.376 0.352-1.12 0.704-1.024 0.8-0.448 0.576-2.304 6.432-0.512 0.992-0.672 0.608-0.992 0.608-1.152 0.128-1.344-0.128-9.92-2.784-0.416-0.16-0.16-0.48 1.088-0.448 0.32-1.824 0.704-1.792 1.12-1.952 1.408-1.664 0.736-0.768 0.192-0.64-0.128-0.672-0.416-0.576-1.056-0.512-1.248-0.16-3.2-0.096v0.672l-0.672 0.352 0.96 9.664-0.352 0.576-2.144 0.256-0.448-0.32-0.448 0.064-0.32 0.384-3.648 0.352-0.224-0.256-0.608 0.064-0.192 0.288-1.76 0.192-0.384-0.256-0.64-3.968-0.608-0.032-0.128-1.152h-0.32l-0.544-0.704h-3.712v0.224l-3.264 0.96-0.48-0.48 0.32-4 0.064-3.584-0.096-4-0.096-3.040 0.192-0.832 0.192-0.16h1.536l0.224 0.224h1.376l0.384 0.736h21.696l1.984-0.928h-0.864l-0.416-0.384 1.472-3.232 0.48-0.32h7.136l0.608 0.256 0.448 0.512 0.128 0.768v1.184l0.384 0.352v0.352l-0.736 0.736h-0.832v0.704h5.152l1.696 0.448 22.304 0.96 0.416 0.32v0.992l-0.64 0.64 0.224 0.224h14.016zM41.28 17.248v-0.384l-0.128-0.448-0.32-0.256h-4.672l-0.16 0.736 0.192 0.928 0.352 0.576-0.288 0.352-0.448-0.384-0.352-0.672-0.256-0.8-0.128-0.736-0.288 0.096-0.32 0.32-0.32 0.672 0.064 0.672 0.352 0.672 0.736 0.48-0.128 0.576-0.448-0.032-0.704 0.064-0.48 0.192-0.512 0.608-0.256 0.896-0.16 1.088-0.352 0.16-0.448 0.48-0.352 0.544-0.608 1.696 4.16 1.6 0.896 0.256h0.928l0.672-0.288 0.48-0.48 3.168-8.704zM65.088 13.344v-0.896h-13.728v0.896h13.728z"></path>
</svg>
