<!-- Generated by IcoMoon.io -->
<svg version="1.1" xmlns="http://www.w3.org/2000/svg" width="32" height="32" viewBox="0 0 32 32">
<title>quest2</title>
<path fill="#303da1" d="M28.067 29.335v-27.734h-24.153v27.734l12.077-6.174 12.077 6.174z"></path>
<path fill="#fff" d="M2.273 32v-0.5q0-14.219 0.022-28.43c0-1.123-0.31-2.036-1.135-2.781-0.084-0.078-0.155-0.169-0.265-0.289h30.211c-0.149 0.156-0.266 0.287-0.392 0.406-0.706 0.676-1.015 1.488-1.014 2.478q0.027 14.324 0.014 28.64v0.475l-13.719-6.858zM3.914 1.601v27.734l12.077-6.174 12.077 6.174v-27.734z"></path>
<path fill="#fff" d="M22.195 15.529h-12.406c-0.135-0.473-0.274-0.95-0.406-1.429-0.273-0.979-0.546-1.953-0.795-2.941-0.026-0.108-0.041-0.233-0.041-0.361 0-0.002 0-0.003 0-0.005v0c0-0.002 0-0.004 0-0.005 0-0.124 0.014-0.245 0.040-0.361l-0.002 0.011-0.002 0.011c0.102-0.502 0.25-0.995 0.406-1.594l1.117 1.839c-0.091 0.149-0.179 0.286-0.26 0.427-0.262 0.456-0.1 0.953 0.392 1.147 0.821 0.324 1.675 0.271 2.528 0.177 0.363-0.044 0.689-0.116 1.003-0.214l-0.039 0.011-0.039 0.010c0.896-0.261 1.314-1.011 1.031-1.906-0.128-0.406-0.351-0.781-0.553-1.221l1.826-3.292 1.796 3.244c-0.215 0.569-0.472 1.041-0.563 1.545-0.15 0.813 0.25 1.393 1.041 1.622 0.556 0.171 1.196 0.269 1.859 0.269 0.007 0 0.015 0 0.022-0h-0.001c0 0 0.001 0 0.001 0 0.429 0 0.849-0.040 1.256-0.117l-0.042 0.007-0.041 0.006c0.844-0.147 1.258-0.805 0.668-1.534-0.033-0.048-0.067-0.103-0.097-0.161l-0.004-0.009-0.004-0.009c0.351-0.58 0.702-1.167 1.053-1.755h0.091c0.094 0.836 0.632 1.576 0.319 2.512-0.411 1.238-0.711 2.514-1.059 3.774-0.029 0.101-0.063 0.199-0.096 0.302z"></path>
<path fill="#fff" d="M22.198 16.165v0.898h-12.394v-0.898z"></path>
<path fill="#fff" d="M5.917 17.063v-0.9h2.013v0.9z"></path>
<path fill="#fff" d="M26.061 17.073h-2.003v-0.906h2.003z"></path>
</svg>
