<!-- Generated by IcoMoon.io -->
<svg version="1.1" xmlns="http://www.w3.org/2000/svg" width="32" height="32" viewBox="0 0 32 32">
<title>raid2</title>
<path d="M24.329 19.698l0.424-1.698c-0.242-0.125-0.36-0.322-0.41-0.576-0.125-0.646-0.262-1.291-0.392-1.934-0.074-0.368-0.061-0.432 0.134-0.752l-0.612-1.571c-0.020-0.015-0.031-0.030-0.042-0.031-0.271-0.023-0.45-0.184-0.614-0.385-0.372-0.458-0.753-0.908-1.132-1.359-0.319-0.379-0.322-0.383-0.307-0.877-0.402-0.212-0.811-0.428-1.216-0.642l-0.226 0.074c-0.050 0.018-0.108 0.029-0.168 0.029-0.064 0-0.126-0.012-0.182-0.034l0.003 0.001q-0.812-0.313-1.624-0.627c-0.007-0.052-0.010-0.112-0.010-0.173 0-0.083 0.007-0.164 0.020-0.244l-0.001 0.009 1.725 0.674c-0.088-0.216-0.094-0.395 0.005-0.567s0.261-0.261 0.466-0.284c-0.012-0.097-0.078-0.118-0.139-0.142q-0.25-0.1-0.5-0.199-0.706-0.277-1.412-0.553c-0.051-0.020-0.1-0.046-0.152-0.070-0.008-0.067-0.012-0.145-0.012-0.224 0-0.055 0.002-0.109 0.006-0.162l-0 0.007c0.214 0.038 0.387 0.125 0.567 0.196 0.503 0.196 1 0.411 1.509 0.589 0.365 0.125 0.572 0.348 0.593 0.75l0.58 0.308c0.257 0.136 0.515 0.271 0.771 0.408 0.164 0.088 0.322 0.171 0.521 0.167 0.183-0.003 0.322 0.109 0.438 0.25 0.319 0.384 0.64 0.767 0.961 1.15 0.111 0.133 0.216 0.273 0.333 0.398 0.271 0.286 0.333 0.597 0.133 0.955 0.242 0.625 0.486 1.25 0.727 1.871 0.042 0.034 0.093 0.033 0.139 0.048 0.25 0.085 0.413 0.254 0.467 0.512 0.117 0.556 0.227 1.113 0.34 1.669 0.029 0.142 0.055 0.285 0.090 0.427 0.078 0.319-0.019 0.572-0.277 0.769-0.021 0.017-0.042 0.035-0.067 0.058 0.046 0.299-0.074 0.572-0.14 0.853-0.109 0.465-0.23 0.927-0.347 1.393 0.022 0.044 0.045 0.086 0.064 0.13 0.087 0.208 0.093 0.417-0.013 0.621q-0.502 0.967-1.008 1.935c-0.149 0.286-0.402 0.385-0.729 0.379l-1.063 1.666c0 0.042-0.003 0.076 0 0.11 0.021 0.239-0.066 0.431-0.245 0.589-0.521 0.458-1.050 0.908-1.557 1.381-0.274 0.256-0.684 0.277-0.952 0.077-0.016-0.012-0.035-0.022-0.054-0.034l-1.779 0.346v-1.070l1.297-0.256c0.045-0.225 0.208-0.366 0.37-0.509q0.744-0.651 1.481-1.309c0.12-0.111 0.28-0.179 0.457-0.179 0.028 0 0.056 0.002 0.083 0.005l-0.003-0c0.055 0.005 0.109 0.012 0.178 0.020l0.884-1.383c0.012-0.1-0.039-0.165-0.049-0.241-0.003-0.028-0.005-0.061-0.005-0.094 0-0.149 0.040-0.289 0.111-0.41l-0.002 0.004c0.302-0.576 0.607-1.151 0.899-1.733 0.137-0.277 0.316-0.487 0.664-0.504zM24.957 17.653c0.142-0.077 0.292-0.083 0.446-0.064 0.242 0.029 0.407-0.158 0.357-0.402q-0.208-1.028-0.424-2.054c-0.047-0.225-0.103-0.27-0.348-0.312-0.28 0.172-0.28 0.172-0.6 0.191-0.125 0.097-0.104 0.228-0.077 0.359 0.050 0.244 0.101 0.488 0.152 0.732q0.133 0.641 0.266 1.281c0.025 0.122 0.079 0.221 0.228 0.269zM24.238 20.106c-0.103 0.031-0.142 0.104-0.181 0.179-0.104 0.202-0.208 0.405-0.314 0.607-0.216 0.417-0.434 0.833-0.648 1.25-0.040 0.077-0.094 0.157-0.025 0.25 0.014-0.001 0.029-0.001 0.045-0.001 0.137 0 0.266 0.039 0.374 0.107l-0.003-0.002c0.13 0.083 0.171 0.227 0.246 0.341 0.15-0.014 0.235-0.092 0.296-0.212q0.484-0.939 0.973-1.874c0.039-0.075 0.068-0.15 0.023-0.233-0.399 0.106-0.607-0.002-0.787-0.41zM19.97 26.677c0.221 0.173 0.319 0.174 0.517 0 0.521-0.458 1.039-0.916 1.559-1.375 0.053-0.037 0.090-0.092 0.104-0.156l0-0.002c-0.177-0.017-0.333-0.073-0.458-0.208-0.135-0.149-0.109-0.333-0.118-0.505-0.105-0.023-0.167 0.032-0.231 0.089l-1.541 1.366c-0.050 0.044-0.107 0.083-0.121 0.152 0.256 0.203 0.289 0.276 0.289 0.638zM21.761 10.734c-0.031 0.134 0.051 0.208 0.116 0.287 0.363 0.437 0.726 0.875 1.094 1.309 0.097 0.115 0.18 0.245 0.313 0.349 0.005-0.214 0.076-0.379 0.244-0.493s0.361-0.108 0.555-0.051c0.016-0.093-0.031-0.145-0.074-0.197q-0.679-0.816-1.36-1.628c-0.047-0.057-0.094-0.118-0.178-0.123-0.116 0.469-0.302 0.56-0.71 0.547z"></path>
<path d="M15.133 24.006c0.583-0.35 1.163-0.336 1.758 0v0.775c0 1.166 0.012 2.33-0.004 3.494-0.013 0.978-0.11 1.949-0.345 2.902-0.052 0.208-0.113 0.414-0.233 0.597-0.030 0.050-0.063 0.094-0.099 0.133l0-0.001c-0.125 0.125-0.279 0.125-0.405 0-0.055-0.059-0.102-0.126-0.137-0.201l-0.002-0.005c-0.154-0.299-0.229-0.625-0.287-0.95-0.164-0.876-0.257-1.884-0.257-2.914 0-0.058 0-0.116 0.001-0.174l-0 0.009c0.008-1.151 0-2.302 0-3.453 0.002-0.076-0.012-0.153 0.010-0.213z"></path>
<path d="M28.168 3.769c-0.138 0.217-0.323 0.395-0.49 0.588q-1.691 1.958-3.39 3.913-0.545 0.629-1.089 1.257c-0.023 0.026-0.042 0.056-0.069 0.095-0.238-0.174-0.491-0.244-0.762-0.282-0.142-0.020-0.279-0.11-0.406-0.215l4.128-3.598q0.987-0.861 1.974-1.721c0.025-0.019 0.053-0.037 0.083-0.054l0.003-0.002c0.006 0.006 0.012 0.012 0.017 0.018l0 0z"></path>
<path d="M9.545 21.576c0.592-0.684 1.18-1.362 1.794-2.069 0.004 0.739 0.020 1.436 0.050 2.142l-1.433 1.25-0.191-0.301c0.104-0.372-0.033-0.701-0.22-1.021z"></path>
<path d="M3.916 28.085c0.192-0.264 0.419-0.5 0.631-0.744q1.612-1.864 3.229-3.725c0.014-0.017 0.028-0.037 0.040-0.058l0.002-0.003 0.352 0.096c0.1 0.158 0.208 0.327 0.31 0.488-0.015 0.052-0.048 0.096-0.091 0.124l-0.001 0q-2.148 1.871-4.297 3.742c-0.047 0.042-0.097 0.078-0.146 0.117z"></path>
<path d="M12.133 19.885c-0.029-0.042-0.061-0.015-0.087 0-0.080 0.051-0.157 0.106-0.236 0.16-0.050-0.042-0.029-0.094-0.030-0.139-0.006-0.245-0.012-0.49-0.012-0.735 0-0.185 0.029-0.23 0.185-0.33 0.343 0.125 0.368 0.454 0.458 0.741 0.007 0.067-0.088 0.076-0.076 0.14l0.004-0.005c-0.062-0.003-0.125-0.007-0.086 0.088l0.005-0.004c-0.083-0.025-0.132 0.008-0.13 0.087z"></path>
<path d="M13.106 23.573c0.007-0.008 0.017-0.014 0.028-0.014 0.009 0 0.017 0.003 0.023 0.009l-0-0c-0.014 0.041-0.032 0.025-0.051 0.005z"></path>
<path d="M3.884 3.765c0.022 0 0.041 0.016 0.045 0.038l0 0-0.036 0.026-0.027-0.042z"></path>
<path d="M3.764 3.634l-0.042-0.035h-0.004l0.042 0.039z"></path>
<path d="M3.806 3.676c-0.038 0.010-0.047-0.009-0.042-0.042l-0.006 0.005 0.042 0.042z"></path>
<path d="M3.8 3.682l0.042 0.042 0.006-0.004c-0.059 0.025-0.045-0.014-0.042-0.045z"></path>
<path d="M28.211 3.729v-0.033l0.025 0.008-0.029 0.020z"></path>
<path d="M3.866 3.786c-0.024-0.016-0.053-0.031-0.020-0.065l-0.006 0.004c0.023 0 0.042 0.019 0.042 0.042v0z"></path>
<path d="M28.207 3.724c0 0.002 0 0.003 0 0.005 0 0.022-0.017 0.039-0.039 0.039v0c-0.006-0.006-0.012-0.011-0.018-0.016l-0-0c0.014-0.024 0.030-0.042 0.061-0.023z"></path>
<path d="M3.722 3.598l-0.013-0.005 0.010 0.007 0.004-0.002z"></path>
<path d="M3.945 28.124l-0.042 0.031c-0.008-0.008-0.017-0.017-0.025-0.025 0-0 0-0 0-0.001 0-0.022 0.016-0.041 0.037-0.045l0-0z"></path>
<path d="M3.904 28.155c-0.016 0.019-0.030 0.042-0.061 0.023l-0.003-0.002c-0-0.001-0-0.002-0-0.003 0-0.022 0.017-0.040 0.038-0.042h0c0.009 0.008 0.017 0.016 0.025 0.025z"></path>
<path d="M3.843 28.177c0.010 0.015 0.009 0.029-0.005 0.033s-0.018-0.007-0.027-0.011l0.029-0.024z"></path>
<path d="M12.959 19.258h-0.083c-0.016-0.26-0.081-0.501-0.184-0.72l0.005 0.012c-0.111-0.227-0.252-0.421-0.422-0.587l-0-0c-0.179-0.175-0.406-0.285-0.616-0.458-0.009 0.001-0.019 0.001-0.029 0.001-0.050 0-0.097-0.010-0.14-0.029l0.002 0.001c-0.068-0.031-0.147-0.056-0.23-0.073l-0.007-0.001c-0.125-0.024-0.255-0.022-0.359 0.061-0.176 0.133-0.318 0.301-0.419 0.494l-0.004 0.008c-0.023 0.052-0.037 0.112-0.037 0.175 0 0.039 0.005 0.077 0.015 0.113l-0.001-0.003c0.042 0.163 0.114 0.306 0.21 0.429l-0.002-0.003c0.076 0.103 0.147 0.22 0.207 0.343l0.006 0.013c0.047 0.101 0.087 0.205 0.046 0.327-0.105 0.095-0.215 0.042-0.322-0.005-0.141-0.064-0.253-0.169-0.362-0.275-0.178-0.177-0.328-0.381-0.445-0.605l-0.006-0.013c-0.064-0.121-0.053-0.258-0.135-0.375 0.187-0.107 0.31-0.269 0.512-0.307 0.067-0.013 0.098-0.075 0.137-0.122 0.146-0.175 0.338-0.279 0.544-0.358 0.085-0.039 0.155-0.101 0.202-0.178l0.001-0.002c0.218-0.002 0.221-0.233 0.363-0.304-0.122 0.018-0.204 0.104-0.292 0.173-0.201 0.159-0.427 0.311-0.664 0.447l-0.027 0.014c-0.11 0.063-0.237 0.115-0.371 0.15l-0.011 0.002c-0.032-0.132 0.077-0.203 0.13-0.298l0.029-0.016c-0.007-0.005-0.014-0.013-0.022-0.014s-0.018 0.009-0.014 0.024l-0.214 0.015c-0.066 0.042-0.095 0.090-0.067 0.16 0.104 0.034 0.104 0.034 0.162 0.125-0.1 0.115-0.248 0.167-0.373 0.292-0.032-0.147-0.004-0.273 0.015-0.397 0.052-0.292 0.121-0.547 0.21-0.793l-0.010 0.033c0.113-0.345 0.159-0.7 0.187-1.058 0.042-0.544 0.062-1.090 0.065-1.636 0-0.167 0.016-0.33 0.025-0.491l0.167-0.16c0.023-0.008 0.042-0.018 0.039-0.047 0.004 0 0.008 0.001 0.012 0.001 0.031 0 0.059-0.013 0.079-0.034l0-0c0.109-0.071 0.237-0.114 0.329-0.212 0.208-0.067 0.367-0.208 0.524-0.35-0.194 0.088-0.383 0.184-0.524 0.349-0.087-0.027-0.149 0.053-0.23 0.045-0.025 0.067-0.111 0.090-0.095 0.172-0.008-0.003-0.017-0.005-0.026-0.005-0.027 0-0.051 0.016-0.062 0.039l-0 0c-0.022 0.008-0.044 0.016-0.042 0.047-0.033-0.009-0.070 0.007-0.103-0.026 0.045-0.149 0.16-0.238 0.296-0.292 0.233-0.087 0.418-0.254 0.527-0.468l0.003-0.005c0.046-0.091 0.141-0.132 0.205-0.222-0.042-0.096 0.026-0.169 0.078-0.247 0.55-0.812 1.303-1.448 2.187-1.843l0.033-0.013c0.833-0.375 1.705-0.601 2.619-0.549 1.375 0.077 2.612 0.528 3.656 1.451 0.435 0.389 0.799 0.847 1.077 1.358l0.013 0.027c0.123 0.225 0.283 0.404 0.532 0.5 0.289 0.111 0.396 0.355 0.407 0.644 0.012 0.305 0 0.611 0.015 0.916 0.027 0.601 0.033 1.206 0.164 1.798 0.047 0.216 0.109 0.429 0.175 0.641 0.071 0.231 0.123 0.501 0.147 0.78l0.001 0.015c0.003 0.028 0.005 0.061 0.005 0.095 0 0.113-0.020 0.221-0.058 0.321l0.002-0.006c-0.159 0.429-0.437 0.783-0.793 1.033l-0.007 0.005c-0.059 0.041-0.128 0.074-0.201 0.095l-0.005 0.001c-0.022 0.009-0.047 0.014-0.073 0.014-0.054 0-0.102-0.021-0.138-0.056l0 0c-0.044-0.115-0.005-0.22 0.042-0.321 0.059-0.123 0.123-0.228 0.195-0.326l-0.004 0.005c0.081-0.11 0.152-0.235 0.207-0.369l0.004-0.012c0.024-0.055 0.039-0.12 0.039-0.188 0-0.115-0.041-0.221-0.109-0.303l0.001 0.001c-0.085-0.109-0.178-0.212-0.27-0.316-0.078-0.091-0.193-0.149-0.322-0.149-0.048 0-0.094 0.008-0.137 0.023l0.003-0.001c-0.795 0.233-1.349 0.717-1.563 1.541-0.021 0.085-0.033 0.182-0.033 0.282 0 0.091 0.010 0.179 0.029 0.264l-0.002-0.008c0.058 0.297 0.042 0.594 0.042 0.892 0 0.188-0.047 0.266-0.164 0.301-0.163 0.050-0.347 0.004-0.437-0.114-0.096-0.125-0.133-0.272-0.159-0.424-0.008-0.047-0.010-0.097-0.014-0.145-0.064-0.679-0.473-1.102-1.048-1.391-0.319-0.161-0.67-0.226-1.024-0.25-0.104-0.009-0.225-0.014-0.346-0.014-0.376 0-0.741 0.049-1.089 0.141l0.030-0.007c-0.562 0.144-1.018 0.514-1.272 1.006l-0.005 0.011c-0.063 0.114-0.104 0.249-0.113 0.393l-0 0.003c-0.012 0.193-0.032 0.387-0.118 0.566-0.092 0.189-0.212 0.257-0.417 0.237-0.174-0.017-0.252-0.087-0.253-0.265 0-0.292-0.030-0.583 0.034-0.871 0.006-0.030 0.010-0.065 0.012-0.1l0-0.001c0.025-0.11 0.107-0.117 0.133-0.176 0.023-0.014 0.057-0.023 0.023-0.060 0.027 0.021 0.034 0.011 0.034-0.026l-0.027 0.031c-0.001-0-0.001-0-0.002-0-0.022 0-0.040 0.017-0.041 0.038v0zM12.382 16.311c-0.015 0-0.034-0.010-0.037 0.016 0.025 0.014 0.028-0.005 0.034-0.021l0.007-0.008zM9.958 17.174c0.026 0.020 0.033 0.007 0.032-0.019l-0.025 0.024c-0.026 0.005-0.052 0.010-0.037 0.047-0.022-0.004-0.044-0.009-0.055 0.020 0.030 0.009 0.042-0.003 0.050-0.025 0.024-0.006 0.064 0 0.036-0.046zM10.307 17.020c-0.029-0.020-0.053-0.019-0.071 0.015 0.033 0.018 0.050 0 0.064-0.020l0.031-0.029c-0.035-0.001-0.049 0.005-0.024 0.034zM11.915 16.215c0.042 0.014 0.074 0.010 0.089-0.036 0.003 0 0.006 0.001 0.010 0.001 0.040 0 0.073-0.031 0.076-0.071v-0c-0.050 0.006-0.092 0.008-0.083 0.075-0.008-0.005-0.018-0.007-0.029-0.007-0.028 0-0.051 0.019-0.058 0.044l-0 0c-0.012 0.006-0.038 0-0.027 0.030 0.028-0.001 0.032-0.015 0.022-0.035zM12.29 15.965c0.026 0.004 0.057 0.023 0.065-0.023-0.005-0.003-0.012-0.004-0.019-0.004-0.020 0-0.036 0.014-0.041 0.032l-0 0-0.009 0.008c-0.002 0.010 0-0.001 0.002-0.013zM10.963 16.843c0.026-0.042 0.114 0 0.11-0.083-0.12-0.069-0.062 0.071-0.104 0.091-0.010 0.008-0.042-0.011-0.029 0.026zM11.594 16.433c0.106-0.012 0.169-0.089 0.256-0.162h-0.147c-0.015 0.070-0.097 0.089-0.115 0.158-0.054 0.026-0.12 0.039-0.156 0.143 0.082-0.046 0.17-0.029 0.161-0.14zM17.835 12.553c-0.029-0.004-0.062-0.007-0.095-0.007-0.040 0-0.079 0.004-0.117 0.010l0.004-0.001c-0.195 0.019-0.255 0.074-0.279 0.266-0.002 0.016-0.003 0.034-0.003 0.052s0.001 0.036 0.003 0.054l-0-0.002c0.027 0.379 0.025 0.76 0.067 1.139 0.021 0.202 0.111 0.379 0.246 0.51l0 0c0.26 0.26 0.585 0.392 0.934 0.465 0.397 0.094 0.874 0.167 1.36 0.206l0.035 0.002c0.020 0.001 0.044 0.001 0.068 0.001 0.151 0 0.298-0.020 0.437-0.057l-0.012 0.003c0.155-0.032 0.28-0.139 0.335-0.281l0.001-0.003c0.16-0.417 0.155-0.833-0.083-1.216s-0.616-0.617-1.038-0.756c-0.542-0.185-1.175-0.322-1.829-0.385l-0.035-0.003zM14.597 12.621c-0.051-0.043-0.117-0.069-0.189-0.069-0.001 0-0.002 0-0.003 0h0c-0.040-0.002-0.087-0.003-0.134-0.003-0.128 0-0.254 0.009-0.378 0.026l0.014-0.002c-0.384 0.054-0.761 0.144-1.138 0.232-0.449 0.105-0.87 0.269-1.225 0.579-0.401 0.351-0.508 0.791-0.423 1.295 0.016 0.082 0.040 0.155 0.071 0.223l-0.002-0.006c0.058 0.151 0.187 0.264 0.345 0.298l0.003 0.001c0.13 0.032 0.279 0.051 0.432 0.051 0.021 0 0.043-0 0.064-0.001l-0.003 0c0.464-0.025 0.92-0.11 1.375-0.202 0.3-0.061 0.583-0.167 0.83-0.362 0.197-0.156 0.341-0.34 0.365-0.602 0.041-0.373 0.064-0.806 0.064-1.244 0-0 0-0 0-0v0c-0.002-0.080-0.028-0.154-0.071-0.215l0.001 0.001zM14.969 15.584c0 0.117-0.004 0.235 0 0.353 0.007 0.076 0.020 0.146 0.038 0.213l-0.002-0.009c0.030 0.136 0.072 0.268 0.177 0.368 0.056 0.060 0.135 0.097 0.222 0.097s0.167-0.037 0.222-0.097l0-0c0.044-0.044 0.079-0.097 0.125-0.14 0.153-0.152 0.364-0.149 0.517 0.006 0.044 0.044 0.080 0.095 0.125 0.138 0.055 0.057 0.133 0.093 0.219 0.093 0.082 0 0.156-0.032 0.21-0.085l-0 0c0.081-0.074 0.139-0.171 0.166-0.28l0.001-0.004c0.053-0.194 0.083-0.417 0.083-0.647 0-0.040-0.001-0.080-0.003-0.12l0 0.006c-0.027-0.628-0.267-1.182-0.619-1.692-0.060-0.087-0.132-0.16-0.213-0.222l-0.002-0.002c-0.152-0.114-0.256-0.116-0.42-0.018-0.108 0.066-0.196 0.154-0.262 0.257l-0.002 0.003c-0.086 0.134-0.172 0.269-0.245 0.41-0.222 0.43-0.37 0.881-0.339 1.372zM13.591 18.936c0.165 0.003 0.194-0.023 0.234-0.217-0.112 0.050-0.197 0.102-0.234 0.219zM11.998 16.536c0.13-0.032 0.13-0.032 0.212-0.133-0.13 0.032-0.13 0.032-0.212 0.133zM13.218 19.16c0.006 0.001 0.013 0.001 0.021 0.001 0.058 0 0.111-0.021 0.152-0.057l-0 0c0.031-0.022 0.042-0.055 0-0.080-0.109 0.047-0.109 0.047-0.172 0.136zM11.712 16.727c-0.083-0.014-0.102 0.034-0.135 0.062 0.050 0.006 0.086-0.017 0.135-0.062zM9.854 18.114c0.022 0.030 0.037 0.075 0.097 0.042-0.015-0.058-0.046-0.070-0.097-0.042zM10.879 16.911c-0.069-0.015-0.102-0.008-0.113 0.042 0.044 0.013 0.059-0.030 0.113-0.042zM11.644 15.745l-0.037 0.006c0.004 0.011-0.037 0.019-0.003 0.028 0.009 0.002 0.025-0.021 0.040-0.034zM10.244 17.994c-0.015-0.025-0.032-0.015-0.049 0 0.016 0.023 0.032 0.014 0.049 0zM10.174 17.060c-0.042-0.004-0.062-0.015-0.066 0.021 0.020 0.017 0.035 0.012 0.066-0.020zM13.488 19.407c0.013-0.013 0.030-0.025 0.011-0.046-0.002-0.001-0.005-0.002-0.008-0.002s-0.006 0.001-0.008 0.002l0-0c-0.021 0.017-0.010 0.032 0.005 0.046zM12.647 17.866c0.014 0.005 0.029 0.028 0.037-0.004zM11.238 16.646l-0.015 0.012c0.005 0.005 0.009 0.012 0.014 0.012s0.010-0.007 0.015-0.011zM11.33 16.616c-0.009-0.018-0.020-0.019-0.029 0 0 0 0.009 0.012 0.014 0.012s0.010-0.009 0.015-0.013zM12.161 16.071c-0.004-0.004-0.008-0.011-0.012-0.011s-0.009 0.007-0.013 0.011l0.019 0.012zM12.278 16.381l0.015-0.012-0.014-0.013-0.015 0.019z"></path>
<path d="M9.288 22.646l0.89 1.392c0.023 0.007 0.037 0.016 0.049 0.014 0.313-0.066 0.56 0.039 0.791 0.254 0.49 0.452 0.996 0.886 1.496 1.325 0.115 0.106 0.201 0.241 0.245 0.394l0.002 0.006 1.294 0.255v1.069l-1.783-0.345c-0.134 0.095-0.296 0.178-0.495 0.172-0 0-0 0-0 0-0.175 0-0.335-0.066-0.456-0.173l0.001 0.001q-0.817-0.724-1.633-1.45c-0.139-0.118-0.227-0.292-0.227-0.488 0-0.010 0-0.019 0.001-0.029l-0 0.001c0-0.048 0-0.097 0-0.167l-1.046-1.635c-0.050-0.031-0.092-0.020-0.133-0.022-0.277-0.017-0.487-0.136-0.617-0.39-0.33-0.64-0.666-1.277-0.995-1.916-0.053-0.093-0.085-0.205-0.085-0.324 0-0.115 0.029-0.223 0.081-0.317l-0.002 0.003c0.019-0.037 0.034-0.075 0.051-0.114-0.155-0.625-0.307-1.25-0.464-1.874-0.031-0.123-0.051-0.243-0.018-0.367-0.014-0.018-0.028-0.033-0.044-0.048l-0-0c-0.295-0.202-0.375-0.483-0.302-0.821 0.14-0.664 0.276-1.328 0.417-1.993 0.075-0.358 0.205-0.489 0.619-0.627l0.723-1.861c-0.030-0.104-0.086-0.186-0.098-0.284-0.028-0.224 0.015-0.423 0.167-0.6 0.271-0.315 0.535-0.637 0.801-0.958 0.169-0.202 0.339-0.403 0.505-0.608 0.222-0.273 0.36-0.339 0.722-0.329l1.65-0.869c0.005-0.035 0.010-0.062 0.011-0.088 0.020-0.3 0.172-0.504 0.451-0.614q0.387-0.152 0.774-0.303c0.399-0.157 0.798-0.315 1.198-0.47 0.069-0.027 0.136-0.072 0.224-0.049 0.024 0.118 0.008 0.234 0.010 0.342-0.070 0.072-0.155 0.083-0.231 0.115q-0.888 0.352-1.778 0.699c-0.083 0.033-0.175 0.053-0.208 0.152 0.5 0.189 0.618 0.385 0.49 0.858 0.58-0.203 1.127-0.442 1.698-0.649 0.064 0.125 0.013 0.25 0.034 0.372-0.191 0.115-0.4 0.171-0.595 0.254-0.274 0.116-0.559 0.206-0.831 0.327-0.257 0.114-0.504 0.147-0.763-0.006l-1.25 0.658c0.008 0.069 0.014 0.123 0.019 0.177 0.003 0.023 0.004 0.049 0.004 0.076 0 0.164-0.059 0.313-0.158 0.429l0.001-0.001c-0.458 0.549-0.916 1.095-1.375 1.645-0.136 0.165-0.334 0.275-0.558 0.291l-0.003 0c-0.208 0.531-0.414 1.060-0.622 1.592 0.010 0.027 0.021 0.051 0.035 0.073l-0.001-0.001c0.153 0.19 0.16 0.408 0.115 0.633-0.071 0.353-0.147 0.704-0.22 1.057-0.062 0.298-0.135 0.595-0.184 0.895-0.042 0.263-0.152 0.472-0.412 0.611q0.208 0.843 0.417 1.684c0.046 0.012 0.079 0.022 0.112 0.027 0.214 0.033 0.391 0.168 0.482 0.352l0.002 0.004c0.329 0.632 0.654 1.267 0.987 1.897 0.060 0.103 0.095 0.226 0.095 0.358 0 0.118-0.028 0.23-0.079 0.328l0.002-0.004zM7.047 14.818c-0.252 0.046-0.328 0.11-0.368 0.3q-0.167 0.803-0.333 1.606c-0.035 0.17-0.076 0.339-0.096 0.51-0.024 0.208 0.135 0.386 0.33 0.358 0.042-0.007 0.089-0.011 0.138-0.011 0.127 0 0.247 0.026 0.356 0.073l-0.006-0.002c0.157-0.051 0.198-0.164 0.225-0.292 0.095-0.461 0.192-0.921 0.287-1.382 0.042-0.21 0.090-0.42 0.127-0.631 0.022-0.122 0.042-0.25-0.1-0.348-0.030 0.005-0.064 0.008-0.099 0.008-0.18 0-0.343-0.072-0.462-0.189l0 0zM6.983 20.518c-0.032 0.094 0 0.163 0.035 0.23 0.056 0.111 0.114 0.221 0.172 0.333 0.267 0.515 0.537 1.029 0.801 1.545 0.066 0.128 0.158 0.201 0.312 0.211 0.041-0.145 0.128-0.266 0.243-0.35l0.002-0.001c0.128-0.090 0.288-0.072 0.422-0.115 0.007-0.021 0.011-0.044 0.011-0.069 0-0.045-0.013-0.088-0.036-0.123l0.001 0.001q-0.5-0.966-1.005-1.931c-0.030-0.071-0.090-0.124-0.165-0.142l-0.002-0c-0.113 0.382-0.423 0.519-0.79 0.411zM12.34 26.039c-0.036-0.087-0.093-0.125-0.145-0.172-0.197-0.175-0.392-0.351-0.589-0.525q-0.466-0.412-0.936-0.822c-0.065-0.057-0.129-0.128-0.232-0.083 0.023 0.544-0.213 0.632-0.562 0.723 0.005 0.087 0.077 0.125 0.132 0.176q0.768 0.682 1.541 1.362c0.175 0.154 0.292 0.149 0.5-0.020-0.035-0.262 0.043-0.486 0.29-0.638zM7.927 12.142c0.47-0.127 0.761 0.069 0.801 0.521 0.042-0.011 0.076-0.036 0.098-0.071l0-0.001q0.681-0.812 1.36-1.624c0.055-0.065 0.093-0.137 0.062-0.238-0.163 0.009-0.328 0.012-0.469-0.1s-0.2-0.27-0.215-0.454c-0.078 0.019-0.143 0.062-0.189 0.12l-0.001 0.001c-0.057 0.070-0.114 0.139-0.172 0.208-0.377 0.452-0.756 0.902-1.131 1.355-0.063 0.076-0.15 0.143-0.145 0.28z"></path>
<path d="M12.16 23.374c-0.010 0.003-0.021 0.005-0.032 0.005-0.025 0-0.048-0.008-0.066-0.023l0 0c-0.233-1.030-0.285-2.092-0.268-3.171 0.087-0.062 0.177-0.125 0.265-0.19 0.036-0.027 0.092-0.045 0.073-0.11l-0.005 0.003c0.070 0.012 0.106-0.027 0.13-0.087l-0.005 0.004c0.053-0.005 0.108-0.009 0.086-0.088l-0.004 0.005c0.015 0.030 0.046 0.013 0.091 0.035 0 0.154 0 0.319 0 0.484q0 0.822 0 1.644c-0.001 0.016-0.002 0.035-0.002 0.054 0 0.069 0.010 0.135 0.028 0.197l-0.001-0.005c0.048 0.134 0.134 0.224 0.276 0.254s0.256-0.027 0.341-0.145c0.044-0.058 0.079-0.125 0.103-0.197l0.001-0.005c0.092-0.301 0.284-0.534 0.505-0.75 0.378-0.368 0.833-0.59 1.338-0.72 0.943-0.242 1.854-0.156 2.726 0.282 0.347 0.182 0.637 0.428 0.863 0.724l0.005 0.006c0.097 0.118 0.175 0.256 0.225 0.407l0.003 0.009c0.026 0.085 0.063 0.16 0.109 0.227l-0.002-0.003c0.101 0.149 0.216 0.197 0.372 0.159 0.143-0.041 0.249-0.162 0.266-0.311l0-0.002c0.003-0.032 0.005-0.070 0.005-0.108 0-0.013-0-0.026-0.001-0.039l0 0.002c0.003-0.673 0.003-1.346 0.010-2.019 0.003-0.278 0.030-0.554 0.169-0.804 0.069-0.125 0.152-0.232 0.314-0.259 0.145 0.053 0.172 0.18 0.172 0.316 0 0.333 0.010 0.666-0.013 1-0.021 0.305-0.014 0.61-0.021 0.916-0.014 0.746-0.092 1.465-0.229 2.163l0.013-0.078c-0.060 0.298-0.147 0.562-0.262 0.811l0.009-0.022c-0.195 0.43-0.756 0.664-1.234 0.5-0.247-0.091-0.461-0.217-0.648-0.373l0.003 0.003c-0.475-0.378-1.017-0.611-1.606-0.746-0.080-0.017-0.172-0.027-0.267-0.027-0.139 0-0.274 0.022-0.4 0.062l0.009-0.003c-0.544 0.155-1.055 0.378-1.497 0.742-0.215 0.177-0.453 0.318-0.728 0.373-0.184-0.113-0.373-0.159-0.562-0.086-0.044-0.010-0.079-0.039-0.097-0.079l-0-0.001c0.151-0.032 0.355 0.006 0.345-0.247l0.303-0.226c0.046-0.079-0.051-0.106-0.030-0.167 0.038-0.067 0.097-0.063 0.16-0.048 0.115-0.149 0.304-0.188 0.447-0.294-0.034-0.069-0.105-0.035-0.157-0.058-0.027-0.122 0.097-0.138 0.142-0.208l0.090-0.037h0.208c0.026-0.081 0.142-0.077 0.153-0.181-0.007-0-0.015-0.001-0.023-0.001-0.143 0-0.271 0.058-0.364 0.152l-0 0-0.095 0.026c-0.296 0.114-0.583 0.25-0.836 0.444-0.035 0.028-0.080 0.044-0.128 0.044-0.003 0-0.005-0-0.008-0h0c-0.263-0.009-0.524-0.010-0.762 0.103-0.083-0.096-0.033-0.152 0.028-0.205 0.073-0.036 0.152-0.064 0.228-0.15-0.102 0.012-0.193 0.052-0.266 0.113l0.001-0.001zM14.646 22.659c-0.175 0.055-0.175 0.055-0.23 0.201l0.286-0.11c0-0.002 0-0.005 0-0.008 0-0.038-0.023-0.070-0.056-0.083l-0.001-0z"></path>
<path d="M16.888 6.751v2.612c-0.264-0.045-0.568-0.071-0.877-0.071s-0.614 0.026-0.909 0.075l0.032-0.004c-0.020-0.448-0.007-0.882-0.010-1.315s0-0.86 0-1.296c-0.115-0.104-0.267-0.168-0.435-0.168-0.013 0-0.027 0-0.040 0.001l0.002-0c-0.208 0.013-0.417 0.003-0.625 0.003l-0.187 0.337h-0.74v-1.485h0.801c0.055 0.038 0.052 0.127 0.114 0.198h1.301c0.042-0.024 0.038-0.079 0.047-0.125q0.109-0.519 0.211-1.041c0.008-0.040 0.012-0.086 0.012-0.133 0-0.004-0-0.008-0-0.013v0.001q0-1.25 0-2.499c0-0.027-0.003-0.054-0.006-0.096-0.125-0.045-0.259 0-0.411-0.033-0.015-0.43-0.006-0.861-0.005-1.305h0.406l0.431-0.395c0.18 0.101 0.279 0.281 0.466 0.399h0.394v1.315h-0.382c-0.061 0.065-0.042 0.125-0.042 0.177-0.002 0.798 0 1.597-0.004 2.395 0.005 0.127 0.023 0.246 0.052 0.362l-0.003-0.012c0.066 0.333 0.137 0.663 0.208 1.006h1.315c0.060-0.048 0.059-0.135 0.115-0.202h0.81v1.485h-0.745c-0.083-0.087-0.099-0.229-0.202-0.333-0.25 0-0.506-0.004-0.762 0-0.125 0.004-0.216 0.083-0.333 0.161z"></path>
<path d="M3.929 3.803c0.299 0.225 0.572 0.481 0.853 0.726q1.908 1.657 3.81 3.319 0.674 0.587 1.35 1.174c0.035 0.031 0.069 0.065 0.116 0.11-0.174 0.093-0.317 0.21-0.514 0.226-0.246 0.022-0.466 0.115-0.646 0.258l0.002-0.002c-0.186-0.212-0.368-0.419-0.549-0.627q-0.791-0.91-1.583-1.822-1.435-1.658-2.867-3.317c-0.004-0.005-0.008-0.011-0.011-0.017l-0-0.001z"></path>
<path d="M22.469 21.584c-0.182 0.315-0.328 0.635-0.212 1.005l-0.197 0.307-1.44-1.253c0.051-0.686 0.042-1.382 0.050-2.090 0.156 0.101 1.344 1.447 1.798 2.031z"></path>
<path d="M28.238 28.277l-4.707-4.102c0.090-0.185 0.208-0.345 0.318-0.522l0.346-0.095 4.064 4.688z"></path>
<path d="M20.048 10.795l0.352-0.31 0.534 0.275c-0.004 0.354 0.17 0.639 0.414 0.888-0.088 0.116-0.163 0.222-0.281 0.306-0.297-0.44-0.633-0.82-1.012-1.153l-0.007-0.006z"></path>
<path d="M10.666 11.654c0.25-0.255 0.417-0.537 0.422-0.895l0.525-0.274 0.356 0.304c-0.386 0.353-0.736 0.732-1.027 1.184z"></path>
<path d="M5.884 25.783c0 0.001 0 0.002 0 0.004 0 0.009-0.007 0.016-0.016 0.017h-0c-0.127 0.012-0.225-0.060-0.326-0.119-0.497-0.287-0.993-0.576-1.49-0.863-0.479-0.276-0.961-0.549-1.44-0.826-0.052-0.034-0.096-0.067-0.139-0.102l0.003 0.002v-15.562c0.071-0.122 0.194-0.153 0.292-0.211 0.5-0.296 1.008-0.579 1.512-0.868 0.474-0.273 0.945-0.549 1.416-0.823 0.101-0.059 0.195-0.135 0.323-0.125 0.036 0.015 0.063 0.045 0.074 0.082l0 0.001c-0.089 0-0.157 0.054-0.228 0.094-0.307 0.173-0.611 0.352-0.916 0.529q-0.62 0.357-1.24 0.715c-0.37 0.215-0.74 0.431-1.105 0.643v15.474c0.099 0.055 0.19 0.103 0.28 0.155 0.472 0.274 0.943 0.552 1.416 0.825 0.497 0.287 0.996 0.57 1.495 0.854 0.046 0.017 0.079 0.056 0.089 0.104l0 0.001z"></path>
<path d="M25.959 6.35c0.012-0.040 0.041-0.072 0.077-0.089l0.001-0c0.205 0.153 0.437 0.262 0.656 0.391 0.477 0.281 0.958 0.551 1.438 0.828 0.46 0.268 0.921 0.535 1.395 0.81v15.606c-0.093 0.106-0.239 0.163-0.368 0.239-0.716 0.42-1.435 0.833-2.154 1.247q-0.297 0.171-0.595 0.339c-0.078 0.042-0.155 0.095-0.25 0.087h0.006c0-0.137 0.125-0.159 0.208-0.208 0.741-0.433 1.485-0.858 2.228-1.286q0.404-0.233 0.806-0.469v-15.487l-0.149-0.087-1.223-0.702c-0.419-0.242-0.841-0.48-1.257-0.727-0.276-0.162-0.561-0.307-0.82-0.491z"></path>
<path d="M24.792 6.655c-0.035 0.046-0.059 0.115-0.14 0.072-0.128-0.047-0.237-0.103-0.34-0.17l0.006 0.004c-0.474-0.274-0.946-0.55-1.42-0.823-0.672-0.388-1.345-0.773-2.017-1.161-0.576-0.333-1.15-0.666-1.725-1-0.695-0.403-1.39-0.807-2.088-1.205-0.208-0.119-0.408-0.256-0.634-0.342-0.011-0.034-0.017-0.073-0.017-0.113s0.006-0.080 0.018-0.116l-0.001 0.003c0.087 0.006 0.167 0.035 0.235 0.080l-0.002-0.001q1.304 0.752 2.61 1.506 1.394 0.807 2.787 1.615 1.296 0.75 2.595 1.492c0.065 0.037 0.144 0.061 0.134 0.162z"></path>
<path d="M25.626 26.009c0.039 0.011 0.069 0.039 0.083 0.076l0 0.001c-0.083 0.141-0.246 0.174-0.373 0.25-0.672 0.397-1.354 0.779-2.030 1.17-0.736 0.426-1.468 0.858-2.203 1.284-0.574 0.333-1.152 0.659-1.727 0.991-0.772 0.446-1.541 0.898-2.315 1.339-0.159 0.090-0.308 0.208-0.484 0.256-0.026-0.027-0.043-0.062-0.045-0.102v-0 0.003l3.146-1.812q0.601-0.347 1.204-0.692 0.629-0.364 1.255-0.726l1.22-0.706c0.485-0.28 0.971-0.557 1.454-0.841 0.273-0.16 0.558-0.299 0.813-0.49z"></path>
<path d="M15.494 31.254c0.012 0.036 0.023 0.072 0.034 0.107-0.071 0.039-0.135 0.011-0.196-0.025q-0.808-0.467-1.615-0.934-0.646-0.375-1.291-0.747-0.853-0.494-1.703-0.989c-0.413-0.239-0.828-0.474-1.24-0.712s-0.813-0.472-1.22-0.708-0.819-0.464-1.223-0.702c-0.25-0.147-0.512-0.274-0.742-0.453 0.015-0.038 0.046-0.067 0.085-0.079l0.001-0c0.195 0.117 0.387 0.237 0.583 0.351 0.509 0.292 1.022 0.583 1.531 0.875 0.473 0.273 0.943 0.553 1.416 0.826 0.509 0.294 1.022 0.583 1.531 0.875 0.569 0.328 1.135 0.661 1.703 0.992 0.61 0.354 1.217 0.713 1.833 1.057 0.168 0.095 0.319 0.225 0.514 0.266z"></path>
<path d="M6.565 6.061c-0.058 0.002-0.083-0.036-0.107-0.081 0.208-0.080 0.389-0.208 0.58-0.317 0.529-0.3 1.055-0.606 1.583-0.912 0.574-0.333 1.147-0.669 1.722-1 0.407-0.236 0.817-0.466 1.225-0.701s0.814-0.472 1.221-0.708 0.803-0.463 1.204-0.695c0.318-0.183 0.636-0.364 0.953-0.549 0.066-0.039 0.129-0.081 0.208-0.087 0.009 0.020 0.014 0.044 0.014 0.069s-0.005 0.048-0.015 0.070l0-0.001c-0.092 0.012-0.167 0.067-0.242 0.112q-0.611 0.353-1.221 0.708c-0.408 0.235-0.817 0.466-1.225 0.701q-0.63 0.362-1.257 0.727l-1.224 0.704-1.455 0.841c-0.407 0.236-0.811 0.477-1.222 0.706-0.249 0.137-0.477 0.309-0.742 0.414z"></path>
<path d="M25.502 6.033c-0.017 0.033-0.045 0.059-0.080 0.071l-0.001 0c-0.115-0.158-0.3-0.217-0.458-0.31-0.6-0.357-1.206-0.704-1.811-1.053-0.509-0.292-1.021-0.583-1.531-0.875-0.568-0.327-1.133-0.66-1.702-0.99-0.407-0.235-0.817-0.466-1.224-0.701s-0.825-0.48-1.238-0.719c-0.137-0.080-0.277-0.155-0.417-0.235-0.065-0.038-0.133-0.076-0.115-0.193 0.182 0.067 0.333 0.178 0.49 0.267 0.429 0.239 0.851 0.488 1.276 0.734 0.473 0.274 0.944 0.549 1.416 0.823q0.611 0.354 1.224 0.704t1.223 0.703c0.407 0.235 0.813 0.472 1.22 0.708q0.727 0.421 1.455 0.84c0.066 0.038 0.132 0.077 0.2 0.112 0.043 0.017 0.073 0.057 0.073 0.105 0 0.003-0 0.005-0 0.008l0-0z"></path>
<path d="M7.168 6.606q1.176-0.681 2.353-1.362c0.869-0.5 1.741-1 2.61-1.5 0.841-0.485 1.674-0.973 2.515-1.459 0.239-0.139 0.482-0.273 0.722-0.41 0.060-0.042 0.133-0.068 0.213-0.071l0.001-0c0.007 0.020 0.010 0.043 0.010 0.067s-0.004 0.047-0.011 0.069l0-0.002c-0.054 0.079-0.125 0.143-0.208 0.187l-0.003 0.002q-1.806 1.041-3.609 2.089-1.455 0.84-2.912 1.673-0.666 0.382-1.328 0.77c-0.067 0.042-0.131 0.076-0.212 0.068-0.060-0.024-0.109-0.066-0.14-0.12l-0.001-0.001z"></path>
<path d="M25.453 6.929c0.012 0.033 0.037 0.059 0.068 0.072l0.001 0q0.991 0.57 1.981 1.14c0.372 0.214 0.742 0.429 1.119 0.647v14.624c-0.185 0.11-0.375 0.225-0.564 0.336q-1.097 0.634-2.196 1.264c-0.094 0.054-0.182 0.131-0.304 0.121-0.045-0.029-0.080-0.071-0.1-0.12l-0.001-0.002c0.265-0.189 0.555-0.338 0.836-0.5q1-0.578 1.999-1.152c0.042-0.024 0.080-0.054 0.112-0.076 0.031-0.070 0.020-0.133 0.020-0.195 0-0.486 0-0.971 0-1.458 0-0.208-0.008-0.417 0.023-0.622 0.007-0.049 0.011-0.105 0.011-0.161 0-0.082-0.008-0.162-0.024-0.239l0.001 0.008c-0.011-0.052-0.017-0.111-0.017-0.172 0-0.042 0.003-0.084 0.009-0.124l-0.001 0.005c0.027-0.187-0.010-0.371-0.003-0.557 0.012-0.36 0.020-0.721 0.013-1.079-0.010-0.506-0.014-1.012-0.007-1.517 0.004-0.246 0.017-0.497 0.009-0.741-0.011-0.36-0.010-0.72-0.014-1.080-0.006-0.63 0-1.259 0-1.889 0-0.282-0.012-0.566 0.003-0.848 0.017-0.323-0.003-0.646 0.015-0.971 0.010-0.182-0.016-0.372-0.017-0.559 0-0.152 0.025-0.306 0.022-0.455-0.009-0.567-0.033-1.134-0.020-1.705-0.316-0.183-0.621-0.36-0.926-0.536q-1.007-0.583-2.014-1.166c-0.062-0.036-0.147-0.058-0.155-0.153 0.021-0.062 0.064-0.111 0.12-0.14l0.001-0.001z"></path>
<path d="M6.458 25.133c-0.083 0.015-0.147-0.030-0.213-0.068q-1.035-0.596-2.069-1.194c-0.216-0.125-0.433-0.25-0.649-0.375-0.047-0.027-0.102-0.045-0.14-0.1v-14.603c0.369-0.215 0.733-0.427 1.098-0.639q0.881-0.51 1.764-1.018c0.113-0.065 0.218-0.15 0.355-0.161 0.041 0.018 0.072 0.052 0.085 0.093l0 0.001c-0.007 0.071-0.056 0.105-0.112 0.138q-0.847 0.486-1.692 0.974-0.611 0.354-1.22 0.711c-0.026 0.017-0.049 0.034-0.070 0.052l0.001-0.001v14.337c0.375 0.217 0.746 0.433 1.117 0.646q0.875 0.503 1.746 1.005c0.021 0.017 0.039 0.037 0.054 0.059l0.001 0.001-0.006-0.006v0.090c-0.017 0.019-0.033 0.038-0.050 0.058z"></path>
<path d="M15.288 30.181l-0.066 0.065c-0.225-0.13-0.452-0.26-0.678-0.391q-0.763-0.442-1.526-0.883c-0.605-0.349-1.212-0.694-1.817-1.041q-0.89-0.512-1.778-1.027-1.005-0.583-2.010-1.166c-0.096-0.055-0.191-0.111-0.288-0.167-0.051-0.021-0.087-0.071-0.087-0.129 0 0 0 0 0 0v0c0.027-0.045 0.067-0.080 0.115-0.1l0.002-0.001q0.72 0.412 1.44 0.825 0.899 0.518 1.797 1.038l4.316 2.49c0.114 0.066 0.227 0.133 0.344 0.194 0.089 0.050 0.163 0.119 0.216 0.203l0.001 0.002c0.035 0.022 0.026 0.056 0.018 0.088z"></path>
<path d="M25.003 25.465c-0.102 0.152-0.275 0.203-0.421 0.289q-1.72 1.005-3.448 1.997c-0.881 0.508-1.765 1.010-2.647 1.517q-0.801 0.458-1.597 0.927c-0.048 0.034-0.106 0.058-0.168 0.070l-0.003 0c-0.024-0.102 0.031-0.194 0.042-0.292 0.182-0.015 0.315-0.139 0.462-0.223 0.777-0.441 1.548-0.893 2.321-1.341q1.555-0.901 3.111-1.802 0.988-0.573 1.98-1.139c0.076-0.042 0.157-0.080 0.235-0.12 0.059 0.020 0.106 0.063 0.132 0.117l0.001 0.001z"></path>
</svg>
