<!-- Generated by IcoMoon.io -->
<svg version="1.1" xmlns="http://www.w3.org/2000/svg" width="32" height="32" viewBox="0 0 32 32">
<title>Right_Stick</title>
<path d="M31.457 11.882q0 4.837-4.539 8.324t-10.918 3.487-10.918-3.487-4.539-8.324q0-3.26 2.068-5.993t5.625-4.311 7.763-1.577 7.763 1.577 5.625 4.311 2.068 5.993zM16 24.85q2.804 0 5.573-0.736v2.874q0 2.278-1.612 3.645t-3.961 1.367q-2.383 0-3.996-1.367t-1.612-3.645v-2.874q2.769 0.736 5.608 0.736zM10.988 3.996v15.702h2.173v-6.554h3.435q1.612 0 2.331 0.683t0.789 2.331q0.105 2.033 0.21 2.699t0.386 0.841h2.278v-0.070q-0.386-0.21-0.736-3.505-0.070-1.752-0.578-2.646t-1.77-1.209v-0.035q1.542-0.491 2.191-1.472t0.648-2.524q0-1.893-1.297-3.067t-3.4-1.174h-6.659zM13.161 11.391v-5.573h3.89q1.612 0 2.313 0.666t0.701 2.103q0 2.804-3.119 2.804h-3.785z"></path>
</svg>
