<!-- Generated by IcoMoon.io -->
<svg version="1.1" xmlns="http://www.w3.org/2000/svg" width="32" height="32" viewBox="0 0 32 32">
<title>Right_Click001</title>
<path d="M23.115 0l-7.115 5.058-7.149-5.058h14.263zM30.87 17.096q0 4.653-4.367 8.008t-10.504 3.355-10.504-3.355-4.367-8.008q0-3.136 1.989-5.766t5.412-4.148 7.469-1.517 7.469 1.517 5.412 4.148 1.989 5.766zM16 29.572q2.596 0 5.024-0.607-0.506 1.113-1.383 1.855-1.416 1.18-3.642 1.18-2.259 0-3.642-1.146-0.91-0.742-1.45-1.956 2.091 0.674 5.092 0.674zM11.515 9.509v15.106h2.091v-6.306h3.305q1.551 0 2.242 0.658t0.759 2.242q0.101 1.956 0.202 2.596t0.371 0.809h2.192v-0.067q-0.371-0.202-0.708-3.372-0.067-1.686-0.556-2.546t-1.703-1.163v-0.034q1.484-0.472 2.107-1.416t0.624-2.428q0-1.821-1.248-2.95t-3.271-1.13h-6.407zM13.606 16.624v-5.361h3.743q1.551 0 2.226 0.641t0.674 2.023q0 2.698-3.001 2.698h-3.642z"></path>
</svg>
