<!-- Generated by IcoMoon.io -->
<svg version="1.1" xmlns="http://www.w3.org/2000/svg" width="91" height="32" viewBox="0 0 91 32">
<title>rocket_launcher</title>
<path d="M85.28 6.72l1.216 1.408v7.424l-1.184 1.344h-2.304l-3.168 2.208h-1.184v0.64h-1.056l-0.256-0.288-0.8 0.896h-3.936v1.184l0.96 1.088h0.544l4.864 5.632v0.544l0.736 0.832-1.312 1.536-0.96-1.088h-0.416l-4.896-5.664v-0.352l-0.928-1.088h-1.088l-0.832-0.352v-0.384h-0.8v-1.44h0.768v-0.32h0.416v-0.288h-2.592l-0.992 1.632h-3.072v-1.408h-0.544l-0.224 0.832-0.416 1.152-0.768 0.896-1.056 0.544-1.6 0.128-0.32-1.28h-1.536l-2.4 3.936v1.6h-5.6l-10.56-6.816v-3.456l-0.48-0.576h-1.856l-0.512 0.608h-1.44v-0.768l-3.584-1.344h-0.896l-0.736-0.992h-16.992v1.024l-2.112 3.712h-3.232l-0.384-0.448v-2.4h-1.12l-0.512-0.64v-8.096l0.608-0.704h5.632l1.472 1.344 2.496 0.032 0.448 0.32 13.536-0.064 5.792-0.608v-1.184l-0.736-0.576-3.84-0.64-0.704-0.288v-0.384l5.504-0.096h3.296l8.864 2.208v0.832l0.288 0.128v-0.896l0.384-0.352h1.6v-1.248l-0.352-0.416h-1.792v-0.576h0.416v-0.608h-0.416v-0.448h0.768l1.12-1.28h5.632l0.32 0.352 1.728-1.792 0.544-0.416 0.672-0.16h13.152l0.192 0.32 0.736 2.72h3.616v1.824h-3.776l-1.792 2.048 0.416 0.512 0.864-0.992h1.728l0.448 0.512h7.424l0.64-0.736h4.224zM10.752 15.84v-0.416l-0.832 1.28-3.392 0.064v1.856l0.16 0.192h2.208zM54.048 21.76v-1.248l-0.064-0.416-0.224-0.352-0.192-0.16-0.192-0.096h-2.4l-0.384 0.224-0.256 0.384-0.192 0.48v3.456h1.952zM55.872 3.392l2.304 0.032-0.96-1.152h-0.352zM60.704 21.024v-0.448l-0.064-0.576h-2.304v1.088l0.128 0.512 0.16 0.16h1.216l0.416-0.128 0.288-0.256zM67.584 3.392l1.344-1.824-10.72-0.032-0.256 0.32 1.312 1.536h8.32z"></path>
</svg>
