<!-- Generated by IcoMoon.io -->
<svg version="1.1" xmlns="http://www.w3.org/2000/svg" width="32" height="32" viewBox="0 0 32 32">
<title>shield_artifact</title>
<path d="M15.987 10.512q2.255 0 3.847 1.591t1.591 3.872v0.1q0 2.205-1.616 3.809t-3.821 1.604q-2.255 0-3.859-1.604t-1.604-3.909v-0.075q0.050-2.205 1.641-3.796t3.821-1.591zM18.318 16.125v-0.276q-0.050-0.877-0.739-1.516t-1.591-0.639q-0.877 0-1.566 0.639t-0.739 1.516v0.276q0.050 0.902 0.739 1.529t1.566 0.626q0.902 0 1.591-0.626t0.739-1.529zM31.825 15.499l0.175 0.476-0.175 0.501-0.050 0.752-0.952-0.752h-2.356l-12.479 12.98-12.454-12.98h-2.356l-0.952 0.752-0.050-0.752-0.175-0.501 0.175-0.476 0.050-0.752 0.952 0.752h2.356l12.454-12.955 12.479 12.955h2.356l0.952-0.752zM15.987 23.067q2.932 0 5.037-2.067t2.155-5.024q-0.050-2.932-2.155-4.999t-5.037-2.067-5.049 2.080-2.117 5.012 2.117 4.999 5.049 2.067z"></path>
</svg>
