<!-- Generated by IcoMoon.io -->
<svg version="1.1" xmlns="http://www.w3.org/2000/svg" width="99" height="32" viewBox="0 0 99 32">
<title>shotgun</title>
<path d="M94.272 4.384h0.608v2.816h-0.512v2.848h-0.416v3.552h-0.416v1.152h-3.648l-0.32 0.352h-3.904l-0.16 0.832-0.192 0.416-0.352 0.16h-0.64l-0.64-0.128h-20.384l-0.736-0.128-0.128-0.384 0.288-0.416 0.416-0.64h-21.888l-0.192 0.48-0.064 0.512 0.064 0.48 0.064 0.416 0.224 0.416-0.256 0.256-0.512-0.48-0.384-0.768-0.224-0.8-0.032-0.608h-0.928l-0.192 0.576-0.192 0.672-0.096 0.672 0.032 0.512 0.448 0.384 0.512 0.256 0.16 0.256-0.032 0.352-0.224 0.352-0.48 0.16-0.736 0.128-0.352 0.192-0.288 0.288-0.32 0.608-0.096 0.48v0.576l-0.192 0.512-0.256 0.448-0.416 0.544-1.472 3.648 0.48 0.512v0.448l-0.576 0.608h-4.8l-0.832-0.224-0.032-0.736 0.128-0.288-0.224-0.864 0.256-1.952 0.704-2.208 0.896-1.888 1.056-1.568 0.672-0.672 0.416-0.48 0.224-0.672-0.064-0.512-0.384-0.672-0.64-0.48-0.64-0.256-0.896-0.16h-4.64l-0.32-0.16-0.928-0.864v-0.352h-0.256l-0.32 0.16-0.608 0.256-16.512 3.68-0.352 0.256-1.888 0.448-0.384-0.096-0.128-0.384-0.096-1.152 0.288-2.976 0.096-2.976-0.128-3.168-0.064-1.664 0.096-0.608 0.256-0.352 0.384-0.16 1.376-0.064h0.8l0.384 0.416 0.384-0.416h12.032l0.832 0.096 0.928 0.288 1.024 0.416 0.736 0.48 0.544 0.288 0.32 0.352 0.224-0.256h2.688l0.192-0.096 0.256-0.16 2.208-1.888 0.928-0.256h0.704l0.544-0.576h11.136l0.32 0.32 0.736 0.768h10.592l0.416-0.416h20.736l0.512 0.544h5.024l0.576-0.608h9.92v-0.608h0.96v1.024h0.64z"></path>
</svg>
