<!-- Generated by IcoMoon.io -->
<svg version="1.1" xmlns="http://www.w3.org/2000/svg" width="69" height="32" viewBox="0 0 69 32">
<title>smg</title>
<path d="M63.84 6.144l0.352 0.192v3.072l-0.256 0.288h-9.984v0.576l-0.288 0.352h-5.792v0.608h5.248l0.192 0.32v0.736l-0.128 0.256h-1.856l0.416 0.608 0.032 0.32-0.064 0.192-0.16 0.096-0.48 0.032h-6.272l-0.32-0.32h-0.32l-0.416 0.384-0.48 0.896-1.056 2.336-2.208 5.44-0.416 0.608-0.544 0.288-0.704 0.256-0.896 0.16-1.024 0.096h-5.472v6.016l-0.448 0.448h-1.984l-0.192-0.224h-0.736l-0.256-0.256v-6.016l-0.832-0.192-0.576-1.184-0.352-1.216-0.16-2.048 0.16-2.176 0.352-1.44 0.64-1.248 0.32-1.088 0.032-0.928-0.224-0.416-2.144-0.288-0.64-0.512h-5.696l-0.512 0.128-2.080 0.192h-0.768l-0.288-0.288-0.608 0.128-0.64 0.576-4.448 5.952-0.512 0.384-0.704 0.32-0.768 0.16h-0.448l-0.192 0.544-1.44 0.48-0.384-0.16-0.128-0.384v-0.64l0.096-3.232 0.032-4.128-0.128-4.224v-1.664l0.256-0.704 0.384-0.32h1.44l0.384 0.736h0.512l0.416 0.416h0.384l0.16-0.16h19.2v-1.152l0.192-0.512h0.224v-0.576h0.416l0.736 0.896 0.288 0.992 0.224 0.032v0.32h0.288v-0.384l0.352-0.384h7.232v-0.512h-1.152l-0.288-0.16h-0.8v-2.816l0.416-0.416h0.704l0.48-0.384h0.416v0.32h6.112l0.16 0.128v0.384h0.416v2.592l-0.192 0.192h-0.512v0.224h-0.384v0.544h2.688v0.384h6.048l0.416 0.384h1.6l0.416 0.352v0.416h9.92zM40.32 13.152v-0.352l-0.224-0.192-0.352-0.128h-6.272l-0.192 0.48-0.064 0.544 0.032 0.512 0.128 0.416 0.256 0.352-0.16 0.288-0.448-0.448-0.416-0.832-0.16-0.832v-0.48h-0.672l-0.256 0.096-0.16 0.352-0.16 0.448-0.096 0.736v0.608l0.224 0.416 0.448 0.32-0.032 0.352-0.544 0.288v5.184l0.096 0.224 0.256 0.256 0.448 0.096h4.032l0.544-0.16 0.448-0.384 0.416-0.704 2.752-6.944z"></path>
</svg>
