<!-- Generated by IcoMoon.io -->
<svg version="1.1" xmlns="http://www.w3.org/2000/svg" width="123" height="32" viewBox="0 0 123 32">
<title>sniper_rifle</title>
<path d="M113.312 11.392h5.92v3.328h-5.888v0.992h-18.208v-0.576h-1.664v-0.928h-17.12v0.512h-5.248v-0.352l-1.344 0.512v1.216h1.344v-0.448h3.84v2.048h-3.744v-0.384h-1.376l-0.064 0.992-0.224 0.288-0.384 0.128h-23.328l-0.288-0.32h-4.32v6.56l-0.352 0.384h-6.528l-0.256-0.256h-0.928l-0.16-0.192v-4.32l-1.472-1.024-0.192-0.288v-2.912h-1.216l-0.16 0.448-0.096 0.64 0.064 0.8 0.192 0.64 0.096 0.224-0.256 0.16-0.352-0.48-0.416-0.96-0.16-0.992-0.032-0.48h-0.256l-0.352 0.448-0.224 0.544-0.096 0.576v0.544l0.16 0.48 0.416 0.352 0.256 0.128-0.16 0.576-0.672 0.064-0.48 0.224-0.288 0.416-0.224 0.48-0.096 0.48v0.288l-0.096 0.48-0.448 0.384-0.256 0.544-0.288 0.928-0.448 1.248 0.16 0.512-0.448 0.384-17.984-3.68-0.128 0.288-0.32 0.256-1.984 0.704-0.32-0.064-0.16-0.256-0.128-0.448 0.064-0.8 0.192-3.104 0.128-3.232-0.064-3.68-0.16-1.76 0.096-0.896 0.128-0.288 0.608-0.096h0.832l0.256 0.256h0.864l0.224 0.32 0.096 0.352v0.544h15.104l0.896-0.992h2.208v-0.96l0.256-0.256h0.768l0.16-0.16h2.784l0.48-0.352h3.52v-1.024h-7.968v-0.544h-2.592l-0.096-0.064 2.816-3.616h2.112l0.8-0.48h21.376l0.448 0.704v2.144l2.624 1.248v0.704h-2.464l-1.536 1.664h1.92l1.728 0.96h14.848v1.472h2.112v0.576h1.248v-0.544h5.408v0.544h17.088v-0.8h1.856v-0.576h18.016v0.896zM24.64 16.928v-0.608h-9.984l4.736 4.832 0.864 0.64 0.576 0.288h0.544l0.448-0.128 0.288-0.288v-0.608zM46.624 8.832v-1.632h-6.976v1.024l0.064 0.032h1.632l1.184 0.576h4.096z"></path>
</svg>
