<!-- Generated by IcoMoon.io -->
<svg version="1.1" xmlns="http://www.w3.org/2000/svg" width="32" height="32" viewBox="0 0 32 32">
<title>solar_tian_super</title>
<path d="M11.961 29.096q0.029 0.029 0.228 0.142-3.558-1.196-6.605-3.9 0 0.057-0.014 0.128t0.014 0.185 0.086 0.199 0.114 0.114l0.057 0.029q-0.228-0.057-0.569-0.398-2.135-2.135-1.736-5.665 0.114-1.139 0.698-2.448t1.494-2.334q0.057-0.057 0.185-0.199t0.185-0.228q-0.057 0.086-0.285 0.399-0.513 0.74-0.911 1.623-0.399 0.968-0.583 1.879t-0.171 1.651 0.057 1.21 0.171 0.982 0.128 0.57l0.057 0.114v-0.057q0-0.171 0.029-0.313 0-0.199 0.029-0.285 0.057 0.171 0.086 0.285 0.598 1.281 1.423 2.334 0 0.029 0.057 0.086v-0.029q-0.029-0.057-0.071-0.185l-0.071-0.213q0-0.086-0.057-0.256l0.228 0.228q0.37 0.427 0.683 0.655 1.11 1.025 2.505 1.822l0.029 0.029q0.683 0.512 1.196 0.925t0.655 0.527 0.285 0.213 0.399 0.185zM28.473 19.929q0.37 3.473-1.736 5.665l-0.57 0.398q0.171-0.057 0.228-0.341v-0.185t0.029-0.128q-1.509 1.338-3.217 2.32t-2.391 1.238-1.025 0.341q0.199-0.114 0.228-0.142 0.256-0.086 0.413-0.185t0.299-0.213 0.64-0.527 1.181-0.925q0.029 0 0.029-0.029 1.309-0.712 2.505-1.822 0.228-0.171 0.712-0.655 0.029-0.029 0.1-0.114t0.1-0.114q0 0.029-0.029 0.114t-0.029 0.142q-0.057 0.171-0.114 0.398l0.057-0.057q0.769-0.968 1.395-2.334 0.029-0.057 0.071-0.157t0.043-0.128q0 0.057 0.014 0.142t0.014 0.142q0 0.228 0.029 0.313v0.057q0-0.029 0.029-0.086v-0.029q0-0.057 0.1-0.47t0.157-0.726 0.1-0.925-0.014-1.181-0.242-1.366-0.498-1.623q-0.285-0.712-0.911-1.623-0.029-0.029-0.128-0.171t-0.157-0.228q0.086 0.086 0.213 0.228t0.185 0.199q0.911 0.996 1.48 2.306t0.712 2.477zM12.901 26.391l-0.029 0.029q0.341 0.057 0.512 0.057v0.057q-0.086 0-0.256-0.014t-0.285-0.014q-0.171 0.512-0.399 0.968l-0.427 0.712 0.171-0.74 0.057-1.025q-2.647-0.484-4.356-2.163-2.477-2.505-1.11-5.95 0.541-1.338 1.053-2.519t0.854-1.936 0.612-1.295 0.413-0.769l0.114-0.256 0.057-0.086 0.029 0.086q0 1.68-0.114 2.989 1.964-2.733 1.651-5.637h0.086q0.541 1.281 0.484 3.302v0.256l-0.086-0.228q0.086 2.391-1.48 4.469l-0.086 0.142v-0.171q0.142-1.338 0.142-2.42-0.797 1.309-2.477 5.466-1.11 2.847 0.911 4.896 1.281 1.281 3.302 1.736-0.029-0.086-0.043-0.285t-0.014-0.285l-0.029-0.142q-0.313-1.794-1.537-3.331v-0.029q-0.057-0.826-0.114-1.139l-0.029-0.313 0.256 0.256q1.139 1.196 1.623 2.391 0.142 0.655 0.142 1.309v-0.029l0.029-0.029 0.142-0.427 0.086 0.427q0.228 0.939 0.086 1.623l0.057 0.029v0.029zM19.79 27.445l0.171 0.74-0.398-0.712q-0.228-0.398-0.427-0.968-0.114 0-0.341 0.014t-0.341 0.014v-0.057q0.256 0 0.655-0.057v-0.029l-0.029-0.029 0.057-0.029q-0.086-0.769 0.086-1.623l0.086-0.427 0.171 0.427v0.057q0-0.626 0.142-1.309 0.57-1.281 1.623-2.391l0.256-0.256-0.029 0.313q-0.057 0.74-0.114 1.139v0.029q-1.196 1.537-1.509 3.331l-0.029 0.142q-0.057 0.398-0.057 0.541 1.936-0.456 3.188-1.651 2.078-2.050 1.025-4.868-1.224-3.274-2.334-5.523 0 1.252 0.086 2.448v0.142l-0.086-0.114q-1.566-2.163-1.366-4.498l-0.086 0.228v-0.228q0-2.050 0.57-3.331l0.086 0.029v0.029q-0.313 2.277 0.939 4.64 0.256 0.484 0.57 0.94-0.086-1.167-0.1-1.908t0.014-0.911l0.029-0.142 0.057-0.086 0.029 0.086q0.029 0.029 0.341 0.64t1.039 2.32 1.523 3.843q1.281 3.473-1.281 5.95-1.708 1.594-4.27 2.050zM17.655 19.701v0.456l-0.598 0.456-0.883-0.683 0.883-0.683zM17.655 18.762v0.883l-0.541-0.427zM17.655 20.214v0.854l-0.541-0.427zM17.655 22.605v0.456l-0.598 0.456-0.883-0.683 0.883-0.683zM17.655 21.153v0.456l-0.598 0.456-0.883-0.683 0.883-0.683zM17.655 18.249v0.456l-0.598 0.456-0.883-0.683 0.883-0.683zM17.655 21.666v0.854l-0.541-0.427zM17.655 14.434v0.854l-0.541-0.427zM17.655 17.338v0.854l-0.541-0.427zM17.655 23.117v0.854l-0.541-0.427zM17.655 13.894v0.456l-0.598 0.456-0.883-0.683 0.883-0.683zM17.655 15.345v0.456l-0.598 0.455-0.883-0.683 0.883-0.683zM14.78 25.907q-0.029-0.029-0.029-0.142h1.31v6.235q-0.285-0.086-0.341-0.427-0.029-0.142-0.071-0.413t-0.071-0.384q-0.029-0.171-0.086-0.57-0.057-0.456-0.114-0.655-0.029-0.228-0.086-0.626-0.057-0.228-0.114-0.626-0.029-0.142-0.086-0.484-0.029-0.114-0.071-0.313t-0.043-0.285q-0.029-0.057-0.029-0.171t-0.029-0.171q-0.057-0.341-0.086-0.484 0-0.086-0.029-0.242t-0.029-0.242zM17.655 15.886v0.854l-0.541-0.427zM17.655 16.797v0.456l-0.598 0.456-0.883-0.683 0.883-0.683zM17.655 24.057v0.171h-1.395l0.797-0.626zM16.117 15.545l-0.911-0.683 0.911-0.683 0.883 0.683zM17.939 24.569q0.456 0.057 0.456 0.427 0 0.142-0.142 0.285-0.285 0.142-0.341 0.142-0.086 0.029-0.285 0.029h-2.989q-0.199 0-0.285-0.029-0.199 0-0.399-0.199-0.142-0.199-0.029-0.398 0.142-0.228 0.399-0.256 0.171-0.057 0.228-0.029l0.057-0.029h3.074q0.029 0.029 0.142 0.029 0.057 0 0.114 0.029zM16.117 11.275l0.883 0.683-0.883 0.683-0.911-0.683zM17.655 12.983v0.854l-0.541-0.427zM16.232 32v-6.235h1.309q-0.029 0.029-0.029 0.142-0.057 0.199-0.114 0.598l-0.086 0.512q-0.057 0.341-0.086 0.484 0 0.086-0.029 0.242t-0.057 0.242q-0.029 0.114-0.057 0.328t-0.029 0.299q-0.086 0.427-0.086 0.484-0.029 0.142-0.086 0.484 0 0.057-0.029 0.228t-0.057 0.228l-0.086 0.512q-0.057 0.341-0.057 0.484-0.057 0.199-0.114 0.598-0.029 0.256-0.313 0.37zM16.117 14.093l-0.911-0.683 0.911-0.683 0.883 0.683zM16.117 22.804l-0.911-0.712 0.911-0.683 0.883 0.683zM16.117 21.352l-0.911-0.712 0.911-0.683 0.883 0.683zM16.089 24.228l-0.883-0.683 0.911-0.683 0.883 0.683-0.854 0.683h-0.057zM16.117 18.449l-0.911-0.683 0.911-0.712 0.883 0.712zM16.117 16.997l-0.911-0.683 0.911-0.683 0.883 0.683zM16.117 19.901l-0.911-0.683 0.911-0.712 0.883 0.712zM14.609 21.637v-0.512l0.569-0.427 0.883 0.683-0.883 0.683zM14.609 18.733v-0.512l0.569-0.427 0.883 0.683-0.883 0.683zM14.609 18.135v-0.769l0.512 0.398zM14.609 19.587v-0.769l0.512 0.398zM14.609 20.185v-0.512l0.569-0.427 0.883 0.683-0.883 0.683zM14.609 16.684v-0.769l0.512 0.399zM14.609 17.281v-0.512l0.569-0.427 0.883 0.683-0.883 0.683zM14.609 22.491v-0.769l0.512 0.37zM14.609 21.039v-0.769l0.512 0.37zM24.032 8.741q0.086 0.114 0.228 0.456 0.029 0.057-0.256 0.057h-3.359q-0.228 0-0.456-0.142-0.199-0.142-0.598-0.484-0.199-0.199-0.797-0.37-0.057-0.057-0.086 0.029-0.484 0.683-0.57 0.825-0.313 0.256-0.456 0.256h-3.502q-0.029 0-0.086-0.057-0.086-0.057-0.299-0.213t-0.328-0.242q-0.142-0.142-0.427-0.341t-0.37-0.256q-0.626-0.455-0.968-0.655-0.512-0.341-0.769-0.484-0.655-0.285-0.712-0.313-0.285-0.142-0.854-0.37-0.228-0.114-0.683-0.171l-1.11-0.256q-0.086-0.029-0.626-0.086t-0.598-0.057q-0.086 0-0.313-0.029t-0.313-0.029q-0.313 0-0.37 0.029-0.114 0.057-0.171 0.228-0.114 0.228-0.228 0.683-0.029 0.086-0.086 0-0.199-0.142-0.256-0.313-0.142-0.37-0.313-1.11v-0.655q0-0.399 0.114-0.569 0.171-0.398 0.285-0.541 0.598-0.655 1.082-0.939l0.598-0.341 0.427-0.171q0.399-0.142 0.598-0.256 0.256-0.114 0.854-0.228 0.057 0 0.1-0.014t0.213-0.043 0.399-0.086q0.512-0.142 0.94-0.142 0.114-0.029 0.328-0.029t0.328-0.029q0.114 0 0.313-0.014t0.285-0.014h5.95q0.541 0 0.826-0.029 0.626-0.057 0.797-0.142 0.057-0.029 0.27-0.1t0.299-0.128q0.769-0.57 0.883-0.683t0.228-0.142q0.029 0 0.086-0.014t0.086-0.014h3.615q-0.057 0.171-0.114 0.228-0.029 0-0.029 0.029t-0.029 0.057l-0.228 0.256q-0.456 0.598-0.512 0.712-0.171 0.313-0.086 0.683 0.057 0.256 0.142 0.341 0.541 0.626 1.025 0.997l-0.199 0.171q-0.199 0.171-0.47 0.37t-0.413 0.285l-1.936 0.228q1.708 0.256 1.794 0.341l1.281 1.082q-0.199 0.142-0.584 0.47t-0.555 0.47l-1.936 0.341q1.879 0.285 1.907 0.341 0.114 0.142 0.199 0.37 0.057 0.086 0.57 0.968zM11.221 2.649l3.502-0.313-5.124 0.199q-0.256-0.029-0.285 0.114v0.427q0.142 0.541 0.712 0.513 0.655 0 1.025-0.398 0.171-0.171 0.171-0.37l1.879-0.199-1.879 0.057v-0.029zM14.609 23.943v-0.769l0.512 0.37zM14.609 24.228v-0.199l0.569-0.427 0.797 0.626h-1.367zM14.609 23.089v-0.512l0.569-0.427 0.883 0.683-0.883 0.683zM14.609 15.829v-0.512l0.569-0.427 0.883 0.683-0.883 0.683zM14.609 10.022h1.11l-0.541 0.427zM17.655 10.079v0.854l-0.541-0.427zM17.057 10.449l-0.57-0.427h1.139zM14.609 15.232v-0.769l0.512 0.399zM17.655 12.47v0.427l-0.598 0.456-0.883-0.683 0.883-0.683zM17.655 11.018v0.427l-0.598 0.456-0.883-0.683 0.883-0.683zM17.655 11.531v0.854l-0.541-0.427zM15.833 10.022h0.569l0.598 0.484-0.883 0.683-0.911-0.683zM14.609 13.78v-0.769l0.512 0.399zM14.609 10.876v-0.769l0.512 0.399zM14.609 12.926v-0.512l0.569-0.427 0.883 0.683-0.883 0.683zM14.609 14.378v-0.512l0.569-0.427 0.883 0.683-0.883 0.683zM14.609 12.328v-0.769l0.512 0.399zM14.609 11.474v-0.512l0.569-0.427 0.883 0.683-0.883 0.683z"></path>
</svg>
