<!-- Generated by IcoMoon.io -->
<svg version="1.1" xmlns="http://www.w3.org/2000/svg" width="32" height="32" viewBox="0 0 32 32">
<title>strike</title>
<path d="M4.583 0h22.827c0.004 0.065 0.006 0.141 0.006 0.217s-0.002 0.152-0.007 0.227l0-0.010v18.113c0 1.606 0 3.149 0 4.723 0 0.005 0 0.010 0 0.016 0 0.622-0.186 1.2-0.505 1.682l0.007-0.011c-0.433 0.636-0.937 1.181-1.512 1.643l-0.014 0.011c-1.365 1.13-2.893 2.161-4.518 3.035l-0.149 0.073c-1.526 0.803-3.084 1.606-4.699 2.281l-0.803-0.345c-1.719-0.803-3.406-1.606-5.044-2.57-1.192-0.678-2.21-1.364-3.174-2.116l0.058 0.043c-0.765-0.569-1.414-1.241-1.941-2.004l-0.018-0.028c-0.316-0.475-0.507-1.058-0.514-1.685v-0.002q0-11.438 0-22.835zM5.194 0.602c0 0.145 0 0.257 0 0.361v22.217c0 0.001 0 0.002 0 0.003 0 0.583 0.193 1.121 0.519 1.554l-0.005-0.007c0.431 0.614 0.927 1.143 1.487 1.595l0.015 0.012c1.071 0.848 2.271 1.646 3.536 2.342l0.134 0.068c1.189 0.667 2.41 1.285 3.623 1.872l1.55 0.707 3.414-1.679c1.488-0.747 2.726-1.473 3.914-2.267l-0.131 0.083c1.033-0.659 1.926-1.405 2.716-2.249l0.007-0.008c0.542-0.564 0.876-1.331 0.876-2.176 0-0.014-0-0.029-0-0.043l0 0.002q0-10.924 0-21.839c0-0.096 0-0.193 0-0.289 0.004-0.036 0.006-0.078 0.006-0.12s-0.002-0.084-0.006-0.126l0 0.005z"></path>
<path d="M6.447 22.49l9.566-5.125 9.55 5.125c0.023 0.127 0.036 0.273 0.036 0.422 0 0.636-0.236 1.218-0.624 1.661l0.003-0.003c-0.497 0.611-1.060 1.141-1.685 1.589l-0.026 0.018c-1.060 0.776-2.267 1.528-3.528 2.189l-0.159 0.076c-1.076 0.578-2.177 1.1-3.285 1.606-0.081 0.042-0.176 0.067-0.277 0.067s-0.197-0.025-0.281-0.068l0.003 0.002c-2.538-1.098-4.707-2.302-6.741-3.688l0.139 0.089c-0.638-0.43-1.195-0.893-1.702-1.405l-0.001-0.001c-0.222-0.241-0.433-0.503-0.626-0.779l-0.016-0.025c-0.245-0.362-0.392-0.809-0.392-1.29 0-0.163 0.017-0.322 0.049-0.476l-0.003 0.015z"></path>
<path d="M25.579 1.767v8.554c-3.213-1.655-6.386-3.301-9.566-4.956l-9.502 4.924h-0.056s0 0 0 0c0-2.675 0-5.349 0-8.032v-0.49z"></path>
<path d="M25.579 18.121v1.012l-9.566-4.956-9.574 4.956v-1.012l9.574-5.125z"></path>
<path d="M6.431 14.731v-1.004l9.582-5.133 9.566 5.125v1.012l-9.566-4.956z"></path>
</svg>
