<!-- Generated by IcoMoon.io -->
<svg version="1.1" xmlns="http://www.w3.org/2000/svg" width="32" height="32" viewBox="0 0 32 32">
<title>team_bravo</title>
<path d="M16 0c-8.837 0-16 7.163-16 16s7.163 16 16 16c8.837 0 16-7.163 16-16v0c-0.001-8.836-7.164-15.999-16-16h-0zM16 28.838c-7.090 0-12.838-5.748-12.838-12.838s5.748-12.838 12.838-12.838c7.090 0 12.838 5.748 12.838 12.838v0c-0.008 7.087-5.751 12.829-12.837 12.838h-0.001z"></path>
<path d="M16 3.62c-6.84 0-12.385 5.545-12.385 12.385s5.545 12.385 12.385 12.385c6.84 0 12.385-5.545 12.385-12.385 0-0.002 0-0.004 0-0.006v0c-0.012-6.834-5.55-12.371-12.384-12.38h-0.001zM5.599 14.268q5.036-4.018 10.083-8.033c0.167-0.133 0.285-0.239 0.515-0.055q5.16 4.126 10.337 8.235c0.042 0.049 0.079 0.104 0.111 0.164l0.002 0.005h-2.569c-0.784 0-1.568-0.009-2.352 0-0.008 0-0.017 0-0.027 0-0.25 0-0.479-0.092-0.653-0.245l0.001 0.001c-1.577-1.266-3.168-2.515-4.739-3.789-0.262-0.213-0.42-0.198-0.679 0.007-1.573 1.272-3.16 2.524-4.742 3.784-0.16 0.128-0.31 0.24-0.54 0.239-1.662-0.009-3.324 0-4.992 0-0.024-0.201 0.148-0.238 0.243-0.313zM9.607 22.037c-0.016 0-0.036 0.001-0.055 0.001-1.445 0-2.62-1.156-2.65-2.593l-0-0.003c0-0.036 0-0.074 0-0.113 0.031-1.44 1.206-2.596 2.65-2.596 1.464 0 2.651 1.187 2.651 2.651 0 1.445-1.156 2.619-2.593 2.65l-0.003 0zM16.015 22.009c-1.473-0.006-2.664-1.202-2.664-2.676 0-0.004 0-0.008 0-0.012v0.001-0.026c0.022-1.461 1.212-2.636 2.675-2.636 1.478 0 2.676 1.198 2.676 2.676s-1.198 2.676-2.676 2.676c-0.004 0-0.008 0-0.012-0h0.001zM22.445 22.009c-1.456-0.007-2.633-1.189-2.633-2.645 0-0.006 0-0.012 0-0.018v0.001-0.034c0.025-1.443 1.2-2.603 2.647-2.603 1.462 0 2.647 1.185 2.647 2.647s-1.185 2.647-2.647 2.647c-0.005 0-0.010 0-0.015-0h0.001z"></path>
</svg>
