<!-- Generated by IcoMoon.io -->
<svg version="1.1" xmlns="http://www.w3.org/2000/svg" width="32" height="32" viewBox="0 0 32 32">
<title>team_alpha</title>
<path d="M0 16l16 16 16-16-16-16zM28.001 16l-12.001 12.001-11.999-12.001 11.999-11.999z"></path>
<path d="M22.053 13.493v-3.546h-3.546l-2.507-2.507-2.507 2.507h-3.546v3.546l-2.507 2.507 2.507 2.507v3.546h3.546l2.507 2.507 2.507-2.507h3.546v-3.546l2.507-2.507zM16 21.204c-2.874 0-5.204-2.33-5.204-5.204s2.33-5.204 5.204-5.204c2.874 0 5.204 2.33 5.204 5.204v0 0c0 2.874-2.33 5.204-5.204 5.204v0z"></path>
</svg>
