<!-- Generated by IcoMoon.io -->
<svg version="1.1" xmlns="http://www.w3.org/2000/svg" width="32" height="32" viewBox="0 0 32 32">
<title>the_dawning</title>
<path d="M18.942 13.008c0.009-0.091 0.015-0.165 0.025-0.238 0.038-0.259 0.077-0.518 0.116-0.777q0.088-0.589 0.174-1.178c0.033-0.222 0.059-0.446 0.096-0.667 0.095-0.572 0.41-1.010 0.848-1.369 0.209-0.164 0.452-0.297 0.716-0.385l0.017-0.005q1.657-0.581 3.311-1.167c0.169-0.060 0.339-0.12 0.508-0.181 0.125-0.046 0.23-0.117 0.317-0.206l0-0q0.595-0.606 1.2-1.2c0.091-0.087 0.156-0.175 0.175-0.303 0.029-0.145 0.060-0.264 0.097-0.381l-0.007 0.025 0.555-0.142c0.033 0.218-0.076 0.398-0.101 0.581-0.026 0.017-0.038 0.032-0.051 0.033-0.346 0.024-0.589 0.214-0.818 0.46-0.323 0.349-0.667 0.677-1.005 1.011-0.089 0.087-0.157 0.194-0.198 0.314l-0.002 0.006c-0.208 0.603-0.429 1.201-0.642 1.803q-0.353 0.997-0.702 1.993c-0.13 0.395-0.348 0.731-0.63 0.999l-0.001 0.001c-0.337 0.31-0.725 0.528-1.191 0.589-0.579 0.077-1.155 0.173-1.733 0.258-0.326 0.048-0.652 0.093-0.979 0.138-0.034-0.001-0.067-0.004-0.099-0.011l0.003 0.001z"></path>
<path d="M18.938 18.871c0.294 0.039 0.546 0.071 0.798 0.106 0.289 0.040 0.578 0.081 0.867 0.125 0.458 0.071 0.922 0.122 1.374 0.224 0.568 0.128 0.994 0.477 1.316 0.957 0.113 0.175 0.21 0.376 0.281 0.59l0.005 0.019q0.672 1.911 1.353 3.819c0.033 0.087 0.082 0.162 0.143 0.224l-0-0c0.429 0.436 0.864 0.865 1.292 1.3 0.085 0.080 0.193 0.136 0.314 0.155l0.003 0 0.299 0.067c0.050 0.195 0.1 0.388 0.157 0.613l-0.605-0.154c-0.018-0.047-0.033-0.102-0.044-0.16l-0.001-0.007c-0.028-0.262-0.168-0.45-0.355-0.627-0.378-0.358-0.741-0.732-1.106-1.103-0.066-0.068-0.148-0.12-0.239-0.151l-0.004-0.001q-1.19-0.415-2.377-0.838c-0.538-0.191-1.076-0.38-1.609-0.583-0.732-0.279-1.201-0.81-1.422-1.555-0.063-0.213-0.078-0.442-0.111-0.664q-0.086-0.578-0.168-1.156c-0.037-0.26-0.071-0.52-0.106-0.78-0.016-0.13-0.034-0.261-0.055-0.42z"></path>
<path d="M4.9 4.825c0.191 0.051 0.342 0.097 0.495 0.129 0.087 0.018 0.136 0.054 0.142 0.145 0.018 0.299 0.187 0.505 0.398 0.702 0.369 0.345 0.718 0.711 1.075 1.070 0.065 0.069 0.145 0.123 0.235 0.156l0.004 0.001q1.382 0.483 2.759 0.975c0.396 0.14 0.796 0.272 1.186 0.426 0.842 0.332 1.365 0.931 1.502 1.842 0.087 0.578 0.176 1.155 0.263 1.733 0.045 0.311 0.091 0.622 0.136 0.934-0.001 0.029-0.006 0.056-0.014 0.082l0.001-0.002c-0.141-0.014-0.281-0.024-0.419-0.045-0.453-0.067-0.903-0.14-1.355-0.207-0.341-0.051-0.68-0.105-1.024-0.145-0.428-0.049-0.786-0.241-1.107-0.515-0.358-0.307-0.586-0.697-0.74-1.141-0.36-1.035-0.733-2.066-1.1-3.098-0.083-0.233-0.159-0.469-0.246-0.7-0.029-0.080-0.072-0.148-0.126-0.207l0 0c-0.434-0.441-0.875-0.875-1.309-1.317-0.086-0.088-0.19-0.113-0.299-0.139-0.308-0.072-0.308-0.072-0.385-0.369-0.023-0.092-0.043-0.185-0.072-0.313z"></path>
<path d="M4.893 27.069l0.159-0.615c0.119-0.024 0.236-0.045 0.351-0.072 0.107-0.024 0.2-0.076 0.272-0.149l0-0q0.634-0.646 1.281-1.28c0.071-0.073 0.126-0.162 0.158-0.261l0.001-0.005q0.574-1.636 1.15-3.27c0.111-0.311 0.215-0.627 0.362-0.921 0.303-0.612 0.8-1.009 1.457-1.191 0.229-0.063 0.472-0.079 0.709-0.115 0.281-0.042 0.563-0.084 0.845-0.123 0.362-0.051 0.728-0.1 1.091-0.15l0.369-0.051c-0.036 0.268-0.066 0.511-0.101 0.753-0.037 0.259-0.080 0.518-0.117 0.777-0.034 0.237-0.061 0.476-0.097 0.713-0.040 0.266-0.063 0.539-0.136 0.796-0.207 0.732-0.671 1.26-1.38 1.533-0.819 0.317-1.651 0.597-2.479 0.89-0.502 0.178-1.007 0.346-1.509 0.525-0.095 0.035-0.176 0.087-0.244 0.153l0-0c-0.441 0.433-0.876 0.874-1.314 1.308-0.076 0.079-0.126 0.182-0.139 0.296l-0 0.002c-0.051 0.299-0.055 0.299-0.349 0.37-0.103 0.022-0.203 0.050-0.339 0.085z"></path>
<path d="M14.904 15.922c-0.082 0.073-0.134 0.126-0.192 0.17-0.459 0.341-0.911 0.692-1.38 1.017-0.608 0.422-1.254 0.42-1.852 0.009-0.217-0.149-0.418-0.32-0.631-0.475-0.387-0.285-0.845-0.5-1.341-0.615l-0.025-0.005c-0.027-0.006-0.059-0.009-0.091-0.009h-0c-0.052 0-0.105 0-0.159 0l-0.284 0.351c-0.098-0.070-0.184-0.139-0.265-0.212l0.003 0.002c-0.14-0.14-0.136-0.275 0.004-0.412 0.077-0.068 0.162-0.134 0.25-0.196l0.009-0.006c0.097 0.126 0.19 0.248 0.295 0.385 0.425-0.048 0.84-0.169 1.209-0.412 0.338-0.224 0.665-0.467 0.989-0.711 0.413-0.309 0.868-0.405 1.363-0.272 0.227 0.060 0.425 0.181 0.614 0.325 0.463 0.348 0.933 0.687 1.401 1.028 0.023 0.013 0.050 0.025 0.078 0.036l0.004 0.001z"></path>
<path d="M23.079 16.342c-0.096-0.129-0.181-0.239-0.277-0.368-0.21-0.019-0.42 0.064-0.634 0.131-0.423 0.133-0.78 0.382-1.127 0.647q-0.251 0.192-0.508 0.375c-0.544 0.387-1.251 0.405-1.812-0.005-0.437-0.32-0.868-0.647-1.303-0.969-0.091-0.067-0.181-0.129-0.29-0.204 0.211-0.157 0.408-0.306 0.608-0.453 0.309-0.227 0.626-0.443 0.929-0.68 0.589-0.458 1.335-0.458 1.959 0.010 0.247 0.185 0.487 0.381 0.745 0.548 0.433 0.28 0.902 0.473 1.421 0.519 0.096-0.124 0.186-0.239 0.29-0.373 0.1 0.069 0.186 0.136 0.268 0.208l-0.004-0.003c0.134 0.126 0.122 0.312-0.020 0.432-0.071 0.066-0.153 0.12-0.243 0.186z"></path>
<path d="M16.010 17.067c0.158 0.207 0.297 0.383 0.431 0.563 0.246 0.331 0.495 0.661 0.733 0.997 0.412 0.584 0.435 1.272 0 1.863-0.249 0.339-0.501 0.677-0.719 1.036-0.217 0.339-0.355 0.748-0.376 1.187l-0 0.006 0.362 0.291c-0.056 0.086-0.108 0.159-0.165 0.229l0.004-0.005c-0.162 0.188-0.362 0.178-0.507-0.019-0.049-0.066-0.102-0.13-0.153-0.195 0.060-0.051 0.118-0.106 0.181-0.155s0.124-0.083 0.199-0.133c-0.031-0.264-0.089-0.503-0.171-0.731l0.007 0.023c-0.139-0.408-0.4-0.737-0.644-1.080-0.136-0.19-0.29-0.366-0.412-0.564-0.296-0.477-0.314-0.98-0.077-1.483 0.085-0.181 0.218-0.34 0.337-0.504 0.312-0.43 0.628-0.859 0.969-1.326z"></path>
<path d="M16.053 9.133c0.056 0.567 0.269 1.072 0.598 1.533 0.21 0.293 0.435 0.577 0.622 0.883 0.349 0.572 0.305 1.149-0.073 1.69-0.336 0.48-0.695 0.944-1.046 1.413-0.039 0.053-0.091 0.098-0.145 0.159-0.14-0.184-0.272-0.354-0.4-0.529q-0.371-0.51-0.737-1.024c-0.463-0.652-0.408-1.345 0.067-1.956 0.197-0.255 0.386-0.517 0.566-0.786 0.262-0.392 0.408-0.832 0.494-1.293 0.001-0.014 0.002-0.029 0.002-0.045s-0.001-0.032-0.002-0.047l0 0.002z"></path>
<path d="M16.053 9.133h-0.054c-0 0-0.001 0-0.001 0-0.079 0-0.15-0.036-0.196-0.093l-0-0c-0.057-0.058-0.12-0.109-0.195-0.175l0.387-0.411c-0.138-0.191-0.29-0.404-0.444-0.615-0.398-0.548-0.79-1.1-1.196-1.641-0.374-0.498-0.493-1.061-0.427-1.663 0.047-0.386 0.196-0.731 0.419-1.015l-0.003 0.004c0.277-0.366 0.559-0.728 0.821-1.104 0.345-0.484 0.605-1.054 0.745-1.669l0.006-0.032c0.038-0.175 0.070-0.352 0.114-0.576 0.041 0.15 0.080 0.259 0.099 0.371 0.118 0.705 0.391 1.332 0.784 1.864l-0.008-0.012c0.323 0.444 0.64 0.892 0.957 1.34 0.187 0.265 0.272 0.57 0.306 0.884 0.062 0.583-0.070 1.12-0.425 1.595q-0.815 1.094-1.631 2.19c-0.021 0.032-0.044 0.069-0.064 0.108l-0.003 0.007c0.164 0.095 0.306 0.216 0.381 0.417l-0.108 0.036-0.013-0.102-0.031 0.009 0.039 0.097c-0.071 0.084-0.124 0.193-0.26 0.186zM16.034 1.648c-0.127 0.234-0.238 0.484-0.388 0.707-0.285 0.424-0.589 0.835-0.892 1.247-0.221 0.3-0.394 0.612-0.444 0.997-0.013 0.081-0.020 0.174-0.020 0.269 0 0.402 0.129 0.774 0.349 1.077l-0.004-0.005c0.15 0.215 0.307 0.427 0.462 0.639q0.425 0.584 0.852 1.166c0.028 0.031 0.057 0.058 0.089 0.083l0.002 0.001c0.018-0.013 0.034-0.026 0.048-0.040l-0 0c0.437-0.593 0.869-1.191 1.311-1.779 0.317-0.422 0.457-0.882 0.38-1.41-0.046-0.329-0.171-0.623-0.354-0.87l0.004 0.005c-0.306-0.419-0.616-0.835-0.906-1.264-0.181-0.267-0.33-0.553-0.489-0.821z"></path>
<path d="M0 15.986c0.064-0.019 0.145-0.037 0.226-0.050l0.011-0.001c0.786-0.055 1.491-0.331 2.129-0.786 0.404-0.288 0.8-0.587 1.201-0.879 0.376-0.286 0.852-0.459 1.369-0.459 0.007 0 0.013 0 0.020 0h-0.001c0.511 0.005 0.966 0.192 1.377 0.494 0.66 0.486 1.322 0.969 1.982 1.455 0.078 0.057 0.147 0.125 0.236 0.202-0.267 0.202-0.515 0.395-0.77 0.58-0.521 0.382-1.049 0.757-1.568 1.141-0.237 0.176-0.519 0.304-0.826 0.365l-0.013 0.002c-0.68 0.136-1.292-0.026-1.845-0.443-0.401-0.303-0.809-0.603-1.23-0.878-0.499-0.333-1.091-0.57-1.728-0.67l-0.025-0.003c-0.163-0.024-0.327-0.042-0.544-0.070zM1.676 15.986c0.461 0.186 0.859 0.411 1.221 0.68l-0.014-0.010c0.337 0.24 0.667 0.489 0.999 0.735 0.567 0.419 1.5 0.424 2.080 0.003 0.554-0.399 1.105-0.807 1.655-1.21 0.096-0.071 0.188-0.146 0.299-0.233-0.040-0.030-0.063-0.049-0.088-0.067-0.606-0.444-1.205-0.899-1.82-1.33-0.661-0.464-1.359-0.479-2.055-0.077-0.194 0.112-0.368 0.259-0.552 0.39-0.366 0.262-0.729 0.531-1.103 0.782-0.185 0.123-0.393 0.213-0.622 0.338z"></path>
<path d="M23.472 15.927c0.644-0.474 1.268-0.934 1.891-1.392 0.181-0.133 0.362-0.272 0.552-0.39 0.675-0.425 1.384-0.467 2.11-0.152 0.19 0.093 0.354 0.194 0.506 0.309l-0.008-0.006c0.453 0.312 0.887 0.648 1.35 0.942 0.488 0.31 1.066 0.525 1.686 0.604l0.021 0.002c0.126 0.017 0.251 0.039 0.42 0.065-0.241 0.037-0.444 0.062-0.645 0.101-0.716 0.146-1.346 0.444-1.88 0.86l0.010-0.008c-0.366 0.276-0.739 0.544-1.113 0.808-0.202 0.151-0.44 0.265-0.699 0.329l-0.014 0.003c-0.707 0.155-1.356 0.030-1.942-0.408-0.487-0.365-0.982-0.721-1.471-1.082-0.252-0.189-0.503-0.381-0.775-0.585zM30.327 15.907c-0.116-0.058-0.219-0.103-0.317-0.158-0.236-0.133-0.478-0.257-0.701-0.41-0.322-0.221-0.627-0.467-0.943-0.698-0.307-0.223-0.629-0.4-1.019-0.448-0.076-0.011-0.164-0.018-0.253-0.018-0.401 0-0.771 0.131-1.070 0.352l0.005-0.003c-0.586 0.421-1.168 0.848-1.751 1.275-0.052 0.044-0.099 0.088-0.144 0.135l-0.001 0.001c0.052 0.045 0.082 0.081 0.119 0.107 0.575 0.424 1.145 0.856 1.727 1.268 0.67 0.477 1.379 0.521 2.092 0.104 0.297-0.174 0.566-0.397 0.844-0.602 0.418-0.308 0.829-0.627 1.309-0.837 0.039-0.022 0.072-0.044 0.104-0.070l-0.001 0.001z"></path>
<path d="M16.028 31.857c-0.008-0.040-0.014-0.090-0.018-0.141l-0-0.005c-0.013-0.426-0.14-0.827-0.288-1.22-0.207-0.549-0.566-1.006-0.911-1.471-0.161-0.217-0.317-0.438-0.48-0.655-0.258-0.348-0.421-0.781-0.444-1.251l-0-0.005c-0.002-0.028-0.002-0.062-0.002-0.095 0-0.276 0.058-0.538 0.164-0.774l-0.005 0.012c0.087-0.212 0.188-0.394 0.306-0.563l-0.006 0.009c0.532-0.738 1.076-1.466 1.615-2.199 0.019-0.033 0.036-0.071 0.051-0.111l0.002-0.005c0.13 0.171 0.227 0.293 0.317 0.419 0.488 0.667 0.98 1.332 1.462 2.004 0.306 0.426 0.417 0.914 0.377 1.431-0.034 0.445-0.211 0.839-0.475 1.198-0.312 0.424-0.634 0.842-0.916 1.284-0.322 0.489-0.55 1.069-0.643 1.693l-0.003 0.023c-0.020 0.14-0.042 0.28-0.063 0.419zM16.053 30.265c0.045-0.083 0.077-0.147 0.112-0.21 0.14-0.249 0.265-0.507 0.424-0.743 0.256-0.38 0.523-0.754 0.808-1.112 0.477-0.599 0.527-1.586 0.063-2.212-0.304-0.41-0.6-0.827-0.901-1.239-0.167-0.227-0.338-0.453-0.517-0.694-0.053 0.063-0.094 0.106-0.129 0.154q-0.236 0.317-0.469 0.634c-0.3 0.413-0.619 0.815-0.893 1.245-0.347 0.544-0.362 1.129-0.107 1.721 0.129 0.301 0.354 0.539 0.538 0.803 0.297 0.424 0.63 0.823 0.876 1.282 0.063 0.116 0.123 0.233 0.196 0.372z"></path>
<path d="M15.049 15.925c-0.041-0.456 0.444-0.969 0.988-0.959 0.496 0.009 0.974 0.459 0.965 0.991-0.009 0.515-0.48 0.977-0.987 0.973-0.56-0.004-1.012-0.532-0.967-1.005z"></path>
<path d="M20.657 6.022l-0.213 0.166-0.129-0.111 0.174-0.167c-0.068-0.091-0.162-0.027-0.257-0.075l-0.010-0.177 0.268-0.013-0.149-0.212 0.087-0.116 0.201 0.156c0.077-0.076 0.027-0.167 0.061-0.256l0.145-0.020c0.011 0.091 0.021 0.17 0.035 0.282l0.231-0.158 0.115 0.086-0.164 0.212c0.038 0.013 0.084 0.025 0.131 0.032l0.005 0.001c0.072 0.003 0.144 0.007 0.146 0.099 0.003 0.106-0.077 0.11-0.157 0.11-0.047 0.006-0.089 0.016-0.129 0.029l0.005-0.001 0.155 0.201-0.102 0.11-0.227-0.173c-0.017 0.106-0.031 0.188-0.045 0.279h-0.143c-0.008-0.080-0.017-0.159-0.031-0.284z"></path>
<path d="M20.856 25.896l0.212-0.181 0.1 0.115-0.16 0.225 0.272 0.038c0.003 0.045 0.006 0.091 0.010 0.149l-0.285 0.030c0.061 0.084 0.106 0.146 0.162 0.222l-0.112 0.097-0.2-0.158c-0.009 0.094-0.016 0.166-0.026 0.262l-0.189 0.012c-0.005-0.094-0.009-0.167-0.015-0.272l-0.231 0.181-0.091-0.122 0.16-0.218-0.276-0.033-0.011-0.142 0.285-0.045-0.157-0.214 0.081-0.127 0.175 0.131c0.106-0.034 0.050-0.133 0.094-0.21l0.165-0.035c0.015 0.099 0.025 0.186 0.038 0.294z"></path>
<path d="M5.556 20.786l-0.272-0.033v-0.134c0.067-0.073 0.205 0.025 0.255-0.116l-0.145-0.161 0.091-0.118 0.217 0.171c0.012-0.082 0.021-0.136 0.027-0.189-0-0.001-0-0.003-0-0.005 0-0.053 0.043-0.096 0.096-0.096 0.001 0 0.001 0 0.002 0h-0c0.004-0 0.008-0.001 0.012-0.001 0.052 0 0.093 0.042 0.093 0.093 0 0 0 0 0 0v-0c0.006 0.051 0.006 0.102 0.010 0.159 0.115 0.021 0.14-0.091 0.227-0.12l0.106 0.1-0.143 0.181c0.045 0.118 0.162 0.041 0.246 0.097l0.012 0.13-0.285 0.045 0.173 0.234-0.12 0.094-0.209-0.174c-0.008 0.098-0.014 0.17-0.021 0.257-0.028 0.009-0.062 0.016-0.096 0.020l-0.003 0c-0.032-0.001-0.062-0.006-0.090-0.013l0.003 0.001c-0.009-0.091 0.068-0.188-0.060-0.255l-0.178 0.158-0.104-0.099c0.049-0.071 0.097-0.14 0.157-0.227z"></path>
<path d="M11.043 5.886l-0.242-0.045c0-0.055-0.005-0.106-0.008-0.168l0.223-0.038c0.016-0.107-0.091-0.136-0.124-0.224l0.114-0.091 0.217 0.161c0.014-0.106 0.024-0.181 0.037-0.272h0.15c0.010 0.086 0.019 0.165 0.032 0.272l0.209-0.15c0.109 0.095 0.109 0.095-0.031 0.305 0.041 0.005 0.076 0.013 0.111 0.015s0.074 0 0.127 0c0.009 0.061 0.016 0.116 0.027 0.188l-0.272 0.033 0.144 0.209-0.091 0.112c-0.068-0.053-0.13-0.101-0.222-0.173-0.013 0.108-0.023 0.184-0.034 0.277l-0.15 0.016c-0.009-0.093-0.018-0.172-0.030-0.288l-0.221 0.163-0.124-0.084c0.054-0.071 0.1-0.135 0.159-0.217z"></path>
<path d="M26.393 11.022l0.239-0.188 0.084 0.097-0.145 0.265h0.247v0.174l-0.211 0.035c-0.026 0.111 0.091 0.136 0.12 0.227l-0.117 0.091-0.213-0.164c-0.014 0.106-0.024 0.184-0.037 0.277l-0.14 0.012-0.045-0.286-0.217 0.159-0.123-0.091 0.185-0.229-0.243-0.022c-0.037-0.168-0.037-0.168 0.19-0.195-0.021-0.111-0.021-0.111-0.117-0.23l0.115-0.105 0.207 0.168c0.018-0.107 0.031-0.189 0.045-0.281h0.143c0.009 0.080 0.018 0.159 0.033 0.284z"></path>
<path d="M11.228 26.433l-0.202 0.189c-0.031-0.045-0.060-0.087-0.093-0.136l0.159-0.212-0.276-0.037c-0.002-0.045-0.005-0.091-0.008-0.147l0.28-0.035-0.157-0.221 0.106-0.115 0.211 0.188c0.024-0.106 0.045-0.188 0.063-0.278h0.136c0.013 0.077 0.025 0.147 0.042 0.243l0.22-0.157 0.091 0.117c-0.055 0.073-0.101 0.136-0.166 0.222l0.275 0.035c0.004 0.045 0.007 0.085 0.011 0.141l-0.284 0.045 0.157 0.212-0.082 0.126-0.211-0.159c-0.012 0.030-0.024 0.067-0.034 0.105l-0.001 0.006c-0.006 0.036-0.004 0.073-0.007 0.126l-0.178 0.016c-0.007-0.021-0.012-0.045-0.013-0.071l-0-0.001c0.011-0.091 0.011-0.091-0.042-0.205z"></path>
<path d="M26.149 20.927l-0.217 0.207-0.108-0.117 0.157-0.209c-0.25-0.077-0.25-0.077-0.257-0.205l0.236-0.026c0.040-0.126-0.087-0.154-0.12-0.249l0.069-0.087c0.111 0 0.133 0.164 0.272 0.116-0.005-0.045-0.014-0.094-0.016-0.143-0-0.002-0-0.004-0-0.006 0-0.056 0.045-0.101 0.101-0.101 0.051 0 0.092 0.037 0.1 0.085l0 0.001c0.009 0.057 0.013 0.114 0.022 0.2l0.222-0.162 0.097 0.104c-0.052 0.071-0.098 0.134-0.165 0.227l0.269 0.048c0.003 0.045 0.005 0.091 0.009 0.145l-0.28 0.034 0.171 0.236-0.096 0.088-0.215-0.181c-0.018 0.109-0.032 0.19-0.048 0.285l-0.141 0.006c-0.019-0.092-0.035-0.174-0.060-0.295z"></path>
<path d="M5.554 11.396l-0.277-0.013-0.006-0.146 0.26-0.055c-0.038-0.067-0.077-0.149-0.113-0.233l-0.006-0.016c-0.006-0.016 0.045-0.051 0.071-0.081l0.22 0.163c0.013-0.106 0.023-0.184 0.035-0.276l0.141-0.012c0.014 0.091 0.027 0.174 0.045 0.285l0.215-0.156 0.114 0.072c-0.004 0.024-0.011 0.046-0.021 0.066l0.001-0.001c-0.050 0.062-0.131 0.11-0.081 0.216l0.188 0.013 0.014 0.152-0.249 0.040 0.159 0.218-0.103 0.095-0.234-0.167c-0.011 0.067-0.019 0.109-0.024 0.15s-0.006 0.073-0.010 0.124l-0.145 0.010c-0.014-0.091-0.028-0.174-0.045-0.284l-0.203 0.154-0.13-0.075c0.058-0.073 0.111-0.141 0.187-0.241z"></path>
<path d="M16.313 8.946l-0.039-0.097 0.031-0.009 0.013 0.102z"></path>
</svg>
