<!-- Generated by IcoMoon.io -->
<svg version="1.1" xmlns="http://www.w3.org/2000/svg" width="32" height="32" viewBox="0 0 32 32">
<title>throwing_knife</title>
<path d="M29.914 9.87q-1.407 0.074-1.95-0.173-0.568-0.271-1.037-0.815-0.049-0.049-0.185-0.234t-0.185-0.197-0.247 0.012q-0.049 0.025-0.309 0.259t-0.543 0.469-0.691 0.531-0.753 0.494q-0.839 0.469-1.407 1.16-0.099 0.123-0.247 0.259t-0.222 0.185q-0.123 0.049-0.333-0.148t-0.642-0.469-1.024-0.321h-0.765l-0.691-0.666q-0.518-0.469-0.592-0.642-0.123-0.346 0.346-0.716 0.049-0.049 0.259-0.309t0.42-0.481 0.333-0.197q0.148 0 0.37-0.16t0.395-0.346 0.432-0.457 0.309-0.321q0.592-0.592 1.382-1.185 0.666-0.494 2.789-1.234t4.739-0.839q0.247-0.025 0.494 0.062t0.457 0.259 0.395 0.383 0.321 0.383 0.21 0.321l0.099 0.123q0.74 3.875-1.925 5.010zM28.976 8.858q0.716 0 1.259-0.543t0.543-1.283-0.531-1.271-1.271-0.531q-0.79 0-1.308 0.518t-0.518 1.283 0.518 1.296 1.308 0.531zM21.818 12.067q0.814 0.864 0.728 2.061t-0.95 2.012q-0.568 0.617-1.58 0.839-0.691 0.173-1.407 0.889-3.406 3.455-5.282 5.109-7.158 6.22-13.328 5.652 0.123-0.099 1.111-1.728 1.135-1.802 1.604-2.443 0.642-0.814 1.333-1.629 2.024-2.616 5.208-4.887l-1.851 2.443q-1.407 1.9-1.703 2.345-0.543 0.864-0.321 0.864 0.049 0 0.123-0.025 0.247-0.049 0.42-0.222 0.148-0.148 1.752-2.246l1.95-2.592q0.691-0.889 2.184-2.394t2.086-2.197q0.321-0.444 0.444-0.494 0.148-0.049 0.383-0.099t0.395-0.123 0.333-0.247q0.148-0.173 0.173-0.543t0.123-0.543l1.974-1.974 0.814 0.864q0.592 0.592 0.864 0.592 0.518-0.074 1.296 0.123t1.123 0.592zM13.254 19.718q0.543 0 0.913-0.37t0.37-0.913-0.37-0.913-0.913-0.37-0.913 0.37-0.37 0.913 0.37 0.913 0.913 0.37zM19.301 15.843q0.79 0 1.357-0.568t0.568-1.333q0-0.815-0.568-1.37t-1.357-0.555-1.357 0.555-0.568 1.37q0 0.765 0.568 1.333t1.357 0.568zM14.389 7.748l-4.912 4.171 1.802-1.925q0.691-0.716 3.455-3.431 1.283-1.283 2.246-2.073 1.037-0.889 1.135-0.79 0.074 0.074-0.296 0.531t-1.259 1.382-2.172 2.135zM19.893 22.68l-4.912 4.146q0.025-0.025 0.605-0.642t1.234-1.283 1.469-1.481 1.357-1.283q2.838-2.912 3.801-3.455 0.247-0.148 0.197 0-0.247 0.716-3.752 3.998zM25.521 21.15l-4.912 4.171q0.025-0.025 0.605-0.642t1.234-1.283 1.469-1.481 1.357-1.283q3.011-3.085 3.875-3.505 0.173-0.074 0.123 0.074-0.222 0.666-3.653 3.875-0.049 0.025-0.099 0.074z"></path>
</svg>
