<!-- Generated by IcoMoon.io -->
<svg version="1.1" xmlns="http://www.w3.org/2000/svg" width="54" height="32" viewBox="0 0 54 32">
<title>turret</title>
<path d="M45.152 0.576l0.16 2.208-5.728 0.64v-0.096l-16.192 1.824 0.8 0.448 5.28-0.64 0.672 0.544 0.864-0.096 0.16 1.696-0.8 0.096-1.088 1.504-3.648 1.248 3.456 1.568h11.488v-0.96h0.736l2.88 4.256 0.224 2.144-0.352 1.952-0.48 0.288v2.4l0.832 0.352v1.6l-0.608 0.8-3.744 0.192-2.368 1.728-2.048 0.256-0.544 0.96h2.368l2.72 0.96 8.224 0.416 0.928-1.6h0.768v2.208l-0.352 1.344 0.32 0.64h-11.488v-1.792l-11.584 0.064-5.12-0.032-4.16 1.152h-6.528l-0.544 0.736h-6.656v-1.856l0.512-0.032v0.928l15.040-3.136h3.136l-0.32-1.312h-10.112v-1.056h9.92l0.032-1.216h-1.888l-3.264-3.264h-4.608l-0.672-3.2 0.032-1.952 4.576-4.416h2.4l-0.032-1.6-1.696 0.064-0.416-3.744-3.2 0.384-0.512-4.544 6.944-0.864h0.064l1.248 1.056 0.128 1.568 1.152-0.096 0.768-0.096 16.128-1.856v-0.064zM21.376 13.216l-1.312-0.32 0.448 1.408h1.6zM41.568 21.216v-0.576l-1.504 1.024h-3.552l-1.12 1.376 0.64-0.064v1.664l2.848-2.208h2.016zM35.808 14.112l-8.96-0.448-4.512-2.208v0.704l1.792 2.144h16.448v-0.576z"></path>
</svg>
