<!-- Generated by IcoMoon.io -->
<svg version="1.1" xmlns="http://www.w3.org/2000/svg" width="32" height="32" viewBox="0 0 32 32">
<title>vault</title>
<path d="M6.244 14.565q0.57 0.57 1.14 1.14c0.027 0.027 0.060 0.049 0.1 0.082 0.1-2.309 0.933-4.284 2.58-5.884s3.646-2.375 5.936-2.411c2.291 0.036 4.29 0.812 5.936 2.411s2.48 3.576 2.58 5.884c0.041-0.033 0.073-0.055 0.1-0.082q0.571-0.569 1.14-1.14 3.077-3.076 6.154-6.152c0.029-0.029 0.062-0.054 0.088-0.077v-2.626l-6.354 6.35c-0.538-1.291-1.289-2.421-2.267-3.397-0.941-0.943-2.064-1.703-3.312-2.225l-0.068-0.025c-1.279-0.525-2.609-0.781-3.998-0.781v0c-1.389 0-2.72 0.256-3.998 0.781-1.316 0.547-2.439 1.307-3.38 2.25l-0 0c-0.978 0.976-1.728 2.107-2.267 3.397l-6.354-6.35v2.626c0.026 0.023 0.059 0.049 0.088 0.077q3.078 3.076 6.154 6.152z"></path>
<path d="M31.923 8.925q-1.149 1.147-2.297 2.295-1.751 1.751-3.502 3.502-0.636 0.636-1.271 1.271c-0.225 0.225-0.452 0.447-0.678 0.67-0.016 0.016-0.035 0.030-0.057 0.049 0.159-2.744-0.74-5.056-2.802-6.878-1.557-1.375-3.539-1.99-5.316-1.973h-0.002c-1.777-0.018-3.759 0.597-5.316 1.973-2.063 1.822-2.961 4.134-2.802 6.878-0.021-0.018-0.040-0.032-0.057-0.049-0.226-0.223-0.453-0.446-0.678-0.67q-0.637-0.635-1.271-1.271-1.751-1.751-3.502-3.502-1.148-1.148-2.296-2.295c-0.021-0.021-0.038-0.053-0.077-0.059v2.638c0.284 0.281 0.574 0.567 0.863 0.854q0.979 0.975 1.956 1.951 1.144 1.144 2.286 2.289 1.838 1.836 3.677 3.673c0.508 0.508 1.013 1.019 1.525 1.524 0.804 0.793 1.738 1.383 2.792 1.788 0.904 0.346 1.842 0.517 2.81 0.534 0.029 0 0.058-0.003 0.091-0.005 0.033 0.002 0.062 0.006 0.091 0.005 0.967-0.017 1.905-0.188 2.81-0.534 1.053-0.404 1.988-0.994 2.792-1.788 0.512-0.505 1.017-1.016 1.525-1.524q1.839-1.837 3.677-3.673 1.144-1.144 2.286-2.289 0.977-0.977 1.956-1.951c0.288-0.288 0.579-0.573 0.863-0.854v-2.638c-0.039 0.006-0.056 0.038-0.077 0.059zM16 22.273c-3.585-0.035-6.261-2.896-6.287-6.219-0.012-1.515 0.456-2.876 1.422-4.043 1.258-1.519 2.9-2.261 4.865-2.311 1.965 0.050 3.607 0.792 4.865 2.311 0.966 1.167 1.434 2.528 1.422 4.043-0.026 3.323-2.701 6.185-6.287 6.219z"></path>
<path d="M30.015 14.001q-1.992 1.99-3.982 3.982-1.82 1.82-3.641 3.64c-0.235 0.235-0.471 0.469-0.716 0.693-0.577 0.529-1.225 0.954-1.928 1.298-0.834 0.421-1.807 0.711-2.834 0.814l-0.035 0.003c-0.259 0.025-0.519 0.031-0.778 0.046l-0.103 0.006-0.103-0.006c-0.259-0.015-0.52-0.021-0.778-0.046-1.062-0.106-2.034-0.396-2.916-0.838l0.048 0.022c-0.702-0.344-1.351-0.769-1.928-1.298-0.245-0.224-0.48-0.458-0.716-0.693q-1.82-1.819-3.639-3.64-1.991-1.992-3.982-3.982-0.948-0.948-1.899-1.893c-0.023-0.023-0.048-0.045-0.083-0.077v2.651c0.014 0.017 0.027 0.033 0.041 0.047q0.225 0.226 0.45 0.45 4.183 4.184 8.364 8.369c0.306 0.303 0.636 0.584 0.987 0.837l0.024 0.017c1.671 1.222 3.765 1.958 6.030 1.967h0.002c0.032 0 0.064-0.003 0.099-0.005 0.035 0.002 0.067 0.005 0.099 0.005 2.267-0.009 4.361-0.744 6.062-1.986l-0.029 0.020c0.375-0.27 0.705-0.55 1.012-0.854l-0.001 0.001q4.179-4.189 8.363-8.371 0.225-0.226 0.45-0.45c0.014-0.014 0.027-0.031 0.041-0.047v-2.651c-0.034 0.032-0.059 0.054-0.082 0.077q-0.949 0.947-1.899 1.894z"></path>
<path d="M16.011 10.066h-0.021c-2.066-0.006-4.137 1.123-5.21 3.148-1.050 1.982-0.884 4.382 0.44 6.223 1.265 1.759 3.256 2.477 4.78 2.433 1.524 0.043 3.515-0.674 4.78-2.433 1.324-1.841 1.491-4.241 0.44-6.223-1.074-2.025-3.145-3.154-5.211-3.148zM20.155 16.007c-0.015 1.137-0.426 2.12-1.235 2.921-0.805 0.798-1.788 1.184-2.921 1.21-1.132-0.026-2.116-0.412-2.921-1.21-0.809-0.802-1.22-1.784-1.235-2.921-0.012-0.938 0.267-1.792 0.838-2.537 0.834-1.088 1.955-1.624 3.315-1.667 0-0.007 0.002-0.016 0.002-0.026 0 0.011 0.002 0.020 0.002 0.026 1.36 0.043 2.481 0.58 3.315 1.667 0.571 0.745 0.85 1.599 0.838 2.537z"></path>
<path d="M16 13.953h-0.001c-0.734 0.029-1.321 0.324-1.71 0.941-0.457 0.726-0.459 1.482-0.006 2.211 0.388 0.623 0.977 0.92 1.715 0.95h0.001c0.738-0.030 1.327-0.327 1.715-0.95 0.454-0.729 0.452-1.485-0.006-2.211-0.387-0.617-0.975-0.912-1.709-0.941z"></path>
</svg>
