<!-- Generated by IcoMoon.io -->
<svg version="1.1" xmlns="http://www.w3.org/2000/svg" width="32" height="32" viewBox="0 0 32 32">
<title>void_titan_super</title>
<path d="M31.307 11.882q1.030 3.236 0.529 6.471l-0.029 0.029q-0.206 0.206-0.677 0.618l-0.088 0.088v-0.118q0.794-3.412-0.059-6.854v-0.029q0.029-0.059 0.118-0.132t0.147-0.103l0.029-0.029zM30.778 11.382q-0.353-1.147-0.941-2.236l-0.029-0.088 0.088 0.029q0.177 0.059 0.235 0.059v0.029h0.029q0.471 0.882 0.853 1.853v0.029q-0.059 0.206-0.177 0.324l-0.029 0.088zM24.306 4.057l-0.059 0.059q-1.677-1-3.648-1.441h-0.029v-0.118h0.059q1.971 0.5 3.677 1.5zM30.66 20.412q0.147-0.118 0.427-0.324t0.397-0.294l0.088-0.059-0.029 0.088q-0.559 2.177-1.618 3.853-2.647 4.442-7.471 6.207l-0.088 0.029 0.029-0.059q0.029-0.088 0.074-0.265t0.044-0.235v-0.029h0.029q4.265-1.853 6.765-6.001 0.882-1.53 1.324-2.912h0.029zM14.658 2.087h0.412l-0.029 0.088q-0.088 0.059-0.147 0.147l-0.029 0.029q-3.736 0.088-6.957 2t-5.221 5.206q-2.559 4.324-2.030 9.178v0.029q-0.147 0.118-0.353 0.324l-0.059 0.059-0.029-0.088q-0.882-5.265 1.853-9.854 1.971-3.295 5.354-5.206t7.236-1.912zM2.068 23.589q1.441 2.824 3.912 4.677l-0.029 0.059q-2.5-1.794-4.030-4.53l-0.029-0.029-0.412-0.765v-0.029q-0.647-1.265-1-2.736v-0.029q0.029-0.029 0.132-0.147t0.162-0.177l0.029-0.059 0.029 0.088q0.382 1.883 1.118 3.412zM7.834 28.766v-0.029l0.088 0.059h-0.118zM18.982 18.177q0.029 0.029 0.029 0.074t-0.029 0.074l-2.765 1.618q-0.147 0.059-0.265 0l-2.765-1.618q-0.059-0.029-0.059-0.074t0.059-0.074l2.765-1.618q0.118-0.059 0.265 0zM15.688 16.235q0.029 0.029 0.029 0.074t-0.029 0.074l-2.765 1.618q-0.147 0.088-0.147-0.088v-3.206q0-0.147 0.147-0.088zM13.187 14.47q-0.118-0.118 0-0.177l2.765-1.618q0.118-0.059 0.265 0l2.765 1.618q0.118 0.059 0 0.177l-2.765 1.588q-0.029 0.029-0.118 0.029t-0.147-0.029zM16.070 9.911q2.618 0 4.486 1.868t1.868 4.545q0 2.647-1.868 4.515t-4.486 1.868-4.486-1.868-1.868-4.515q0-2.677 1.868-4.545t4.486-1.868zM16.070 21.589q2.177 0 3.706-1.544t1.53-3.721q0-2.206-1.53-3.75t-3.706-1.544-3.706 1.544-1.53 3.75q0 2.177 1.53 3.721t3.706 1.544zM19.217 14.617q0.118-0.059 0.118 0.088v3.206q0 0.147-0.118 0.088l-2.765-1.618q-0.059-0.029-0.059-0.074t0.059-0.074zM16.070 3.293q3.5 0 6.471 1.736t4.692 4.751 1.721 6.545q0 5.383-3.78 9.207t-9.104 3.824-9.119-3.824-3.795-9.207q0-3.53 1.736-6.545t4.706-4.751 6.471-1.736zM22.483 24.148q1.324-0.735 2.353-1.838t1.53-2.177 0.824-2.044 0.412-1.559l0.059-0.588h-3.824q-0.088-1.883-1-3.5t-2.412-2.647q0.088 0 0.25 0.015t0.25 0.015q0.941 0 1.691 0.25t1.147 0.618 0.662 0.735 0.353 0.603l0.059 0.265q-0.324-1.794-0.647-2.412-0.706-1.324-1.809-2.353t-2.162-1.544-2.015-0.838-1.544-0.412l-0.588-0.059v3.765q-2 0-3.721 0.971t-2.78 2.589v-0.382q0-0.941 0.25-1.706t0.618-1.162 0.721-0.662 0.618-0.353l0.235-0.059q-1.765 0.324-2.353 0.647-1.324 0.735-2.353 1.838t-1.53 2.177-0.824 2.044-0.412 1.559l-0.059 0.588h3.795q0.059 1.941 0.985 3.589t2.456 2.706h-0.588q-0.941 0-1.691-0.25t-1.147-0.618-0.662-0.735-0.324-0.603l-0.088-0.265q0.324 1.765 0.647 2.383 0.706 1.324 1.809 2.353t2.162 1.544 2.015 0.838 1.544 0.382l0.588 0.088v-3.765h0.088q2 0 3.721-0.956t2.78-2.603v0.235q0 0.941-0.25 1.706t-0.618 1.162-0.721 0.662-0.618 0.353l-0.235 0.059q1.765-0.324 2.353-0.647z"></path>
</svg>
