<!-- Generated by IcoMoon.io -->
<svg version="1.1" xmlns="http://www.w3.org/2000/svg" width="32" height="32" viewBox="0 0 32 32">
<title>warlock_blade</title>
<path d="M19.554 8.776q3.382 0 6.247 0.963t4.532 2.622 1.667 3.601q0 1.957-1.667 3.616t-4.532 2.622-6.247 0.963q-0.798 0-1.706-0.078 3.272-0.25 5.871-1.409t3.883-2.896q-1.19 1.143-3.162 1.816t-4.274 0.673q-0.595 0-1.205-0.047 2.348-0.204 4.204-1.088t2.732-2.184q-1.613 1.252-4.258 1.252-0.485 0-0.736-0.016 1.331-0.11 2.411-0.587t1.66-1.182l0.485-0.016q0.188 0 0.861-0.086t1.753-0.384 1.644-0.72q-0.564-0.438-1.644-0.736t-1.753-0.384-0.861-0.086h-0.157q-0.454-0.892-1.652-1.511t-2.748-0.744q0.501-0.031 0.736-0.031 2.63 0 4.243 1.252-0.877-1.299-2.724-2.176t-4.196-1.080q0.579-0.047 1.205-0.047 2.301 0 4.266 0.665t3.155 1.808q-1.268-1.722-3.867-2.881t-5.871-1.425q1.096-0.063 1.706-0.063zM8.078 15.977q0 0.438-0.164 0.587t-0.446 0.149l-1.487 0.016-0.016-0.016h-2.896v-1.487h4.399q0.282 0 0.446 0.149t0.164 0.603zM7.217 16.275q0.11 0 0.204-0.086t0.094-0.211-0.086-0.219-0.211-0.094-0.219 0.094-0.094 0.219 0.094 0.211 0.219 0.086zM1.988 14.866v0.016l0.845 0.313v1.55l-0.845 0.329-1.988-0.501v-1.205l1.988-0.485v-0.016zM9.080 17.058q-0.235 0.423-0.626 0.454h-1.237l-1.174-0.391v-0.204h1.456q0.125 0 0.219-0.016t0.243-0.094 0.235-0.29 0.086-0.54-0.086-0.548-0.235-0.297-0.243-0.094-0.219-0.016h-1.456v-0.204l1.174-0.391h1.127q0.47 0 0.728 0.462t0.258 1.088-0.251 1.080zM25.346 16.009q0.031 0 0.031-0.031 0-0.047-0.031-0.047l-14.168-0.204v-0.532q0-0.188-0.031-0.313v-0.031l13.088 0.235q0.204 0 0.939 0.063t1.933 0.29 1.824 0.54q-0.626 0.313-1.824 0.532t-1.926 0.282-0.947 0.063l-13.088 0.235v-0.031q0.031-0.094 0.031-0.282v-0.47zM10.787 14.74q0.078 0.078 0.078 0.188v2.129q0 0.11-0.078 0.188l-0.282 0.204-1.237 2.489q-0.063 0.078-0.141 0.141l-1.863 0.83q-0.031 0.031-0.031 0v-0.031l0.564-2.567q0.031-0.11 0.11-0.141l1.378-0.658q0.266-0.642 0.266-1.534 0-0.908-0.266-1.55l-1.378-0.658q-0.078-0.031-0.11-0.141l-0.564-2.568v-0.031h0.031l1.863 0.845q0.078 0.031 0.141 0.125l1.252 2.552zM15.405 21.895q1.315-0.924 2.192-0.501-0.501 0.047-0.814 0.282t-0.446 0.509-0.391 0.564-0.634 0.399q-0.689 0.172-1.151 0.031t-0.697-0.391l-0.235-0.25q0.157 0.031 0.297 0.047t0.258 0.023 0.251-0.023 0.211-0.039 0.211-0.070 0.18-0.078 0.196-0.11 0.18-0.117 0.196-0.141 0.196-0.133zM15.405 10.122q-0.783-0.548-1.159-0.642-0.438-0.11-1.018 0.016 0.031-0.047 0.086-0.11t0.251-0.235 0.423-0.243 0.587-0.133 0.736 0.094q0.376 0.125 0.634 0.407t0.391 0.556 0.446 0.517 0.814 0.29q-0.908 0.423-2.192-0.517z"></path>
</svg>
