<!-- Generated by IcoMoon.io -->
<svg version="1.1" xmlns="http://www.w3.org/2000/svg" width="32" height="32" viewBox="0 0 32 32">
<title>X_Button</title>
<path d="M16.080 0.128q4.333 0 7.992 2.102t5.793 5.729 2.134 7.96q0 4.237-2.134 7.928t-5.809 5.858-7.976 2.166q-6.548 0-11.33-4.782-2.215-2.215-3.482-5.103t-1.268-6.066 1.284-6.114 3.466-5.023q4.75-4.654 11.33-4.654zM20.574 25.741h4.558l-6.837-10.175 6.612-9.725h-4.301l-3.049 4.782q-0.738 1.123-1.348 2.215-0.706-1.252-1.284-2.215l-3.049-4.782h-4.429l6.483 9.693-6.997 10.207h4.397l3.338-5.135q0.578-0.931 1.38-2.311 1.22 2.118 1.316 2.279z"></path>
</svg>
