<?xml version="1.0" encoding="utf-8"?>
<!-- Generator: Adobe Illustrator 23.0.4, SVG Export Plug-In . SVG Version: 6.00 Build 0)  -->
<svg version="1.1" id="Layer_1" xmlns="http://www.w3.org/2000/svg" xmlns:xlink="http://www.w3.org/1999/xlink" x="0px" y="0px"
	 width="32px" height="32px" viewBox="0 0 32 32" style="enable-background:new 0 0 32 32;" xml:space="preserve">
<path d="M20.4,11.6L18,6.5L21,0L24,6.1l-1,2.8l2.6-1l6.3,3.1l-6.4,3.1L20.4,11.6z"/>
<path d="M11.6,20.4l2.4,5.1L11,32L8,25.9l1-2.8l-2.6,1L0,20.9l6.4-3.1L11.6,20.4z"/>
<path d="M20.4,20.4L18,25.5L21,32l3.1-6.1l-1-2.8l2.6,1l6.3-3.1l-6.4-3.1L20.4,20.4z"/>
<path d="M11.6,11.6L14,6.5L11,0L8,6.1l1,2.8L6.3,8L0,11.1l6.4,3.1L11.6,11.6z"/>
<path d="M16,8.2l2.1,4.4l-0.7,2l1.8-0.8l4.4,2.2l-4.4,2.2l-1.8-0.8l0.7,2L16,23.8l-2.1-4.4l0.7-2l-1.8,0.8L8.3,16l4.4-2.2l1.8,0.8
	l-0.7-2L16,8.2z"/>
</svg>
