<?xml version="1.0" encoding="utf-8"?>
<!-- Generator: Adobe Illustrator 23.0.4, SVG Export Plug-In . SVG Version: 6.00 Build 0)  -->
<svg version="1.1" id="Layer_1" xmlns="http://www.w3.org/2000/svg" xmlns:xlink="http://www.w3.org/1999/xlink" x="0px" y="0px"
	 width="32px" height="32px" viewBox="0 0 32 32" style="enable-background:new 0 0 32 32;" xml:space="preserve">
<path d="M27.1,4.9c0,0.1-0.1,0.2-0.1,0.3C27,5.5,27,5.5,26.7,5.5c-0.2,0-0.2,0.1-0.4,0.2L25.1,7c-0.4,0.4-1.2,4.2-2.1,5.1
	c-0.9,0.9-1.9,1-4,1c0-2.1,0.1-3.1,1-4c0.9-0.9,4.6-1.7,5.1-2.1l1.3-1.3c0.1-0.1,0.2-0.2,0.2-0.4C26.5,5,26.5,5,26.8,4.9
	C26.9,4.9,27,4.9,27.1,4.9z M27.1,26.8c-0.1-0.3-0.1-0.3-0.4-0.4c-0.2,0-0.2-0.1-0.4-0.2L25.1,25c-0.4-0.4-1.2-4.2-2.1-5.1
	c-0.9-0.9-1.9-1-4-1c0,2.1,0.1,3.1,1,4c0.9,0.9,4.6,1.7,5.1,2.1l1.3,1.3c0.1,0.1,0.2,0.2,0.2,0.4c0.1,0.3,0.1,0.3,0.4,0.4
	c0.1,0,0.2,0,0.3,0.1C27.1,27,27.1,26.9,27.1,26.8z M5.2,27.1C5.5,27,5.5,27,5.5,26.7c0-0.2,0.1-0.2,0.2-0.4L7,25.1
	c0.4-0.4,4.2-1.2,5.1-2.1c0.9-0.9,1-1.9,1-4c-2.1,0-3.1,0.1-4,1c-0.9,0.9-1.7,4.6-2.1,5.1l-1.3,1.3c-0.1,0.1-0.2,0.2-0.4,0.2
	C5,26.5,5,26.5,4.9,26.8c0,0.1,0,0.2-0.1,0.3C5,27.1,5.1,27.1,5.2,27.1z M4.9,5.2C5,5.5,5,5.5,5.3,5.5c0.2,0,0.2,0.1,0.4,0.2L6.9,7
	C7.3,7.4,8.2,11.2,9,12c0.9,0.9,1.9,1,4,1c0-2.1-0.1-3.1-1-4C11.2,8.2,7.4,7.3,7,6.9L5.7,5.7C5.6,5.5,5.6,5.5,5.5,5.3
	C5.5,5,5.5,5,5.2,4.9c-0.1,0-0.2,0-0.3-0.1C4.9,5,4.9,5.1,4.9,5.2z M16,9.1c0,1.5-1.5,2.2-1.5,3.2c0,1,0.9,1.8,1.5,2.5
	c0.6-0.6,1.5-1.5,1.5-2.5C17.5,11.3,16,10.7,16,9.1L16,9.1z M16,22.9c0-1.5-1.5-2.2-1.5-3.2c0-1,0.9-1.8,1.5-2.5
	c0.6,0.6,1.5,1.5,1.5,2.5C17.5,20.7,16,21.3,16,22.9L16,22.9z M18.2,4.7c0,1.3-0.8,1.7-2.2,3.9c-1.3-2.3-2.2-2.6-2.2-3.9
	c0-1,0.6-1.4,1.4-2.7C15.5,1.6,15.8,0.9,16,0c0.2,0.9,0.5,1.6,0.8,2.1C17.6,3.3,18.2,3.7,18.2,4.7z M16,8c1.1-1.9,1.8-2.1,1.8-3.2
	c0-1.1-0.7-1.3-1.8-3.2c-1.1,1.9-1.8,2.1-1.8,3.2C14.2,5.8,14.9,6.1,16,8z M18.2,27.3c0-1.3-0.8-1.7-2.2-3.9
	c-1.3,2.3-2.2,2.6-2.2,3.9c0,1,0.6,1.4,1.4,2.7c0.3,0.5,0.5,1.1,0.8,2.1c0.2-0.9,0.5-1.6,0.8-2.1C17.6,28.7,18.2,28.3,18.2,27.3z
	 M16,24c1.1,1.9,1.8,2.1,1.8,3.2c0,1.1-0.7,1.3-1.8,3.2c-1.1-1.9-1.8-2.1-1.8-3.2C14.2,26.2,14.9,25.9,16,24z M16,15
	c-0.5,0-1,0.4-1,1s0.4,1,1,1s1-0.4,1-1S16.5,15,16,15z M16,8.7c-0.2,0-0.4,0.2-0.4,0.4h0.1c0,0.2,0.1,0.3,0.3,0.3s0.3-0.1,0.3-0.3
	h0.1C16.4,8.8,16.2,8.7,16,8.7z M16.4,22.9h-0.1c0-0.2-0.1-0.3-0.3-0.3s-0.3,0.1-0.3,0.3h-0.1c0,0.2,0.2,0.4,0.4,0.4
	S16.4,23.2,16.4,22.9z M9.1,16c1.5,0,2.2,1.5,3.2,1.5c1,0,1.8-0.9,2.5-1.5c-0.6-0.6-1.5-1.5-2.5-1.5C11.3,14.5,10.7,16,9.1,16
	L9.1,16z M22.9,16c-1.5,0-2.2,1.5-3.2,1.5c-1,0-1.8-0.9-2.5-1.5c0.6-0.6,1.5-1.5,2.5-1.5C20.7,14.5,21.3,16,22.9,16L22.9,16z
	 M4.7,13.8c1.3,0,1.7,0.8,3.9,2.2c-2.3,1.3-2.6,2.2-3.9,2.2c-1,0-1.4-0.6-2.7-1.4C1.6,16.5,0.9,16.2,0,16c0.9-0.2,1.6-0.5,2.1-0.8
	C3.3,14.4,3.7,13.8,4.7,13.8z M8,16c-1.9-1.1-2.1-1.8-3.2-1.8c-1.1,0-1.3,0.7-3.2,1.8c1.9,1.1,2.1,1.8,3.2,1.8
	C5.8,17.8,6.1,17.1,8,16z M27.3,13.8c-1.3,0-1.7,0.8-3.9,2.2c2.3,1.3,2.6,2.2,3.9,2.2c1,0,1.4-0.6,2.7-1.4c0.5-0.3,1.1-0.5,2.1-0.8
	c-0.9-0.2-1.6-0.5-2.1-0.8C28.7,14.4,28.3,13.8,27.3,13.8z M24,16c1.9-1.1,2.1-1.8,3.2-1.8c1.1,0,1.3,0.7,3.2,1.8
	c-1.9,1.1-2.1,1.8-3.2,1.8C26.2,17.8,25.9,17.1,24,16z M8.7,16c0,0.2,0.2,0.4,0.4,0.4v-0.1c0.2,0,0.3-0.1,0.3-0.3s-0.1-0.3-0.3-0.3
	v-0.1C8.8,15.6,8.7,15.8,8.7,16z M22.9,15.6v0.1c-0.2,0-0.3,0.1-0.3,0.3s0.1,0.3,0.3,0.3v0.1c0.2,0,0.4-0.2,0.4-0.4
	S23.2,15.6,22.9,15.6z M12.2,5.5C12.2,5.5,12.2,5.4,12.2,5.5c0-0.1,0-0.1-0.1-0.1l-0.2,0.1l0,0l0,0l0.1-0.2c0,0,0-0.1,0-0.1
	c0,0-0.1,0-0.1,0l-0.1,0.2l0,0l0,0l-0.1-0.2c0,0-0.1,0-0.1,0s-0.1,0.1,0,0.1l0.1,0.2l0,0l0,0l-0.2-0.1c0,0-0.1,0-0.1,0
	c0,0,0,0.1,0,0.1l0.2,0.1l0,0l0,0l-0.2,0.1c0,0,0,0.1,0,0.1c0,0,0.1,0.1,0.1,0l0.2-0.1l0,0l0,0L11.4,6c0,0,0,0.1,0,0.1
	c0,0,0.1,0,0.1,0l0.1-0.2l0,0l0,0l0.1,0.2c0,0,0.1,0,0.1,0S12,6,11.9,6l-0.1-0.2l0,0l0,0l0.2,0.1c0,0,0.1,0,0.1,0c0,0,0-0.1,0-0.1
	L12,5.6l0,0l0,0L12.2,5.5z M5.5,19.8C5.5,19.8,5.4,19.8,5.5,19.8c-0.1,0-0.1,0-0.1,0.1l0.1,0.2l0,0l0,0l-0.2-0.1c0,0-0.1,0-0.1,0
	c0,0,0,0.1,0,0.1l0.2,0.1l0,0l0,0l-0.2,0.1c0,0,0,0.1,0,0.1c0,0,0.1,0.1,0.1,0l0.2-0.1l0,0l0,0l-0.1,0.2c0,0,0,0.1,0,0.1
	c0,0,0.1,0,0.1,0l0.1-0.2l0,0l0,0l0.1,0.2c0,0,0.1,0,0.1,0c0,0,0.1-0.1,0-0.1l-0.1-0.2l0,0l0,0L6,20.6c0,0,0.1,0,0.1,0
	c0,0,0-0.1,0-0.1l-0.2-0.1l0,0l0,0l0.2-0.1c0,0,0-0.1,0-0.1c0,0-0.1-0.1-0.1,0l-0.2,0.1l0,0l0,0l0.1-0.2c0,0,0-0.1,0-0.1
	c0,0-0.1,0-0.1,0L5.6,20l0,0l0,0L5.5,19.8z M19.8,26.5C19.8,26.5,19.8,26.6,19.8,26.5c0,0.1,0,0.1,0.1,0.1l0.2-0.1l0,0l0,0l-0.1,0.2
	c0,0,0,0.1,0,0.1c0,0,0.1,0,0.1,0l0.1-0.2l0,0l0,0l0.1,0.2c0,0,0.1,0,0.1,0c0,0,0.1-0.1,0-0.1l-0.1-0.2l0,0l0,0l0.2,0.1
	c0,0,0.1,0,0.1,0c0,0,0-0.1,0-0.1l-0.2-0.1l0,0l0,0l0.2-0.1c0,0,0-0.1,0-0.1c0,0-0.1-0.1-0.1,0l-0.2,0.1l0,0l0,0l0.1-0.2
	c0,0,0-0.1,0-0.1c0,0-0.1,0-0.1,0l-0.1,0.2l0,0l0,0l-0.1-0.2c0,0-0.1,0-0.1,0c0,0-0.1,0.1,0,0.1l0.1,0.2l0,0l0,0l-0.2-0.1
	c0,0-0.1,0-0.1,0c0,0,0,0.1,0,0.1l0.2,0.1l0,0l0,0L19.8,26.5z M26.5,12.2C26.5,12.2,26.6,12.2,26.5,12.2c0.1,0,0.1,0,0.1-0.1
	l-0.1-0.2l0,0l0,0l0.2,0.1c0,0,0.1,0,0.1,0c0,0,0-0.1,0-0.1l-0.2-0.1l0,0l0,0l0.2-0.1c0,0,0-0.1,0-0.1s-0.1-0.1-0.1,0l-0.2,0.1l0,0
	l0,0l0.1-0.2c0,0,0-0.1,0-0.1c0,0-0.1,0-0.1,0l-0.1,0.2l0,0l0,0l-0.1-0.2c0,0-0.1,0-0.1,0c0,0-0.1,0.1,0,0.1l0.1,0.2l0,0l0,0
	L26,11.4c0,0-0.1,0-0.1,0c0,0,0,0.1,0,0.1l0.2,0.1l0,0l0,0l-0.2,0.1c0,0,0,0.1,0,0.1s0.1,0.1,0.1,0l0.2-0.1l0,0l0,0l-0.1,0.2
	c0,0,0,0.1,0,0.1c0,0,0.1,0,0.1,0l0.1-0.2l0,0l0,0L26.5,12.2z M20,5.6L20,5.6L20,5.6l-0.2,0.1c0,0,0,0.1,0,0.1c0,0,0.1,0.1,0.1,0
	l0.2-0.1l0,0l0,0L20.1,6c0,0,0,0.1,0,0.1c0,0,0.1,0,0.1,0l0.1-0.2l0,0l0,0l0.1,0.2c0,0,0.1,0,0.1,0c0,0,0.1-0.1,0-0.1l-0.1-0.2l0,0
	l0,0l0.2,0.1c0,0,0.1,0,0.1,0c0,0,0-0.1,0-0.1l-0.2-0.1l0,0l0,0l0.2-0.1c0,0,0-0.1,0-0.1c0,0-0.1-0.1-0.1,0l-0.2,0.1l0,0l0,0
	l0.1-0.2c0,0,0-0.1,0-0.1c0,0-0.1,0-0.1,0l-0.1,0.2l0,0l0,0l-0.1-0.2c0,0-0.1,0-0.1,0c0,0-0.1,0.1,0,0.1l0.1,0.2l0,0l0,0l-0.2-0.1
	c0,0-0.1,0-0.1,0c0,0,0,0.1,0,0.1L20,5.6z M5.6,12L5.6,12L5.6,12l0.1,0.2c0,0,0.1,0,0.1,0c0,0,0.1-0.1,0-0.1l-0.1-0.2l0,0l0,0
	L6,11.9c0,0,0.1,0,0.1,0s0-0.1,0-0.1l-0.2-0.1l0,0l0,0l0.2-0.1c0,0,0-0.1,0-0.1c0,0-0.1-0.1-0.1,0l-0.2,0.1l0,0l0,0l0.1-0.2
	c0,0,0-0.1,0-0.1c0,0-0.1,0-0.1,0l-0.1,0.2l0,0l0,0l-0.1-0.2c0,0-0.1,0-0.1,0c0,0-0.1,0.1,0,0.1l0.1,0.2l0,0l0,0l-0.2-0.1
	c0,0-0.1,0-0.1,0s0,0.1,0,0.1l0.2,0.1l0,0l0,0l-0.2,0.1c0,0,0,0.1,0,0.1c0,0,0.1,0.1,0.1,0l0.2-0.1l0,0l0,0l-0.1,0.2
	c0,0,0,0.1,0,0.1c0,0,0.1,0,0.1,0L5.6,12z M12,26.4L12,26.4L12,26.4l0.2-0.1c0,0,0-0.1,0-0.1c0,0-0.1-0.1-0.1,0l-0.2,0.1l0,0l0,0
	l0.1-0.2c0,0,0-0.1,0-0.1s-0.1,0-0.1,0l-0.1,0.2l0,0l0,0l-0.1-0.2c0,0-0.1,0-0.1,0c0,0-0.1,0.1,0,0.1l0.1,0.2l0,0l0,0l-0.2-0.1
	c0,0-0.1,0-0.1,0c0,0,0,0.1,0,0.1l0.2,0.1l0,0l0,0l-0.2,0.1c0,0,0,0.1,0,0.1c0,0,0.1,0.1,0.1,0l0.2-0.1l0,0l0,0l-0.1,0.2
	c0,0,0,0.1,0,0.1s0.1,0,0.1,0l0.1-0.2l0,0l0,0l0.1,0.2c0,0,0.1,0,0.1,0c0,0,0.1-0.1,0-0.1l-0.1-0.2l0,0l0,0l0.2,0.1c0,0,0.1,0,0.1,0
	c0,0,0-0.1,0-0.1L12,26.4z M26.4,20L26.4,20L26.4,20l-0.1-0.2c0,0-0.1,0-0.1,0c0,0-0.1,0.1,0,0.1l0.1,0.2l0,0l0,0L26,20.1
	c0,0-0.1,0-0.1,0c0,0,0,0.1,0,0.1l0.2,0.1l0,0l0,0l-0.2,0.1c0,0,0,0.1,0,0.1c0,0,0.1,0.1,0.1,0l0.2-0.1l0,0l0,0l-0.1,0.2
	c0,0,0,0.1,0,0.1c0,0,0.1,0,0.1,0l0.1-0.2l0,0l0,0l0.1,0.2c0,0,0.1,0,0.1,0c0,0,0.1-0.1,0-0.1l-0.1-0.2l0,0l0,0l0.2,0.1
	c0,0,0.1,0,0.1,0c0,0,0-0.1,0-0.1l-0.2-0.1l0,0l0,0l0.2-0.1c0,0,0-0.1,0-0.1c0,0-0.1-0.1-0.1,0l-0.2,0.1l0,0l0,0l0.1-0.2
	c0,0,0-0.1,0-0.1c0,0-0.1,0-0.1,0L26.4,20z"/>
</svg>
