<!-- Generated by IcoMoon.io -->
<svg version="1.1" xmlns="http://www.w3.org/2000/svg" width="32" height="32" viewBox="0 0 32 32">
<title>B_Button</title>
<path d="M20.124 11.458q0 1.348-0.915 1.862t-2.070 0.514h-4.686v-4.59h4.975q2.696 0 2.696 2.215zM17.557 17.075q0.481 0 0.947 0.096t1.059 0.337 0.947 0.851 0.353 1.476q0 1.059-0.674 1.701-0.77 0.77-2.471 0.77h-5.264v-5.232h5.103zM16.080 0.128q4.333 0 7.992 2.102t5.793 5.729 2.134 7.96q0 4.237-2.134 7.928t-5.809 5.858-7.976 2.166q-6.612 0-11.33-4.782-2.215-2.215-3.482-5.103t-1.268-6.066 1.284-6.114 3.466-5.023q4.75-4.654 11.33-4.654zM23.077 23.815q1.637-1.573 1.637-4.044 0-2.022-1.284-3.37-0.674-0.706-1.733-1.22 0.674-0.417 1.252-1.027 0.995-1.188 0.995-2.889 0-2.183-1.476-3.659-1.829-1.765-4.975-1.765h-8.826v19.9h9.212q3.338 0 5.2-1.926z"></path>
</svg>
