<?xml version="1.0" encoding="utf-8"?>
<!-- Generator: Adobe Illustrator 23.0.4, SVG Export Plug-In . SVG Version: 6.00 Build 0)  -->
<svg version="1.1" id="Layer_1" xmlns="http://www.w3.org/2000/svg" xmlns:xlink="http://www.w3.org/1999/xlink" x="0px" y="0px"
	 width="32px" height="32px" viewBox="0 0 32 32" style="enable-background:new 0 0 32 32;" xml:space="preserve">
<path d="M16,0C7.2,0,0,7.2,0,16s7.2,16,16,16s16-7.2,16-16S24.8,0,16,0z M18.4,5.8c3.6,0,6.4,1.6,6.4,5.2c0,1.8-0.8,3.2-2.8,3.9V15
	c2.1,0.7,3.6,2.4,3.6,4.9c0,3.9-3,5.9-6.9,5.9H8.8V5.8H18.4z M20,11.7c0-1.4-1-2-2.4-2h-4v4h4C19,13.7,20,13,20,11.7z M20.6,19.4
	c0-1.6-1.2-2.4-2.7-2.4h-4.3v4.7H18C19.7,21.8,20.6,20.7,20.6,19.4z"/>
</svg>
