<!-- Generated by IcoMoon.io -->
<svg version="1.1" xmlns="http://www.w3.org/2000/svg" width="32" height="32" viewBox="0 0 32 32">
<title>dpad_left001</title>
<path d="M12.471 0h7.058q0.72 0 1.199 0.48t0.48 1.131v7.64q0 0.651 0.48 1.131t1.062 0.48h7.606q0.651 0 1.148 0.463t0.497 1.148v7.058q0 0.72-0.497 1.199t-1.148 0.48h-7.606q-0.582 0-1.062 0.48t-0.48 1.062v7.606q0 0.651-0.48 1.148t-1.199 0.497h-7.058q-0.685 0-1.148-0.497t-0.463-1.148v-7.606q0-0.582-0.48-1.062t-1.131-0.48h-7.64q-0.651 0-1.131-0.48t-0.48-1.199v-7.058q0-0.685 0.48-1.148t1.131-0.463h7.64q0.651 0 1.131-0.48t0.48-1.131v-7.64q0-0.651 0.463-1.131t1.148-0.48zM8.565 12.505l-6.407 3.495 6.407 3.426v-6.921z"></path>
</svg>
