<?xml version="1.0" encoding="utf-8"?>
<!-- Generator: Adobe Illustrator 23.0.4, SVG Export Plug-In . SVG Version: 6.00 Build 0)  -->
<svg version="1.1" id="Layer_1" xmlns="http://www.w3.org/2000/svg" xmlns:xlink="http://www.w3.org/1999/xlink" x="0px" y="0px"
	 width="32px" height="32px" viewBox="0 0 32 32" style="enable-background:new 0 0 32 32;" xml:space="preserve">
<title>dpad_down001</title>
<path d="M32,12.5v7.1c0,0.9-0.8,1.6-1.6,1.6h-7.6c-0.9,0-1.6,0.7-1.6,1.6v7.6c0,0.8-0.7,1.6-1.6,1.6h-7.1c-1,0-1.7-0.8-1.7-1.6v-7.6
	c0-0.9-0.8-1.6-1.5-1.6H1.6c-0.8,0-1.6-0.7-1.6-1.6v-7.1c0-1,0.8-1.7,1.6-1.7h7.6c0.8,0,1.5-0.8,1.5-1.5V1.6c0-0.4,0.2-0.8,0.5-1.1
	S12,0,12.5,0h7.1c0.9,0,1.6,0.8,1.6,1.6v7.6c0,0.7,0.7,1.5,1.6,1.5h7.6C31.2,10.8,32,11.5,32,12.5z M16,29.8l3.5-6.4h-6.9L16,29.8z"
	/>
</svg>
