<?xml version="1.0" encoding="utf-8"?>
<!-- Generator: Adobe Illustrator 23.0.4, SVG Export Plug-In . SVG Version: 6.00 Build 0)  -->
<svg version="1.1" id="Layer_1" xmlns="http://www.w3.org/2000/svg" xmlns:xlink="http://www.w3.org/1999/xlink" x="0px" y="0px"
	 width="32px" height="32px" viewBox="0 0 32 32" style="enable-background:new 0 0 32 32;" xml:space="preserve">
<title>dpad_right001</title>
<path d="M12.5,0h7.1c0.9,0,1.6,0.8,1.6,1.6v7.6c0,0.9,0.7,1.6,1.6,1.6h7.6c0.4,0,0.8,0.2,1.1,0.5c0.3,0.3,0.5,0.7,0.5,1.1v7.1
	c0,1-0.8,1.7-1.6,1.7h-7.6c-0.9,0-1.6,0.8-1.6,1.5v7.6c0,0.8-0.7,1.6-1.6,1.6h-7.1c-1,0-1.7-0.8-1.7-1.6v-7.6c0-0.8-0.8-1.5-1.5-1.5
	H1.6c-0.8,0-1.6-0.7-1.6-1.7v-7.1c0-0.9,0.8-1.6,1.6-1.6h7.6c0.7,0,1.5-0.7,1.5-1.6V1.6C10.8,0.8,11.5,0,12.5,0z M29.8,16l-6.4-3.5
	v6.9L29.8,16z"/>
</svg>
