<?xml version="1.0" encoding="utf-8"?>
<!-- Generator: Adobe Illustrator 23.0.4, SVG Export Plug-In . SVG Version: 6.00 Build 0)  -->
<svg version="1.1" id="Layer_1" xmlns="http://www.w3.org/2000/svg" xmlns:xlink="http://www.w3.org/1999/xlink" x="0px" y="0px"
	 width="32px" height="32px" viewBox="0 0 32 32" style="enable-background:new 0 0 32 32;" xml:space="preserve">
<title>dpad_left001</title>
<path d="M12.5,0h7.1c1,0,1.7,0.8,1.7,1.6v7.6c0,0.9,0.8,1.6,1.5,1.6h7.6c0.8,0,1.6,0.7,1.6,1.6v7.1c0,1-0.8,1.7-1.6,1.7h-7.6
	c-0.8,0-1.5,0.8-1.5,1.5v7.6c0,0.8-0.7,1.6-1.7,1.6h-7.1c-0.9,0-1.6-0.8-1.6-1.6v-7.6c0-0.7-0.7-1.5-1.6-1.5H1.6
	c-0.8,0-1.6-0.7-1.6-1.7v-7.1c0-0.9,0.8-1.6,1.6-1.6h7.6c0.4,0,0.8-0.2,1.1-0.5s0.5-0.7,0.5-1.1V1.6C10.9,0.8,11.5,0,12.5,0z
	 M8.6,12.5L2.2,16l6.4,3.4C8.6,19.4,8.6,12.5,8.6,12.5z"/>
</svg>
