<?xml version="1.0" encoding="utf-8"?>
<!-- Generator: Adobe Illustrator 23.0.4, SVG Export Plug-In . SVG Version: 6.00 Build 0)  -->
<svg version="1.1" id="Layer_1" xmlns="http://www.w3.org/2000/svg" xmlns:xlink="http://www.w3.org/1999/xlink" x="0px" y="0px"
	 width="32px" height="32px" viewBox="0 0 32 32" style="enable-background:new 0 0 32 32;" xml:space="preserve">
<path d="M25,15.3h-2.6v-2.6h2.6c0.9,0,1.5,0.4,1.5,1.3C26.6,14.9,25.9,15.3,25,15.3z M25.3,17.5h-2.8v3.1h2.9c1,0,1.7-0.5,1.7-1.5
	C27,18,26.2,17.5,25.3,17.5z M32,8.7v14.7c0,1.6-1,2.8-2.9,2.8h-27c-2.4,0-2.1-2.6-2.1-4.9c0-0.7-0.3-5.5,3.4-9.4
	c6.4-6.7,16.8-6.1,17.1-6.1h8.6C31.1,5.8,32,7.1,32,8.7z M18,20.5h-5.8V10.2H8.9v13H18V20.5z M30.2,19.4c0-1.6-0.9-2.8-2.3-3.2v-0.1
	c1.3-0.5,1.8-1.4,1.8-2.5c0-1.9-1.3-3.4-4.2-3.4h-6.3v13h6.4c1.4,0,2.4-0.3,3.2-0.9C29.8,21.5,30.2,20.5,30.2,19.4z"/>
</svg>
