<!-- Generated by IcoMoon.io -->
<svg version="1.1" xmlns="http://www.w3.org/2000/svg" width="32" height="32" viewBox="0 0 32 32">
<title>left_click001</title>
<path d="M11.583 22.457h8.363v-2.158h-6.036v-10.723h-2.327v12.881zM23.115 0l-7.115 5.058-7.149-5.058h14.263zM30.87 17.096q0 4.653-4.367 8.008t-10.504 3.355-10.504-3.355-4.367-8.008q0-3.136 1.989-5.766t5.412-4.148 7.469-1.517 7.469 1.517 5.412 4.148 1.989 5.766zM16 29.572q2.596 0 5.024-0.607-0.506 1.113-1.383 1.855-1.416 1.18-3.642 1.18-2.259 0-3.642-1.146-0.91-0.742-1.45-1.956 2.091 0.674 5.092 0.674z"></path>
</svg>
