<!-- Generated by IcoMoon.io -->
<svg version="1.1" xmlns="http://www.w3.org/2000/svg" width="32" height="32" viewBox="0 0 32 32">
<title>left_trigger</title>
<path d="M3.294 27.124q0.123-0.154 0.54-0.679t0.633-0.802 0.54-0.756 0.54-0.926 0.37-0.91q0.247-0.864 0.432-2.067 0.216-1.203 0.216-2.962 0.031-1.142 0.031-2.901 0-5.986-1.481-9.782-0.278-0.741-0.679-1.713t-0.602-1.481-0.201-0.725q0-0.741 0.432-1.080t1.45-0.339h21.385q1.049 0 1.805 0.987t0.756 2.53v12.683q0 2.592-0.37 4.629-0.71 3.857-3.796 6.943-1.944 2.037-4.351 3.132t-4.598 1.095h-11.232q-0.926 0-1.682-0.756t-0.879-1.836 0.741-2.284zM25.265 10.492v-1.636h-6.665v1.636h2.345v10.152h1.882v-10.152h2.438zM17.643 20.428v-1.574h-4.258v-9.875h-1.79v11.448h6.048z"></path>
</svg>
