<?xml version="1.0" encoding="utf-8"?>
<!-- Generator: Adobe Illustrator 23.0.4, SVG Export Plug-In . SVG Version: 6.00 Build 0)  -->
<svg version="1.1" id="Layer_1" xmlns="http://www.w3.org/2000/svg" xmlns:xlink="http://www.w3.org/1999/xlink" x="0px" y="0px"
	 width="32px" height="32px" viewBox="0 0 32 32" style="enable-background:new 0 0 32 32;" xml:space="preserve">
<path d="M23.1,0L16,5.1L8.9,0H23.1z M16,5.7c-7.6,0-14.9,4.6-14.9,11.4c0,7,7.7,11.4,14.9,11.4c7.1,0,14.9-4.4,14.9-11.4
	C30.9,10.2,23.6,5.7,16,5.7z M20.2,22.5h-9V9.6h3.2v10.2h5.8V22.5z M16,29.6c1.7,0,3.4-0.2,5-0.6c-0.9,1.9-2.5,3-5,3
	c-2.3,0-4.1-0.9-5.1-3.1C12.3,29.3,14,29.6,16,29.6z"/>
</svg>
