<?xml version="1.0" encoding="utf-8"?>
<!-- Generator: Adobe Illustrator 23.0.4, SVG Export Plug-In . SVG Version: 6.00 Build 0)  -->
<svg version="1.1" id="Layer_1" xmlns="http://www.w3.org/2000/svg" xmlns:xlink="http://www.w3.org/1999/xlink" x="0px" y="0px"
	 width="32px" height="32px" viewBox="0 0 32 32" style="enable-background:new 0 0 32 32;" xml:space="preserve">
<path d="M28.4,0.7C28,0.2,27.5,0,26.9,0H5.5C4.3,0,3.6,0.3,3.6,1.4c0,2.3,3,1.8,3,15.9c0,1.7-0.1,3.8-0.7,5.7
	c-0.9,3-3.4,4.1-3.4,6.1c0,1.5,1.2,2.9,2.6,2.9h11.2c6,0,13.1-5.7,13.1-15.2C29.5,2.8,29.8,2,28.4,0.7z M18.2,20.7H10V8.9h2.9v9.3
	h5.3V20.7z M26.9,11.3h-3.5v9.3h-2.9v-9.3h-3.4V8.9h9.8V11.3z"/>
</svg>
