<?xml version="1.0" encoding="utf-8"?>
<!-- Generator: Adobe Illustrator 23.0.4, SVG Export Plug-In . SVG Version: 6.00 Build 0)  -->
<svg version="1.1" id="Layer_1" xmlns="http://www.w3.org/2000/svg" xmlns:xlink="http://www.w3.org/1999/xlink" x="0px" y="0px"
	 width="32px" height="32px" viewBox="0 0 32 32" style="enable-background:new 0 0 32 32;" xml:space="preserve">
<path d="M16,0C8.1,0,0.5,4.7,0.5,11.9c0,7.2,8,11.8,15.5,11.8c7.4,0,15.5-4.5,15.5-11.8C31.5,4.8,23.9,0,16,0z M22.5,19.7H11.4V3.8
	h4v12.6h7.2V19.7z M16,24.9c1.9,0,3.7-0.2,5.6-0.7c-0.2,2.1,0.7,4.6-1.6,6.5c-1.1,0.9-2.4,1.4-4,1.4c-1.6,0-2.9-0.5-4-1.4
	c-2.3-2-1.4-4.6-1.6-6.5C12.2,24.6,14.1,24.8,16,24.9z"/>
</svg>
