<?xml version="1.0" encoding="utf-8"?>
<!-- Generator: Adobe Illustrator 23.0.4, SVG Export Plug-In . SVG Version: 6.00 Build 0)  -->
<svg version="1.1" id="Layer_1" xmlns="http://www.w3.org/2000/svg" xmlns:xlink="http://www.w3.org/1999/xlink" x="0px" y="0px"
	 width="32px" height="32px" viewBox="0 0 32 32" style="enable-background:new 0 0 32 32;" xml:space="preserve">
<path d="M32,21.3c0-0.7,0.3-5.5-3.4-9.4c-6.4-6.7-16.8-6.1-17.1-6.1H2.9C0.9,5.8,0,7.1,0,8.7v14.7c0,1.6,1,2.8,2.9,2.8h27
	C32.3,26.2,32,23.6,32,21.3z M14,23.2h-3.1c-0.9-0.5,0.7-4.9-2.7-4.9h-2v4.9H3v-13h6.2c2.5,0,4.6,1.2,4.6,3.8c0,1.5-0.7,2.6-2.3,3.1
	v0.1c0.6,0.2,1,0.5,1.3,0.9c1.1,1.4,0.5,4.8,1.1,5V23.2z M21.7,23.2h-6.4v-13h6.3c2.8,0,4.2,1.5,4.2,3.4c0,1.2-0.5,2.1-1.8,2.6v0
	c1.4,0.4,2.3,1.6,2.3,3.2C26.2,22,24.3,23.2,21.7,23.2z M21.2,17.5h-2.8v3.1h2.9c1,0,1.7-0.5,1.7-1.5C23,18,22.2,17.5,21.2,17.5z
	 M22.6,14c0-0.9-0.7-1.3-1.6-1.3h-2.6v2.6H21C21.9,15.3,22.6,14.9,22.6,14z M8.7,12.8H6.2V16h2.4c1.4,0,1.9-0.7,1.9-1.6
	C10.6,13.4,9.9,12.8,8.7,12.8z"/>
</svg>
