<!-- Generated by IcoMoon.io -->
<svg version="1.1" xmlns="http://www.w3.org/2000/svg" width="32" height="32" viewBox="0 0 32 32">
<title>RB</title>
<path d="M22.874 13.701q0 0.975-0.65 1.521t-1.765 0.546h-2.787v-3.971h2.972q1.045 0 1.637 0.499t0.592 1.405zM2.856 5.829h10.102q8.174 0 14.491 5.062 2.206 1.718 3.379 4.401t1.173 5.306v2.88q0 1.115-0.476 1.904t-1.614 0.79h-27.054q-1.324 0-2.090-0.766t-0.766-1.927v-14.792q0-1.115 0.685-1.986t2.171-0.871zM23.919 22.015q0.952-1.022 0.952-2.531 0-1.254-0.732-2.044t-1.985-1.091l0.302-0.070q2.183-0.627 2.183-2.717 0-1.37-0.882-2.253-1.091-1.115-3.089-1.115h-4.807v13.004h4.784q2.067 0 3.274-1.184zM17.672 17.184h2.787q1.161 0 1.893 0.604t0.732 1.742q0 0.929-0.581 1.44-0.673 0.697-1.974 0.697h-2.856v-4.482zM6.084 11.797h2.856q1.463 0 2.078 0.522t0.615 1.591q0 0.813-0.72 1.37t-2.044 0.557h-2.787v-4.041zM13.864 23.222v-0.046q-0.209-0.116-0.395-0.766-0.163-0.697-0.255-2.903-0.093-0.697-0.557-1.649t-1.556-1.254v-0.093q2.485-0.766 2.531-2.903 0.046-1.533-1.068-2.496t-3.089-0.917h-5.179v13.028h1.788v-5.898h2.531q1.37 0 1.997 0.743 0.604 0.72 0.72 1.463 0.070 2.136 0.186 2.903 0.093 0.627 0.302 0.79h2.044z"></path>
</svg>
