<?xml version="1.0" encoding="utf-8"?>
<!-- Generator: Adobe Illustrator 23.0.4, SVG Export Plug-In . SVG Version: 6.00 Build 0)  -->
<svg version="1.1" id="Layer_1" xmlns="http://www.w3.org/2000/svg" xmlns:xlink="http://www.w3.org/1999/xlink" x="0px" y="0px"
	 width="32px" height="32px" viewBox="0 0 32 32" style="enable-background:new 0 0 32 32;" xml:space="preserve">
<path d="M23.1,0L16,5.1L8.9,0H23.1z M17.3,12.5h-2.9v3.8h2.8c1.6,0,2.2-0.8,2.2-1.8C19.5,13.3,18.8,12.5,17.3,12.5z M16,5.7
	C7.4,5.6,1.1,11,1.1,17.1C1.1,24,8.7,28.5,16,28.5c7.1,0,14.9-4.4,14.9-11.4C30.9,10.2,23.6,5.7,16,5.7z M23.4,24.6h-3.5
	c-1.1-0.6,0.8-5.7-3.2-5.7h-2.3v5.7h-3.7V9.5H18c2.9,0,5.3,1.4,5.3,4.4c0,1.8-0.9,3.1-2.7,3.7v0.1c0.8,0.3,1.2,0.6,1.5,1.1
	C23.4,20.4,22.7,24.3,23.4,24.6z M16,29.6c1.7,0,3.4-0.2,5-0.6c-0.9,1.9-2.5,3-5,3c-2.3,0-4.1-0.9-5.1-3.1
	C12.3,29.3,14,29.6,16,29.6z"/>
</svg>
