<?xml version="1.0" encoding="utf-8"?>
<!-- Generator: Adobe Illustrator 23.0.4, SVG Export Plug-In . SVG Version: 6.00 Build 0)  -->
<svg version="1.1" id="Layer_1" xmlns="http://www.w3.org/2000/svg" xmlns:xlink="http://www.w3.org/1999/xlink" x="0px" y="0px"
	 width="32px" height="32px" viewBox="0 0 32 32" style="enable-background:new 0 0 32 32;" xml:space="preserve">
<path d="M19.2,9.1c0,1.1-0.6,1.9-2.3,1.9H14V7.1h3C18.5,7.1,19.3,7.9,19.2,9.1z M31.5,11.9c0,7.3-8.1,11.8-15.5,11.8
	c-7.5,0-15.5-4.6-15.5-11.8S8.1,0,16,0S31.5,4.8,31.5,11.9z M23.3,19.6c-0.7-0.2,0-4.3-1.3-6c-0.4-0.5-0.8-0.8-1.6-1.1v-0.1
	c1.9-0.6,2.8-1.9,2.8-3.8c0-3.1-2.5-4.6-5.5-4.6h-7.5v15.7H14v-5.9h2.4c4.1,0,2.2,5.3,3.3,5.9L23.3,19.6L23.3,19.6z M10.4,24.1
	c0.2,1.9-0.7,4.6,1.6,6.5c1.1,0.9,2.4,1.4,4,1.4s2.9-0.5,4-1.4c2.3-1.9,1.4-4.5,1.6-6.5c-1.8,0.5-3.7,0.7-5.6,0.7
	C14.1,24.8,12.2,24.6,10.4,24.1z"/>
</svg>
