<?xml version="1.0" encoding="utf-8"?>
<!-- Generator: Adobe Illustrator 23.0.6, SVG Export Plug-In . SVG Version: 6.00 Build 0)  -->
<svg version="1.1" id="Layer_1" xmlns="http://www.w3.org/2000/svg" xmlns:xlink="http://www.w3.org/1999/xlink" x="0px" y="0px"
	 width="32px" height="32px" viewBox="0 0 32 32" style="enable-background:new 0 0 32 32;" xml:space="preserve">
<path d="M23.1,0L16,5.1L8.9,0H23.1z M16,29.6c1.7,0,3.4-0.2,5-0.6c-0.9,1.9-2.5,3-5,3c-2.3,0-4.1-0.9-5.1-3.1
	C12.3,29.3,14,29.6,16,29.6z M19.1,14.5c0,1.1-0.6,1.8-2.2,1.8h-2.8v-3.7H17C18.4,12.5,19.2,13.3,19.1,14.5z M30.9,17.1
	c0,7-7.8,11.3-14.9,11.3c-7.2,0-14.9-4.4-14.9-11.3S8.4,5.7,16,5.7S30.9,10.3,30.9,17.1z M23,24.6c-0.7-0.2,0-4.1-1.2-5.8
	c-0.4-0.5-0.8-0.8-1.5-1.1v-0.1c1.8-0.6,2.7-1.8,2.7-3.7c0-3-2.4-4.4-5.3-4.4h-7.2v15.1h3.7V19h2.3c3.9,0,2.1,5.1,3.2,5.7L23,24.6
	L23,24.6z"/>
</svg>
