<?xml version="1.0" encoding="utf-8"?>
<!-- Generator: Adobe Illustrator 23.0.4, SVG Export Plug-In . SVG Version: 6.00 Build 0)  -->
<svg version="1.1" id="Layer_1" xmlns="http://www.w3.org/2000/svg" xmlns:xlink="http://www.w3.org/1999/xlink" x="0px" y="0px"
	 width="32px" height="32px" viewBox="0 0 32 32" style="enable-background:new 0 0 32 32;" xml:space="preserve">
<path d="M26.1,23c-0.6-1.9-0.7-4-0.7-5.7c0-14,3-13.6,3-15.9c0-1.1-0.8-1.4-1.9-1.4H5.1C4.5,0,4,0.2,3.6,0.7C2.2,2,2.5,2.8,2.5,16.8
	C2.5,26.3,9.7,32,15.7,32h11.2c1.4,0,2.6-1.4,2.6-2.9C29.5,27.1,27,26,26.1,23z M14,20.5h-2.8c-0.8-0.5,0.6-4.4-2.4-4.4H7.1v4.4H4.2
	V8.9h5.6c2.2,0,4.1,1.1,4.1,3.3c0,1.4-0.7,2.3-2,2.8v0c0.4,0.2,0.8,0.4,1,0.6c1.2,1.2,0.5,4.5,1.2,4.7V20.5z M24.2,11.3h-3.4v9.2
	h-2.9v-9.2h-3.4V8.9h9.7V11.3z M9.3,11.2H7.1V14h2.2c1.2,0,1.7-0.6,1.7-1.4C11,11.8,10.4,11.2,9.3,11.2z"/>
</svg>
