<!-- Generated by IcoMoon.io -->
<svg version="1.1" xmlns="http://www.w3.org/2000/svg" width="32" height="32" viewBox="0 0 32 32">
<title>right_trigger001</title>
<path d="M28.726 27.12q0.865 1.205 0.741 2.286t-0.88 1.838-1.683 0.757h-11.243q-2.224 0-4.618-1.097t-4.371-3.135q-4.417-4.417-4.139-11.676v-12.571q0-1.544 0.757-2.533t1.807-0.988h21.405q1.019 0 1.452 0.34t0.432 1.081q0 0.216-0.185 0.695t-0.633 1.529-0.695 1.637q-1.452 3.676-1.452 9.73v2.903q0.031 2.965 0.68 5.066 0.124 0.402 0.324 0.834t0.371 0.741 0.479 0.741 0.463 0.633 0.525 0.633 0.463 0.556zM21.9 10.317v-1.421h-6.456v1.421h2.286v10.193h1.853v-10.193h2.317zM10.441 14.085h-2.1v-3.768h2.193q1.761 0 1.761 1.761 0 2.008-1.853 2.008zM6.518 8.896v11.614h1.822v-4.695h2.131q0.958 0 1.297 0.448t0.402 1.961q0.031 0.463 0.031 0.556 0 0.185 0.015 0.355t0.015 0.355q0.185 0.896 0.309 1.019h2.1q-0.402-0.278-0.556-0.988 0-0.278-0.015-0.741t-0.031-0.741-0.015-0.309q-0.031-1.791-0.463-2.348t-1.328-0.618v-0.031q1.946-0.371 1.946-2.965 0-1.452-0.849-2.162t-2.147-0.71h-4.664z"></path>
</svg>
