<!-- Generated by IcoMoon.io -->
<svg version="1.1" xmlns="http://www.w3.org/2000/svg" width="32" height="32" viewBox="0 0 32 32">
<title>Y_Button</title>
<path d="M16.080 0.128q4.333 0 7.992 2.102t5.793 5.729 2.134 7.96q0 4.237-2.134 7.928t-5.809 5.858-7.976 2.166q-6.548 0-11.33-4.782-2.215-2.215-3.482-5.103t-1.268-6.066 1.284-6.114 3.466-5.023q4.75-4.654 11.33-4.654zM17.846 18.616l7.446-11.747h-4.173l-3.659 5.938q-0.449 0.706-1.412 2.568-0.16-0.289-0.658-1.22t-0.754-1.348l-3.627-5.938h-4.333l7.382 11.619v8.281h3.787v-8.152z"></path>
</svg>
