<?xml version="1.0" encoding="utf-8"?>
<!-- Generator: Adobe Illustrator 25.0.1, SVG Export Plug-In . SVG Version: 6.00 Build 0)  -->
<svg version="1.1" id="Layer_1" xmlns="http://www.w3.org/2000/svg" xmlns:xlink="http://www.w3.org/1999/xlink" x="0px" y="0px"
	 viewBox="0 0 32 32" style="enable-background:new 0 0 32 32;" xml:space="preserve">
<g id="Operator">
	<path d="M26.5,14.5c-0.1,0-0.2-0.1-0.2-0.2s0.1-0.1,0.2-0.1c0.5-0.1,2.4-1,2.4-3v-1.1c0-0.1,0.1-0.2,0.2-0.1c0.1,0,0.1,0.1,0.1,0.1
		v1.1c0,2,1.9,2.9,2.4,3c0.1,0,0.1,0.1,0.1,0.1c0,0.1-0.1,0.1-0.1,0.2c-0.8,0.2-2.3,1.5-2.4,2.5c0,0.1-0.1,0.1-0.2,0.1
		c-0.1,0-0.1-0.1-0.1-0.1C28.8,16.1,27.3,14.7,26.5,14.5z M17.1,7c0-0.1,0.1-0.3,0.2-0.3L18,6.5c0.4-0.1,0.6-0.6,0.5-1
		c-0.1-0.4-0.6-0.6-1-0.5l0,0l-0.3,0.1c-0.1,0-0.2,0-0.2,0c-0.1,0-0.1-0.1-0.2-0.2c-1.3-3.7-5.3-5.8-9.1-4.5c-1.1,0.4-2,1-2.8,1.8
		C4.7,2.3,4.6,2.4,4.5,2.6C4.4,2.7,4.2,2.8,4,2.7c0,0,0,0,0,0L3.5,2.2C3.2,1.9,2.7,2,2.5,2.3C2.2,2.6,2.2,3,2.5,3.3L3.3,4
		c0.1,0.1,0.1,0.2,0.1,0.4C3.1,5,3,5.6,2.9,6.3c0,0.2-0.2,0.3-0.3,0.3H1.8c-0.4,0-0.7,0.3-0.7,0.7C1.1,7.7,1.4,8,1.8,8c0,0,0,0,0,0
		h0.8c0.2,0,0.3,0.1,0.3,0.3C3,9,3.3,9.8,3.6,10.4c0.1,0.1,0,0.3-0.1,0.4l-0.7,0.6c-0.3,0.3-0.3,0.7-0.1,1c0.3,0.3,0.7,0.3,1,0.1
		l2-1.7c0.1-0.1,0.1-0.3,0-0.4C4,8.2,4.3,4.9,6.5,3.1s5.4-1.5,7.2,0.7c1.3,1.6,1.5,3.7,0.7,5.5c-0.1,0.2,0,0.3,0.1,0.4c0,0,0,0,0,0
		l2.8,1.4c0.4,0.2,0.9,0,1-0.4c0.1-0.3,0.1-0.7-0.2-0.9C18,9.7,18,9.7,17.1,9.3c-0.1-0.1-0.2-0.2-0.2-0.4C17.1,8.3,17.2,7.6,17.1,7z
		 M24,13c0,0-0.1,0.1-0.1,0.1l-0.1,0.9c0,0,0,0,0,0c0,0,0,0,0,0l0.2-0.6l0.4-0.4c0,0,0,0,0.1,0c0,0,0,0,0,0l0,0.1c0,0,0,0.1,0,0.1
		l-0.3,0.5c-0.1,0.8,0.2,2.2-0.3,2.8l-5.7,6.5c-0.4,0.5-1.1,0.6-1.7,0.4c-1.1-0.3-2.3-0.5-3.5-0.6c-0.1,0-0.2,0-0.2,0.1
		c-0.1,0.1-0.1,0.1-0.1,0.2v8.6c0,0.2-0.1,0.3-0.3,0.3h-11c-0.1,0-0.2-0.1-0.3-0.2c-0.4-1-0.7-2.1-0.9-3.2c-0.2-1-0.1-2,0.1-3l2-9.1
		c0.1-0.6,0.5-1.2,1-1.6l1.9-1.5c0.2-0.2,0.4-0.4,0.6-0.7c0,0,1-2.1,1-2.7c0-0.3-0.1-0.6-0.3-0.9C6.2,8.7,6.1,8.2,6,7.6
		c0-2.5,1.1-3.7,3.1-3.7c2.4,0,5.1,1.2,4.8,4.4v0l-0.2,0.5c0,0,0,0,0,0.1l0.3,2c0,0,0,0.1,0,0.1c0,0-0.1,0-0.1,0l-0.6,0l-0.8,1.9
		c0,0.1-0.2,0.2-0.3,0.2l-2-0.1c-0.1,0-0.3,0.1-0.3,0.2c-0.3,0.9-0.5,1.3-0.6,1.5c-0.1,0.1,0,0.3,0.1,0.4c0.8,0.6,1.5,1.3,2.1,2
		c0.3,0.4,0.7,0.7,1.1,0.9c1.1,0.5,2.4,1.2,4.1,2.1c0.1,0.1,0.2,0.2,0.2,0.3v1.1c0,0.1,0,0.1,0.1,0.2c0.1,0,0.1,0,0.2-0.1
		c0,0,0,0,0,0v-1.2c0-0.1,0-0.2,0.1-0.2l5.1-4.4c0.1-0.1,0.2-0.3,0.2-0.4l0.6-2.8c0-0.1,0.1-0.2,0.2-0.3l1.8-1.4c0,0,0.1,0,0.1,0
		c0,0,0.1,0,0.1,0.1c0,0.1,0,0.1,0,0.2l-0.3,0.4l0,0.1c0,0.2-0.1,0.3-0.2,0.4L24,13z M3.5,26.6C3.5,26.5,3.5,26.5,3.5,26.6
		C3.5,26.5,3.5,26.5,3.5,26.6l-0.9,0.9c0,0,0,0,0,0l0.8,2.6c0,0,0,0,0,0c0,0,0,0,0,0L3.5,26.6z"/>
</g>
</svg>
