<?xml version="1.0" encoding="utf-8"?>
<!-- Generator: Adobe Illustrator 25.0.1, SVG Export Plug-In . SVG Version: 6.00 Build 0)  -->
<svg version="1.1" id="Scanner" xmlns="http://www.w3.org/2000/svg" xmlns:xlink="http://www.w3.org/1999/xlink" x="0px" y="0px"
	 viewBox="0 0 32 32" style="enable-background:new 0 0 32 32;" xml:space="preserve">
<path d="M20.7,7.2l1.2,1.2l-1.2,1.2l-1.2-1.2L20.7,7.2z M11.3,7.2l-1.2,1.2l1.2,1.2l1.2-1.2L11.3,7.2z M17.2,8.4l1.2,1.2l1.2-1.2
	l-1.2-1.2L17.2,8.4z M13.6,7.2l-1.2,1.2l1.2,1.2l1.2-1.2L13.6,7.2z M14.8,8.4L16,9.6l1.2-1.2L16,7.2L14.8,8.4z M13.6,10.4
	c-0.1,0-0.2,0.1-0.2,0.3c0.1,1.5,1.3,2.6,2.8,2.5c1.4-0.1,2.4-1.2,2.5-2.5c0-0.1-0.1-0.3-0.2-0.3c-1.1-0.1-2-0.1-2.4-0.1
	C15.6,10.3,14.7,10.4,13.6,10.4z M28.5,21.7c1.1-1.1,1.5-2.3,2.3-3.1c0.6-0.6,1.2-0.6,1.2-1.1s-0.6-0.5-1.2-1.1
	c-0.8-0.8-1.2-2-2.3-3.1c-0.9-1-2.5-1.6-4.1-2.1c-0.1,0-0.1,0-0.2,0c-0.1,0-0.1,0.1-0.1,0.2c-0.7,3.2-3.3,6.3-7.4,6.7
	c-0.1,0-0.2,0.1-0.2,0.3v6.1c0,0.1,0.1,0.3,0.3,0.3c0,0,0,0,0,0C19.3,24.7,25.9,24.3,28.5,21.7L28.5,21.7z M15.2,24.8
	c0.1,0,0.3-0.1,0.3-0.2c0,0,0,0,0,0v-6.1c0-0.1-0.1-0.2-0.2-0.3c-4.1-0.3-6.7-3.4-7.4-6.7c0-0.1-0.1-0.1-0.1-0.2c-0.1,0-0.1,0-0.2,0
	c-1.6,0.5-3.2,1.1-4.1,2.1c-1.1,1.1-1.5,2.3-2.3,3.1C0.6,17.1,0,17,0,17.6s0.6,0.5,1.2,1.1c0.8,0.8,1.2,2,2.3,3.1
	C6.1,24.3,12.7,24.7,15.2,24.8L15.2,24.8z M16.2,17.4c4.1,0,6.7-3.1,7.1-6.1c0-0.1-0.1-0.3-0.2-0.3c-1.1-0.2-2.1-0.4-3.2-0.5
	c-0.1,0-0.1,0-0.2,0.1c-0.1,0-0.1,0.1-0.1,0.2c-0.1,2-1.8,3.4-3.8,3.3c-1.8-0.1-3.2-1.5-3.3-3.3c0-0.1,0-0.1-0.1-0.2
	c-0.1,0-0.1-0.1-0.2-0.1C11.1,10.6,10,10.8,9,11c-0.1,0-0.2,0.2-0.2,0.3c0.4,3.1,3,6.1,7.1,6.1H16.2z"/>
</svg>
