<?xml version="1.0" encoding="utf-8"?>
<!-- Generator: Adobe Illustrator 25.0.1, SVG Export Plug-In . SVG Version: 6.00 Build 0)  -->
<svg version="1.1" id="Layer_1" xmlns="http://www.w3.org/2000/svg" xmlns:xlink="http://www.w3.org/1999/xlink" x="0px" y="0px"
	 viewBox="0 0 32 32" style="enable-background:new 0 0 32 32;" xml:space="preserve">
<g id="Supressor">
	<path d="M32,9.2c0-0.2-0.2-0.4-0.4-0.4c0,0,0,0,0,0h-3.5c-0.2,0-0.4-0.2-0.4-0.4V5.2c0-0.2-0.2-0.4-0.4-0.4c0,0,0,0,0,0h-4
		c-0.2,0-0.4-0.2-0.4-0.4V2.2c0-0.2-0.2-0.4-0.4-0.4H9.5C9.3,1.8,9.1,2,9.1,2.2v0v2.1c0,0.2-0.2,0.4-0.4,0.4h-4
		c-0.2,0-0.4,0.2-0.4,0.4c0,0,0,0,0,0v3.2c0,0.2-0.2,0.4-0.4,0.4H0.4C0.2,8.8,0,9,0,9.2c0,0,0,0,0,0v13.5c0,0.2,0.2,0.4,0.4,0.4
		c0,0,0,0,0,0h3.5c0.2,0,0.4,0.2,0.4,0.4v3.2c0,0.2,0.2,0.4,0.4,0.4c0,0,0,0,0,0h4c0.2,0,0.4,0.2,0.4,0.4v2.1c0,0.2,0.2,0.4,0.4,0.4
		h12.9c0.2,0,0.4-0.2,0.4-0.4v-2.1c0-0.2,0.2-0.4,0.4-0.4h4c0.2,0,0.4-0.2,0.4-0.4c0,0,0,0,0,0v-3.2c0-0.2,0.2-0.4,0.4-0.4h3.5
		c0.2,0,0.4-0.2,0.4-0.4c0,0,0,0,0,0V9.2z M19.3,16c0-0.1-0.1-0.2-0.2-0.2c-0.6-0.1-2.9-1.2-2.9-3.6V8.7h1.5c0.2,0,0.4,0.2,0.4,0.4
		c0,0,0,0,0,0v0.1c0,1,0.8,1.7,1.7,1.7h4.6c0.2,0,0.4,0.2,0.4,0.4c0,0,0,0,0,0v9.4c0,0.2-0.2,0.4-0.4,0.4c0,0,0,0,0,0h-4.6
		c-1,0-1.7,0.8-1.7,1.7c0,0,0,0,0,0c0,0.2-0.2,0.4-0.4,0.4c0,0,0,0,0,0h-1.4v-3.5c0-2.4,2.3-3.5,2.9-3.6
		C19.2,16.2,19.3,16.1,19.3,16z M12.7,16c0,0.1,0.1,0.2,0.2,0.2c0.6,0.1,2.9,1.2,2.9,3.6v3.5h-1.4c-0.2,0-0.4-0.2-0.4-0.4
		c0,0,0,0,0,0c0-1-0.8-1.7-1.7-1.7H7.6c-0.2,0-0.4-0.2-0.4-0.4c0,0,0,0,0,0v-9.4c0-0.2,0.2-0.4,0.4-0.4c0,0,0,0,0,0h4.6
		c1,0,1.7-0.8,1.7-1.7c0,0,0,0,0,0c0-0.2,0.2-0.4,0.4-0.4c0,0,0,0,0,0h1.4v3.5c0,2.4-2.3,3.5-2.9,3.6C12.8,15.8,12.7,15.9,12.7,16z"
		/>
</g>
</svg>
