<svg version="1.1" id="boots_armor" xmlns="http://www.w3.org/2000/svg" x="0px" y="0px" viewBox="0 0 51 51">
<path d="M13,7.6c3.63,0,10.02,0,13.96,0c1.73,0,2.99,1.64,2.54,3.32l-5.44,20.46c-0.07,0.28,0.03,0.57,0.28,0.72
	c0.99,0.62,4.64,2.57,8.15,5.78c0.12,0.11,2.92-0.03,3.09-0.01c2.31,0.2,3.97-0.08,5.05,4.7c0.09,0.42-0.21,0.82-0.64,0.82
	c-4.21,0-24.43,0-28.17,0c-0.34,0-0.63-0.26-0.66-0.61c-0.15-1.82-0.4-7.23,1.74-9.32c0.17-0.16,0.25-0.37,0.2-0.6
	c-0.39-1.74-2.09-9.83-2.74-22.48C10.29,8.88,11.48,7.6,13,7.6z"/>
</svg>
