<svg version="1.1" id="chest_armor" xmlns="http://www.w3.org/2000/svg" x="0px" y="0px" viewBox="0 0 51 51" >
<path d="M42.49,13.55c-1.06-1.51-4.05-5.05-9.52-6.49c-0.35-0.09-0.72,0.14-0.78,0.5c-0.35,2.04-1.78,8.08-6.69,8.08
	s-6.34-6.04-6.69-8.08c-0.06-0.36-0.43-0.59-0.78-0.5c-5.47,1.44-8.46,4.98-9.52,6.49c-0.24,0.34-0.09,0.8,0.3,0.94
	c2.01,0.7,7.34,2.94,7.34,7.01c0,4.24-4.47,6.89-5.87,7.61c-0.25,0.13-0.38,0.4-0.33,0.67c1.44,7.62,7.55,13.09,8.67,14.04
	c0.11,0.1,0.25,0.15,0.4,0.15h6.47h6.47c0.15,0,0.29-0.05,0.4-0.15c1.12-0.95,7.23-6.42,8.67-14.04c0.05-0.27-0.08-0.54-0.33-0.67
	c-1.4-0.72-5.87-3.37-5.87-7.61c0-4.08,5.33-6.32,7.34-7.01C42.58,14.35,42.73,13.88,42.49,13.55z"/>
</svg>
