<svg version="1.1" id="class_armor" xmlns="http://www.w3.org/2000/svg" x="0px" y="0px" viewBox="0 0 51 51">
	<path d="M43.12,7.12C38.99,9.45,25.5,9.02,25.5,9.02S12.01,9.45,7.88,7.12C7.51,6.91,7.03,7.09,6.94,7.51
		C6.58,9,6.07,11.93,7.03,13.37c0.09,0.13,0.22,0.21,0.38,0.25c1.23,0.3,7.36,1.65,18.09,1.65c10.73,0,16.86-1.35,18.09-1.65
		c0.15-0.04,0.29-0.12,0.38-0.25c0.96-1.44,0.45-4.37,0.1-5.86C43.97,7.09,43.49,6.91,43.12,7.12z"/>
	<g>
		<path d="M9.27,28.34c0,0,0,2.34,2.27,2.34s2.27-2.34,2.27-2.34V15.73c-1.93-0.22-3.45-0.45-4.55-0.65V28.34z"/>
		<path d="M16.3,34.8c0,0,0,2.34,2.27,2.34s2.27-2.34,2.27-2.34V16.24c-1.66-0.06-3.18-0.16-4.55-0.27V34.8z"/>
		<path d="M37.18,28.34c0,0,0,2.34,2.27,2.34s2.27-2.34,2.27-2.34V15.08c-1.09,0.2-2.61,0.44-4.55,0.65V28.34z"/>
		<path d="M30.15,34.8c0,0,0,2.34,2.27,2.34s2.27-2.34,2.27-2.34V15.97c-1.36,0.11-2.88,0.21-4.55,0.27V34.8z"/>
		<path d="M23.23,16.31v25.31c0,0,0,2.34,2.27,2.34s2.27-2.34,2.27-2.34V16.31c-0.74,0.01-1.49,0.02-2.27,0.02
			C24.72,16.34,23.96,16.33,23.23,16.31z"/>
	</g>
</svg>
