<svg version="1.1" id="glove_armor" xmlns="http://www.w3.org/2000/svg" x="0px" y="0px" viewBox="0 0 51 51" >
<path d="M40.1,30.03c0.39-0.47,0.59-1.11,0.42-1.8c-0.18-0.76-0.81-1.39-1.58-1.55c-0.81-0.17-1.54,0.14-2.01,0.68l0,0
	c0,0-0.03,0.04-0.05,0.07c-0.04,0.05-0.08,0.1-0.12,0.15c-0.47,0.61-1.95,2.37-3.29,2.45c-1.62,0.1,2.51-16.14,2.51-16.14l-0.01,0
	c0.04-0.15,0.07-0.31,0.07-0.48c0-0.98-0.79-1.77-1.77-1.77c-0.81,0-1.49,0.55-1.69,1.29l-0.01,0c0,0-0.01,0.03-0.01,0.05
	c-0.01,0.05-0.02,0.1-0.03,0.15c-0.24,1.21-1.68,8.2-2.81,8.89C28.48,22.77,28.5,8.79,28.5,8.79c0-0.98-0.79-1.77-1.77-1.77
	c-0.98,0-1.77,0.79-1.77,1.77c0,0-0.35,12.85-1.73,12.73c-1.37-0.12-2.47-10.67-2.47-10.67c0-0.98-0.79-1.77-1.77-1.77
	c-0.98,0-1.77,0.79-1.77,1.77c0,0.15,0.02,0.28,0.06,0.42c0.27,2.06,1.36,11.12-0.06,11.12c-1.6,0-3.68-6.35-3.68-6.35l0,0
	c-0.23-0.62-0.82-1.06-1.52-1.06c-0.9,0-1.62,0.73-1.62,1.62c0,0.09,0.01,0.17,0.03,0.25l-0.03,0.01c0,0,0.02,0.07,0.07,0.19
	c0.02,0.09,0.05,0.17,0.09,0.25c0.99,2.71,6.28,17.46,7.26,26.23c0.03,0.25,0.24,0.44,0.49,0.44h12.19c0.26,0,0.47-0.19,0.5-0.45
	c0.1-1.04,0.52-3.68,2.09-5.54c1.8-2.14,6.06-6.89,6.86-7.79c0.02-0.02,0.03-0.04,0.05-0.06C40.07,30.07,40.11,30.03,40.1,30.03
	L40.1,30.03z"/>
</svg>
